<?xml version="1.0" encoding="UTF-8"?>
<svg version="1.1" xmlns="http://www.w3.org/2000/svg" width="484" height="485">
<path d="M0 0 C0.7109375 2.17578125 0.7109375 2.17578125 1 5 C-0.3359375 7.54296875 -0.3359375 7.54296875 -2.375 10.1875 C-3.48681641 11.62996094 -3.48681641 11.62996094 -4.62109375 13.1015625 C-8.95583117 18.38296672 -13.53089691 23.4196375 -18.25390625 28.35546875 C-29.96360671 40.83902767 -39.06079393 55.95260482 -42 73 C-31.43314992 62.21948199 -23.7807454 51.52699931 -19 37 C-18.04903238 34.6411063 -17.0331037 32.32448332 -16 30 C-14.35 30.33 -12.7 30.66 -11 31 C-10.51555236 32.99872739 -10.0377234 34.99905937 -9.5625 37 C-9.29566406 38.11375 -9.02882812 39.2275 -8.75390625 40.375 C-5.46766612 56.17619609 -4.22327333 75.17218528 -12.47265625 89.5703125 C-16.90238239 95.91644499 -23.17608016 100.87128338 -30.8046875 102.65625 C-31.52914062 102.7696875 -32.25359375 102.883125 -33 103 C-33.07476562 103.59425781 -33.14953125 104.18851562 -33.2265625 104.80078125 C-35.35851143 118.24042012 -42.94542394 127.3753412 -53 136 C-53.66 136 -54.32 136 -55 136 C-54.835 136.66 -54.67 137.32 -54.5 138 C-53.87816701 141.73099794 -53.93591074 145.21873378 -54 149 C-53.38511719 149.06058594 -52.77023438 149.12117187 -52.13671875 149.18359375 C-51.32847656 149.26738281 -50.52023438 149.35117188 -49.6875 149.4375 C-48.48673828 149.55931641 -48.48673828 149.55931641 -47.26171875 149.68359375 C-45 150 -45 150 -42 151 C-41.5359375 150.5153125 -41.071875 150.030625 -40.59375 149.53125 C-31.52394465 140.73218511 -15.09844584 131 -2 131 C-2.04640625 130.33613281 -2.0928125 129.67226562 -2.140625 128.98828125 C-2.43791625 121.71526321 -2.43791625 121.71526321 -0.125 117.9375 C3.19030381 114.914723 5.47770091 114.69501379 9.96875 114.80078125 C13.16339867 115.11410256 14.6499555 115.78424376 17 118 C18.28923745 120.93197548 19.2010391 123.90159067 20 127 C22.31 127 24.62 127 27 127 C26.649375 126.278125 26.29875 125.55625 25.9375 124.8125 C24.89590983 121.6877295 25.10903428 120.11838004 26 117 C27.32 116.67 28.64 116.34 30 116 C31.65 119.3 33.3 122.6 35 126 C40.94 126.33 46.88 126.66 53 127 C53.61875 124.834375 53.61875 124.834375 54.25 122.625 C55.48076923 118.31730769 55.48076923 118.31730769 58.109375 116.7109375 C58.73328125 116.47632813 59.3571875 116.24171875 60 116 C60.99 116.99 61.98 117.98 63 119 C62.34 121.31 61.68 123.62 61 126 C63.31 126.33 65.62 126.66 68 127 C68.0825 126.113125 68.165 125.22625 68.25 124.3125 C69.10120916 120.55299285 70.37965322 118.77915568 73 116 C76.19378082 114.40310959 79.52521315 114.62651043 83 115 C86.87588894 116.6851691 88.40643716 118.15346901 90 122 C90.4140625 124.359375 90.4140625 124.359375 90.625 126.75 C90.73714844 127.94882812 90.73714844 127.94882812 90.8515625 129.171875 C90.92503906 130.07679688 90.92503906 130.07679688 91 131 C91.969375 131.268125 92.93875 131.53625 93.9375 131.8125 C105.21532354 135.05886657 118.41929153 138.96945324 126.8125 147.5625 C128.97063095 149.70331974 129.73309766 149.98647207 132.8515625 150.14453125 C135.61463478 149.90319962 138.28100616 149.54084868 141 149 C142.01643981 144.88550736 142.54126739 141.2229069 142 137 C139.8389481 134.23473562 137.47803136 132.35792354 134.7109375 130.20703125 C127.92453055 124.68207458 123.27629808 116.41240594 121 108 C120.90234375 105.20703125 120.90234375 105.20703125 121 103 C120.34 102.9175 119.68 102.835 119 102.75 C110.82216962 100.7055424 104.22752179 96.19822046 99.74609375 88.98046875 C92.60804768 75.20483003 93.28334547 61.03170576 95.375 46.0625 C95.50100586 45.15024658 95.62701172 44.23799316 95.75683594 43.2980957 C97.06212979 34.50526523 97.06212979 34.50526523 99 31 C101.625 30.1875 101.625 30.1875 104 30 C104.5878125 31.85625 104.5878125 31.85625 105.1875 33.75 C109.55612132 46.69331062 116.88606399 65.44303199 130 72 C124.6580301 53.89380395 116.85672054 39.4819902 103.125 26.25 C98.94068307 22.16421487 95.39864923 17.82057676 91.9375 13.125 C91.46006348 12.48208008 90.98262695 11.83916016 90.49072266 11.17675781 C88.32622305 8.17441286 86.58127129 5.67873065 86 2 C86.33 1.34 86.66 0.68 87 0 C91.51771778 -0.2211939 94.68398571 0.40422335 98.875 2.0625 C104.47496385 4.17288978 110.08070582 5.90366344 115.84814453 7.49975586 C131.31059525 11.79355027 147.05329056 16.38299586 156.1875 30.625 C163.68394592 43.97932442 166.43878639 56.85505258 165 72 C164.141928 74.96330128 163.17130849 77.40395106 161.6796875 80.08984375 C160.77011459 82.01319176 160.77011459 82.01319176 161.69921875 83.99609375 C163.05553381 86.08555208 164.47520647 88.10830002 165.9375 90.125 C172.61383402 100.13950102 173.39262522 111.7591831 172.8125 123.5625 C173.04056045 127.74360819 174.22016451 128.97488491 177 132 C179.15191766 136.08864354 179.45904605 139.40953954 179 144 C177.07836554 150.15796498 173.94031443 155.7766473 169 160 C167.58223495 160.66856077 166.14341805 161.29419548 164.6875 161.875 C162.61107935 162.69898323 162.61107935 162.69898323 161 164 C160.36146489 166.25735652 160.31108769 168.29541677 160.23828125 170.63671875 C159.5101346 177.85850111 153.36396861 182.86093669 148.28125 187.43359375 C145.80479758 189.13403454 143.95642096 189.63044738 141 190 C141.33 190.33 141.66 190.66 142 191 C161.29243043 185.40345712 175.14940672 176.24618863 184.91796875 158.51953125 C193.62934704 141.37845173 194.9336359 123.93446506 196 105 C197.65 104.67 199.3 104.34 201 104 C203.7843784 108.0811032 205.02121037 112.18237426 206.125 116.9375 C206.29386719 117.62779297 206.46273438 118.31808594 206.63671875 119.02929688 C211.27425529 138.29150571 211.20685083 159.86460926 201.52734375 177.60546875 C194.11568461 189.22528218 184.48073205 197.82076694 172.4375 204.375 C171.55457275 204.85779419 171.55457275 204.85779419 170.65380859 205.3503418 C165.64297804 207.9449666 160.42939962 209.50930668 155 211 C155.58789307 211.06469482 156.17578613 211.12938965 156.78149414 211.19604492 C179.30971373 213.75532097 201.2501452 218.73581048 216.515625 237.01171875 C228.33412222 252.74567905 232.71766714 273.10441952 230.5625 292.5625 C230.376875 293.696875 230.19125 294.83125 230 296 C228.35 296.33 226.7 296.66 225 297 C222.2569592 292.72929648 220.30854508 288.27075419 218.3125 283.625 C208.98619023 262.47046191 199.48301893 245.93483174 176.91015625 237.03125 C165.94291499 233.14487189 154.53918447 232.79912445 143 233 C144.16015625 233.23074219 145.3203125 233.46148437 146.515625 233.69921875 C164.8292376 237.46568108 179.21154824 242.87225337 190 259 C194.6027716 266.9510804 198.13696345 274.96799881 200 284 C200.226875 285.093125 200.45375 286.18625 200.6875 287.3125 C201.48303323 296.6997921 201.11277729 305.58712431 199.6875 314.875 C199.51105957 316.0511084 199.51105957 316.0511084 199.33105469 317.25097656 C198.46597804 322.4701986 197.26085279 327.1990442 195 332 C193.0222168 332.84326172 193.0222168 332.84326172 191 333 C188.50070015 330.50070015 188.6219359 329.3664166 188.2890625 325.8984375 C188.12712402 324.33863159 188.12712402 324.33863159 187.96191406 322.74731445 C187.85073242 321.63445068 187.73955078 320.52158691 187.625 319.375 C185.40938266 299.5345132 181.81097911 279.83151381 166 266 C152.39142997 255.837629 136.37137712 254.3393161 120 253 C120.67804688 253.21914063 121.35609375 253.43828125 122.0546875 253.6640625 C134.20365154 257.80346022 143.03390377 262.8248344 149.28125 274.3671875 C151.24126452 278.5252183 152.63097905 282.38723807 153 287 C153.09474609 288.04414062 153.09474609 288.04414062 153.19140625 289.109375 C153.66369422 298.92077677 151.17871181 308.49925296 149 318 C148.73832031 319.14726562 148.47664063 320.29453125 148.20703125 321.4765625 C146.92833198 326.37942046 146.92833198 326.37942046 146 328 C144.03125 328.80078125 144.03125 328.80078125 142 329 C141.34 328.67 140.68 328.34 140 328 C139.63696289 325.8737793 139.63696289 325.8737793 139.47265625 323.07421875 C139.40449707 322.05521484 139.33633789 321.03621094 139.26611328 319.98632812 C139.16532471 318.3534082 139.16532471 318.3534082 139.0625 316.6875 C138.04195206 302.69962767 136.8715676 288.68140009 126.02734375 278.59375 C118.27671762 272.50077223 106.37541297 267.55272715 96.4921875 268.24609375 C91.7742255 269.2646247 87.4699313 270.98187193 82.98828125 272.74609375 C71.40177058 276.65922004 59.34470099 276.34168816 47.26538086 276.31567383 C44.20455147 276.31251758 41.14469467 276.33602488 38.08398438 276.36132812 C24.36488258 276.40653683 12.02732115 275.69915167 -0.75 270.25 C-10.78241805 266.21748117 -18.93424561 268.78871061 -28.76171875 272.55859375 C-36.7768931 276.12626484 -42.05780836 281.12731461 -46 289 C-49.98677545 299.50827396 -51.15467766 309.64158107 -51.51757812 320.76757812 C-51.7830398 326.7830398 -51.7830398 326.7830398 -54 329 C-56.03125 328.81640625 -56.03125 328.81640625 -58 328 C-59.33138932 325.28174681 -60.1682218 322.89475284 -61 320 C-61.34289062 318.83597656 -61.68578125 317.67195313 -62.0390625 316.47265625 C-66.0202011 302.2629715 -68.48828569 287.35569637 -61.8125 273.54296875 C-55.77272573 263.47095882 -45.14924864 256.36668589 -33.84716797 253.44311523 C-33.23760254 253.29688721 -32.62803711 253.15065918 -32 253 C-60.14691829 255.07352365 -60.14691829 255.07352365 -83.02734375 270.33984375 C-95.17069169 286.85380362 -98.73792355 304.32423138 -100.60546875 324.3046875 C-100.89406085 327.00773827 -101.2210765 329.41261934 -102 332 C-105.75 333.125 -105.75 333.125 -108 332 C-108.78438699 329.43372255 -109.45490622 326.92076378 -110.0625 324.3125 C-110.23587891 323.60416016 -110.40925781 322.89582031 -110.58789062 322.16601562 C-115.3930599 302.22732474 -115.73840645 278.7558063 -104.9296875 260.6875 C-94.95242752 246.79204481 -80.86157042 238.11038678 -64 235 C-59.34284714 234.2454355 -54.68186553 233.58096142 -50 233 C-71.51897699 232.45312127 -91.35671961 232.92476288 -108.3125 248.125 C-122.37085178 261.52504749 -129.30104795 279.56421585 -137 297 C-138.65 297 -140.3 297 -142 297 C-147.51651913 285.96696175 -142.30878553 265.65222475 -138.96875 254.58203125 C-133.42291391 238.60028063 -123.01077081 228.26149346 -108.11328125 220.85546875 C-95.45120199 214.92436369 -81.74162362 212.85534545 -68 211 C-69.02738281 210.64808594 -70.05476563 210.29617188 -71.11328125 209.93359375 C-84.46039124 205.23415742 -94.83288204 198.99302347 -105 189 C-105.6496875 188.36320313 -106.299375 187.72640625 -106.96875 187.0703125 C-119.0919601 174.25586674 -122.30319996 157.01159493 -122.15234375 139.96484375 C-121.72371357 128.80946865 -120.36179847 113.5426977 -114 104 C-112.35 104.33 -110.7 104.66 -109 105 C-108.96036133 105.60247559 -108.92072266 106.20495117 -108.87988281 106.82568359 C-107.13180831 132.26934262 -103.68903787 158.13676308 -83.921875 176.453125 C-76.62790946 182.32387776 -65.71705973 190 -56 190 C-56.59167969 189.63648438 -57.18335938 189.27296875 -57.79296875 188.8984375 C-65.27815078 184.13624991 -70.14530877 179.71432058 -73 171 C-73.22025691 168.27551778 -73.14425963 165.74093301 -73 163 C-73.66 162.95875 -74.32 162.9175 -75 162.875 C-81.3746203 161.01573575 -85.77296325 157.06982692 -89 151.3125 C-91.39661309 145.89158944 -92.12343602 140.84360906 -91 135 C-89.64920702 132.04363814 -87.96727213 129.57357895 -86 127 C-84.70171529 124.40343058 -84.9885741 122.18553694 -85.06542969 119.33764648 C-85.35805908 108.16136234 -84.22057437 96.28695854 -76.6328125 87.3984375 C-75.46689226 86.21934302 -74.23935561 85.10164943 -73 84 C-73.4021875 83.0409375 -73.4021875 83.0409375 -73.8125 82.0625 C-74.204375 81.051875 -74.59625 80.04125 -75 79 C-75.26425781 78.41476563 -75.52851562 77.82953125 -75.80078125 77.2265625 C-80.52742016 65.53317145 -78.69678918 52.36035882 -74 41 C-68.15364941 27.44377457 -58.41285317 18.66929809 -44.90722656 13.08886719 C-37.03755039 10.14137342 -28.96763333 7.73206396 -20.91943359 5.32421875 C-20.23116486 5.11799896 -19.54289612 4.91177917 -18.83377075 4.6993103 C-16.93656612 4.13388149 -15.03719078 3.57575104 -13.13769531 3.01806641 C-10.09574924 2.1197902 -10.09574924 2.1197902 -7.77636719 0.87646484 C-5.18890207 -0.40019812 -2.83523378 -0.12887426 0 0 Z M201 130 C200.89042969 130.55236328 200.78085937 131.10472656 200.66796875 131.67382812 C197.2881979 148.25668754 192.59220191 163.197057 181 176 C180.41992188 176.67160156 179.83984375 177.34320313 179.2421875 178.03515625 C170.6736326 187.33867088 160.18582248 192.39497327 148.3125 195.9921875 C142.76623167 197.37806218 142.76623167 197.37806218 138.6875 200.9375 C137.84188612 203.11199733 137.84188612 203.11199733 138 206 C154.217217 206.44947941 170.38327741 200.59686573 182.4375 189.6875 C192.97104016 179.65245718 201.35051675 165.98251001 202.15649414 151.11279297 C202.19608629 147.90607754 202.17486243 144.70653786 202.125 141.5 C202.11597656 140.39140625 202.10695313 139.2828125 202.09765625 138.140625 C202.07426167 135.42685408 202.04148175 132.71354455 202 130 C201.67 130 201.34 130 201 130 Z M-115 133 C-115.50814762 152.04612573 -114.13832152 169.44825285 -100.57495117 184.20361328 C-89.32252517 195.68924149 -73.04698992 205.29647797 -56.66015625 206.1171875 C-54.77304483 206.12382058 -52.88587663 206.06857733 -51 206 C-51.56739868 201.87026372 -51.56739868 201.87026372 -53 198 C-54.67139461 197.55872764 -56.36456645 197.19950412 -58.0625 196.875 C-75.07740305 192.83928402 -90.48098117 182.56772128 -100.03125 167.875 C-106.62564232 157.06769441 -111.0622874 145.55175026 -113 133 C-113.66 133 -114.32 133 -115 133 Z M-121.37890625 239 C-130.21478833 249.90113645 -134.17330186 261.22765743 -136 275 C-133.18738224 271.55367516 -131.25779723 267.75440481 -129.25 263.8125 C-126.04491277 257.67884287 -122.58726474 252.21668013 -118 247 C-117.52820313 246.40058594 -117.05640625 245.80117188 -116.5703125 245.18359375 C-106.31165233 233.30374636 -87.62232299 228.70283901 -72.68383789 227.17211914 C-66.77603471 226.79324156 -60.85446269 226.89958945 -54.9375 226.9375 C-53.58138187 226.94252686 -52.22526192 226.94708766 -50.86914062 226.95117188 C-47.57938006 226.96287921 -44.28971406 226.97927789 -41 227 C-42.09957642 224.1605056 -43.28052559 221.52105146 -45 219 C-47.79250225 217.83857293 -47.79250225 217.83857293 -51 218 C-52.17691406 217.93296875 -53.35382813 217.8659375 -54.56640625 217.796875 C-78.08583224 217.52098731 -104.4392459 220.80103637 -121.37890625 239 Z M132 219 C130.515 222.465 130.515 222.465 129 226 C130.03705078 226.0093457 131.07410156 226.01869141 132.14257812 226.02832031 C136.07185421 226.06886028 140.00039857 226.13477785 143.92919922 226.20751953 C145.61432335 226.23536489 147.29956926 226.25675604 148.98486328 226.27099609 C169.29322752 226.45264515 187.5018186 229.99900857 202.7265625 244.55859375 C210.77622714 253.20299306 217.84759422 263.91347971 222 275 C222.33 275 222.66 275 223 275 C222.33653368 260.00566123 216.4567926 245.09885311 205.265625 234.8046875 C188.48463074 221.43775759 167.0736858 218.60918706 146.25 218.875 C144.85938154 218.88506283 143.46875592 218.89418277 142.078125 218.90234375 C138.71856181 218.92567405 135.35937825 218.9584077 132 219 Z M-89.875 254.125 C-101.93585117 267.37621451 -106.89302545 282.5087826 -107.23046875 300.1171875 C-107.1662722 302.24436436 -107.1662722 302.24436436 -105 304 C-104.8040625 303.030625 -104.608125 302.06125 -104.40625 301.0625 C-100.77365407 284.31840433 -94.02587875 268.96247539 -79.6875 258.6875 C-64.44472909 249.36808566 -47.38477634 247.69267582 -30 246 C-30.99 244.02 -31.98 242.04 -33 240 C-53.35405293 239.45118358 -74.00313875 239.36552561 -89.875 254.125 Z M118.4765625 243.03125 C117.74566406 244.50078125 117.74566406 244.50078125 117 246 C117.80518066 246.09498779 118.61036133 246.18997559 119.43994141 246.2878418 C142.55998288 249.07568135 164.15418104 251.88297977 180 271 C187.50806915 281.2479089 191.16243372 293.52800761 193 306 C193.33 306 193.66 306 194 306 C194.53932393 288.38208494 193.30147685 272.04183318 181.8125 257.6875 C168.1402651 243.29881611 148.31015424 240.10338198 129.375 239.5 C128.60446289 239.45705811 127.83392578 239.41411621 127.04003906 239.36987305 C122.6392487 239.31771481 121.35231475 239.576786 118.4765625 243.03125 Z M-50.9375 270.3125 C-57.63820342 277.55954374 -59.06935522 286.09195814 -59.23046875 295.59765625 C-58.98377637 298.16911077 -58.29390379 299.78553225 -57 302 C-56.67128906 300.54980469 -56.67128906 300.54980469 -56.3359375 299.0703125 C-53.6448273 287.77666362 -50.31258195 278.5357128 -40.484375 271.52734375 C-33.14474626 267.01508772 -25.29188888 264.21236948 -17 262 C-17.66 260.68 -18.32 259.36 -19 258 C-30.69426271 257.61727867 -42.36117679 262.44782914 -50.9375 270.3125 Z M107 258 C106.34 259.32 105.68 260.64 105 262 C105.96679688 262.29132813 106.93359375 262.58265625 107.9296875 262.8828125 C120.02050312 266.63755014 130.69167464 271.0456504 138 282 C141.04923436 288.4010645 143.2443577 295.13703465 145 302 C145.33 302 145.66 302 146 302 C147.40034632 292.48439366 147.69251245 283.50378697 142.14453125 275.234375 C133.66015051 265.20328415 123.70842495 260.72094741 111 258 C109.68 258 108.36 258 107 258 Z " fill="#6E5591" transform="translate(198,72)"/>
<path d="M0 0 C2.53166742 -0.00217851 5.06289203 -0.02037932 7.59448242 -0.03930664 C33.73044295 -0.13075618 62.50204848 3.20654467 82.5534668 21.68530273 C89.84798028 29.39467006 94.70440145 37.85807785 95.0534668 48.62280273 C93.80460642 71.87081899 80.3585419 100.45113645 64.3659668 117.18530273 C63.7059668 117.88526367 63.0459668 118.58522461 62.3659668 119.30639648 C50.64593148 130.70326906 35.32111876 135.47015682 19.3659668 136.18530273 C19.34018555 134.9181543 19.3144043 133.65100586 19.2878418 132.34545898 C18.9809186 119.7548337 18.9809186 119.7548337 14.3659668 108.18530273 C15.18838867 107.97776367 16.01081055 107.77022461 16.8581543 107.55639648 C30.17346391 103.88161704 38.31651648 97.99564851 45.36401367 86.02807617 C51.32851272 75.05828114 56.13008408 61.43190312 52.75268555 48.91186523 C49.01582413 40.31873016 41.08080416 36.77737589 32.8815918 33.26342773 C23.09589001 30.26247919 13.23387691 29.83833727 3.07568359 29.86962891 C0.93429798 29.87279412 -1.20570705 29.84921152 -3.34692383 29.82397461 C-17.18898395 29.75932467 -31.01364499 31.5595747 -41.7668457 41.07202148 C-46.82996516 46.46350225 -49.64368152 52.01475014 -50.0715332 59.43530273 C-49.43598834 74.90022774 -39.28279445 91.17155077 -28.2590332 101.56030273 C-21.56878243 106.9422378 -12.87944931 107.87528335 -4.6340332 109.18530273 C-4.95549316 109.8964624 -5.27695313 110.60762207 -5.6081543 111.34033203 C-6.67277917 114.29275316 -6.94335953 116.58020483 -7.0480957 119.70483398 C-7.08676758 120.72641602 -7.12543945 121.74799805 -7.1652832 122.80053711 C-7.1962207 123.85563477 -7.2271582 124.91073242 -7.2590332 125.99780273 C-7.29770508 127.07223633 -7.33637695 128.14666992 -7.3762207 129.25366211 C-7.47021933 131.89737362 -7.55587893 134.54108323 -7.6340332 137.18530273 C-25.9892552 137.61272058 -42.93104746 132.77923388 -56.6340332 120.18530273 C-57.26825195 119.6194043 -57.9024707 119.05350586 -58.5559082 118.47045898 C-74.66758161 103.32120854 -88.83345603 75.42417296 -89.7590332 53.18139648 C-89.9946078 40.47509156 -87.91589306 30.60338541 -79.0715332 21.06030273 C-58.49030528 1.53152397 -26.77151141 -0.00256703 0 0 Z " fill="#FDFDFD" transform="translate(239.634033203125,204.814697265625)"/>
<path d="M0 0 C1.27422168 0.68247888 2.55294512 1.35661646 3.8359375 2.02246094 C20.28663708 10.56575848 35.20246139 21.59474624 48.42529297 34.57519531 C49.9018381 36.01668893 51.40293515 37.42808453 52.91015625 38.83740234 C94.72685223 78.52448136 118.20405308 141.05518179 120.11279297 197.99902344 C120.2322814 203.19407744 120.24084572 208.38733988 120.21875 213.58349609 C120.21659485 214.50130859 120.2144397 215.41912109 120.21221924 216.36474609 C119.9803629 278.12162618 99.1156233 339.07517134 55.90625 384.02099609 C55.33745117 384.61702637 54.76865234 385.21305664 54.18261719 385.82714844 C37.08646491 403.65441642 17.73737624 417.52076145 -4.09375 429.02099609 C-4.77791992 429.38547852 -5.46208984 429.74996094 -6.16699219 430.12548828 C-27.87371228 441.52730278 -52.0210188 448.7541597 -76.09375 453.02099609 C-76.91004883 453.18180664 -77.72634766 453.34261719 -78.56738281 453.50830078 C-106.73527806 458.97505916 -139.98630158 458.64792769 -168.09375 453.02099609 C-169.03041504 452.84407227 -169.96708008 452.66714844 -170.93212891 452.48486328 C-197.22838308 447.46573318 -222.53329221 438.79550887 -246.09375 426.02099609 C-246.77501953 425.65280762 -247.45628906 425.28461914 -248.15820312 424.90527344 C-264.16889458 416.13945696 -278.44263267 405.22878709 -291.53320312 392.53027344 C-293.1177722 390.9977631 -294.72216457 389.48807357 -296.328125 387.97802734 C-304.94941093 379.74996591 -312.15423881 370.69211396 -319.09375 361.02099609 C-319.5381543 360.40530762 -319.98255859 359.78961914 -320.44042969 359.15527344 C-350.23709306 317.43765443 -364.62146418 266.41994792 -364.40625 215.45849609 C-364.40409485 214.53624237 -364.4019397 213.61398865 -364.39971924 212.66378784 C-364.34584189 198.26094105 -363.78304265 184.20555326 -361.09375 170.02099609 C-360.90039062 168.97057129 -360.70703125 167.92014648 -360.5078125 166.83789062 C-351.75673749 120.59089008 -331.5309938 78.28223486 -299.09375 44.02099609 C-298.5044873 43.39773437 -297.91522461 42.77447266 -297.30810547 42.13232422 C-287.31762696 31.65359856 -276.96067579 22.32454472 -265.09375 14.02099609 C-264.41376953 13.5446875 -263.73378906 13.06837891 -263.03320312 12.57763672 C-187.58017711 -39.57054618 -80.54829527 -43.18329457 0 0 Z M-162.09375 -18.97900391 C-162.95274902 -18.86073242 -163.81174805 -18.74246094 -164.69677734 -18.62060547 C-186.72405983 -15.44090959 -208.16601833 -8.89624426 -228.09375 1.02099609 C-229.16544434 1.54862549 -229.16544434 1.54862549 -230.25878906 2.08691406 C-251.54121158 12.66158805 -269.97444972 26.62352154 -287.09375 43.02099609 C-287.84398437 43.72998047 -288.59421875 44.43896484 -289.3671875 45.16943359 C-323.61497003 78.33428229 -344.8236093 125.71151955 -353.09375 172.02099609 C-353.33714111 173.29185059 -353.33714111 173.29185059 -353.58544922 174.58837891 C-358.62545287 201.58282572 -358.25219533 232.0864325 -353.09375 259.02099609 C-352.85229248 260.37306152 -352.85229248 260.37306152 -352.60595703 261.75244141 C-346.01664065 298.14876145 -331.50707693 334.14015025 -308.09375 363.02099609 C-307.46082031 363.85501953 -306.82789063 364.68904297 -306.17578125 365.54833984 C-294.32050278 380.79739242 -279.94553081 394.04503888 -264.09375 405.02099609 C-263.37171387 405.5229248 -262.64967773 406.02485352 -261.90576172 406.54199219 C-242.96791338 419.51260815 -222.035115 429.3394578 -200.09375 436.02099609 C-198.80186768 436.41859131 -198.80186768 436.41859131 -197.48388672 436.82421875 C-133.92318842 456.06992024 -62.75249752 451.47341537 -3.58105469 420.71484375 C23.24765846 406.16908842 48.43766473 385.11671015 65.90625 360.02099609 C66.30714844 359.45380859 66.70804687 358.88662109 67.12109375 358.30224609 C96.70751289 316.27294039 112.45772585 265.81146067 112.21875 214.45849609 C112.21692719 213.63605408 112.21510437 212.81361206 112.21322632 211.96624756 C112.16075979 197.81053817 111.29857722 183.99381712 108.90625 170.02099609 C108.7505957 169.06757324 108.59494141 168.11415039 108.43457031 167.13183594 C103.03154399 134.97789785 91.0984158 101.58974262 71.90625 75.02099609 C71.45958984 74.39225586 71.01292969 73.76351562 70.55273438 73.11572266 C64.05181138 63.99771631 57.09503503 55.50634266 49.30273438 47.46435547 C47.99692534 46.11471508 46.70869773 44.74812607 45.421875 43.38037109 C3.46608341 -0.22074566 -59.74358416 -19.73843535 -118.84765625 -21.22509766 C-133.34472199 -21.42724253 -147.72758899 -20.98931449 -162.09375 -18.97900391 Z " fill="#6D5490" transform="translate(364.09375,28.97900390625)"/>
<path d="M0 0 C4.00689828 3.77119838 5.32608236 6.57761067 5.5625 12.0625 C5.14986709 24.90569944 -1.54761467 40.10644654 -10.875 49 C-23.4122026 58.37968491 -38.22400788 59.58877165 -53.3125 57.53125 C-64.26871036 55.18349064 -72.45144088 49.12821559 -78.875 40 C-81.14009767 35.76612564 -83.06670246 31.44587802 -84.875 27 C-85.25140625 26.20980469 -85.6278125 25.41960937 -86.015625 24.60546875 C-87.17351955 21.094943 -87.24320871 17.71960883 -87.25 14.0625 C-87.27449219 13.37220703 -87.29898438 12.68191406 -87.32421875 11.97070312 C-87.3536129 6.80223094 -86.147029 3.94702799 -82.875 0 C-77.34536276 -4.93794454 -71.01695291 -7.39330552 -63.875 -9 C-63.18212891 -9.16773926 -62.48925781 -9.33547852 -61.77539062 -9.50830078 C-40.82552189 -14.22328532 -17.82035807 -12.39677083 0 0 Z " fill="#FDFDFE" transform="translate(282.875,250)"/>
<path d="M0 0 C-0.61875 0.65633423 -0.61875 0.65633423 -1.25 1.32592773 C-5.23914032 5.56049368 -9.21600771 9.80623511 -13.18408203 14.06054688 C-14.61204583 15.58565368 -16.05189464 17.0996332 -17.49609375 18.609375 C-31.4348025 33.52968295 -36.77025031 51.80627949 -42 71 C-46.95 70.67 -51.9 70.34 -57 70 C-62.80009041 57.81981015 -63.62408352 49.01253765 -59.26953125 36.1796875 C-53.94853878 22.8526479 -46.85148748 14.09097913 -33.8125 7.875 C-27.73284297 5.32239138 -21.36099139 3.69072102 -15 2 C-13.85789063 1.68546875 -12.71578125 1.3709375 -11.5390625 1.046875 C-10.47429687 0.76328125 -9.40953125 0.4796875 -8.3125 0.1875 C-7.35988281 -0.06644531 -6.40726563 -0.32039063 -5.42578125 -0.58203125 C-3 -1 -3 -1 0 0 Z " fill="#FCFCFD" transform="translate(188,82)"/>
<path d="M0 0 C19.13490745 3.04012548 38.64858865 7.8167411 51.75 23.125 C59.39371752 33.70860888 61.71849919 45.21866231 60 58 C57.65970149 67.34029851 57.65970149 67.34029851 55 70 C52.47403741 70.23653523 49.96892793 70.42173692 47.4375 70.5625 C46.72658203 70.60568359 46.01566406 70.64886719 45.28320312 70.69335938 C43.52238088 70.79971777 41.7612168 70.90038846 40 71 C39.79246094 70.05382812 39.58492188 69.10765625 39.37109375 68.1328125 C34.71251031 47.78764067 27.40392927 31.35054629 13 16 C10.64481292 13.3522133 8.32252841 10.6764375 6 8 C5.41734375 7.33484375 4.8346875 6.6696875 4.234375 5.984375 C0 1.11682243 0 1.11682243 0 0 Z " fill="#FDFCFD" transform="translate(297,82)"/>
<path d="M0 0 C4.81887519 2.16511085 8.49538287 4.56884921 10.8125 9.4375 C12.2398138 16.23026349 10.84558893 21.96536199 7.51171875 27.9453125 C4.39528702 32.51607904 0.67653751 36.49386621 -3.1875 40.4375 C-3.73148438 41.02660156 -4.27546875 41.61570313 -4.8359375 42.22265625 C-6.1875 43.4375 -6.1875 43.4375 -8.1875 43.4375 C-9.0846875 42.0453125 -9.0846875 42.0453125 -10 40.625 C-12.25239413 37.34293998 -13.56915959 35.98821732 -17.1875 34.4375 C-21.06179428 34.11464214 -24.40760943 34.64576617 -28.1875 35.4375 C-28.66054053 23.43628667 -28.14269186 12.06985482 -20.1875 2.4375 C-13.95636063 -3.22717215 -7.55622792 -2.62479496 0 0 Z " fill="#FCFCFD" transform="translate(147.1875,159.5625)"/>
<path d="M0 0 C6.00586434 2.55805333 8.50896483 7.21891837 11 13 C13.81574691 20.68859389 13.19112794 28.94077205 13 37 C12.01 36.67 11.02 36.34 10 36 C4.75067319 35.31922885 4.75067319 35.31922885 0.02734375 37.234375 C-1.74345994 38.75328093 -3.38382581 40.31836053 -5 42 C-6 43 -7 44 -8 45 C-15.9048993 38.57977722 -24.05514722 30.9787568 -25.31640625 20.328125 C-25.4989281 15.97115172 -25.30726712 12.74023443 -23.625 8.6875 C-16.84010875 1.74106372 -9.78855795 -1.74464834 0 0 Z " fill="#FDFDFD" transform="translate(351,158)"/>
<path d="M0 0 C2.0625 0.25 2.0625 0.25 4 1 C5.14814997 3.29629994 5.30769809 5.07698086 5.5625 7.625 C5.68818359 8.85089844 5.68818359 8.85089844 5.81640625 10.1015625 C5.87699219 10.72804688 5.93757813 11.35453125 6 12 C6.30292969 11.4946875 6.60585938 10.989375 6.91796875 10.46875 C8.18414568 8.50520177 9.41018649 6.71442051 11 5 C13.8125 4.5625 13.8125 4.5625 16 5 C16.71484375 6.671875 16.71484375 6.671875 17 9 C15.56640625 11.578125 15.56640625 11.578125 13.5625 14.25 C12.90378906 15.14203125 12.24507813 16.0340625 11.56640625 16.953125 C11.04949219 17.62859375 10.53257812 18.3040625 10 19 C10.91523438 18.90460938 11.83046875 18.80921875 12.7734375 18.7109375 C14.55621094 18.54464844 14.55621094 18.54464844 16.375 18.375 C17.55835938 18.25898438 18.74171875 18.14296875 19.9609375 18.0234375 C20.96382813 18.01570313 21.96671875 18.00796875 23 18 C23.66 18.66 24.32 19.32 25 20 C24.67 21.32 24.34 22.64 24 24 C19.38 24.66 14.76 25.32 10 26 C12.2584375 28.0728125 12.2584375 28.0728125 14.5625 30.1875 C17.12890625 32.54296875 17.12890625 32.54296875 19 35 C18.77734375 37.80078125 18.77734375 37.80078125 18 40 C13.85114741 39.87427719 11.99452585 38.2673472 9.1875 35.4375 C7.6096875 33.7359375 7.6096875 33.7359375 6 32 C5.67 36.29 5.34 40.58 5 45 C2.525 45.495 2.525 45.495 0 46 C-1.81115956 44.18884044 -1.38199448 41.38721773 -1.5625 38.9375 C-1.68818359 37.28041016 -1.68818359 37.28041016 -1.81640625 35.58984375 C-1.90728516 34.30787109 -1.90728516 34.30787109 -2 33 C-4.31 35.64 -6.62 38.28 -9 41 C-10.65 40.67 -12.3 40.34 -14 40 C-13.28619952 33.62111632 -9.26717365 30.53810531 -5 26 C-11.93 25.505 -11.93 25.505 -19 25 C-19.33 23.35 -19.66 21.7 -20 20 C-18.18884044 18.18884044 -15.38721773 18.61800552 -12.9375 18.4375 C-11.28041016 18.31181641 -11.28041016 18.31181641 -9.58984375 18.18359375 C-8.73519531 18.12300781 -7.88054687 18.06242187 -7 18 C-7.51691406 17.48050781 -8.03382813 16.96101563 -8.56640625 16.42578125 C-9.55447266 15.37970703 -9.55447266 15.37970703 -10.5625 14.3125 C-11.22378906 13.62800781 -11.88507813 12.94351562 -12.56640625 12.23828125 C-14 10 -14 10 -13.71484375 7.23046875 C-13.47894531 6.49441406 -13.24304688 5.75835937 -13 5 C-10.087425 5.08566397 -8.43201976 5.57910955 -6.33203125 7.625 C-4.83908228 9.38391375 -3.39563738 11.16313019 -2 13 C-2.02320313 12.22914063 -2.04640625 11.45828125 -2.0703125 10.6640625 C-2.08835937 9.66117187 -2.10640625 8.65828125 -2.125 7.625 C-2.14820313 6.62726563 -2.17140625 5.62953125 -2.1953125 4.6015625 C-2 2 -2 2 0 0 Z " fill="#A191B8" transform="translate(278,379)"/>
<path d="M0 0 C1.2065625 0.0309375 1.2065625 0.0309375 2.4375 0.0625 C3.0975 2.7025 3.7575 5.3425 4.4375 8.0625 C6.0875 6.4125 7.7375 4.7625 9.4375 3.0625 C10.7575 3.7225 12.0775 4.3825 13.4375 5.0625 C12.82295304 9.05705527 10.73103263 11.80716336 8.4375 15.0625 C12.0675 15.0625 15.6975 15.0625 19.4375 15.0625 C20.4375 19.0625 20.4375 19.0625 19.4375 21.0625 C16.71484375 21.4765625 16.71484375 21.4765625 13.375 21.6875 C12.27027344 21.76226562 11.16554688 21.83703125 10.02734375 21.9140625 C9.17269531 21.96304688 8.31804687 22.01203125 7.4375 22.0625 C10.0775 24.3725 12.7175 26.6825 15.4375 29.0625 C15.1075 30.7125 14.7775 32.3625 14.4375 34.0625 C9.6857602 33.63052365 7.51749946 32.73480705 4.4375 29.0625 C4.34662109 30.01962891 4.34662109 30.01962891 4.25390625 30.99609375 C4.17011719 31.82238281 4.08632812 32.64867187 4 33.5 C3.91878906 34.32371094 3.83757812 35.14742187 3.75390625 35.99609375 C3.4375 38.0625 3.4375 38.0625 2.4375 39.0625 C0.7875 39.0625 -0.8625 39.0625 -2.5625 39.0625 C-2.8925 35.7625 -3.2225 32.4625 -3.5625 29.0625 C-5.2125 31.0425 -6.8625 33.0225 -8.5625 35.0625 C-10.2125 34.7325 -11.8625 34.4025 -13.5625 34.0625 C-13.11780671 29.02264269 -10.84906638 26.68615012 -7.5625 23.0625 C-11.1925 22.4025 -14.8225 21.7425 -18.5625 21.0625 C-18.5625 19.4125 -18.5625 17.7625 -18.5625 16.0625 C-14.88839215 14.88678549 -11.39320817 14.98883254 -7.5625 15.0625 C-8.00722656 14.68738281 -8.45195313 14.31226563 -8.91015625 13.92578125 C-10.62420453 12.37571937 -12.16170192 10.90293317 -13.5625 9.0625 C-13.4375 6.1875 -13.4375 6.1875 -12.5625 4.0625 C-8.24857774 4.5418247 -6.39680453 5.8082985 -3.5625 9.0625 C-3.583125 7.763125 -3.60375 6.46375 -3.625 5.125 C-3.64649454 3.77084367 -3.63398199 2.41493917 -3.5625 1.0625 C-2.5625 0.0625 -2.5625 0.0625 0 0 Z " fill="#A191B8" transform="translate(88.5625,115.9375)"/>
<path d="M0 0 C2.39953437 3.02985981 4.22297269 6.16818794 6.0625 9.5625 C9.89658662 16.2234132 14.71953622 21.46642308 20 27 C21.13593106 28.30305099 22.26280648 29.6141305 23.375 30.9375 C25.47226469 33.41608555 27.65734505 35.74744716 30 38 C29.0925 38.680625 28.185 39.36125 27.25 40.0625 C23.77393779 42.92901576 22.03435118 46.00954191 20 50 C13.02507483 48.81277869 8.71501514 45.17189645 4 40 C-2.79810915 30.10836928 -3.31012437 17.58357346 -1.546875 6.03125 C-1.09799681 4.0048856 -0.5609135 1.99825433 0 0 Z " fill="#FBFAFC" transform="translate(300,119)"/>
<path d="M0 0 C0.33 0 0.66 0 1 0 C3.66173782 13.3086891 3.79711687 29.22066911 -3.28515625 41.16796875 C-6.81909959 45.78473596 -11.66079376 48.79312809 -17 51 C-17.99 51 -18.98 51 -20 51 C-20.556875 49.9275 -21.11375 48.855 -21.6875 47.75 C-23.6111657 44.35083445 -25.76569838 42.24604279 -29 40 C-27.40476401 35.93503118 -24.47576972 33.37339092 -21.375 30.4375 C-12.15664146 21.43131112 -5.80951449 11.41932693 0 0 Z " fill="#FBFAFC" transform="translate(183,118)"/>
<path d="M0 0 C1.67542976 0.28604898 3.34385343 0.61781233 5 1 C5.66 2.98 6.32 4.96 7 7 C8.32 5.68 9.64 4.36 11 3 C12.32 3.66 13.64 4.32 15 5 C14.40072174 8.35595828 13.15377564 10.37801226 11 13 C13.97 13.33 16.94 13.66 20 14 C20.38218767 15.65614657 20.71395102 17.32457024 21 19 C19.41727399 20.58272601 17.61965997 20.34735747 15.4375 20.5625 C14.19806641 20.68818359 14.19806641 20.68818359 12.93359375 20.81640625 C12.29550781 20.87699219 11.65742188 20.93757813 11 21 C11.44472656 21.38671875 11.88945312 21.7734375 12.34765625 22.171875 C12.91355469 22.69265625 13.47945313 23.2134375 14.0625 23.75 C14.63097656 24.26046875 15.19945312 24.7709375 15.78515625 25.296875 C17 27 17 27 16.68359375 29.203125 C16.45800781 29.79609375 16.23242188 30.3890625 16 31 C14.3125 31.75 14.3125 31.75 12 32 C9.25 30.0625 9.25 30.0625 7 28 C6.7834375 29.7015625 6.7834375 29.7015625 6.5625 31.4375 C6 35 6 35 5 36 C3.33382885 36.04063832 1.66611905 36.042721 0 36 C-0.33 33.36 -0.66 30.72 -1 28 C-1.7425 28.845625 -2.485 29.69125 -3.25 30.5625 C-4.1575 31.366875 -5.065 32.17125 -6 33 C-8.3125 32.8125 -8.3125 32.8125 -10 32 C-10.3125 29.8125 -10.3125 29.8125 -10 27 C-7.5 24.1875 -7.5 24.1875 -5 22 C-9.455 21.01 -9.455 21.01 -14 20 C-14.38218767 18.34385343 -14.71395102 16.67542976 -15 15 C-14 14 -14 14 -11.93359375 13.90234375 C-10.69802734 13.91974609 -10.69802734 13.91974609 -9.4375 13.9375 C-8.61121094 13.94652344 -7.78492188 13.95554687 -6.93359375 13.96484375 C-6.29550781 13.97644531 -5.65742188 13.98804688 -5 14 C-5.825 13.278125 -6.65 12.55625 -7.5 11.8125 C-10 9 -10 9 -10.3125 6.1875 C-10.209375 5.465625 -10.10625 4.74375 -10 4 C-7.75 3.75 -7.75 3.75 -5 4 C-2.6875 6 -2.6875 6 -1 8 C-1.020625 6.865625 -1.04125 5.73125 -1.0625 4.5625 C-1 1 -1 1 0 0 Z " fill="#A191B8" transform="translate(428,246)"/>
<path d="M0 0 C4.2009511 1.84648331 6.82792651 4.94018914 9.03515625 8.89453125 C10.20408983 13.54640979 9.53494765 17.47706276 7.34765625 21.70703125 C4.31864235 25.88215851 1.92018425 28.22691717 -2.96484375 29.95703125 C-5.96484375 29.89453125 -5.96484375 29.89453125 -8.52734375 27.58203125 C-9.33171875 26.69515625 -10.13609375 25.80828125 -10.96484375 24.89453125 C-13.6301741 23.57551325 -13.6301741 23.57551325 -15.96484375 22.89453125 C-16.59420656 15.81419969 -14.80784084 8.88145617 -10.64453125 3.04296875 C-7.48974612 -0.04285933 -4.31888625 -0.89040622 0 0 Z " fill="#FBFAFC" transform="translate(360.96484375,199.10546875)"/>
<path d="M0 0 C5.10904985 4.54137764 6.47876231 11.20427055 7.6875 17.6875 C6.88609415 21.5488191 6.17403164 22.02157605 3.125 24.3125 C1.75163967 25.21084502 0.37683639 26.10699166 -1 27 C-1.66 27.66 -2.32 28.32 -3 29 C-6.40198335 29.15823178 -8.32750977 28.60118669 -10.87890625 26.3203125 C-14.93622742 21.83100098 -17.59777461 18.15076556 -18.375 12.0625 C-17.81725089 7.50754893 -15.97075922 4.62441292 -12.421875 1.69921875 C-8.12970471 -1.11389286 -5.03668264 -1.61553972 0 0 Z " fill="#FCFBFC" transform="translate(131,200)"/>
<path d="M0 0 C3.70342384 2.11624219 5.37272301 4.1299108 7 8 C7.58909226 12.27665678 7.48792817 15.93120496 5.6875 19.875 C1.81161661 24.75574205 1.81161661 24.75574205 -1.05078125 25.6171875 C-6.27801276 26.21303772 -9.45673699 26.02884201 -14 23 C-16.83039171 20.65760686 -17.80672915 18.66339664 -18.23828125 14.94921875 C-18.4194823 9.42735507 -17.72103642 6.35892838 -14 2 C-9.54422653 -0.97051564 -5.22557394 -0.62737491 0 0 Z " fill="#E4E0EA" transform="translate(220,100)"/>
<path d="M0 0 C3.62594283 0.7714772 4.74820266 1.65381076 6.9375 4.625 C9.00073068 9.54163481 9.18429939 13.77771659 9.0625 19 C9.02125 21.51625 8.98 24.0325 8.9375 26.625 C3.3275 26.625 -2.2825 26.625 -8.0625 26.625 C-8.1979964 23.41524078 -8.29684038 20.21124371 -8.375 17 C-8.4378418 15.64455078 -8.4378418 15.64455078 -8.50195312 14.26171875 C-8.58333332 9.80208426 -8.57455794 6.60597452 -5.734375 3.015625 C-3.0625 0.625 -3.0625 0.625 0 0 Z " fill="#FBFBFC" transform="translate(245.0625,315.375)"/>
<path d="M0 0 C2.72024475 2.13733516 3.60478876 4.1201891 4.75 7.375 C5.05470556 11.82370122 4.22624625 14.66063063 1.75 18.375 C-1.78495016 20.73163344 -3.91495693 21.11621939 -8.09375 20.8515625 C-11.7783521 20.03721204 -13.19124615 18.46313077 -15.25 15.375 C-16.49623229 11.51167991 -16.67301292 8.3768727 -15.0625 4.5625 C-10.67684942 -0.73052656 -6.8461101 -1.90169725 0 0 Z " fill="#D5CEDF" transform="translate(55.25,252.625)"/>
<path d="M0 0 C2.71917619 0.44186613 4.98727488 1.29347173 7.5 2.40625 C7.09007812 3.19386719 6.68015625 3.98148438 6.2578125 4.79296875 C2.34400536 12.7048516 0.33881106 19.56980936 -0.5 28.40625 C-4.18318937 27.1534645 -6.30949485 25.93761429 -8.75 22.90625 C-9.50023437 21.99359375 -9.50023437 21.99359375 -10.265625 21.0625 C-13.54144199 16.66709998 -13.12245261 11.67486673 -12.5 6.40625 C-10.25210892 0.36217551 -5.83156938 -0.21868385 0 0 Z " fill="#FAFAFB" transform="translate(144.5,226.59375)"/>
<path d="M0 0 C3.12578143 1.6720747 5.39281175 3.7856235 7 7 C7.55374136 11.53886362 7.46730004 15.04670792 5.4375 19.1875 C2.58403578 22.47995871 -0.41082338 25.5070251 -4 28 C-4.66 28 -5.32 28 -6 28 C-6.02578125 27.17757812 -6.0515625 26.35515625 -6.078125 25.5078125 C-6.42003731 18.77835654 -7.24563624 13.26227099 -10.0625 7.12109375 C-10.9605296 5.08930179 -11.52850926 3.16591058 -12 1 C-8.27533151 -0.86233425 -4.05504687 -0.57130829 0 0 Z " fill="#FAFAFB" transform="translate(345,227)"/>
<path d="M0 0 C7.15435219 0.63514349 11.37684049 2.97250375 16.33203125 8.20703125 C21.53848288 14.71167948 22.39193264 21.06431615 22.45703125 29.26953125 C22.4626709 29.95523193 22.46831055 30.64093262 22.47412109 31.34741211 C22.41676763 35.3295894 21.88887395 38.43355182 20.14453125 42.01953125 C18.20703125 41.70703125 18.20703125 41.70703125 16.14453125 41.01953125 C15.13739778 37.99813084 15.1198296 35.67345028 15.21044922 32.52270508 C15.4466863 24.01328927 15.53986977 16.73823535 9.51953125 10.14453125 C5.53832732 7.6378473 1.65961434 6.25365396 -2.85546875 5.01953125 C-2.85546875 0.03005757 -2.85546875 0.03005757 0 0 Z " fill="#745C95" transform="translate(305.85546875,224.98046875)"/>
<path d="M0 0 C0.33 1.65 0.66 3.3 1 5 C0.12988281 5.23783203 0.12988281 5.23783203 -0.7578125 5.48046875 C-6.90233587 7.31571418 -11.59389549 9.32713019 -15.25390625 14.9140625 C-19.28563612 23.08990495 -18.34772736 32.13295222 -18 41 C-19.65614657 41.38218767 -21.32457024 41.71395102 -23 42 C-25.77153454 39.22846546 -24.43449787 31.36652631 -24.45092773 27.65039062 C-24.30984656 19.55036277 -23.36908492 13.40579847 -18 7 C-12.37510801 2.07343643 -7.51280732 -0.16695127 0 0 Z " fill="#735B94" transform="translate(179,225)"/>
<path d="M0 0 C0.66 0 1.32 0 2 0 C2.50220072 2.6245966 3.00185357 5.24963369 3.5 7.875 C3.64308594 8.62136719 3.78617187 9.36773437 3.93359375 10.13671875 C5 15.7734375 5 15.7734375 5 18 C6.051875 17.95875 7.10375 17.9175 8.1875 17.875 C11.74010173 17.99147875 13.84866641 18.47208068 17 20 C13.893533 23.106467 10.16532512 23.69089782 6 25 C5.01 30.61 4.02 36.22 3 42 C2.34 41.67 1.68 41.34 1 41 C0.36087308 38.13565596 -0.16944544 35.33120119 -0.625 32.4375 C-0.7590625 31.63119141 -0.893125 30.82488281 -1.03125 29.99414062 C-1.36207299 27.9973876 -1.68205038 25.9988433 -2 24 C-5.3 23.34 -8.6 22.68 -12 22 C-12 21.01 -12 20.02 -12 19 C-8.7 18.67 -5.4 18.34 -2 18 C-1.34 12.06 -0.68 6.12 0 0 Z " fill="#B9ADCA" transform="translate(399,112)"/>
<path d="M0 0 C0.66 0 1.32 0 2 0 C2.99 5.28 3.98 10.56 5 16 C8.96 16.99 12.92 17.98 17 19 C16 21 16 21 13.71484375 21.8515625 C9.85742188 22.92578125 9.85742188 22.92578125 6 24 C5.01 29.61 4.02 35.22 3 41 C2.34 41 1.68 41 1 41 C0.49645133 38.56318413 -0.00296756 36.12564561 -0.5 33.6875 C-0.64308594 32.99720703 -0.78617188 32.30691406 -0.93359375 31.59570312 C-1.52625044 28.67475227 -2 25.98891878 -2 23 C-3.258125 22.855625 -4.51625 22.71125 -5.8125 22.5625 C-8.42667123 22.26251314 -10.47439892 21.84186703 -13 21 C-13 20.34 -13 19.68 -13 19 C-7.555 18.01 -7.555 18.01 -2 17 C-1.34 11.39 -0.68 5.78 0 0 Z " fill="#B9ADCA" transform="translate(194,383)"/>
<path d="M0 0 C2.72106694 2.72106694 2.60655572 4.84776311 3.125 8.625 C3.29257813 9.81351563 3.46015625 11.00203125 3.6328125 12.2265625 C3.75398437 13.14179687 3.87515625 14.05703125 4 15 C5.093125 14.95875 6.18625 14.9175 7.3125 14.875 C11 15 11 15 14 17 C12.70990357 17.50403768 11.41786211 18.00309926 10.125 18.5 C9.40570313 18.7784375 8.68640625 19.056875 7.9453125 19.34375 C6 20 6 20 4 20 C3.95101562 20.83144531 3.90203125 21.66289063 3.8515625 22.51953125 C3.77679688 23.60621094 3.70203125 24.69289063 3.625 25.8125 C3.55539063 26.89144531 3.48578125 27.97039062 3.4140625 29.08203125 C3 32 3 32 1 35 C-1.42568913 30.14862175 -1.57339572 25.33255345 -2 20 C-5.3 19.34 -8.6 18.68 -12 18 C-12 17.34 -12 16.68 -12 16 C-8.7 15.67 -5.4 15.34 -2 15 C-1.93941406 14.08476563 -1.87882813 13.16953125 -1.81640625 12.2265625 C-1.73261719 11.03804687 -1.64882812 9.84953125 -1.5625 8.625 C-1.48128906 7.44164062 -1.40007812 6.25828125 -1.31640625 5.0390625 C-1 2 -1 2 0 0 Z " fill="#B9ADCA" transform="translate(241,44)"/>
<path d="M0 0 C2.09765625 0.375 2.09765625 0.375 4.16015625 1.875 C5.50468344 5.46040584 5.90697262 8.60589803 5.09765625 12.375 C3.03515625 14.9375 3.03515625 14.9375 0.09765625 16.375 C-3.36993317 16.31521398 -5.79061124 15.98465977 -8.83984375 14.3125 C-10.59293587 11.11568496 -10.38901507 7.88044411 -9.90234375 4.375 C-8.09470237 -0.44537702 -4.62330627 -0.24056228 0 0 Z " fill="#E4E0EA" transform="translate(326.90234375,49.625)"/>
<path d="M0 0 C1.9375 1.0625 1.9375 1.0625 3 3 C3.75471698 9.79245283 3.75471698 9.79245283 1.4375 13.5 C-1.94888329 15.58392818 -4.09385318 15.55802097 -8 15 C-10.4375 13.5 -10.4375 13.5 -12 11 C-12.61014545 8.1910285 -12.65360928 5.80363979 -12 3 C-8.3655827 -1.51548816 -5.40521016 -1.50144727 0 0 Z " fill="#D5CEDF" transform="translate(269,148)"/>
<path d="M0 0 C2.375 1.625 2.375 1.625 4 4 C4.61195145 7.6717087 4.48706506 9.28813568 2.375 12.375 C-0.71186432 14.48706506 -2.3282913 14.61195145 -6 14 C-8.4375 12.4375 -8.4375 12.4375 -10 10 C-9.93866496 6.5039028 -9.65265114 4.06485186 -7.8125 1.0625 C-5.04411529 -0.56034621 -3.14454533 -0.44922076 0 0 Z " fill="#D5CEDF" transform="translate(155,53)"/>
<path d="M0 0 C2.86801846 0.08864784 3.78417611 0.16414857 6.125 1.9375 C7.48213883 5.46606096 7.04765877 7.76275116 6.0625 11.375 C4.375 13.375 4.375 13.375 2.0625 14.375 C-1.38016385 14.30474155 -3.22103249 13.97590824 -5.875 11.75 C-7.40612051 8.32749533 -6.8001304 5.95823398 -5.9375 2.375 C-3.9375 0.375 -3.9375 0.375 0 0 Z " fill="#D5CEDF" transform="translate(231.9375,430.625)"/>
<path d="M0 0 C3.4375 0.8125 3.4375 0.8125 5.4375 3.8125 C4.98466981 10.26533019 4.98466981 10.26533019 2.4375 12.8125 C-3.70481015 13.4825702 -3.70481015 13.4825702 -6.5625 11.25 C-7.99385511 7.76107191 -7.496466 5.41494028 -6.5625 1.8125 C-3.5625 -0.1875 -3.5625 -0.1875 0 0 Z " fill="#E9E6EE" transform="translate(335.5625,416.1875)"/>
<path d="M0 0 C3.4375 0.8125 3.4375 0.8125 5.4375 3.8125 C4.98466981 10.26533019 4.98466981 10.26533019 2.4375 12.8125 C-3.70481015 13.4825702 -3.70481015 13.4825702 -6.5625 11.25 C-7.99385511 7.76107191 -7.496466 5.41494028 -6.5625 1.8125 C-3.5625 -0.1875 -3.5625 -0.1875 0 0 Z " fill="#E9E6EE" transform="translate(235.5625,361.1875)"/>
<path d="M0 0 C3.5 0.4375 3.5 0.4375 5.4375 1.5625 C6.98724515 4.29734439 6.82162076 6.3499407 6.5 9.4375 C4.5 12.4375 4.5 12.4375 1.625 13.25 C-1.5 13.4375 -1.5 13.4375 -3.8125 12.9375 C-5.5 11.4375 -5.5 11.4375 -6.4375 8.0625 C-6.5 4.4375 -6.5 4.4375 -5.5 2 C-3.5 0.4375 -3.5 0.4375 0 0 Z " fill="#E9E6EE" transform="translate(129.5,408.5625)"/>
<path d="M0 0 C1.875 -0.36328125 1.875 -0.36328125 4 -0.3125 C4.70125 -0.30863281 5.4025 -0.30476562 6.125 -0.30078125 C8 0 8 0 10 2 C10.67973856 9.1372549 10.67973856 9.1372549 8.375 12.0625 C5.19296594 13.31856608 3.25787048 12.92070253 0 12 C-2 10 -2 10 -2.25 6.5625 C-2 3 -2 3 0 0 Z " fill="#E9E6EE" transform="translate(428,189)"/>
<path d="M0 0 C1.875 -0.36328125 1.875 -0.36328125 4 -0.3125 C4.70125 -0.30863281 5.4025 -0.30476562 6.125 -0.30078125 C8 0 8 0 10 2 C10.67973856 9.1372549 10.67973856 9.1372549 8.375 12.0625 C5.19296594 13.31856608 3.25787048 12.92070253 0 12 C-2 10 -2 10 -2.25 6.5625 C-2 3 -2 3 0 0 Z " fill="#E9E6EE" transform="translate(48,184)"/>
<path d="M0 0 C1.134375 0.020625 2.26875 0.04125 3.4375 0.0625 C4.76591008 5.49690487 4.76591008 5.49690487 3.3125 8 C1.4375 9.0625 1.4375 9.0625 -1.1875 8.8125 C-3.5625 8.0625 -3.5625 8.0625 -4.5625 7.0625 C-4.6875 4.0625 -4.6875 4.0625 -4.5625 1.0625 C-3.5625 0.0625 -3.5625 0.0625 0 0 Z " fill="#8A76A6" transform="translate(441.5625,124.9375)"/>
<path d="M0 0 C1.2684375 0.12375 1.2684375 0.12375 2.5625 0.25 C4.7144437 3.47791555 4.76336443 4.53400809 4.5625 8.25 C-2.1875 9.375 -2.1875 9.375 -4.4375 8.25 C-3.43230397 0.35203118 -3.43230397 0.35203118 0 0 Z " fill="#8A76A6" transform="translate(355.4375,437.75)"/>
<path d="M0 0 C2.33944736 0.28730055 4.6739143 0.61936779 7 1 C7.6875 3.3125 7.6875 3.3125 8 6 C6.875 7.875 6.875 7.875 5 9 C0.57894737 8.57894737 0.57894737 8.57894737 -1 7 C-1.125 4 -1.125 4 -1 1 C-0.67 0.67 -0.34 0.34 0 0 Z " fill="#8A76A6" transform="translate(46,363)"/>
<path d="M0 0 C2.375 0.6875 2.375 0.6875 3.375 1.6875 C3.08769945 4.02694736 2.75563221 6.3614143 2.375 8.6875 C-0.5 8.8125 -0.5 8.8125 -3.625 8.6875 C-5.625 6.6875 -5.625 6.6875 -5.9375 4.1875 C-5.834375 3.3625 -5.73125 2.5375 -5.625 1.6875 C-2.625 -0.3125 -2.625 -0.3125 0 0 Z " fill="#8A76A6" transform="translate(437.625,358.3125)"/>
<path d="M0 0 C1.2375 0.1546875 1.2375 0.1546875 2.5 0.3125 C4.5 3.3125 4.5 3.3125 4.125 6 C3.91875 6.763125 3.7125 7.52625 3.5 8.3125 C0.625 8.9375 0.625 8.9375 -2.5 9.3125 C-4.5 7.3125 -4.5 7.3125 -4.75 4.8125 C-4.40047575 1.3172575 -3.47557682 0.4344471 0 0 Z " fill="#8A76A6" transform="translate(320.5,452.6875)"/>
<path d="M0 0 C1.2375 0.1546875 1.2375 0.1546875 2.5 0.3125 C4.5 3.3125 4.5 3.3125 4.125 6 C3.91875 6.763125 3.7125 7.52625 3.5 8.3125 C0.625 8.9375 0.625 8.9375 -2.5 9.3125 C-4.5 7.3125 -4.5 7.3125 -4.75 4.8125 C-4.40047575 1.3172575 -3.47557682 0.4344471 0 0 Z " fill="#8A76A6" transform="translate(332.5,448.6875)"/>
<path d="M0 0 C3.125 0.375 3.125 0.375 6 1 C6.625 3.3125 6.625 3.3125 7 6 C6.01 7.485 6.01 7.485 5 9 C2.5 9.3125 2.5 9.3125 0 9 C-2 7 -2 7 -2.25 4.5 C-2 2 -2 2 0 0 Z " fill="#8A76A6" transform="translate(142,445)"/>
<path d="M0 0 C1.2375 0.1546875 1.2375 0.1546875 2.5 0.3125 C4.5 3.3125 4.5 3.3125 4.125 6 C3.91875 6.763125 3.7125 7.52625 3.5 8.3125 C0.625 8.9375 0.625 8.9375 -2.5 9.3125 C-4.5 7.3125 -4.5 7.3125 -4.75 4.8125 C-4.40047575 1.3172575 -3.47557682 0.4344471 0 0 Z " fill="#8A76A6" transform="translate(344.5,443.6875)"/>
<path d="M0 0 C0.763125 0.20625 1.52625 0.4125 2.3125 0.625 C2.9375 2.9375 2.9375 2.9375 3.3125 5.625 C2.3225 7.11 2.3225 7.11 1.3125 8.625 C-1.1875 8.9375 -1.1875 8.9375 -3.6875 8.625 C-5.6875 6.625 -5.6875 6.625 -6 4.125 C-5.896875 3.3 -5.79375 2.475 -5.6875 1.625 C-2.6875 -0.375 -2.6875 -0.375 0 0 Z " fill="#8A76A6" transform="translate(443.6875,347.375)"/>
<path d="M0 0 C1.2375 0.1546875 1.2375 0.1546875 2.5 0.3125 C4.5 3.3125 4.5 3.3125 4.125 6 C3.91875 6.763125 3.7125 7.52625 3.5 8.3125 C0.625 8.9375 0.625 8.9375 -2.5 9.3125 C-4.5 7.3125 -4.5 7.3125 -4.75 4.8125 C-4.40047575 1.3172575 -3.47557682 0.4344471 0 0 Z " fill="#8A76A6" transform="translate(451.5,147.6875)"/>
<path d="M0 0 C1.2375 0.1546875 1.2375 0.1546875 2.5 0.3125 C4.5 3.3125 4.5 3.3125 4.125 6 C3.91875 6.763125 3.7125 7.52625 3.5 8.3125 C0.625 8.9375 0.625 8.9375 -2.5 9.3125 C-4.5 7.3125 -4.5 7.3125 -4.75 4.8125 C-4.40047575 1.3172575 -3.47557682 0.4344471 0 0 Z " fill="#8A76A6" transform="translate(446.5,135.6875)"/>
<path d="M0 0 C2.33944736 0.28730055 4.6739143 0.61936779 7 1 C7.625 3.3125 7.625 3.3125 8 6 C7.01 7.485 7.01 7.485 6 9 C3.03 8.505 3.03 8.505 0 8 C-0.38063221 5.6739143 -0.71269945 3.33944736 -1 1 C-0.67 0.67 -0.34 0.34 0 0 Z " fill="#8A76A6" transform="translate(38,130)"/>
<path d="M0 0 C3.29714793 0.32971479 4.6226839 0.6226839 7 3 C6.625 6.125 6.625 6.125 6 9 C3.125 9.125 3.125 9.125 0 9 C-2 7 -2 7 -2.25 4.5 C-2 2 -2 2 0 0 Z " fill="#8A76A6" transform="translate(45,118)"/>
<path d="M0 0 C2.625 -0.1875 2.625 -0.1875 5 0 C5 0.66 5 1.32 5 2 C5.66 2 6.32 2 7 2 C7 3.65 7 5.3 7 7 C6.34 7 5.68 7 5 7 C5 7.66 5 8.32 5 9 C3.02 9 1.04 9 -1 9 C-1.625 6.1875 -1.625 6.1875 -2 3 C-1.34 2.01 -0.68 1.02 0 0 Z " fill="#8A76A6" transform="translate(75,77)"/>
<path d="M0 0 C3.0625 0.1875 3.0625 0.1875 5.0625 2.1875 C4.73278521 5.48464793 4.4398161 6.8101839 2.0625 9.1875 C-2.49305556 8.63194444 -2.49305556 8.63194444 -3.9375 7.1875 C-4.0625 4.1875 -4.0625 4.1875 -3.9375 1.1875 C-2.9375 0.1875 -2.9375 0.1875 0 0 Z " fill="#8A76A6" transform="translate(105.9375,51.8125)"/>
<path d="M0 0 C2.625 0.25 2.625 0.25 4.5 1.4375 C5.625 3.25 5.625 3.25 5.3125 5.9375 C5.085625 6.700625 4.85875 7.46375 4.625 8.25 C1.75 8.875 1.75 8.875 -1.375 9.25 C-3.375 7.25 -3.375 7.25 -3.5625 4.1875 C-3.31750282 0.34921082 -3.31750282 0.34921082 0 0 Z " fill="#8A76A6" transform="translate(127.375,37.75)"/>
<path d="M0 0 C3.125 0.375 3.125 0.375 6 1 C6.625 3.875 6.625 3.875 7 7 C5 9 5 9 2.5 9.25 C0 9 0 9 -2 7 C-2.25 4.5 -2.25 4.5 -2 2 C-1.34 1.34 -0.68 0.68 0 0 Z " fill="#8A76A6" transform="translate(349,36)"/>
<path d="M0 0 C1.2684375 0.12375 1.2684375 0.12375 2.5625 0.25 C4.5625 3.25 4.5625 3.25 4.1875 5.9375 C3.98125 6.700625 3.775 7.46375 3.5625 8.25 C-2.1875 9.375 -2.1875 9.375 -4.4375 8.25 C-3.43230397 0.35203118 -3.43230397 0.35203118 0 0 Z " fill="#8A76A6" transform="translate(139.4375,31.75)"/>
<path d="M0 0 C3.125 0.375 3.125 0.375 6 1 C6.625 3.3125 6.625 3.3125 7 6 C6.01 7.485 6.01 7.485 5 9 C2.5 9.3125 2.5 9.3125 0 9 C-2 7 -2 7 -2.25 4.5 C-2 2 -2 2 0 0 Z " fill="#8A76A6" transform="translate(337,31)"/>
<path d="M0 0 C1.2375 0.1546875 1.2375 0.1546875 2.5 0.3125 C4.5 3.3125 4.5 3.3125 4.125 6 C3.91875 6.763125 3.7125 7.52625 3.5 8.3125 C0.625 8.9375 0.625 8.9375 -2.5 9.3125 C-4.5 7.3125 -4.5 7.3125 -4.75 4.8125 C-4.40047575 1.3172575 -3.47557682 0.4344471 0 0 Z " fill="#8A76A6" transform="translate(151.5,26.6875)"/>
<path d="M0 0 C2.875 -0.125 2.875 -0.125 6 0 C6.66 0.66 7.32 1.32 8 2 C7.625 5.125 7.625 5.125 7 8 C4.6875 8.625 4.6875 8.625 2 9 C1.01 8.34 0.02 7.68 -1 7 C-0.67 4.69 -0.34 2.38 0 0 Z " fill="#8A76A6" transform="translate(178,457)"/>
<path d="M0 0 C2.33944736 0.28730055 4.6739143 0.61936779 7 1 C7.6875 3.3125 7.6875 3.3125 8 6 C6.875 7.875 6.875 7.875 5 9 C2.3125 8.6875 2.3125 8.6875 0 8 C-0.38063221 5.6739143 -0.71269945 3.33944736 -1 1 C-0.67 0.67 -0.34 0.34 0 0 Z " fill="#8A76A6" transform="translate(130,440)"/>
<path d="M0 0 C3.125 0.375 3.125 0.375 6 1 C6.625 3.3125 6.625 3.3125 7 6 C6.01 7.485 6.01 7.485 5 9 C-0.875 8.125 -0.875 8.125 -2 7 C-2.1875 4.5625 -2.1875 4.5625 -2 2 C-1.34 1.34 -0.68 0.68 0 0 Z " fill="#8A76A6" transform="translate(446,335)"/>
<path d="M0 0 C1.2684375 0.12375 1.2684375 0.12375 2.5625 0.25 C4.5625 3.25 4.5625 3.25 4.1875 5.9375 C3.98125 6.700625 3.775 7.46375 3.5625 8.25 C1.5825 8.58 -0.3975 8.91 -2.4375 9.25 C-4.4375 6.25 -4.4375 6.25 -4.125 3.625 C-3.16976704 0.32510431 -3.16976704 0.32510431 0 0 Z " fill="#8A76A6" transform="translate(32.4375,328.75)"/>
<path d="M0 0 C3.125 0.375 3.125 0.375 6 1 C6.625 3.3125 6.625 3.3125 7 6 C6.01 7.485 6.01 7.485 5 9 C-0.875 8.125 -0.875 8.125 -2 7 C-2.1875 4.5625 -2.1875 4.5625 -2 2 C-1.34 1.34 -0.68 0.68 0 0 Z " fill="#8A76A6" transform="translate(29,153)"/>
<path d="M0 0 C0.763125 0.20625 1.52625 0.4125 2.3125 0.625 C3.4375 6.375 3.4375 6.375 2.3125 8.625 C0.0025 8.625 -2.3075 8.625 -4.6875 8.625 C-5.0175 6.315 -5.3475 4.005 -5.6875 1.625 C-2.6875 -0.375 -2.6875 -0.375 0 0 Z " fill="#8A76A6" transform="translate(374.6875,49.375)"/>
<path d="M0 0 C1.9375 0.75 1.9375 0.75 3.9375 2.75 C3.5625 5.875 3.5625 5.875 2.9375 8.75 C0.0625 8.875 0.0625 8.875 -3.0625 8.75 C-5.0625 6.75 -5.0625 6.75 -5.375 4.25 C-5.271875 3.425 -5.16875 2.6 -5.0625 1.75 C-2.0625 -0.25 -2.0625 -0.25 0 0 Z " fill="#8A76A6" transform="translate(363.0625,42.25)"/>
<path d="M0 0 C1.2684375 0.12375 1.2684375 0.12375 2.5625 0.25 C4.5625 3.25 4.5625 3.25 4.1875 5.9375 C3.98125 6.700625 3.775 7.46375 3.5625 8.25 C1.5825 8.58 -0.3975 8.91 -2.4375 9.25 C-4.4375 6.25 -4.4375 6.25 -4.125 3.625 C-3.16976704 0.32510431 -3.16976704 0.32510431 0 0 Z " fill="#8A76A6" transform="translate(163.4375,22.75)"/>
<path d="M0 0 C2.875 -0.125 2.875 -0.125 6 0 C8 2 8 2 8.3125 4.5 C8.1578125 5.7375 8.1578125 5.7375 8 7 C5 9 5 9 2.3125 8.625 C1.549375 8.41875 0.78625 8.2125 0 8 C-0.79953138 4.71303767 -1.09658936 3.28976808 0 0 Z " fill="#8A76A6" transform="translate(384,417)"/>
<path d="M0 0 C2.875 -0.1875 2.875 -0.1875 6 0 C8 3 8 3 7.75 5.0625 C7 7 7 7 5 9 C1.875 8.625 1.875 8.625 -1 8 C-1.125 2.25 -1.125 2.25 0 0 Z " fill="#8A76A6" transform="translate(69,394)"/>
<path d="M0 0 C2.875 -0.1875 2.875 -0.1875 6 0 C8 3 8 3 7.6875 5.125 C7 7 7 7 6 8 C4.00041636 8.04080783 1.99954746 8.04254356 0 8 C-1.125 6.25 -1.125 6.25 -2 4 C-1.125 1.75 -1.125 1.75 0 0 Z " fill="#8A76A6" transform="translate(21,305)"/>
<path d="M0 0 C1 1 1 1 1.0625 4.5625 C1.041875 5.696875 1.02125 6.83125 1 8 C-4.43440487 9.32841008 -4.43440487 9.32841008 -6.9375 7.875 C-8 6 -8 6 -7.8125 3.375 C-6.42010387 -0.69508098 -3.8826193 -0.19910868 0 0 Z " fill="#8A76A6" transform="translate(24,292)"/>
<path d="M0 0 C2.375 0.375 2.375 0.375 3.375 1.375 C3.625 4.3125 3.625 4.3125 3.375 7.375 C0.375 9.375 0.375 9.375 -2.3125 9 C-3.075625 8.79375 -3.83875 8.5875 -4.625 8.375 C-5.625 5.375 -5.625 5.375 -4.5 2.6875 C-2.625 0.375 -2.625 0.375 0 0 Z " fill="#8A76A6" transform="translate(456.625,159.625)"/>
<path d="M0 0 C1.010625 0.0825 2.02125 0.165 3.0625 0.25 C5.0625 3.25 5.0625 3.25 4.8125 5.3125 C4.0625 7.25 4.0625 7.25 2.0625 9.25 C-0.20024788 8.89644564 -1.88838852 8.27455574 -3.9375 7.25 C-3.98004356 5.25045254 -3.97830783 3.24958364 -3.9375 1.25 C-2.9375 0.25 -2.9375 0.25 0 0 Z " fill="#8A76A6" transform="translate(60.9375,96.75)"/>
<path d="M0 0 C2.875 -0.1875 2.875 -0.1875 6 0 C8 3 8 3 7.75 5.0625 C7 7 7 7 5 9 C1.875 8.625 1.875 8.625 -1 8 C-1.125 2.25 -1.125 2.25 0 0 Z " fill="#8A76A6" transform="translate(93,60)"/>
<path d="M0 0 C2.64 0 5.28 0 8 0 C8.04241723 2.33294775 8.04092937 4.66702567 8 7 C7 8 7 8 3.9375 8.0625 C2.968125 8.041875 1.99875 8.02125 1 8 C0.26919734 6.02253397 -0.39421747 4.01927511 -1 2 C-0.67 1.34 -0.34 0.68 0 0 Z " fill="#8A76A6" transform="translate(190,460)"/>
<path d="M0 0 C3.125 -0.1875 3.125 -0.1875 6 0 C6.625 3.375 6.625 3.375 7 7 C6.34 7.66 5.68 8.32 5 9 C2.5 8.9375 2.5 8.9375 0 8 C-1.4375 5.625 -1.4375 5.625 -2 3 C-1.34 2.01 -0.68 1.02 0 0 Z " fill="#8A76A6" transform="translate(364,432)"/>
<path d="M0 0 C1.010625 0.0825 2.02125 0.165 3.0625 0.25 C5.0625 3.25 5.0625 3.25 4.8125 5.3125 C4.0625 7.25 4.0625 7.25 2.0625 9.25 C-0.5625 8.875 -0.5625 8.875 -2.9375 8.25 C-3.31813221 5.9239143 -3.65019945 3.58944736 -3.9375 1.25 C-2.9375 0.25 -2.9375 0.25 0 0 Z " fill="#8A76A6" transform="translate(55.9375,373.75)"/>
<path d="M0 0 C2.97 0.495 2.97 0.495 6 1 C6.625 3.3125 6.625 3.3125 7 6 C6.01 7.485 6.01 7.485 5 9 C2.03 8.505 2.03 8.505 -1 8 C-1.625 5.6875 -1.625 5.6875 -2 3 C-1.34 2.01 -0.68 1.02 0 0 Z " fill="#8A76A6" transform="translate(458,299)"/>
<path d="M0 0 C3.125 0.375 3.125 0.375 6 1 C6.625 3.3125 6.625 3.3125 7 6 C6.01 7.485 6.01 7.485 5 9 C2.375 9.1875 2.375 9.1875 0 9 C-0.66 6.69 -1.32 4.38 -2 2 C-1.34 1.34 -0.68 0.68 0 0 Z " fill="#8A76A6" transform="translate(33,141)"/>
<path d="M0 0 C2 3 2 3 1.75 5.0625 C1 7 1 7 -1 9 C-3.26274788 8.64644564 -4.95088852 8.02455574 -7 7 C-7 5.02 -7 3.04 -7 1 C-4.46578263 -0.26710868 -2.80561762 -0.28056176 0 0 Z " fill="#8A76A6" transform="translate(72,87)"/>
<path d="M0 0 C1 1 1 1 1.0625 3.5625 C1.041875 4.366875 1.02125 5.17125 1 6 C0.34 6 -0.32 6 -1 6 C-1 6.66 -1 7.32 -1 8 C-3.375 8.1875 -3.375 8.1875 -6 8 C-8 5 -8 5 -7.75 2.375 C-7.5025 1.59125 -7.255 0.8075 -7 0 C-4.31633121 -1.3418344 -2.84719317 -0.73004953 0 0 Z " fill="#8A76A6" transform="translate(90,69)"/>
<path d="M0 0 C5.56818182 0.56818182 5.56818182 0.56818182 7 2 C7.04080783 3.99958364 7.04254356 6.00045254 7 8 C4.6875 8.625 4.6875 8.625 2 9 C-1 7 -1 7 -1.8125 4.5 C-1.874375 3.675 -1.93625 2.85 -2 2 C-1.34 1.34 -0.68 0.68 0 0 Z " fill="#8A76A6" transform="translate(325,26)"/>
<path d="M0 0 C3.125 -0.1875 3.125 -0.1875 6 0 C7.125 2.3125 7.125 2.3125 8 5 C7.01 6.485 7.01 6.485 6 8 C2.875 8.1875 2.875 8.1875 0 8 C-1.125 5.6875 -1.125 5.6875 -2 3 C-1.34 2.01 -0.68 1.02 0 0 Z " fill="#8A76A6" transform="translate(229,464)"/>
<path d="M0 0 C1.99954746 -0.04254356 4.00041636 -0.04080783 6 0 C7 1 7 1 7.0625 4.5625 C7.041875 5.696875 7.02125 6.83125 7 8 C4.69 8 2.38 8 0 8 C-1.125 6.25 -1.125 6.25 -2 4 C-1.125 1.75 -1.125 1.75 0 0 Z " fill="#8A76A6" transform="translate(280,462)"/>
<path d="M0 0 C0.125 2.875 0.125 2.875 0 6 C-2 8 -2 8 -4.625 8.125 C-5.40875 8.08375 -6.1925 8.0425 -7 8 C-8.35439668 5.29120665 -8.06501451 2.99066732 -8 0 C-5.13822943 -1.43088528 -3.06624227 -0.59991697 0 0 Z " fill="#8A76A6" transform="translate(115,428)"/>
<path d="M0 0 C0.125 2.375 0.125 2.375 0 5 C-0.66 5.66 -1.32 6.32 -2 7 C-5.625 6.625 -5.625 6.625 -9 6 C-9 4.02 -9 2.04 -9 0 C-5.93109813 -1.53445094 -3.29905734 -0.54984289 0 0 Z " fill="#8A76A6" transform="translate(105,421)"/>
<path d="M0 0 C1.98 0 3.96 0 6 0 C6.33 2.31 6.66 4.62 7 7 C6.34 7 5.68 7 5 7 C5 7.66 5 8.32 5 9 C3.33388095 9.042721 1.66617115 9.04063832 0 9 C-1 8 -1 8 -1.125 5.0625 C-1 2 -1 2 0 0 Z " fill="#8A76A6" transform="translate(61,384)"/>
<path d="M0 0 C2.31 0.33 4.62 0.66 7 1 C7.125 3.875 7.125 3.875 7 7 C6.34 7.66 5.68 8.32 5 9 C1.70720291 8.68134222 0.13464912 7.45484649 -2 5 C-1.34 3.35 -0.68 1.7 0 0 Z " fill="#8A76A6" transform="translate(420,380)"/>
<path d="M0 0 C3.0625 -0.25 3.0625 -0.25 6 0 C7 1 7 1 7.0625 4.5625 C7.041875 5.696875 7.02125 6.83125 7 8 C4.69 8 2.38 8 0 8 C-1.125 5.6875 -1.125 5.6875 -2 3 C-1.34 2.01 -0.68 1.02 0 0 Z " fill="#8A76A6" transform="translate(14,267)"/>
<path d="M0 0 C1 1 1 1 1.0625 3.5625 C1.041875 4.366875 1.02125 5.17125 1 6 C-1.35438733 7.42944945 -2.48032433 8.08661261 -5.25 7.625 C-5.8275 7.41875 -6.405 7.2125 -7 7 C-7.93423645 3.98968256 -8.04449911 3.13349732 -7 0 C-4.31633121 -1.3418344 -2.84719317 -0.73004953 0 0 Z " fill="#8A76A6" transform="translate(470,211)"/>
<path d="M0 0 C2.64 0 5.28 0 8 0 C8.04241723 2.33294775 8.04092937 4.66702567 8 7 C7 8 7 8 3.9375 8.0625 C2.968125 8.041875 1.99875 8.02125 1 8 C-1.125 3.375 -1.125 3.375 0 0 Z " fill="#8A76A6" transform="translate(461,198)"/>
<path d="M0 0 C0.125 2.875 0.125 2.875 0 6 C-0.66 6.66 -1.32 7.32 -2 8 C-5.125 7.625 -5.125 7.625 -8 7 C-8.6875 4.6875 -8.6875 4.6875 -9 2 C-6.73607469 -1.99516231 -4.01344788 -0.98106504 0 0 Z " fill="#8A76A6" transform="translate(25,191)"/>
<path d="M0 0 C0.94875 0.04125 1.8975 0.0825 2.875 0.125 C3.25563221 2.4510857 3.58769945 4.78555264 3.875 7.125 C2.875 8.125 2.875 8.125 -0.6875 8.1875 C-1.821875 8.166875 -2.95625 8.14625 -4.125 8.125 C-4.75 5.25 -4.75 5.25 -5.125 2.125 C-3.125 0.125 -3.125 0.125 0 0 Z " fill="#8A76A6" transform="translate(463.125,184.875)"/>
<path d="M0 0 C2.31 0 4.62 0 7 0 C7.79953138 3.28696233 8.09658936 4.71023192 7 8 C4.125 8.125 4.125 8.125 1 8 C0.34 7.34 -0.32 6.68 -1 6 C-0.625 2.875 -0.625 2.875 0 0 Z " fill="#8A76A6" transform="translate(20,178)"/>
<path d="M0 0 C2.375 0.75 2.375 0.75 3.375 1.75 C3.41580783 3.74958364 3.41754356 5.75045254 3.375 7.75 C0.08803767 8.54953138 -1.33523192 8.84658936 -4.625 7.75 C-5.3125 5.4375 -5.3125 5.4375 -5.625 2.75 C-3.9659358 -0.015107 -3.22812218 -0.30744021 0 0 Z " fill="#8A76A6" transform="translate(27.625,165.25)"/>
<path d="M0 0 C0.94875 0.04125 1.8975 0.0825 2.875 0.125 C3.205 2.435 3.535 4.745 3.875 7.125 C-2.875 8.25 -2.875 8.25 -5.125 7.125 C-5.25 4.75 -5.25 4.75 -5.125 2.125 C-3.125 0.125 -3.125 0.125 0 0 Z " fill="#8A76A6" transform="translate(435.125,113.875)"/>
<path d="M0 0 C2.64 0 5.28 0 8 0 C8.125 5.75 8.125 5.75 7 8 C5.02 8 3.04 8 1 8 C0.26919734 6.02253397 -0.39421747 4.01927511 -1 2 C-0.67 1.34 -0.34 0.68 0 0 Z " fill="#8A76A6" transform="translate(287,17)"/>
<path d="M0 0 C2.31 0 4.62 0 7 0 C7.625 2.3125 7.625 2.3125 8 5 C7.01 6.485 7.01 6.485 6 8 C3.5 8.3125 3.5 8.3125 1 8 C0.34 7.34 -0.32 6.68 -1 6 C-0.625 2.875 -0.625 2.875 0 0 Z " fill="#8A76A6" transform="translate(203,462)"/>
<path d="M0 0 C1.99954746 -0.04254356 4.00041636 -0.04080783 6 0 C7 1 7 1 7.0625 4.0625 C7.041875 5.031875 7.02125 6.00125 7 7 C4.29120665 8.35439668 1.99066732 8.06501451 -1 8 C-1.93065133 5.39417629 -2.14917407 4.35801776 -1.0625 1.75 C-0.711875 1.1725 -0.36125 0.595 0 0 Z " fill="#8A76A6" transform="translate(293,460)"/>
<path d="M0 0 C1.99954746 -0.04254356 4.00041636 -0.04080783 6 0 C7 1 7 1 7.125 4 C7 7 7 7 6 8 C4.00041636 8.04080783 1.99954746 8.04254356 0 8 C-1.125 6.25 -1.125 6.25 -2 4 C-1.125 1.75 -1.125 1.75 0 0 Z " fill="#8A76A6" transform="translate(305,457)"/>
<path d="M0 0 C2.9375 0.1875 2.9375 0.1875 3.9375 1.1875 C4.0625 4.1875 4.0625 4.1875 3.9375 7.1875 C2.9375 8.1875 2.9375 8.1875 -0.125 8.25 C-1.094375 8.229375 -2.06375 8.20875 -3.0625 8.1875 C-3.7225 6.2075 -4.3825 4.2275 -5.0625 2.1875 C-3.0625 0.1875 -3.0625 0.1875 0 0 Z " fill="#8A76A6" transform="translate(169.0625,453.8125)"/>
<path d="M0 0 C1.4540625 0.0309375 1.4540625 0.0309375 2.9375 0.0625 C3.73703138 3.34946233 4.03408936 4.77273192 2.9375 8.0625 C0.0625 8.1875 0.0625 8.1875 -3.0625 8.0625 C-3.7225 7.4025 -4.3825 6.7425 -5.0625 6.0625 C-4.33395709 0.0884481 -4.33395709 0.0884481 0 0 Z " fill="#8A76A6" transform="translate(157.0625,449.9375)"/>
<path d="M0 0 C2.5625 0.1875 2.5625 0.1875 4.5625 2.1875 C4.8125 4.6875 4.8125 4.6875 4.5625 7.1875 C3.9025 7.8475 3.2425 8.5075 2.5625 9.1875 C-1.99305556 8.63194444 -1.99305556 8.63194444 -3.4375 7.1875 C-3.5625 4.1875 -3.5625 4.1875 -3.4375 1.1875 C-2.4375 0.1875 -2.4375 0.1875 0 0 Z " fill="#8A76A6" transform="translate(414.4375,389.8125)"/>
<path d="M0 0 C1.2684375 0.12375 1.2684375 0.12375 2.5625 0.25 C4.7144437 3.47791555 4.76336443 4.53400809 4.5625 8.25 C1.6875 8.875 1.6875 8.875 -1.4375 9.25 C-3.4375 7.25 -3.4375 7.25 -3.625 4.1875 C-3.37983937 0.34665019 -3.37983937 0.34665019 0 0 Z " fill="#8A76A6" transform="translate(42.4375,351.75)"/>
<path d="M0 0 C2.31 0 4.62 0 7 0 C7.33 1.98 7.66 3.96 8 6 C5 8 5 8 1.8125 7.625 C0.884375 7.41875 -0.04375 7.2125 -1 7 C-0.67 4.69 -0.34 2.38 0 0 Z " fill="#8A76A6" transform="translate(34,341)"/>
<path d="M0 0 C2.9375 0.1875 2.9375 0.1875 3.9375 1.1875 C4.0625 4.1875 4.0625 4.1875 3.9375 7.1875 C2.9375 8.1875 2.9375 8.1875 -0.125 8.25 C-1.094375 8.229375 -2.06375 8.20875 -3.0625 8.1875 C-3.7225 6.2075 -4.3825 4.2275 -5.0625 2.1875 C-3.0625 0.1875 -3.0625 0.1875 0 0 Z " fill="#8A76A6" transform="translate(453.0625,323.8125)"/>
<path d="M0 0 C1.99954746 -0.04254356 4.00041636 -0.04080783 6 0 C7 1 7 1 7.125 4 C7 7 7 7 6 8 C4.00041636 8.04080783 1.99954746 8.04254356 0 8 C-1.125 6.25 -1.125 6.25 -2 4 C-1.125 1.75 -1.125 1.75 0 0 Z " fill="#8A76A6" transform="translate(25,317)"/>
<path d="M0 0 C2.9375 0.1875 2.9375 0.1875 3.9375 1.1875 C4.0625 4.1875 4.0625 4.1875 3.9375 7.1875 C2.9375 8.1875 2.9375 8.1875 -0.125 8.25 C-1.094375 8.229375 -2.06375 8.20875 -3.0625 8.1875 C-3.7225 6.2075 -4.3825 4.2275 -5.0625 2.1875 C-3.0625 0.1875 -3.0625 0.1875 0 0 Z " fill="#8A76A6" transform="translate(457.0625,311.8125)"/>
<path d="M0 0 C2.33294775 -0.04241723 4.66702567 -0.04092937 7 0 C8 1 8 1 8.0625 4.0625 C8.041875 5.031875 8.02125 6.00125 8 7 C5.69 7.33 3.38 7.66 1 8 C-1.125 3.375 -1.125 3.375 0 0 Z " fill="#8A76A6" transform="translate(15,280)"/>
<path d="M0 0 C2.97 0.495 2.97 0.495 6 1 C6.93065133 3.60582371 7.14917407 4.64198224 6.0625 7.25 C5.711875 7.8275 5.36125 8.405 5 9 C2.03 8.505 2.03 8.505 -1 8 C-1.625 5.6875 -1.625 5.6875 -2 3 C-1.34 2.01 -0.68 1.02 0 0 Z " fill="#8A76A6" transform="translate(463,274)"/>
<path d="M0 0 C3.0625 -0.25 3.0625 -0.25 6 0 C7 1 7 1 7.125 4 C7 7 7 7 6 8 C4.00041636 8.04080783 1.99954746 8.04254356 0 8 C-1.125 5.6875 -1.125 5.6875 -2 3 C-1.34 2.01 -0.68 1.02 0 0 Z " fill="#8A76A6" transform="translate(465,249)"/>
<path d="M0 0 C3.0625 -0.25 3.0625 -0.25 6 0 C7 1 7 1 7.125 4 C7 7 7 7 6 8 C4.00041636 8.04080783 1.99954746 8.04254356 0 8 C-1.125 5.6875 -1.125 5.6875 -2 3 C-1.34 2.01 -0.68 1.02 0 0 Z " fill="#8A76A6" transform="translate(465,236)"/>
<path d="M0 0 C1.98 0 3.96 0 6 0 C6.38063221 2.3260857 6.71269945 4.66055264 7 7 C6 8 6 8 2.4375 8.0625 C1.303125 8.041875 0.16875 8.02125 -1 8 C-1.93065133 5.39417629 -2.14917407 4.35801776 -1.0625 1.75 C-0.711875 1.1725 -0.36125 0.595 0 0 Z " fill="#8A76A6" transform="translate(465,223)"/>
<path d="M0 0 C1.4540625 0.0309375 1.4540625 0.0309375 2.9375 0.0625 C3.31813221 2.3885857 3.65019945 4.72305264 3.9375 7.0625 C2.9375 8.0625 2.9375 8.0625 0 8.25 C-3.0625 8.0625 -3.0625 8.0625 -5.0625 6.0625 C-4.33395709 0.0884481 -4.33395709 0.0884481 0 0 Z " fill="#8A76A6" transform="translate(460.0625,172.9375)"/>
<path d="M0 0 C1.4540625 0.0309375 1.4540625 0.0309375 2.9375 0.0625 C3.5975 1.7125 4.2575 3.3625 4.9375 5.0625 C3.6175 6.3825 2.2975 7.7025 0.9375 9.0625 C-1.5375 8.0725 -1.5375 8.0725 -4.0625 7.0625 C-4.10504356 5.06295254 -4.10330783 3.06208364 -4.0625 1.0625 C-3.0625 0.0625 -3.0625 0.0625 0 0 Z " fill="#8A76A6" transform="translate(117.0625,44.9375)"/>
<path d="M0 0 C1.1446875 0.3403125 1.1446875 0.3403125 2.3125 0.6875 C2.9375 3 2.9375 3 3.3125 5.6875 C2.3225 7.1725 2.3225 7.1725 1.3125 8.6875 C-1.6575 8.1925 -1.6575 8.1925 -4.6875 7.6875 C-5.375 5.375 -5.375 5.375 -5.6875 2.6875 C-4.0011022 -0.12316299 -3.27764429 -0.38112143 0 0 Z " fill="#8A76A6" transform="translate(316.6875,22.3125)"/>
<path d="M0 0 C1.4540625 0.0309375 1.4540625 0.0309375 2.9375 0.0625 C3.31813221 2.3885857 3.65019945 4.72305264 3.9375 7.0625 C2.9375 8.0625 2.9375 8.0625 0 8.25 C-3.0625 8.0625 -3.0625 8.0625 -5.0625 6.0625 C-4.33395709 0.0884481 -4.33395709 0.0884481 0 0 Z " fill="#8A76A6" transform="translate(176.0625,19.9375)"/>
<path d="M0 0 C2.00720923 0.28674418 4.0085944 0.61866701 6 1 C6.93423645 4.01031744 7.04449911 4.86650268 6 8 C3.6875 8.625 3.6875 8.625 1 9 C0.01 8.34 -0.98 7.68 -2 7 C-1.125 1.125 -1.125 1.125 0 0 Z " fill="#8A76A6" transform="translate(301,19)"/>
<path d="M0 0 C1.99954746 -0.04254356 4.00041636 -0.04080783 6 0 C7 1 7 1 7.125 4 C7 7 7 7 6 8 C4.00041636 8.04080783 1.99954746 8.04254356 0 8 C-1.125 6.25 -1.125 6.25 -2 4 C-1.125 1.75 -1.125 1.75 0 0 Z " fill="#8A76A6" transform="translate(185,17)"/>
<path d="M0 0 C3 0.125 3 0.125 4 1.125 C4.04080783 3.12458364 4.04254356 5.12545254 4 7.125 C1.6875 8.25 1.6875 8.25 -1 9.125 C-1.99 8.465 -2.98 7.805 -4 7.125 C-4.25 4.0625 -4.25 4.0625 -4 1.125 C-3 0.125 -3 0.125 0 0 Z " fill="#8A76A6" transform="translate(239,11.875)"/>
<path d="M0 0 C2.375 0.25 2.375 0.25 3.375 1.25 C3.41592937 3.58297433 3.41741723 5.91705225 3.375 8.25 C1.065 8.25 -1.245 8.25 -3.625 8.25 C-4.285 6.6 -4.945 4.95 -5.625 3.25 C-3.7774876 0.91630013 -3.0311278 0.28867884 0 0 Z " fill="#8A76A6" transform="translate(219.625,462.75)"/>
<path d="M0 0 C2.5 0.25 2.5 0.25 4.5 2.25 C3.94444444 6.80555556 3.94444444 6.80555556 2.5 8.25 C0.16055264 7.96269945 -2.1739143 7.63063221 -4.5 7.25 C-4.625 4.875 -4.625 4.875 -4.5 2.25 C-2.5 0.25 -2.5 0.25 0 0 Z " fill="#8A76A6" transform="translate(90.5,411.75)"/>
<path d="M0 0 C2.625 0.625 2.625 0.625 5 2 C5.9375 3.9375 5.9375 3.9375 6 6 C5.01 7.485 5.01 7.485 4 9 C1.69 8.67 -0.62 8.34 -3 8 C-3.1875 5.125 -3.1875 5.125 -3 2 C-2.01 1.34 -1.02 0.68 0 0 Z " fill="#8A76A6" transform="translate(429,369)"/>
<path d="M0 0 C2.875 -0.125 2.875 -0.125 6 0 C6.66 0.66 7.32 1.32 8 2 C7.625 5.125 7.625 5.125 7 8 C4.125 8.125 4.125 8.125 1 8 C0.34 7.34 -0.32 6.68 -1 6 C-0.625 2.875 -0.625 2.875 0 0 Z " fill="#8A76A6" transform="translate(460,287)"/>
<path d="M0 0 C2.33294775 -0.04241723 4.66702567 -0.04092937 7 0 C8 1 8 1 8.125 4 C8 7 8 7 7 8 C4.625 8.3125 4.625 8.3125 2 8 C0.125 6.25 0.125 6.25 -1 4 C-0.6875 1.75 -0.6875 1.75 0 0 Z " fill="#8A76A6" transform="translate(463,262)"/>
<path d="M0 0 C3.0625 -0.25 3.0625 -0.25 6 0 C7 1 7 1 7.125 4 C7 7 7 7 6 8 C4.00041636 8.04080783 1.99954746 8.04254356 0 8 C-1.125 5.6875 -1.125 5.6875 -2 3 C-1.34 2.01 -0.68 1.02 0 0 Z " fill="#8A76A6" transform="translate(14,216)"/>
<path d="M0 0 C2.5 -0.3125 2.5 -0.3125 5 0 C5.66 0.66 6.32 1.32 7 2 C6.625 5.125 6.625 5.125 6 8 C3.69 8 1.38 8 -1 8 C-1.625 5.6875 -1.625 5.6875 -2 3 C-1.34 2.01 -0.68 1.02 0 0 Z " fill="#8A76A6" transform="translate(16,203)"/>
<path d="M0 0 C1.98 0 3.96 0 6 0 C6.33 2.31 6.66 4.62 7 7 C5.35 7.66 3.7 8.32 2 9 C0.68 7.68 -0.64 6.36 -2 5 C-1.34 3.35 -0.68 1.7 0 0 Z " fill="#8A76A6" transform="translate(425,103)"/>
<path d="M0 0 C2.31 0 4.62 0 7 0 C7.04241723 2.33294775 7.04092937 4.66702567 7 7 C6 8 6 8 3.625 8.3125 C1 8 1 8 -0.8125 6 C-1.204375 5.34 -1.59625 4.68 -2 4 C-1.34 2.68 -0.68 1.36 0 0 Z " fill="#8A76A6" transform="translate(275,15)"/>
<path d="M0 0 C2.33294775 -0.04241723 4.66702567 -0.04092937 7 0 C8 1 8 1 8.1875 3.4375 C8 6 8 6 6 8 C3.375 8.125 3.375 8.125 1 8 C-1.125 3.375 -1.125 3.375 0 0 Z " fill="#8A76A6" transform="translate(197,15)"/>
<path d="M0 0 C2.5 -0.3125 2.5 -0.3125 5 0 C5.66 0.66 6.32 1.32 7 2 C6.625 5.125 6.625 5.125 6 8 C3.69 8 1.38 8 -1 8 C-1.625 5.6875 -1.625 5.6875 -2 3 C-1.34 2.01 -0.68 1.02 0 0 Z " fill="#8A76A6" transform="translate(263,13)"/>
<path d="M0 0 C0 2.31 0 4.62 0 7 C-1.98 7.33 -3.96 7.66 -6 8 C-8 5 -8 5 -7.75 2.375 C-7.5025 1.59125 -7.255 0.8075 -7 0 C-4.3333581 -1.33332095 -2.83319697 -0.67102033 0 0 Z " fill="#8A76A6" transform="translate(274,464)"/>
<path d="M0 0 C2.875 -0.125 2.875 -0.125 6 0 C8 2 8 2 8.125 4.625 C8.08375 5.40875 8.0425 6.1925 8 7 C5.6875 8.125 5.6875 8.125 3 9 C2.01 8.34 1.02 7.68 0 7 C-0.1875 3.375 -0.1875 3.375 0 0 Z " fill="#8A76A6" transform="translate(374,425)"/>
<path d="M0 0 C3.0625 -0.25 3.0625 -0.25 6 0 C7 1 7 1 7.125 4 C7 7 7 7 6 8 C3.66055264 7.71269945 1.3260857 7.38063221 -1 7 C-1.625 5.1875 -1.625 5.1875 -2 3 C-1.34 2.01 -0.68 1.02 0 0 Z " fill="#8A76A6" transform="translate(13,229)"/>
<path d="M0 0 C1.010625 0.0825 2.02125 0.165 3.0625 0.25 C5.0625 3.25 5.0625 3.25 4.75 5.375 C4.0625 7.25 4.0625 7.25 3.0625 8.25 C0.625 8.4375 0.625 8.4375 -1.9375 8.25 C-3.9375 6.25 -3.9375 6.25 -4.125 3.6875 C-3.85121288 0.1282675 -3.61900269 0.30800023 0 0 Z " fill="#8A76A6" transform="translate(419.9375,92.75)"/>
<path d="M0 0 C2.33294775 -0.04241723 4.66702567 -0.04092937 7 0 C8 1 8 1 8.125 4 C8 7 8 7 7 8 C5.00041636 8.04080783 2.99954746 8.04254356 1 8 C-0.35439668 5.29120665 -0.06501451 2.99066732 0 0 Z " fill="#8A76A6" transform="translate(399,74)"/>
<path d="M0 0 C2.31 0.33 4.62 0.66 7 1 C6.67 3.31 6.34 5.62 6 8 C3.69 7.67 1.38 7.34 -1 7 C-1.625 5.1875 -1.625 5.1875 -2 3 C-1.34 2.01 -0.68 1.02 0 0 Z " fill="#8A76A6" transform="translate(119,434)"/>
<path d="M0 0 C2.4375 0.1875 2.4375 0.1875 3.4375 1.1875 C3.5625 4.1875 3.5625 4.1875 3.4375 7.1875 C2.4375 8.1875 2.4375 8.1875 -1.125 8.25 C-2.259375 8.229375 -3.39375 8.20875 -4.5625 8.1875 C-4.6875 5.3125 -4.6875 5.3125 -4.5625 2.1875 C-2.5625 0.1875 -2.5625 0.1875 0 0 Z " fill="#8A76A6" transform="translate(16.5625,253.8125)"/>
<path d="M0 0 C2.6875 0.875 2.6875 0.875 5 2 C4.67 4.31 4.34 6.62 4 9 C1.69 8.67 -0.62 8.34 -3 8 C-3.1875 5.125 -3.1875 5.125 -3 2 C-2.01 1.34 -1.02 0.68 0 0 Z " fill="#8A76A6" transform="translate(53,107)"/>
<path d="M0 0 C2.31 0 4.62 0 7 0 C7 2.64 7 5.28 7 8 C3.98968256 8.93423645 3.13349732 9.04449911 0 8 C0 5.36 0 2.72 0 0 Z " fill="#8A76A6" transform="translate(408,83)"/>
<path d="M0 0 C0.7425 0.2475 1.485 0.495 2.25 0.75 C2.29254356 2.74954746 2.29080783 4.75041636 2.25 6.75 C1.25 7.75 1.25 7.75 -2.3125 7.8125 C-3.446875 7.791875 -4.58125 7.77125 -5.75 7.75 C-6.5 6 -6.5 6 -6.75 3.75 C-4.62771652 0.72982736 -3.76812267 -0.34255661 0 0 Z " fill="#8A76A6" transform="translate(227.75,12.25)"/>
<path d="M0 0 C2.625 -0.1875 2.625 -0.1875 5 0 C6.42944945 2.35438733 7.08661261 3.48032433 6.625 6.25 C6.41875 6.8275 6.2125 7.405 6 8 C4.02 8 2.04 8 0 8 C-1.125 5.6875 -1.125 5.6875 -2 3 C-1.34 2.01 -0.68 1.02 0 0 Z " fill="#8A76A6" transform="translate(255,464)"/>
<path d="M0 0 C2.4375 0.1875 2.4375 0.1875 3.4375 1.1875 C3.47842937 3.52047433 3.47991723 5.85455225 3.4375 8.1875 C1.1275 8.1875 -1.1825 8.1875 -3.5625 8.1875 C-4.1875 5.3125 -4.1875 5.3125 -4.5625 2.1875 C-2.5625 0.1875 -2.5625 0.1875 0 0 Z " fill="#8A76A6" transform="translate(213.5625,12.8125)"/>
<path d="M0 0 C5.875 0.875 5.875 0.875 7 2 C7.125 4.5 7.125 4.5 7 7 C6 8 6 8 2.9375 8.0625 C1.968125 8.041875 0.99875 8.02125 0 8 C-1.125 5.6875 -1.125 5.6875 -2 3 C-1.34 2.01 -0.68 1.02 0 0 Z " fill="#8A76A6" transform="translate(250,12)"/>
<path d="M0 0 C2.5625 0.1875 2.5625 0.1875 4.5625 2.1875 C4.875 4.6875 4.875 4.6875 4.5625 7.1875 C1.5625 9.1875 1.5625 9.1875 -0.625 8.8125 C-1.223125 8.60625 -1.82125 8.4 -2.4375 8.1875 C-2.81813221 5.8614143 -3.15019945 3.52694736 -3.4375 1.1875 C-2.4375 0.1875 -2.4375 0.1875 0 0 Z " fill="#8A76A6" transform="translate(393.4375,64.8125)"/>
<path d="M0 0 C2.33944736 0.28730055 4.6739143 0.61936779 7 1 C6.67 3.31 6.34 5.62 6 8 C3.69 7.67 1.38 7.34 -1 7 C-1.04254356 5.00045254 -1.04080783 2.99958364 -1 1 C-0.67 0.67 -0.34 0.34 0 0 Z " fill="#8A76A6" transform="translate(381,57)"/>
<path d="M0 0 C2.33294775 -0.04241723 4.66702567 -0.04092937 7 0 C8 1 8 1 8.0625 4.0625 C8.041875 5.031875 8.02125 6.00125 8 7 C5.69 7 3.38 7 1 7 C-0.0625 4.625 -0.0625 4.625 -1 2 C-0.67 1.34 -0.34 0.68 0 0 Z " fill="#8A76A6" transform="translate(241,465)"/>
<path d="M0 0 C1.134375 0.020625 2.26875 0.04125 3.4375 0.0625 C4.0625 2.4375 4.0625 2.4375 4.4375 5.0625 C2.4375 7.0625 2.4375 7.0625 -0.6875 7.1875 C-2.110625 7.125625 -2.110625 7.125625 -3.5625 7.0625 C-3.94383299 5.0710944 -4.27575582 3.06970923 -4.5625 1.0625 C-3.5625 0.0625 -3.5625 0.0625 0 0 Z " fill="#8A76A6" transform="translate(397.5625,409.9375)"/>
<path d="M0 0 C3.625 -0.1875 3.625 -0.1875 7 0 C7.625 1.8125 7.625 1.8125 8 4 C7.01 5.485 7.01 5.485 6 7 C2.375 7.1875 2.375 7.1875 -1 7 C-1.625 5.1875 -1.625 5.1875 -2 3 C-1.34 2.01 -0.68 1.02 0 0 Z " fill="#8A76A6" transform="translate(13,242)"/>
<path d="M0 0 C0 2.31 0 4.62 0 7 C-1.65 7.33 -3.3 7.66 -5 8 C-7 2.25 -7 2.25 -7 0 C-4.3333581 -1.33332095 -2.83319697 -0.67102033 0 0 Z " fill="#8A76A6" transform="translate(84,404)"/>
<path d="M0 0 C1.134375 0.020625 2.26875 0.04125 3.4375 0.0625 C3.81968767 1.71864657 4.15145102 3.38707024 4.4375 5.0625 C3.4375 6.0625 3.4375 6.0625 -0.125 6.125 C-1.259375 6.104375 -2.39375 6.08375 -3.5625 6.0625 C-3.94468767 4.40635343 -4.27645102 2.73792976 -4.5625 1.0625 C-3.5625 0.0625 -3.5625 0.0625 0 0 Z " fill="#8A76A6" transform="translate(406.5625,400.9375)"/>
</svg>
