<?xml version="1.0" encoding="UTF-8"?>
<svg version="1.1" xmlns="http://www.w3.org/2000/svg" width="484" height="485">
<path d="M0 0 C10.38679457 8.32694302 18.35553292 17.92191483 24.85400391 29.48632812 C25.46630859 30.54851562 26.07861328 31.61070312 26.70947266 32.70507812 C30.09947662 38.99117819 32.36693857 45.00879532 34.32226562 51.85473633 C37.30687665 62.26289838 39.9469775 67.9315599 48.85400391 74.48632812 C57.97474387 84.10103467 61.57647701 95.94383694 64.85400391 108.48632812 C67.49400391 108.48632812 70.13400391 108.48632812 72.85400391 108.48632812 C72.89642114 110.81927588 72.89493328 113.15335379 72.85400391 115.48632812 C71.85400391 116.48632812 71.85400391 116.48632812 69.41650391 116.67382812 C66.85400391 116.48632812 66.85400391 116.48632812 64.85400391 114.48632812 C64.85400391 116.46632813 64.85400391 118.44632813 64.85400391 120.48632812 C66.83400391 120.81632813 68.81400391 121.14632812 70.85400391 121.48632812 C71.78465523 124.09215184 72.00317797 125.12831036 70.91650391 127.73632812 C70.56587891 128.31382812 70.21525391 128.89132812 69.85400391 129.48632812 C67.54400391 129.15632812 65.23400391 128.82632813 62.85400391 128.48632812 C62.85400391 130.13632812 62.85400391 131.78632813 62.85400391 133.48632812 C63.63775391 133.44507813 64.42150391 133.40382813 65.22900391 133.36132812 C67.85400391 133.48632812 67.85400391 133.48632812 69.85400391 135.48632812 C69.47900391 138.61132812 69.47900391 138.61132812 68.85400391 141.48632812 C64.0738107 141.83609836 59.66746746 141.58758454 55.85400391 138.48632812 C54.33644664 135.98575615 53.26679604 133.4572523 52.17431641 130.74414062 C50.69082232 127.0836848 48.99777644 123.57756641 47.22900391 120.04882812 C46.65923828 118.89511719 46.08947266 117.74140625 45.50244141 116.55273438 C44.11593689 113.97357314 42.69246825 111.75376748 40.85400391 109.48632812 C40.81960205 110.06374756 40.7852002 110.64116699 40.74975586 111.23608398 C39.18000068 135.80944536 33.96036294 158.025299 15.51416016 175.73242188 C1.57051026 187.68735023 -14.00457362 190.49170815 -31.75634766 189.68603516 C-37.23421316 189.22824051 -42.11055987 187.60135141 -47.14599609 185.48632812 C-48.00064453 185.15890625 -48.85529297 184.83148438 -49.73583984 184.49414062 C-64.87632909 177.94043754 -74.17722311 164.28126542 -80.14599609 149.48632812 C-81.22540435 146.50284371 -82.20208512 143.51677915 -83.14599609 140.48632812 C-90.37954523 152.9687111 -97.03599458 165.32511777 -101.81396484 178.97070312 C-102.0513739 179.64814072 -102.28878296 180.32557831 -102.53338623 181.02354431 C-103.73160399 184.45743344 -104.91049558 187.89660812 -106.06347656 191.34594727 C-109.4832596 201.43537993 -113.0560694 211.29744187 -122.14599609 217.48632812 C-123.07412109 217.81632813 -124.00224609 218.14632812 -124.95849609 218.48632812 C-125.68037109 218.81632813 -126.40224609 219.14632812 -127.14599609 219.48632812 C-127.76032479 221.80482819 -127.76032479 221.80482819 -128.14599609 224.48632812 C-132.70352482 232.72493775 -139.39414535 237.41352759 -148.14599609 240.48632812 C-158.42706088 243.00413991 -167.93305979 241.258599 -176.95849609 235.86132812 C-181.87379474 232.38147067 -185.46950196 227.40708448 -186.50927734 221.38085938 C-187.41616024 218.68246548 -188.88272362 218.16584192 -191.33349609 216.79882812 C-201.68497503 210.24289146 -205.00410902 198.36897658 -208.47802734 187.20678711 C-213.6416712 170.71269691 -220.9823289 155.14212699 -230.14599609 140.48632812 C-230.31615234 141.02 -230.48630859 141.55367187 -230.66162109 142.10351562 C-231.46497109 144.57338956 -232.30168814 147.03015954 -233.14599609 149.48632812 C-233.41283203 150.29070312 -233.67966797 151.09507812 -233.95458984 151.92382812 C-239.75436374 168.00853441 -251.59941667 178.53204716 -266.64599609 185.73632812 C-282.54912763 192.37415694 -300.54199633 190.63081782 -316.20849609 184.23632812 C-331.62198885 176.52958175 -341.9930141 162.63970868 -348.08740234 146.80273438 C-351.89457707 134.87546004 -353.77731935 122.98446973 -354.14599609 110.48632812 C-358.9832035 117.42602994 -362.62166348 124.3774726 -365.83569336 132.17773438 C-367.96195899 137.30229102 -367.96195899 137.30229102 -370.14599609 139.48632812 C-371.13599609 139.48632812 -372.12599609 139.48632812 -373.14599609 139.48632812 C-372.81599609 141.46632813 -372.48599609 143.44632813 -372.14599609 145.48632812 C-374.50038343 146.91577758 -375.62632042 147.57294074 -378.39599609 147.11132812 C-378.97349609 146.90507812 -379.55099609 146.69882812 -380.14599609 146.48632812 C-380.47599609 144.50632812 -380.80599609 142.52632812 -381.14599609 140.48632812 C-378.14599609 138.48632812 -378.14599609 138.48632812 -375.14599609 138.48632812 C-375.14599609 137.16632813 -375.14599609 135.84632813 -375.14599609 134.48632812 C-376.07412109 134.54820312 -377.00224609 134.61007812 -377.95849609 134.67382812 C-381.14599609 134.48632812 -381.14599609 134.48632812 -383.08349609 133.29882812 C-384.14599609 131.48632812 -384.14599609 131.48632812 -383.83349609 128.79882812 C-383.49318359 127.65414062 -383.49318359 127.65414062 -383.14599609 126.48632812 C-381.16599609 126.48632812 -379.18599609 126.48632812 -377.14599609 126.48632812 C-377.14599609 124.83632813 -377.14599609 123.18632812 -377.14599609 121.48632812 C-379.45599609 121.48632812 -381.76599609 121.48632812 -384.14599609 121.48632812 C-385.27099609 119.17382812 -385.27099609 119.17382812 -386.14599609 116.48632812 C-385.48599609 115.49632812 -384.82599609 114.50632812 -384.14599609 113.48632812 C-381.02099609 113.29882812 -381.02099609 113.29882812 -378.14599609 113.48632812 C-377.90816406 111.96265625 -377.90816406 111.96265625 -377.66552734 110.40820312 C-374.66882197 92.30430436 -367.99068551 77.8774443 -354.14599609 65.48632812 C-353.15599609 64.82632813 -352.16599609 64.16632813 -351.14599609 63.48632812 C-350.31517321 61.64612291 -350.31517321 61.64612291 -349.82177734 59.47851562 C-349.60207275 58.66439209 -349.38236816 57.85026855 -349.15600586 57.01147461 C-348.92582764 56.13692627 -348.69564941 55.26237793 -348.45849609 54.36132812 C-345.74617343 44.73374991 -342.08077774 36.16888965 -337.14599609 27.48632812 C-336.56849609 26.46925781 -335.99099609 25.4521875 -335.39599609 24.40429688 C-331.3676648 17.7370356 -326.59666272 12.03609778 -321.14599609 6.48632812 C-320.39705078 5.71289062 -319.64810547 4.93945312 -318.87646484 4.14257812 C-300.90228705 -13.26524913 -277.34451495 -17.14092049 -253.24755859 -16.85351562 C-240.35211596 -16.44362355 -229.78447476 -12.52298898 -218.88037109 -5.77148438 C-215.61863374 -4.27108519 -214.49328958 -4.33688901 -211.14599609 -5.51367188 C-209.20493295 -6.44353872 -207.28901684 -7.42703764 -205.39599609 -8.45117188 C-194.04775418 -14.21513884 -182.56315603 -15.34187441 -170.20849609 -11.76367188 C-166.67520506 -10.57597525 -163.60962785 -9.38333221 -160.58349609 -7.20117188 C-158.37953052 -5.27220216 -158.37953052 -5.27220216 -156.29052734 -5.75585938 C-153.85001249 -6.61826353 -151.6767203 -7.72728006 -149.39599609 -8.95117188 C-138.46851445 -14.44667863 -127.14915062 -15.24358015 -115.33349609 -11.82617188 C-110.52992102 -10.19764277 -106.28985351 -8.1452561 -102.04833984 -5.36914062 C-99.59889759 -4.26764606 -98.67121292 -4.71923484 -96.14599609 -5.51367188 C-94.31406452 -6.41317086 -92.48345532 -7.31570933 -90.66601562 -8.24414062 C-60.89362399 -23.26249252 -26.67223935 -20.21327019 0 0 Z M-280.14599609 -8.51367188 C-278.91818442 -4.48121426 -277.36034433 -0.77970835 -275.48046875 2.9909668 C-267.94640897 18.16167628 -259.47696629 36.93177208 -261.68505859 54.17773438 C-263.08514022 62.49992455 -263.08514022 62.49992455 -261.07275391 70.38818359 C-257.3566662 74.89071106 -252.70891267 78.6320226 -247.14599609 80.48632812 C-236.94858175 53.5216238 -235.23600423 23.26752829 -245.76708984 -3.87695312 C-247.79990752 -7.76582181 -247.79990752 -7.76582181 -251.14599609 -10.51367188 C-254.7606176 -11.05526247 -258.31163723 -10.9794254 -261.95849609 -10.88867188 C-262.93109375 -10.88738281 -263.90369141 -10.88609375 -264.90576172 -10.88476562 C-270.35324889 -10.81837783 -274.99760672 -10.30878672 -280.14599609 -8.51367188 Z M-65.14599609 -8.51367188 C-77.38902427 9.26786905 -76.20512196 38.91688356 -72.5715332 59.20996094 C-71.10235206 66.51625019 -68.74853997 73.511922 -66.14599609 80.48632812 C-62.75134254 79.0282219 -60.62347897 77.14866085 -58.08349609 74.48632812 C-55.80945753 72.11190014 -53.90077681 70.3228486 -51.14599609 68.48632812 C-51.14297031 65.49685484 -51.29995502 62.70036136 -51.58349609 59.73632812 C-53.23235701 36.26198643 -44.42366324 15.88214881 -33.95288086 -4.69213867 C-33.01099192 -6.48640117 -33.01099192 -6.48640117 -33.14599609 -8.51367188 C-49.46742105 -12.06651367 -49.46742105 -12.06651367 -65.14599609 -8.51367188 Z M-240.14599609 -7.51367188 C-239.80826172 -6.39992187 -239.47052734 -5.28617188 -239.12255859 -4.13867188 C-236.11739681 6.04767031 -234.11123928 15.9118729 -233.14599609 26.48632812 C-230.50317843 23.84351047 -229.61864023 20.79321884 -228.33349609 17.36132812 C-226.12236873 11.61966231 -223.67050855 6.56577255 -220.14599609 1.48632812 C-226.59802738 -2.75553925 -232.62970299 -5.69057099 -240.14599609 -7.51367188 Z M-83.08349609 -4.20117188 C-83.81246094 -3.89244141 -84.54142578 -3.58371094 -85.29248047 -3.265625 C-85.99566406 -2.95947266 -86.69884766 -2.65332031 -87.42333984 -2.33789062 C-88.0652124 -2.06033936 -88.70708496 -1.78278809 -89.3684082 -1.49682617 C-91.32401988 -0.41520988 -92.64404025 0.8437538 -94.14599609 2.48632812 C-93.30037109 3.31132812 -92.45474609 4.13632813 -91.58349609 4.98632812 C-86.50268309 10.81895594 -84.02039698 18.40237566 -81.14599609 25.48632812 C-80.81599609 25.48632812 -80.48599609 25.48632812 -80.14599609 25.48632812 C-80.04802734 24.5659375 -79.95005859 23.64554688 -79.84912109 22.69726562 C-78.77258106 13.58379739 -76.85580539 5.27267947 -74.14599609 -3.51367188 C-73.80093097 -4.8440173 -73.46168748 -6.17605166 -73.14599609 -7.51367188 C-76.69579426 -7.51367188 -79.87107194 -5.60537135 -83.08349609 -4.20117188 Z M-288.14599609 -6.51367188 C-290.41839773 -5.59626139 -292.53350675 -4.6265101 -294.70849609 -3.51367188 C-295.33675293 -3.19624023 -295.96500977 -2.87880859 -296.61230469 -2.55175781 C-301.95547383 0.22871729 -306.54925214 3.60121399 -311.14599609 7.48632812 C-311.88591797 8.00710937 -312.62583984 8.52789062 -313.38818359 9.06445312 C-314.25830078 9.76828125 -314.25830078 9.76828125 -315.14599609 10.48632812 C-315.14599609 11.14632812 -315.14599609 11.80632812 -315.14599609 12.48632812 C-314.57751953 12.77765625 -314.00904297 13.06898438 -313.42333984 13.36914062 C-299.42681109 20.7996851 -291.76728402 31.70376399 -286.14599609 46.48632812 C-285.79286019 48.44118761 -285.45816472 50.39950976 -285.14599609 52.36132812 C-284.21116227 56.40241356 -283.38916757 57.31925708 -279.88818359 59.72460938 C-274.25038288 62.97591648 -274.25038288 62.97591648 -268.14599609 64.48632812 C-263.4149263 43.69251332 -272.67683618 22.46567138 -281.39599609 3.98632812 C-281.83242432 3.05941162 -282.26885254 2.13249512 -282.71850586 1.17749023 C-283.13285889 0.32034424 -283.54721191 -0.53680176 -283.97412109 -1.41992188 C-284.3444043 -2.18626953 -284.7146875 -2.95261719 -285.09619141 -3.7421875 C-286.02902775 -5.68079807 -286.02902775 -5.68079807 -288.14599609 -6.51367188 Z M-27.14599609 -5.51367188 C-44.5370321 27.38548727 -44.5370321 27.38548727 -45.14599609 63.48632812 C-44.42412109 63.17953125 -43.70224609 62.87273437 -42.95849609 62.55664062 C-40.14599609 61.48632812 -40.14599609 61.48632812 -37.64599609 60.97851562 C-34.58194729 60.22207858 -32.65285349 59.4361061 -30.14599609 57.48632812 C-28.41386148 53.63266429 -27.39457062 49.81387151 -26.34130859 45.73632812 C-22.88541374 32.5766599 -14.48002127 21.81420257 -3.12646484 14.58007812 C-1.14599609 13.48632812 -1.14599609 13.48632812 1.85400391 12.48632812 C-1.58195631 4.37462824 -10.78234268 0.38995112 -18.25146484 -3.34960938 C-21.23400489 -4.54906543 -23.9653857 -5.10843855 -27.14599609 -5.51367188 Z M-157.14599609 3.48632812 C-157.32249829 15.98620266 -157.48831172 28.48620226 -157.64599609 40.98632812 C-157.65787334 41.92741299 -157.6697506 42.86849785 -157.68198776 43.83810043 C-158.05740036 73.82564886 -158.23775451 103.80895354 -158.20849609 133.79882812 C-158.20764008 134.68269196 -158.20678406 135.56655579 -158.2059021 136.47720337 C-158.19477697 147.14693422 -158.17512138 157.81663127 -158.14599609 168.48632812 C-157.15599609 168.48632812 -156.16599609 168.48632812 -155.14599609 168.48632812 C-155.11417322 157.67384003 -155.09461263 146.86135606 -155.08349609 136.04882812 C-155.08264008 135.22234268 -155.08178406 134.39585724 -155.0809021 133.54432678 C-155.05348983 103.43889304 -155.28557654 73.33947833 -155.64599609 43.23632812 C-155.65795391 42.23713978 -155.66991173 41.23795143 -155.6822319 40.20848465 C-155.82939846 27.96766883 -155.9839307 15.7269555 -156.14599609 3.48632812 C-156.47599609 3.48632812 -156.80599609 3.48632812 -157.14599609 3.48632812 Z M-321.14599609 17.48632812 C-326.42192146 23.14829681 -334.14599609 31.4474668 -334.14599609 39.48632812 C-333.23720703 39.79763672 -333.23720703 39.79763672 -332.31005859 40.11523438 C-325.26197132 42.70676185 -317.78629467 46.21008184 -312.81835938 52.04589844 C-310.61884638 53.94036949 -309.13290656 53.99038972 -306.25927734 54.21679688 C-305.32148438 54.29736328 -304.38369141 54.37792969 -303.41748047 54.4609375 C-302.44101562 54.53119141 -301.46455078 54.60144531 -300.45849609 54.67382812 C-299.47042969 54.75568359 -298.48236328 54.83753906 -297.46435547 54.921875 C-295.02561073 55.12215838 -292.58655693 55.30980658 -290.14599609 55.48632812 C-293.32158464 41.46464729 -300.1460288 28.54433375 -312.39599609 20.42382812 C-315.2530069 18.80104599 -317.83359575 17.79686566 -321.14599609 17.48632812 Z M-7.51708984 25.54882812 C-15.00068134 33.22696706 -21.25334311 43.84701252 -23.14599609 54.48632812 C-19.62157126 54.32311439 -16.10371503 54.09764428 -12.58349609 53.86132812 C-11.59285156 53.81621094 -10.60220703 53.77109375 -9.58154297 53.72460938 C-3.46243827 53.27736584 -0.06074329 52.34186604 4.30493164 47.98339844 C6.60503403 45.76050989 9.23398854 44.53892518 12.10400391 43.17382812 C13.11978516 42.68269531 14.13556641 42.1915625 15.18212891 41.68554688 C17.85400391 40.48632812 17.85400391 40.48632812 20.85400391 39.48632812 C20.2640727 35.20736048 18.74303039 32.18225267 16.54150391 28.48632812 C15.94724609 27.47570312 15.35298828 26.46507812 14.74072266 25.42382812 C12.90925726 22.57235405 11.19080978 19.94517222 8.85400391 17.48632812 C2.17565006 17.48632812 -2.57980228 21.25411999 -7.51708984 25.54882812 Z M-338.14599609 44.48632812 C-338.81631329 46.44341493 -339.48214293 48.40203926 -340.14599609 50.36132812 C-340.51724609 51.451875 -340.88849609 52.54242188 -341.27099609 53.66601562 C-342.24476809 56.31253667 -342.24476809 56.31253667 -342.14599609 58.48632812 C-340.88787109 58.19757813 -339.62974609 57.90882813 -338.33349609 57.61132812 C-333.69445765 56.56404123 -329.03187847 55.77968761 -324.33349609 55.04882812 C-323.61162109 54.86320312 -322.88974609 54.67757812 -322.14599609 54.48632812 C-321.81599609 53.82632813 -321.48599609 53.16632813 -321.14599609 52.48632812 C-323.79063994 51.15058918 -326.43662282 49.81763567 -329.08349609 48.48632812 C-329.83824219 48.10476562 -330.59298828 47.72320312 -331.37060547 47.33007812 C-332.08925781 46.96914062 -332.80791016 46.60820312 -333.54833984 46.23632812 C-334.21341553 45.90117187 -334.87849121 45.56601563 -335.5637207 45.22070312 C-337.00644155 44.41616278 -337.00644155 44.41616278 -338.14599609 44.48632812 Z M20.25634766 46.23632812 C19.53769531 46.59726563 18.81904297 46.95820313 18.07861328 47.33007812 C17.32386719 47.71164063 16.56912109 48.09320313 15.79150391 48.48632812 C15.03289062 48.86789063 14.27427734 49.24945313 13.49267578 49.64257812 C11.61222332 50.58871773 9.73299915 51.53729783 7.85400391 52.48632812 C8.18400391 53.14632812 8.51400391 53.80632812 8.85400391 54.48632812 C11.27403654 55.26841184 13.64067374 55.93879438 16.10400391 56.54882812 C16.77302734 56.72220703 17.44205078 56.89558594 18.13134766 57.07421875 C21.68703831 57.98584474 25.24656023 58.80818464 28.85400391 59.48632812 C27.78581921 54.37267798 26.62292915 49.41404843 24.85400391 44.48632812 C23.14057451 44.48632812 21.76652812 45.4752923 20.25634766 46.23632812 Z M-313.14599609 59.48632812 C-312.86884766 60.28296875 -312.59169922 61.07960938 -312.30615234 61.90039062 C-311.94392578 62.96 -311.58169922 64.01960938 -311.20849609 65.11132812 C-310.84884766 66.15546875 -310.48919922 67.19960937 -310.11865234 68.27539062 C-308.27150746 74.37319423 -308.01452864 80.05172172 -308.08349609 86.36132812 C-308.10412109 89.04257813 -308.12474609 91.72382813 -308.14599609 94.48632812 C-303.19599609 96.79632813 -298.24599609 99.10632813 -293.14599609 101.48632812 C-287.69791885 94.22222513 -286.8724024 87.18213246 -286.83349609 78.29882812 C-286.82809814 77.53876465 -286.8227002 76.77870117 -286.81713867 75.99560547 C-286.87783148 71.15390242 -287.46844496 67.0438709 -289.14599609 62.48632812 C-295.91707302 58.23022263 -305.45062331 59.3726034 -313.14599609 59.48632812 Z M-16.08349609 60.98632812 C-16.86273438 61.12941406 -17.64197266 61.2725 -18.44482422 61.41992188 C-20.3462382 61.76987537 -22.24627002 62.12732477 -24.14599609 62.48632812 C-26.30465005 67.77934763 -26.53154814 72.54483703 -26.52099609 78.17382812 C-26.51938477 79.05852783 -26.51777344 79.94322754 -26.51611328 80.85473633 C-26.39509264 87.32518802 -25.98616621 94.02238238 -22.14599609 99.48632812 C-19.75080226 100.60243906 -18.66986246 100.6748367 -16.18115234 99.77929688 C-15.53017578 99.41449219 -14.87919922 99.0496875 -14.20849609 98.67382812 C-11.24963357 97.04439489 -8.30136178 95.69908607 -5.14599609 94.48632812 C-5.19820313 92.74609375 -5.19820313 92.74609375 -5.25146484 90.97070312 C-5.48649284 79.6736099 -4.50473554 70.042058 -0.14599609 59.48632812 C-5.65032571 59.31089132 -10.68261956 59.95891202 -16.08349609 60.98632812 Z M6.85400391 60.48632812 C6.22091199 61.66953389 5.59803673 62.8582066 4.97900391 64.04882812 C4.63095703 64.71011719 4.28291016 65.37140625 3.92431641 66.05273438 C1.38237938 71.83239411 0.59750593 77.00746713 0.66650391 83.29882812 C0.67294922 84.60464844 0.67939453 85.91046875 0.68603516 87.25585938 C0.63224503 90.376283 0.63224503 90.376283 1.85400391 92.48632812 C6.80400391 91.82632813 11.75400391 91.16632813 16.85400391 90.48632812 C17.24587891 88.34132813 17.63775391 86.19632813 18.04150391 83.98632812 C19.3021501 78.06129103 20.82482834 73.10059849 24.85400391 68.48632812 C25.51400391 68.15632813 26.17400391 67.82632813 26.85400391 67.48632812 C26.85400391 66.82632813 26.85400391 66.16632813 26.85400391 65.48632812 C20.12212614 62.78099407 14.10799049 60.96199938 6.85400391 60.48632812 Z M-323.81787109 60.74414062 C-325.34154297 61.17339844 -325.34154297 61.17339844 -326.89599609 61.61132812 C-327.95818359 61.90910156 -329.02037109 62.206875 -330.11474609 62.51367188 C-333.59779859 63.63130083 -336.84681028 64.91171671 -340.14599609 66.48632812 C-339.74767578 66.95941406 -339.34935547 67.4325 -338.93896484 67.91992188 C-333.1452044 75.15154987 -331.45246959 81.34101368 -330.14599609 90.48632812 C-322.72099609 91.47632813 -322.72099609 91.47632813 -315.14599609 92.48632812 C-311.89063609 85.97560811 -313.82672718 75.39200359 -315.95849609 68.73632812 C-318.03707677 62.28611981 -318.03707677 62.28611981 -323.81787109 60.74414062 Z M-281.14599609 65.48632812 C-281.11119141 66.77925781 -281.07638672 68.0721875 -281.04052734 69.40429688 C-280.80821401 81.77289717 -280.86812004 93.42530841 -287.14599609 104.48632812 C-287.3680999 106.63153478 -287.3680999 106.63153478 -285.57177734 108.24804688 C-284.87439453 108.88355469 -284.17701172 109.5190625 -283.45849609 110.17382812 C-282.77400391 110.81707031 -282.08951172 111.4603125 -281.38427734 112.12304688 C-279.22305147 113.7280607 -279.22305147 113.7280607 -276.62646484 113.35351562 C-270.19998329 111.10677719 -265.4893618 106.55279309 -262.17724609 100.68945312 C-259.18079367 94.28794113 -256.98990733 87.53846958 -258.14599609 80.48632812 C-262.52711103 73.29558513 -271.83507136 69.13704929 -279.14599609 65.48632812 C-279.80599609 65.48632812 -280.46599609 65.48632812 -281.14599609 65.48632812 Z M-53.51318359 77.58789062 C-55.37926388 79.75754378 -55.80497468 80.83879936 -55.95849609 83.67382812 C-54.76667054 94.27385239 -50.69286363 104.18583077 -42.27880859 110.99804688 C-40.2954402 112.36299115 -40.2954402 112.36299115 -37.14599609 113.48632812 C-34.06622251 112.35809424 -31.83403304 110.51805311 -29.39599609 108.36132812 C-28.78240234 107.8225 -28.16880859 107.28367187 -27.53662109 106.72851562 C-27.07771484 106.31859375 -26.61880859 105.90867187 -26.14599609 105.48632812 C-26.49533203 104.53371094 -26.84466797 103.58109375 -27.20458984 102.59960938 C-27.66441276 101.33275033 -28.12403771 100.06581942 -28.58349609 98.79882812 C-28.81359375 98.17298828 -29.04369141 97.54714844 -29.28076172 96.90234375 C-31.14845176 91.73236116 -32.27913025 87.12212205 -32.24365234 81.62304688 C-32.24042969 80.73681641 -32.23720703 79.85058594 -32.23388672 78.9375 C-32.22550781 78.02548828 -32.21712891 77.11347656 -32.20849609 76.17382812 C-32.20398438 75.24248047 -32.19947266 74.31113281 -32.19482422 73.3515625 C-32.18308843 71.0630844 -32.16666972 68.77474005 -32.14599609 66.48632812 C-39.47729984 66.48632812 -47.97458391 73.04187153 -53.51318359 77.58789062 Z M-356.14599609 78.48632812 C-357.91050025 80.43234826 -359.52815969 82.41347523 -361.14599609 84.48632812 C-359.65673072 87.46485888 -357.27202314 87.51446011 -354.29052734 88.55664062 C-351.00475102 89.98107554 -348.76366438 92.06498496 -346.14599609 94.48632812 C-342.84599609 93.16632813 -339.54599609 91.84632813 -336.14599609 90.48632812 C-337.22871914 83.89976293 -338.35351665 79.00266186 -342.14599609 73.48632812 C-348.47431244 69.26745056 -351.53509195 73.99204218 -356.14599609 78.48632812 Z M33.85400391 70.48632812 C28.4103801 73.45557748 25.82489908 76.5736426 23.85400391 82.48632812 C23.29481366 85.51723326 23.04691428 88.39976207 22.85400391 91.48632812 C26.48400391 92.47632813 30.11400391 93.46632813 33.85400391 94.48632812 C34.49337891 93.74382812 35.13275391 93.00132812 35.79150391 92.23632812 C39.19559164 88.78304837 43.40050535 87.22309554 47.85400391 85.48632812 C44.23303679 79.00670277 40.16917542 74.30480393 33.85400391 70.48632812 Z M-62.14599609 87.48632812 C-67.6731973 93.29485394 -68.99074711 99.46332719 -70.09375 107.09423828 C-70.89089314 112.49975318 -72.29261977 117.25226755 -74.47412109 122.28710938 C-75.2729754 124.90196389 -75.3906338 126.03854063 -74.14599609 128.48632812 C-64.7994215 133.56248501 -52.46865216 134.64688405 -42.14599609 132.48632812 C-41.15599609 128.19632813 -40.16599609 123.90632813 -39.14599609 119.48632812 C-40.83724609 118.51695312 -42.52849609 117.54757812 -44.27099609 116.54882812 C-53.45587661 110.66531673 -57.11646077 102.74013998 -60.14599609 92.48632812 C-60.50181351 90.82431644 -60.842214 89.15863352 -61.14599609 87.48632812 C-61.47599609 87.48632812 -61.80599609 87.48632812 -62.14599609 87.48632812 Z M-252.14599609 88.48632812 C-252.37673828 89.33195312 -252.60748047 90.17757812 -252.84521484 91.04882812 C-256.70164934 104.46251333 -261.98854427 112.39699518 -274.14599609 119.48632812 C-273.67033203 120.329375 -273.67033203 120.329375 -273.18505859 121.18945312 C-272.07725085 123.6382913 -271.7562421 125.57020668 -271.52099609 128.23632812 C-271.44623047 129.03554688 -271.37146484 129.83476562 -271.29443359 130.65820312 C-271.24544922 131.26148438 -271.19646484 131.86476563 -271.14599609 132.48632812 C-258.89317381 134.17567073 -248.37895247 132.54826796 -237.14599609 127.48632812 C-237.55591797 126.40996094 -237.96583984 125.33359375 -238.38818359 124.22460938 C-240.94991062 117.33204184 -243.32577911 110.84210386 -244.14599609 103.48632812 C-244.87495059 97.38612995 -247.07446231 93.08015778 -251.14599609 88.48632812 C-251.47599609 88.48632812 -251.80599609 88.48632812 -252.14599609 88.48632812 Z M-366.14599609 92.48632812 C-366.65357472 93.90029714 -367.15174534 95.31764541 -367.64599609 96.73632812 C-367.92443359 97.52523437 -368.20287109 98.31414062 -368.48974609 99.12695312 C-369.32464471 101.72045551 -369.32464471 101.72045551 -369.14599609 105.48632812 C-366.3128799 107.11140009 -366.3128799 107.11140009 -363.14599609 108.48632812 C-359.78557297 107.36618708 -358.72852798 106.27142045 -356.39599609 103.67382812 C-355.76177734 102.98675781 -355.12755859 102.2996875 -354.47412109 101.59179688 C-352.92946255 99.59653166 -352.92946255 99.59653166 -353.27490234 97.33398438 C-354.73059336 94.24635277 -357.05151993 93.65405498 -360.14599609 92.48632812 C-363.39699973 92.2343599 -363.39699973 92.2343599 -366.14599609 92.48632812 Z M39.85400391 96.48632812 C39.85400391 97.47632813 39.85400391 98.46632813 39.85400391 99.48632812 C40.84400391 99.81632812 41.83400391 100.14632812 42.85400391 100.48632812 C43.85400391 102.29882812 43.85400391 102.29882812 44.85400391 104.48632812 C45.8298215 105.83746017 46.82430132 107.17579756 47.85400391 108.48632812 C51.93364671 107.18477806 51.93364671 107.18477806 55.85400391 105.48632812 C55.56918023 104.06826982 55.27582247 102.65192434 54.97900391 101.23632812 C54.73537109 100.05296875 54.73537109 100.05296875 54.48681641 98.84570312 C53.86250316 96.51801669 53.00561848 94.59600861 51.85400391 92.48632812 C46.77788073 91.87104047 44.02418385 93.86974463 39.85400391 96.48632812 Z M-346.14599609 101.48632812 C-346.14599609 103.79632813 -346.14599609 106.10632813 -346.14599609 108.48632812 C-345.16501953 108.33035156 -344.18404297 108.174375 -343.17333984 108.01367188 C-329.8117793 106.03071948 -317.41282632 106.64540606 -304.14599609 109.48632812 C-303.81599609 107.50632812 -303.48599609 105.52632812 -303.14599609 103.48632812 C-305.39516228 102.67145642 -307.64526587 101.85935895 -309.89599609 101.04882812 C-310.53021484 100.81873047 -311.16443359 100.58863281 -311.81787109 100.3515625 C-322.93283605 96.35712197 -335.70311866 94.98853772 -346.14599609 101.48632812 Z M-10.14599609 103.48632812 C-9.81599609 105.46632813 -9.48599609 107.44632813 -9.14599609 109.48632812 C-8.588396 109.3902124 -8.0307959 109.29409668 -7.45629883 109.19506836 C6.51615882 106.84264329 18.79561226 106.02663969 32.85400391 108.48632812 C32.85400391 106.50632812 32.85400391 104.52632813 32.85400391 102.48632812 C31.43922255 101.83637515 30.02208903 101.1915409 28.60400391 100.54882812 C27.81509766 100.18917969 27.02619141 99.82953125 26.21337891 99.45898438 C14.40166517 94.58958583 0.78582838 97.6665079 -10.14599609 103.48632812 Z M-297.14599609 107.48632812 C-297.8492614 109.68969153 -298.53298011 111.89929953 -299.20849609 114.11132812 C-299.59134766 115.34109375 -299.97419922 116.57085937 -300.36865234 117.83789062 C-301.16089412 121.55625154 -301.13845055 123.84555937 -300.14599609 127.48632812 C-295.7441979 133.14578295 -290.16994754 133.76862078 -283.45068359 134.72851562 C-280.99821247 134.71586161 -280.99821247 134.71586161 -279.35693359 132.68945312 C-277.96818549 130.16282753 -277.69325491 128.3860526 -278.25537109 125.54492188 C-281.75296065 117.4605811 -289.76266103 111.78018256 -297.14599609 107.48632812 Z M-31.14599609 119.48632812 C-33.42178952 122.17912853 -34.66674306 124.24335031 -36.14599609 127.48632812 C-35.64692637 130.79114347 -34.7871458 132.41113907 -32.14599609 134.48632812 C-27.77533447 136.92875668 -23.03757078 137.25435107 -18.14599609 136.48632812 C-15.64438792 134.61012199 -14.52653958 133.24741509 -13.14599609 130.48632812 C-12.43088585 122.68887607 -13.74293044 115.88147658 -16.14599609 108.48632812 C-21.18000405 108.48632812 -27.58275108 116.02853923 -31.14599609 119.48632812 Z M-371.14599609 112.48632812 C-371.14599609 115.78632813 -371.14599609 119.08632813 -371.14599609 122.48632812 C-370.48599609 122.48632812 -369.82599609 122.48632812 -369.14599609 122.48632812 C-367.42922056 119.72027174 -367.42922056 119.72027174 -366.14599609 116.48632812 C-366.82023776 114.13172135 -366.82023776 114.13172135 -368.14599609 112.48632812 C-369.13599609 112.48632812 -370.12599609 112.48632812 -371.14599609 112.48632812 Z M-346.14599609 115.48632812 C-346.84202297 124.78602056 -344.8058174 132.68754424 -342.14599609 141.48632812 C-341.46794922 141.02742188 -340.78990234 140.56851563 -340.09130859 140.09570312 C-329.1212253 132.86334904 -320.22794402 130.02538082 -307.14599609 128.48632812 C-306.65099609 122.05132812 -306.65099609 122.05132812 -306.14599609 115.48632812 C-320.19444391 112.22195851 -332.09681994 111.23360453 -346.14599609 115.48632812 Z M-7.14599609 115.48632812 C-7.17308176 117.09040141 -7.19243093 118.69460662 -7.20849609 120.29882812 C-7.22009766 121.19214844 -7.23169922 122.08546875 -7.24365234 123.00585938 C-7.25609576 125.62046603 -7.25609576 125.62046603 -6.14599609 128.48632812 C-4.92976563 128.63328125 -4.92976563 128.63328125 -3.68896484 128.78320312 C6.92132447 130.2160245 15.97023074 132.32199473 24.29541016 139.31445312 C25.79542976 140.68664849 25.79542976 140.68664849 27.85400391 140.48632812 C28.34900391 141.47632813 28.34900391 141.47632813 28.85400391 142.48632812 C32.41179478 133.75356871 33.00068482 124.79252569 33.85400391 115.48632812 C19.33981426 111.49551984 7.30743147 112.12785533 -7.14599609 115.48632812 Z M52.85400391 113.48632812 C53.43610847 117.67748098 54.13556953 118.86174895 56.85400391 122.48632812 C56.85400391 119.18632812 56.85400391 115.88632812 56.85400391 112.48632812 C54.77946831 112.33725693 54.77946831 112.33725693 52.85400391 113.48632812 Z M-7.14599609 134.48632812 C-9.76754951 137.71373879 -9.76754951 137.71373879 -11.14599609 141.48632812 C-10.24373205 144.27987643 -8.99639659 146.5487273 -7.47802734 149.05664062 C-5.22763929 153.16145402 -5.02133599 157.16945059 -5.04833984 161.78710938 C-5.0515625 162.76357422 -5.05478516 163.74003906 -5.05810547 164.74609375 C-5.06648438 165.75349609 -5.07486328 166.76089844 -5.08349609 167.79882812 C-5.08800781 168.82556641 -5.09251953 169.85230469 -5.09716797 170.91015625 C-5.10891425 173.43560695 -5.12534045 175.96093717 -5.14599609 178.48632812 C9.06147799 172.38678428 17.9966673 163.58939376 25.85400391 150.48632812 C21.28291458 142.27504001 14.72530656 138.93573517 5.90869141 136.23242188 C1.57748225 135.17454342 -2.69763903 134.68315808 -7.14599609 134.48632812 Z M-335.61474609 144.82617188 C-337.657269 147.04064186 -337.99306166 148.4906125 -338.14599609 151.48632812 C-333.6069222 163.22871493 -323.1037568 172.84351277 -312.14599609 178.48632812 C-310.81882757 178.8434172 -309.48605376 179.18114892 -308.14599609 179.48632812 C-308.16170654 178.84195801 -308.17741699 178.19758789 -308.19360352 177.53369141 C-308.25670511 174.55966284 -308.29522195 171.58577583 -308.33349609 168.61132812 C-308.35863281 167.598125 -308.38376953 166.58492187 -308.40966797 165.54101562 C-308.48534979 157.67010628 -307.67337744 150.40812676 -303.33349609 143.67382812 C-301.81262483 141.47720566 -301.81262483 141.47720566 -302.89599609 138.79882812 C-303.30849609 138.03570312 -303.72099609 137.27257812 -304.14599609 136.48632812 C-304.64099609 135.49632812 -304.64099609 135.49632812 -305.14599609 134.48632812 C-316.6929391 134.24064849 -326.33516146 138.21630901 -335.61474609 144.82617188 Z M-240.46240234 135.36132812 C-249.74660676 138.57895854 -258.03554776 138.80731722 -267.79272461 138.42578125 C-273.49893222 138.25172965 -277.31869544 138.3039467 -282.14599609 141.48632812 C-280.16466244 150.0721073 -273.33852881 157.61204975 -266.14599609 162.48632812 C-261.68431651 164.88640404 -257.20782138 166.83318938 -252.14599609 167.48632812 C-243.00832279 157.91352753 -239.3107204 147.32276349 -237.14599609 134.48632812 C-238.4027753 134.42743314 -238.4027753 134.42743314 -240.46240234 135.36132812 Z M-75.14599609 135.48632812 C-72.88252648 146.43814693 -70.34196363 158.1370583 -62.25146484 166.42773438 C-60.16248508 167.72644121 -60.16248508 167.72644121 -57.66552734 167.15039062 C-47.06523019 163.0815897 -39.29433075 157.12803474 -33.14599609 147.48632812 C-31.69645416 144.16105924 -31.69645416 144.16105924 -31.14599609 141.48632812 C-34.86053967 138.91724966 -37.21559383 138.13413993 -41.71630859 138.29882812 C-42.77849609 138.32203125 -43.84068359 138.34523438 -44.93505859 138.36914062 C-47.13560847 138.44644331 -49.33613024 138.52455064 -51.53662109 138.60351562 C-58.10941985 138.74605825 -63.62309015 138.15137378 -69.89941406 136.14257812 C-72.23586065 135.34613186 -72.23586065 135.34613186 -75.14599609 135.48632812 Z M-297.65380859 144.88085938 C-304.40126014 154.80001718 -303.7207625 167.0946711 -302.14599609 178.48632812 C-301.6683984 180.9165908 -301.6683984 180.9165908 -300.14599609 182.48632812 C-287.10018266 185.85833922 -273.94332769 181.89366144 -262.37646484 175.88867188 C-260.02687236 174.68072103 -260.02687236 174.68072103 -259.14599609 172.48632812 C-259.90783203 172.14601563 -260.66966797 171.80570313 -261.45458984 171.45507812 C-274.89810807 165.14451277 -282.69197787 156.83086822 -289.14599609 143.48632812 C-293.75345784 142.71497993 -293.75345784 142.71497993 -297.65380859 144.88085938 Z M-26.48193359 146.48632812 C-27.18238829 147.80886965 -27.86109206 149.14309339 -28.52099609 150.48632812 C-33.79254081 160.14648759 -39.87535545 165.89044999 -49.98193359 170.47851562 C-52.35969637 171.51932073 -52.35969637 171.51932073 -55.14599609 173.48632812 C-45.75717387 181.77058303 -35.97174485 184.09048482 -23.59521484 183.75976562 C-19.53489552 183.43788301 -16.01040906 182.74817726 -12.14599609 181.48632812 C-9.55430349 168.39935142 -9.36111741 157.05608549 -15.39599609 144.98632812 C-17.19408693 143.18034991 -17.19408693 143.18034991 -20.48193359 142.95507812 C-24.39403288 143.09038194 -24.39403288 143.09038194 -26.48193359 146.48632812 Z M-179.14599609 221.48632812 C-175.71582717 227.20327633 -172.36645598 230.87609818 -166.39599609 233.86132812 C-157.7052715 235.53262132 -149.88989013 235.01453735 -142.14599609 230.48632812 C-139.52521198 228.37748929 -137.15771399 226.19082304 -135.14599609 223.48632812 C-135.14599609 222.82632813 -135.14599609 222.16632813 -135.14599609 221.48632812 C-149.66599609 221.48632812 -164.18599609 221.48632812 -179.14599609 221.48632812 Z " fill="#6D5490" transform="translate(398.14599609375,153.513671875)"/>
<path d="M0 0 C17.05111618 13.25744679 21.5199755 38.29289239 26.3828125 58.20703125 C26.69907593 59.48441162 26.69907593 59.48441162 27.02172852 60.78759766 C34.85327402 93.7899038 27.24055961 120.70339193 10.0703125 148.83203125 C1.80790659 162.37283134 -3.97458315 175.18365756 -8.2578125 190.41015625 C-10.67330581 198.93493847 -13.32739911 207.55238083 -21.27050781 212.44091797 C-27.43789436 215.38489698 -32.66900967 215.76223051 -39.4296875 215.51953125 C-42.7090625 215.43703125 -45.9884375 215.35453125 -49.3671875 215.26953125 C-49.3671875 208.66953125 -49.3671875 202.06953125 -49.3671875 195.26953125 C-47.7996875 194.56828125 -46.2321875 193.86703125 -44.6171875 193.14453125 C-42.53177231 192.1907367 -40.44856487 191.23210529 -38.3671875 190.26953125 C-37.30242187 189.77710938 -36.23765625 189.2846875 -35.140625 188.77734375 C-27.31232525 185.21340091 -27.31232525 185.21340091 -21.3671875 179.26953125 C-21.41698334 176.50936625 -21.41698334 176.50936625 -22.3671875 174.26953125 C-28.71399474 171.85457829 -34.67705204 170.65304542 -41.4296875 170.08203125 C-42.7280957 169.95924805 -42.7280957 169.95924805 -44.05273438 169.83398438 C-46.15668524 169.63637573 -48.26183332 169.4515812 -50.3671875 169.26953125 C-50.67668304 150.37562493 -50.93536535 131.48177038 -51.13019562 112.58632278 C-51.25356803 100.64617761 -51.42370463 88.7082446 -51.65159607 76.76962471 C-51.80673171 68.49920488 -51.9203525 60.22878799 -52.00630188 51.95736504 C-52.06018189 46.92905629 -52.13394792 41.90274536 -52.25415039 36.87554932 C-52.36737195 32.11630818 -52.42833644 27.35918789 -52.45027924 22.59867859 C-52.46759309 20.84307859 -52.50391492 19.08754749 -52.56064606 17.33277893 C-52.97487811 4.03143949 -52.97487811 4.03143949 -49.01867676 -0.30426025 C-46.18115135 -2.16690364 -43.530159 -3.51263853 -40.3671875 -4.73046875 C-39.47489441 -5.0891806 -38.58260132 -5.44789246 -37.66326904 -5.81747437 C-25.0911242 -10.47433798 -10.87048578 -7.52747028 0 0 Z " fill="#FDFDFE" transform="translate(293.3671875,153.73046875)"/>
<path d="M0 0 C0.87932693 0.31764816 1.75865387 0.63529633 2.66462708 0.96257019 C5.73126288 2.32053068 7.70435998 3.53459781 10 6 C11.46129094 11.49381154 11.18595703 16.92156558 11.01171875 22.55078125 C10.99584443 24.25053973 10.98442449 25.9503448 10.97712708 27.65016174 C10.94499144 32.2492957 10.85132301 36.84534592 10.74655151 41.44332123 C10.64780334 46.24127026 10.60596619 51.03969656 10.55859375 55.83837891 C10.47253791 63.83286059 10.35271571 71.82618864 10.20849609 79.81982422 C9.99351683 91.78696558 9.85814163 103.75423691 9.73828125 115.72265625 C9.54203397 134.81590907 9.29034487 153.90795751 9 173 C8.15405273 173.05945801 8.15405273 173.05945801 7.29101562 173.12011719 C4.69239434 173.31272589 2.09654123 173.53119035 -0.5 173.75 C-1.386875 173.811875 -2.27375 173.87375 -3.1875 173.9375 C-9.34031399 174.48039535 -13.63923714 175.91881387 -19 179 C-19 182.55763218 -18.96614596 184.87102045 -16.609375 187.625 C-9.84866632 193.07901708 -1.33661559 195.9158461 7 198 C7 204.93 7 211.86 7 219 C-16.85085696 219.86207917 -16.85085696 219.86207917 -23.16796875 214.93359375 C-30.8976983 206.77535041 -33.17822198 196.56345038 -36 186 C-40.03769682 170.94884079 -47.19083968 158.27112871 -55.0625 144.9375 C-73.15755752 114.24688666 -74.79150079 89.72353474 -66.04370117 55.61474609 C-65.37353378 53.07337683 -64.68969352 50.53613617 -64 48 C-63.76909668 47.14019531 -63.53819336 46.28039062 -63.30029297 45.39453125 C-58.71315746 28.52143899 -53.28067238 11.33062578 -38 1.0625 C-25.55398744 -5.81941283 -12.89797174 -5.84820405 0 0 Z " fill="#FDFDFE" transform="translate(231,150)"/>
<path d="M0 0 C47.4513577 41.94603256 74.96069871 101.59166092 80.02172852 164.55322266 C80.1687515 167.96379024 80.20783336 171.37022322 80.22485352 174.78369141 C80.23186783 175.72871521 80.23888214 176.67373901 80.24610901 177.6473999 C80.26351211 180.67855653 80.26996077 183.70951791 80.27172852 186.74072266 C80.27240326 187.77544708 80.273078 188.81017151 80.27377319 189.87625122 C80.25840623 204.68124801 79.89097169 218.98850731 77.02172852 233.55322266 C76.78824707 234.8704834 76.78824707 234.8704834 76.55004883 236.21435547 C68.87969224 279.37350762 49.91293915 320.93153496 20.13891602 353.24853516 C18.03230757 355.54170672 15.9966957 357.88613995 13.95922852 360.24072266 C10.25830635 364.39971574 6.28717662 367.98739832 2.02172852 371.55322266 C1.21864258 372.26736328 0.41555664 372.98150391 -0.41186523 373.71728516 C-24.22093367 394.45312632 -52.97058945 409.16714498 -82.97827148 418.55322266 C-83.91477539 418.84664551 -84.8512793 419.14006836 -85.81616211 419.44238281 C-105.97149105 425.61752676 -127.20888855 429.65765056 -148.32983398 429.75634766 C-149.30576508 429.76204773 -150.28169617 429.7677478 -151.28720093 429.77362061 C-153.3495782 429.7830222 -155.41197017 429.7895852 -157.47436523 429.79345703 C-160.54626805 429.80304474 -163.61746604 429.8340654 -166.68920898 429.86572266 C-230.37720106 430.2063412 -291.89294817 405.35253839 -337.16577148 360.67822266 C-343.56342944 354.25616944 -349.35848508 347.5540025 -354.72680664 340.25341797 C-355.97559589 338.55685762 -357.24714252 336.87926291 -358.52124023 335.20166016 C-365.28490267 326.16385012 -370.77614183 316.55716183 -375.97827148 306.55322266 C-376.39077148 305.77156738 -376.80327148 304.98991211 -377.22827148 304.18457031 C-395.86880004 268.49815217 -404.47252334 228.47661387 -404.29077148 188.36572266 C-404.28803726 187.0983728 -404.28803726 187.0983728 -404.2852478 185.80541992 C-404.23494953 171.87918704 -403.51741872 158.27542264 -400.97827148 144.55322266 C-400.80134766 143.59609375 -400.62442383 142.63896484 -400.44213867 141.65283203 C-392.81013152 101.71331273 -377.3610288 64.51024473 -351.97827148 32.55322266 C-351.19581055 31.56580078 -350.41334961 30.57837891 -349.60717773 29.56103516 C-337.79712249 14.99629428 -324.30662241 1.39670119 -308.97827148 -9.44677734 C-308.29829102 -9.92808105 -307.61831055 -10.40938477 -306.91772461 -10.90527344 C-222.87521563 -69.74635621 -100.91581318 -71.92824835 0 0 Z M-330.91186523 20.29541016 C-334.80742624 24.55180763 -338.39118865 29.03681308 -341.97827148 33.55322266 C-343.2428418 35.07496094 -343.2428418 35.07496094 -344.53295898 36.62744141 C-363.02114065 59.07616629 -376.52492991 85.79346962 -384.97827148 113.55322266 C-385.24333496 114.41447754 -385.50839844 115.27573242 -385.78149414 116.16308594 C-390.09616536 130.41268425 -392.97536897 144.80457684 -394.97827148 159.55322266 C-395.08284668 160.30780762 -395.18742187 161.06239258 -395.29516602 161.83984375 C-396.31945818 170.40981596 -396.22206968 179.05950332 -396.22827148 187.67822266 C-396.22894623 188.52192413 -396.22962097 189.36562561 -396.23031616 190.2348938 C-396.21262379 204.20476062 -395.46358524 217.77940462 -392.97827148 231.55322266 C-392.74479004 232.91133057 -392.74479004 232.91133057 -392.5065918 234.296875 C-384.61887428 278.92309318 -364.52747437 320.90982776 -332.97827148 353.55322266 C-332.10686523 354.47619141 -331.23545898 355.39916016 -330.33764648 356.35009766 C-307.33291993 380.1620076 -277.14082914 397.02525021 -245.97827148 407.55322266 C-245.1685791 407.82859863 -244.35888672 408.10397461 -243.5246582 408.38769531 C-224.62018703 414.70187242 -204.81934151 418.70052774 -184.97827148 420.55322266 C-183.80135742 420.66408203 -182.62444336 420.77494141 -181.41186523 420.88916016 C-122.3602419 425.60309773 -57.56108428 411.79967199 -11.46850586 372.83496094 C-8.33716752 370.14172269 -5.2538942 367.40273262 -2.21655273 364.60400391 C-0.11530529 362.67877719 2.03492157 360.83243963 4.20922852 358.99072266 C8.21846141 355.47566956 11.63159644 351.66187984 15.02172852 347.55322266 C15.65570557 346.80371338 15.65570557 346.80371338 16.30249023 346.0390625 C35.27710197 323.5640873 49.6167213 297.39182892 59.02172852 269.55322266 C59.29710449 268.74353027 59.57248047 267.93383789 59.85620117 267.09960938 C63.17437373 257.16509274 65.68166913 247.12672239 67.77172852 236.86572266 C67.97048584 235.89344727 68.16924316 234.92117188 68.37402344 233.91943359 C71.37436129 218.4303341 72.40255673 203.23653833 72.33422852 187.49072266 C72.33207336 186.59214539 72.32991821 185.69356812 72.32769775 184.76776123 C72.27300903 170.5136048 71.69072236 156.59041758 69.02172852 142.55322266 C68.81773437 141.47476074 68.61374023 140.39629883 68.40356445 139.28515625 C59.67267363 94.53139785 40.72200586 53.65443723 9.02172852 20.55322266 C8.55009277 20.05435547 8.07845703 19.55548828 7.5925293 19.04150391 C-34.01441723 -24.80570828 -95.44366949 -45.1939109 -154.73364258 -47.59912109 C-221.35573453 -49.3311396 -283.94196775 -27.9719983 -330.91186523 20.29541016 Z " fill="#6D5490" transform="translate(403.978271484375,55.44677734375)"/>
<path d="M0 0 C1.67542976 0.28604898 3.34385343 0.61781233 5 1 C5.33 3.97 5.66 6.94 6 10 C6.66 10 7.32 10 8 10 C8.8971875 8.7625 8.8971875 8.7625 9.8125 7.5 C12 5 12 5 14.75 4.6875 C15.4925 4.790625 16.235 4.89375 17 5 C17.35281338 9.1970092 16.64185432 11.06522073 14 14.3125 C13.443125 15.00988281 12.88625 15.70726563 12.3125 16.42578125 C11.6628125 17.20501953 11.6628125 17.20501953 11 18 C12.39025391 17.98259766 12.39025391 17.98259766 13.80859375 17.96484375 C15.00613281 17.95582031 16.20367187 17.94679688 17.4375 17.9375 C18.63246094 17.92589844 19.82742187 17.91429688 21.05859375 17.90234375 C24 18 24 18 25 19 C25 20.65 25 22.3 25 24 C20.38 24.66 15.76 25.32 11 26 C13.2584375 28.0728125 13.2584375 28.0728125 15.5625 30.1875 C18.12890625 32.54296875 18.12890625 32.54296875 20 35 C19.77734375 37.80078125 19.77734375 37.80078125 19 40 C13.94489444 39.55396127 11.59833262 37.35299176 8 34 C7.67 33.34 7.34 32.68 7 32 C6.95101562 32.84304687 6.90203125 33.68609375 6.8515625 34.5546875 C6.77679688 35.65039062 6.70203125 36.74609375 6.625 37.875 C6.55539063 38.96554688 6.48578125 40.05609375 6.4140625 41.1796875 C6 44 6 44 4 46 C2.68 45.67 1.36 45.34 0 45 C-0.33 41.04 -0.66 37.08 -1 33 C-2.2375 34.340625 -3.475 35.68125 -4.75 37.0625 C-6.859375 39.34765625 -6.859375 39.34765625 -9 41 C-11.203125 40.93359375 -11.203125 40.93359375 -13 40 C-13.495 38.515 -13.495 38.515 -14 37 C-12.63671875 35.0625 -12.63671875 35.0625 -10.6875 33 C-8.54174484 30.70190928 -6.75328093 28.6299214 -5 26 C-6.39025391 25.90912109 -6.39025391 25.90912109 -7.80859375 25.81640625 C-9.00613281 25.73261719 -10.20367187 25.64882812 -11.4375 25.5625 C-12.63246094 25.48128906 -13.82742187 25.40007812 -15.05859375 25.31640625 C-18 25 -18 25 -19 24 C-19 22.35 -19 20.7 -19 19 C-12.565 18.505 -12.565 18.505 -6 18 C-7.134375 16.9275 -8.26875 15.855 -9.4375 14.75 C-12.00384429 12.32363813 -13.70831244 10.61991736 -14 7 C-13.34 6.34 -12.68 5.68 -12 5 C-8.38008264 5.29168756 -6.67636187 6.99615571 -4.25 9.5625 C-3.63640625 10.20316406 -3.0228125 10.84382813 -2.390625 11.50390625 C-1.93171875 11.99761719 -1.4728125 12.49132812 -1 13 C-1.01160156 12.14535156 -1.02320313 11.29070312 -1.03515625 10.41015625 C-1.04417969 9.30542969 -1.05320313 8.20070313 -1.0625 7.0625 C-1.07410156 5.96035156 -1.08570313 4.85820313 -1.09765625 3.72265625 C-1 1 -1 1 0 0 Z " fill="#A191B8" transform="translate(161,68)"/>
<path d="M0 0 C1.67542976 0.28604898 3.34385343 0.61781233 5 1 C5.33 3.64 5.66 6.28 6 9 C6.556875 8.175 7.11375 7.35 7.6875 6.5 C10 4 10 4 12.75 3.6875 C13.86375 3.8421875 13.86375 3.8421875 15 4 C15.495 5.485 15.495 5.485 16 7 C15.00390625 8.82421875 15.00390625 8.82421875 13.5625 10.6875 C13.08941406 11.31011719 12.61632812 11.93273437 12.12890625 12.57421875 C11.75636719 13.04472656 11.38382812 13.51523437 11 14 C11.71027344 14.06058594 12.42054688 14.12117188 13.15234375 14.18359375 C14.07144531 14.26738281 14.99054688 14.35117187 15.9375 14.4375 C17.31228516 14.55931641 17.31228516 14.55931641 18.71484375 14.68359375 C21 15 21 15 22 16 C22 17.65 22 19.3 22 21 C18.37 21.33 14.74 21.66 11 22 C11.969375 23.0725 12.93875 24.145 13.9375 25.25 C16.23256811 27.7892243 17.40716379 29.60807637 18 33 C16.68 33.66 15.36 34.32 14 35 C11.69 33.02 9.38 31.04 7 29 C6.9175 30.44375 6.835 31.8875 6.75 33.375 C6.609375 35.8359375 6.609375 35.8359375 6 38 C4.078125 39.3515625 4.078125 39.3515625 2 40 C1.34 39.67 0.68 39.34 0 39 C-0.4140625 36.71484375 -0.4140625 36.71484375 -0.625 33.9375 C-0.69976562 33.01839844 -0.77453125 32.09929687 -0.8515625 31.15234375 C-0.90054687 30.44207031 -0.94953125 29.73179687 -1 29 C-1.721875 29.99 -2.44375 30.98 -3.1875 32 C-5.6095123 34.94793497 -5.6095123 34.94793497 -8.8125 35.375 C-9.8953125 35.189375 -9.8953125 35.189375 -11 35 C-11.71484375 33.265625 -11.71484375 33.265625 -12 31 C-10.56640625 28.859375 -10.56640625 28.859375 -8.5625 26.75 C-7.90378906 26.04359375 -7.24507813 25.3371875 -6.56640625 24.609375 C-6.04949219 24.07828125 -5.53257812 23.5471875 -5 23 C-5.69867188 22.95101563 -6.39734375 22.90203125 -7.1171875 22.8515625 C-8.02726562 22.77679688 -8.93734375 22.70203125 -9.875 22.625 C-10.77992188 22.55539062 -11.68484375 22.48578125 -12.6171875 22.4140625 C-15 22 -15 22 -17 20 C-16.67 18.68 -16.34 17.36 -16 16 C-12.7 15.67 -9.4 15.34 -6 15 C-7.010625 14.113125 -8.02125 13.22625 -9.0625 12.3125 C-10.73046875 10.66796875 -10.73046875 10.66796875 -12 9 C-11.875 6.125 -11.875 6.125 -11 4 C-6.68607774 4.4793247 -4.83430453 5.7457985 -2 9 C-1.855625 7.700625 -1.71125 6.40125 -1.5625 5.0625 C-1.125 1.125 -1.125 1.125 0 0 Z " fill="#A191B8" transform="translate(346,367)"/>
<path d="M0 0 C2.475 0.495 2.475 0.495 5 1 C5.33 2.98 5.66 4.96 6 7 C6.86625 5.9790625 6.86625 5.9790625 7.75 4.9375 C8.4925 4.298125 9.235 3.65875 10 3 C12.25 3.25 12.25 3.25 14 4 C14.26218749 7.14624993 14.24754367 8.61837017 12.5 11.3125 C12.005 11.869375 11.51 12.42625 11 13 C13.97 13.33 16.94 13.66 20 14 C20.042721 15.66611905 20.04063832 17.33382885 20 19 C18.41727399 20.58272601 16.61965997 20.34735747 14.4375 20.5625 C13.19806641 20.68818359 13.19806641 20.68818359 11.93359375 20.81640625 C11.29550781 20.87699219 10.65742188 20.93757813 10 21 C10.44472656 21.37511719 10.88945312 21.75023437 11.34765625 22.13671875 C13.06170453 23.68678063 14.59920192 25.15956683 16 27 C15.875 29.875 15.875 29.875 15 32 C10.68607774 31.5206753 8.83430453 30.2542015 6 27 C5.67 29.97 5.34 32.94 5 36 C3.35 36 1.7 36 0 36 C-0.66 33.69 -1.32 31.38 -2 29 C-3.65 30.32 -5.3 31.64 -7 33 C-8.32 32.34 -9.64 31.68 -11 31 C-10.42647107 27.12867972 -8.51295648 24.91827204 -6 22 C-8.97 21.01 -11.94 20.02 -15 19 C-14.67 17.35 -14.34 15.7 -14 14 C-11.36 14 -8.72 14 -6 14 C-7.2684375 12.63875 -7.2684375 12.63875 -8.5625 11.25 C-11.02603251 8.32974517 -11.02603251 8.32974517 -10.8125 5.625 C-10.544375 5.08875 -10.27625 4.5525 -10 4 C-5.44615385 3.63076923 -5.44615385 3.63076923 -3.1875 5.5 C-2.795625 5.995 -2.40375 6.49 -2 7 C-1.34 4.69 -0.68 2.38 0 0 Z " fill="#A191B8" transform="translate(121,363)"/>
<path d="M0 0 C3.70342384 2.11624219 5.37272301 4.1299108 7 8 C7.58909226 12.27665678 7.48792817 15.93120496 5.6875 19.875 C1.81161661 24.75574205 1.81161661 24.75574205 -1.05078125 25.6171875 C-6.27801276 26.21303772 -9.45673699 26.02884201 -14 23 C-16.83039171 20.65760686 -17.80672915 18.66339664 -18.23828125 14.94921875 C-18.4194823 9.42735507 -17.72103642 6.35892838 -14 2 C-9.54422653 -0.97051564 -5.22557394 -0.62737491 0 0 Z " fill="#E4E0EA" transform="translate(279,50)"/>
<path d="M0 0 C0.38218767 1.65614657 0.71395102 3.32457024 1 5 C0 6 0 6 -2.5625 6.0625 C-3.7690625 6.0315625 -3.7690625 6.0315625 -5 6 C-4.67 6.515625 -4.34 7.03125 -4 7.5625 C-2.6200855 10.9260416 -2.62025154 13.39238959 -3 17 C-4.79562405 19.75329021 -6.05254922 21.52627461 -9 23 C-11.05859375 23.16796875 -11.05859375 23.16796875 -13.4375 23.1875 C-14.61119141 23.20876953 -14.61119141 23.20876953 -15.80859375 23.23046875 C-18 23 -18 23 -21 21 C-21.66 23.31 -22.32 25.62 -23 28 C-24.65 28.33 -26.3 28.66 -28 29 C-29.304718 25.07175852 -28.3918029 22.97186857 -26.59936523 19.26245117 C-26.23657471 18.55709229 -25.87378418 17.8517334 -25.5 17.125 C-25.13269775 16.40481689 -24.76539551 15.68463379 -24.38696289 14.94262695 C-19.1346592 5.05027907 -11.75355102 -0.71960516 0 0 Z " fill="#725993" transform="translate(307,226)"/>
<path d="M0 0 C6.1887796 0.13978763 11.68656439 3.08178555 16.08203125 7.32421875 C20.76042948 13.00149067 26.0625 20.8227004 26.0625 28.375 C24.4125 28.705 22.7625 29.035 21.0625 29.375 C18.0625 24.75 18.0625 24.75 18.0625 21.375 C17.0725 22.035 16.0825 22.695 15.0625 23.375 C11.99723649 23.92031842 9.12841671 23.91825893 6.0625 23.375 C3.30680553 21.19340855 1.62661253 19.50322506 0.0625 16.375 C-0.19547575 12.41937178 -0.03190189 9.77840307 2.0625 6.375 C0.4125 6.375 -1.2375 6.375 -2.9375 6.375 C-3.31968767 4.71885343 -3.65145102 3.05042976 -3.9375 1.375 C-2.9375 0.375 -2.9375 0.375 0 0 Z " fill="#715893" transform="translate(178.9375,225.625)"/>
<path d="M0 0 C1.32 0 2.64 0 4 0 C4.01981934 1.22404541 4.03963867 2.44809082 4.06005859 3.70922852 C4.13707827 8.3222042 4.2256326 12.93490319 4.31738281 17.54760742 C4.35527997 19.53062411 4.39019515 21.51370042 4.421875 23.49682617 C4.61047538 35.16352779 5.18247271 46.46913012 7 58 C7.36359676 60.99765331 7.68388471 63.99690476 8 67 C5.525 67.495 5.525 67.495 3 68 C-3.65134702 55.70936733 -2.46018288 38.23427199 -2.33618164 24.65673828 C-2.31197943 21.81385232 -2.31573063 18.97187307 -2.32226562 16.12890625 C-2.31670557 14.31249439 -2.30960637 12.49608643 -2.30078125 10.6796875 C-2.30169266 9.83405243 -2.30260406 8.98841736 -2.30354309 8.11715698 C-2.23125906 2.23125906 -2.23125906 2.23125906 0 0 Z " fill="#765E96" transform="translate(262,249)"/>
<path d="M0 0 C4.875 0.875 4.875 0.875 6 2 C6.11391905 4.61305412 6.16420421 7.19851377 6.16796875 9.8125 C6.17129715 10.61421631 6.17462555 11.41593262 6.17805481 12.24194336 C6.18313623 13.95360744 6.18546276 15.66528151 6.18530273 17.37695312 C6.18744452 19.93377488 6.20545868 22.49013239 6.22460938 25.046875 C6.27326687 39.23821253 5.20233231 53.13458244 2 67 C0.34385343 67.38218767 -1.32457024 67.71395102 -3 68 C-3.33 67.67 -3.66 67.34 -4 67 C-3.86285719 61.96791387 -3.00585427 57.01686898 -1.99609375 52.09765625 C-0.30516619 42.087149 -0.52718142 31.8748203 -0.375 21.75 C-0.33674736 19.63670394 -0.29769161 17.52342225 -0.2578125 15.41015625 C-0.16261028 10.27355652 -0.07829452 5.13688412 0 0 Z " fill="#755E96" transform="translate(217,249)"/>
<path d="M0 0 C3.12824432 1.32081427 4.56971762 2.31545986 6.375 5.1875 C7.23079539 9.03857926 7.15154973 12.21742606 6 16 C3.94124615 19.08813077 2.5283521 20.66221204 -1.15625 21.4765625 C-5.37485741 21.74374097 -7.46083034 21.37067914 -11 18.9375 C-13.38348169 15.43676127 -13.92463735 13.22030829 -14 9 C-13.22106448 5.65057724 -12.18070365 4.19102957 -9.8125 1.6875 C-6.21852832 -0.46888301 -4.13327601 -0.5166595 0 0 Z " fill="#D5CEDF" transform="translate(257,97)"/>
<path d="M0 0 C0.66 0.33 1.32 0.66 2 1 C2.63860769 3.69797102 3.16825242 6.33366623 3.625 9.0625 C3.7590625 9.82111328 3.893125 10.57972656 4.03125 11.36132812 C4.36200122 13.23952258 4.68200734 15.11960338 5 17 C5.93972656 17.09087891 5.93972656 17.09087891 6.8984375 17.18359375 C7.71570313 17.26738281 8.53296875 17.35117188 9.375 17.4375 C10.18710937 17.51871094 10.99921875 17.59992188 11.8359375 17.68359375 C14 18 14 18 16 19 C16 19.66 16 20.32 16 21 C11.05 22.485 11.05 22.485 6 24 C5.01 29.94 4.02 35.88 3 42 C2.34 42 1.68 42 1 42 C-0.32 36.06 -1.64 30.12 -3 24 C-6.63 23.01 -10.26 22.02 -14 21 C-14 20.34 -14 19.68 -14 19 C-9.94150823 18.01612321 -6.16468745 17.96075677 -2 18 C-1.93941406 17.03578125 -1.87882812 16.0715625 -1.81640625 15.078125 C-1.73261719 13.81484375 -1.64882813 12.5515625 -1.5625 11.25 C-1.48128906 9.99703125 -1.40007812 8.7440625 -1.31640625 7.453125 C-1.07484478 4.81682447 -0.75716066 2.51962706 0 0 Z " fill="#B9ADCA" transform="translate(327,61)"/>
<path d="M0 0 C0.66 0 1.32 0 2 0 C2.99 5.94 3.98 11.88 5 18 C7.97 18 10.94 18 14 18 C14.99 18.66 15.98 19.32 17 20 C13.26137967 21.65362053 9.98300973 23.00424757 6 24 C5.01 29.94 4.02 35.88 3 42 C2.34 41.67 1.68 41.34 1 41 C0.1986381 38.14258915 -0.49708506 35.33288557 -1.125 32.4375 C-1.30675781 31.63119141 -1.48851562 30.82488281 -1.67578125 29.99414062 C-2.12467118 27.99776175 -2.56329743 25.9990802 -3 24 C-6.3 23.01 -9.6 22.02 -13 21 C-13 20.34 -13 19.68 -13 19 C-9.05979642 17.73913486 -6.52419701 18 -2 18 C-1.34 12.06 -0.68 6.12 0 0 Z " fill="#B9ADCA" transform="translate(186,392)"/>
<path d="M0 0 C-0.125 2.3515625 -0.125 2.3515625 -1 5 C-3.625 6.3359375 -3.625 6.3359375 -7 7.375 C-17.97602539 11.22981854 -25.5926523 18.38897845 -32 28 C-33.65 27.67 -35.3 27.34 -37 27 C-35.75619374 18.23193367 -28.65094473 12.03074459 -21.890625 6.8671875 C-15.62366332 2.81906901 -7.53031706 -2.35940516 0 0 Z " fill="#745C95" transform="translate(298,201)"/>
<path d="M0 0 C14.10792666 2.35132111 25.7668568 9.61244825 34.328125 21.1328125 C36 24 36 24 35.75 26.875 C35.5025 27.57625 35.255 28.2775 35 29 C33.68 29 32.36 29 31 29 C29.4296875 27.05859375 29.4296875 27.05859375 27.875 24.4375 C20.97760986 14.10596625 10.00557957 9.82778091 -1 5 C-0.67 3.35 -0.34 1.7 0 0 Z " fill="#745C95" transform="translate(186,200)"/>
<path d="M0 0 C0.66 0.33 1.32 0.66 2 1 C2.6328125 3.14453125 2.6328125 3.14453125 3.125 5.8125 C3.29257813 6.68519531 3.46015625 7.55789062 3.6328125 8.45703125 C4 11 4 11 4 15 C6.97 15.33 9.94 15.66 13 16 C13 16.99 13 17.98 13 19 C9.04 19.495 9.04 19.495 5 20 C4.87882812 21.07121094 4.75765625 22.14242187 4.6328125 23.24609375 C4.46402399 24.64328752 4.29472687 26.04041991 4.125 27.4375 C4.00705078 28.49807617 4.00705078 28.49807617 3.88671875 29.58007812 C3.66072324 31.39673432 3.33699273 33.20062522 3 35 C2.01 35.495 2.01 35.495 1 36 C0.01 30.72 -0.98 25.44 -2 20 C-4.64 19.67 -7.28 19.34 -10 19 C-10 18.01 -10 17.02 -10 16 C-7.36 15.34 -4.72 14.68 -2 14 C-1.34 9.38 -0.68 4.76 0 0 Z " fill="#B9ADCA" transform="translate(105,94)"/>
<path d="M0 0 C3.32878632 2.46040728 4.79301948 3.89610387 5.5625 8 C4.84202557 11.8425303 3.99097304 13.45767292 1 16 C-2.50278615 16.7470731 -5.72431078 16.69957151 -8.9375 14.9375 C-10.58916681 11.92563699 -10.88214109 9.41790842 -11 6 C-8.47081745 0.45988584 -6.0357992 -0.71009402 0 0 Z " fill="#D5CEDF" transform="translate(294,412)"/>
<path d="M0 0 C2.09765625 0.375 2.09765625 0.375 4.16015625 1.875 C5.50468344 5.46040584 5.90697262 8.60589803 5.09765625 12.375 C3.03515625 14.9375 3.03515625 14.9375 0.09765625 16.375 C-3.36993317 16.31521398 -5.79061124 15.98465977 -8.83984375 14.3125 C-10.59293587 11.11568496 -10.38901507 7.88044411 -9.90234375 4.375 C-8.09470237 -0.44537702 -4.62330627 -0.24056228 0 0 Z " fill="#E4E0EA" transform="translate(400.90234375,354.625)"/>
<path d="M0 0 C3 0.5625 3 0.5625 5.375 2.1875 C7.48706506 5.27436432 7.61195145 6.8907913 7 10.5625 C5.375 12.9375 5.375 12.9375 3 14.5625 C-1.10777749 15.06549316 -2.50875983 14.88999345 -6 12.5625 C-7.16377498 8.45049509 -7.46887051 6.44397656 -5.4375 2.625 C-3 0.5625 -3 0.5625 0 0 Z " fill="#D5CEDF" transform="translate(211,47.4375)"/>
<path d="M0 0 C2.86801846 0.08864784 3.78417611 0.16414857 6.125 1.9375 C7.48213883 5.46606096 7.04765877 7.76275116 6.0625 11.375 C4.375 13.375 4.375 13.375 2.0625 14.375 C-1.38016385 14.30474155 -3.22103249 13.97590824 -5.875 11.75 C-7.40612051 8.32749533 -6.8001304 5.95823398 -5.9375 2.375 C-3.9375 0.375 -3.9375 0.375 0 0 Z " fill="#D5CEDF" transform="translate(405.9375,125.625)"/>
<path d="M0 0 C3.5 0.4375 3.5 0.4375 5.4375 1.5625 C6.98724515 4.29734439 6.82162076 6.3499407 6.5 9.4375 C4.5 12.4375 4.5 12.4375 1.625 13.25 C-1.5 13.4375 -1.5 13.4375 -3.8125 12.9375 C-5.5 11.4375 -5.5 11.4375 -6.4375 8.0625 C-6.5 4.4375 -6.5 4.4375 -5.5 2 C-3.5 0.4375 -3.5 0.4375 0 0 Z " fill="#E9E6EE" transform="translate(233.5,433.5625)"/>
<path d="M0 0 C1.875 1.0625 1.875 1.0625 3 3 C3.63316583 8.90954774 3.63316583 8.90954774 1.875 11.9375 C-0.88980433 13.50422245 -2.88188517 13.38976435 -6 13 C-7.875 11.9375 -7.875 11.9375 -9 10 C-9.63316583 4.09045226 -9.63316583 4.09045226 -7.875 1.0625 C-5.11019567 -0.50422245 -3.11811483 -0.38976435 0 0 Z " fill="#E9E6EE" transform="translate(79,356)"/>
<path d="M0 0 C1.875 1.0625 1.875 1.0625 3 3 C3.63316583 8.90954774 3.63316583 8.90954774 1.875 11.9375 C-0.88980433 13.50422245 -2.88188517 13.38976435 -6 13 C-7.875 11.9375 -7.875 11.9375 -9 10 C-9.63316583 4.09045226 -9.63316583 4.09045226 -7.875 1.0625 C-5.11019567 -0.50422245 -3.11811483 -0.38976435 0 0 Z " fill="#E9E6EE" transform="translate(359,106)"/>
<path d="M0 0 C2.31 0 4.62 0 7 0 C8.32841008 5.43440487 8.32841008 5.43440487 6.875 7.9375 C5 9 5 9 2.375 8.75 C0 8 0 8 -1 7 C-0.71269945 4.66055264 -0.38063221 2.3260857 0 0 Z " fill="#8A76A6" transform="translate(438,125)"/>
<path d="M0 0 C2.875 -0.125 2.875 -0.125 6 0 C8 2 8 2 8.3125 4.5 C8.1578125 5.7375 8.1578125 5.7375 8 7 C5 9 5 9 1.8125 8.625 C0.4203125 8.315625 0.4203125 8.315625 -1 8 C-1.125 2.25 -1.125 2.25 0 0 Z " fill="#8A76A6" transform="translate(103,52)"/>
<path d="M0 0 C2.31 0.33 4.62 0.66 7 1 C7.33 2.98 7.66 4.96 8 7 C5 9 5 9 1.8125 8.625 C0.4203125 8.315625 0.4203125 8.315625 -1 8 C-1.125 2.25 -1.125 2.25 0 0 Z " fill="#8A76A6" transform="translate(125,38)"/>
<path d="M0 0 C2.875 -0.125 2.875 -0.125 6 0 C6.66 0.66 7.32 1.32 8 2 C7.625 5.125 7.625 5.125 7 8 C4.6875 8.625 4.6875 8.625 2 9 C1.01 8.34 0.02 7.68 -1 7 C-0.67 4.69 -0.34 2.38 0 0 Z " fill="#8A76A6" transform="translate(178,457)"/>
<path d="M0 0 C1.2375 0.1546875 1.2375 0.1546875 2.5 0.3125 C4.5 3.3125 4.5 3.3125 4.125 6 C3.91875 6.763125 3.7125 7.52625 3.5 8.3125 C0.625 8.9375 0.625 8.9375 -2.5 9.3125 C-4.5 7.3125 -4.5 7.3125 -4.75 4.8125 C-4.40047575 1.3172575 -3.47557682 0.4344471 0 0 Z " fill="#8A76A6" transform="translate(320.5,452.6875)"/>
<path d="M0 0 C1.2375 0.1546875 1.2375 0.1546875 2.5 0.3125 C4.5 3.3125 4.5 3.3125 4.125 6 C3.91875 6.763125 3.7125 7.52625 3.5 8.3125 C0.625 8.9375 0.625 8.9375 -2.5 9.3125 C-4.5 7.3125 -4.5 7.3125 -4.75 4.8125 C-4.40047575 1.3172575 -3.47557682 0.4344471 0 0 Z " fill="#8A76A6" transform="translate(332.5,448.6875)"/>
<path d="M0 0 C1.2375 0.1546875 1.2375 0.1546875 2.5 0.3125 C4.5 3.3125 4.5 3.3125 4.125 6 C3.91875 6.763125 3.7125 7.52625 3.5 8.3125 C0.625 8.9375 0.625 8.9375 -2.5 9.3125 C-4.5 7.3125 -4.5 7.3125 -4.75 4.8125 C-4.40047575 1.3172575 -3.47557682 0.4344471 0 0 Z " fill="#8A76A6" transform="translate(344.5,443.6875)"/>
<path d="M0 0 C2.33944736 0.28730055 4.6739143 0.61936779 7 1 C7.625 3.3125 7.625 3.3125 8 6 C7.01 7.485 7.01 7.485 6 9 C3.03 8.505 3.03 8.505 0 8 C-0.38063221 5.6739143 -0.71269945 3.33944736 -1 1 C-0.67 0.67 -0.34 0.34 0 0 Z " fill="#8A76A6" transform="translate(130,440)"/>
<path d="M0 0 C1.98 0 3.96 0 6 0 C6 0.66 6 1.32 6 2 C6.66 2 7.32 2 8 2 C8.1875 4.375 8.1875 4.375 8 7 C5 9 5 9 1.8125 8.625 C0.4203125 8.315625 0.4203125 8.315625 -1 8 C-1.125 2.25 -1.125 2.25 0 0 Z " fill="#8A76A6" transform="translate(69,394)"/>
<path d="M0 0 C1.2375 0.1546875 1.2375 0.1546875 2.5 0.3125 C4.5 3.3125 4.5 3.3125 4.125 6 C3.91875 6.763125 3.7125 7.52625 3.5 8.3125 C0.625 8.9375 0.625 8.9375 -2.5 9.3125 C-4.5 7.3125 -4.5 7.3125 -4.75 4.8125 C-4.40047575 1.3172575 -3.47557682 0.4344471 0 0 Z " fill="#8A76A6" transform="translate(451.5,147.6875)"/>
<path d="M0 0 C2.33944736 0.28730055 4.6739143 0.61936779 7 1 C7.625 3.3125 7.625 3.3125 8 6 C7.01 7.485 7.01 7.485 6 9 C3.03 8.505 3.03 8.505 0 8 C-0.38063221 5.6739143 -0.71269945 3.33944736 -1 1 C-0.67 0.67 -0.34 0.34 0 0 Z " fill="#8A76A6" transform="translate(38,130)"/>
<path d="M0 0 C1.98 0 3.96 0 6 0 C6 0.66 6 1.32 6 2 C6.66 2 7.32 2 8 2 C8.1875 4.375 8.1875 4.375 8 7 C5 9 5 9 1.8125 8.625 C0.4203125 8.315625 0.4203125 8.315625 -1 8 C-1.125 2.25 -1.125 2.25 0 0 Z " fill="#8A76A6" transform="translate(93,60)"/>
<path d="M0 0 C3.125 0.375 3.125 0.375 6 1 C6.625 3.875 6.625 3.875 7 7 C5 9 5 9 2.5 9.25 C0 9 0 9 -2 7 C-2.25 4.5 -2.25 4.5 -2 2 C-1.34 1.34 -0.68 0.68 0 0 Z " fill="#8A76A6" transform="translate(349,36)"/>
<path d="M0 0 C1.2684375 0.12375 1.2684375 0.12375 2.5625 0.25 C4.5625 3.25 4.5625 3.25 4.1875 5.9375 C3.98125 6.700625 3.775 7.46375 3.5625 8.25 C-2.1875 9.375 -2.1875 9.375 -4.4375 8.25 C-3.43230397 0.35203118 -3.43230397 0.35203118 0 0 Z " fill="#8A76A6" transform="translate(139.4375,31.75)"/>
<path d="M0 0 C1.2375 0.1546875 1.2375 0.1546875 2.5 0.3125 C4.5 3.3125 4.5 3.3125 4.125 6 C3.91875 6.763125 3.7125 7.52625 3.5 8.3125 C0.625 8.9375 0.625 8.9375 -2.5 9.3125 C-4.5 7.3125 -4.5 7.3125 -4.75 4.8125 C-4.40047575 1.3172575 -3.47557682 0.4344471 0 0 Z " fill="#8A76A6" transform="translate(151.5,26.6875)"/>
<path d="M0 0 C0.6875 2.3125 0.6875 2.3125 1 5 C-0.125 6.8125 -0.125 6.8125 -2 8 C-4.6875 8.1875 -4.6875 8.1875 -7 8 C-8.35439668 5.29120665 -8.06501451 2.99066732 -8 0 C-5.13822943 -1.43088528 -3.06624227 -0.59991697 0 0 Z " fill="#8A76A6" transform="translate(115,428)"/>
<path d="M0 0 C3.0625 0.1875 3.0625 0.1875 5.0625 2.1875 C4.73278521 5.48464793 4.4398161 6.8101839 2.0625 9.1875 C-0.5625 8.8125 -0.5625 8.8125 -2.9375 8.1875 C-3.31813221 5.8614143 -3.65019945 3.52694736 -3.9375 1.1875 C-2.9375 0.1875 -2.9375 0.1875 0 0 Z " fill="#8A76A6" transform="translate(55.9375,373.8125)"/>
<path d="M0 0 C3.125 0.375 3.125 0.375 6 1 C6.625 3.3125 6.625 3.3125 7 6 C6.01 7.485 6.01 7.485 5 9 C-0.875 8.125 -0.875 8.125 -2 7 C-2.1875 4.5625 -2.1875 4.5625 -2 2 C-1.34 1.34 -0.68 0.68 0 0 Z " fill="#8A76A6" transform="translate(446,335)"/>
<path d="M0 0 C1.2684375 0.12375 1.2684375 0.12375 2.5625 0.25 C4.5625 3.25 4.5625 3.25 4.1875 5.9375 C3.98125 6.700625 3.775 7.46375 3.5625 8.25 C1.5825 8.58 -0.3975 8.91 -2.4375 9.25 C-4.4375 6.25 -4.4375 6.25 -4.125 3.625 C-3.16976704 0.32510431 -3.16976704 0.32510431 0 0 Z " fill="#8A76A6" transform="translate(32.4375,328.75)"/>
<path d="M0 0 C2.4375 0.8125 2.4375 0.8125 4.4375 2.8125 C4.0625 5.4375 4.0625 5.4375 3.4375 7.8125 C0.15053767 8.61203138 -1.27273192 8.90908936 -4.5625 7.8125 C-5.25 5.5 -5.25 5.5 -5.5625 2.8125 C-3.93062878 0.09271463 -3.17771033 -0.23251539 0 0 Z " fill="#8A76A6" transform="translate(27.5625,165.1875)"/>
<path d="M0 0 C3.125 0.375 3.125 0.375 6 1 C6.625 3.3125 6.625 3.3125 7 6 C6.01 7.485 6.01 7.485 5 9 C-0.875 8.125 -0.875 8.125 -2 7 C-2.1875 4.5625 -2.1875 4.5625 -2 2 C-1.34 1.34 -0.68 0.68 0 0 Z " fill="#8A76A6" transform="translate(29,153)"/>
<path d="M0 0 C1.2375 0.1546875 1.2375 0.1546875 2.5 0.3125 C4.5 3.3125 4.5 3.3125 4.125 6 C3.91875 6.763125 3.7125 7.52625 3.5 8.3125 C1.1875 8.9375 1.1875 8.9375 -1.5 9.3125 C-2.49 8.6525 -3.48 7.9925 -4.5 7.3125 C-4.8125 4.8125 -4.8125 4.8125 -4.5 2.3125 C-2.5 0.3125 -2.5 0.3125 0 0 Z " fill="#8A76A6" transform="translate(446.5,135.6875)"/>
<path d="M0 0 C1.9375 0.75 1.9375 0.75 3.9375 2.75 C3.5625 5.875 3.5625 5.875 2.9375 8.75 C0.0625 8.875 0.0625 8.875 -3.0625 8.75 C-5.0625 6.75 -5.0625 6.75 -5.375 4.25 C-5.271875 3.425 -5.16875 2.6 -5.0625 1.75 C-2.0625 -0.25 -2.0625 -0.25 0 0 Z " fill="#8A76A6" transform="translate(48.0625,118.25)"/>
<path d="M0 0 C2 3 2 3 1.625 5.6875 C1.41875 6.450625 1.2125 7.21375 1 8 C-1.3125 8.625 -1.3125 8.625 -4 9 C-4.99 8.34 -5.98 7.68 -7 7 C-7.1875 3.875 -7.1875 3.875 -7 1 C-4.46578263 -0.26710868 -2.80561762 -0.28056176 0 0 Z " fill="#8A76A6" transform="translate(64,97)"/>
<path d="M0 0 C2.375 0.6875 2.375 0.6875 3.375 1.6875 C3.08769945 4.02694736 2.75563221 6.3614143 2.375 8.6875 C0.065 8.6875 -2.245 8.6875 -4.625 8.6875 C-4.955 6.3775 -5.285 4.0675 -5.625 1.6875 C-2.625 -0.3125 -2.625 -0.3125 0 0 Z " fill="#8A76A6" transform="translate(374.625,49.3125)"/>
<path d="M0 0 C1.9375 0.6875 1.9375 0.6875 3.9375 1.6875 C3.6075 3.9975 3.2775 6.3075 2.9375 8.6875 C0.0625 8.8125 0.0625 8.8125 -3.0625 8.6875 C-5.0625 6.6875 -5.0625 6.6875 -5.375 4.1875 C-5.271875 3.3625 -5.16875 2.5375 -5.0625 1.6875 C-2.0625 -0.3125 -2.0625 -0.3125 0 0 Z " fill="#8A76A6" transform="translate(363.0625,42.3125)"/>
<path d="M0 0 C1.2684375 0.12375 1.2684375 0.12375 2.5625 0.25 C4.5625 3.25 4.5625 3.25 4.1875 5.9375 C3.98125 6.700625 3.775 7.46375 3.5625 8.25 C1.5825 8.58 -0.3975 8.91 -2.4375 9.25 C-4.4375 6.25 -4.4375 6.25 -4.125 3.625 C-3.16976704 0.32510431 -3.16976704 0.32510431 0 0 Z " fill="#8A76A6" transform="translate(163.4375,22.75)"/>
<path d="M0 0 C2.875 -0.125 2.875 -0.125 6 0 C8 2 8 2 8.3125 4.5 C8.1578125 5.7375 8.1578125 5.7375 8 7 C5 9 5 9 2.3125 8.625 C1.549375 8.41875 0.78625 8.2125 0 8 C-0.79953138 4.71303767 -1.09658936 3.28976808 0 0 Z " fill="#8A76A6" transform="translate(384,417)"/>
<path d="M0 0 C2.875 -0.125 2.875 -0.125 6 0 C6.66 0.66 7.32 1.32 8 2 C7.625 5.125 7.625 5.125 7 8 C4.36 8 1.72 8 -1 8 C-1.125 2.25 -1.125 2.25 0 0 Z " fill="#8A76A6" transform="translate(46,363)"/>
<path d="M0 0 C3 0.25 3 0.25 5 2.25 C4.44444444 6.80555556 4.44444444 6.80555556 3 8.25 C1.00041636 8.29080783 -1.00045254 8.29254356 -3 8.25 C-3.66 6.27 -4.32 4.29 -5 2.25 C-3 0.25 -3 0.25 0 0 Z " fill="#8A76A6" transform="translate(457,311.75)"/>
<path d="M0 0 C2.375 0.375 2.375 0.375 3.375 1.375 C3.625 4.3125 3.625 4.3125 3.375 7.375 C0.375 9.375 0.375 9.375 -2.3125 9 C-3.075625 8.79375 -3.83875 8.5875 -4.625 8.375 C-5.625 5.375 -5.625 5.375 -4.5 2.6875 C-2.625 0.375 -2.625 0.375 0 0 Z " fill="#8A76A6" transform="translate(456.625,159.625)"/>
<path d="M0 0 C0 2.31 0 4.62 0 7 C-1.98 7.33 -3.96 7.66 -6 8 C-7.5625 5.6875 -7.5625 5.6875 -9 3 C-8.67 2.01 -8.34 1.02 -8 0 C-5.13822943 -1.43088528 -3.06624227 -0.59991697 0 0 Z " fill="#8A76A6" transform="translate(40,142)"/>
<path d="M0 0 C2.625 0.5625 2.625 0.5625 5 2 C5.9375 4.5 5.9375 4.5 6 7 C5.34 7.66 4.68 8.32 4 9 C0.375 8.625 0.375 8.625 -3 8 C-3.1875 5.125 -3.1875 5.125 -3 2 C-2.01 1.34 -1.02 0.68 0 0 Z " fill="#8A76A6" transform="translate(429,369)"/>
<path d="M0 0 C2 3 2 3 1.75 5.0625 C1 7 1 7 -1 9 C-3.26274788 8.64644564 -4.95088852 8.02455574 -7 7 C-7 5.02 -7 3.04 -7 1 C-4.46578263 -0.26710868 -2.80561762 -0.28056176 0 0 Z " fill="#8A76A6" transform="translate(72,87)"/>
<path d="M0 0 C1.2065625 0.0309375 1.2065625 0.0309375 2.4375 0.0625 C2.4375 0.7225 2.4375 1.3825 2.4375 2.0625 C3.0975 2.0625 3.7575 2.0625 4.4375 2.0625 C4.5625 4.4375 4.5625 4.4375 4.4375 7.0625 C2.4375 9.0625 2.4375 9.0625 -0.6875 9.1875 C-2.110625 9.125625 -2.110625 9.125625 -3.5625 9.0625 C-3.66015625 2.91015625 -3.66015625 2.91015625 -3.5625 1.0625 C-2.5625 0.0625 -2.5625 0.0625 0 0 Z " fill="#8A76A6" transform="translate(77.5625,76.9375)"/>
<path d="M0 0 C3.125 0.375 3.125 0.375 6 1 C6.625 3.3125 6.625 3.3125 7 6 C6.01 7.485 6.01 7.485 5 9 C2.375 9.1875 2.375 9.1875 0 9 C-0.66 6.69 -1.32 4.38 -2 2 C-1.34 1.34 -0.68 0.68 0 0 Z " fill="#8A76A6" transform="translate(337,31)"/>
<path d="M0 0 C5.56818182 0.56818182 5.56818182 0.56818182 7 2 C7.04080783 3.99958364 7.04254356 6.00045254 7 8 C4.6875 8.625 4.6875 8.625 2 9 C-1 7 -1 7 -1.8125 4.5 C-1.874375 3.675 -1.93625 2.85 -2 2 C-1.34 1.34 -0.68 0.68 0 0 Z " fill="#8A76A6" transform="translate(325,26)"/>
<path d="M0 0 C3.125 -0.1875 3.125 -0.1875 6 0 C7.125 2.3125 7.125 2.3125 8 5 C7.01 6.485 7.01 6.485 6 8 C2.875 8.1875 2.875 8.1875 0 8 C-1.125 5.6875 -1.125 5.6875 -2 3 C-1.34 2.01 -0.68 1.02 0 0 Z " fill="#8A76A6" transform="translate(229,464)"/>
<path d="M0 0 C0.763125 0.20625 1.52625 0.4125 2.3125 0.625 C2.6425 2.605 2.9725 4.585 3.3125 6.625 C0.95811267 8.05444945 -0.16782433 8.71161261 -2.9375 8.25 C-3.515 8.04375 -4.0925 7.8375 -4.6875 7.625 C-5.0175 5.645 -5.3475 3.665 -5.6875 1.625 C-2.6875 -0.375 -2.6875 -0.375 0 0 Z " fill="#8A76A6" transform="translate(271.6875,463.375)"/>
<path d="M0 0 C1.99954746 -0.04254356 4.00041636 -0.04080783 6 0 C7 1 7 1 7.125 4 C7 7 7 7 6 8 C3.66702567 8.04092937 1.33294775 8.04241723 -1 8 C-1.93065133 5.39417629 -2.14917407 4.35801776 -1.0625 1.75 C-0.711875 1.1725 -0.36125 0.595 0 0 Z " fill="#8A76A6" transform="translate(293,460)"/>
<path d="M0 0 C1.670625 0.061875 1.670625 0.061875 3.375 0.125 C3.41741723 2.45794775 3.41592937 4.79202567 3.375 7.125 C2.375 8.125 2.375 8.125 -0.6875 8.1875 C-1.656875 8.166875 -2.62625 8.14625 -3.625 8.125 C-4.285 6.145 -4.945 4.165 -5.625 2.125 C-3.625 0.125 -3.625 0.125 0 0 Z " fill="#8A76A6" transform="translate(194.625,459.875)"/>
<path d="M0 0 C1 1 1 1 1.0625 4.0625 C1.041875 5.031875 1.02125 6.00125 1 7 C-0.98 7.33 -2.96 7.66 -5 8 C-6.5625 5.6875 -6.5625 5.6875 -8 3 C-7.67 2.01 -7.34 1.02 -7 0 C-4.31633121 -1.3418344 -2.84719317 -0.73004953 0 0 Z " fill="#8A76A6" transform="translate(148,446)"/>
<path d="M0 0 C2.31 0 4.62 0 7 0 C7.33 2.31 7.66 4.62 8 7 C6.35 7.66 4.7 8.32 3 9 C0.9375 7.3125 0.9375 7.3125 -1 5 C-0.75 2.25 -0.75 2.25 0 0 Z " fill="#8A76A6" transform="translate(374,425)"/>
<path d="M0 0 C1.98 0 3.96 0 6 0 C6.33 2.31 6.66 4.62 7 7 C6.34 7 5.68 7 5 7 C5 7.66 5 8.32 5 9 C3.33388095 9.042721 1.66617115 9.04063832 0 9 C-1 8 -1 8 -1.125 5.0625 C-1 2 -1 2 0 0 Z " fill="#8A76A6" transform="translate(61,384)"/>
<path d="M0 0 C1.1446875 0.3403125 1.1446875 0.3403125 2.3125 0.6875 C2.9375 3 2.9375 3 3.3125 5.6875 C2.3225 7.1725 2.3225 7.1725 1.3125 8.6875 C-1.6575 8.1925 -1.6575 8.1925 -4.6875 7.6875 C-5.375 5.375 -5.375 5.375 -5.6875 2.6875 C-4.0011022 -0.12316299 -3.27764429 -0.38112143 0 0 Z " fill="#8A76A6" transform="translate(461.6875,299.3125)"/>
<path d="M0 0 C0.763125 0.20625 1.52625 0.4125 2.3125 0.625 C2.6425 2.605 2.9725 4.585 3.3125 6.625 C0.95811267 8.05444945 -0.16782433 8.71161261 -2.9375 8.25 C-3.515 8.04375 -4.0925 7.8375 -4.6875 7.625 C-5.0175 5.645 -5.3475 3.665 -5.6875 1.625 C-2.6875 -0.375 -2.6875 -0.375 0 0 Z " fill="#8A76A6" transform="translate(22.6875,292.375)"/>
<path d="M0 0 C1 1 1 1 1.0625 3.5625 C1.041875 4.366875 1.02125 5.17125 1 6 C-1.35438733 7.42944945 -2.48032433 8.08661261 -5.25 7.625 C-5.8275 7.41875 -6.405 7.2125 -7 7 C-7.93423645 3.98968256 -8.04449911 3.13349732 -7 0 C-4.31633121 -1.3418344 -2.84719317 -0.73004953 0 0 Z " fill="#8A76A6" transform="translate(470,211)"/>
<path d="M0 0 C0.125 2.875 0.125 2.875 0 6 C-0.66 6.66 -1.32 7.32 -2 8 C-5.125 7.625 -5.125 7.625 -8 7 C-8.6875 4.6875 -8.6875 4.6875 -9 2 C-6.73607469 -1.99516231 -4.01344788 -0.98106504 0 0 Z " fill="#8A76A6" transform="translate(25,191)"/>
<path d="M0 0 C1.99954746 -0.04254356 4.00041636 -0.04080783 6 0 C7 1 7 1 7.0625 4.5625 C7.041875 5.696875 7.02125 6.83125 7 8 C4.69 8 2.38 8 0 8 C-1.125 6.25 -1.125 6.25 -2 4 C-1.125 1.75 -1.125 1.75 0 0 Z " fill="#8A76A6" transform="translate(460,185)"/>
<path d="M0 0 C2.375 0.75 2.375 0.75 3.375 1.75 C3.41580783 3.74958364 3.41754356 5.75045254 3.375 7.75 C0.08803767 8.54953138 -1.33523192 8.84658936 -4.625 7.75 C-5.3125 5.4375 -5.3125 5.4375 -5.625 2.75 C-3.9659358 -0.015107 -3.22812218 -0.30744021 0 0 Z " fill="#8A76A6" transform="translate(316.625,22.25)"/>
<path d="M0 0 C2.31 0 4.62 0 7 0 C7.04241723 2.33294775 7.04092937 4.66702567 7 7 C6 8 6 8 2.9375 8.0625 C1.968125 8.041875 0.99875 8.02125 0 8 C-1.125 6.25 -1.125 6.25 -2 4 C-1.125 1.75 -1.125 1.75 0 0 Z " fill="#8A76A6" transform="translate(185,17)"/>
<path d="M0 0 C3.0625 -0.25 3.0625 -0.25 6 0 C7 1 7 1 7.125 4 C7 7 7 7 6 8 C4.00041636 8.04080783 1.99954746 8.04254356 0 8 C-1.125 5.6875 -1.125 5.6875 -2 3 C-1.34 2.01 -0.68 1.02 0 0 Z " fill="#8A76A6" transform="translate(255,464)"/>
<path d="M0 0 C1.010625 0.0825 2.02125 0.165 3.0625 0.25 C5.0625 3.25 5.0625 3.25 4.75 5.375 C4.0625 7.25 4.0625 7.25 3.0625 8.25 C1.06291636 8.29080783 -0.93795254 8.29254356 -2.9375 8.25 C-3.31813221 5.9239143 -3.65019945 3.58944736 -3.9375 1.25 C-2.9375 0.25 -2.9375 0.25 0 0 Z " fill="#8A76A6" transform="translate(307.9375,456.75)"/>
<path d="M0 0 C2.9375 0.1875 2.9375 0.1875 3.9375 1.1875 C4.0625 4.1875 4.0625 4.1875 3.9375 7.1875 C2.9375 8.1875 2.9375 8.1875 -0.125 8.25 C-1.094375 8.229375 -2.06375 8.20875 -3.0625 8.1875 C-3.7225 6.2075 -4.3825 4.2275 -5.0625 2.1875 C-3.0625 0.1875 -3.0625 0.1875 0 0 Z " fill="#8A76A6" transform="translate(169.0625,453.8125)"/>
<path d="M0 0 C2.9375 0.1875 2.9375 0.1875 3.9375 1.1875 C4.0625 4.1875 4.0625 4.1875 3.9375 7.1875 C2.9375 8.1875 2.9375 8.1875 -0.125 8.25 C-1.094375 8.229375 -2.06375 8.20875 -3.0625 8.1875 C-3.7225 6.2075 -4.3825 4.2275 -5.0625 2.1875 C-3.0625 0.1875 -3.0625 0.1875 0 0 Z " fill="#8A76A6" transform="translate(157.0625,449.8125)"/>
<path d="M0 0 C1.2684375 0.12375 1.2684375 0.12375 2.5625 0.25 C4.7144437 3.47791555 4.76336443 4.53400809 4.5625 8.25 C1.6875 8.875 1.6875 8.875 -1.4375 9.25 C-3.4375 7.25 -3.4375 7.25 -3.625 4.1875 C-3.37983937 0.34665019 -3.37983937 0.34665019 0 0 Z " fill="#8A76A6" transform="translate(355.4375,437.75)"/>
<path d="M0 0 C1.4540625 0.0309375 1.4540625 0.0309375 2.9375 0.0625 C3.5625 3.4375 3.5625 3.4375 3.9375 7.0625 C3.2775 7.7225 2.6175 8.3825 1.9375 9.0625 C-0.6875 8.6875 -0.6875 8.6875 -3.0625 8.0625 C-3.44313221 5.7364143 -3.77519945 3.40194736 -4.0625 1.0625 C-3.0625 0.0625 -3.0625 0.0625 0 0 Z " fill="#8A76A6" transform="translate(367.0625,431.9375)"/>
<path d="M0 0 C3 0.125 3 0.125 4 1.125 C4.1875 4.0625 4.1875 4.0625 4 7.125 C3.34 7.785 2.68 8.445 2 9.125 C-0.26274788 8.77144564 -1.95088852 8.14955574 -4 7.125 C-4.04254356 5.12545254 -4.04080783 3.12458364 -4 1.125 C-3 0.125 -3 0.125 0 0 Z " fill="#8A76A6" transform="translate(415,389.875)"/>
<path d="M0 0 C4.55555556 0.55555556 4.55555556 0.55555556 6 2 C5.71269945 4.33944736 5.38063221 6.6739143 5 9 C2.69 8.67 0.38 8.34 -2 8 C-2.125 5.125 -2.125 5.125 -2 2 C-1.34 1.34 -0.68 0.68 0 0 Z " fill="#8A76A6" transform="translate(435,358)"/>
<path d="M0 0 C1.2684375 0.12375 1.2684375 0.12375 2.5625 0.25 C4.7144437 3.47791555 4.76336443 4.53400809 4.5625 8.25 C1.6875 8.875 1.6875 8.875 -1.4375 9.25 C-3.4375 7.25 -3.4375 7.25 -3.625 4.1875 C-3.37983937 0.34665019 -3.37983937 0.34665019 0 0 Z " fill="#8A76A6" transform="translate(42.4375,351.75)"/>
<path d="M0 0 C2.31 0 4.62 0 7 0 C7.33 1.98 7.66 3.96 8 6 C5 8 5 8 1.8125 7.625 C0.884375 7.41875 -0.04375 7.2125 -1 7 C-0.67 4.69 -0.34 2.38 0 0 Z " fill="#8A76A6" transform="translate(34,341)"/>
<path d="M0 0 C2.9375 0.1875 2.9375 0.1875 3.9375 1.1875 C4.0625 4.1875 4.0625 4.1875 3.9375 7.1875 C2.9375 8.1875 2.9375 8.1875 -0.125 8.25 C-1.094375 8.229375 -2.06375 8.20875 -3.0625 8.1875 C-3.7225 6.2075 -4.3825 4.2275 -5.0625 2.1875 C-3.0625 0.1875 -3.0625 0.1875 0 0 Z " fill="#8A76A6" transform="translate(453.0625,323.8125)"/>
<path d="M0 0 C1.99954746 -0.04254356 4.00041636 -0.04080783 6 0 C7 1 7 1 7.125 4 C7 7 7 7 6 8 C4.00041636 8.04080783 1.99954746 8.04254356 0 8 C-1.125 6.25 -1.125 6.25 -2 4 C-1.125 1.75 -1.125 1.75 0 0 Z " fill="#8A76A6" transform="translate(25,317)"/>
<path d="M0 0 C1.010625 0.0825 2.02125 0.165 3.0625 0.25 C5.0625 3.25 5.0625 3.25 4.75 5.375 C4.0625 7.25 4.0625 7.25 3.0625 8.25 C1.06291636 8.29080783 -0.93795254 8.29254356 -2.9375 8.25 C-3.31813221 5.9239143 -3.65019945 3.58944736 -3.9375 1.25 C-2.9375 0.25 -2.9375 0.25 0 0 Z " fill="#8A76A6" transform="translate(23.9375,304.75)"/>
<path d="M0 0 C3.0625 -0.25 3.0625 -0.25 6 0 C7 1 7 1 7.0625 4.5625 C7.041875 5.696875 7.02125 6.83125 7 8 C4.69 8 2.38 8 0 8 C-1.125 5.6875 -1.125 5.6875 -2 3 C-1.34 2.01 -0.68 1.02 0 0 Z " fill="#8A76A6" transform="translate(14,267)"/>
<path d="M0 0 C2.64 0 5.28 0 8 0 C8.04241723 2.33294775 8.04092937 4.66702567 8 7 C7 8 7 8 4.625 8.3125 C2 8 2 8 0.125 6.25 C-1 4 -1 4 -0.6875 1.75 C-0.460625 1.1725 -0.23375 0.595 0 0 Z " fill="#8A76A6" transform="translate(463,262)"/>
<path d="M0 0 C3.0625 -0.25 3.0625 -0.25 6 0 C7 1 7 1 7.125 4 C7 7 7 7 6 8 C4.00041636 8.04080783 1.99954746 8.04254356 0 8 C-1.125 5.6875 -1.125 5.6875 -2 3 C-1.34 2.01 -0.68 1.02 0 0 Z " fill="#8A76A6" transform="translate(465,249)"/>
<path d="M0 0 C3.0625 -0.25 3.0625 -0.25 6 0 C7 1 7 1 7.125 4 C7 7 7 7 6 8 C4.00041636 8.04080783 1.99954746 8.04254356 0 8 C-1.125 5.6875 -1.125 5.6875 -2 3 C-1.34 2.01 -0.68 1.02 0 0 Z " fill="#8A76A6" transform="translate(465,236)"/>
<path d="M0 0 C3.625 -0.1875 3.625 -0.1875 7 0 C7.04241723 2.33294775 7.04092937 4.66702567 7 7 C6 8 6 8 2.9375 8.0625 C1.968125 8.041875 0.99875 8.02125 0 8 C-1.125 5.6875 -1.125 5.6875 -2 3 C-1.34 2.01 -0.68 1.02 0 0 Z " fill="#8A76A6" transform="translate(462,198)"/>
<path d="M0 0 C1.4540625 0.0309375 1.4540625 0.0309375 2.9375 0.0625 C3.73703138 3.34946233 4.03408936 4.77273192 2.9375 8.0625 C0.0625 8.1875 0.0625 8.1875 -3.0625 8.0625 C-3.7225 7.4025 -4.3825 6.7425 -5.0625 6.0625 C-4.33395709 0.0884481 -4.33395709 0.0884481 0 0 Z " fill="#8A76A6" transform="translate(24.0625,177.9375)"/>
<path d="M0 0 C1.99954746 -0.04254356 4.00041636 -0.04080783 6 0 C7 1 7 1 7.125 4 C7 7 7 7 6 8 C4.00041636 8.04080783 1.99954746 8.04254356 0 8 C-1.125 6.25 -1.125 6.25 -2 4 C-1.125 1.75 -1.125 1.75 0 0 Z " fill="#8A76A6" transform="translate(457,173)"/>
<path d="M0 0 C1.4540625 0.0309375 1.4540625 0.0309375 2.9375 0.0625 C3.5975 1.7125 4.2575 3.3625 4.9375 5.0625 C3.6175 6.3825 2.2975 7.7025 0.9375 9.0625 C-1.5375 8.0725 -1.5375 8.0725 -4.0625 7.0625 C-4.10504356 5.06295254 -4.10330783 3.06208364 -4.0625 1.0625 C-3.0625 0.0625 -3.0625 0.0625 0 0 Z " fill="#8A76A6" transform="translate(117.0625,44.9375)"/>
<path d="M0 0 C1.4540625 0.0309375 1.4540625 0.0309375 2.9375 0.0625 C3.31813221 2.3885857 3.65019945 4.72305264 3.9375 7.0625 C2.9375 8.0625 2.9375 8.0625 0 8.25 C-3.0625 8.0625 -3.0625 8.0625 -5.0625 6.0625 C-4.33395709 0.0884481 -4.33395709 0.0884481 0 0 Z " fill="#8A76A6" transform="translate(176.0625,19.9375)"/>
<path d="M0 0 C2.97 0.495 2.97 0.495 6 1 C6.93065133 3.60582371 7.14917407 4.64198224 6.0625 7.25 C5.711875 7.8275 5.36125 8.405 5 9 C2.03 8.505 2.03 8.505 -1 8 C-1.625 5.6875 -1.625 5.6875 -2 3 C-1.34 2.01 -0.68 1.02 0 0 Z " fill="#8A76A6" transform="translate(301,19)"/>
<path d="M0 0 C1.670625 0.061875 1.670625 0.061875 3.375 0.125 C3.5 5.875 3.5 5.875 2.375 8.125 C0.395 8.125 -1.585 8.125 -3.625 8.125 C-4.285 6.145 -4.945 4.165 -5.625 2.125 C-3.625 0.125 -3.625 0.125 0 0 Z " fill="#8A76A6" transform="translate(291.625,16.875)"/>
<path d="M0 0 C3 0.125 3 0.125 4 1.125 C4.04080783 3.12458364 4.04254356 5.12545254 4 7.125 C1.6875 8.25 1.6875 8.25 -1 9.125 C-1.99 8.465 -2.98 7.805 -4 7.125 C-4.25 4.0625 -4.25 4.0625 -4 1.125 C-3 0.125 -3 0.125 0 0 Z " fill="#8A76A6" transform="translate(239,11.875)"/>
<path d="M0 0 C2.375 0.25 2.375 0.25 3.375 1.25 C3.41592937 3.58297433 3.41741723 5.91705225 3.375 8.25 C1.065 8.25 -1.245 8.25 -3.625 8.25 C-4.285 6.6 -4.945 4.95 -5.625 3.25 C-3.7774876 0.91630013 -3.0311278 0.28867884 0 0 Z " fill="#8A76A6" transform="translate(219.625,462.75)"/>
<path d="M0 0 C2.5625 0.1875 2.5625 0.1875 4.5625 2.1875 C4.75 4.75 4.75 4.75 4.5625 7.1875 C3.5625 8.1875 3.5625 8.1875 0.625 8.375 C-2.4375 8.1875 -2.4375 8.1875 -4.4375 6.1875 C-3.71780303 0.28598485 -3.71780303 0.28598485 0 0 Z " fill="#8A76A6" transform="translate(90.4375,411.8125)"/>
<path d="M0 0 C2.33944736 0.28730055 4.6739143 0.61936779 7 1 C7.125 3.875 7.125 3.875 7 7 C6.34 7.66 5.68 8.32 5 9 C2.73725212 8.64644564 1.04911148 8.02455574 -1 7 C-1.04254356 5.00045254 -1.04080783 2.99958364 -1 1 C-0.67 0.67 -0.34 0.34 0 0 Z " fill="#8A76A6" transform="translate(420,380)"/>
<path d="M0 0 C3.125 0.375 3.125 0.375 6 1 C5.67 3.31 5.34 5.62 5 8 C0.25 9.125 0.25 9.125 -2 8 C-2.125 5.125 -2.125 5.125 -2 2 C-1.34 1.34 -0.68 0.68 0 0 Z " fill="#8A76A6" transform="translate(441,347)"/>
<path d="M0 0 C3.0625 -0.25 3.0625 -0.25 6 0 C7 1 7 1 7.125 4 C7 7 7 7 6 8 C4.00041636 8.04080783 1.99954746 8.04254356 0 8 C-1.125 5.6875 -1.125 5.6875 -2 3 C-1.34 2.01 -0.68 1.02 0 0 Z " fill="#8A76A6" transform="translate(14,216)"/>
<path d="M0 0 C2.5 -0.3125 2.5 -0.3125 5 0 C7 2 7 2 7.1875 4.5625 C7 7 7 7 6 8 C3.66702567 8.04092937 1.33294775 8.04241723 -1 8 C-1.625 5.6875 -1.625 5.6875 -2 3 C-1.34 2.01 -0.68 1.02 0 0 Z " fill="#8A76A6" transform="translate(16,203)"/>
<path d="M0 0 C2.625 0.625 2.625 0.625 5 2 C5.9375 3.9375 5.9375 3.9375 6 6 C5.01 7.485 5.01 7.485 4 9 C1.69 8.67 -0.62 8.34 -3 8 C-3.1875 5.125 -3.1875 5.125 -3 2 C-2.01 1.34 -1.02 0.68 0 0 Z " fill="#8A76A6" transform="translate(53,107)"/>
<path d="M0 0 C2.31 0 4.62 0 7 0 C7.04241723 2.33294775 7.04092937 4.66702567 7 7 C6 8 6 8 3.625 8.3125 C1 8 1 8 -0.8125 6 C-1.204375 5.34 -1.59625 4.68 -2 4 C-1.34 2.68 -0.68 1.36 0 0 Z " fill="#8A76A6" transform="translate(275,15)"/>
<path d="M0 0 C2.33294775 -0.04241723 4.66702567 -0.04092937 7 0 C8 1 8 1 8.1875 3.4375 C8 6 8 6 6 8 C3.375 8.125 3.375 8.125 1 8 C-1.125 3.375 -1.125 3.375 0 0 Z " fill="#8A76A6" transform="translate(197,15)"/>
<path d="M0 0 C0.78375 0.04125 1.5675 0.0825 2.375 0.125 C3.80444945 2.47938733 4.46161261 3.60532433 4 6.375 C3.79375 6.9525 3.5875 7.53 3.375 8.125 C1.065 8.125 -1.245 8.125 -3.625 8.125 C-4.25 5.25 -4.25 5.25 -4.625 2.125 C-2.625 0.125 -2.625 0.125 0 0 Z " fill="#8A76A6" transform="translate(213.625,12.875)"/>
<path d="M0 0 C2.31 0 4.62 0 7 0 C7.625 2.3125 7.625 2.3125 8 5 C7.01 6.485 7.01 6.485 6 8 C3.375 8.1875 3.375 8.1875 1 8 C0.26919734 6.02253397 -0.39421747 4.01927511 -1 2 C-0.67 1.34 -0.34 0.68 0 0 Z " fill="#8A76A6" transform="translate(203,462)"/>
<path d="M0 0 C2.33944736 0.28730055 4.6739143 0.61936779 7 1 C7.125 3.375 7.125 3.375 7 6 C5 8 5 8 2.5 8.25 C0 8 0 8 -2 6 C-1.44444444 1.44444444 -1.44444444 1.44444444 0 0 Z " fill="#8A76A6" transform="translate(98,420)"/>
<path d="M0 0 C3.0625 -0.25 3.0625 -0.25 6 0 C7 1 7 1 7.125 4 C7 7 7 7 6 8 C3.66055264 7.71269945 1.3260857 7.38063221 -1 7 C-1.625 5.1875 -1.625 5.1875 -2 3 C-1.34 2.01 -0.68 1.02 0 0 Z " fill="#8A76A6" transform="translate(13,229)"/>
<path d="M0 0 C3.125 -0.1875 3.125 -0.1875 6 0 C6.33 2.31 6.66 4.62 7 7 C4.69 7.33 2.38 7.66 0 8 C-1.125 5.6875 -1.125 5.6875 -2 3 C-1.34 2.01 -0.68 1.02 0 0 Z " fill="#8A76A6" transform="translate(432,114)"/>
<path d="M0 0 C1.010625 0.0825 2.02125 0.165 3.0625 0.25 C5.0625 3.25 5.0625 3.25 4.75 5.375 C4.0625 7.25 4.0625 7.25 3.0625 8.25 C0.625 8.4375 0.625 8.4375 -1.9375 8.25 C-3.9375 6.25 -3.9375 6.25 -4.125 3.6875 C-3.85121288 0.1282675 -3.61900269 0.30800023 0 0 Z " fill="#8A76A6" transform="translate(419.9375,92.75)"/>
<path d="M0 0 C2.4375 0.1875 2.4375 0.1875 3.4375 1.1875 C3.47842937 3.52047433 3.47991723 5.85455225 3.4375 8.1875 C1.10455225 8.22991723 -1.22952567 8.22842937 -3.5625 8.1875 C-4.5625 7.1875 -4.5625 7.1875 -4.75 4.75 C-4.48737296 1.16076381 -3.58923619 0.26262704 0 0 Z " fill="#8A76A6" transform="translate(283.5625,461.8125)"/>
<path d="M0 0 C2.4375 0.1875 2.4375 0.1875 3.4375 1.1875 C3.47842937 3.52047433 3.47991723 5.85455225 3.4375 8.1875 C1.10455225 8.22991723 -1.22952567 8.22842937 -3.5625 8.1875 C-4.5625 7.1875 -4.5625 7.1875 -4.75 4.75 C-4.48737296 1.16076381 -3.58923619 0.26262704 0 0 Z " fill="#8A76A6" transform="translate(16.5625,253.8125)"/>
<path d="M0 0 C2.4375 0.1875 2.4375 0.1875 3.4375 1.1875 C3.5625 4.1875 3.5625 4.1875 3.4375 7.1875 C2.4375 8.1875 2.4375 8.1875 -1.125 8.25 C-2.259375 8.229375 -3.39375 8.20875 -4.5625 8.1875 C-4.6875 5.3125 -4.6875 5.3125 -4.5625 2.1875 C-2.5625 0.1875 -2.5625 0.1875 0 0 Z " fill="#8A76A6" transform="translate(468.5625,222.8125)"/>
<path d="M0 0 C1.4540625 0.0309375 1.4540625 0.0309375 2.9375 0.0625 C3.2675 2.3725 3.5975 4.6825 3.9375 7.0625 C2.2875 7.7225 0.6375 8.3825 -1.0625 9.0625 C-2.5625 7.875 -2.5625 7.875 -4.0625 6.0625 C-4.3125 3.4375 -4.3125 3.4375 -4.0625 1.0625 C-3.0625 0.0625 -3.0625 0.0625 0 0 Z " fill="#8A76A6" transform="translate(428.0625,102.9375)"/>
<path d="M0 0 C3 0.125 3 0.125 4 1.125 C4.25 4.0625 4.25 4.0625 4 7.125 C1 9.125 1 9.125 -1.1875 8.75 C-1.785625 8.54375 -2.38375 8.3375 -3 8.125 C-3.38063221 5.7989143 -3.71269945 3.46444736 -4 1.125 C-3 0.125 -3 0.125 0 0 Z " fill="#8A76A6" transform="translate(394,64.875)"/>
<path d="M0 0 C2.5 -0.3125 2.5 -0.3125 5 0 C5.66 0.66 6.32 1.32 7 2 C6.625 5.125 6.625 5.125 6 8 C3.69 8 1.38 8 -1 8 C-1.625 5.6875 -1.625 5.6875 -2 3 C-1.34 2.01 -0.68 1.02 0 0 Z " fill="#8A76A6" transform="translate(263,13)"/>
<path d="M0 0 C5.875 0.875 5.875 0.875 7 2 C7.04080783 3.99958364 7.04254356 6.00045254 7 8 C4.69 8 2.38 8 0 8 C-1.125 5.6875 -1.125 5.6875 -2 3 C-1.34 2.01 -0.68 1.02 0 0 Z " fill="#8A76A6" transform="translate(250,12)"/>
<path d="M0 0 C2.375 -0.125 2.375 -0.125 5 0 C5.66 0.66 6.32 1.32 7 2 C6.625 5.125 6.625 5.125 6 8 C4.02 8 2.04 8 0 8 C-1.125 6.25 -1.125 6.25 -2 4 C-1.125 1.75 -1.125 1.75 0 0 Z " fill="#8975A5" transform="translate(461,287)"/>
<path d="M0 0 C2.00720923 0.28674418 4.0085944 0.61866701 6 1 C6.93065133 3.60582371 7.14917407 4.64198224 6.0625 7.25 C5.711875 7.8275 5.36125 8.405 5 9 C2.03 8.505 2.03 8.505 -1 8 C-1.04241723 5.66705225 -1.04092937 3.33297433 -1 1 C-0.67 0.67 -0.34 0.34 0 0 Z " fill="#8A76A6" transform="translate(463,274)"/>
<path d="M0 0 C2.75 0.25 2.75 0.25 5 1 C5.04254356 2.99954746 5.04080783 5.00041636 5 7 C4 8 4 8 0.9375 8.0625 C-0.031875 8.041875 -1.00125 8.02125 -2 8 C-2.66 6.68 -3.32 5.36 -4 4 C-2.3125 1.9375 -2.3125 1.9375 0 0 Z " fill="#8A76A6" transform="translate(225,12)"/>
<path d="M0 0 C2.33944736 0.28730055 4.6739143 0.61936779 7 1 C6.67 3.31 6.34 5.62 6 8 C3.69 7.67 1.38 7.34 -1 7 C-1.04254356 5.00045254 -1.04080783 2.99958364 -1 1 C-0.67 0.67 -0.34 0.34 0 0 Z " fill="#8A76A6" transform="translate(119,434)"/>
<path d="M0 0 C1.98 0 3.96 0 6 0 C6 2.64 6 5.28 6 8 C2.98968256 8.93423645 2.13349732 9.04449911 -1 8 C-1.125 2.25 -1.125 2.25 0 0 Z " fill="#8A76A6" transform="translate(409,83)"/>
<path d="M0 0 C1 1 1 1 1.1875 3.4375 C1 6 1 6 -1 8 C-3.625 7.625 -3.625 7.625 -6 7 C-6.33 4.69 -6.66 2.38 -7 0 C-4.31633121 -1.3418344 -2.84719317 -0.73004953 0 0 Z " fill="#8A76A6" transform="translate(90,69)"/>
<path d="M0 0 C2.33944736 0.28730055 4.6739143 0.61936779 7 1 C6.67 3.31 6.34 5.62 6 8 C3.69 7.67 1.38 7.34 -1 7 C-1.04254356 5.00045254 -1.04080783 2.99958364 -1 1 C-0.67 0.67 -0.34 0.34 0 0 Z " fill="#8A76A6" transform="translate(381,57)"/>
<path d="M0 0 C2.33294775 -0.04241723 4.66702567 -0.04092937 7 0 C8 1 8 1 8.0625 4.0625 C8.041875 5.031875 8.02125 6.00125 8 7 C5.69 7 3.38 7 1 7 C-0.0625 4.625 -0.0625 4.625 -1 2 C-0.67 1.34 -0.34 0.68 0 0 Z " fill="#8A76A6" transform="translate(241,465)"/>
<path d="M0 0 C0 2.64 0 5.28 0 8 C-1.65 8 -3.3 8 -5 8 C-5 7.34 -5 6.68 -5 6 C-5.66 6 -6.32 6 -7 6 C-7 4.02 -7 2.04 -7 0 C-4.3333581 -1.33332095 -2.83319697 -0.67102033 0 0 Z " fill="#8A76A6" transform="translate(84,404)"/>
<path d="M0 0 C3.625 -0.1875 3.625 -0.1875 7 0 C7.625 1.8125 7.625 1.8125 8 4 C7.01 5.485 7.01 5.485 6 7 C2.375 7.1875 2.375 7.1875 -1 7 C-1.625 5.1875 -1.625 5.1875 -2 3 C-1.34 2.01 -0.68 1.02 0 0 Z " fill="#8A76A6" transform="translate(13,242)"/>
<path d="M0 0 C2.31 0 4.62 0 7 0 C7 2.64 7 5.28 7 8 C4.19637237 8.22732116 2.53813483 8.34081872 0.125 6.8125 C-1 5 -1 5 -0.6875 2.3125 C-0.460625 1.549375 -0.23375 0.78625 0 0 Z " fill="#8975A5" transform="translate(15,280)"/>
<path d="M0 0 C1.134375 0.020625 2.26875 0.04125 3.4375 0.0625 C3.81968767 1.71864657 4.15145102 3.38707024 4.4375 5.0625 C3.4375 6.0625 3.4375 6.0625 -0.125 6.125 C-1.259375 6.104375 -2.39375 6.08375 -3.5625 6.0625 C-3.94468767 4.40635343 -4.27645102 2.73792976 -4.5625 1.0625 C-3.5625 0.0625 -3.5625 0.0625 0 0 Z " fill="#8A76A6" transform="translate(397.5625,409.9375)"/>
<path d="M0 0 C1.134375 0.020625 2.26875 0.04125 3.4375 0.0625 C3.81968767 1.71864657 4.15145102 3.38707024 4.4375 5.0625 C3.4375 6.0625 3.4375 6.0625 -0.125 6.125 C-1.259375 6.104375 -2.39375 6.08375 -3.5625 6.0625 C-3.94468767 4.40635343 -4.27645102 2.73792976 -4.5625 1.0625 C-3.5625 0.0625 -3.5625 0.0625 0 0 Z " fill="#8A76A6" transform="translate(406.5625,400.9375)"/>
<path d="M0 0 C1.134375 0.020625 2.26875 0.04125 3.4375 0.0625 C3.81968767 1.71864657 4.15145102 3.38707024 4.4375 5.0625 C3.4375 6.0625 3.4375 6.0625 -0.125 6.125 C-1.259375 6.104375 -2.39375 6.08375 -3.5625 6.0625 C-3.94468767 4.40635343 -4.27645102 2.73792976 -4.5625 1.0625 C-3.5625 0.0625 -3.5625 0.0625 0 0 Z " fill="#8A76A6" transform="translate(403.5625,74.9375)"/>
</svg>
