<?xml version="1.0" encoding="UTF-8"?>
<svg version="1.1" xmlns="http://www.w3.org/2000/svg" width="484" height="485">
<path d="M0 0 C1.13115234 0.15662109 1.13115234 0.15662109 2.28515625 0.31640625 C7.15914849 11.68905481 7.23542218 27.11033346 2.65625 38.58203125 C-0.76086157 45.39678366 -5.18372356 51.39042476 -9.87890625 57.359375 C-20.6659296 71.07666997 -30.71484375 86.15100632 -30.71484375 104.31640625 C-30.36035156 103.84332031 -30.00585938 103.37023437 -29.640625 102.8828125 C-20.23514743 91.19997958 -6.86709271 85.09197808 6.28808594 78.54052734 C18.18209458 72.562558 28.76729542 65.66150063 38.28515625 56.31640625 C39.42597656 55.21232422 39.42597656 55.21232422 40.58984375 54.0859375 C49.40891966 44.97696117 54.71022724 33.56648772 60.28515625 22.31640625 C61.93515625 22.31640625 63.58515625 22.31640625 65.28515625 22.31640625 C72.45141416 39.15917918 72.04838956 63.44858032 65.28515625 80.31640625 C64.81078125 81.49976563 64.33640625 82.683125 63.84765625 83.90234375 C55.80546767 101.72661748 40.89263593 112.41895109 24.47265625 122.12890625 C3.91060131 134.52045258 -12.78111775 148.98655822 -19.02734375 173.19140625 C-19.65296367 175.88919207 -20.20046116 178.59541636 -20.71484375 181.31640625 C-20.94945312 182.5178125 -21.1840625 183.71921875 -21.42578125 184.95703125 C-22.91494672 195.84502798 -18.94609693 202.86724428 -13.1796875 211.65625 C-3.32626671 224.38253517 14.53880532 230.70978004 29.28515625 235.31640625 C29.61515625 234.98640625 29.94515625 234.65640625 30.28515625 234.31640625 C29.54910156 233.7646875 28.81304687 233.21296875 28.0546875 232.64453125 C15.94983774 222.46894527 8.30948951 205.31234283 4.28515625 190.31640625 C4.06085938 189.48625 3.8365625 188.65609375 3.60546875 187.80078125 C2.23232041 181.66863937 2.08444443 175.57424448 2.03515625 169.31640625 C2.02581055 168.47843506 2.01646484 167.64046387 2.00683594 166.77709961 C2.01102539 165.9856958 2.01521484 165.19429199 2.01953125 164.37890625 C2.02178711 163.66863281 2.02404297 162.95835937 2.02636719 162.2265625 C2.28515625 160.31640625 2.28515625 160.31640625 4.28515625 157.31640625 C18.41822254 157.95881835 31.67999601 169.2280258 41.09765625 179.06640625 C56.96874726 197.72801876 62.37320731 221.38560824 63.28515625 245.31640625 C64.00058594 245.46335937 64.71601563 245.6103125 65.453125 245.76171875 C73.6440956 247.60548186 80.80484176 250.53930918 88.28515625 254.31640625 C89.24679688 254.79207031 90.2084375 255.26773438 91.19921875 255.7578125 C104.79767882 262.78687566 118.12161527 273.30263892 123.09765625 288.25390625 C125.60254156 297.62933411 124.50139854 306.10434949 120.03125 314.73828125 C114.7623924 323.29479114 107.99464295 327.96957693 98.28515625 330.31640625 C94.77314969 330.73780612 91.31968662 330.79343326 87.78515625 330.75390625 C86.34329956 330.74254639 86.34329956 330.74254639 84.87231445 330.73095703 C69.81989358 330.38877141 56.25411643 325.56132246 42.28515625 320.31640625 C41.72828125 320.95707031 41.17140625 321.59773438 40.59765625 322.2578125 C28.22791531 336.27824522 15.70704283 345.17989055 -3.53125 346.59765625 C-25.88373463 347.12205472 -47.14716184 339.65932383 -66.71484375 329.31640625 C-67.37484375 328.65640625 -68.03484375 327.99640625 -68.71484375 327.31640625 C-68.61279297 325.34912109 -68.61279297 325.34912109 -67.71484375 323.31640625 C-61.57715008 318.91922896 -53.75598953 316.80016707 -46.58984375 314.69140625 C-45.57849365 314.39145752 -44.56714355 314.09150879 -43.52514648 313.7824707 C-27.38510866 309.09681878 -11.43758952 307.48306073 5.28515625 306.31640625 C3.84810101 305.19474245 2.41049464 304.07378472 0.97265625 302.953125 C0.17214844 302.32881592 -0.62835938 301.70450684 -1.453125 301.0612793 C-3.18676965 299.72380539 -4.94562824 298.41895923 -6.71484375 297.12890625 C-23.2369202 283.03250862 -30.58777109 259.36755769 -32.4375 238.4296875 C-34.58768858 209.06209591 -34.58768858 209.06209591 -29.71484375 199.31640625 C-30.62234375 199.29578125 -31.52984375 199.27515625 -32.46484375 199.25390625 C-45.82273688 197.28395433 -57.54966821 184.58497857 -65.484375 174.515625 C-80.80626887 152.53903817 -87.00599726 126.16389491 -82.58984375 99.69140625 C-77.35832773 71.61191181 -60.75477034 53.75677617 -38.27734375 37.44140625 C-24.7058953 27.58271164 -12.80467871 17.23186757 -4.5234375 2.4765625 C-2.71484375 0.31640625 -2.71484375 0.31640625 0 0 Z M-2.71484375 23.31640625 C-1.71484375 25.31640625 -1.71484375 25.31640625 -1.71484375 25.31640625 Z M-3.71484375 26.31640625 C-4.19953125 27.3321875 -4.68421875 28.34796875 -5.18359375 29.39453125 C-10.50816723 40.39829159 -16.63601557 50.29713457 -24.0456543 60.03613281 C-33.13979054 71.99294499 -41.68240761 84.0357651 -46.71484375 98.31640625 C-47.12734375 99.47140625 -47.53984375 100.62640625 -47.96484375 101.81640625 C-50.01677725 111.3920959 -49.73110952 120.62279433 -48.71484375 130.31640625 C-50.19984375 130.81140625 -50.19984375 130.81140625 -51.71484375 131.31640625 C-52.37484375 130.98640625 -53.03484375 130.65640625 -53.71484375 130.31640625 C-59.08788376 112.40627289 -52.20475295 93.36928804 -44.00146484 77.65136719 C-40.66366357 71.59392289 -36.74542397 65.92786234 -32.71484375 60.31640625 C-31.78254525 59.00911945 -30.85025349 57.70182786 -29.91796875 56.39453125 C-29.1909375 55.37875 -28.46390625 54.36296875 -27.71484375 53.31640625 C-28.20984375 52.32640625 -28.20984375 52.32640625 -28.71484375 51.31640625 C-50.3445341 68.43402784 -50.3445341 68.43402784 -60.33984375 93.19140625 C-60.47138598 94.5657958 -60.59866731 95.94063264 -60.71484375 97.31640625 C-62.36484375 96.98640625 -64.01484375 96.65640625 -65.71484375 96.31640625 C-66.52825773 83.84405862 -60.58197425 73.54379503 -52.58984375 64.37890625 C-45.31946469 56.58133276 -37.269706 49.53988174 -29.140625 42.65625 C-27.58909471 41.35285804 -27.58909471 41.35285804 -26.71484375 39.31640625 C-29.48767434 40.61360807 -31.80677109 42.04343007 -34.18359375 43.96875 C-34.83134766 44.49227051 -35.47910156 45.01579102 -36.14648438 45.55517578 C-36.82904297 46.11575684 -37.51160156 46.67633789 -38.21484375 47.25390625 C-38.92318359 47.8351123 -39.63152344 48.41631836 -40.36132812 49.01513672 C-59.02642438 64.43614163 -74.09153725 80.90513223 -76.58984375 106.1484375 C-78.05197048 131.50719791 -71.63594916 156.60386947 -55.3203125 176.40234375 C-48.16719428 184.40268287 -39.26832403 190.80334318 -28.71484375 193.31640625 C-28.65014893 192.75880615 -28.5854541 192.20120605 -28.51879883 191.62670898 C-25.68348038 167.93415524 -19.38283011 146.35182256 -0.234375 130.48828125 C6.64346861 125.09264944 14.14951995 120.77283987 21.65234375 116.31640625 C40.88038648 104.73433816 55.34279386 91.23036191 61.59375 69.25390625 C62.68525802 64.61653885 63.41992647 60.21124072 63.34765625 55.44140625 C63.33863281 54.66023438 63.32960937 53.8790625 63.3203125 53.07421875 C63.30871094 52.49414062 63.29710937 51.9140625 63.28515625 51.31640625 C61.67003017 54.29124312 60.54281629 57.350242 59.43481445 60.54370117 C50.35561545 86.33086734 33.91244611 105.28034928 10.0390625 118.56640625 C7.72956253 119.55398753 5.76727109 119.45430152 3.28515625 119.31640625 C3.48828125 116.984375 3.48828125 116.984375 4.28515625 114.31640625 C6.33203125 112.8671875 6.33203125 112.8671875 9.03515625 111.62890625 C26.50327067 102.80386927 40.63745247 87.85119661 49.28515625 70.31640625 C49.95861056 67.63669314 49.95861056 67.63669314 50.28515625 65.31640625 C46.80137811 68.73187502 43.56179085 72.26669459 40.34765625 75.94140625 C30.97934606 86.30957878 19.56960169 93.8864997 8.05957031 101.68017578 C-5.19694861 110.67701962 -18.12278006 120.25536746 -22.30859375 136.640625 C-22.64141782 138.69636295 -22.64141782 138.69636295 -22.71484375 141.31640625 C-24.36484375 140.98640625 -26.01484375 140.65640625 -27.71484375 140.31640625 C-27.66355513 128.72517751 -22.54935947 119.24642108 -14.65234375 110.94921875 C-7.05416127 104.13914562 1.55199226 98.51472798 9.98828125 92.8046875 C16.93938198 88.08551603 23.14177506 83.03915954 29.28515625 77.31640625 C31.26143874 75.61735777 33.26556278 73.96396935 35.28515625 72.31640625 C31.6095774 72.31640625 29.86261462 73.39137124 26.61328125 75.09765625 C25.48075928 75.68853027 24.3482373 76.2794043 23.18139648 76.88818359 C21.96577709 77.53053482 20.75036747 78.17328317 19.53515625 78.81640625 C18.29974723 79.46601271 17.06415106 80.11526337 15.82836914 80.76416016 C13.40173445 82.03933573 10.97701928 83.31807268 8.55322266 84.59863281 C5.88365212 86.00182258 3.20615003 87.3837571 0.515625 88.74609375 C-15.00879286 96.65656422 -25.96745892 106.6162135 -33.71484375 122.31640625 C-35.03484375 122.31640625 -36.35484375 122.31640625 -37.71484375 122.31640625 C-38.50703119 95.3233528 -32.04531005 75.61707854 -15.71044922 53.83081055 C-11.81941437 48.59027994 -8.57101726 43.19334633 -5.71484375 37.31640625 C-5.19083984 36.28193359 -5.19083984 36.28193359 -4.65625 35.2265625 C-3.0136403 31.77343188 -2.58132939 29.93583488 -3.71484375 26.31640625 Z M50.28515625 63.31640625 C51.28515625 65.31640625 51.28515625 65.31640625 51.28515625 65.31640625 Z M19.28515625 171.31640625 C19.63634521 171.77281494 19.98753418 172.22922363 20.34936523 172.69946289 C24.5670051 178.24420199 28.48884833 183.95524256 32.34765625 189.75390625 C32.94642578 190.64400391 33.54519531 191.53410156 34.16210938 192.45117188 C44.15915166 207.44126047 44.15915166 207.44126047 45.28515625 214.31640625 C43.63515625 214.31640625 41.98515625 214.31640625 40.28515625 214.31640625 C39.846875 213.50300781 39.40859375 212.68960938 38.95703125 211.8515625 C35.01252652 204.72419521 30.78611005 197.91862316 26.09765625 191.25390625 C25.59911133 190.54049072 25.10056641 189.8270752 24.58691406 189.09204102 C21.75899245 185.12684395 18.8386439 181.64901898 15.28515625 178.31640625 C18.55813788 189.22634502 23.0681126 198.56495907 30.74609375 207.0625 C32.55659166 209.71391445 32.60685324 211.17154086 32.28515625 214.31640625 C28.69985796 214.06979843 27.48571621 213.52778901 24.96875 210.875 C24.22753906 209.84503906 23.48632812 208.81507813 22.72265625 207.75390625 C22.33279541 207.21540039 21.94293457 206.67689453 21.54125977 206.12207031 C18.63447368 202.02656074 16.31251204 197.89999325 14.28515625 193.31640625 C12.80502837 197.7567899 14.74346041 200.1258693 16.70703125 204.21484375 C24.66708599 219.85910975 35.23048099 234.52603144 52.59765625 240.37890625 C54.42296875 240.84296875 54.42296875 240.84296875 56.28515625 241.31640625 C55.46007877 217.59542875 47.79430139 194.57503927 30.20703125 177.97265625 C25.30469977 173.3283752 25.30469977 173.3283752 19.28515625 171.31640625 Z M12.28515625 191.31640625 C13.28515625 193.31640625 13.28515625 193.31640625 13.28515625 193.31640625 Z M-29.71484375 317.31640625 C-29.71484375 317.64640625 -29.71484375 317.97640625 -29.71484375 318.31640625 C-18.6845011 318.49756151 -7.72432698 317.93109325 3.28515625 317.31640625 C3.28515625 319.29640625 3.28515625 321.27640625 3.28515625 323.31640625 C2.22941406 323.34613525 2.22941406 323.34613525 1.15234375 323.37646484 C-12.23748686 323.77195429 -25.46480088 324.25484369 -38.71484375 326.31640625 C-38.71484375 326.64640625 -38.71484375 326.97640625 -38.71484375 327.31640625 C-26.39145191 328.96058936 -14.13602253 329.82829374 -1.71484375 330.31640625 C-1.71484375 331.96640625 -1.71484375 333.61640625 -1.71484375 335.31640625 C-12.75796561 335.46299636 -23.69594836 335.02323115 -34.71484375 334.31640625 C-26.93159966 339.50523565 -17.10428316 339.61907364 -8.02734375 339.69140625 C-6.72821045 339.71195068 -6.72821045 339.71195068 -5.40283203 339.73291016 C8.06396917 339.63841525 20.80655539 333.87227831 30.28515625 324.31640625 C33.33880173 321.2416733 33.33880173 321.2416733 34.28515625 317.31640625 C13.48864261 312.26023506 -8.88280951 312.63129011 -29.71484375 317.31640625 Z " fill="#6D5490" transform="translate(147.71484375,71.68359375)"/>
<path d="M0 0 C0.33 -1.65 0.66 -3.3 1 -5 C3.31 -5 5.62 -5 8 -5 C8 -2.36 8 0.28 8 3 C7.01 3.33 6.02 3.66 5 4 C4.87294678 4.6285791 4.74589355 5.2571582 4.61499023 5.90478516 C4 8 4 8 1.90258789 9.35693359 C-4.81624274 12.21481419 -11.54011181 14.62485434 -18.5625 16.625 C-20.13221558 17.07383545 -20.13221558 17.07383545 -21.73364258 17.53173828 C-37.80500415 22.00780461 -53.35473479 23.52395198 -70 24 C-69.443125 24.35191406 -68.88625 24.70382813 -68.3125 25.06640625 C-49.37325432 37.3193304 -38.03274925 55.10396297 -33 77 C-31.25777167 86.0406672 -30.68910723 94.80519189 -30.75 104 C-30.74226562 105.16789062 -30.73453125 106.33578125 -30.7265625 107.5390625 C-30.74426972 115.52502065 -31.56820162 123.14630866 -33 131 C-32.41210693 131.16822266 -31.82421387 131.33644531 -31.21850586 131.50976562 C-13.05441252 136.84778489 0.19269874 151.37131566 9.265625 167.45703125 C11.37364173 171.76327264 13.13625774 176.13555159 14.8125 180.625 C15.10261963 181.40029053 15.39273926 182.17558105 15.69165039 182.97436523 C23.71918486 205.41879294 22.15015894 231.50944929 12.40234375 253.16796875 C4.70321675 268.716345 -5.35718326 278.75449901 -19 289 C-41.8405257 305.63152787 -41.8405257 305.63152787 -58.48046875 328.03125 C-60 330 -60 330 -62.67578125 330.78125 C-63.44277344 330.8534375 -64.20976562 330.925625 -65 331 C-70.44874783 317.49658146 -70.48597158 304.54349234 -65 291 C-61.83638563 284.45527277 -57.41450546 278.8696354 -52.96557617 273.16577148 C-41.53047789 258.43722803 -34.11040565 244.96215227 -32 226 C-32.34289062 226.46148437 -32.68578125 226.92296875 -33.0390625 227.3984375 C-43.01021441 239.82553815 -57.26738683 246.49955825 -71.25439453 253.38305664 C-96.40001924 265.86096234 -111.16389522 282.95769472 -123 308 C-124.98 308 -126.96 308 -129 308 C-129.48539869 306.16830682 -129.96297186 304.33453941 -130.4375 302.5 C-130.70433594 301.4790625 -130.97117187 300.458125 -131.24609375 299.40625 C-135.95971446 278.10947665 -132.99705217 256.16504765 -121.8125 237.375 C-113.1765968 224.40245277 -100.77804067 216.57955632 -87.6875 208.6875 C-66.87710444 195.93587919 -50.22299116 181.59719137 -44 157 C-43.10439234 153.01094291 -42.4543932 149.06249159 -42 145 C-41.89171875 144.08347656 -41.7834375 143.16695312 -41.671875 142.22265625 C-41.05704923 132.48325704 -45.50813832 124.73775962 -51.5 117.3125 C-62.22847243 106.14036894 -79.67043271 97.2571142 -95 95 C-94.11054688 95.70511719 -93.22109375 96.41023438 -92.3046875 97.13671875 C-76.38007377 110.45081662 -67.52766186 132.50957744 -65.44140625 152.73828125 C-64.926514 159.2521865 -64.69927597 165.54455479 -66 172 C-66.66 172.66 -67.32 173.32 -68 174 C-81.487273 173.01910742 -95.31392493 161.08343727 -104.125 151.875 C-119.87240862 133.1910869 -125.5004589 109.94094922 -127 86 C-128.12535156 85.6596875 -129.25070312 85.319375 -130.41015625 84.96875 C-151.39190471 78.42776004 -172.17375325 68.07614862 -183.73828125 48.52734375 C-188.20001119 39.59007046 -188.52058637 29.61243746 -185.4375 20.125 C-181.74027916 11.33440499 -175.74898377 5.67516835 -167 2 C-148.04214937 -4.91020891 -126.63219136 2.67040338 -108.80908203 9.4050293 C-107.00075298 10.10413925 -107.00075298 10.10413925 -105 10 C-103.43135918 8.4492093 -103.43135918 8.4492093 -101.8125 6.4375 C-100.86117187 5.33728516 -100.86117187 5.33728516 -99.890625 4.21484375 C-98.75845012 2.88851491 -97.63910353 1.55081972 -96.546875 0.19140625 C-92.69039105 -4.20295572 -88.21791215 -6.71084689 -83.0625 -9.3125 C-82.39420166 -9.65023437 -81.72590332 -9.98796875 -81.03735352 -10.3359375 C-55.10563825 -22.83223536 -23.92408352 -12.40651181 0 0 Z M-94 7 C-95.50945615 8.9511436 -96.75046027 10.86536963 -98 13 C-75.16713279 18.16419045 -53.93020293 17.8697132 -31 13 C-31 12.67 -31 12.34 -31 12 C-42.22 12.33 -53.44 12.66 -65 13 C-65.33 11.35 -65.66 9.7 -66 8 C-44.715 6.515 -44.715 6.515 -23 5 C-27.17460432 2.91269784 -30.50418164 2.48565433 -35.046875 2.1484375 C-35.81807678 2.08467926 -36.58927856 2.02092102 -37.3838501 1.95523071 C-39.83867797 1.7540668 -42.29423816 1.56438543 -44.75 1.375 C-46.41803005 1.24034048 -48.08599984 1.10493235 -49.75390625 0.96875 C-53.83529008 0.63715375 -57.91736865 0.31585008 -62 0 C-62 -1.32 -62 -2.64 -62 -4 C-51.44 -4 -40.88 -4 -30 -4 C-48.63378875 -16.42252584 -79.69061618 -8.3757081 -94 7 Z M-119 90 C-120.06090411 110.15717802 -112.01465485 131.19088496 -99.21484375 146.5703125 C-94.19169967 152.08071042 -89.17910735 157.55170762 -82 160 C-82.36496582 159.5167627 -82.72993164 159.03352539 -83.10595703 158.53564453 C-108.80883113 124.39940017 -108.80883113 124.39940017 -108 116 C-105.74609375 116.0703125 -105.74609375 116.0703125 -103 117 C-101.46032312 119.29574088 -100.26714 121.41142801 -99.0625 123.875 C-93.77192903 134.01828543 -86.94313327 142.94231984 -80 152 C-78.59978943 148.89179362 -78.59978943 148.89179362 -80.44140625 145.5234375 C-81.13630122 144.13448661 -81.84409168 142.75193612 -82.5625 141.375 C-82.92947998 140.65803955 -83.29645996 139.9410791 -83.67456055 139.20239258 C-88.25449388 130.1577285 -88.25449388 130.1577285 -94.6875 122.4375 C-95.120625 121.963125 -95.55375 121.48875 -96 121 C-95.6875 118.3125 -95.6875 118.3125 -95 116 C-90.94622189 116.50559371 -89.51463758 118.35349475 -87.0625 121.5 C-83.52392634 126.09022453 -80.59940962 130.82617508 -78 136 C-76.78229104 132.34687311 -77.62527888 131.06054211 -79.24731445 127.70727539 C-79.59882568 127.02012451 -79.95033691 126.33297363 -80.3125 125.625 C-80.67496826 124.91400146 -81.03743652 124.20300293 -81.41088867 123.47045898 C-89.07140668 108.93382623 -100.18389005 95.8720259 -116 90 C-116.99 90 -117.98 90 -119 90 Z M-77 136 C-76 139 -76 139 -76 139 Z M-34 138 C-34.09796875 138.7528125 -34.1959375 139.505625 -34.296875 140.28125 C-37.62542103 163.92540452 -45.11821276 187.00619364 -65 202 C-70.90426001 206.04947996 -76.99967985 209.77632799 -83.10546875 213.51171875 C-90.80590573 218.23867483 -98.21448521 222.98556644 -105 229 C-106.16789062 230.02673828 -106.16789062 230.02673828 -107.359375 231.07421875 C-117.5807842 240.62677735 -123.79229968 253.19651451 -126 267 C-126.06533435 268.93651019 -126.08584303 270.87502861 -126.0625 272.8125 C-126.05347656 273.78832031 -126.04445313 274.76414062 -126.03515625 275.76953125 C-126.02355469 276.50558594 -126.01195312 277.24164063 -126 278 C-124.12299904 274.46630335 -122.74251245 270.79620374 -121.3125 267.0625 C-116.98107325 256.06806298 -111.71484562 246.00874007 -104 237 C-103.33355469 236.18917969 -102.66710937 235.37835938 -101.98046875 234.54296875 C-93.85533427 225.01240561 -81.86565921 214.13998671 -69.375 211.125 C-68.59125 211.08375 -67.8075 211.0425 -67 211 C-67 212.65 -67 214.3 -67 216 C-67.85980469 216.44988281 -68.71960938 216.89976562 -69.60546875 217.36328125 C-89.19767153 227.9066968 -104.89426031 243.43865231 -114 264 C-113.67 264.66 -113.34 265.32 -113 266 C-112.17757812 265.02160156 -111.35515625 264.04320312 -110.5078125 263.03515625 C-100.12592161 250.79025013 -89.32605809 241.303755 -76.02832031 232.36865234 C-53.21708469 217.45441193 -53.21708469 217.45441193 -41 194 C-41 192.68 -41 191.36 -41 190 C-39.02 190 -37.04 190 -35 190 C-35.93336663 202.60044951 -41.59106176 212.81692742 -50.66015625 221.56640625 C-56.57024458 226.6492413 -62.83337134 230.99638774 -69.35058594 235.24804688 C-79.6266863 241.97249965 -89.02900789 249.61627374 -98 258 C-94.0102857 258 -91.1787583 256.31358835 -87.69140625 254.5625 C-86.96944565 254.20414062 -86.24748505 253.84578125 -85.50364685 253.4765625 C-83.96974958 252.71282946 -82.43740308 251.94597519 -80.90649414 251.17626953 C-78.60736753 250.02251555 -76.30129723 248.88368627 -73.99414062 247.74609375 C-56.98375793 239.28243773 -39.51424047 229.59189865 -31.4375 211.5 C-30.963125 210.675 -30.48875 209.85 -30 209 C-27.41015625 208.34375 -27.41015625 208.34375 -25 208 C-24.20319299 233.8519608 -30.14989694 254.92809521 -46.27026367 275.08862305 C-51.7922339 282.09024609 -57.37838897 290.45126839 -60 299 C-59.58128819 301.11062497 -59.58128819 301.11062497 -59 303 C-58.46632813 301.93523437 -57.93265625 300.87046875 -57.3828125 299.7734375 C-52.32375924 289.84982143 -46.68625742 280.88881647 -40 272 C-33.43014494 263.26342519 -27.00967476 254.6137638 -21.875 244.9375 C-21.34410767 243.93916138 -21.34410767 243.93916138 -20.80249023 242.9206543 C-15.37380371 232.27979113 -13.83804938 222.48257451 -13.9375 210.625 C-13.94201172 209.60277344 -13.94652344 208.58054687 -13.95117188 207.52734375 C-13.962897 205.01816806 -13.97930824 202.5091151 -14 200 C-12.68 200 -11.36 200 -10 200 C-4.97943756 219.58434275 -10.47919215 238.01658766 -20.31030273 255.07299805 C-23.77425202 260.85446501 -27.59514028 266.40327901 -31.5456543 271.86181641 C-34.31297992 275.55230573 -34.31297992 275.55230573 -35 280 C-12.14807993 261.12737764 -12.14807993 261.12737764 -2 234 C-0.68 234 0.64 234 2 234 C3.08462674 244.67754764 -0.30814419 253.96840248 -6.875 262.375 C-12.10331834 268.4355413 -17.74558461 273.86738535 -23.80078125 279.08984375 C-27.91970352 282.66738014 -31.95239224 286.34222332 -36 290 C-32.59432572 290 -32.15407818 289.61567153 -29.62890625 287.54296875 C-28.97801025 287.0130835 -28.32711426 286.48319824 -27.65649414 285.93725586 C-26.96547607 285.35983643 -26.27445801 284.78241699 -25.5625 284.1875 C-24.84892334 283.59654541 -24.13534668 283.00559082 -23.40014648 282.39672852 C-21.25650319 280.60959937 -19.12597676 278.80809262 -17 277 C-16.41347656 276.50435547 -15.82695312 276.00871094 -15.22265625 275.49804688 C-0.59440858 263.02720264 10.65529489 247.51967006 13 228 C14.73345094 200.97157894 9.36541575 174.6175275 -8.5859375 153.57421875 C-15.32494199 146.3881282 -22.7112798 141.35426007 -32 138 C-32.66 138 -33.32 138 -34 138 Z M-76 139 C-75 141 -75 141 -75 141 Z M-115 266 C-114 268 -114 268 -114 268 Z M-61 303 C-60 306 -60 306 -60 306 Z " fill="#6D5590" transform="translate(407,88)"/>
<path d="M0 0 C1.02262939 0.47107178 1.02262939 0.47107178 2.06591797 0.95166016 C23.12851068 10.76393194 41.7563172 23.57447154 58.53662109 39.60400391 C59.5110153 40.53353111 60.4905249 41.45772582 61.47509766 42.37646484 C103.72589726 81.87086961 127.30447318 143.42462957 130.1227417 200.48510742 C130.32468715 206.53140998 130.3375585 212.57594714 130.3125 218.625 C130.30976578 220.00313873 130.30976578 220.00313873 130.30697632 221.40911865 C130.25903119 235.80483775 129.57683005 249.80936075 127 264 C126.76651855 265.39798828 126.76651855 265.39798828 126.52832031 266.82421875 C118.80472349 312.51831254 98.16030786 355.54726855 66 389 C65.43120117 389.59603027 64.86240234 390.19206055 64.27636719 390.80615234 C47.18021491 408.63342033 27.83112624 422.49976536 6 434 C5.31583008 434.36448242 4.63166016 434.72896484 3.92675781 435.10449219 C-17.77996228 446.50630668 -41.9272688 453.73316361 -66 458 C-66.81629883 458.16081055 -67.63259766 458.32162109 -68.47363281 458.48730469 C-96.64152806 463.95406307 -129.89255158 463.62693159 -158 458 C-158.93666504 457.82307617 -159.87333008 457.64615234 -160.83837891 457.46386719 C-198.57175314 450.26174961 -236.10397817 435.54122805 -266 411 C-267.53140625 409.77410156 -267.53140625 409.77410156 -269.09375 408.5234375 C-284.36797351 396.12204165 -297.63388761 382.04283467 -309 366 C-309.43860352 365.3901123 -309.87720703 364.78022461 -310.32910156 364.15185547 C-340.13953159 322.43326824 -354.52775105 271.40768138 -354.3125 220.4375 C-354.31034485 219.51524628 -354.3081897 218.59299255 -354.30596924 217.64279175 C-354.25209189 203.23994495 -353.68929265 189.18455716 -351 175 C-350.80664062 173.9495752 -350.61328125 172.89915039 -350.4140625 171.81689453 C-338.93097836 111.13198457 -306.3136392 54.54354757 -255 19 C-254.32437012 18.52804199 -253.64874023 18.05608398 -252.95263672 17.56982422 C-179.93577068 -32.91075737 -79.80287466 -37.0677108 0 0 Z M-259 32 C-259.56960449 32.46664062 -260.13920898 32.93328125 -260.72607422 33.4140625 C-273.01214201 43.55472866 -284.27249789 54.34252737 -294 67 C-294.42104004 67.54462891 -294.84208008 68.08925781 -295.27587891 68.65039062 C-319.80565109 100.56864841 -335.92406281 137.37758493 -343 177 C-343.24339111 178.27085449 -343.24339111 178.27085449 -343.49169922 179.56738281 C-348.51273916 206.46025926 -348.30889346 237.17827906 -343 264 C-342.82307617 264.90621094 -342.64615234 265.81242187 -342.46386719 266.74609375 C-338.24542624 287.75815539 -331.97609572 307.54133096 -323 327 C-322.66742188 327.72703125 -322.33484375 328.4540625 -321.9921875 329.203125 C-312.6715995 349.35984377 -299.73300725 367.4916788 -284.41210938 383.52050781 C-283.4756544 384.5016484 -282.54457769 385.48795247 -281.61914062 386.47949219 C-257.21059416 412.59216143 -223.94540167 430.66301772 -190 441 C-188.70811768 441.39759521 -188.70811768 441.39759521 -187.39013672 441.80322266 C-125.60620874 460.51093146 -54.3557788 457.30980578 3.30078125 426.9921875 C4.53490055 426.33007167 5.76799318 425.66603831 7 425 C7.5986084 424.68063477 8.1972168 424.36126953 8.81396484 424.03222656 C18.07850364 419.05780808 26.60984451 413.31787257 35 407 C35.86496094 406.36191406 36.72992188 405.72382813 37.62109375 405.06640625 C52.08444869 393.85222933 65.6095677 380.07557268 76 365 C76.39799805 364.43571289 76.79599609 363.87142578 77.20605469 363.29003906 C106.79946955 321.26048099 122.55149546 270.79467739 122.3125 219.4375 C122.31067719 218.61505798 122.30885437 217.79261597 122.30697632 216.94525146 C122.25450979 202.78954208 121.39232722 188.97282102 119 175 C118.8443457 174.04657715 118.68869141 173.0931543 118.52832031 172.11083984 C113.12529399 139.95690176 101.1921658 106.56874653 82 80 C81.55333984 79.37125977 81.10667969 78.74251953 80.64648438 78.09472656 C74.14556138 68.97672022 67.18878503 60.48534657 59.39648438 52.44335938 C58.09067534 51.09371898 56.80244773 49.72712998 55.515625 48.359375 C13.56858728 4.76735541 -49.62648238 -14.7524386 -108.71875 -16.24609375 C-163.1975551 -17.0123845 -216.32157332 -3.01294615 -259 32 Z " fill="#6D5490" transform="translate(354,24)"/>
<path d="M0 0 C2.97 0.66 5.94 1.32 9 2 C9 2.99 9 3.98 9 5 C7.35546875 6.4296875 7.35546875 6.4296875 5.1875 7.875 C1.20019419 10.7210628 -0.98516355 13.23226422 -2.6875 17.875 C-3.83149783 25.65418525 -1.76055301 30.3250184 2 37 C2.99 37 3.98 37 5 37 C4.49141142 32.89915451 4.49141142 32.89915451 2.9375 29.125 C1.42409203 25.69460859 1.157901 22.60340039 2 19 C5.47268396 13.17349075 10.5261207 9.01995071 17 7 C24.7071459 5.82433368 31.00853594 8.95071085 38 12 C38.90492188 12.38414062 39.80984375 12.76828125 40.7421875 13.1640625 C53.46386776 18.98987869 61.54417947 29.2697521 67 42 C68.84822053 49.7205808 69.49010125 58.29290628 65.3203125 65.3203125 C60.92243405 70.91524663 54.73996107 73.31080524 48 75 C44.90062144 75.36558123 41.86736964 75.38394173 38.75 75.3125 C37.91863525 75.29977051 37.08727051 75.28704102 36.23071289 75.27392578 C16.72066116 74.81717503 -0.26908313 68.72268621 -17 59 C-17 56 -17 56 -15 53 C-14.73747372 50.09499612 -14.68588426 47.21667427 -14.63671875 44.30078125 C-14.0029221 41.0151483 -13.32499552 39.84365675 -11.44921875 37.203125 C-8.33570647 32.55034822 -8.66559148 28.85357136 -9.125 23.4375 C-9.52125646 14.90249457 -9.52125646 14.90249457 -7.53125 11.45703125 C-5.625 9.75 -5.625 9.75 -3.69140625 8.35546875 C-0.86214461 6.08813898 -0.63589616 3.4621013 0 0 Z " fill="#FDFCFD" transform="translate(196,320)"/>
<path d="M0 0 C1.13308594 0.38542969 2.26617187 0.77085938 3.43359375 1.16796875 C10.90198739 3.88614735 17.96694842 7.31239998 25 11 C25 12.32 25 13.64 25 15 C24.505 15.495 24.505 15.495 24 16 C23.89255956 17.64443557 23.81466596 19.29082756 23.75 20.9375 C23.28018178 26.92768233 21.39500177 33.60499823 17 38 C16.78673597 43.6047709 16.78673597 43.6047709 18 49 C18.5625 52.1875 18.5625 52.1875 18 56 C16.11777274 58.22094242 14.07010286 60.1122566 11.9140625 62.06640625 C9.53263955 64.47212944 8.65973896 66.70130518 8 70 C6.741875 69.87625 5.48375 69.7525 4.1875 69.625 C3.47980469 69.55539063 2.77210938 69.48578125 2.04296875 69.4140625 C0 69 0 69 -3 67 C-2.39671875 66.63648438 -1.7934375 66.27296875 -1.171875 65.8984375 C4.29815994 62.45760907 8.607187 59.55743573 10.57421875 53.12109375 C11.7096204 47.46491858 11.93736228 41.97127166 9 36.875 C8.01 35.451875 8.01 35.451875 7 34 C5.68 34 4.36 34 3 34 C3.45907292 36.14234029 3.95187683 37.91161814 5.00390625 39.84375 C6.84452471 43.8281476 6.83175623 47.73245073 6 52 C3.44222709 56.50258842 0.12275374 59.30907462 -4.25 62 C-14.32627944 64.68700785 -21.85266665 62.62057608 -31 58 C-32.53914063 57.23816406 -32.53914063 57.23816406 -34.109375 56.4609375 C-47.0238867 49.54479037 -54.04890526 39.50909735 -59.13671875 25.9765625 C-60.88403602 19.9518758 -61.02647555 13.51180867 -58.5 7.6875 C-55.49921751 2.50529761 -50.87444848 -0.68028466 -45.515625 -3.140625 C-31.03863181 -6.67944556 -13.96766205 -4.83435428 0 0 Z " fill="#FDFDFD" transform="translate(287,100)"/>
<path d="M0 0 C1.65 0 3.3 0 5 0 C6.73956658 1.73956658 6.37190386 4.1936622 6.5625 6.5625 C6.68818359 8.08037109 6.68818359 8.08037109 6.81640625 9.62890625 C6.87699219 10.41136719 6.93757813 11.19382812 7 12 C8.98 9.36 10.96 6.72 13 4 C15.475 4.495 15.475 4.495 18 5 C17.53502049 10.1147746 15.03624172 13.02953006 12 17 C18.93 17.495 18.93 17.495 26 18 C26 19.65 26 21.3 26 23 C24.05909174 24.94090826 20.52706098 24.39919435 17.9375 24.5625 C16.64714844 24.64628906 15.35679687 24.73007812 14.02734375 24.81640625 C13.02832031 24.87699219 12.02929688 24.93757813 11 25 C11.73347656 25.67546875 12.46695312 26.3509375 13.22265625 27.046875 C14.15980469 27.93890625 15.09695313 28.8309375 16.0625 29.75 C17.00222656 30.63171875 17.94195312 31.5134375 18.91015625 32.421875 C21 35 21 35 20.80859375 37.328125 C20.54175781 37.87984375 20.27492188 38.4315625 20 39 C16.7171341 39.36795695 15.41336988 39.3231932 12.76171875 37.25 C10.84114583 35.16666667 8.92057292 33.08333333 7 31 C6.67 35.62 6.34 40.24 6 45 C4.35 45 2.7 45 1 45 C-0.73956658 43.26043342 -0.37190386 40.8063378 -0.5625 38.4375 C-0.64628906 37.42558594 -0.73007812 36.41367187 -0.81640625 35.37109375 C-0.87699219 34.58863281 -0.93757813 33.80617188 -1 33 C-1.37511719 33.5053125 -1.75023437 34.010625 -2.13671875 34.53125 C-6.36878216 39.90394511 -6.36878216 39.90394511 -9.875 40.4375 C-10.57625 40.293125 -11.2775 40.14875 -12 40 C-12.70703125 38.2578125 -12.70703125 38.2578125 -13 36 C-11.63671875 33.9296875 -11.63671875 33.9296875 -9.6875 31.875 C-9.05199219 31.19179688 -8.41648438 30.50859375 -7.76171875 29.8046875 C-6.51591496 28.52849825 -5.26108804 27.26108804 -4 26 C-8.62 25.34 -13.24 24.68 -18 24 C-18.33 22.35 -18.66 20.7 -19 19 C-18 18 -18 18 -15.05859375 17.90234375 C-13.86363281 17.91394531 -12.66867188 17.92554688 -11.4375 17.9375 C-9.64119141 17.95103516 -9.64119141 17.95103516 -7.80859375 17.96484375 C-6.88175781 17.97644531 -5.95492188 17.98804688 -5 18 C-5.58910156 17.39671875 -6.17820312 16.7934375 -6.78515625 16.171875 C-7.91244141 14.97304688 -7.91244141 14.97304688 -9.0625 13.75 C-9.81660156 12.96109375 -10.57070312 12.1721875 -11.34765625 11.359375 C-13 9 -13 9 -12.74609375 6.703125 C-12.49988281 6.14109375 -12.25367188 5.5790625 -12 5 C-9.875 4.5625 -9.875 4.5625 -7 5 C-4.68916624 7.15930368 -2.93813964 9.47591116 -1 12 C-0.67 8.04 -0.34 4.08 0 0 Z " fill="#A191B8" transform="translate(263,250)"/>
<path d="M0 0 C1.67542976 0.28604898 3.34385343 0.61781233 5 1 C5.33 3.64 5.66 6.28 6 9 C6.556875 8.175 7.11375 7.35 7.6875 6.5 C10 4 10 4 12.75 3.6875 C13.86375 3.8421875 13.86375 3.8421875 15 4 C15.65234375 5.765625 15.65234375 5.765625 16 8 C15.00390625 9.921875 15.00390625 9.921875 13.5625 11.75 C13.08941406 12.36359375 12.61632812 12.9771875 12.12890625 13.609375 C11.75636719 14.06828125 11.38382813 14.5271875 11 15 C11.62648437 14.98839844 12.25296875 14.97679687 12.8984375 14.96484375 C13.71570313 14.95582031 14.53296875 14.94679688 15.375 14.9375 C16.18710938 14.92589844 16.99921875 14.91429687 17.8359375 14.90234375 C20 15 20 15 22 16 C22 17.65 22 19.3 22 21 C18.37 21.66 14.74 22.32 11 23 C12.175625 24.0725 13.35125 25.145 14.5625 26.25 C16.56640625 28.078125 16.56640625 28.078125 18 30 C17.71484375 32.234375 17.71484375 32.234375 17 34 C15.375 34.8125 15.375 34.8125 13 35 C10.75390165 33.53181864 8.97621323 31.84147142 7 30 C6.87625 31.27875 6.7525 32.5575 6.625 33.875 C6.25 37.75 6.25 37.75 4 40 C2.68 39.67 1.36 39.34 0 39 C-0.33 36.03 -0.66 33.06 -1 30 C-2.36125 31.5159375 -2.36125 31.5159375 -3.75 33.0625 C-5.296875 34.78515625 -5.296875 34.78515625 -7 36 C-9.203125 35.68359375 -9.203125 35.68359375 -11 35 C-11.71484375 33.265625 -11.71484375 33.265625 -12 31 C-9.98827576 27.99611748 -7.50114373 25.63278288 -5 23 C-8.63 22.67 -12.26 22.34 -16 22 C-16.33 20.35 -16.66 18.7 -17 17 C-15.33657163 15.33657163 -13.2174291 15.63951903 -10.9375 15.4375 C-10.01839844 15.35371094 -9.09929687 15.26992188 -8.15234375 15.18359375 C-7.44207031 15.12300781 -6.73179687 15.06242187 -6 15 C-6.44472656 14.61328125 -6.88945312 14.2265625 -7.34765625 13.828125 C-7.91355469 13.30734375 -8.47945312 12.7865625 -9.0625 12.25 C-9.63097656 11.73953125 -10.19945312 11.2290625 -10.78515625 10.703125 C-12 9 -12 9 -11.68359375 6.796875 C-11 5 -11 5 -9.3125 4.1875 C-8.549375 4.125625 -7.78625 4.06375 -7 4 C-4.25 6.4375 -4.25 6.4375 -2 9 C-1.855625 7.700625 -1.71125 6.40125 -1.5625 5.0625 C-1.125 1.125 -1.125 1.125 0 0 Z " fill="#A191B8" transform="translate(196,41)"/>
<path d="M0 0 C1.9375 0.0625 1.9375 0.0625 4 1 C5.25 4.0625 5.25 4.0625 6 7 C6.66 6.01 7.32 5.02 8 4 C10.625 3.8125 10.625 3.8125 13 4 C13.75 5.625 13.75 5.625 14 8 C12.0625 11.25 12.0625 11.25 10 14 C12.97 14 15.94 14 19 14 C19.38218767 15.65614657 19.71395102 17.32457024 20 19 C18.41727399 20.58272601 16.61965997 20.34735747 14.4375 20.5625 C13.19806641 20.68818359 13.19806641 20.68818359 11.93359375 20.81640625 C11.29550781 20.87699219 10.65742188 20.93757813 10 21 C10.44472656 21.37511719 10.88945312 21.75023437 11.34765625 22.13671875 C13.06170453 23.68678063 14.59920192 25.15956683 16 27 C15.875 29.875 15.875 29.875 15 32 C10.68607774 31.5206753 8.83430453 30.2542015 6 27 C5.67 29.97 5.34 32.94 5 36 C3.33388095 36.042721 1.66617115 36.04063832 0 36 C-1.96822886 34.03177114 -1.66248381 30.65191291 -2 28 C-3.32 29.65 -4.64 31.3 -6 33 C-7.65 32.67 -9.3 32.34 -11 32 C-10.49701212 27.59885603 -8.91227269 25.28804981 -6 22 C-10.455 21.01 -10.455 21.01 -15 20 C-15.33 18.68 -15.66 17.36 -16 16 C-14 14 -14 14 -12.0546875 13.8046875 C-10.03645833 13.86979167 -8.01822917 13.93489583 -6 14 C-6.845625 13.278125 -7.69125 12.55625 -8.5625 11.8125 C-11 9 -11 9 -10.8125 6.1875 C-10.4103125 5.1046875 -10.4103125 5.1046875 -10 4 C-6.31245243 4.49831724 -4.39509338 5.10067643 -2 8 C-1.855625 6.865625 -1.71125 5.73125 -1.5625 4.5625 C-1 1 -1 1 0 0 Z " fill="#A191B8" transform="translate(267,414)"/>
<path d="M0 0 C3.70342384 2.11624219 5.37272301 4.1299108 7 8 C7.58909226 12.27665678 7.48792817 15.93120496 5.6875 19.875 C1.81161661 24.75574205 1.81161661 24.75574205 -1.05078125 25.6171875 C-6.27801276 26.21303772 -9.45673699 26.02884201 -14 23 C-16.83039171 20.65760686 -17.80672915 18.66339664 -18.23828125 14.94921875 C-18.4194823 9.42735507 -17.72103642 6.35892838 -14 2 C-9.54422653 -0.97051564 -5.22557394 -0.62737491 0 0 Z " fill="#E4E0EA" transform="translate(220,224)"/>
<path d="M0 0 C1.43791516 0.14168137 2.8753237 0.28851043 4.3125 0.4375 C5.11300781 0.51871094 5.91351563 0.59992188 6.73828125 0.68359375 C9 1 9 1 12 2 C11.9240674 5.18916928 11.65961352 7.30959372 9.41015625 9.6640625 C8.15898621 10.70286626 6.88704093 11.71725569 5.59375 12.703125 C3.86408353 13.92891994 3.86408353 13.92891994 3 16 C3.07436148 19.69948344 3.17386726 23.39007128 3.390625 27.08398438 C3.53489752 32.54379756 2.58588293 35.17458644 -0.85546875 39.38061523 C-2.62768905 41.88811038 -2.60163978 44.17792523 -2.625 47.1875 C-2.68097534 51.54797868 -3.04113943 53.72020482 -6 57 C-9.24208567 56.64950425 -10.61527704 56.43778819 -12.8125 53.9375 C-13.4003125 52.9784375 -13.4003125 52.9784375 -14 52 C-13.175 51.360625 -12.35 50.72125 -11.5 50.0625 C-8.52167137 46.41404743 -8.52836571 44.96708666 -8.73046875 40.4609375 C-8.96825303 37.97926725 -8.96825303 37.97926725 -9.48828125 35.4765625 C-9.9523311 32.85367205 -10.26601418 30.65578096 -10 28 C-8.54296875 26.15234375 -8.54296875 26.15234375 -6.625 24.375 C-2.68525689 20.58348484 -2.32760436 17.01156613 -2.1875 11.75 C-2.18017374 10.36979576 -2.17362672 8.98958709 -2.16796875 7.609375 C-2.0155272 4.3336542 -1.75615496 2.69323369 0 0 Z " fill="#F7F6F9" transform="translate(179,316)"/>
<path d="M0 0 C3 0.1875 3 0.1875 6 1 C6.66 1.99 7.32 2.98 8 4 C7.33613281 4.44859375 6.67226563 4.8971875 5.98828125 5.359375 C2.91418987 9.44205825 3.86873038 13.31480108 4.1875 18.25 C4.54897285 28.0542307 4.54897285 28.0542307 2.4921875 31.59765625 C1.2219804 32.72644353 -0.06963406 33.83166231 -1.3828125 34.91015625 C-4.49672478 38.93417332 -3.81248569 44.48468872 -3.83203125 49.390625 C-3.9844728 52.6663458 -4.24384504 54.30676631 -6 57 C-7.64671412 56.69217504 -9.29235576 56.37860766 -10.9375 56.0625 C-11.85402344 55.88847656 -12.77054687 55.71445313 -13.71484375 55.53515625 C-16 55 -16 55 -17 54 C-17.5 51.8125 -17.5 51.8125 -17 49 C-15.35234421 47.31783833 -13.61595851 45.93078399 -11.7265625 44.52734375 C-9.63781244 42.67960331 -8.85917717 41.67446433 -8 39 C-7.86154328 35.24003477 -8.10001346 31.48270244 -8.34179688 27.73046875 C-8.47825829 23.52465789 -8.46185872 21.02250523 -5.53125 17.8515625 C-2.48880518 14.42411695 -2.37991083 12.7509693 -2.3125 8.25 C-2.18086348 2.18086348 -2.18086348 2.18086348 0 0 Z " fill="#FAF9FB" transform="translate(318,118)"/>
<path d="M0 0 C2.31 0.66 4.62 1.32 7 2 C6.49533203 3.2684375 6.49533203 3.2684375 5.98046875 4.5625 C4.90444741 8.3350051 5.02643463 11.1060953 5.3125 15 C5.4466755 21.35991862 5.4466755 21.35991862 3.484375 24.171875 C1.722207 25.61885848 -0.06925707 26.79617947 -2 28 C-3.68402249 31.36804498 -3.42925832 35.32352654 -2.50390625 38.9375 C-1.94585921 41.22159951 -1.83214207 43.27580806 -1.8125 45.625 C-1.79832031 46.40101563 -1.78414062 47.17703125 -1.76953125 47.9765625 C-2 50 -2 50 -4 52 C-7.64439552 51.90150282 -8.99657604 51.00289134 -11.8125 48.625 C-14 46 -14 46 -14 43 C-13.34 43 -12.68 43 -12 43 C-11.93683594 41.7934375 -11.87367188 40.586875 -11.80859375 39.34375 C-10.72180752 23.86552415 -10.72180752 23.86552415 -4.55859375 18.21484375 C-4.04425781 17.81394531 -3.52992188 17.41304688 -3 17 C-1.01912963 15.01912963 -1.63501301 11.22526252 -1.5 8.5 C-1.13513514 1.13513514 -1.13513514 1.13513514 0 0 Z " fill="#F7F6F9" transform="translate(167,311)"/>
<path d="M0 0 C4 0 4 0 5.703125 1.4609375 C6.21359375 2.09257812 6.7240625 2.72421875 7.25 3.375 C7.77078125 4.00148437 8.2915625 4.62796875 8.828125 5.2734375 C10 7 10 7 10 9 C9.02149805 10.02104551 8.02019573 11.0206121 7 12 C5.12378265 15.75243469 5.70073329 20.37945197 5.57421875 24.51953125 C4.91441504 28.51874964 3.81624197 30.14271989 1 33 C0.01 33.66 -0.98 34.32 -2 35 C-2.38394667 37.77262255 -2.60342248 40.34323528 -2.6875 43.125 C-2.73874023 44.25615234 -2.73874023 44.25615234 -2.79101562 45.41015625 C-2.87354278 47.27291201 -2.93844711 49.13643326 -3 51 C-6.71875 52.1171875 -6.71875 52.1171875 -9.25 51.0625 C-10.11625 50.5365625 -10.11625 50.5365625 -11 50 C-10.83886719 49.3296875 -10.67773438 48.659375 -10.51171875 47.96875 C-9.90625144 44.45611522 -9.88731495 41.06261664 -9.8125 37.5 C-9.53528986 30.79296521 -9.53528986 30.79296521 -7.63671875 27.98046875 C-6 26.6875 -6 26.6875 -3 25 C-1.77421219 22.54842439 -1.91529273 21.01617822 -1.97265625 18.28125 C-1.98490234 17.34925781 -1.99714844 16.41726562 -2.00976562 15.45703125 C-2.04492319 13.48560358 -2.08398615 11.51424168 -2.12695312 9.54296875 C-2.13791016 8.61097656 -2.14886719 7.67898437 -2.16015625 6.71875 C-2.17699463 5.86216797 -2.19383301 5.00558594 -2.21118164 4.12304688 C-2 2 -2 2 0 0 Z " fill="#F9F8FA" transform="translate(329,127)"/>
<path d="M0 0 C2.8100346 1.79363911 4.50940468 3.01880935 6 6 C6.55512815 10.63213493 6.6364242 13.98172127 4.125 18 C0.85159987 21.08084718 -1.46126475 21.33387487 -5.9609375 21.29296875 C-9.13134567 20.83745033 -10.8192402 19.24684343 -13 17 C-14.72869779 13.54260443 -14.48966895 9.78024432 -14 6 C-10.38599231 0.2175877 -6.68966949 -0.96115941 0 0 Z " fill="#D5CEDF" transform="translate(236,181)"/>
<path d="M0 0 C3.5386994 1.65139305 4.81070153 2.71605229 7 6 C7.53665542 10.02491565 7.14921994 11.7363781 5.125 15.3125 C3 18 3 18 1 19 C-3.18144011 19.39447548 -5.30946048 19.45035186 -8.875 17.125 C-11.78710658 14.21289342 -11.96068305 13.3997223 -12.375 9.1875 C-12.31879192 5.75880687 -11.99773575 4.99670655 -9.9375 2 C-6.25125882 -0.50978123 -4.38261849 -0.62608836 0 0 Z " fill="#715993" transform="translate(265,133)"/>
<path d="M0 0 C2.95164119 2.74807973 5.2946915 5.32012377 7 9 C7 12.70966351 6.10789935 13.8838007 3.5625 16.625 C1.09687967 19.37080446 0.56389103 21.48991503 0.0625 25.125 C-0.86478505 31.79961616 -3.75970152 37.16134897 -7 43 C-8.32 42.67 -9.64 42.34 -11 42 C-11.16276553 39.43493576 -11.28113984 36.88024578 -11.375 34.3125 C-11.42527344 33.59126953 -11.47554688 32.87003906 -11.52734375 32.12695312 C-11.67344891 26.7941147 -11.67344891 26.7941147 -9.67285156 24.43505859 C-8.17343221 23.21481983 -6.58908969 22.10092461 -5 21 C-3.17180532 17.34361064 -3.24926387 12.89928208 -2.83789062 8.85351562 C-2.42637067 5.20336708 -2.07274407 3.1091161 0 0 Z " fill="#F7F6F9" transform="translate(342,140)"/>
<path d="M0 0 C2.36300349 2.36300349 2.51433444 3.5798498 3.125 6.8125 C3.29257812 7.66457031 3.46015625 8.51664063 3.6328125 9.39453125 C3.995552 11.96843811 4.06523407 14.40461588 4 17 C5.04800781 17.07347656 5.04800781 17.07347656 6.1171875 17.1484375 C7.02726562 17.22320312 7.93734375 17.29796875 8.875 17.375 C9.77992188 17.44460937 10.68484375 17.51421875 11.6171875 17.5859375 C14 18 14 18 16 20 C14.73160474 20.50615298 13.46016898 21.00469099 12.1875 21.5 C11.47980469 21.7784375 10.77210938 22.056875 10.04296875 22.34375 C8 23 8 23 5 23 C4.87882812 24.21558594 4.75765625 25.43117187 4.6328125 26.68359375 C4.46402922 28.26828117 4.29473184 29.8529139 4.125 31.4375 C4.04636719 32.23994141 3.96773438 33.04238281 3.88671875 33.86914062 C3.66154237 35.92170994 3.33777413 37.96293009 3 40 C2.01 40.495 2.01 40.495 1 41 C0.51933465 39.10454608 0.04053257 37.20861961 -0.4375 35.3125 C-0.70433594 34.25675781 -0.97117187 33.20101562 -1.24609375 32.11328125 C-1.89897932 29.4171683 -2.47941193 26.7242424 -3 24 C-3.71027344 23.80664062 -4.42054688 23.61328125 -5.15234375 23.4140625 C-6.07144531 23.15367187 -6.99054688 22.89328125 -7.9375 22.625 C-9.31228516 22.24214844 -9.31228516 22.24214844 -10.71484375 21.8515625 C-13 21 -13 21 -14 19 C-10.04 18.34 -6.08 17.68 -2 17 C-2.04125 15.865625 -2.0825 14.73125 -2.125 13.5625 C-2.14183841 8.85616438 -1.17621777 4.53683996 0 0 Z " fill="#B9ADCA" transform="translate(430,194)"/>
<path d="M0 0 C1.65 0.33 3.3 0.66 5 1 C4.96688627 3.42031245 4.89967211 5.83153287 4.8125 8.25 C4.80669922 8.93191406 4.80089844 9.61382812 4.79492188 10.31640625 C4.63062286 14.0770281 4.38891267 15.64177448 1.57421875 18.234375 C0.72472656 18.81703125 -0.12476563 19.3996875 -1 20 C-3.42826349 23.43510445 -3.32529573 26.87697913 -3.5 31 C-3.81690141 38.47887324 -3.81690141 38.47887324 -6 42 C-9.60883499 40.797055 -9.9821893 39.91032374 -11.8125 36.6875 C-12.27269531 35.90761719 -12.73289063 35.12773437 -13.20703125 34.32421875 C-14 32 -14 32 -13.38671875 30.01953125 C-12 28 -12 28 -9.96484375 25.63671875 C-7.71636008 22.61936989 -7.21266202 20.4937622 -6.5625 16.8125 C-5.28817443 10.59662305 -3.13588897 5.4909044 0 0 Z " fill="#F8F6F9" transform="translate(156,308)"/>
<path d="M0 0 C3.85940746 3.85940746 3.94344336 10.35985738 4.125 15.625 C4.08375 16.40875 4.0425 17.1925 4 18 C4.61488281 17.98839844 5.22976562 17.97679687 5.86328125 17.96484375 C6.67152344 17.95582031 7.47976562 17.94679688 8.3125 17.9375 C9.51326172 17.92009766 9.51326172 17.92009766 10.73828125 17.90234375 C13 18 13 18 16 19 C16 19.66 16 20.32 16 21 C11.05 22.485 11.05 22.485 6 24 C5.80664062 25.13179688 5.61328125 26.26359375 5.4140625 27.4296875 C5.15145714 28.91153202 4.88841352 30.39329892 4.625 31.875 C4.43550781 32.99455078 4.43550781 32.99455078 4.2421875 34.13671875 C3.2265625 39.7734375 3.2265625 39.7734375 1 42 C-0.32 36.06 -1.64 30.12 -3 24 C-6.63 23.01 -10.26 22.02 -14 21 C-14 20.34 -14 19.68 -14 19 C-9.9472484 18.01751476 -6.16138263 17.91840426 -2 18 C-2.04125 16.88625 -2.0825 15.7725 -2.125 14.625 C-2.14300722 9.60098664 -1.11958236 4.8781803 0 0 Z " fill="#B9ADCA" transform="translate(78,304)"/>
<path d="M0 0 C3.03978021 0.68164768 4.80055419 2.23591662 6.93359375 4.43359375 C8.38507278 7.3365518 8.305984 9.20621154 7.93359375 12.43359375 C5.47726813 16.7123545 5.47726813 16.7123545 2.93359375 18.43359375 C-0.24015081 19.24281253 -2.88519136 19.18719077 -6.06640625 18.43359375 C-9.11708047 16.44131671 -10.66067294 15.09676501 -11.5390625 11.49609375 C-11.8288256 7.5731471 -11.28527557 5.76189773 -9.06640625 2.43359375 C-5.71397384 0.19863881 -3.9372435 -0.24561254 0 0 Z " fill="#705792" transform="translate(231.06640625,338.56640625)"/>
<path d="M0 0 C0.66 0.33 1.32 0.66 2 1 C2.6328125 3.14453125 2.6328125 3.14453125 3.125 5.8125 C3.29257812 6.68519531 3.46015625 7.55789062 3.6328125 8.45703125 C4 11 4 11 4 15 C7.3 15.33 10.6 15.66 14 16 C14 16.66 14 17.32 14 18 C11.03 18.66 8.06 19.32 5 20 C4.87882812 21.07121094 4.75765625 22.14242187 4.6328125 23.24609375 C4.46402399 24.64328752 4.29472687 26.04041991 4.125 27.4375 C4.00705078 28.49807617 4.00705078 28.49807617 3.88671875 29.58007812 C3.66072324 31.39673432 3.33699273 33.20062522 3 35 C2.01 35.495 2.01 35.495 1 36 C0.01 30.72 -0.98 25.44 -2 20 C-4.64 19.67 -7.28 19.34 -10 19 C-10.33 18.01 -10.66 17.02 -11 16 C-8.03 15.34 -5.06 14.68 -2 14 C-1.34 9.38 -0.68 4.76 0 0 Z " fill="#B9ADCA" transform="translate(281,43)"/>
<path d="M0 0 C2.03435531 3.72965139 3 5.66905042 3 10 C2.36191406 10.6084375 1.72382813 11.216875 1.06640625 11.84375 C-1.64709093 14.67522532 -1.67766514 16.64280459 -2.0625 20.5 C-2.51729381 24.95595732 -2.95619726 27.63449453 -6 31 C-8.9375 30.25 -8.9375 30.25 -12 29 C-12.87109375 27.24609375 -12.87109375 27.24609375 -13 25 C-11.8203125 22.51953125 -11.8203125 22.51953125 -10.125 19.8125 C-7.50553747 15.31255175 -6.5185761 12.08692176 -6.26953125 6.94921875 C-5.78276769 3.42900111 -3.75433319 0 0 0 Z " fill="#F7F5F8" transform="translate(353,158)"/>
<path d="M0 0 C3.32878632 2.46040728 4.79301948 3.89610387 5.5625 8 C4.84202557 11.8425303 3.99097304 13.45767292 1 16 C-1.82561523 16.7179842 -4.17277829 16.70536002 -7 16 C-9.5625 14 -9.5625 14 -11 11 C-11.29851924 7.0656695 -10.88490018 4.04877058 -8.3125 1 C-5.21285954 -0.34038506 -3.34840698 -0.54667869 0 0 Z " fill="#D5CEDF" transform="translate(45,216)"/>
<path d="M0 0 C3.32878632 2.46040728 4.79301948 3.89610387 5.5625 8 C4.84202557 11.8425303 3.99097304 13.45767292 1 16 C-1.82561523 16.7179842 -4.17277829 16.70536002 -7 16 C-9.5625 14 -9.5625 14 -11 11 C-11.29851924 7.0656695 -10.88490018 4.04877058 -8.3125 1 C-5.21285954 -0.34038506 -3.34840698 -0.54667869 0 0 Z " fill="#D5CEDF" transform="translate(405,136)"/>
<path d="M0 0 C1.98 0.99 3.96 1.98 6 3 C5.68446015 7.10201807 4.60235952 9.8590564 2.5 13.3125 C0.55512505 16.58895126 -0.29748911 18.94659227 -0.5 22.75 C-0.70430489 26.51316435 -0.93563915 26.92308093 -3.5625 30.0625 C-4.366875 30.701875 -5.17125 31.34125 -6 32 C-7.32 28.7 -8.64 25.4 -10 22 C-9.360625 21.47277344 -8.72125 20.94554687 -8.0625 20.40234375 C-5.47541756 17.38898068 -5.36223368 15.47915162 -5 11.5625 C-4.52245558 6.41098953 -3.5398285 3.81816179 0 0 Z " fill="#FAF9FB" transform="translate(145,301)"/>
<path d="M0 0 C2.09765625 0.375 2.09765625 0.375 4.16015625 1.875 C5.50468344 5.46040584 5.90697262 8.60589803 5.09765625 12.375 C3.03515625 14.9375 3.03515625 14.9375 0.09765625 16.375 C-3.36993317 16.31521398 -5.79061124 15.98465977 -8.83984375 14.3125 C-10.59293587 11.11568496 -10.38901507 7.88044411 -9.90234375 4.375 C-8.09470237 -0.44537702 -4.62330627 -0.24056228 0 0 Z " fill="#E4E0EA" transform="translate(316.90234375,403.625)"/>
<path d="M0 0 C1.9375 1.0625 1.9375 1.0625 3 3 C3.75471698 9.79245283 3.75471698 9.79245283 1.4375 13.5 C-1.94888329 15.58392818 -4.09385318 15.55802097 -8 15 C-10.4375 13.5 -10.4375 13.5 -12 11 C-12.61014545 8.1910285 -12.65360928 5.80363979 -12 3 C-8.3655827 -1.51548816 -5.40521016 -1.50144727 0 0 Z " fill="#E4E0EA" transform="translate(114,77)"/>
<path d="M0 0 C2.375 1.625 2.375 1.625 4 4 C4.61195145 7.6717087 4.48706506 9.28813568 2.375 12.375 C-0.71186432 14.48706506 -2.3282913 14.61195145 -6 14 C-8.4375 12.4375 -8.4375 12.4375 -10 10 C-9.93866496 6.5039028 -9.65265114 4.06485186 -7.8125 1.0625 C-5.04411529 -0.56034621 -3.14454533 -0.44922076 0 0 Z " fill="#D5CEDF" transform="translate(210,427)"/>
<path d="M0 0 C2.375 1.625 2.375 1.625 4 4 C4.61195145 7.6717087 4.48706506 9.28813568 2.375 12.375 C-0.71186432 14.48706506 -2.3282913 14.61195145 -6 14 C-8.4375 12.4375 -8.4375 12.4375 -10 10 C-9.93866496 6.5039028 -9.65265114 4.06485186 -7.8125 1.0625 C-5.04411529 -0.56034621 -3.14454533 -0.44922076 0 0 Z " fill="#D5CEDF" transform="translate(445,272)"/>
<path d="M0 0 C3.4375 0.8125 3.4375 0.8125 5.4375 3.8125 C4.98466981 10.26533019 4.98466981 10.26533019 2.4375 12.8125 C-3.70481015 13.4825702 -3.70481015 13.4825702 -6.5625 11.25 C-7.99385511 7.76107191 -7.496466 5.41494028 -6.5625 1.8125 C-3.5625 -0.1875 -3.5625 -0.1875 0 0 Z " fill="#E9E6EE" transform="translate(320.5625,365.1875)"/>
<path d="M0 0 C1.875 -0.36328125 1.875 -0.36328125 4 -0.3125 C4.70125 -0.30863281 5.4025 -0.30476563 6.125 -0.30078125 C8 0 8 0 10 2 C10.67973856 9.1372549 10.67973856 9.1372549 8.375 12.0625 C5.19296594 13.31856608 3.25787048 12.92070253 0 12 C-2 10 -2 10 -2.25 6.5625 C-2 3 -2 3 0 0 Z " fill="#E9E6EE" transform="translate(48,268)"/>
<path d="M0 0 C1.875 1.0625 1.875 1.0625 3 3 C3.63316583 8.90954774 3.63316583 8.90954774 1.875 11.9375 C-0.88980433 13.50422245 -2.88188517 13.38976435 -6 13 C-7.875 11.9375 -7.875 11.9375 -9 10 C-9.63316583 4.09045226 -9.63316583 4.09045226 -7.875 1.0625 C-5.11019567 -0.50422245 -3.11811483 -0.38976435 0 0 Z " fill="#E9E6EE" transform="translate(260,215)"/>
<path d="M0 0 C1.875 1.0625 1.875 1.0625 3 3 C3.63316583 8.90954774 3.63316583 8.90954774 1.875 11.9375 C-0.88980433 13.50422245 -2.88188517 13.38976435 -6 13 C-7.875 11.9375 -7.875 11.9375 -9 10 C-9.63316583 4.09045226 -9.63316583 4.09045226 -7.875 1.0625 C-5.11019567 -0.50422245 -3.11811483 -0.38976435 0 0 Z " fill="#E9E6EE" transform="translate(170,110)"/>
<path d="M0 0 C1.875 1.0625 1.875 1.0625 3 3 C3.63316583 8.90954774 3.63316583 8.90954774 1.875 11.9375 C-0.88980433 13.50422245 -2.88188517 13.38976435 -6 13 C-7.875 11.9375 -7.875 11.9375 -9 10 C-9.63316583 4.09045226 -9.63316583 4.09045226 -7.875 1.0625 C-5.11019567 -0.50422245 -3.11811483 -0.38976435 0 0 Z " fill="#E9E6EE" transform="translate(325,55)"/>
<path d="M0 0 C1.32 0.66 2.64 1.32 4 2 C3.360625 3.093125 2.72125 4.18625 2.0625 5.3125 C-0.51331151 10.38220676 -0.7937554 15.39014692 -1 21 C-1.99 21 -2.98 21 -4 21 C-6.54625551 12.16299559 -6.54625551 12.16299559 -5 8 C-4.02149805 6.97895449 -3.02019573 5.9793879 -2 5 C-0.80972016 2.40084462 -0.80972016 2.40084462 0 0 Z " fill="#EFECF2" transform="translate(136,295)"/>
<path d="M0 0 C0.66 0 1.32 0 2 0 C2.99 4.29 3.98 8.58 5 13 C3.02 13.99 3.02 13.99 1 15 C-0.76727858 18.0334467 -0.76727858 18.0334467 -2 21 C-2.99 20.67 -3.98 20.34 -5 20 C-4.566875 18.9790625 -4.566875 18.9790625 -4.125 17.9375 C-1.84784651 11.99159923 -0.66284572 6.29703436 0 0 Z " fill="#F5F3F7" transform="translate(357,174)"/>
<path d="M0 0 C1.134375 0.020625 2.26875 0.04125 3.4375 0.0625 C4.76591008 5.49690487 4.76591008 5.49690487 3.3125 8 C1.4375 9.0625 1.4375 9.0625 -1.1875 8.8125 C-3.5625 8.0625 -3.5625 8.0625 -4.5625 7.0625 C-4.6875 4.0625 -4.6875 4.0625 -4.5625 1.0625 C-3.5625 0.0625 -3.5625 0.0625 0 0 Z " fill="#8A76A6" transform="translate(441.5625,124.9375)"/>
<path d="M0 0 C1.2684375 0.12375 1.2684375 0.12375 2.5625 0.25 C4.7144437 3.47791555 4.76336443 4.53400809 4.5625 8.25 C-2.1875 9.375 -2.1875 9.375 -4.4375 8.25 C-3.43230397 0.35203118 -3.43230397 0.35203118 0 0 Z " fill="#8A76A6" transform="translate(355.4375,437.75)"/>
<path d="M0 0 C2.33944736 0.28730055 4.6739143 0.61936779 7 1 C7.6875 3.3125 7.6875 3.3125 8 6 C6.875 7.875 6.875 7.875 5 9 C0.57894737 8.57894737 0.57894737 8.57894737 -1 7 C-1.125 4 -1.125 4 -1 1 C-0.67 0.67 -0.34 0.34 0 0 Z " fill="#8A76A6" transform="translate(46,363)"/>
<path d="M0 0 C2.375 0.6875 2.375 0.6875 3.375 1.6875 C3.08769945 4.02694736 2.75563221 6.3614143 2.375 8.6875 C-0.5 8.8125 -0.5 8.8125 -3.625 8.6875 C-5.625 6.6875 -5.625 6.6875 -5.9375 4.1875 C-5.834375 3.3625 -5.73125 2.5375 -5.625 1.6875 C-2.625 -0.3125 -2.625 -0.3125 0 0 Z " fill="#8A76A6" transform="translate(437.625,358.3125)"/>
<path d="M0 0 C1.2375 0.1546875 1.2375 0.1546875 2.5 0.3125 C4.5 3.3125 4.5 3.3125 4.125 6 C3.91875 6.763125 3.7125 7.52625 3.5 8.3125 C0.625 8.9375 0.625 8.9375 -2.5 9.3125 C-4.5 7.3125 -4.5 7.3125 -4.75 4.8125 C-4.40047575 1.3172575 -3.47557682 0.4344471 0 0 Z " fill="#8A76A6" transform="translate(320.5,452.6875)"/>
<path d="M0 0 C1.2375 0.1546875 1.2375 0.1546875 2.5 0.3125 C4.5 3.3125 4.5 3.3125 4.125 6 C3.91875 6.763125 3.7125 7.52625 3.5 8.3125 C0.625 8.9375 0.625 8.9375 -2.5 9.3125 C-4.5 7.3125 -4.5 7.3125 -4.75 4.8125 C-4.40047575 1.3172575 -3.47557682 0.4344471 0 0 Z " fill="#8A76A6" transform="translate(332.5,448.6875)"/>
<path d="M0 0 C3.125 0.375 3.125 0.375 6 1 C6.625 3.3125 6.625 3.3125 7 6 C6.01 7.485 6.01 7.485 5 9 C2.5 9.3125 2.5 9.3125 0 9 C-2 7 -2 7 -2.25 4.5 C-2 2 -2 2 0 0 Z " fill="#8A76A6" transform="translate(142,445)"/>
<path d="M0 0 C1.2375 0.1546875 1.2375 0.1546875 2.5 0.3125 C4.5 3.3125 4.5 3.3125 4.125 6 C3.91875 6.763125 3.7125 7.52625 3.5 8.3125 C0.625 8.9375 0.625 8.9375 -2.5 9.3125 C-4.5 7.3125 -4.5 7.3125 -4.75 4.8125 C-4.40047575 1.3172575 -3.47557682 0.4344471 0 0 Z " fill="#8A76A6" transform="translate(344.5,443.6875)"/>
<path d="M0 0 C0.763125 0.20625 1.52625 0.4125 2.3125 0.625 C2.9375 2.9375 2.9375 2.9375 3.3125 5.625 C2.3225 7.11 2.3225 7.11 1.3125 8.625 C-1.1875 8.9375 -1.1875 8.9375 -3.6875 8.625 C-5.6875 6.625 -5.6875 6.625 -6 4.125 C-5.896875 3.3 -5.79375 2.475 -5.6875 1.625 C-2.6875 -0.375 -2.6875 -0.375 0 0 Z " fill="#8A76A6" transform="translate(443.6875,347.375)"/>
<path d="M0 0 C1.2375 0.1546875 1.2375 0.1546875 2.5 0.3125 C4.5 3.3125 4.5 3.3125 4.125 6 C3.91875 6.763125 3.7125 7.52625 3.5 8.3125 C0.625 8.9375 0.625 8.9375 -2.5 9.3125 C-4.5 7.3125 -4.5 7.3125 -4.75 4.8125 C-4.40047575 1.3172575 -3.47557682 0.4344471 0 0 Z " fill="#8A76A6" transform="translate(451.5,147.6875)"/>
<path d="M0 0 C1.2375 0.1546875 1.2375 0.1546875 2.5 0.3125 C4.5 3.3125 4.5 3.3125 4.125 6 C3.91875 6.763125 3.7125 7.52625 3.5 8.3125 C0.625 8.9375 0.625 8.9375 -2.5 9.3125 C-4.5 7.3125 -4.5 7.3125 -4.75 4.8125 C-4.40047575 1.3172575 -3.47557682 0.4344471 0 0 Z " fill="#8A76A6" transform="translate(446.5,135.6875)"/>
<path d="M0 0 C2.33944736 0.28730055 4.6739143 0.61936779 7 1 C7.625 3.3125 7.625 3.3125 8 6 C7.01 7.485 7.01 7.485 6 9 C3.03 8.505 3.03 8.505 0 8 C-0.38063221 5.6739143 -0.71269945 3.33944736 -1 1 C-0.67 0.67 -0.34 0.34 0 0 Z " fill="#8A76A6" transform="translate(38,130)"/>
<path d="M0 0 C3.29714793 0.32971479 4.6226839 0.6226839 7 3 C6.625 6.125 6.625 6.125 6 9 C3.125 9.125 3.125 9.125 0 9 C-2 7 -2 7 -2.25 4.5 C-2 2 -2 2 0 0 Z " fill="#8A76A6" transform="translate(45,118)"/>
<path d="M0 0 C3.0625 0.1875 3.0625 0.1875 5.0625 2.1875 C4.73278521 5.48464793 4.4398161 6.8101839 2.0625 9.1875 C-2.49305556 8.63194444 -2.49305556 8.63194444 -3.9375 7.1875 C-4.0625 4.1875 -4.0625 4.1875 -3.9375 1.1875 C-2.9375 0.1875 -2.9375 0.1875 0 0 Z " fill="#8A76A6" transform="translate(105.9375,51.8125)"/>
<path d="M0 0 C2.625 0.25 2.625 0.25 4.5 1.4375 C5.625 3.25 5.625 3.25 5.3125 5.9375 C5.085625 6.700625 4.85875 7.46375 4.625 8.25 C1.75 8.875 1.75 8.875 -1.375 9.25 C-3.375 7.25 -3.375 7.25 -3.5625 4.1875 C-3.31750282 0.34921082 -3.31750282 0.34921082 0 0 Z " fill="#8A76A6" transform="translate(127.375,37.75)"/>
<path d="M0 0 C3.125 0.375 3.125 0.375 6 1 C6.625 3.875 6.625 3.875 7 7 C5 9 5 9 2.5 9.25 C0 9 0 9 -2 7 C-2.25 4.5 -2.25 4.5 -2 2 C-1.34 1.34 -0.68 0.68 0 0 Z " fill="#8A76A6" transform="translate(349,36)"/>
<path d="M0 0 C1.2684375 0.12375 1.2684375 0.12375 2.5625 0.25 C4.5625 3.25 4.5625 3.25 4.1875 5.9375 C3.98125 6.700625 3.775 7.46375 3.5625 8.25 C-2.1875 9.375 -2.1875 9.375 -4.4375 8.25 C-3.43230397 0.35203118 -3.43230397 0.35203118 0 0 Z " fill="#8A76A6" transform="translate(139.4375,31.75)"/>
<path d="M0 0 C3.125 0.375 3.125 0.375 6 1 C6.625 3.3125 6.625 3.3125 7 6 C6.01 7.485 6.01 7.485 5 9 C2.5 9.3125 2.5 9.3125 0 9 C-2 7 -2 7 -2.25 4.5 C-2 2 -2 2 0 0 Z " fill="#8A76A6" transform="translate(337,31)"/>
<path d="M0 0 C1.2375 0.1546875 1.2375 0.1546875 2.5 0.3125 C4.5 3.3125 4.5 3.3125 4.125 6 C3.91875 6.763125 3.7125 7.52625 3.5 8.3125 C0.625 8.9375 0.625 8.9375 -2.5 9.3125 C-4.5 7.3125 -4.5 7.3125 -4.75 4.8125 C-4.40047575 1.3172575 -3.47557682 0.4344471 0 0 Z " fill="#8A76A6" transform="translate(151.5,26.6875)"/>
<path d="M0 0 C2.875 -0.125 2.875 -0.125 6 0 C6.66 0.66 7.32 1.32 8 2 C7.625 5.125 7.625 5.125 7 8 C4.6875 8.625 4.6875 8.625 2 9 C1.01 8.34 0.02 7.68 -1 7 C-0.67 4.69 -0.34 2.38 0 0 Z " fill="#8A76A6" transform="translate(178,457)"/>
<path d="M0 0 C2.33944736 0.28730055 4.6739143 0.61936779 7 1 C7.6875 3.3125 7.6875 3.3125 8 6 C6.875 7.875 6.875 7.875 5 9 C2.3125 8.6875 2.3125 8.6875 0 8 C-0.38063221 5.6739143 -0.71269945 3.33944736 -1 1 C-0.67 0.67 -0.34 0.34 0 0 Z " fill="#8A76A6" transform="translate(130,440)"/>
<path d="M0 0 C3.125 0.375 3.125 0.375 6 1 C6.625 3.3125 6.625 3.3125 7 6 C6.01 7.485 6.01 7.485 5 9 C-0.875 8.125 -0.875 8.125 -2 7 C-2.1875 4.5625 -2.1875 4.5625 -2 2 C-1.34 1.34 -0.68 0.68 0 0 Z " fill="#8A76A6" transform="translate(446,335)"/>
<path d="M0 0 C1.2684375 0.12375 1.2684375 0.12375 2.5625 0.25 C4.5625 3.25 4.5625 3.25 4.1875 5.9375 C3.98125 6.700625 3.775 7.46375 3.5625 8.25 C1.5825 8.58 -0.3975 8.91 -2.4375 9.25 C-4.4375 6.25 -4.4375 6.25 -4.125 3.625 C-3.16976704 0.32510431 -3.16976704 0.32510431 0 0 Z " fill="#8A76A6" transform="translate(32.4375,328.75)"/>
<path d="M0 0 C2.625 0.375 2.625 0.375 5 1 C5.38063221 3.3260857 5.71269945 5.66055264 6 8 C5 9 5 9 2.0625 9.1875 C-1 9 -1 9 -3 7 C-2.67028521 3.70285207 -2.3773161 2.3773161 0 0 Z " fill="#8A76A6" transform="translate(458,172)"/>
<path d="M0 0 C3.125 0.375 3.125 0.375 6 1 C6.625 3.3125 6.625 3.3125 7 6 C6.01 7.485 6.01 7.485 5 9 C-0.875 8.125 -0.875 8.125 -2 7 C-2.1875 4.5625 -2.1875 4.5625 -2 2 C-1.34 1.34 -0.68 0.68 0 0 Z " fill="#8A76A6" transform="translate(29,153)"/>
<path d="M0 0 C0.763125 0.20625 1.52625 0.4125 2.3125 0.625 C3.4375 6.375 3.4375 6.375 2.3125 8.625 C0.0025 8.625 -2.3075 8.625 -4.6875 8.625 C-5.0175 6.315 -5.3475 4.005 -5.6875 1.625 C-2.6875 -0.375 -2.6875 -0.375 0 0 Z " fill="#8A76A6" transform="translate(374.6875,49.375)"/>
<path d="M0 0 C1.9375 0.75 1.9375 0.75 3.9375 2.75 C3.5625 5.875 3.5625 5.875 2.9375 8.75 C0.0625 8.875 0.0625 8.875 -3.0625 8.75 C-5.0625 6.75 -5.0625 6.75 -5.375 4.25 C-5.271875 3.425 -5.16875 2.6 -5.0625 1.75 C-2.0625 -0.25 -2.0625 -0.25 0 0 Z " fill="#8A76A6" transform="translate(363.0625,42.25)"/>
<path d="M0 0 C1.2684375 0.12375 1.2684375 0.12375 2.5625 0.25 C4.5625 3.25 4.5625 3.25 4.1875 5.9375 C3.98125 6.700625 3.775 7.46375 3.5625 8.25 C1.5825 8.58 -0.3975 8.91 -2.4375 9.25 C-4.4375 6.25 -4.4375 6.25 -4.125 3.625 C-3.16976704 0.32510431 -3.16976704 0.32510431 0 0 Z " fill="#8A76A6" transform="translate(163.4375,22.75)"/>
<path d="M0 0 C2.875 -0.125 2.875 -0.125 6 0 C8 2 8 2 8.3125 4.5 C8.1578125 5.7375 8.1578125 5.7375 8 7 C5 9 5 9 2.3125 8.625 C1.549375 8.41875 0.78625 8.2125 0 8 C-0.79953138 4.71303767 -1.09658936 3.28976808 0 0 Z " fill="#8A76A6" transform="translate(384,417)"/>
<path d="M0 0 C2.875 -0.1875 2.875 -0.1875 6 0 C8 3 8 3 7.75 5.0625 C7 7 7 7 5 9 C1.875 8.625 1.875 8.625 -1 8 C-1.125 2.25 -1.125 2.25 0 0 Z " fill="#8A76A6" transform="translate(69,394)"/>
<path d="M0 0 C2.875 -0.1875 2.875 -0.1875 6 0 C8 3 8 3 7.6875 5.125 C7 7 7 7 6 8 C4.00041636 8.04080783 1.99954746 8.04254356 0 8 C-1.125 6.25 -1.125 6.25 -2 4 C-1.125 1.75 -1.125 1.75 0 0 Z " fill="#8A76A6" transform="translate(21,305)"/>
<path d="M0 0 C1 1 1 1 1.0625 4.5625 C1.041875 5.696875 1.02125 6.83125 1 8 C-4.43440487 9.32841008 -4.43440487 9.32841008 -6.9375 7.875 C-8 6 -8 6 -7.8125 3.375 C-6.42010387 -0.69508098 -3.8826193 -0.19910868 0 0 Z " fill="#8A76A6" transform="translate(24,292)"/>
<path d="M0 0 C2.375 0.375 2.375 0.375 3.375 1.375 C3.625 4.3125 3.625 4.3125 3.375 7.375 C0.375 9.375 0.375 9.375 -2.3125 9 C-3.075625 8.79375 -3.83875 8.5875 -4.625 8.375 C-5.625 5.375 -5.625 5.375 -4.5 2.6875 C-2.625 0.375 -2.625 0.375 0 0 Z " fill="#8A76A6" transform="translate(456.625,159.625)"/>
<path d="M0 0 C1.010625 0.0825 2.02125 0.165 3.0625 0.25 C5.0625 3.25 5.0625 3.25 4.8125 5.3125 C4.0625 7.25 4.0625 7.25 2.0625 9.25 C-0.20024788 8.89644564 -1.88838852 8.27455574 -3.9375 7.25 C-3.98004356 5.25045254 -3.97830783 3.24958364 -3.9375 1.25 C-2.9375 0.25 -2.9375 0.25 0 0 Z " fill="#8A76A6" transform="translate(60.9375,96.75)"/>
<path d="M0 0 C2.625 -0.1875 2.625 -0.1875 5 0 C5 0.66 5 1.32 5 2 C5.66 2 6.32 2 7 2 C7 3.65 7 5.3 7 7 C6.34 7 5.68 7 5 7 C5 7.66 5 8.32 5 9 C2.03 8.505 2.03 8.505 -1 8 C-1.625 5.6875 -1.625 5.6875 -2 3 C-1.34 2.01 -0.68 1.02 0 0 Z " fill="#8A76A6" transform="translate(75,77)"/>
<path d="M0 0 C2.875 -0.1875 2.875 -0.1875 6 0 C8 3 8 3 7.75 5.0625 C7 7 7 7 5 9 C1.875 8.625 1.875 8.625 -1 8 C-1.125 2.25 -1.125 2.25 0 0 Z " fill="#8A76A6" transform="translate(93,60)"/>
<path d="M0 0 C2.64 0 5.28 0 8 0 C8.04241723 2.33294775 8.04092937 4.66702567 8 7 C7 8 7 8 3.9375 8.0625 C2.968125 8.041875 1.99875 8.02125 1 8 C0.26919734 6.02253397 -0.39421747 4.01927511 -1 2 C-0.67 1.34 -0.34 0.68 0 0 Z " fill="#8A76A6" transform="translate(190,460)"/>
<path d="M0 0 C3.125 -0.1875 3.125 -0.1875 6 0 C6.625 3.375 6.625 3.375 7 7 C6.34 7.66 5.68 8.32 5 9 C2.5 8.9375 2.5 8.9375 0 8 C-1.4375 5.625 -1.4375 5.625 -2 3 C-1.34 2.01 -0.68 1.02 0 0 Z " fill="#8A76A6" transform="translate(364,432)"/>
<path d="M0 0 C1.010625 0.0825 2.02125 0.165 3.0625 0.25 C5.0625 3.25 5.0625 3.25 4.8125 5.3125 C4.0625 7.25 4.0625 7.25 2.0625 9.25 C-0.5625 8.875 -0.5625 8.875 -2.9375 8.25 C-3.31813221 5.9239143 -3.65019945 3.58944736 -3.9375 1.25 C-2.9375 0.25 -2.9375 0.25 0 0 Z " fill="#8A76A6" transform="translate(55.9375,373.75)"/>
<path d="M0 0 C2.97 0.495 2.97 0.495 6 1 C6.625 3.3125 6.625 3.3125 7 6 C6.01 7.485 6.01 7.485 5 9 C2.03 8.505 2.03 8.505 -1 8 C-1.625 5.6875 -1.625 5.6875 -2 3 C-1.34 2.01 -0.68 1.02 0 0 Z " fill="#8A76A6" transform="translate(458,299)"/>
<path d="M0 0 C3.125 0.375 3.125 0.375 6 1 C6.625 3.3125 6.625 3.3125 7 6 C6.01 7.485 6.01 7.485 5 9 C2.375 9.1875 2.375 9.1875 0 9 C-0.66 6.69 -1.32 4.38 -2 2 C-1.34 1.34 -0.68 0.68 0 0 Z " fill="#8A76A6" transform="translate(33,141)"/>
<path d="M0 0 C2 3 2 3 1.75 5.0625 C1 7 1 7 -1 9 C-3.26274788 8.64644564 -4.95088852 8.02455574 -7 7 C-7 5.02 -7 3.04 -7 1 C-4.46578263 -0.26710868 -2.80561762 -0.28056176 0 0 Z " fill="#8A76A6" transform="translate(72,87)"/>
<path d="M0 0 C1 1 1 1 1.0625 3.5625 C1.041875 4.366875 1.02125 5.17125 1 6 C0.34 6 -0.32 6 -1 6 C-1 6.66 -1 7.32 -1 8 C-3.375 8.1875 -3.375 8.1875 -6 8 C-8 5 -8 5 -7.75 2.375 C-7.5025 1.59125 -7.255 0.8075 -7 0 C-4.31633121 -1.3418344 -2.84719317 -0.73004953 0 0 Z " fill="#8A76A6" transform="translate(90,69)"/>
<path d="M0 0 C5.56818182 0.56818182 5.56818182 0.56818182 7 2 C7.04080783 3.99958364 7.04254356 6.00045254 7 8 C4.6875 8.625 4.6875 8.625 2 9 C-1 7 -1 7 -1.8125 4.5 C-1.874375 3.675 -1.93625 2.85 -2 2 C-1.34 1.34 -0.68 0.68 0 0 Z " fill="#8A76A6" transform="translate(325,26)"/>
<path d="M0 0 C3.125 -0.1875 3.125 -0.1875 6 0 C7.125 2.3125 7.125 2.3125 8 5 C7.01 6.485 7.01 6.485 6 8 C2.875 8.1875 2.875 8.1875 0 8 C-1.125 5.6875 -1.125 5.6875 -2 3 C-1.34 2.01 -0.68 1.02 0 0 Z " fill="#8A76A6" transform="translate(229,464)"/>
<path d="M0 0 C1.99954746 -0.04254356 4.00041636 -0.04080783 6 0 C7 1 7 1 7.0625 4.5625 C7.041875 5.696875 7.02125 6.83125 7 8 C4.69 8 2.38 8 0 8 C-1.125 6.25 -1.125 6.25 -2 4 C-1.125 1.75 -1.125 1.75 0 0 Z " fill="#8A76A6" transform="translate(280,462)"/>
<path d="M0 0 C0.125 2.875 0.125 2.875 0 6 C-2 8 -2 8 -4.625 8.125 C-5.40875 8.08375 -6.1925 8.0425 -7 8 C-8.35439668 5.29120665 -8.06501451 2.99066732 -8 0 C-5.13822943 -1.43088528 -3.06624227 -0.59991697 0 0 Z " fill="#8A76A6" transform="translate(115,428)"/>
<path d="M0 0 C0.125 2.375 0.125 2.375 0 5 C-0.66 5.66 -1.32 6.32 -2 7 C-5.625 6.625 -5.625 6.625 -9 6 C-9 4.02 -9 2.04 -9 0 C-5.93109813 -1.53445094 -3.29905734 -0.54984289 0 0 Z " fill="#8A76A6" transform="translate(105,421)"/>
<path d="M0 0 C1.98 0 3.96 0 6 0 C6.33 2.31 6.66 4.62 7 7 C6.34 7 5.68 7 5 7 C5 7.66 5 8.32 5 9 C3.33388095 9.042721 1.66617115 9.04063832 0 9 C-1 8 -1 8 -1.125 5.0625 C-1 2 -1 2 0 0 Z " fill="#8A76A6" transform="translate(61,384)"/>
<path d="M0 0 C2.31 0.33 4.62 0.66 7 1 C7.125 3.875 7.125 3.875 7 7 C6.34 7.66 5.68 8.32 5 9 C1.70720291 8.68134222 0.13464912 7.45484649 -2 5 C-1.34 3.35 -0.68 1.7 0 0 Z " fill="#8A76A6" transform="translate(420,380)"/>
<path d="M0 0 C3.0625 -0.25 3.0625 -0.25 6 0 C7 1 7 1 7.0625 4.5625 C7.041875 5.696875 7.02125 6.83125 7 8 C4.69 8 2.38 8 0 8 C-1.125 5.6875 -1.125 5.6875 -2 3 C-1.34 2.01 -0.68 1.02 0 0 Z " fill="#8A76A6" transform="translate(14,267)"/>
<path d="M0 0 C1 1 1 1 1.0625 3.5625 C1.041875 4.366875 1.02125 5.17125 1 6 C-1.35438733 7.42944945 -2.48032433 8.08661261 -5.25 7.625 C-5.8275 7.41875 -6.405 7.2125 -7 7 C-7.93423645 3.98968256 -8.04449911 3.13349732 -7 0 C-4.31633121 -1.3418344 -2.84719317 -0.73004953 0 0 Z " fill="#8A76A6" transform="translate(470,211)"/>
<path d="M0 0 C2.64 0 5.28 0 8 0 C8.04241723 2.33294775 8.04092937 4.66702567 8 7 C7 8 7 8 3.9375 8.0625 C2.968125 8.041875 1.99875 8.02125 1 8 C-1.125 3.375 -1.125 3.375 0 0 Z " fill="#8A76A6" transform="translate(461,198)"/>
<path d="M0 0 C0.125 2.875 0.125 2.875 0 6 C-0.66 6.66 -1.32 7.32 -2 8 C-5.125 7.625 -5.125 7.625 -8 7 C-8.6875 4.6875 -8.6875 4.6875 -9 2 C-6.73607469 -1.99516231 -4.01344788 -0.98106504 0 0 Z " fill="#8A76A6" transform="translate(25,191)"/>
<path d="M0 0 C0.94875 0.04125 1.8975 0.0825 2.875 0.125 C3.25563221 2.4510857 3.58769945 4.78555264 3.875 7.125 C2.875 8.125 2.875 8.125 -0.6875 8.1875 C-1.821875 8.166875 -2.95625 8.14625 -4.125 8.125 C-4.75 5.25 -4.75 5.25 -5.125 2.125 C-3.125 0.125 -3.125 0.125 0 0 Z " fill="#8A76A6" transform="translate(463.125,184.875)"/>
<path d="M0 0 C2.31 0 4.62 0 7 0 C7.79953138 3.28696233 8.09658936 4.71023192 7 8 C4.125 8.125 4.125 8.125 1 8 C0.34 7.34 -0.32 6.68 -1 6 C-0.625 2.875 -0.625 2.875 0 0 Z " fill="#8A76A6" transform="translate(20,178)"/>
<path d="M0 0 C2.375 0.75 2.375 0.75 3.375 1.75 C3.41580783 3.74958364 3.41754356 5.75045254 3.375 7.75 C0.08803767 8.54953138 -1.33523192 8.84658936 -4.625 7.75 C-5.3125 5.4375 -5.3125 5.4375 -5.625 2.75 C-3.9659358 -0.015107 -3.22812218 -0.30744021 0 0 Z " fill="#8A76A6" transform="translate(27.625,165.25)"/>
<path d="M0 0 C0.94875 0.04125 1.8975 0.0825 2.875 0.125 C3.205 2.435 3.535 4.745 3.875 7.125 C-2.875 8.25 -2.875 8.25 -5.125 7.125 C-5.25 4.75 -5.25 4.75 -5.125 2.125 C-3.125 0.125 -3.125 0.125 0 0 Z " fill="#8A76A6" transform="translate(435.125,113.875)"/>
<path d="M0 0 C2.64 0 5.28 0 8 0 C8.125 5.75 8.125 5.75 7 8 C5.02 8 3.04 8 1 8 C0.26919734 6.02253397 -0.39421747 4.01927511 -1 2 C-0.67 1.34 -0.34 0.68 0 0 Z " fill="#8A76A6" transform="translate(287,17)"/>
<path d="M0 0 C2.31 0 4.62 0 7 0 C7.625 2.3125 7.625 2.3125 8 5 C7.01 6.485 7.01 6.485 6 8 C3.5 8.3125 3.5 8.3125 1 8 C0.34 7.34 -0.32 6.68 -1 6 C-0.625 2.875 -0.625 2.875 0 0 Z " fill="#8A76A6" transform="translate(203,462)"/>
<path d="M0 0 C1.99954746 -0.04254356 4.00041636 -0.04080783 6 0 C7 1 7 1 7.0625 4.0625 C7.041875 5.031875 7.02125 6.00125 7 7 C4.29120665 8.35439668 1.99066732 8.06501451 -1 8 C-1.93065133 5.39417629 -2.14917407 4.35801776 -1.0625 1.75 C-0.711875 1.1725 -0.36125 0.595 0 0 Z " fill="#8A76A6" transform="translate(293,460)"/>
<path d="M0 0 C1.99954746 -0.04254356 4.00041636 -0.04080783 6 0 C7 1 7 1 7.125 4 C7 7 7 7 6 8 C4.00041636 8.04080783 1.99954746 8.04254356 0 8 C-1.125 6.25 -1.125 6.25 -2 4 C-1.125 1.75 -1.125 1.75 0 0 Z " fill="#8A76A6" transform="translate(305,457)"/>
<path d="M0 0 C2.9375 0.1875 2.9375 0.1875 3.9375 1.1875 C4.0625 4.1875 4.0625 4.1875 3.9375 7.1875 C2.9375 8.1875 2.9375 8.1875 -0.125 8.25 C-1.094375 8.229375 -2.06375 8.20875 -3.0625 8.1875 C-3.7225 6.2075 -4.3825 4.2275 -5.0625 2.1875 C-3.0625 0.1875 -3.0625 0.1875 0 0 Z " fill="#8A76A6" transform="translate(169.0625,453.8125)"/>
<path d="M0 0 C1.4540625 0.0309375 1.4540625 0.0309375 2.9375 0.0625 C3.73703138 3.34946233 4.03408936 4.77273192 2.9375 8.0625 C0.0625 8.1875 0.0625 8.1875 -3.0625 8.0625 C-3.7225 7.4025 -4.3825 6.7425 -5.0625 6.0625 C-4.33395709 0.0884481 -4.33395709 0.0884481 0 0 Z " fill="#8A76A6" transform="translate(157.0625,449.9375)"/>
<path d="M0 0 C2.5625 0.1875 2.5625 0.1875 4.5625 2.1875 C4.8125 4.6875 4.8125 4.6875 4.5625 7.1875 C3.9025 7.8475 3.2425 8.5075 2.5625 9.1875 C-1.99305556 8.63194444 -1.99305556 8.63194444 -3.4375 7.1875 C-3.5625 4.1875 -3.5625 4.1875 -3.4375 1.1875 C-2.4375 0.1875 -2.4375 0.1875 0 0 Z " fill="#8A76A6" transform="translate(414.4375,389.8125)"/>
<path d="M0 0 C1.2684375 0.12375 1.2684375 0.12375 2.5625 0.25 C4.7144437 3.47791555 4.76336443 4.53400809 4.5625 8.25 C1.6875 8.875 1.6875 8.875 -1.4375 9.25 C-3.4375 7.25 -3.4375 7.25 -3.625 4.1875 C-3.37983937 0.34665019 -3.37983937 0.34665019 0 0 Z " fill="#8A76A6" transform="translate(42.4375,351.75)"/>
<path d="M0 0 C2.31 0 4.62 0 7 0 C7.33 1.98 7.66 3.96 8 6 C5 8 5 8 1.8125 7.625 C0.884375 7.41875 -0.04375 7.2125 -1 7 C-0.67 4.69 -0.34 2.38 0 0 Z " fill="#8A76A6" transform="translate(34,341)"/>
<path d="M0 0 C2.9375 0.1875 2.9375 0.1875 3.9375 1.1875 C4.0625 4.1875 4.0625 4.1875 3.9375 7.1875 C2.9375 8.1875 2.9375 8.1875 -0.125 8.25 C-1.094375 8.229375 -2.06375 8.20875 -3.0625 8.1875 C-3.7225 6.2075 -4.3825 4.2275 -5.0625 2.1875 C-3.0625 0.1875 -3.0625 0.1875 0 0 Z " fill="#8A76A6" transform="translate(453.0625,323.8125)"/>
<path d="M0 0 C1.99954746 -0.04254356 4.00041636 -0.04080783 6 0 C7 1 7 1 7.125 4 C7 7 7 7 6 8 C4.00041636 8.04080783 1.99954746 8.04254356 0 8 C-1.125 6.25 -1.125 6.25 -2 4 C-1.125 1.75 -1.125 1.75 0 0 Z " fill="#8A76A6" transform="translate(25,317)"/>
<path d="M0 0 C2.9375 0.1875 2.9375 0.1875 3.9375 1.1875 C4.0625 4.1875 4.0625 4.1875 3.9375 7.1875 C2.9375 8.1875 2.9375 8.1875 -0.125 8.25 C-1.094375 8.229375 -2.06375 8.20875 -3.0625 8.1875 C-3.7225 6.2075 -4.3825 4.2275 -5.0625 2.1875 C-3.0625 0.1875 -3.0625 0.1875 0 0 Z " fill="#8A76A6" transform="translate(457.0625,311.8125)"/>
<path d="M0 0 C2.33294775 -0.04241723 4.66702567 -0.04092937 7 0 C8 1 8 1 8.0625 4.0625 C8.041875 5.031875 8.02125 6.00125 8 7 C5.69 7.33 3.38 7.66 1 8 C-1.125 3.375 -1.125 3.375 0 0 Z " fill="#8A76A6" transform="translate(15,280)"/>
<path d="M0 0 C2.97 0.495 2.97 0.495 6 1 C6.93065133 3.60582371 7.14917407 4.64198224 6.0625 7.25 C5.711875 7.8275 5.36125 8.405 5 9 C2.03 8.505 2.03 8.505 -1 8 C-1.625 5.6875 -1.625 5.6875 -2 3 C-1.34 2.01 -0.68 1.02 0 0 Z " fill="#8A76A6" transform="translate(463,274)"/>
<path d="M0 0 C3.0625 -0.25 3.0625 -0.25 6 0 C7 1 7 1 7.125 4 C7 7 7 7 6 8 C4.00041636 8.04080783 1.99954746 8.04254356 0 8 C-1.125 5.6875 -1.125 5.6875 -2 3 C-1.34 2.01 -0.68 1.02 0 0 Z " fill="#8A76A6" transform="translate(465,249)"/>
<path d="M0 0 C3.0625 -0.25 3.0625 -0.25 6 0 C7 1 7 1 7.125 4 C7 7 7 7 6 8 C4.00041636 8.04080783 1.99954746 8.04254356 0 8 C-1.125 5.6875 -1.125 5.6875 -2 3 C-1.34 2.01 -0.68 1.02 0 0 Z " fill="#8A76A6" transform="translate(465,236)"/>
<path d="M0 0 C1.98 0 3.96 0 6 0 C6.38063221 2.3260857 6.71269945 4.66055264 7 7 C6 8 6 8 2.4375 8.0625 C1.303125 8.041875 0.16875 8.02125 -1 8 C-1.93065133 5.39417629 -2.14917407 4.35801776 -1.0625 1.75 C-0.711875 1.1725 -0.36125 0.595 0 0 Z " fill="#8A76A6" transform="translate(465,223)"/>
<path d="M0 0 C1.4540625 0.0309375 1.4540625 0.0309375 2.9375 0.0625 C3.5975 1.7125 4.2575 3.3625 4.9375 5.0625 C3.6175 6.3825 2.2975 7.7025 0.9375 9.0625 C-1.5375 8.0725 -1.5375 8.0725 -4.0625 7.0625 C-4.10504356 5.06295254 -4.10330783 3.06208364 -4.0625 1.0625 C-3.0625 0.0625 -3.0625 0.0625 0 0 Z " fill="#8A76A6" transform="translate(117.0625,44.9375)"/>
<path d="M0 0 C1.1446875 0.3403125 1.1446875 0.3403125 2.3125 0.6875 C2.9375 3 2.9375 3 3.3125 5.6875 C2.3225 7.1725 2.3225 7.1725 1.3125 8.6875 C-1.6575 8.1925 -1.6575 8.1925 -4.6875 7.6875 C-5.375 5.375 -5.375 5.375 -5.6875 2.6875 C-4.0011022 -0.12316299 -3.27764429 -0.38112143 0 0 Z " fill="#8A76A6" transform="translate(316.6875,22.3125)"/>
<path d="M0 0 C1.4540625 0.0309375 1.4540625 0.0309375 2.9375 0.0625 C3.31813221 2.3885857 3.65019945 4.72305264 3.9375 7.0625 C2.9375 8.0625 2.9375 8.0625 0 8.25 C-3.0625 8.0625 -3.0625 8.0625 -5.0625 6.0625 C-4.33395709 0.0884481 -4.33395709 0.0884481 0 0 Z " fill="#8A76A6" transform="translate(176.0625,19.9375)"/>
<path d="M0 0 C2.00720923 0.28674418 4.0085944 0.61866701 6 1 C6.93423645 4.01031744 7.04449911 4.86650268 6 8 C3.6875 8.625 3.6875 8.625 1 9 C0.01 8.34 -0.98 7.68 -2 7 C-1.125 1.125 -1.125 1.125 0 0 Z " fill="#8A76A6" transform="translate(301,19)"/>
<path d="M0 0 C1.99954746 -0.04254356 4.00041636 -0.04080783 6 0 C7 1 7 1 7.125 4 C7 7 7 7 6 8 C4.00041636 8.04080783 1.99954746 8.04254356 0 8 C-1.125 6.25 -1.125 6.25 -2 4 C-1.125 1.75 -1.125 1.75 0 0 Z " fill="#8A76A6" transform="translate(185,17)"/>
<path d="M0 0 C3 0.125 3 0.125 4 1.125 C4.04080783 3.12458364 4.04254356 5.12545254 4 7.125 C1.6875 8.25 1.6875 8.25 -1 9.125 C-1.99 8.465 -2.98 7.805 -4 7.125 C-4.25 4.0625 -4.25 4.0625 -4 1.125 C-3 0.125 -3 0.125 0 0 Z " fill="#8A76A6" transform="translate(239,11.875)"/>
<path d="M0 0 C2.375 0.25 2.375 0.25 3.375 1.25 C3.41592937 3.58297433 3.41741723 5.91705225 3.375 8.25 C1.065 8.25 -1.245 8.25 -3.625 8.25 C-4.285 6.6 -4.945 4.95 -5.625 3.25 C-3.7774876 0.91630013 -3.0311278 0.28867884 0 0 Z " fill="#8A76A6" transform="translate(219.625,462.75)"/>
<path d="M0 0 C2.5 0.25 2.5 0.25 4.5 2.25 C3.94444444 6.80555556 3.94444444 6.80555556 2.5 8.25 C0.16055264 7.96269945 -2.1739143 7.63063221 -4.5 7.25 C-4.625 4.875 -4.625 4.875 -4.5 2.25 C-2.5 0.25 -2.5 0.25 0 0 Z " fill="#8A76A6" transform="translate(90.5,411.75)"/>
<path d="M0 0 C2.625 0.625 2.625 0.625 5 2 C5.9375 3.9375 5.9375 3.9375 6 6 C5.01 7.485 5.01 7.485 4 9 C1.69 8.67 -0.62 8.34 -3 8 C-3.1875 5.125 -3.1875 5.125 -3 2 C-2.01 1.34 -1.02 0.68 0 0 Z " fill="#8A76A6" transform="translate(429,369)"/>
<path d="M0 0 C2.875 -0.125 2.875 -0.125 6 0 C6.66 0.66 7.32 1.32 8 2 C7.625 5.125 7.625 5.125 7 8 C4.125 8.125 4.125 8.125 1 8 C0.34 7.34 -0.32 6.68 -1 6 C-0.625 2.875 -0.625 2.875 0 0 Z " fill="#8A76A6" transform="translate(460,287)"/>
<path d="M0 0 C2.33294775 -0.04241723 4.66702567 -0.04092937 7 0 C8 1 8 1 8.125 4 C8 7 8 7 7 8 C4.625 8.3125 4.625 8.3125 2 8 C0.125 6.25 0.125 6.25 -1 4 C-0.6875 1.75 -0.6875 1.75 0 0 Z " fill="#8A76A6" transform="translate(463,262)"/>
<path d="M0 0 C3.0625 -0.25 3.0625 -0.25 6 0 C7 1 7 1 7.125 4 C7 7 7 7 6 8 C4.00041636 8.04080783 1.99954746 8.04254356 0 8 C-1.125 5.6875 -1.125 5.6875 -2 3 C-1.34 2.01 -0.68 1.02 0 0 Z " fill="#8A76A6" transform="translate(14,216)"/>
<path d="M0 0 C2.5 -0.3125 2.5 -0.3125 5 0 C5.66 0.66 6.32 1.32 7 2 C6.625 5.125 6.625 5.125 6 8 C3.69 8 1.38 8 -1 8 C-1.625 5.6875 -1.625 5.6875 -2 3 C-1.34 2.01 -0.68 1.02 0 0 Z " fill="#8A76A6" transform="translate(16,203)"/>
<path d="M0 0 C1.98 0 3.96 0 6 0 C6.33 2.31 6.66 4.62 7 7 C5.35 7.66 3.7 8.32 2 9 C0.68 7.68 -0.64 6.36 -2 5 C-1.34 3.35 -0.68 1.7 0 0 Z " fill="#8A76A6" transform="translate(425,103)"/>
<path d="M0 0 C2.31 0 4.62 0 7 0 C7.04241723 2.33294775 7.04092937 4.66702567 7 7 C6 8 6 8 3.625 8.3125 C1 8 1 8 -0.8125 6 C-1.204375 5.34 -1.59625 4.68 -2 4 C-1.34 2.68 -0.68 1.36 0 0 Z " fill="#8A76A6" transform="translate(275,15)"/>
<path d="M0 0 C2.33294775 -0.04241723 4.66702567 -0.04092937 7 0 C8 1 8 1 8.1875 3.4375 C8 6 8 6 6 8 C3.375 8.125 3.375 8.125 1 8 C-1.125 3.375 -1.125 3.375 0 0 Z " fill="#8A76A6" transform="translate(197,15)"/>
<path d="M0 0 C2.5 -0.3125 2.5 -0.3125 5 0 C5.66 0.66 6.32 1.32 7 2 C6.625 5.125 6.625 5.125 6 8 C3.69 8 1.38 8 -1 8 C-1.625 5.6875 -1.625 5.6875 -2 3 C-1.34 2.01 -0.68 1.02 0 0 Z " fill="#8A76A6" transform="translate(263,13)"/>
<path d="M0 0 C0 2.31 0 4.62 0 7 C-1.98 7.33 -3.96 7.66 -6 8 C-8 5 -8 5 -7.75 2.375 C-7.5025 1.59125 -7.255 0.8075 -7 0 C-4.3333581 -1.33332095 -2.83319697 -0.67102033 0 0 Z " fill="#8A76A6" transform="translate(274,464)"/>
<path d="M0 0 C2.875 -0.125 2.875 -0.125 6 0 C8 2 8 2 8.125 4.625 C8.08375 5.40875 8.0425 6.1925 8 7 C5.6875 8.125 5.6875 8.125 3 9 C2.01 8.34 1.02 7.68 0 7 C-0.1875 3.375 -0.1875 3.375 0 0 Z " fill="#8A76A6" transform="translate(374,425)"/>
<path d="M0 0 C3.0625 -0.25 3.0625 -0.25 6 0 C7 1 7 1 7.125 4 C7 7 7 7 6 8 C3.66055264 7.71269945 1.3260857 7.38063221 -1 7 C-1.625 5.1875 -1.625 5.1875 -2 3 C-1.34 2.01 -0.68 1.02 0 0 Z " fill="#8A76A6" transform="translate(13,229)"/>
<path d="M0 0 C1.010625 0.0825 2.02125 0.165 3.0625 0.25 C5.0625 3.25 5.0625 3.25 4.75 5.375 C4.0625 7.25 4.0625 7.25 3.0625 8.25 C0.625 8.4375 0.625 8.4375 -1.9375 8.25 C-3.9375 6.25 -3.9375 6.25 -4.125 3.6875 C-3.85121288 0.1282675 -3.61900269 0.30800023 0 0 Z " fill="#8A76A6" transform="translate(419.9375,92.75)"/>
<path d="M0 0 C2.33294775 -0.04241723 4.66702567 -0.04092937 7 0 C8 1 8 1 8.125 4 C8 7 8 7 7 8 C5.00041636 8.04080783 2.99954746 8.04254356 1 8 C-0.35439668 5.29120665 -0.06501451 2.99066732 0 0 Z " fill="#8A76A6" transform="translate(399,74)"/>
<path d="M0 0 C2.31 0.33 4.62 0.66 7 1 C6.67 3.31 6.34 5.62 6 8 C3.69 7.67 1.38 7.34 -1 7 C-1.625 5.1875 -1.625 5.1875 -2 3 C-1.34 2.01 -0.68 1.02 0 0 Z " fill="#8A76A6" transform="translate(119,434)"/>
<path d="M0 0 C2.4375 0.1875 2.4375 0.1875 3.4375 1.1875 C3.5625 4.1875 3.5625 4.1875 3.4375 7.1875 C2.4375 8.1875 2.4375 8.1875 -1.125 8.25 C-2.259375 8.229375 -3.39375 8.20875 -4.5625 8.1875 C-4.6875 5.3125 -4.6875 5.3125 -4.5625 2.1875 C-2.5625 0.1875 -2.5625 0.1875 0 0 Z " fill="#8A76A6" transform="translate(16.5625,253.8125)"/>
<path d="M0 0 C2.6875 0.875 2.6875 0.875 5 2 C4.67 4.31 4.34 6.62 4 9 C1.69 8.67 -0.62 8.34 -3 8 C-3.1875 5.125 -3.1875 5.125 -3 2 C-2.01 1.34 -1.02 0.68 0 0 Z " fill="#8A76A6" transform="translate(53,107)"/>
<path d="M0 0 C0.7425 0.2475 1.485 0.495 2.25 0.75 C2.29254356 2.74954746 2.29080783 4.75041636 2.25 6.75 C1.25 7.75 1.25 7.75 -2.3125 7.8125 C-3.446875 7.791875 -4.58125 7.77125 -5.75 7.75 C-6.5 6 -6.5 6 -6.75 3.75 C-4.62771652 0.72982736 -3.76812267 -0.34255661 0 0 Z " fill="#8A76A6" transform="translate(227.75,12.25)"/>
<path d="M0 0 C2.625 -0.1875 2.625 -0.1875 5 0 C6.42944945 2.35438733 7.08661261 3.48032433 6.625 6.25 C6.41875 6.8275 6.2125 7.405 6 8 C4.02 8 2.04 8 0 8 C-1.125 5.6875 -1.125 5.6875 -2 3 C-1.34 2.01 -0.68 1.02 0 0 Z " fill="#8A76A6" transform="translate(255,464)"/>
<path d="M0 0 C2.4375 0.1875 2.4375 0.1875 3.4375 1.1875 C3.47842937 3.52047433 3.47991723 5.85455225 3.4375 8.1875 C1.1275 8.1875 -1.1825 8.1875 -3.5625 8.1875 C-4.1875 5.3125 -4.1875 5.3125 -4.5625 2.1875 C-2.5625 0.1875 -2.5625 0.1875 0 0 Z " fill="#8A76A6" transform="translate(213.5625,12.8125)"/>
<path d="M0 0 C5.875 0.875 5.875 0.875 7 2 C7.125 4.5 7.125 4.5 7 7 C6 8 6 8 2.9375 8.0625 C1.968125 8.041875 0.99875 8.02125 0 8 C-1.125 5.6875 -1.125 5.6875 -2 3 C-1.34 2.01 -0.68 1.02 0 0 Z " fill="#8A76A6" transform="translate(250,12)"/>
<path d="M0 0 C2.5625 0.1875 2.5625 0.1875 4.5625 2.1875 C4.875 4.6875 4.875 4.6875 4.5625 7.1875 C1.5625 9.1875 1.5625 9.1875 -0.625 8.8125 C-1.223125 8.60625 -1.82125 8.4 -2.4375 8.1875 C-2.81813221 5.8614143 -3.15019945 3.52694736 -3.4375 1.1875 C-2.4375 0.1875 -2.4375 0.1875 0 0 Z " fill="#8A76A6" transform="translate(393.4375,64.8125)"/>
<path d="M0 0 C2.33944736 0.28730055 4.6739143 0.61936779 7 1 C6.67 3.31 6.34 5.62 6 8 C3.69 7.67 1.38 7.34 -1 7 C-1.04254356 5.00045254 -1.04080783 2.99958364 -1 1 C-0.67 0.67 -0.34 0.34 0 0 Z " fill="#8A76A6" transform="translate(381,57)"/>
<path d="M0 0 C2.33294775 -0.04241723 4.66702567 -0.04092937 7 0 C8 1 8 1 8.0625 4.0625 C8.041875 5.031875 8.02125 6.00125 8 7 C5.69 7 3.38 7 1 7 C-0.0625 4.625 -0.0625 4.625 -1 2 C-0.67 1.34 -0.34 0.68 0 0 Z " fill="#8A76A6" transform="translate(241,465)"/>
<path d="M0 0 C1.134375 0.020625 2.26875 0.04125 3.4375 0.0625 C4.0625 2.4375 4.0625 2.4375 4.4375 5.0625 C2.4375 7.0625 2.4375 7.0625 -0.6875 7.1875 C-2.110625 7.125625 -2.110625 7.125625 -3.5625 7.0625 C-3.94383299 5.0710944 -4.27575582 3.06970923 -4.5625 1.0625 C-3.5625 0.0625 -3.5625 0.0625 0 0 Z " fill="#8A76A6" transform="translate(397.5625,409.9375)"/>
<path d="M0 0 C3.625 -0.1875 3.625 -0.1875 7 0 C7.625 1.8125 7.625 1.8125 8 4 C7.01 5.485 7.01 5.485 6 7 C2.375 7.1875 2.375 7.1875 -1 7 C-1.625 5.1875 -1.625 5.1875 -2 3 C-1.34 2.01 -0.68 1.02 0 0 Z " fill="#8A76A6" transform="translate(13,242)"/>
<path d="M0 0 C2.31 0 4.62 0 7 0 C7 2.64 7 5.28 7 8 C4 9 4 9 1.8125 7.9375 C0 6 0 6 -0.25 2.8125 C-0.1675 1.884375 -0.085 0.95625 0 0 Z " fill="#8975A5" transform="translate(408,83)"/>
<path d="M0 0 C0 2.31 0 4.62 0 7 C-1.65 7.33 -3.3 7.66 -5 8 C-7 2.25 -7 2.25 -7 0 C-4.3333581 -1.33332095 -2.83319697 -0.67102033 0 0 Z " fill="#8A76A6" transform="translate(84,404)"/>
<path d="M0 0 C1.134375 0.020625 2.26875 0.04125 3.4375 0.0625 C3.81968767 1.71864657 4.15145102 3.38707024 4.4375 5.0625 C3.4375 6.0625 3.4375 6.0625 -0.125 6.125 C-1.259375 6.104375 -2.39375 6.08375 -3.5625 6.0625 C-3.94468767 4.40635343 -4.27645102 2.73792976 -4.5625 1.0625 C-3.5625 0.0625 -3.5625 0.0625 0 0 Z " fill="#8A76A6" transform="translate(406.5625,400.9375)"/>
<path d="M0 0 C2.58926331 2.58926331 2.37398043 4.02705279 2.625 7.625 C2.69976562 8.62789062 2.77453125 9.63078125 2.8515625 10.6640625 C2.92503906 11.82035156 2.92503906 11.82035156 3 13 C0.4375 10.9375 0.4375 10.9375 -2 8 C-1.79310345 1.79310345 -1.79310345 1.79310345 0 0 Z " fill="#EFECF3" transform="translate(362,193)"/>
<path d="M0 0 C1.65 1.65 3.3 3.3 5 5 C4.40138258 7.35171131 3.73075648 9.6859378 3 12 C2.01 12.495 2.01 12.495 1 13 C0.67 8.71 0.34 4.42 0 0 Z " fill="#EFECF3" transform="translate(127,285)"/>
</svg>
