<?xml version="1.0" encoding="UTF-8"?>
<svg version="1.1" xmlns="http://www.w3.org/2000/svg" width="484" height="485">
<path d="M0 0 C4.58090364 2.6896177 7.46293856 6.44426841 9.5 11.3125 C9.8359375 14.046875 9.8359375 14.046875 9.875 17.0625 C9.90335938 18.04734375 9.93171875 19.0321875 9.9609375 20.046875 C9.52619345 23.12692604 8.87689744 24.80965118 7.47119141 27.51660156 C6.92055527 28.58615082 6.92055527 28.58615082 6.35879517 29.67730713 C6.07539276 30.21692078 5.79199036 30.75653442 5.5 31.3125 C11.19214898 32.29341746 16.88470367 33.27193427 22.57763672 34.24829102 C24.51166759 34.58032389 26.44558874 34.9129966 28.37939453 35.24633789 C31.16930549 35.72713398 33.95961137 36.20557867 36.75 36.68359375 C37.60553467 36.83154892 38.46106934 36.97950409 39.3425293 37.13194275 C59.20056497 40.52300808 77.54137542 40.86030732 96.90771484 34.82910156 C105.25362112 32.25391584 113.35367424 30.02386813 121.90234375 33.20703125 C128.09442995 36.6547664 132.85900013 42.03937195 135.4375 48.625 C137.12203776 54.60206469 136.94428135 60.0203881 134.4375 65.734375 C130.82770048 71.84642192 125.94731024 75.45156994 119.5 78.3125 C117.8380085 78.66841171 116.1716134 79.00493288 114.5 79.3125 C114.73040985 79.92349045 114.9608197 80.5344809 115.19821167 81.16398621 C116.33788371 84.18614199 117.47753779 87.20830455 118.6171875 90.23046875 C119.05728653 91.39753357 119.49738556 92.56459839 119.95082092 93.76702881 C122.45523445 100.40845291 124.95939486 107.04997231 127.46313477 113.69165039 C128.53661429 116.53922782 129.61010302 119.38680179 130.68359375 122.234375 C130.95720545 122.96017698 131.23081715 123.68597897 131.51272011 124.43377495 C134.97126082 133.60796575 138.43135499 142.78156819 141.8936348 151.95434856 C144.22594962 158.13351007 146.55739356 164.31299972 148.88827133 170.49270344 C150.28979429 174.20831761 151.69177765 177.92375655 153.09490967 181.63876343 C158.19361303 195.13925362 163.28987315 208.64066331 168.25390625 222.19140625 C168.58929916 223.10115707 168.92469208 224.0109079 169.27024841 224.94822693 C169.56851028 225.76783401 169.86677216 226.5874411 170.17407227 227.43188477 C170.43245377 228.13902115 170.69083527 228.84615753 170.95704651 229.57472229 C171.5 231.3125 171.5 231.3125 171.5 233.3125 C172.49 233.6425 173.48 233.9725 174.5 234.3125 C174.02245623 245.29600678 166.10300788 254.00475457 158.5 261.3125 C140.66827318 276.14341843 118.93927127 279.1038704 96.5 277.3125 C78.08865433 274.89184197 60.41526942 265.57043256 48.5 251.3125 C40.64635645 240.02464673 40.64635645 240.02464673 41.5 234.3125 C41.94875488 233.58248779 42.39750977 232.85247559 42.85986328 232.1003418 C44.74082207 228.90315983 45.89089276 225.75415561 47.109375 222.25 C47.6130916 220.81904908 48.11717807 219.38822831 48.62158203 217.95751953 C49.01775726 216.8256723 49.01775726 216.8256723 49.42193604 215.67095947 C54.17586006 202.13101858 59.19927916 188.72238102 64.625 175.4375 C64.92938995 174.6919989 65.23377991 173.9464978 65.5473938 173.17840576 C69.01349886 164.70535263 72.52467915 156.25092042 76.03065491 147.79431152 C77.67231626 143.83451795 79.31347491 139.87451638 80.95413208 135.91430664 C81.77238749 133.93939867 82.59096747 131.96462515 83.40988159 129.98999023 C90.37069777 113.19604105 97.0699708 96.31666022 103.5 79.3125 C102.41074219 79.18488281 101.32148438 79.05726563 100.19921875 78.92578125 C94.53483785 77.98670226 90.04844341 74.81629355 86.5 70.3125 C86.1875 67.625 86.1875 67.625 86.5 65.3125 C88.06305491 63.74944509 89.77678218 64.00610032 91.9375 63.8125 C95.34497505 63.52103056 95.34497505 63.52103056 98.5 62.3125 C99.23075648 59.9984378 99.90138258 57.66421131 100.5 55.3125 C99.67951172 55.46283691 98.85902344 55.61317383 98.01367188 55.76806641 C80.4216273 58.97388941 62.80779033 61.96134694 45.125 64.625 C44.27977783 64.75360413 43.43455566 64.88220825 42.5637207 65.01470947 C30.74717368 66.80721372 19.12336328 68.37067662 7.14306641 68.33325195 C5.89522369 68.33025589 4.64738098 68.32725983 3.36172485 68.32417297 C1.94517105 68.31839485 1.94517105 68.31839485 0.5 68.3125 C0.42979601 77.24156679 0.37683782 86.17053533 0.34456348 95.09982014 C0.32905598 99.24820675 0.30809902 103.3964015 0.27368164 107.54467773 C0.03274968 137.39689317 2.77712214 161.96290986 15.37329102 189.32592773 C21.20954901 202.0973733 23.76424045 213.9210206 19.546875 227.70703125 C17.30445763 233.287973 14.03622303 238.04985706 9.5625 242.0625 C7.27173041 244.0980629 7.27173041 244.0980629 7.3125 246.6875 C8.76262622 249.89304216 10.72559733 252.11469716 13.125 254.6640625 C15.45441658 257.45671533 15.66668985 260.3087431 15.9296875 263.8046875 C16.00316406 264.67480469 16.07664062 265.54492188 16.15234375 266.44140625 C16.30010205 268.26375859 16.440795 270.08669836 16.57421875 271.91015625 C17.1352869 278.60712277 17.1352869 278.60712277 20.5 284.3125 C24.42166137 287.17283217 27.16589046 287.67257072 31.98046875 287.6484375 C33.22763672 287.66132813 34.47480469 287.67421875 35.75976562 287.6875 C38.3587357 287.6875 40.95771823 287.67980559 43.55664062 287.6640625 C54.15687345 287.79486229 61.0650914 290.39314874 69.4375 296.8125 C77.68685797 302.70855275 86.12439148 305.83550894 96.01806641 307.70581055 C99.52075372 308.44811049 101.35499384 309.16819662 103.91796875 311.71875 C106.3905397 315.77254533 106.90839599 319.36127472 105.9375 324 C103.60882676 327.74612651 100.43156119 329.72077215 96.28051758 330.99243164 C93.75811056 331.56507111 91.23444017 332.0491973 88.6875 332.5 C87.41036133 332.7465332 87.41036133 332.7465332 86.10742188 332.99804688 C77.78308225 334.56401175 69.59199701 335.47107731 61.11987305 335.41015625 C60.33448151 335.40869598 59.54908997 335.40723572 58.73989868 335.4057312 C57.04746042 335.40195194 55.355026 335.39586416 53.66260338 335.38766479 C50.95318692 335.37472036 48.24382048 335.36833733 45.53437805 335.36352539 C38.7898197 335.35025551 32.04530769 335.32636644 25.30078125 335.30212402 C18.70443376 335.2788124 12.10810035 335.26021365 5.51171875 335.25 C4.59181908 335.24854162 3.6719194 335.24708324 2.72414398 335.24558067 C-10.69557987 335.23230003 -24.06722692 335.51010216 -37.47631836 336.07666016 C-45.69664753 336.41977723 -53.91391614 336.49861118 -62.140625 336.49780273 C-64.66422358 336.50003469 -67.18741243 336.51849004 -69.7109375 336.53710938 C-88.04737946 336.60067909 -109.54628912 336.36552329 -125.5 326.3125 C-127.83904226 323.58361736 -127.49589076 322.05361806 -127.4375 318.375 C-126.75256071 314.04779529 -124.99167241 312.0106105 -121.5 309.3125 C-117.53316333 307.42651274 -113.69762053 306.79730737 -109.375 306.125 C-100.77087742 304.57682434 -94.81384597 300.69417421 -88.0234375 295.37109375 C-80.29382931 289.49413768 -73.55207187 288.53699002 -64.015625 288.08984375 C-63.22865234 288.0522998 -62.44167969 288.01475586 -61.63085938 287.97607422 C-60.08589661 287.91048618 -58.54016814 287.86040389 -56.99414062 287.82861328 C-51.22101229 287.63232692 -45.37881763 286.8014158 -40.84521484 282.88183594 C-37.33941668 278.79195017 -37.27517932 273.64652987 -37.125 268.5 C-36.70561008 261.5395989 -35.66517814 255.37876632 -30.5 250.375 C-26.36666667 248.17916667 -26.36666667 248.17916667 -24.5 247.3125 C-24.60613836 244.86025306 -24.60613836 244.86025306 -25.5 242.3125 C-27.68137797 241.28799761 -27.68137797 241.28799761 -30.5 240.3125 C-36.96185063 236.36359128 -40.87869921 232.31151077 -43.25 225 C-44.61347356 210.34265919 -40.53181691 198.42205812 -34.0625 185.375 C-24.47379096 165.97107698 -21.16328004 147.83057583 -21.3046875 126.41796875 C-21.30842736 124.73261179 -21.31126972 123.04725263 -21.31326294 121.3618927 C-21.32082294 116.97091446 -21.34040383 112.58007295 -21.3626709 108.18914795 C-21.3832958 103.69057056 -21.3922999 99.19197063 -21.40234375 94.69335938 C-21.42365858 85.89967751 -21.45769976 77.10610587 -21.5 68.3125 C-22.89894753 68.32222084 -22.89894753 68.32222084 -24.32615662 68.33213806 C-25.56487015 68.3371785 -26.80358368 68.34221893 -28.07983398 68.34741211 C-29.30121567 68.35389267 -30.52259735 68.36037323 -31.7809906 68.36705017 C-37.76089601 68.27933733 -43.63264042 67.61398527 -49.5625 66.875 C-50.55393509 66.75469421 -50.55393509 66.75469421 -51.56539917 66.63195801 C-75.00071309 63.75977009 -98.25339974 59.40018888 -121.5 55.3125 C-120.51 59.2725 -120.51 59.2725 -119.5 63.3125 C-118.34371094 63.38597656 -118.34371094 63.38597656 -117.1640625 63.4609375 C-115.65972656 63.57308594 -115.65972656 63.57308594 -114.125 63.6875 C-112.62839844 63.79191406 -112.62839844 63.79191406 -111.1015625 63.8984375 C-108.5 64.3125 -108.5 64.3125 -106.5 66.3125 C-106.7679986 70.19847973 -108.85339617 72.59803454 -111.5 75.3125 C-115.92990366 78.17618249 -119.21036995 79.41008258 -124.5 79.3125 C-124.25580322 79.91046387 -124.01160645 80.50842773 -123.76000977 81.12451172 C-116.82691848 98.10797179 -109.93143522 115.10648917 -103.05639648 132.11352539 C-99.53669533 140.81894915 -96.01058051 149.52158055 -92.4609375 158.21484375 C-83.50611241 180.16031764 -74.77280293 202.16942147 -66.8125 224.5 C-66.56814209 225.18352539 -66.32378418 225.86705078 -66.07202148 226.57128906 C-64.5 231.06345775 -64.5 231.06345775 -64.5 233.3125 C-63.84 233.3125 -63.18 233.3125 -62.5 233.3125 C-61.62445404 235.74518781 -61.40390551 237.00267812 -62.1796875 239.50390625 C-71.75068711 258.48951658 -87.15529846 268.79886119 -106.75390625 275.41015625 C-128.11441547 281.04513721 -151.54938761 278.13879112 -170.796875 267.57421875 C-182.29897124 260.82131795 -191.33792903 250.05884236 -195.5 237.3125 C-195.1875 234.875 -195.1875 234.875 -194.5 233.3125 C-193.84 233.3125 -193.18 233.3125 -192.5 233.3125 C-192.2663826 232.47508774 -192.2663826 232.47508774 -192.02804565 231.62075806 C-189.82870701 224.00007025 -187.07501693 216.62072914 -184.2578125 209.2109375 C-183.73598823 207.83068017 -183.21448684 206.45030073 -182.69328308 205.06980896 C-181.58402962 202.13358849 -180.47274634 199.19814816 -179.35977173 196.26333618 C-177.60793456 191.6438258 -175.86047939 187.02266646 -174.11401367 182.40112305 C-173.82125644 181.62645282 -173.5284992 180.85178259 -173.22687054 180.0536375 C-172.63295189 178.48205715 -172.03904392 176.91047275 -171.44514656 175.33888435 C-170.54810652 172.96557969 -169.65061787 170.59244507 -168.7530365 168.21934509 C-164.93767114 158.1301299 -161.13810375 148.03512464 -157.35546875 137.93359375 C-157.11644836 137.29538948 -156.87742798 136.65718521 -156.63116455 135.99964142 C-154.59255206 130.55596681 -152.55519593 125.11182297 -150.51983643 119.66693115 C-145.60234205 106.51305798 -140.6337233 93.38366124 -135.5 80.3125 C-136.33942139 79.94415039 -137.17884277 79.57580078 -138.04370117 79.19628906 C-145.50708072 75.86060403 -150.80591552 72.06426534 -155.5 65.3125 C-157.74336196 58.58241413 -157.4158963 51.37278905 -154.4375 44.9375 C-150.8792544 38.66773014 -146.33962153 34.63048723 -139.5 32.3125 C-130.77097638 30.85766273 -122.36545341 33.66890884 -114.05078125 36.0234375 C-113.28282227 36.2404834 -112.51486328 36.4575293 -111.72363281 36.68115234 C-110.31484577 37.08114392 -108.90770071 37.48700383 -107.50292969 37.90087891 C-81.70279683 45.05023493 -51.05204462 35.81590815 -25.5 31.3125 C-26.14976807 30.22590088 -26.79953613 29.13930176 -27.46899414 28.01977539 C-30.65082042 22.69884655 -30.12232613 17.33350528 -29.5 11.3125 C-27.81342946 5.85594825 -24.1014861 2.52308234 -19.5 -0.6875 C-13.31444008 -2.74935331 -5.96260471 -2.78479467 0 0 Z M-15.5 37.3125 C-15.62261783 53.46787089 -15.49510065 69.60039861 -15.0625 85.75 C-15.04285187 86.53403198 -15.02320374 87.31806396 -15.00296021 88.12585449 C-14.94558651 90.37443136 -14.88208807 92.62274583 -14.81640625 94.87109375 C-14.77974854 96.16329834 -14.74309082 97.45550293 -14.70532227 98.78686523 C-14.51625412 102.03339691 -14.10477447 105.12013938 -13.5 108.3125 C-11.85 108.3125 -10.2 108.3125 -8.5 108.3125 C-7.66338124 103.02748603 -7.22656559 97.8109828 -6.96484375 92.46875 C-6.92177597 91.62964584 -6.87870819 90.79054169 -6.83433533 89.92601013 C-6.69768702 87.22170293 -6.56698743 84.51715895 -6.4375 81.8125 C-6.39264465 80.8963089 -6.34778931 79.9801178 -6.30157471 79.03616333 C-5.62623298 65.11658612 -5.22700794 51.25026107 -5.5 37.3125 C-8.8 37.3125 -12.1 37.3125 -15.5 37.3125 Z M108.5 85.3125 C108.14510498 86.22273926 107.79020996 87.13297852 107.42456055 88.07080078 C99.83728883 107.50714919 92.07387221 126.85942642 84.0625 146.125 C77.81073657 161.17263033 71.67964713 176.25984465 65.75 191.4375 C65.42951691 192.25465485 65.10903381 193.07180969 64.77883911 193.91372681 C61.2230833 202.99281433 57.80294539 212.11355786 54.546875 221.3046875 C54.24090393 222.16063507 53.93493286 223.01658264 53.61968994 223.89846802 C53.34139343 224.69364838 53.06309692 225.48882874 52.77636719 226.30810547 C52.40569122 227.36117386 52.40569122 227.36117386 52.02752686 228.43551636 C51.36471628 230.46889957 51.36471628 230.46889957 51.5 233.3125 C88.79 233.3125 126.08 233.3125 164.5 233.3125 C162.77081677 227.54855589 161.1238687 222.05961926 159.01074219 216.47802734 C158.78050826 215.86702934 158.55027433 215.25603134 158.31306362 214.62651825 C157.56084485 212.6326073 156.80388975 210.64053194 156.046875 208.6484375 C155.50866883 207.22449194 154.97077843 205.800427 154.43318176 204.37625122 C153.29675601 201.36752927 152.15828827 198.35959186 151.01809692 195.35229492 C149.23656715 190.65341922 147.45951582 185.95285844 145.68334961 181.25195312 C143.91530798 176.57302015 142.14710132 171.8941506 140.37730408 167.21588135 C135.91638439 155.42320749 131.48066271 143.6212618 127.0625 131.8125 C121.25337941 116.29530914 115.39450566 100.79746521 109.5 85.3125 C109.17 85.3125 108.84 85.3125 108.5 85.3125 Z M-130.5 86.3125 C-134.52144915 96.97893457 -138.5422127 107.64562747 -142.5625 118.3125 C-142.86053024 119.10323914 -143.15856049 119.89397827 -143.46562195 120.7086792 C-150.86449113 140.33982706 -158.25736437 159.97312246 -165.61407471 179.62011719 C-172.19801357 197.20115088 -178.84432238 214.75851884 -185.5 232.3125 C-183.11536221 233.5048189 -181.66879168 233.43573131 -179.00753784 233.43275452 C-178.06240326 233.43412918 -177.11726868 233.43550385 -176.14349365 233.43692017 C-175.10340149 233.43332489 -174.06330933 233.42972961 -172.99169922 233.42602539 C-171.35266129 233.42624443 -171.35266129 233.42624443 -169.68051147 233.4264679 C-166.05521688 233.42576914 -162.42997316 233.41797842 -158.8046875 233.41015625 C-156.29647856 233.40829194 -153.78826925 233.4068681 -151.28005981 233.40586853 C-145.34440201 233.40243561 -139.40876063 233.39454764 -133.47311127 233.38451904 C-126.05369203 233.37225505 -118.63427053 233.36687629 -111.21484375 233.36132812 C-97.97655316 233.3505926 -84.73827774 233.33370871 -71.5 233.3125 C-72.75729672 229.50490323 -74.01891255 225.69875056 -75.28125 221.89282227 C-75.63348633 220.82593422 -75.98572266 219.75904617 -76.34863281 218.65982819 C-79.42637992 209.39212621 -82.86013806 200.30871393 -86.5 191.25 C-87.14560892 189.62888094 -87.79086225 188.00762023 -88.43579102 186.38623047 C-93.66799481 173.26356261 -99.03040304 160.19396821 -104.41870117 147.13476562 C-110.18001922 133.16121865 -115.79524811 119.1310828 -121.36108398 105.07861328 C-121.99722003 103.47818492 -122.63336846 101.87776148 -123.26953125 100.27734375 C-123.5531955 99.55726639 -123.83685974 98.83718903 -124.12911987 98.09529114 C-125.73545808 94.05972782 -127.49722675 90.17302718 -129.5 86.3125 C-129.83 86.3125 -130.16 86.3125 -130.5 86.3125 Z M-13.5 115.3125 C-13.5 116.9625 -13.5 118.6125 -13.5 120.3125 C-11.85 120.3125 -10.2 120.3125 -8.5 120.3125 C-8.5 118.6625 -8.5 117.0125 -8.5 115.3125 C-10.15 115.3125 -11.8 115.3125 -13.5 115.3125 Z M-13.5 126.3125 C-13.54254356 128.31204746 -13.54080783 130.31291636 -13.5 132.3125 C-12.43354885 133.60883621 -12.43354885 133.60883621 -9.9375 133.375 C-9.133125 133.354375 -8.32875 133.33375 -7.5 133.3125 C-7.5 131.0025 -7.5 128.6925 -7.5 126.3125 C-9.48 126.3125 -11.46 126.3125 -13.5 126.3125 Z M-13.5 139.3125 C-13.58636719 140.43785156 -13.67273438 141.56320313 -13.76171875 142.72265625 C-15.24108275 159.78590278 -20.93845863 173.42412455 -28.17822266 188.80834961 C-33.57838231 200.39714293 -39.22452887 212.57369392 -35.5 225.5 C-33.50484003 230.2467787 -29.82195183 232.74657763 -25.5 235.3125 C-24.63503906 235.85648437 -23.77007812 236.40046875 -22.87890625 236.9609375 C-15.49786667 239.91335333 -6.14411686 239.18427731 1.5 237.3125 C7.92176133 234.1197599 11.79176223 227.72501435 14.5 221.3125 C16.42241567 208.28856683 11.81873079 196.74829807 6.125 185.375 C-0.99658523 171.07920699 -4.73626146 155.1557376 -6.5 139.3125 C-8.81 139.3125 -11.12 139.3125 -13.5 139.3125 Z M-186.5 239.3125 C-186.17 240.6325 -185.84 241.9525 -185.5 243.3125 C-167.36691689 244.9936922 -149.39371861 245.64233778 -131.1875 245.5625 C-129.94894257 245.55973053 -128.71038513 245.55696106 -127.43429565 245.55410767 C-113.13120167 245.51660006 -98.83968992 245.42020034 -84.5625 244.5 C-83.41676514 244.43006836 -82.27103027 244.36013672 -81.09057617 244.28808594 C-77.25575938 244.02923211 -77.25575938 244.02923211 -73.5 243.3125 C-72.84 242.3225 -72.18 241.3325 -71.5 240.3125 C-72.48957809 239.10291594 -72.48957809 239.10291594 -74.40342808 239.18945217 C-75.66305819 239.19083486 -75.66305819 239.19083486 -76.94813538 239.19224548 C-77.9087236 239.19087082 -78.86931183 239.18949615 -79.85900879 239.18807983 C-81.45259216 239.19347275 -81.45259216 239.19347275 -83.07836914 239.19897461 C-84.19042221 239.19882858 -85.30247528 239.19868256 -86.44822693 239.1985321 C-90.14388951 239.19923179 -93.83950241 239.2070268 -97.53515625 239.21484375 C-100.08963493 239.21670773 -102.64411397 239.21813173 -105.19859314 239.21913147 C-111.2476171 239.22256656 -117.29661955 239.23045736 -123.34563488 239.24048096 C-130.23065154 239.25164317 -137.11566904 239.25715282 -144.00069249 239.26217639 C-158.1671383 239.27264 -172.33356817 239.29023877 -186.5 239.3125 Z M51.5 241.3125 C54.05496308 243.86746308 55.2539515 243.67607479 58.81396484 243.93652344 C59.92317291 244.01920471 61.03238098 244.10188599 62.17520142 244.18707275 C63.38324432 244.2645575 64.59128723 244.34204224 65.8359375 244.421875 C67.71531509 244.54801178 67.71531509 244.54801178 69.63265991 244.67669678 C81.93242188 245.44118143 94.21550278 245.61688821 106.53710938 245.57324219 C110.13168095 245.56248 113.72575538 245.57324968 117.3203125 245.5859375 C133.12905362 245.59399784 148.75997244 244.77256969 164.5 243.3125 C164.83 241.9925 165.16 240.6725 165.5 239.3125 C153.2940439 239.26587728 141.08810946 239.2304802 128.88208199 239.20887566 C123.21253406 239.19849942 117.54304768 239.18445466 111.87353516 239.16162109 C106.38810508 239.13967063 100.90273368 239.12788525 95.41726303 239.12274551 C93.33881585 239.11908917 91.26037137 239.11195115 89.18194962 239.10103989 C76.46908173 239.03703809 64.10116512 239.58289948 51.5 241.3125 Z M-17.5 244.3125 C-17.5 245.6325 -17.5 246.9525 -17.5 248.3125 C-12.55 248.3125 -7.6 248.3125 -2.5 248.3125 C-2.5 246.9925 -2.5 245.6725 -2.5 244.3125 C-7.45 244.3125 -12.4 244.3125 -17.5 244.3125 Z M-179.5 250.3125 C-169.10944137 263.52839837 -152.75596273 269.18786049 -136.5 271.3125 C-118.88469954 272.64782392 -99.30319543 269.09324922 -85.5 257.3125 C-83.43351678 255.03289881 -81.45273009 252.68991417 -79.5 250.3125 C-80.30590576 250.34279297 -81.11181152 250.37308594 -81.94213867 250.40429688 C-114.4911105 251.59313338 -146.9554129 251.69129039 -179.5 250.3125 Z M57.5 250.3125 C65.98259334 262.30513196 80.87817329 267.27154943 94.78930664 269.91772461 C113.29750782 272.61319082 132.51683163 270.49371156 148.5 260.3125 C152.03723565 257.50694551 155.38623502 254.58470877 158.5 251.3125 C158.5 250.9825 158.5 250.6525 158.5 250.3125 C157.42745972 250.35793945 157.42745972 250.35793945 156.33325195 250.40429688 C128.87247531 251.5307151 101.34918702 252.06163731 73.89453125 250.53515625 C68.42939689 250.23448543 62.97180689 250.20860493 57.5 250.3125 Z M-29.5 260.3125 C-29.7392497 263.96200735 -29.89485133 267.6049017 -30.01757812 271.25976562 C-30.24822003 276.53841911 -31.06059506 281.22504853 -32.5 286.3125 C-26.82523029 287.2749779 -21.31372881 287.50421528 -15.5625 287.5 C-14.64895752 287.50064453 -13.73541504 287.50128906 -12.79418945 287.50195312 C-4.57687644 287.4389468 3.38699859 286.59772795 11.5 285.3125 C11.33862549 284.74265381 11.17725098 284.17280762 11.01098633 283.58569336 C10.49761183 281.30187591 10.35942843 279.27816369 10.32421875 276.94140625 C10.28844727 275.70874023 10.28844727 275.70874023 10.25195312 274.45117188 C10.20908839 272.73788141 10.17778098 271.02426165 10.15820312 269.31054688 C10.02185382 265.26128967 9.83536666 262.86852184 7.70703125 259.33984375 C2.2410889 254.31891617 -3.28185554 254.94593418 -10.375 254.9375 C-11.98955078 254.90076172 -11.98955078 254.90076172 -13.63671875 254.86328125 C-20.54064667 254.83774268 -24.51722831 255.32972831 -29.5 260.3125 Z M-44.45458984 293.58691406 C-49.88723298 295.51408229 -56.38036063 294.70496599 -62.07617188 294.6640625 C-71.65353385 294.80328521 -78.63157412 297.65801272 -86.125 303.625 C-86.77726562 304.13675781 -87.42953125 304.64851563 -88.1015625 305.17578125 C-88.56304687 305.55089844 -89.02453125 305.92601562 -89.5 306.3125 C-87.24068753 308.57181247 -86.33689107 308.74458616 -83.28125 309.34765625 C-82.43046875 309.51716797 -81.5796875 309.68667969 -80.703125 309.86132812 C-79.81109375 310.03083984 -78.9190625 310.20035156 -78 310.375 C-76.70835937 310.63506836 -76.70835937 310.63506836 -75.390625 310.90039062 C-65.48883894 312.83479643 -55.75887509 313.47332948 -45.6796875 313.515625 C-43.99866188 313.52607849 -43.99866188 313.52607849 -42.28367615 313.53674316 C-38.64741255 313.55415182 -35.01130366 313.56047289 -31.375 313.5625 C-30.12890961 313.56350708 -28.88281921 313.56451416 -27.59896851 313.56555176 C4.42305941 313.54810651 35.86929638 311.298602 67.5 306.3125 C61.62720115 300.22815951 56.02420233 296.3189894 47.375 296.1015625 C46.59116943 296.07513672 45.80733887 296.04871094 44.99975586 296.02148438 C43.76237671 295.97991211 43.76237671 295.97991211 42.5 295.9375 C34.33205854 295.59480006 25.93815523 295.03157761 18.5 291.3125 C16.15356122 291.4014028 13.80953978 291.55676409 11.46875 291.7421875 C3.37328467 292.32501595 -4.67978711 292.4663642 -12.79394531 292.44287109 C-15.02675956 292.43743485 -17.25937868 292.4429004 -19.4921875 292.44921875 C-20.94270877 292.44855895 -22.39322992 292.44727983 -23.84375 292.4453125 C-25.12443359 292.44418457 -26.40511719 292.44305664 -27.72460938 292.44189453 C-30.51019546 292.34642372 -33.03927273 292.12026946 -35.77661133 291.71582031 C-39.65670545 291.29552555 -41.06456589 291.89526235 -44.45458984 293.58691406 Z M-106.125 312.375 C-107.23101562 312.54032227 -107.23101562 312.54032227 -108.359375 312.70898438 C-113.40630734 313.6089302 -116.36133069 315.00163379 -119.5 319.3125 C-119.45502158 321.58773089 -119.45502158 321.58773089 -118.5 323.3125 C-109.64858481 326.12544974 -100.73713022 327.50436428 -91.5 328.3125 C-90.55786148 328.39658615 -89.61572296 328.4806723 -88.64503479 328.56730652 C-74.584727 329.62442754 -60.49343319 329.47723352 -46.40232134 329.47975707 C-44.14473132 329.4804749 -41.88714712 329.48262275 -39.62955856 329.48525429 C-31.71787896 329.49446154 -23.80621603 329.49859476 -15.89453125 329.49780273 C-8.57593305 329.49720225 -1.25740862 329.50776026 6.06117094 329.5235464 C12.39463463 329.53670998 18.72807446 329.54198301 25.06155169 329.54134732 C28.82228434 329.54109504 32.58295115 329.54379468 36.34366989 329.55452538 C63.61030552 329.76445907 63.61030552 329.76445907 90.4375 325.375 C91.09427734 325.21837891 91.75105469 325.06175781 92.42773438 324.90039062 C95.89131227 324.01238444 98.27750041 323.19108804 100.5 320.3125 C99.83587348 318.31422868 99.83587348 318.31422868 98.5 316.3125 C95.00922174 314.72289241 91.23567128 314.13481932 87.5 313.3125 C86.57026367 313.09770996 85.64052734 312.88291992 84.68261719 312.66162109 C75.72022978 310.91159546 67.86440696 311.78151541 58.96362305 313.18469238 C54.86824778 313.82908417 50.76347232 314.40872647 46.66015625 315 C45.85832916 315.1174054 45.05650208 315.23481079 44.2303772 315.35577393 C21.28660299 318.69642877 -1.94176313 319.49979774 -25.10180664 319.49780273 C-27.93325702 319.49999671 -30.76432049 319.51828727 -33.59570312 319.53710938 C-43.2032615 319.56706126 -52.71647198 319.27824088 -62.2890625 318.42578125 C-63.16787582 318.34804977 -64.04668915 318.2703183 -64.95213318 318.19023132 C-74.75939225 317.22599622 -84.63459161 315.32935407 -93.96484375 312.12109375 C-98.37181717 311.11308988 -101.73397069 311.54877275 -106.125 312.375 Z " fill="#6D5490" transform="translate(252.5,63.6875)"/>
<path d="M0 0 C1.02262939 0.47107178 1.02262939 0.47107178 2.06591797 0.95166016 C23.12851068 10.76393194 41.7563172 23.57447154 58.53662109 39.60400391 C59.5110153 40.53353111 60.4905249 41.45772582 61.47509766 42.37646484 C103.72589726 81.87086961 127.30447318 143.42462957 130.1227417 200.48510742 C130.32468715 206.53140998 130.3375585 212.57594714 130.3125 218.625 C130.30976578 220.00313873 130.30976578 220.00313873 130.30697632 221.40911865 C130.25903119 235.80483775 129.57683005 249.80936075 127 264 C126.76651855 265.39798828 126.76651855 265.39798828 126.52832031 266.82421875 C118.80472349 312.51831254 98.16030786 355.54726855 66 389 C65.43120117 389.59603027 64.86240234 390.19206055 64.27636719 390.80615234 C47.18021491 408.63342033 27.83112624 422.49976536 6 434 C5.31583008 434.36448242 4.63166016 434.72896484 3.92675781 435.10449219 C-17.77996228 446.50630668 -41.9272688 453.73316361 -66 458 C-66.81629883 458.16081055 -67.63259766 458.32162109 -68.47363281 458.48730469 C-96.64152806 463.95406307 -129.89255158 463.62693159 -158 458 C-158.93666504 457.82307617 -159.87333008 457.64615234 -160.83837891 457.46386719 C-198.57175314 450.26174961 -236.10397817 435.54122805 -266 411 C-267.53140625 409.77410156 -267.53140625 409.77410156 -269.09375 408.5234375 C-284.36797351 396.12204165 -297.63388761 382.04283467 -309 366 C-309.43860352 365.3901123 -309.87720703 364.78022461 -310.32910156 364.15185547 C-340.13953159 322.43326824 -354.52775105 271.40768138 -354.3125 220.4375 C-354.31034485 219.51524628 -354.3081897 218.59299255 -354.30596924 217.64279175 C-354.25209189 203.23994495 -353.68929265 189.18455716 -351 175 C-350.80664062 173.9495752 -350.61328125 172.89915039 -350.4140625 171.81689453 C-338.93097836 111.13198457 -306.3136392 54.54354757 -255 19 C-254.32437012 18.52804199 -253.64874023 18.05608398 -252.95263672 17.56982422 C-179.93577068 -32.91075737 -79.80287466 -37.0677108 0 0 Z M-259 32 C-259.56960449 32.46664062 -260.13920898 32.93328125 -260.72607422 33.4140625 C-273.01214201 43.55472866 -284.27249789 54.34252737 -294 67 C-294.42104004 67.54462891 -294.84208008 68.08925781 -295.27587891 68.65039062 C-319.80565109 100.56864841 -335.92406281 137.37758493 -343 177 C-343.24339111 178.27085449 -343.24339111 178.27085449 -343.49169922 179.56738281 C-348.51273916 206.46025926 -348.30889346 237.17827906 -343 264 C-342.82307617 264.90621094 -342.64615234 265.81242187 -342.46386719 266.74609375 C-338.24542624 287.75815539 -331.97609572 307.54133096 -323 327 C-322.66742188 327.72703125 -322.33484375 328.4540625 -321.9921875 329.203125 C-312.6715995 349.35984377 -299.73300725 367.4916788 -284.41210938 383.52050781 C-283.4756544 384.5016484 -282.54457769 385.48795247 -281.61914062 386.47949219 C-257.21059416 412.59216143 -223.94540167 430.66301772 -190 441 C-188.70811768 441.39759521 -188.70811768 441.39759521 -187.39013672 441.80322266 C-125.60620874 460.51093146 -54.3557788 457.30980578 3.30078125 426.9921875 C4.53490055 426.33007167 5.76799318 425.66603831 7 425 C7.5986084 424.68063477 8.1972168 424.36126953 8.81396484 424.03222656 C34.89361715 410.02925163 59.0707419 389.320906 76 365 C76.40089844 364.4328125 76.80179687 363.865625 77.21484375 363.28125 C106.80126289 321.2519443 122.55147585 270.79046458 122.3125 219.4375 C122.31067719 218.61505798 122.30885437 217.79261597 122.30697632 216.94525146 C122.25450979 202.78954208 121.39232722 188.97282102 119 175 C118.8443457 174.04657715 118.68869141 173.0931543 118.52832031 172.11083984 C113.12529399 139.95690176 101.1921658 106.56874653 82 80 C81.55333984 79.37125977 81.10667969 78.74251953 80.64648438 78.09472656 C74.14556138 68.97672022 67.18878503 60.48534657 59.39648438 52.44335938 C58.09067534 51.09371898 56.80244773 49.72712998 55.515625 48.359375 C13.56858728 4.76735541 -49.62648238 -14.7524386 -108.71875 -16.24609375 C-163.1975551 -17.0123845 -216.32157332 -3.01294615 -259 32 Z " fill="#6D5490" transform="translate(354,24)"/>
<path d="M0 0 C16.91962983 0.48689582 33.28381424 2.49548436 50 5 C49.67 9.62 49.34 14.24 49 19 C32.59412502 22.0799515 16.71952241 24.32465092 0 24 C0 16.08 0 8.16 0 0 Z " fill="#FAFAFB" transform="translate(253,102)"/>
<path d="M0 0 C0 7.92 0 15.84 0 24 C-16.71298741 23.59968892 -32.56173726 21.98498859 -49 19 C-49 15.04 -49 11.08 -49 7 C-15.20229008 0 -15.20229008 0 0 0 Z " fill="#FBFBFC" transform="translate(231,102)"/>
<path d="M0 0 C0.33 2.97 0.66 5.94 1 9 C1.66 9 2.32 9 3 9 C3.8971875 7.7625 3.8971875 7.7625 4.8125 6.5 C7 4 7 4 9.75 3.6875 C10.4925 3.790625 11.235 3.89375 12 4 C12.35281338 8.1970092 11.64185432 10.06522073 9 13.3125 C8.443125 14.00988281 7.88625 14.70726562 7.3125 15.42578125 C6.6628125 16.20501953 6.6628125 16.20501953 6 17 C7.39025391 16.98259766 7.39025391 16.98259766 8.80859375 16.96484375 C10.00613281 16.95582031 11.20367187 16.94679687 12.4375 16.9375 C13.63246094 16.92589844 14.82742187 16.91429687 16.05859375 16.90234375 C19 17 19 17 20 18 C20 19.65 20 21.3 20 23 C15.38 23.66 10.76 24.32 6 25 C8.78999451 28.48749314 11.25235831 31.50157221 15 34 C14.67 35.65 14.34 37.3 14 39 C8.64847115 38.67566492 5.71719957 35.50295176 2 32 C1.90912109 33.15628906 1.90912109 33.15628906 1.81640625 34.3359375 C1.73261719 35.33882812 1.64882812 36.34171875 1.5625 37.375 C1.48128906 38.37273437 1.40007812 39.37046875 1.31640625 40.3984375 C1 43 1 43 0 45 C-1.65 44.67 -3.3 44.34 -5 44 C-5.33 40.04 -5.66 36.08 -6 32 C-7.051875 33.32 -8.10375 34.64 -9.1875 36 C-10.98046875 38.25 -10.98046875 38.25 -13 40 C-15.73828125 40.25 -15.73828125 40.25 -18 40 C-18.703125 38.25 -18.703125 38.25 -19 36 C-17.671875 34 -17.671875 34 -15.75 32 C-13.28043054 29.38756288 -11.17726729 26.90302305 -9 24 C-13.62 24 -18.24 24 -23 24 C-23.66 22.68 -24.32 21.36 -25 20 C-24.67 19.34 -24.34 18.68 -24 18 C-21.05859375 17.5859375 -21.05859375 17.5859375 -17.4375 17.375 C-16.23996094 17.30023438 -15.04242188 17.22546875 -13.80859375 17.1484375 C-12.41833984 17.07496094 -12.41833984 17.07496094 -11 17 C-11.58910156 16.46890625 -12.17820312 15.9378125 -12.78515625 15.390625 C-13.53667969 14.68421875 -14.28820313 13.9778125 -15.0625 13.25 C-15.81660156 12.55390625 -16.57070313 11.8578125 -17.34765625 11.140625 C-19 9 -19 9 -18.74609375 6.734375 C-18 5 -18 5 -16.265625 4.25390625 C-14 4 -14 4 -11.859375 5.65234375 C-9.90625 7.76822917 -7.953125 9.88411458 -6 12 C-6 8.04 -6 4.08 -6 0 C-4 -1 -4 -1 0 0 Z " fill="#A191B8" transform="translate(73,155)"/>
<path d="M0 0 C1.99639946 0.74097134 3.99376371 1.47934958 5.9921875 2.21484375 C6.85956543 2.54476318 7.72694336 2.87468262 8.62060547 3.21459961 C11.10968489 4.05731484 13.53970797 4.60632311 16.125 5.0625 C16.125 7.0425 16.125 9.0225 16.125 11.0625 C15.2278125 10.918125 14.330625 10.77375 13.40625 10.625 C6.4179374 9.58541631 -0.49354611 8.81864942 -7.5625 8.6875 C-8.86574219 8.65914062 -10.16898438 8.63078125 -11.51171875 8.6015625 C-14.91490508 8.7957373 -14.91490508 8.7957373 -17.296875 10.83984375 C-19.23036369 13.56299985 -19.51436415 15.7837378 -19.3046875 19.1015625 C-18.50450193 22.75331844 -16.91752087 23.97449548 -13.875 26.0625 C-10.2579912 27.322357 -6.61731364 28.25636239 -2.875 29.0625 C-6.28546729 32.63957058 -9.15469936 33.79264892 -14.0625 34.5625 C-21.25435071 33.61930646 -26.95815883 29.69113764 -31.375 24 C-35.30428645 18.11717 -36.84059456 13.16024705 -35.875 6.0625 C-34.02498553 1.79942318 -31.85705468 -0.23223621 -27.8125 -2.3125 C-18.05223677 -5.98418336 -9.39541748 -3.60650868 0 0 Z " fill="#FBFAFB" transform="translate(138.875,104.9375)"/>
<path d="M0 0 C4.68011635 2.67030832 7.53731584 6.38521155 9.625 11.3125 C10.29562244 16.40455177 10.41620451 21.58299792 8.0625 26.25 C4.61968238 30.57559137 0.27108802 33.62812569 -5.375 34.3125 C-11.59861341 34.72740756 -15.64882961 33.76657302 -21.375 31.3125 C-19.14422859 29.08172859 -17.98288927 28.80765939 -15 28 C-10.77796072 26.640245 -8.53992327 25.35996525 -6.375 21.3125 C-6.02548066 17.81730656 -6.26386863 15.64589412 -7.375 12.3125 C-9.79883077 11.14296584 -9.79883077 11.14296584 -12.375 10.3125 C-13.035 9.9825 -13.695 9.6525 -14.375 9.3125 C-21.8874336 8.67626784 -28.56637423 9.56160865 -35.78125 11.65625 C-38.375 12.3125 -38.375 12.3125 -42.375 12.3125 C-42.417721 10.64638095 -42.41563832 8.97867115 -42.375 7.3125 C-40.89524844 5.83274844 -39.43819872 5.94911737 -37.375 5.625 C-32.29350523 4.68317123 -27.6898035 3.00170485 -22.875 1.1875 C-14.86207187 -1.75036969 -8.14184406 -3.61694352 0 0 Z " fill="#FAF9FB" transform="translate(371.375,103.6875)"/>
<path d="M0 0 C1.2065625 0.0309375 1.2065625 0.0309375 2.4375 0.0625 C3.0975 2.7025 3.7575 5.3425 4.4375 8.0625 C4.829375 7.4025 5.22125 6.7425 5.625 6.0625 C7.4375 4.0625 7.4375 4.0625 10.125 3.8125 C10.888125 3.895 11.65125 3.9775 12.4375 4.0625 C13.08984375 5.828125 13.08984375 5.828125 13.4375 8.0625 C12.0798849 10.68189855 10.27570051 12.73112374 8.4375 15.0625 C12.0675 15.0625 15.6975 15.0625 19.4375 15.0625 C20.4375 19.0625 20.4375 19.0625 19.4375 21.0625 C16.71484375 21.4765625 16.71484375 21.4765625 13.375 21.6875 C12.27027344 21.76226562 11.16554688 21.83703125 10.02734375 21.9140625 C9.17269531 21.96304687 8.31804687 22.01203125 7.4375 22.0625 C10.0775 24.3725 12.7175 26.6825 15.4375 29.0625 C15.1075 30.7125 14.7775 32.3625 14.4375 34.0625 C12.25 34.375 12.25 34.375 9.4375 34.0625 C6.625 31.5625 6.625 31.5625 4.4375 29.0625 C4.34662109 30.01962891 4.34662109 30.01962891 4.25390625 30.99609375 C4.17011719 31.82238281 4.08632813 32.64867187 4 33.5 C3.91878906 34.32371094 3.83757812 35.14742188 3.75390625 35.99609375 C3.4375 38.0625 3.4375 38.0625 2.4375 39.0625 C0.7875 39.0625 -0.8625 39.0625 -2.5625 39.0625 C-2.8925 35.7625 -3.2225 32.4625 -3.5625 29.0625 C-4.284375 30.0525 -5.00625 31.0425 -5.75 32.0625 C-8.1720123 35.01043497 -8.1720123 35.01043497 -11.375 35.4375 C-12.4578125 35.251875 -12.4578125 35.251875 -13.5625 35.0625 C-13.9375 33 -13.9375 33 -13.5625 30.0625 C-11.77072891 27.52677718 -9.72011879 25.29075512 -7.5625 23.0625 C-8.50222656 22.97162109 -8.50222656 22.97162109 -9.4609375 22.87890625 C-10.27820313 22.79511719 -11.09546875 22.71132813 -11.9375 22.625 C-13.15566406 22.50318359 -13.15566406 22.50318359 -14.3984375 22.37890625 C-16.5625 22.0625 -16.5625 22.0625 -18.5625 21.0625 C-18.5625 19.4125 -18.5625 17.7625 -18.5625 16.0625 C-15.08924819 14.9047494 -12.20182552 14.99383348 -8.5625 15.0625 C-9.22958984 14.37414062 -9.22958984 14.37414062 -9.91015625 13.671875 C-10.47605469 13.05828125 -11.04195313 12.4446875 -11.625 11.8125 C-12.19347656 11.20921875 -12.76195312 10.6059375 -13.34765625 9.984375 C-14.5625 8.0625 -14.5625 8.0625 -14.24609375 5.828125 C-14.02050781 5.24546875 -13.79492188 4.6628125 -13.5625 4.0625 C-11.375 3.75 -11.375 3.75 -8.5625 4.0625 C-5.75 6.5625 -5.75 6.5625 -3.5625 9.0625 C-3.583125 7.763125 -3.60375 6.46375 -3.625 5.125 C-3.64649454 3.77084367 -3.63398199 2.41493917 -3.5625 1.0625 C-2.5625 0.0625 -2.5625 0.0625 0 0 Z " fill="#A191B8" transform="translate(292.5625,412.9375)"/>
<path d="M0 0 C2.475 0.495 2.475 0.495 5 1 C5.33 2.98 5.66 4.96 6 7 C6.86625 5.9790625 6.86625 5.9790625 7.75 4.9375 C8.4925 4.298125 9.235 3.65875 10 3 C12.25 3.25 12.25 3.25 14 4 C14.26218749 7.14624993 14.24754367 8.61837017 12.5 11.3125 C12.005 11.869375 11.51 12.42625 11 13 C13.97 13.33 16.94 13.66 20 14 C20.042721 15.66611905 20.04063832 17.33382885 20 19 C18.41727399 20.58272601 16.61965997 20.34735747 14.4375 20.5625 C13.19806641 20.68818359 13.19806641 20.68818359 11.93359375 20.81640625 C11.29550781 20.87699219 10.65742188 20.93757813 10 21 C10.44472656 21.37511719 10.88945312 21.75023438 11.34765625 22.13671875 C13.06170453 23.68678063 14.59920192 25.15956683 16 27 C15.875 29.875 15.875 29.875 15 32 C10.68607774 31.5206753 8.83430453 30.2542015 6 27 C5.67 29.97 5.34 32.94 5 36 C3.35 36 1.7 36 0 36 C-0.66 33.69 -1.32 31.38 -2 29 C-3.65 30.32 -5.3 31.64 -7 33 C-8.32 32.34 -9.64 31.68 -11 31 C-10.42647107 27.12867972 -8.51295648 24.91827204 -6 22 C-8.97 21.01 -11.94 20.02 -15 19 C-14.67 17.35 -14.34 15.7 -14 14 C-11.36 14 -8.72 14 -6 14 C-7.2684375 12.63875 -7.2684375 12.63875 -8.5625 11.25 C-11.02603251 8.32974517 -11.02603251 8.32974517 -10.8125 5.625 C-10.544375 5.08875 -10.27625 4.5525 -10 4 C-5.44615385 3.63076923 -5.44615385 3.63076923 -3.1875 5.5 C-2.795625 5.995 -2.40375 6.49 -2 7 C-1.34 4.69 -0.68 2.38 0 0 Z " fill="#A191B8" transform="translate(307,46)"/>
<path d="M0 0 C4.79617474 2.35284044 7.7158696 5.15764356 10 10 C10.42375799 14.72066398 9.66494428 18.65269934 6.75 22.4375 C2.50599853 26.39213774 -1.05126539 27.5798123 -6.93359375 27.45703125 C-10.79099298 26.60388246 -13.50915028 23.9673601 -16 21 C-17.45132458 16.64602625 -17.64332822 12.54571477 -17 8 C-13.22443588 0.84246338 -7.57248454 -1.03732665 0 0 Z " fill="#F9F8FA" transform="translate(246,68)"/>
<path d="M0 0 C2.72024475 2.13733516 3.60478876 4.1201891 4.75 7.375 C5.05470556 11.82370122 4.22624625 14.66063063 1.75 18.375 C-1.78495016 20.73163344 -3.91495693 21.11621939 -8.09375 20.8515625 C-11.7783521 20.03721204 -13.19124615 18.46313077 -15.25 15.375 C-16.49623229 11.51167991 -16.67301292 8.3768727 -15.0625 4.5625 C-10.67684942 -0.73052656 -6.8461101 -1.90169725 0 0 Z " fill="#D5CEDF" transform="translate(391.25,354.625)"/>
<path d="M0 0 C2.79659888 2.18271132 3.76939596 3.66006916 4.37109375 7.15625 C4.5972908 11.26892363 4.34475039 13.44839938 2.125 17 C-1.14840013 20.08084718 -3.46126475 20.33387487 -7.9609375 20.29296875 C-11.13134567 19.83745033 -12.8192402 18.24684343 -15 16 C-16.73007568 12.53984865 -16.4835273 8.78327445 -16 5 C-12.01229156 -1.60034501 -6.98748958 -1.79101718 0 0 Z " fill="#E9E6EE" transform="translate(139,260)"/>
<path d="M0 0 C2.57637471 1.88515223 3.59667428 3.19334857 5 6 C5.65271451 10.74616694 5.69934049 13.98277746 2.9375 18 C-0.59944442 20.40813237 -2.72563406 21 -7 21 C-10.17613688 19.86138489 -12.23394082 18.94016354 -14.375 16.3125 C-15.84573541 10.87077897 -15.74838489 7.39698514 -13.125 2.5 C-9.52898617 -1.27117782 -4.83247143 -0.97955502 0 0 Z " fill="#D5CEDF" transform="translate(193,157)"/>
<path d="M0 0 C2.05636087 3.08454131 2.51134354 4.84809674 3.125 8.4375 C3.29257812 9.38496094 3.46015625 10.33242187 3.6328125 11.30859375 C4 14 4 14 4 18 C5.2375 17.979375 6.475 17.95875 7.75 17.9375 C10.6640825 17.93233319 13.20953327 18.06984442 16 19 C16 19.66 16 20.32 16 21 C11.05 22.485 11.05 22.485 6 24 C5.71125 25.299375 5.4225 26.59875 5.125 27.9375 C3.5625 34.96875 3.5625 34.96875 2 42 C-0.784293 39.215707 -0.94910069 36.113137 -1.625 32.375 C-1.7590625 31.66859375 -1.893125 30.9621875 -2.03125 30.234375 C-2.36110025 28.49088082 -2.68146056 26.74559611 -3 25 C-3.62648438 24.80664062 -4.25296875 24.61328125 -4.8984375 24.4140625 C-5.71570313 24.15367187 -6.53296875 23.89328125 -7.375 23.625 C-8.18710937 23.36976563 -8.99921875 23.11453125 -9.8359375 22.8515625 C-12 22 -12 22 -14 20 C-10.33992527 18.38526115 -6.94465818 17.60645022 -3 17 C-2.86722656 15.85660156 -2.73445313 14.71320313 -2.59765625 13.53515625 C-2.4194969 12.0442438 -2.24109918 10.55335982 -2.0625 9.0625 C-1.97548828 8.30775391 -1.88847656 7.55300781 -1.79882812 6.77539062 C-1.11328125 1.11328125 -1.11328125 1.11328125 0 0 Z " fill="#B9ADCA" transform="translate(421,171)"/>
<path d="M0 0 C2.784293 2.784293 2.94910069 5.886863 3.625 9.625 C3.7590625 10.33140625 3.893125 11.0378125 4.03125 11.765625 C4.36110025 13.50911918 4.68146056 15.25440389 5 17 C5.93972656 17.09087891 5.93972656 17.09087891 6.8984375 17.18359375 C7.71570313 17.26738281 8.53296875 17.35117187 9.375 17.4375 C10.18710938 17.51871094 10.99921875 17.59992188 11.8359375 17.68359375 C14 18 14 18 16 19 C16 19.66 16 20.32 16 21 C12.12315913 22.19287411 9.08378077 23 5 23 C4.87882812 24.21558594 4.75765625 25.43117188 4.6328125 26.68359375 C4.46402922 28.26828117 4.29473184 29.8529139 4.125 31.4375 C4.04636719 32.23994141 3.96773437 33.04238281 3.88671875 33.86914062 C3.66154237 35.92170994 3.33777413 37.96293009 3 40 C2.01 40.495 2.01 40.495 1 41 C-2.25968109 29.47835991 -2.25968109 29.47835991 -3 24 C-6.63 23.01 -10.26 22.02 -14 21 C-14 20.34 -14 19.68 -14 19 C-8.555 18.01 -8.555 18.01 -3 17 C-2.86722656 15.94039063 -2.73445313 14.88078125 -2.59765625 13.7890625 C-2.41946125 12.40101721 -2.2410654 11.01299769 -2.0625 9.625 C-1.97548828 8.92632812 -1.88847656 8.22765625 -1.79882812 7.5078125 C-1.11328125 2.2265625 -1.11328125 2.2265625 0 0 Z " fill="#B9ADCA" transform="translate(98,353)"/>
<path d="M0 0 C0.66 0.33 1.32 0.66 2 1 C2.6328125 3.14453125 2.6328125 3.14453125 3.125 5.8125 C3.29257813 6.68519531 3.46015625 7.55789062 3.6328125 8.45703125 C4 11 4 11 4 15 C5.093125 14.979375 6.18625 14.95875 7.3125 14.9375 C11 15 11 15 14 16 C14 16.66 14 17.32 14 18 C11.03 18.66 8.06 19.32 5 20 C4.87882813 20.99902344 4.75765625 21.99804688 4.6328125 23.02734375 C4.38144531 24.96287109 4.38144531 24.96287109 4.125 26.9375 C3.96257812 28.22527344 3.80015625 29.51304688 3.6328125 30.83984375 C3.42398438 31.88269531 3.21515625 32.92554688 3 34 C2.01 34.495 2.01 34.495 1 35 C0.49733206 32.87562952 -0.0020561 30.75048274 -0.5 28.625 C-0.7784375 27.44164063 -1.056875 26.25828125 -1.34375 25.0390625 C-2 22 -2 22 -2 20 C-6.455 19.01 -6.455 19.01 -11 18 C-11 17.34 -11 16.68 -11 16 C-6.545 15.505 -6.545 15.505 -2 15 C-1.34 10.05 -0.68 5.1 0 0 Z " fill="#B9ADCA" transform="translate(190,45)"/>
<path d="M0 0 C3.32878632 2.46040728 4.79301948 3.89610387 5.5625 8 C4.84202557 11.8425303 3.99097304 13.45767292 1 16 C-1.82561523 16.7179842 -4.17277829 16.70536002 -7 16 C-9.5625 14 -9.5625 14 -11 11 C-11.29851924 7.0656695 -10.88490018 4.04877058 -8.3125 1 C-5.21285954 -0.34038506 -3.34840698 -0.54667869 0 0 Z " fill="#D5CEDF" transform="translate(46,249)"/>
<path d="M0 0 C1.9375 1.0625 1.9375 1.0625 3 3 C3.98586223 6.80261145 4.29822018 9.14261699 3 12.875 C1 15 1 15 -2.4375 15.9375 C-7.39705882 16.0245098 -7.39705882 16.0245098 -10 14 C-12.09679403 11.30412197 -11.99510821 9.907056 -11.8125 6.4375 C-11 3 -11 3 -9.9375 1.0625 C-6.74497633 -0.68823879 -3.54677411 -0.52572226 0 0 Z " fill="#D5CEDF" transform="translate(447,252)"/>
<path d="M0 0 C1.9375 1.0625 1.9375 1.0625 3 3 C3.75471698 9.79245283 3.75471698 9.79245283 1.4375 13.5 C-1.94888329 15.58392818 -4.09385318 15.55802097 -8 15 C-10.4375 13.5 -10.4375 13.5 -12 11 C-12.61014545 8.1910285 -12.65360928 5.80363979 -12 3 C-8.3655827 -1.51548816 -5.40521016 -1.50144727 0 0 Z " fill="#E4E0EA" transform="translate(300,190)"/>
<path d="M0 0 C2.875 1.625 2.875 1.625 5 4 C5.625 6.9375 5.625 6.9375 5 10 C2.51397551 13.36344489 1.08574477 14.80057749 -3.0625 15.5625 C-6 15 -6 15 -8.375 13.5 C-10.82483134 9.73102871 -10.5659239 7.45665069 -10 3 C-7.20219998 -0.44344618 -4.25472272 -0.60781753 0 0 Z " fill="#715993" transform="translate(245,74)"/>
<path d="M0 0 C2.375 1.625 2.375 1.625 4 4 C4.61195145 7.6717087 4.48706506 9.28813568 2.375 12.375 C-0.71186432 14.48706506 -2.3282913 14.61195145 -6 14 C-8.4375 12.4375 -8.4375 12.4375 -10 10 C-9.93866496 6.5039028 -9.65265114 4.06485186 -7.8125 1.0625 C-5.04411529 -0.56034621 -3.14454533 -0.44922076 0 0 Z " fill="#D5CEDF" transform="translate(351,260)"/>
<path d="M0 0 C2.86801846 0.08864784 3.78417611 0.16414857 6.125 1.9375 C7.48213883 5.46606096 7.04765877 7.76275116 6.0625 11.375 C4.375 13.375 4.375 13.375 2.0625 14.375 C-1.38016385 14.30474155 -3.22103249 13.97590824 -5.875 11.75 C-7.40612051 8.32749533 -6.8001304 5.95823398 -5.9375 2.375 C-3.9375 0.375 -3.9375 0.375 0 0 Z " fill="#D5CEDF" transform="translate(192.9375,422.625)"/>
<path d="M0 0 C2 2 2 2 2.3125 5.9375 C2.23081662 8.43791894 2.12109418 9.77205801 0.9375 12 C-2.13215135 13.58433618 -4.61681143 13.36248449 -8 13 C-9.9375 12 -9.9375 12 -11 10 C-11.46000079 7.23999526 -11.50420748 4.75595226 -11 2 C-7.93817059 -2.04161482 -4.56939437 -1.10003939 0 0 Z " fill="#D5CEDF" transform="translate(125,221)"/>
<path d="M0 0 C3.4375 0.8125 3.4375 0.8125 5.4375 3.8125 C4.98466981 10.26533019 4.98466981 10.26533019 2.4375 12.8125 C-3.70481015 13.4825702 -3.70481015 13.4825702 -6.5625 11.25 C-7.99385511 7.76107191 -7.496466 5.41494028 -6.5625 1.8125 C-3.5625 -0.1875 -3.5625 -0.1875 0 0 Z " fill="#E9E6EE" transform="translate(411.5625,128.1875)"/>
<path d="M0 0 C3.4375 0.8125 3.4375 0.8125 5.4375 3.8125 C4.98466981 10.26533019 4.98466981 10.26533019 2.4375 12.8125 C-3.70481015 13.4825702 -3.70481015 13.4825702 -6.5625 11.25 C-7.99385511 7.76107191 -7.496466 5.41494028 -6.5625 1.8125 C-3.5625 -0.1875 -3.5625 -0.1875 0 0 Z " fill="#E9E6EE" transform="translate(136.5625,63.1875)"/>
<path d="M0 0 C3.5 0.4375 3.5 0.4375 5.4375 1.5625 C6.98724515 4.29734439 6.82162076 6.3499407 6.5 9.4375 C4.5 12.4375 4.5 12.4375 1.625 13.25 C-1.5 13.4375 -1.5 13.4375 -3.8125 12.9375 C-5.5 11.4375 -5.5 11.4375 -6.4375 8.0625 C-6.5 4.4375 -6.5 4.4375 -5.5 2 C-3.5 0.4375 -3.5 0.4375 0 0 Z " fill="#E9E6EE" transform="translate(240.5,435.5625)"/>
<path d="M0 0 C1.875 -0.36328125 1.875 -0.36328125 4 -0.3125 C4.70125 -0.30863281 5.4025 -0.30476562 6.125 -0.30078125 C8 0 8 0 10 2 C10.67973856 9.1372549 10.67973856 9.1372549 8.375 12.0625 C5.19296594 13.31856608 3.25787048 12.92070253 0 12 C-2 10 -2 10 -2.25 6.5625 C-2 3 -2 3 0 0 Z " fill="#E9E6EE" transform="translate(359,216)"/>
<path d="M0 0 C1.875 1.0625 1.875 1.0625 3 3 C3.63316583 8.90954774 3.63316583 8.90954774 1.875 11.9375 C-0.88980433 13.50422245 -2.88188517 13.38976435 -6 13 C-7.875 11.9375 -7.875 11.9375 -9 10 C-9.63316583 4.09045226 -9.63316583 4.09045226 -7.875 1.0625 C-5.11019567 -0.50422245 -3.11811483 -0.38976435 0 0 Z " fill="#E9E6EE" transform="translate(196,233)"/>
<path d="M0 0 C1.134375 0.020625 2.26875 0.04125 3.4375 0.0625 C4.76591008 5.49690487 4.76591008 5.49690487 3.3125 8 C1.4375 9.0625 1.4375 9.0625 -1.1875 8.8125 C-3.5625 8.0625 -3.5625 8.0625 -4.5625 7.0625 C-4.6875 4.0625 -4.6875 4.0625 -4.5625 1.0625 C-3.5625 0.0625 -3.5625 0.0625 0 0 Z " fill="#8A76A6" transform="translate(441.5625,124.9375)"/>
<path d="M0 0 C1.2684375 0.12375 1.2684375 0.12375 2.5625 0.25 C4.7144437 3.47791555 4.76336443 4.53400809 4.5625 8.25 C-2.1875 9.375 -2.1875 9.375 -4.4375 8.25 C-3.43230397 0.35203118 -3.43230397 0.35203118 0 0 Z " fill="#8A76A6" transform="translate(355.4375,437.75)"/>
<path d="M0 0 C2.33944736 0.28730055 4.6739143 0.61936779 7 1 C7.6875 3.3125 7.6875 3.3125 8 6 C6.875 7.875 6.875 7.875 5 9 C0.57894737 8.57894737 0.57894737 8.57894737 -1 7 C-1.125 4 -1.125 4 -1 1 C-0.67 0.67 -0.34 0.34 0 0 Z " fill="#8A76A6" transform="translate(46,363)"/>
<path d="M0 0 C2.375 0.6875 2.375 0.6875 3.375 1.6875 C3.08769945 4.02694736 2.75563221 6.3614143 2.375 8.6875 C-0.5 8.8125 -0.5 8.8125 -3.625 8.6875 C-5.625 6.6875 -5.625 6.6875 -5.9375 4.1875 C-5.834375 3.3625 -5.73125 2.5375 -5.625 1.6875 C-2.625 -0.3125 -2.625 -0.3125 0 0 Z " fill="#8A76A6" transform="translate(437.625,358.3125)"/>
<path d="M0 0 C1.2375 0.1546875 1.2375 0.1546875 2.5 0.3125 C4.5 3.3125 4.5 3.3125 4.125 6 C3.91875 6.763125 3.7125 7.52625 3.5 8.3125 C0.625 8.9375 0.625 8.9375 -2.5 9.3125 C-4.5 7.3125 -4.5 7.3125 -4.75 4.8125 C-4.40047575 1.3172575 -3.47557682 0.4344471 0 0 Z " fill="#8A76A6" transform="translate(320.5,452.6875)"/>
<path d="M0 0 C1.2375 0.1546875 1.2375 0.1546875 2.5 0.3125 C4.5 3.3125 4.5 3.3125 4.125 6 C3.91875 6.763125 3.7125 7.52625 3.5 8.3125 C0.625 8.9375 0.625 8.9375 -2.5 9.3125 C-4.5 7.3125 -4.5 7.3125 -4.75 4.8125 C-4.40047575 1.3172575 -3.47557682 0.4344471 0 0 Z " fill="#8A76A6" transform="translate(332.5,448.6875)"/>
<path d="M0 0 C3.125 0.375 3.125 0.375 6 1 C6.625 3.3125 6.625 3.3125 7 6 C6.01 7.485 6.01 7.485 5 9 C2.5 9.3125 2.5 9.3125 0 9 C-2 7 -2 7 -2.25 4.5 C-2 2 -2 2 0 0 Z " fill="#8A76A6" transform="translate(142,445)"/>
<path d="M0 0 C1.2375 0.1546875 1.2375 0.1546875 2.5 0.3125 C4.5 3.3125 4.5 3.3125 4.125 6 C3.91875 6.763125 3.7125 7.52625 3.5 8.3125 C0.625 8.9375 0.625 8.9375 -2.5 9.3125 C-4.5 7.3125 -4.5 7.3125 -4.75 4.8125 C-4.40047575 1.3172575 -3.47557682 0.4344471 0 0 Z " fill="#8A76A6" transform="translate(344.5,443.6875)"/>
<path d="M0 0 C0.763125 0.20625 1.52625 0.4125 2.3125 0.625 C2.9375 2.9375 2.9375 2.9375 3.3125 5.625 C2.3225 7.11 2.3225 7.11 1.3125 8.625 C-1.1875 8.9375 -1.1875 8.9375 -3.6875 8.625 C-5.6875 6.625 -5.6875 6.625 -6 4.125 C-5.896875 3.3 -5.79375 2.475 -5.6875 1.625 C-2.6875 -0.375 -2.6875 -0.375 0 0 Z " fill="#8A76A6" transform="translate(443.6875,347.375)"/>
<path d="M0 0 C1.2375 0.1546875 1.2375 0.1546875 2.5 0.3125 C4.5 3.3125 4.5 3.3125 4.125 6 C3.91875 6.763125 3.7125 7.52625 3.5 8.3125 C0.625 8.9375 0.625 8.9375 -2.5 9.3125 C-4.5 7.3125 -4.5 7.3125 -4.75 4.8125 C-4.40047575 1.3172575 -3.47557682 0.4344471 0 0 Z " fill="#8A76A6" transform="translate(451.5,147.6875)"/>
<path d="M0 0 C1.2375 0.1546875 1.2375 0.1546875 2.5 0.3125 C4.5 3.3125 4.5 3.3125 4.125 6 C3.91875 6.763125 3.7125 7.52625 3.5 8.3125 C0.625 8.9375 0.625 8.9375 -2.5 9.3125 C-4.5 7.3125 -4.5 7.3125 -4.75 4.8125 C-4.40047575 1.3172575 -3.47557682 0.4344471 0 0 Z " fill="#8A76A6" transform="translate(446.5,135.6875)"/>
<path d="M0 0 C2.33944736 0.28730055 4.6739143 0.61936779 7 1 C7.625 3.3125 7.625 3.3125 8 6 C7.01 7.485 7.01 7.485 6 9 C3.03 8.505 3.03 8.505 0 8 C-0.38063221 5.6739143 -0.71269945 3.33944736 -1 1 C-0.67 0.67 -0.34 0.34 0 0 Z " fill="#8A76A6" transform="translate(38,130)"/>
<path d="M0 0 C3.29714793 0.32971479 4.6226839 0.6226839 7 3 C6.625 6.125 6.625 6.125 6 9 C3.125 9.125 3.125 9.125 0 9 C-2 7 -2 7 -2.25 4.5 C-2 2 -2 2 0 0 Z " fill="#8A76A6" transform="translate(45,118)"/>
<path d="M0 0 C3.0625 0.1875 3.0625 0.1875 5.0625 2.1875 C4.73278521 5.48464793 4.4398161 6.8101839 2.0625 9.1875 C-2.49305556 8.63194444 -2.49305556 8.63194444 -3.9375 7.1875 C-4.0625 4.1875 -4.0625 4.1875 -3.9375 1.1875 C-2.9375 0.1875 -2.9375 0.1875 0 0 Z " fill="#8A76A6" transform="translate(105.9375,51.8125)"/>
<path d="M0 0 C2.625 0.25 2.625 0.25 4.5 1.4375 C5.625 3.25 5.625 3.25 5.3125 5.9375 C5.085625 6.700625 4.85875 7.46375 4.625 8.25 C1.75 8.875 1.75 8.875 -1.375 9.25 C-3.375 7.25 -3.375 7.25 -3.5625 4.1875 C-3.31750282 0.34921082 -3.31750282 0.34921082 0 0 Z " fill="#8A76A6" transform="translate(127.375,37.75)"/>
<path d="M0 0 C3.125 0.375 3.125 0.375 6 1 C6.625 3.875 6.625 3.875 7 7 C5 9 5 9 2.5 9.25 C0 9 0 9 -2 7 C-2.25 4.5 -2.25 4.5 -2 2 C-1.34 1.34 -0.68 0.68 0 0 Z " fill="#8A76A6" transform="translate(349,36)"/>
<path d="M0 0 C1.2684375 0.12375 1.2684375 0.12375 2.5625 0.25 C4.5625 3.25 4.5625 3.25 4.1875 5.9375 C3.98125 6.700625 3.775 7.46375 3.5625 8.25 C-2.1875 9.375 -2.1875 9.375 -4.4375 8.25 C-3.43230397 0.35203118 -3.43230397 0.35203118 0 0 Z " fill="#8A76A6" transform="translate(139.4375,31.75)"/>
<path d="M0 0 C3.125 0.375 3.125 0.375 6 1 C6.625 3.3125 6.625 3.3125 7 6 C6.01 7.485 6.01 7.485 5 9 C2.5 9.3125 2.5 9.3125 0 9 C-2 7 -2 7 -2.25 4.5 C-2 2 -2 2 0 0 Z " fill="#8A76A6" transform="translate(337,31)"/>
<path d="M0 0 C1.2375 0.1546875 1.2375 0.1546875 2.5 0.3125 C4.5 3.3125 4.5 3.3125 4.125 6 C3.91875 6.763125 3.7125 7.52625 3.5 8.3125 C0.625 8.9375 0.625 8.9375 -2.5 9.3125 C-4.5 7.3125 -4.5 7.3125 -4.75 4.8125 C-4.40047575 1.3172575 -3.47557682 0.4344471 0 0 Z " fill="#8A76A6" transform="translate(151.5,26.6875)"/>
<path d="M0 0 C2.875 -0.125 2.875 -0.125 6 0 C6.66 0.66 7.32 1.32 8 2 C7.625 5.125 7.625 5.125 7 8 C4.6875 8.625 4.6875 8.625 2 9 C1.01 8.34 0.02 7.68 -1 7 C-0.67 4.69 -0.34 2.38 0 0 Z " fill="#8A76A6" transform="translate(178,457)"/>
<path d="M0 0 C2.33944736 0.28730055 4.6739143 0.61936779 7 1 C7.6875 3.3125 7.6875 3.3125 8 6 C6.875 7.875 6.875 7.875 5 9 C2.3125 8.6875 2.3125 8.6875 0 8 C-0.38063221 5.6739143 -0.71269945 3.33944736 -1 1 C-0.67 0.67 -0.34 0.34 0 0 Z " fill="#8A76A6" transform="translate(130,440)"/>
<path d="M0 0 C3.125 0.375 3.125 0.375 6 1 C6.625 3.3125 6.625 3.3125 7 6 C6.01 7.485 6.01 7.485 5 9 C-0.875 8.125 -0.875 8.125 -2 7 C-2.1875 4.5625 -2.1875 4.5625 -2 2 C-1.34 1.34 -0.68 0.68 0 0 Z " fill="#8A76A6" transform="translate(446,335)"/>
<path d="M0 0 C1.2684375 0.12375 1.2684375 0.12375 2.5625 0.25 C4.5625 3.25 4.5625 3.25 4.1875 5.9375 C3.98125 6.700625 3.775 7.46375 3.5625 8.25 C1.5825 8.58 -0.3975 8.91 -2.4375 9.25 C-4.4375 6.25 -4.4375 6.25 -4.125 3.625 C-3.16976704 0.32510431 -3.16976704 0.32510431 0 0 Z " fill="#8A76A6" transform="translate(32.4375,328.75)"/>
<path d="M0 0 C2.625 0.375 2.625 0.375 5 1 C5.38063221 3.3260857 5.71269945 5.66055264 6 8 C5 9 5 9 2.0625 9.1875 C-1 9 -1 9 -3 7 C-2.67028521 3.70285207 -2.3773161 2.3773161 0 0 Z " fill="#8A76A6" transform="translate(458,172)"/>
<path d="M0 0 C3.125 0.375 3.125 0.375 6 1 C6.625 3.3125 6.625 3.3125 7 6 C6.01 7.485 6.01 7.485 5 9 C-0.875 8.125 -0.875 8.125 -2 7 C-2.1875 4.5625 -2.1875 4.5625 -2 2 C-1.34 1.34 -0.68 0.68 0 0 Z " fill="#8A76A6" transform="translate(29,153)"/>
<path d="M0 0 C0.763125 0.20625 1.52625 0.4125 2.3125 0.625 C3.4375 6.375 3.4375 6.375 2.3125 8.625 C0.0025 8.625 -2.3075 8.625 -4.6875 8.625 C-5.0175 6.315 -5.3475 4.005 -5.6875 1.625 C-2.6875 -0.375 -2.6875 -0.375 0 0 Z " fill="#8A76A6" transform="translate(374.6875,49.375)"/>
<path d="M0 0 C1.9375 0.75 1.9375 0.75 3.9375 2.75 C3.5625 5.875 3.5625 5.875 2.9375 8.75 C0.0625 8.875 0.0625 8.875 -3.0625 8.75 C-5.0625 6.75 -5.0625 6.75 -5.375 4.25 C-5.271875 3.425 -5.16875 2.6 -5.0625 1.75 C-2.0625 -0.25 -2.0625 -0.25 0 0 Z " fill="#8A76A6" transform="translate(363.0625,42.25)"/>
<path d="M0 0 C1.2684375 0.12375 1.2684375 0.12375 2.5625 0.25 C4.5625 3.25 4.5625 3.25 4.1875 5.9375 C3.98125 6.700625 3.775 7.46375 3.5625 8.25 C1.5825 8.58 -0.3975 8.91 -2.4375 9.25 C-4.4375 6.25 -4.4375 6.25 -4.125 3.625 C-3.16976704 0.32510431 -3.16976704 0.32510431 0 0 Z " fill="#8A76A6" transform="translate(163.4375,22.75)"/>
<path d="M0 0 C2.875 -0.125 2.875 -0.125 6 0 C8 2 8 2 8.3125 4.5 C8.1578125 5.7375 8.1578125 5.7375 8 7 C5 9 5 9 2.3125 8.625 C1.549375 8.41875 0.78625 8.2125 0 8 C-0.79953138 4.71303767 -1.09658936 3.28976808 0 0 Z " fill="#8A76A6" transform="translate(384,417)"/>
<path d="M0 0 C2.875 -0.1875 2.875 -0.1875 6 0 C8 3 8 3 7.75 5.0625 C7 7 7 7 5 9 C1.875 8.625 1.875 8.625 -1 8 C-1.125 2.25 -1.125 2.25 0 0 Z " fill="#8A76A6" transform="translate(69,394)"/>
<path d="M0 0 C2.875 -0.1875 2.875 -0.1875 6 0 C8 3 8 3 7.6875 5.125 C7 7 7 7 6 8 C4.00041636 8.04080783 1.99954746 8.04254356 0 8 C-1.125 6.25 -1.125 6.25 -2 4 C-1.125 1.75 -1.125 1.75 0 0 Z " fill="#8A76A6" transform="translate(21,305)"/>
<path d="M0 0 C1 1 1 1 1.0625 4.5625 C1.041875 5.696875 1.02125 6.83125 1 8 C-4.43440487 9.32841008 -4.43440487 9.32841008 -6.9375 7.875 C-8 6 -8 6 -7.8125 3.375 C-6.42010387 -0.69508098 -3.8826193 -0.19910868 0 0 Z " fill="#8A76A6" transform="translate(24,292)"/>
<path d="M0 0 C2.375 0.375 2.375 0.375 3.375 1.375 C3.625 4.3125 3.625 4.3125 3.375 7.375 C0.375 9.375 0.375 9.375 -2.3125 9 C-3.075625 8.79375 -3.83875 8.5875 -4.625 8.375 C-5.625 5.375 -5.625 5.375 -4.5 2.6875 C-2.625 0.375 -2.625 0.375 0 0 Z " fill="#8A76A6" transform="translate(456.625,159.625)"/>
<path d="M0 0 C1.010625 0.0825 2.02125 0.165 3.0625 0.25 C5.0625 3.25 5.0625 3.25 4.8125 5.3125 C4.0625 7.25 4.0625 7.25 2.0625 9.25 C-0.20024788 8.89644564 -1.88838852 8.27455574 -3.9375 7.25 C-3.98004356 5.25045254 -3.97830783 3.24958364 -3.9375 1.25 C-2.9375 0.25 -2.9375 0.25 0 0 Z " fill="#8A76A6" transform="translate(60.9375,96.75)"/>
<path d="M0 0 C2.625 -0.1875 2.625 -0.1875 5 0 C5 0.66 5 1.32 5 2 C5.66 2 6.32 2 7 2 C7 3.65 7 5.3 7 7 C6.34 7 5.68 7 5 7 C5 7.66 5 8.32 5 9 C2.03 8.505 2.03 8.505 -1 8 C-1.625 5.6875 -1.625 5.6875 -2 3 C-1.34 2.01 -0.68 1.02 0 0 Z " fill="#8A76A6" transform="translate(75,77)"/>
<path d="M0 0 C2.875 -0.1875 2.875 -0.1875 6 0 C8 3 8 3 7.75 5.0625 C7 7 7 7 5 9 C1.875 8.625 1.875 8.625 -1 8 C-1.125 2.25 -1.125 2.25 0 0 Z " fill="#8A76A6" transform="translate(93,60)"/>
<path d="M0 0 C2.64 0 5.28 0 8 0 C8.04241723 2.33294775 8.04092937 4.66702567 8 7 C7 8 7 8 3.9375 8.0625 C2.968125 8.041875 1.99875 8.02125 1 8 C0.26919734 6.02253397 -0.39421747 4.01927511 -1 2 C-0.67 1.34 -0.34 0.68 0 0 Z " fill="#8A76A6" transform="translate(190,460)"/>
<path d="M0 0 C3.125 -0.1875 3.125 -0.1875 6 0 C6.625 3.375 6.625 3.375 7 7 C6.34 7.66 5.68 8.32 5 9 C2.5 8.9375 2.5 8.9375 0 8 C-1.4375 5.625 -1.4375 5.625 -2 3 C-1.34 2.01 -0.68 1.02 0 0 Z " fill="#8A76A6" transform="translate(364,432)"/>
<path d="M0 0 C1.010625 0.0825 2.02125 0.165 3.0625 0.25 C5.0625 3.25 5.0625 3.25 4.8125 5.3125 C4.0625 7.25 4.0625 7.25 2.0625 9.25 C-0.5625 8.875 -0.5625 8.875 -2.9375 8.25 C-3.31813221 5.9239143 -3.65019945 3.58944736 -3.9375 1.25 C-2.9375 0.25 -2.9375 0.25 0 0 Z " fill="#8A76A6" transform="translate(55.9375,373.75)"/>
<path d="M0 0 C2.97 0.495 2.97 0.495 6 1 C6.625 3.3125 6.625 3.3125 7 6 C6.01 7.485 6.01 7.485 5 9 C2.03 8.505 2.03 8.505 -1 8 C-1.625 5.6875 -1.625 5.6875 -2 3 C-1.34 2.01 -0.68 1.02 0 0 Z " fill="#8A76A6" transform="translate(458,299)"/>
<path d="M0 0 C3.125 0.375 3.125 0.375 6 1 C6.625 3.3125 6.625 3.3125 7 6 C6.01 7.485 6.01 7.485 5 9 C2.375 9.1875 2.375 9.1875 0 9 C-0.66 6.69 -1.32 4.38 -2 2 C-1.34 1.34 -0.68 0.68 0 0 Z " fill="#8A76A6" transform="translate(33,141)"/>
<path d="M0 0 C2 3 2 3 1.75 5.0625 C1 7 1 7 -1 9 C-3.26274788 8.64644564 -4.95088852 8.02455574 -7 7 C-7 5.02 -7 3.04 -7 1 C-4.46578263 -0.26710868 -2.80561762 -0.28056176 0 0 Z " fill="#8A76A6" transform="translate(72,87)"/>
<path d="M0 0 C1 1 1 1 1.0625 3.5625 C1.041875 4.366875 1.02125 5.17125 1 6 C0.34 6 -0.32 6 -1 6 C-1 6.66 -1 7.32 -1 8 C-3.375 8.1875 -3.375 8.1875 -6 8 C-8 5 -8 5 -7.75 2.375 C-7.5025 1.59125 -7.255 0.8075 -7 0 C-4.31633121 -1.3418344 -2.84719317 -0.73004953 0 0 Z " fill="#8A76A6" transform="translate(90,69)"/>
<path d="M0 0 C5.56818182 0.56818182 5.56818182 0.56818182 7 2 C7.04080783 3.99958364 7.04254356 6.00045254 7 8 C4.6875 8.625 4.6875 8.625 2 9 C-1 7 -1 7 -1.8125 4.5 C-1.874375 3.675 -1.93625 2.85 -2 2 C-1.34 1.34 -0.68 0.68 0 0 Z " fill="#8A76A6" transform="translate(325,26)"/>
<path d="M0 0 C3.125 -0.1875 3.125 -0.1875 6 0 C7.125 2.3125 7.125 2.3125 8 5 C7.01 6.485 7.01 6.485 6 8 C2.875 8.1875 2.875 8.1875 0 8 C-1.125 5.6875 -1.125 5.6875 -2 3 C-1.34 2.01 -0.68 1.02 0 0 Z " fill="#8A76A6" transform="translate(229,464)"/>
<path d="M0 0 C1.99954746 -0.04254356 4.00041636 -0.04080783 6 0 C7 1 7 1 7.0625 4.5625 C7.041875 5.696875 7.02125 6.83125 7 8 C4.69 8 2.38 8 0 8 C-1.125 6.25 -1.125 6.25 -2 4 C-1.125 1.75 -1.125 1.75 0 0 Z " fill="#8A76A6" transform="translate(280,462)"/>
<path d="M0 0 C0.125 2.875 0.125 2.875 0 6 C-2 8 -2 8 -4.625 8.125 C-5.40875 8.08375 -6.1925 8.0425 -7 8 C-8.35439668 5.29120665 -8.06501451 2.99066732 -8 0 C-5.13822943 -1.43088528 -3.06624227 -0.59991697 0 0 Z " fill="#8A76A6" transform="translate(115,428)"/>
<path d="M0 0 C0.125 2.375 0.125 2.375 0 5 C-0.66 5.66 -1.32 6.32 -2 7 C-5.625 6.625 -5.625 6.625 -9 6 C-9 4.02 -9 2.04 -9 0 C-5.93109813 -1.53445094 -3.29905734 -0.54984289 0 0 Z " fill="#8A76A6" transform="translate(105,421)"/>
<path d="M0 0 C1.98 0 3.96 0 6 0 C6.33 2.31 6.66 4.62 7 7 C6.34 7 5.68 7 5 7 C5 7.66 5 8.32 5 9 C3.33388095 9.042721 1.66617115 9.04063832 0 9 C-1 8 -1 8 -1.125 5.0625 C-1 2 -1 2 0 0 Z " fill="#8A76A6" transform="translate(61,384)"/>
<path d="M0 0 C2.31 0.33 4.62 0.66 7 1 C7.125 3.875 7.125 3.875 7 7 C6.34 7.66 5.68 8.32 5 9 C1.70720291 8.68134222 0.13464912 7.45484649 -2 5 C-1.34 3.35 -0.68 1.7 0 0 Z " fill="#8A76A6" transform="translate(420,380)"/>
<path d="M0 0 C3.0625 -0.25 3.0625 -0.25 6 0 C7 1 7 1 7.0625 4.5625 C7.041875 5.696875 7.02125 6.83125 7 8 C4.69 8 2.38 8 0 8 C-1.125 5.6875 -1.125 5.6875 -2 3 C-1.34 2.01 -0.68 1.02 0 0 Z " fill="#8A76A6" transform="translate(14,267)"/>
<path d="M0 0 C1 1 1 1 1.0625 3.5625 C1.041875 4.366875 1.02125 5.17125 1 6 C-1.35438733 7.42944945 -2.48032433 8.08661261 -5.25 7.625 C-5.8275 7.41875 -6.405 7.2125 -7 7 C-7.93423645 3.98968256 -8.04449911 3.13349732 -7 0 C-4.31633121 -1.3418344 -2.84719317 -0.73004953 0 0 Z " fill="#8A76A6" transform="translate(470,211)"/>
<path d="M0 0 C2.64 0 5.28 0 8 0 C8.04241723 2.33294775 8.04092937 4.66702567 8 7 C7 8 7 8 3.9375 8.0625 C2.968125 8.041875 1.99875 8.02125 1 8 C-1.125 3.375 -1.125 3.375 0 0 Z " fill="#8A76A6" transform="translate(461,198)"/>
<path d="M0 0 C0.125 2.875 0.125 2.875 0 6 C-0.66 6.66 -1.32 7.32 -2 8 C-5.125 7.625 -5.125 7.625 -8 7 C-8.6875 4.6875 -8.6875 4.6875 -9 2 C-6.73607469 -1.99516231 -4.01344788 -0.98106504 0 0 Z " fill="#8A76A6" transform="translate(25,191)"/>
<path d="M0 0 C0.94875 0.04125 1.8975 0.0825 2.875 0.125 C3.25563221 2.4510857 3.58769945 4.78555264 3.875 7.125 C2.875 8.125 2.875 8.125 -0.6875 8.1875 C-1.821875 8.166875 -2.95625 8.14625 -4.125 8.125 C-4.75 5.25 -4.75 5.25 -5.125 2.125 C-3.125 0.125 -3.125 0.125 0 0 Z " fill="#8A76A6" transform="translate(463.125,184.875)"/>
<path d="M0 0 C2.31 0 4.62 0 7 0 C7.79953138 3.28696233 8.09658936 4.71023192 7 8 C4.125 8.125 4.125 8.125 1 8 C0.34 7.34 -0.32 6.68 -1 6 C-0.625 2.875 -0.625 2.875 0 0 Z " fill="#8A76A6" transform="translate(20,178)"/>
<path d="M0 0 C2.375 0.75 2.375 0.75 3.375 1.75 C3.41580783 3.74958364 3.41754356 5.75045254 3.375 7.75 C0.08803767 8.54953138 -1.33523192 8.84658936 -4.625 7.75 C-5.3125 5.4375 -5.3125 5.4375 -5.625 2.75 C-3.9659358 -0.015107 -3.22812218 -0.30744021 0 0 Z " fill="#8A76A6" transform="translate(27.625,165.25)"/>
<path d="M0 0 C0.94875 0.04125 1.8975 0.0825 2.875 0.125 C3.205 2.435 3.535 4.745 3.875 7.125 C-2.875 8.25 -2.875 8.25 -5.125 7.125 C-5.25 4.75 -5.25 4.75 -5.125 2.125 C-3.125 0.125 -3.125 0.125 0 0 Z " fill="#8A76A6" transform="translate(435.125,113.875)"/>
<path d="M0 0 C2.64 0 5.28 0 8 0 C8.125 5.75 8.125 5.75 7 8 C5.02 8 3.04 8 1 8 C0.26919734 6.02253397 -0.39421747 4.01927511 -1 2 C-0.67 1.34 -0.34 0.68 0 0 Z " fill="#8A76A6" transform="translate(287,17)"/>
<path d="M0 0 C2.31 0 4.62 0 7 0 C7.625 2.3125 7.625 2.3125 8 5 C7.01 6.485 7.01 6.485 6 8 C3.5 8.3125 3.5 8.3125 1 8 C0.34 7.34 -0.32 6.68 -1 6 C-0.625 2.875 -0.625 2.875 0 0 Z " fill="#8A76A6" transform="translate(203,462)"/>
<path d="M0 0 C1.99954746 -0.04254356 4.00041636 -0.04080783 6 0 C7 1 7 1 7.0625 4.0625 C7.041875 5.031875 7.02125 6.00125 7 7 C4.29120665 8.35439668 1.99066732 8.06501451 -1 8 C-1.93065133 5.39417629 -2.14917407 4.35801776 -1.0625 1.75 C-0.711875 1.1725 -0.36125 0.595 0 0 Z " fill="#8A76A6" transform="translate(293,460)"/>
<path d="M0 0 C1.99954746 -0.04254356 4.00041636 -0.04080783 6 0 C7 1 7 1 7.125 4 C7 7 7 7 6 8 C4.00041636 8.04080783 1.99954746 8.04254356 0 8 C-1.125 6.25 -1.125 6.25 -2 4 C-1.125 1.75 -1.125 1.75 0 0 Z " fill="#8A76A6" transform="translate(305,457)"/>
<path d="M0 0 C2.9375 0.1875 2.9375 0.1875 3.9375 1.1875 C4.0625 4.1875 4.0625 4.1875 3.9375 7.1875 C2.9375 8.1875 2.9375 8.1875 -0.125 8.25 C-1.094375 8.229375 -2.06375 8.20875 -3.0625 8.1875 C-3.7225 6.2075 -4.3825 4.2275 -5.0625 2.1875 C-3.0625 0.1875 -3.0625 0.1875 0 0 Z " fill="#8A76A6" transform="translate(169.0625,453.8125)"/>
<path d="M0 0 C1.4540625 0.0309375 1.4540625 0.0309375 2.9375 0.0625 C3.73703138 3.34946233 4.03408936 4.77273192 2.9375 8.0625 C0.0625 8.1875 0.0625 8.1875 -3.0625 8.0625 C-3.7225 7.4025 -4.3825 6.7425 -5.0625 6.0625 C-4.33395709 0.0884481 -4.33395709 0.0884481 0 0 Z " fill="#8A76A6" transform="translate(157.0625,449.9375)"/>
<path d="M0 0 C2.5625 0.1875 2.5625 0.1875 4.5625 2.1875 C4.8125 4.6875 4.8125 4.6875 4.5625 7.1875 C3.9025 7.8475 3.2425 8.5075 2.5625 9.1875 C-1.99305556 8.63194444 -1.99305556 8.63194444 -3.4375 7.1875 C-3.5625 4.1875 -3.5625 4.1875 -3.4375 1.1875 C-2.4375 0.1875 -2.4375 0.1875 0 0 Z " fill="#8A76A6" transform="translate(414.4375,389.8125)"/>
<path d="M0 0 C1.2684375 0.12375 1.2684375 0.12375 2.5625 0.25 C4.7144437 3.47791555 4.76336443 4.53400809 4.5625 8.25 C1.6875 8.875 1.6875 8.875 -1.4375 9.25 C-3.4375 7.25 -3.4375 7.25 -3.625 4.1875 C-3.37983937 0.34665019 -3.37983937 0.34665019 0 0 Z " fill="#8A76A6" transform="translate(42.4375,351.75)"/>
<path d="M0 0 C2.31 0 4.62 0 7 0 C7.33 1.98 7.66 3.96 8 6 C5 8 5 8 1.8125 7.625 C0.884375 7.41875 -0.04375 7.2125 -1 7 C-0.67 4.69 -0.34 2.38 0 0 Z " fill="#8A76A6" transform="translate(34,341)"/>
<path d="M0 0 C2.9375 0.1875 2.9375 0.1875 3.9375 1.1875 C4.0625 4.1875 4.0625 4.1875 3.9375 7.1875 C2.9375 8.1875 2.9375 8.1875 -0.125 8.25 C-1.094375 8.229375 -2.06375 8.20875 -3.0625 8.1875 C-3.7225 6.2075 -4.3825 4.2275 -5.0625 2.1875 C-3.0625 0.1875 -3.0625 0.1875 0 0 Z " fill="#8A76A6" transform="translate(453.0625,323.8125)"/>
<path d="M0 0 C1.99954746 -0.04254356 4.00041636 -0.04080783 6 0 C7 1 7 1 7.125 4 C7 7 7 7 6 8 C4.00041636 8.04080783 1.99954746 8.04254356 0 8 C-1.125 6.25 -1.125 6.25 -2 4 C-1.125 1.75 -1.125 1.75 0 0 Z " fill="#8A76A6" transform="translate(25,317)"/>
<path d="M0 0 C2.9375 0.1875 2.9375 0.1875 3.9375 1.1875 C4.0625 4.1875 4.0625 4.1875 3.9375 7.1875 C2.9375 8.1875 2.9375 8.1875 -0.125 8.25 C-1.094375 8.229375 -2.06375 8.20875 -3.0625 8.1875 C-3.7225 6.2075 -4.3825 4.2275 -5.0625 2.1875 C-3.0625 0.1875 -3.0625 0.1875 0 0 Z " fill="#8A76A6" transform="translate(457.0625,311.8125)"/>
<path d="M0 0 C2.33294775 -0.04241723 4.66702567 -0.04092937 7 0 C8 1 8 1 8.0625 4.0625 C8.041875 5.031875 8.02125 6.00125 8 7 C5.69 7.33 3.38 7.66 1 8 C-1.125 3.375 -1.125 3.375 0 0 Z " fill="#8A76A6" transform="translate(15,280)"/>
<path d="M0 0 C2.97 0.495 2.97 0.495 6 1 C6.93065133 3.60582371 7.14917407 4.64198224 6.0625 7.25 C5.711875 7.8275 5.36125 8.405 5 9 C2.03 8.505 2.03 8.505 -1 8 C-1.625 5.6875 -1.625 5.6875 -2 3 C-1.34 2.01 -0.68 1.02 0 0 Z " fill="#8A76A6" transform="translate(463,274)"/>
<path d="M0 0 C3.0625 -0.25 3.0625 -0.25 6 0 C7 1 7 1 7.125 4 C7 7 7 7 6 8 C4.00041636 8.04080783 1.99954746 8.04254356 0 8 C-1.125 5.6875 -1.125 5.6875 -2 3 C-1.34 2.01 -0.68 1.02 0 0 Z " fill="#8A76A6" transform="translate(465,249)"/>
<path d="M0 0 C3.0625 -0.25 3.0625 -0.25 6 0 C7 1 7 1 7.125 4 C7 7 7 7 6 8 C4.00041636 8.04080783 1.99954746 8.04254356 0 8 C-1.125 5.6875 -1.125 5.6875 -2 3 C-1.34 2.01 -0.68 1.02 0 0 Z " fill="#8A76A6" transform="translate(465,236)"/>
<path d="M0 0 C1.98 0 3.96 0 6 0 C6.38063221 2.3260857 6.71269945 4.66055264 7 7 C6 8 6 8 2.4375 8.0625 C1.303125 8.041875 0.16875 8.02125 -1 8 C-1.93065133 5.39417629 -2.14917407 4.35801776 -1.0625 1.75 C-0.711875 1.1725 -0.36125 0.595 0 0 Z " fill="#8A76A6" transform="translate(465,223)"/>
<path d="M0 0 C1.4540625 0.0309375 1.4540625 0.0309375 2.9375 0.0625 C3.5975 1.7125 4.2575 3.3625 4.9375 5.0625 C3.6175 6.3825 2.2975 7.7025 0.9375 9.0625 C-1.5375 8.0725 -1.5375 8.0725 -4.0625 7.0625 C-4.10504356 5.06295254 -4.10330783 3.06208364 -4.0625 1.0625 C-3.0625 0.0625 -3.0625 0.0625 0 0 Z " fill="#8A76A6" transform="translate(117.0625,44.9375)"/>
<path d="M0 0 C1.1446875 0.3403125 1.1446875 0.3403125 2.3125 0.6875 C2.9375 3 2.9375 3 3.3125 5.6875 C2.3225 7.1725 2.3225 7.1725 1.3125 8.6875 C-1.6575 8.1925 -1.6575 8.1925 -4.6875 7.6875 C-5.375 5.375 -5.375 5.375 -5.6875 2.6875 C-4.0011022 -0.12316299 -3.27764429 -0.38112143 0 0 Z " fill="#8A76A6" transform="translate(316.6875,22.3125)"/>
<path d="M0 0 C1.4540625 0.0309375 1.4540625 0.0309375 2.9375 0.0625 C3.31813221 2.3885857 3.65019945 4.72305264 3.9375 7.0625 C2.9375 8.0625 2.9375 8.0625 0 8.25 C-3.0625 8.0625 -3.0625 8.0625 -5.0625 6.0625 C-4.33395709 0.0884481 -4.33395709 0.0884481 0 0 Z " fill="#8A76A6" transform="translate(176.0625,19.9375)"/>
<path d="M0 0 C2.00720923 0.28674418 4.0085944 0.61866701 6 1 C6.93423645 4.01031744 7.04449911 4.86650268 6 8 C3.6875 8.625 3.6875 8.625 1 9 C0.01 8.34 -0.98 7.68 -2 7 C-1.125 1.125 -1.125 1.125 0 0 Z " fill="#8A76A6" transform="translate(301,19)"/>
<path d="M0 0 C1.99954746 -0.04254356 4.00041636 -0.04080783 6 0 C7 1 7 1 7.125 4 C7 7 7 7 6 8 C4.00041636 8.04080783 1.99954746 8.04254356 0 8 C-1.125 6.25 -1.125 6.25 -2 4 C-1.125 1.75 -1.125 1.75 0 0 Z " fill="#8A76A6" transform="translate(185,17)"/>
<path d="M0 0 C3 0.125 3 0.125 4 1.125 C4.04080783 3.12458364 4.04254356 5.12545254 4 7.125 C1.6875 8.25 1.6875 8.25 -1 9.125 C-1.99 8.465 -2.98 7.805 -4 7.125 C-4.25 4.0625 -4.25 4.0625 -4 1.125 C-3 0.125 -3 0.125 0 0 Z " fill="#8A76A6" transform="translate(239,11.875)"/>
<path d="M0 0 C2.375 0.25 2.375 0.25 3.375 1.25 C3.41592937 3.58297433 3.41741723 5.91705225 3.375 8.25 C1.065 8.25 -1.245 8.25 -3.625 8.25 C-4.285 6.6 -4.945 4.95 -5.625 3.25 C-3.7774876 0.91630013 -3.0311278 0.28867884 0 0 Z " fill="#8A76A6" transform="translate(219.625,462.75)"/>
<path d="M0 0 C2.5 0.25 2.5 0.25 4.5 2.25 C3.94444444 6.80555556 3.94444444 6.80555556 2.5 8.25 C0.16055264 7.96269945 -2.1739143 7.63063221 -4.5 7.25 C-4.625 4.875 -4.625 4.875 -4.5 2.25 C-2.5 0.25 -2.5 0.25 0 0 Z " fill="#8A76A6" transform="translate(90.5,411.75)"/>
<path d="M0 0 C2.625 0.625 2.625 0.625 5 2 C5.9375 3.9375 5.9375 3.9375 6 6 C5.01 7.485 5.01 7.485 4 9 C1.69 8.67 -0.62 8.34 -3 8 C-3.1875 5.125 -3.1875 5.125 -3 2 C-2.01 1.34 -1.02 0.68 0 0 Z " fill="#8A76A6" transform="translate(429,369)"/>
<path d="M0 0 C2.875 -0.125 2.875 -0.125 6 0 C6.66 0.66 7.32 1.32 8 2 C7.625 5.125 7.625 5.125 7 8 C4.125 8.125 4.125 8.125 1 8 C0.34 7.34 -0.32 6.68 -1 6 C-0.625 2.875 -0.625 2.875 0 0 Z " fill="#8A76A6" transform="translate(460,287)"/>
<path d="M0 0 C2.33294775 -0.04241723 4.66702567 -0.04092937 7 0 C8 1 8 1 8.125 4 C8 7 8 7 7 8 C4.625 8.3125 4.625 8.3125 2 8 C0.125 6.25 0.125 6.25 -1 4 C-0.6875 1.75 -0.6875 1.75 0 0 Z " fill="#8A76A6" transform="translate(463,262)"/>
<path d="M0 0 C3.0625 -0.25 3.0625 -0.25 6 0 C7 1 7 1 7.125 4 C7 7 7 7 6 8 C4.00041636 8.04080783 1.99954746 8.04254356 0 8 C-1.125 5.6875 -1.125 5.6875 -2 3 C-1.34 2.01 -0.68 1.02 0 0 Z " fill="#8A76A6" transform="translate(14,216)"/>
<path d="M0 0 C2.5 -0.3125 2.5 -0.3125 5 0 C5.66 0.66 6.32 1.32 7 2 C6.625 5.125 6.625 5.125 6 8 C3.69 8 1.38 8 -1 8 C-1.625 5.6875 -1.625 5.6875 -2 3 C-1.34 2.01 -0.68 1.02 0 0 Z " fill="#8A76A6" transform="translate(16,203)"/>
<path d="M0 0 C1.98 0 3.96 0 6 0 C6.33 2.31 6.66 4.62 7 7 C5.35 7.66 3.7 8.32 2 9 C0.68 7.68 -0.64 6.36 -2 5 C-1.34 3.35 -0.68 1.7 0 0 Z " fill="#8A76A6" transform="translate(425,103)"/>
<path d="M0 0 C2.31 0 4.62 0 7 0 C7.04241723 2.33294775 7.04092937 4.66702567 7 7 C6 8 6 8 3.625 8.3125 C1 8 1 8 -0.8125 6 C-1.204375 5.34 -1.59625 4.68 -2 4 C-1.34 2.68 -0.68 1.36 0 0 Z " fill="#8A76A6" transform="translate(275,15)"/>
<path d="M0 0 C2.33294775 -0.04241723 4.66702567 -0.04092937 7 0 C8 1 8 1 8.1875 3.4375 C8 6 8 6 6 8 C3.375 8.125 3.375 8.125 1 8 C-1.125 3.375 -1.125 3.375 0 0 Z " fill="#8A76A6" transform="translate(197,15)"/>
<path d="M0 0 C2.5 -0.3125 2.5 -0.3125 5 0 C5.66 0.66 6.32 1.32 7 2 C6.625 5.125 6.625 5.125 6 8 C3.69 8 1.38 8 -1 8 C-1.625 5.6875 -1.625 5.6875 -2 3 C-1.34 2.01 -0.68 1.02 0 0 Z " fill="#8A76A6" transform="translate(263,13)"/>
<path d="M0 0 C0 2.31 0 4.62 0 7 C-1.98 7.33 -3.96 7.66 -6 8 C-8 5 -8 5 -7.75 2.375 C-7.5025 1.59125 -7.255 0.8075 -7 0 C-4.3333581 -1.33332095 -2.83319697 -0.67102033 0 0 Z " fill="#8A76A6" transform="translate(274,464)"/>
<path d="M0 0 C2.875 -0.125 2.875 -0.125 6 0 C8 2 8 2 8.125 4.625 C8.08375 5.40875 8.0425 6.1925 8 7 C5.6875 8.125 5.6875 8.125 3 9 C2.01 8.34 1.02 7.68 0 7 C-0.1875 3.375 -0.1875 3.375 0 0 Z " fill="#8A76A6" transform="translate(374,425)"/>
<path d="M0 0 C3.0625 -0.25 3.0625 -0.25 6 0 C7 1 7 1 7.125 4 C7 7 7 7 6 8 C3.66055264 7.71269945 1.3260857 7.38063221 -1 7 C-1.625 5.1875 -1.625 5.1875 -2 3 C-1.34 2.01 -0.68 1.02 0 0 Z " fill="#8A76A6" transform="translate(13,229)"/>
<path d="M0 0 C1.010625 0.0825 2.02125 0.165 3.0625 0.25 C5.0625 3.25 5.0625 3.25 4.75 5.375 C4.0625 7.25 4.0625 7.25 3.0625 8.25 C0.625 8.4375 0.625 8.4375 -1.9375 8.25 C-3.9375 6.25 -3.9375 6.25 -4.125 3.6875 C-3.85121288 0.1282675 -3.61900269 0.30800023 0 0 Z " fill="#8A76A6" transform="translate(419.9375,92.75)"/>
<path d="M0 0 C2.33294775 -0.04241723 4.66702567 -0.04092937 7 0 C8 1 8 1 8.125 4 C8 7 8 7 7 8 C5.00041636 8.04080783 2.99954746 8.04254356 1 8 C-0.35439668 5.29120665 -0.06501451 2.99066732 0 0 Z " fill="#8A76A6" transform="translate(399,74)"/>
<path d="M0 0 C2.31 0.33 4.62 0.66 7 1 C6.67 3.31 6.34 5.62 6 8 C3.69 7.67 1.38 7.34 -1 7 C-1.625 5.1875 -1.625 5.1875 -2 3 C-1.34 2.01 -0.68 1.02 0 0 Z " fill="#8A76A6" transform="translate(119,434)"/>
<path d="M0 0 C2.4375 0.1875 2.4375 0.1875 3.4375 1.1875 C3.5625 4.1875 3.5625 4.1875 3.4375 7.1875 C2.4375 8.1875 2.4375 8.1875 -1.125 8.25 C-2.259375 8.229375 -3.39375 8.20875 -4.5625 8.1875 C-4.6875 5.3125 -4.6875 5.3125 -4.5625 2.1875 C-2.5625 0.1875 -2.5625 0.1875 0 0 Z " fill="#8A76A6" transform="translate(16.5625,253.8125)"/>
<path d="M0 0 C2.6875 0.875 2.6875 0.875 5 2 C4.67 4.31 4.34 6.62 4 9 C1.69 8.67 -0.62 8.34 -3 8 C-3.1875 5.125 -3.1875 5.125 -3 2 C-2.01 1.34 -1.02 0.68 0 0 Z " fill="#8A76A6" transform="translate(53,107)"/>
<path d="M0 0 C2.31 0 4.62 0 7 0 C7 2.64 7 5.28 7 8 C3.98968256 8.93423645 3.13349732 9.04449911 0 8 C0 5.36 0 2.72 0 0 Z " fill="#8A76A6" transform="translate(408,83)"/>
<path d="M0 0 C0.7425 0.2475 1.485 0.495 2.25 0.75 C2.29254356 2.74954746 2.29080783 4.75041636 2.25 6.75 C1.25 7.75 1.25 7.75 -2.3125 7.8125 C-3.446875 7.791875 -4.58125 7.77125 -5.75 7.75 C-6.5 6 -6.5 6 -6.75 3.75 C-4.62771652 0.72982736 -3.76812267 -0.34255661 0 0 Z " fill="#8A76A6" transform="translate(227.75,12.25)"/>
<path d="M0 0 C2.625 -0.1875 2.625 -0.1875 5 0 C6.42944945 2.35438733 7.08661261 3.48032433 6.625 6.25 C6.41875 6.8275 6.2125 7.405 6 8 C4.02 8 2.04 8 0 8 C-1.125 5.6875 -1.125 5.6875 -2 3 C-1.34 2.01 -0.68 1.02 0 0 Z " fill="#8A76A6" transform="translate(255,464)"/>
<path d="M0 0 C2.4375 0.1875 2.4375 0.1875 3.4375 1.1875 C3.47842937 3.52047433 3.47991723 5.85455225 3.4375 8.1875 C1.1275 8.1875 -1.1825 8.1875 -3.5625 8.1875 C-4.1875 5.3125 -4.1875 5.3125 -4.5625 2.1875 C-2.5625 0.1875 -2.5625 0.1875 0 0 Z " fill="#8A76A6" transform="translate(213.5625,12.8125)"/>
<path d="M0 0 C5.875 0.875 5.875 0.875 7 2 C7.125 4.5 7.125 4.5 7 7 C6 8 6 8 2.9375 8.0625 C1.968125 8.041875 0.99875 8.02125 0 8 C-1.125 5.6875 -1.125 5.6875 -2 3 C-1.34 2.01 -0.68 1.02 0 0 Z " fill="#8A76A6" transform="translate(250,12)"/>
<path d="M0 0 C2.5625 0.1875 2.5625 0.1875 4.5625 2.1875 C4.875 4.6875 4.875 4.6875 4.5625 7.1875 C1.5625 9.1875 1.5625 9.1875 -0.625 8.8125 C-1.223125 8.60625 -1.82125 8.4 -2.4375 8.1875 C-2.81813221 5.8614143 -3.15019945 3.52694736 -3.4375 1.1875 C-2.4375 0.1875 -2.4375 0.1875 0 0 Z " fill="#8A76A6" transform="translate(393.4375,64.8125)"/>
<path d="M0 0 C2.33944736 0.28730055 4.6739143 0.61936779 7 1 C6.67 3.31 6.34 5.62 6 8 C3.69 7.67 1.38 7.34 -1 7 C-1.04254356 5.00045254 -1.04080783 2.99958364 -1 1 C-0.67 0.67 -0.34 0.34 0 0 Z " fill="#8A76A6" transform="translate(381,57)"/>
<path d="M0 0 C2.33294775 -0.04241723 4.66702567 -0.04092937 7 0 C8 1 8 1 8.0625 4.0625 C8.041875 5.031875 8.02125 6.00125 8 7 C5.69 7 3.38 7 1 7 C-0.0625 4.625 -0.0625 4.625 -1 2 C-0.67 1.34 -0.34 0.68 0 0 Z " fill="#8A76A6" transform="translate(241,465)"/>
<path d="M0 0 C1.134375 0.020625 2.26875 0.04125 3.4375 0.0625 C4.0625 2.4375 4.0625 2.4375 4.4375 5.0625 C2.4375 7.0625 2.4375 7.0625 -0.6875 7.1875 C-2.110625 7.125625 -2.110625 7.125625 -3.5625 7.0625 C-3.94383299 5.0710944 -4.27575582 3.06970923 -4.5625 1.0625 C-3.5625 0.0625 -3.5625 0.0625 0 0 Z " fill="#8A76A6" transform="translate(397.5625,409.9375)"/>
<path d="M0 0 C3.625 -0.1875 3.625 -0.1875 7 0 C7.625 1.8125 7.625 1.8125 8 4 C7.01 5.485 7.01 5.485 6 7 C2.375 7.1875 2.375 7.1875 -1 7 C-1.625 5.1875 -1.625 5.1875 -2 3 C-1.34 2.01 -0.68 1.02 0 0 Z " fill="#8A76A6" transform="translate(13,242)"/>
<path d="M0 0 C0 2.31 0 4.62 0 7 C-1.65 7.33 -3.3 7.66 -5 8 C-7 2.25 -7 2.25 -7 0 C-4.3333581 -1.33332095 -2.83319697 -0.67102033 0 0 Z " fill="#8A76A6" transform="translate(84,404)"/>
<path d="M0 0 C1.32 0 2.64 0 4 0 C4 3.3 4 6.6 4 10 C2.35 10.33 0.7 10.66 -1 11 C-1.02688151 9.35425434 -1.04634123 7.70838587 -1.0625 6.0625 C-1.07410156 5.14597656 -1.08570313 4.22945313 -1.09765625 3.28515625 C-1 1 -1 1 0 0 Z " fill="#F5F4F8" transform="translate(309,109)"/>
<path d="M0 0 C1.134375 0.020625 2.26875 0.04125 3.4375 0.0625 C3.81968767 1.71864657 4.15145102 3.38707024 4.4375 5.0625 C3.4375 6.0625 3.4375 6.0625 -0.125 6.125 C-1.259375 6.104375 -2.39375 6.08375 -3.5625 6.0625 C-3.94468767 4.40635343 -4.27645102 2.73792976 -4.5625 1.0625 C-3.5625 0.0625 -3.5625 0.0625 0 0 Z " fill="#8A76A6" transform="translate(406.5625,400.9375)"/>
<path d="M0 0 C1.65 0 3.3 0 5 0 C5 2.97 5 5.94 5 9 C3.35 9 1.7 9 0 9 C0 6.03 0 3.06 0 0 Z " fill="#F0EEF4" transform="translate(171,110)"/>
<path d="M0 0 C2.475 0.495 2.475 0.495 5 1 C5 3.31 5 5.62 5 8 C3.35 7.67 1.7 7.34 0 7 C0 4.69 0 2.38 0 0 Z " fill="#E7E3EC" transform="translate(161,110)"/>
<path d="M0 0 C1.32 0 2.64 0 4 0 C4 2.64 4 5.28 4 8 C2.68 8 1.36 8 0 8 C0 5.36 0 2.72 0 0 Z " fill="#FBFAFC" transform="translate(319,110)"/>
</svg>
