<?xml version="1.0" encoding="UTF-8"?>
<svg version="1.1" xmlns="http://www.w3.org/2000/svg" width="484" height="485">
<path d="M0 0 C1.2365332 -0.01836914 1.2365332 -0.01836914 2.49804688 -0.03710938 C7.21907663 -0.04843079 10.99881799 0.36742456 15.4375 2.1875 C15.4375 3.8375 15.4375 5.4875 15.4375 7.1875 C14.92477539 7.38794922 14.41205078 7.58839844 13.88378906 7.79492188 C-4.51011375 15.06022518 -21.88514767 23.41856982 -30.4453125 42.44921875 C-34.09888423 51.40430191 -35.31334095 60.39049827 -31.8125 69.625 C-28.36816146 77.08574715 -24.15158318 81.05586025 -16.5625 84.1875 C-1.75891584 88.41087548 14.81123062 86.27825344 29.83325195 84.32592773 C32.39516068 83.9974148 34.95954926 83.70032738 37.52539062 83.40429688 C45.51256865 82.42338575 52.41647507 81.41705193 59.48803711 77.31323242 C62.13868711 75.78259408 64.77133308 75.08452169 67.75 74.4375 C68.71550781 74.21578125 69.68101562 73.9940625 70.67578125 73.765625 C82.32093336 71.97592353 94.06030347 71.98429123 105.8125 72 C107.06374664 72.00090637 107.06374664 72.00090637 108.340271 72.00183105 C146.97729271 72.0776679 146.97729271 72.0776679 162.52490234 79.13500977 C169.38285855 82.10126575 176.05577996 83.37901616 183.4375 84.375 C185.2177356 84.6237085 185.2177356 84.6237085 187.03393555 84.87744141 C215.26118157 88.74316896 215.26118157 88.74316896 241.4375 79.1875 C247.60382959 74.21465356 250.53102028 66.74860033 251.78515625 59.0546875 C252.26021635 48.85122285 247.51593575 40.90978944 241.4375 33.1875 C240.93605469 32.50945312 240.43460937 31.83140625 239.91796875 31.1328125 C231.32640309 20.30091453 219.10287128 13.9754309 206.4375 9.1875 C204.76990623 8.52315578 203.1028803 7.85737364 201.4375 7.1875 C201.4375 5.5375 201.4375 3.8875 201.4375 2.1875 C206.11188818 0.3599744 210.34026322 -0.16344661 215.3125 -0.125 C216.04992432 -0.12153564 216.78734863 -0.11807129 217.54711914 -0.11450195 C225.39082229 0.0366758 232.81762648 1.41175267 240.4375 3.1875 C241.77167969 3.46013672 241.77167969 3.46013672 243.1328125 3.73828125 C259.43331773 7.6923642 274.43977169 20.75631817 283.69140625 34.31640625 C294.56198155 52.19084214 297.21969134 72.13663615 292.6015625 92.421875 C287.40430701 109.2344733 277.7460272 121.53839367 262.34619141 130.18994141 C254.75752727 134.1560813 246.67683726 136.92510216 238.4375 139.1875 C239.11216309 139.58018066 239.78682617 139.97286133 240.48193359 140.37744141 C243.59251957 142.18844638 246.70251253 144.00046744 249.8125 145.8125 C251.40384766 146.73869141 251.40384766 146.73869141 253.02734375 147.68359375 C255.14283914 148.91655119 257.25582051 150.15383272 259.36621094 151.39550781 C261.37320139 152.56651814 263.39181788 153.71788472 265.42285156 154.84667969 C266.32745117 155.35875977 267.23205078 155.87083984 268.1640625 156.3984375 C268.96666504 156.8423584 269.76926758 157.2862793 270.59619141 157.74365234 C272.77269283 159.45033883 273.09349923 160.49102434 273.4375 163.1875 C264.19736851 169.00932619 254.82303874 174.60417312 245.4375 180.1875 C244.74688477 180.60032227 244.05626953 181.01314453 243.34472656 181.43847656 C229.62685521 189.61277625 217.67779168 195.50002357 201.4375 194.1875 C197.88701465 193.21204114 194.70745965 191.86534447 191.4375 190.1875 C190.68726563 189.81367188 189.93703125 189.43984375 189.1640625 189.0546875 C188.59429687 188.76851562 188.02453125 188.48234375 187.4375 188.1875 C187.30794922 189.74984375 187.30794922 189.74984375 187.17578125 191.34375 C185.58100952 208.50220025 180.58770726 221.75485208 172.07104492 236.67602539 C163.24976829 252.20821923 162.77243092 264.94263155 165.31884766 282.34594727 C167.33965826 296.41425332 167.20529074 307.97414286 159.4375 320.1875 C158.880625 321.074375 158.32375 321.96125 157.75 322.875 C153.69284049 326.93215951 148.54823716 329.63213142 143.4375 332.1875 C142.68575572 333.70847099 141.98536615 335.25502661 141.3125 336.8125 C136.90154603 345.77504705 130.43118148 349.74779404 121.2578125 353.25390625 C117.93600599 354.35350702 114.93487811 354.9895352 111.4375 355.1875 C110.7775 355.23777344 110.1175 355.28804688 109.4375 355.33984375 C99.68481582 355.77523144 89.25535609 353.16676938 81.4375 347.1875 C76.88002094 342.62040601 74.70611048 338.63415157 74.4375 332.1875 C73.2309375 331.878125 73.2309375 331.878125 72 331.5625 C64.11482337 328.51909849 58.61573506 324.46700324 54.59375 316.92578125 C49.65532347 305.23038598 51.29783896 291.47619828 52.9609375 279.16015625 C55.1103335 262.64935269 52.47216894 250.83698557 43.79833984 236.73364258 C34.23989186 221.18684076 30.99845095 205.1178971 29.4375 187.1875 C28.67566406 187.69410156 28.67566406 187.69410156 27.8984375 188.2109375 C27.21007812 188.65695312 26.52171875 189.10296875 25.8125 189.5625 C25.13960938 190.00335938 24.46671875 190.44421875 23.7734375 190.8984375 C15.14507225 195.65990996 5.49670384 195.307987 -3.8125 192.75 C-16.76367356 188.29318128 -28.44391951 180.8410362 -39.87939453 173.4375 C-40.62044434 172.95796875 -41.36149414 172.4784375 -42.125 171.984375 C-42.84816406 171.51580078 -43.57132813 171.04722656 -44.31640625 170.56445312 C-47.38780689 168.68155099 -50.58174929 167.06126391 -53.8125 165.46972656 C-55.5625 164.1875 -55.5625 164.1875 -56.3125 162.03808594 C-56.43625 161.1220459 -56.43625 161.1220459 -56.5625 160.1875 C-50.41033428 155.82971595 -43.97515814 152.10544521 -37.39013672 148.45556641 C-33.75614241 146.43725545 -30.18496946 144.37565676 -26.6875 142.125 C-23.5625 140.1875 -23.5625 140.1875 -21.5625 140.1875 C-21.5625 139.5275 -21.5625 138.8675 -21.5625 138.1875 C-22.55765625 138.07664063 -23.5528125 137.96578125 -24.578125 137.8515625 C-40.39074901 135.57104838 -56.68147925 126.15972229 -66.53515625 113.69140625 C-77.32060417 97.91396758 -78.73714936 77.51723385 -75.5 59.0625 C-71.64597502 39.78041351 -60.78723776 23.14944158 -44.484375 12.1015625 C-30.96748566 3.58837983 -15.87982932 0.01247434 0 0 Z M-11.5625 7.1875 C-11.2325 8.5075 -10.9025 9.8275 -10.5625 11.1875 C-8.5825 10.1975 -6.6025 9.2075 -4.5625 8.1875 C-4.5625 7.8575 -4.5625 7.5275 -4.5625 7.1875 C-6.8725 7.1875 -9.1825 7.1875 -11.5625 7.1875 Z M221.4375 7.1875 C223.0875 8.5075 224.7375 9.8275 226.4375 11.1875 C227.0975 10.8575 227.7575 10.5275 228.4375 10.1875 C228.4375 9.5275 228.4375 8.8675 228.4375 8.1875 C226.1275 7.8575 223.8175 7.5275 221.4375 7.1875 Z M-19.5625 8.1875 C-24.0175 9.6725 -24.0175 9.6725 -28.5625 11.1875 C-27.47181332 14.96295388 -26.6541909 17.65793472 -23.5625 20.1875 C-21.06888429 18.98368552 -18.88106917 17.73321278 -16.5625 16.1875 C-17.00953986 11.70866304 -17.00953986 11.70866304 -19.5625 8.1875 Z M235.4375 9.1875 C233.2138932 12.8893576 233.2138932 12.8893576 233.4375 16.1875 C236.49576717 19.27881528 236.49576717 19.27881528 240.5625 20.375 C243.61462717 18.44198613 244.24156664 15.47631675 245.4375 12.1875 C242.1375 11.1975 238.8375 10.2075 235.4375 9.1875 Z M-41.1875 17.1875 C-42.41339844 18.0228125 -42.41339844 18.0228125 -43.6640625 18.875 C-44.29054687 19.308125 -44.91703125 19.74125 -45.5625 20.1875 C-45.00420071 26.04964251 -42.71577425 29.60357089 -39 34.0625 C-37.47297837 35.49565413 -37.47297837 35.49565413 -34.5625 35.1875 C-32.64742222 33.19474825 -32.64742222 33.19474825 -30.875 30.6875 C-30.25238281 29.8521875 -29.62976563 29.016875 -28.98828125 28.15625 C-28.51777344 27.5065625 -28.04726562 26.856875 -27.5625 26.1875 C-28.19478516 25.26517578 -28.19478516 25.26517578 -28.83984375 24.32421875 C-29.38769531 23.51597656 -29.93554688 22.70773438 -30.5 21.875 C-31.04527344 21.07449219 -31.59054688 20.27398437 -32.15234375 19.44921875 C-33.5625 17.1875 -33.5625 17.1875 -34.5625 14.1875 C-37.43527077 14.1875 -38.8392056 15.57724098 -41.1875 17.1875 Z M251.4375 16.1875 C249.84738654 17.86623065 249.84738654 17.86623065 248.3125 20 C247.77367187 20.70769531 247.23484375 21.41539063 246.6796875 22.14453125 C245.17773387 24.21622995 245.17773387 24.21622995 245.4375 27.1875 C246.74556361 29.29506824 246.74556361 29.29506824 248.4375 31.375 C249.2728125 32.44814453 249.2728125 32.44814453 250.125 33.54296875 C250.558125 34.08566406 250.99125 34.62835938 251.4375 35.1875 C255.28293261 34.49204942 256.89841853 32.97927892 259.33203125 29.88671875 C260.90708608 27.46569808 261.70974852 24.96618745 262.4375 22.1875 C260.98300599 21.1819239 259.52377557 20.18319565 258.0625 19.1875 C257.25039063 18.630625 256.43828125 18.07375 255.6015625 17.5 C253.57431813 16.01464156 253.57431813 16.01464156 251.4375 16.1875 Z M-52.5625 26.1875 C-59.61876581 34.33933063 -59.61876581 34.33933063 -62.5625 44.1875 C-55.49173365 47.42976342 -49.36576294 49.79733685 -41.5625 50.1875 C-40.5725 47.5475 -39.5825 44.9075 -38.5625 42.1875 C-39.34173828 41.58615234 -39.34173828 41.58615234 -40.13671875 40.97265625 C-45.44439912 36.64606282 -48.64730375 32.36827666 -51.5625 26.1875 C-51.8925 26.1875 -52.2225 26.1875 -52.5625 26.1875 Z M267.4375 27.1875 C266.9425 28.363125 266.4475 29.53875 265.9375 30.75 C263.47789845 35.7494075 259.77960216 38.81499346 255.4375 42.1875 C256.4275 44.8275 257.4175 47.4675 258.4375 50.1875 C266.18722695 49.68751762 272.50361068 47.65444466 279.4375 44.1875 C278.11179813 39.30486034 276.12786507 36.16581368 272.875 32.3125 C272.06933594 31.34570312 271.26367188 30.37890625 270.43359375 29.3828125 C269.77488281 28.65835938 269.11617188 27.93390625 268.4375 27.1875 C268.1075 27.1875 267.7775 27.1875 267.4375 27.1875 Z M-66.5625 50.1875 C-69.15525138 58.52784505 -69.15525138 58.52784505 -69.5625 67.1875 C-59.07198702 71.68343413 -51.39810718 69.96247257 -40.5625 67.1875 C-41.0575 62.2375 -41.0575 62.2375 -41.5625 57.1875 C-42.61308594 56.93355469 -43.66367188 56.67960937 -44.74609375 56.41796875 C-52.13109029 54.6139196 -59.39490636 52.74735487 -66.5625 50.1875 Z M277.125 52 C271.0625484 54.49421508 264.84144872 55.86254509 258.4375 57.1875 C258.1075 60.4875 257.7775 63.7875 257.4375 67.1875 C268.27310718 69.96247257 275.94698702 71.68343413 286.4375 67.1875 C286.83964229 61.02131819 285.40568336 56.01004243 283.4375 50.1875 C280.93202487 50.1875 279.42423013 50.99526278 277.125 52 Z M-70.5625 74.1875 C-70.77682579 80.83159958 -70.07483701 86.71955867 -68.5625 93.1875 C-59.93852647 95.34349338 -51.67276174 92.67217731 -44.125 88.3125 C-40.45274626 85.94711917 -37.44847489 83.45827154 -34.5625 80.1875 C-35.5525 78.2075 -36.5425 76.2275 -37.5625 74.1875 C-38.15933594 74.2596875 -38.75617188 74.331875 -39.37109375 74.40625 C-45.40206894 75.05146577 -51.37742802 75.29682571 -57.4375 75.3125 C-58.52502563 75.31926758 -58.52502563 75.31926758 -59.63452148 75.32617188 C-63.40232356 75.31569727 -66.90006348 75.09233726 -70.5625 74.1875 Z M255.4375 74.1875 C253.4575 77.1575 253.4575 77.1575 251.4375 80.1875 C258.49202732 88.18263096 267.84803639 92.89998325 278.4375 94.1875 C281.69130178 93.81468713 281.69130178 93.81468713 284.4375 93.1875 C286.06599969 88.83159432 286.77868446 84.94815388 287.0625 80.3125 C287.13726562 79.16007812 287.21203125 78.00765625 287.2890625 76.8203125 C287.33804688 75.95148438 287.38703125 75.08265625 287.4375 74.1875 C286.78136719 74.34992188 286.12523437 74.51234375 285.44921875 74.6796875 C281.70469255 75.31106027 278.03439367 75.33592501 274.25 75.3125 C273.49984619 75.31056641 272.74969238 75.30863281 271.97680664 75.30664062 C266.40940883 75.26344995 260.96448767 74.8893397 255.4375 74.1875 Z M-35 89.375 C-44.41805365 96.04049929 -53.10218721 98.96676716 -64.5625 100.1875 C-61.91050308 107.42707454 -57.12267965 112.95438974 -51.5625 118.1875 C-40.1986727 115.64877263 -31.36254019 109.66797931 -24.5625 100.1875 C-22.94724324 97.540533 -21.75603678 95.07188056 -20.5625 92.1875 C-21.75547098 89.80155803 -22.70607265 89.35015153 -25 88.0625 C-25.92619141 87.53269531 -25.92619141 87.53269531 -26.87109375 86.9921875 C-30.51302429 85.25953694 -32.02670684 87.14384082 -35 89.375 Z M241.3125 88.6875 C240.58804687 89.1515625 239.86359375 89.615625 239.1171875 90.09375 C238.56289063 90.4546875 238.00859375 90.815625 237.4375 91.1875 C241.84552016 102.94222043 249.72316627 110.97562978 261.08984375 116.1875 C265.10391463 118.03540598 265.10391463 118.03540598 269.4375 118.1875 C275.90862075 113.63327188 279.39568566 107.32406441 282.4375 100.1875 C281.6125 100.1359375 280.7875 100.084375 279.9375 100.03125 C267.46830908 98.80659732 257.15555863 94.02521094 247.4375 86.1875 C244.76199708 86.1875 243.54705359 87.24585252 241.3125 88.6875 Z M175.4375 90.1875 C176.40391517 93.11475756 177.38173795 96.03306935 178.42871094 98.93261719 C181.06246648 106.36255292 182.56541166 113.64726375 183.6875 121.4375 C183.94660156 123.14486328 183.94660156 123.14486328 184.2109375 124.88671875 C184.6292722 127.65237591 185.03797319 130.41907468 185.4375 133.1875 C186.9225 132.6925 186.9225 132.6925 188.4375 132.1875 C188.293125 130.970625 188.14875 129.75375 188 128.5 C187.91878906 127.81550781 187.83757812 127.13101563 187.75390625 126.42578125 C187.46232775 124.16098886 187.46232775 124.16098886 186.92602539 121.85205078 C186.45320304 119.27314866 186.3083084 116.93405883 186.3046875 114.31640625 C186.30339844 113.41212891 186.30210937 112.50785156 186.30078125 111.57617188 C186.30464844 110.64353516 186.30851562 109.71089844 186.3125 108.75 C186.30863281 107.82123047 186.30476563 106.89246094 186.30078125 105.93554688 C186.30207031 105.02998047 186.30335938 104.12441406 186.3046875 103.19140625 C186.30581543 102.37486572 186.30694336 101.5583252 186.30810547 100.71704102 C186.45462154 97.85279011 186.96600439 95.01647368 187.4375 92.1875 C181.4975 91.1975 181.4975 91.1975 175.4375 90.1875 Z M34.25 91.1875 C32.89841797 91.4659375 32.89841797 91.4659375 31.51953125 91.75 C30.83246094 91.894375 30.14539063 92.03875 29.4375 92.1875 C29.59863281 92.96996094 29.75976562 93.75242187 29.92578125 94.55859375 C30.57236748 99.1439266 30.62831458 103.6249225 30.625 108.25 C30.62564453 109.17578857 30.62628906 110.10157715 30.62695312 111.05541992 C30.57169516 118.26721252 29.90747098 125.11326466 28.4375 132.1875 C29.7575 132.1875 31.0775 132.1875 32.4375 132.1875 C32.53546875 131.06214844 32.6334375 129.93679687 32.734375 128.77734375 C34.01573731 115.2070926 36.36802215 102.54322276 42.4375 90.1875 C39.5220524 90.1875 37.09595519 90.59613269 34.25 91.1875 Z M-14.5625 93.1875 C-15.3875 94.981875 -16.2125 96.77625 -17.0625 98.625 C-23.00970438 110.4221414 -30.92765809 116.45013529 -42.5625 122.1875 C-42.5625 122.8475 -42.5625 123.5075 -42.5625 124.1875 C-34.41649147 128.24387976 -26.35307917 130.89039975 -17.5625 133.1875 C-6.62147995 121.75028856 1.4375 111.37571657 1.4375 95.1875 C-3.8425 94.5275 -9.1225 93.8675 -14.5625 93.1875 Z M193.4375 93.1875 C190.78801157 105.81153311 190.98775484 117.05324745 195.4375 129.1875 C197.32082031 129.26097656 197.32082031 129.26097656 199.2421875 129.3359375 C207.82043989 129.70667143 216.06535486 130.12877579 224.4375 132.1875 C224.07398438 131.65382812 223.71046875 131.12015625 223.3359375 130.5703125 C221.68375562 128.12169423 220.0564841 125.65819455 218.4375 123.1875 C217.89996094 122.37152344 217.36242187 121.55554688 216.80859375 120.71484375 C211.43565757 112.2177943 209.24108571 104.15196279 208.4375 94.1875 C203.4875 93.8575 198.5375 93.5275 193.4375 93.1875 Z M13.125 93.6875 C11.80048828 93.82671875 11.80048828 93.82671875 10.44921875 93.96875 C9.45341797 94.07703125 9.45341797 94.07703125 8.4375 94.1875 C8.3859375 95.0125 8.334375 95.8375 8.28125 96.6875 C6.94827458 110.25961332 1.1371524 121.74791712 -7.5625 132.1875 C-6.304375 131.878125 -5.04625 131.56875 -3.75 131.25 C4.52369337 129.56173551 13.02319955 129.51577866 21.4375 129.1875 C25.846924 117.16320142 26.25496574 105.69145952 23.4375 93.1875 C19.95818726 93.13734774 16.58431363 93.31850655 13.125 93.6875 Z M222.3125 94.1875 C220.39050781 94.4659375 220.39050781 94.4659375 218.4296875 94.75 C216.94855469 94.9665625 216.94855469 94.9665625 215.4375 95.1875 C214.60823377 106.38259416 219.95355283 115.35312198 226.4375 124.1875 C228.64782736 126.67411828 230.9724022 128.95655397 233.4375 131.1875 C234.0975 131.8475 234.7575 132.5075 235.4375 133.1875 C248.34485704 129.73804708 248.34485704 129.73804708 260.4375 124.1875 C258.26003016 121.79776109 256.19782269 120.43231969 253.3125 119 C242.76533703 113.21275798 235.28209158 104.72127475 231.4375 93.1875 C228.35331805 93.1875 225.36223694 93.7439019 222.3125 94.1875 Z M81.4375 334.1875 C86.62405614 341.96733421 91.7565236 345.27389437 100.734375 347.68359375 C109.92436943 349.39675745 119.90390467 348.97412556 127.80078125 343.5703125 C131.55935228 340.45931055 133.22022434 339.05660262 134.4375 334.1875 C116.9475 334.1875 99.4575 334.1875 81.4375 334.1875 Z " fill="#FDFDFE" transform="translate(133.5625,87.8125)"/>
<path d="M0 0 C1.2365332 -0.01836914 1.2365332 -0.01836914 2.49804688 -0.03710938 C7.21907663 -0.04843079 10.99881799 0.36742456 15.4375 2.1875 C15.4375 3.8375 15.4375 5.4875 15.4375 7.1875 C14.92477539 7.38794922 14.41205078 7.58839844 13.88378906 7.79492188 C-4.51011375 15.06022518 -21.88514767 23.41856982 -30.4453125 42.44921875 C-34.09888423 51.40430191 -35.31334095 60.39049827 -31.8125 69.625 C-28.36816146 77.08574715 -24.15158318 81.05586025 -16.5625 84.1875 C-1.75891584 88.41087548 14.81123062 86.27825344 29.83325195 84.32592773 C32.39516068 83.9974148 34.95954926 83.70032738 37.52539062 83.40429688 C45.51256865 82.42338575 52.41647507 81.41705193 59.48803711 77.31323242 C62.13868711 75.78259408 64.77133308 75.08452169 67.75 74.4375 C68.71550781 74.21578125 69.68101562 73.9940625 70.67578125 73.765625 C82.32093336 71.97592353 94.06030347 71.98429123 105.8125 72 C107.06374664 72.00090637 107.06374664 72.00090637 108.340271 72.00183105 C146.97729271 72.0776679 146.97729271 72.0776679 162.52490234 79.13500977 C169.38285855 82.10126575 176.05577996 83.37901616 183.4375 84.375 C185.2177356 84.6237085 185.2177356 84.6237085 187.03393555 84.87744141 C215.26118157 88.74316896 215.26118157 88.74316896 241.4375 79.1875 C247.60382959 74.21465356 250.53102028 66.74860033 251.78515625 59.0546875 C252.26021635 48.85122285 247.51593575 40.90978944 241.4375 33.1875 C240.93605469 32.50945312 240.43460937 31.83140625 239.91796875 31.1328125 C231.32640309 20.30091453 219.10287128 13.9754309 206.4375 9.1875 C204.76990623 8.52315578 203.1028803 7.85737364 201.4375 7.1875 C201.4375 5.5375 201.4375 3.8875 201.4375 2.1875 C206.11188818 0.3599744 210.34026322 -0.16344661 215.3125 -0.125 C216.04992432 -0.12153564 216.78734863 -0.11807129 217.54711914 -0.11450195 C225.39082229 0.0366758 232.81762648 1.41175267 240.4375 3.1875 C241.77167969 3.46013672 241.77167969 3.46013672 243.1328125 3.73828125 C259.43331773 7.6923642 274.43977169 20.75631817 283.69140625 34.31640625 C294.56198155 52.19084214 297.21969134 72.13663615 292.6015625 92.421875 C287.40430701 109.2344733 277.7460272 121.53839367 262.34619141 130.18994141 C254.75752727 134.1560813 246.67683726 136.92510216 238.4375 139.1875 C239.11216309 139.58018066 239.78682617 139.97286133 240.48193359 140.37744141 C243.59251957 142.18844638 246.70251253 144.00046744 249.8125 145.8125 C251.40384766 146.73869141 251.40384766 146.73869141 253.02734375 147.68359375 C255.14283914 148.91655119 257.25582051 150.15383272 259.36621094 151.39550781 C261.37320139 152.56651814 263.39181788 153.71788472 265.42285156 154.84667969 C266.32745117 155.35875977 267.23205078 155.87083984 268.1640625 156.3984375 C268.96666504 156.8423584 269.76926758 157.2862793 270.59619141 157.74365234 C272.77269283 159.45033883 273.09349923 160.49102434 273.4375 163.1875 C264.19736851 169.00932619 254.82303874 174.60417312 245.4375 180.1875 C244.74688477 180.60032227 244.05626953 181.01314453 243.34472656 181.43847656 C229.62685521 189.61277625 217.67779168 195.50002357 201.4375 194.1875 C197.88701465 193.21204114 194.70745965 191.86534447 191.4375 190.1875 C190.68726563 189.81367188 189.93703125 189.43984375 189.1640625 189.0546875 C188.59429687 188.76851562 188.02453125 188.48234375 187.4375 188.1875 C187.30794922 189.74984375 187.30794922 189.74984375 187.17578125 191.34375 C185.58100952 208.50220025 180.58770726 221.75485208 172.07104492 236.67602539 C163.24976829 252.20821923 162.77243092 264.94263155 165.31884766 282.34594727 C167.33965826 296.41425332 167.20529074 307.97414286 159.4375 320.1875 C158.880625 321.074375 158.32375 321.96125 157.75 322.875 C153.69284049 326.93215951 148.54823716 329.63213142 143.4375 332.1875 C142.68575572 333.70847099 141.98536615 335.25502661 141.3125 336.8125 C136.90154603 345.77504705 130.43118148 349.74779404 121.2578125 353.25390625 C117.93600599 354.35350702 114.93487811 354.9895352 111.4375 355.1875 C110.7775 355.23777344 110.1175 355.28804688 109.4375 355.33984375 C99.68481582 355.77523144 89.25535609 353.16676938 81.4375 347.1875 C76.88002094 342.62040601 74.70611048 338.63415157 74.4375 332.1875 C73.2309375 331.878125 73.2309375 331.878125 72 331.5625 C64.11482337 328.51909849 58.61573506 324.46700324 54.59375 316.92578125 C49.65532347 305.23038598 51.29783896 291.47619828 52.9609375 279.16015625 C55.1103335 262.64935269 52.47216894 250.83698557 43.79833984 236.73364258 C34.23989186 221.18684076 30.99845095 205.1178971 29.4375 187.1875 C28.67566406 187.69410156 28.67566406 187.69410156 27.8984375 188.2109375 C27.21007812 188.65695312 26.52171875 189.10296875 25.8125 189.5625 C25.13960938 190.00335938 24.46671875 190.44421875 23.7734375 190.8984375 C15.14507225 195.65990996 5.49670384 195.307987 -3.8125 192.75 C-16.76367356 188.29318128 -28.44391951 180.8410362 -39.87939453 173.4375 C-40.62044434 172.95796875 -41.36149414 172.4784375 -42.125 171.984375 C-42.84816406 171.51580078 -43.57132813 171.04722656 -44.31640625 170.56445312 C-47.38780689 168.68155099 -50.58174929 167.06126391 -53.8125 165.46972656 C-55.5625 164.1875 -55.5625 164.1875 -56.3125 162.03808594 C-56.43625 161.1220459 -56.43625 161.1220459 -56.5625 160.1875 C-50.41033428 155.82971595 -43.97515814 152.10544521 -37.39013672 148.45556641 C-33.75614241 146.43725545 -30.18496946 144.37565676 -26.6875 142.125 C-23.5625 140.1875 -23.5625 140.1875 -21.5625 140.1875 C-21.5625 139.5275 -21.5625 138.8675 -21.5625 138.1875 C-22.55765625 138.07664063 -23.5528125 137.96578125 -24.578125 137.8515625 C-40.39074901 135.57104838 -56.68147925 126.15972229 -66.53515625 113.69140625 C-77.32060417 97.91396758 -78.73714936 77.51723385 -75.5 59.0625 C-71.64597502 39.78041351 -60.78723776 23.14944158 -44.484375 12.1015625 C-30.96748566 3.58837983 -15.87982932 0.01247434 0 0 Z M-11.5625 7.1875 C-11.2325 8.5075 -10.9025 9.8275 -10.5625 11.1875 C-8.5825 10.1975 -6.6025 9.2075 -4.5625 8.1875 C-4.5625 7.8575 -4.5625 7.5275 -4.5625 7.1875 C-6.8725 7.1875 -9.1825 7.1875 -11.5625 7.1875 Z M221.4375 7.1875 C223.0875 8.5075 224.7375 9.8275 226.4375 11.1875 C227.0975 10.8575 227.7575 10.5275 228.4375 10.1875 C228.4375 9.5275 228.4375 8.8675 228.4375 8.1875 C226.1275 7.8575 223.8175 7.5275 221.4375 7.1875 Z M-19.5625 8.1875 C-24.0175 9.6725 -24.0175 9.6725 -28.5625 11.1875 C-27.47181332 14.96295388 -26.6541909 17.65793472 -23.5625 20.1875 C-21.06888429 18.98368552 -18.88106917 17.73321278 -16.5625 16.1875 C-17.00953986 11.70866304 -17.00953986 11.70866304 -19.5625 8.1875 Z M235.4375 9.1875 C233.2138932 12.8893576 233.2138932 12.8893576 233.4375 16.1875 C236.49576717 19.27881528 236.49576717 19.27881528 240.5625 20.375 C243.61462717 18.44198613 244.24156664 15.47631675 245.4375 12.1875 C242.1375 11.1975 238.8375 10.2075 235.4375 9.1875 Z M-41.1875 17.1875 C-42.41339844 18.0228125 -42.41339844 18.0228125 -43.6640625 18.875 C-44.29054687 19.308125 -44.91703125 19.74125 -45.5625 20.1875 C-45.00420071 26.04964251 -42.71577425 29.60357089 -39 34.0625 C-37.47297837 35.49565413 -37.47297837 35.49565413 -34.5625 35.1875 C-32.64742222 33.19474825 -32.64742222 33.19474825 -30.875 30.6875 C-30.25238281 29.8521875 -29.62976563 29.016875 -28.98828125 28.15625 C-28.51777344 27.5065625 -28.04726562 26.856875 -27.5625 26.1875 C-28.19478516 25.26517578 -28.19478516 25.26517578 -28.83984375 24.32421875 C-29.38769531 23.51597656 -29.93554688 22.70773438 -30.5 21.875 C-31.04527344 21.07449219 -31.59054688 20.27398437 -32.15234375 19.44921875 C-33.5625 17.1875 -33.5625 17.1875 -34.5625 14.1875 C-37.43527077 14.1875 -38.8392056 15.57724098 -41.1875 17.1875 Z M251.4375 16.1875 C249.84738654 17.86623065 249.84738654 17.86623065 248.3125 20 C247.77367187 20.70769531 247.23484375 21.41539063 246.6796875 22.14453125 C245.17773387 24.21622995 245.17773387 24.21622995 245.4375 27.1875 C246.74556361 29.29506824 246.74556361 29.29506824 248.4375 31.375 C249.2728125 32.44814453 249.2728125 32.44814453 250.125 33.54296875 C250.558125 34.08566406 250.99125 34.62835938 251.4375 35.1875 C255.28293261 34.49204942 256.89841853 32.97927892 259.33203125 29.88671875 C260.90708608 27.46569808 261.70974852 24.96618745 262.4375 22.1875 C260.98300599 21.1819239 259.52377557 20.18319565 258.0625 19.1875 C257.25039063 18.630625 256.43828125 18.07375 255.6015625 17.5 C253.57431813 16.01464156 253.57431813 16.01464156 251.4375 16.1875 Z M-52.5625 26.1875 C-59.61876581 34.33933063 -59.61876581 34.33933063 -62.5625 44.1875 C-55.49173365 47.42976342 -49.36576294 49.79733685 -41.5625 50.1875 C-40.5725 47.5475 -39.5825 44.9075 -38.5625 42.1875 C-39.34173828 41.58615234 -39.34173828 41.58615234 -40.13671875 40.97265625 C-45.44439912 36.64606282 -48.64730375 32.36827666 -51.5625 26.1875 C-51.8925 26.1875 -52.2225 26.1875 -52.5625 26.1875 Z M267.4375 27.1875 C266.9425 28.363125 266.4475 29.53875 265.9375 30.75 C263.47789845 35.7494075 259.77960216 38.81499346 255.4375 42.1875 C256.4275 44.8275 257.4175 47.4675 258.4375 50.1875 C266.18722695 49.68751762 272.50361068 47.65444466 279.4375 44.1875 C278.11179813 39.30486034 276.12786507 36.16581368 272.875 32.3125 C272.06933594 31.34570312 271.26367188 30.37890625 270.43359375 29.3828125 C269.77488281 28.65835938 269.11617188 27.93390625 268.4375 27.1875 C268.1075 27.1875 267.7775 27.1875 267.4375 27.1875 Z M-66.5625 50.1875 C-69.15525138 58.52784505 -69.15525138 58.52784505 -69.5625 67.1875 C-59.07198702 71.68343413 -51.39810718 69.96247257 -40.5625 67.1875 C-41.0575 62.2375 -41.0575 62.2375 -41.5625 57.1875 C-42.61308594 56.93355469 -43.66367188 56.67960937 -44.74609375 56.41796875 C-52.13109029 54.6139196 -59.39490636 52.74735487 -66.5625 50.1875 Z M277.125 52 C271.0625484 54.49421508 264.84144872 55.86254509 258.4375 57.1875 C258.1075 60.4875 257.7775 63.7875 257.4375 67.1875 C268.27310718 69.96247257 275.94698702 71.68343413 286.4375 67.1875 C286.83964229 61.02131819 285.40568336 56.01004243 283.4375 50.1875 C280.93202487 50.1875 279.42423013 50.99526278 277.125 52 Z M-70.5625 74.1875 C-70.77682579 80.83159958 -70.07483701 86.71955867 -68.5625 93.1875 C-59.93852647 95.34349338 -51.67276174 92.67217731 -44.125 88.3125 C-40.45274626 85.94711917 -37.44847489 83.45827154 -34.5625 80.1875 C-35.5525 78.2075 -36.5425 76.2275 -37.5625 74.1875 C-38.15933594 74.2596875 -38.75617188 74.331875 -39.37109375 74.40625 C-45.40206894 75.05146577 -51.37742802 75.29682571 -57.4375 75.3125 C-58.52502563 75.31926758 -58.52502563 75.31926758 -59.63452148 75.32617188 C-63.40232356 75.31569727 -66.90006348 75.09233726 -70.5625 74.1875 Z M255.4375 74.1875 C253.4575 77.1575 253.4575 77.1575 251.4375 80.1875 C258.49202732 88.18263096 267.84803639 92.89998325 278.4375 94.1875 C281.69130178 93.81468713 281.69130178 93.81468713 284.4375 93.1875 C286.06599969 88.83159432 286.77868446 84.94815388 287.0625 80.3125 C287.13726562 79.16007812 287.21203125 78.00765625 287.2890625 76.8203125 C287.33804688 75.95148438 287.38703125 75.08265625 287.4375 74.1875 C286.78136719 74.34992188 286.12523437 74.51234375 285.44921875 74.6796875 C281.70469255 75.31106027 278.03439367 75.33592501 274.25 75.3125 C273.49984619 75.31056641 272.74969238 75.30863281 271.97680664 75.30664062 C266.40940883 75.26344995 260.96448767 74.8893397 255.4375 74.1875 Z M47.26171875 93.734375 C41.90801009 100.93379478 40.51120473 108.83801426 39.3125 117.5625 C39.15652344 118.60277344 39.00054687 119.64304688 38.83984375 120.71484375 C38.33215045 124.20156388 37.87648256 127.69145468 37.4375 131.1875 C37.34816193 131.88554749 37.25882385 132.58359497 37.16677856 133.30279541 C35.68652478 145.09413313 35.09253979 156.74975424 35.12182617 168.63134766 C35.12500703 171.31843979 35.10131787 174.00444704 35.07617188 176.69140625 C34.99267458 199.60251457 40.42853841 217.36118763 51.71875 237.29296875 C59.11551501 250.44365932 61.76379295 259.92034216 59.4375 275 C57.41199995 289.45737352 55.56633795 306.16390345 64.6875 318.5625 C76.13100623 329.48584685 89.7351835 329.7244919 104.76000977 329.68847656 C107.60211733 329.6875078 110.4414859 329.72915483 113.28320312 329.7734375 C126.17666017 329.85780488 139.31953236 329.03882685 150.125 321.125 C158.27416067 312.61445748 158.91141243 302.94551455 158.78125 291.74951172 C158.67562893 287.83052981 158.45478813 283.97276975 157.9375 280.0859375 C155.4243576 260.49128035 160.69297289 246.74397202 170.07128906 229.70825195 C178.10800081 214.91386368 180.76535198 200.17713693 180.703125 183.44140625 C180.70599518 181.68279518 180.70599518 181.68279518 180.70892334 179.88865662 C180.71027481 177.42226953 180.70665156 174.95587507 180.69824219 172.48950195 C180.68761593 168.79035699 180.69812837 165.0917074 180.7109375 161.39257812 C181.66864499 124.09971146 181.66864499 124.09971146 166.73046875 91.19921875 C155.22003762 79.88264751 137.60317148 78.88146291 122.359375 78.8515625 C121.14912659 78.8449057 119.93887817 78.8382489 118.69195557 78.83139038 C116.14735417 78.82132902 113.60272674 78.81657132 111.05810547 78.81689453 C107.21146166 78.81252721 103.36597242 78.77615057 99.51953125 78.73828125 C79.80766853 78.64824359 62.12804862 79.3978724 47.26171875 93.734375 Z M-35 89.375 C-44.41805365 96.04049929 -53.10218721 98.96676716 -64.5625 100.1875 C-61.91050308 107.42707454 -57.12267965 112.95438974 -51.5625 118.1875 C-40.1986727 115.64877263 -31.36254019 109.66797931 -24.5625 100.1875 C-22.94724324 97.540533 -21.75603678 95.07188056 -20.5625 92.1875 C-21.75547098 89.80155803 -22.70607265 89.35015153 -25 88.0625 C-25.92619141 87.53269531 -25.92619141 87.53269531 -26.87109375 86.9921875 C-30.51302429 85.25953694 -32.02670684 87.14384082 -35 89.375 Z M241.3125 88.6875 C240.58804687 89.1515625 239.86359375 89.615625 239.1171875 90.09375 C238.56289063 90.4546875 238.00859375 90.815625 237.4375 91.1875 C241.84552016 102.94222043 249.72316627 110.97562978 261.08984375 116.1875 C265.10391463 118.03540598 265.10391463 118.03540598 269.4375 118.1875 C275.90862075 113.63327188 279.39568566 107.32406441 282.4375 100.1875 C281.6125 100.1359375 280.7875 100.084375 279.9375 100.03125 C267.46830908 98.80659732 257.15555863 94.02521094 247.4375 86.1875 C244.76199708 86.1875 243.54705359 87.24585252 241.3125 88.6875 Z M175.4375 90.1875 C176.40391517 93.11475756 177.38173795 96.03306935 178.42871094 98.93261719 C181.06246648 106.36255292 182.56541166 113.64726375 183.6875 121.4375 C183.94660156 123.14486328 183.94660156 123.14486328 184.2109375 124.88671875 C184.6292722 127.65237591 185.03797319 130.41907468 185.4375 133.1875 C186.9225 132.6925 186.9225 132.6925 188.4375 132.1875 C188.293125 130.970625 188.14875 129.75375 188 128.5 C187.91878906 127.81550781 187.83757812 127.13101563 187.75390625 126.42578125 C187.46232775 124.16098886 187.46232775 124.16098886 186.92602539 121.85205078 C186.45320304 119.27314866 186.3083084 116.93405883 186.3046875 114.31640625 C186.30339844 113.41212891 186.30210937 112.50785156 186.30078125 111.57617188 C186.30464844 110.64353516 186.30851562 109.71089844 186.3125 108.75 C186.30863281 107.82123047 186.30476563 106.89246094 186.30078125 105.93554688 C186.30207031 105.02998047 186.30335938 104.12441406 186.3046875 103.19140625 C186.30581543 102.37486572 186.30694336 101.5583252 186.30810547 100.71704102 C186.45462154 97.85279011 186.96600439 95.01647368 187.4375 92.1875 C181.4975 91.1975 181.4975 91.1975 175.4375 90.1875 Z M34.25 91.1875 C32.89841797 91.4659375 32.89841797 91.4659375 31.51953125 91.75 C30.83246094 91.894375 30.14539063 92.03875 29.4375 92.1875 C29.59863281 92.96996094 29.75976562 93.75242187 29.92578125 94.55859375 C30.57236748 99.1439266 30.62831458 103.6249225 30.625 108.25 C30.62564453 109.17578857 30.62628906 110.10157715 30.62695312 111.05541992 C30.57169516 118.26721252 29.90747098 125.11326466 28.4375 132.1875 C29.7575 132.1875 31.0775 132.1875 32.4375 132.1875 C32.53546875 131.06214844 32.6334375 129.93679687 32.734375 128.77734375 C34.01573731 115.2070926 36.36802215 102.54322276 42.4375 90.1875 C39.5220524 90.1875 37.09595519 90.59613269 34.25 91.1875 Z M-14.5625 93.1875 C-15.3875 94.981875 -16.2125 96.77625 -17.0625 98.625 C-23.00970438 110.4221414 -30.92765809 116.45013529 -42.5625 122.1875 C-42.5625 122.8475 -42.5625 123.5075 -42.5625 124.1875 C-34.41649147 128.24387976 -26.35307917 130.89039975 -17.5625 133.1875 C-6.62147995 121.75028856 1.4375 111.37571657 1.4375 95.1875 C-3.8425 94.5275 -9.1225 93.8675 -14.5625 93.1875 Z M193.4375 93.1875 C190.78801157 105.81153311 190.98775484 117.05324745 195.4375 129.1875 C197.32082031 129.26097656 197.32082031 129.26097656 199.2421875 129.3359375 C207.82043989 129.70667143 216.06535486 130.12877579 224.4375 132.1875 C224.07398438 131.65382812 223.71046875 131.12015625 223.3359375 130.5703125 C221.68375562 128.12169423 220.0564841 125.65819455 218.4375 123.1875 C217.89996094 122.37152344 217.36242187 121.55554688 216.80859375 120.71484375 C211.43565757 112.2177943 209.24108571 104.15196279 208.4375 94.1875 C203.4875 93.8575 198.5375 93.5275 193.4375 93.1875 Z M13.125 93.6875 C11.80048828 93.82671875 11.80048828 93.82671875 10.44921875 93.96875 C9.45341797 94.07703125 9.45341797 94.07703125 8.4375 94.1875 C8.3859375 95.0125 8.334375 95.8375 8.28125 96.6875 C6.94827458 110.25961332 1.1371524 121.74791712 -7.5625 132.1875 C-6.304375 131.878125 -5.04625 131.56875 -3.75 131.25 C4.52369337 129.56173551 13.02319955 129.51577866 21.4375 129.1875 C25.846924 117.16320142 26.25496574 105.69145952 23.4375 93.1875 C19.95818726 93.13734774 16.58431363 93.31850655 13.125 93.6875 Z M222.3125 94.1875 C220.39050781 94.4659375 220.39050781 94.4659375 218.4296875 94.75 C216.94855469 94.9665625 216.94855469 94.9665625 215.4375 95.1875 C214.60823377 106.38259416 219.95355283 115.35312198 226.4375 124.1875 C228.64782736 126.67411828 230.9724022 128.95655397 233.4375 131.1875 C234.0975 131.8475 234.7575 132.5075 235.4375 133.1875 C248.34485704 129.73804708 248.34485704 129.73804708 260.4375 124.1875 C258.26003016 121.79776109 256.19782269 120.43231969 253.3125 119 C242.76533703 113.21275798 235.28209158 104.72127475 231.4375 93.1875 C228.35331805 93.1875 225.36223694 93.7439019 222.3125 94.1875 Z M81.4375 334.1875 C86.62405614 341.96733421 91.7565236 345.27389437 100.734375 347.68359375 C109.92436943 349.39675745 119.90390467 348.97412556 127.80078125 343.5703125 C131.55935228 340.45931055 133.22022434 339.05660262 134.4375 334.1875 C116.9475 334.1875 99.4575 334.1875 81.4375 334.1875 Z " fill="#6E5590" transform="translate(133.5625,87.8125)"/>
<path d="M0 0 C47.4513577 41.94603256 74.96069871 101.59166092 80.02172852 164.55322266 C80.1687515 167.96379024 80.20783336 171.37022322 80.22485352 174.78369141 C80.23186783 175.72871521 80.23888214 176.67373901 80.24610901 177.6473999 C80.26351211 180.67855653 80.26996077 183.70951791 80.27172852 186.74072266 C80.27240326 187.77544708 80.273078 188.81017151 80.27377319 189.87625122 C80.25840623 204.68124801 79.89097169 218.98850731 77.02172852 233.55322266 C76.78824707 234.8704834 76.78824707 234.8704834 76.55004883 236.21435547 C68.87969224 279.37350762 49.91293915 320.93153496 20.13891602 353.24853516 C18.03230757 355.54170672 15.9966957 357.88613995 13.95922852 360.24072266 C10.25830635 364.39971574 6.28717662 367.98739832 2.02172852 371.55322266 C1.21864258 372.26736328 0.41555664 372.98150391 -0.41186523 373.71728516 C-24.22093367 394.45312632 -52.97058945 409.16714498 -82.97827148 418.55322266 C-83.91477539 418.84664551 -84.8512793 419.14006836 -85.81616211 419.44238281 C-105.97149105 425.61752676 -127.20888855 429.65765056 -148.32983398 429.75634766 C-149.30576508 429.76204773 -150.28169617 429.7677478 -151.28720093 429.77362061 C-153.3495782 429.7830222 -155.41197017 429.7895852 -157.47436523 429.79345703 C-160.54626805 429.80304474 -163.61746604 429.8340654 -166.68920898 429.86572266 C-230.37720106 430.2063412 -291.89294817 405.35253839 -337.16577148 360.67822266 C-343.56342944 354.25616944 -349.35848508 347.5540025 -354.72680664 340.25341797 C-355.97559589 338.55685762 -357.24714252 336.87926291 -358.52124023 335.20166016 C-365.28490267 326.16385012 -370.77614183 316.55716183 -375.97827148 306.55322266 C-376.39077148 305.77156738 -376.80327148 304.98991211 -377.22827148 304.18457031 C-395.86880004 268.49815217 -404.47252334 228.47661387 -404.29077148 188.36572266 C-404.28803726 187.0983728 -404.28803726 187.0983728 -404.2852478 185.80541992 C-404.23494953 171.87918704 -403.51741872 158.27542264 -400.97827148 144.55322266 C-400.80134766 143.59609375 -400.62442383 142.63896484 -400.44213867 141.65283203 C-392.81013152 101.71331273 -377.3610288 64.51024473 -351.97827148 32.55322266 C-351.19581055 31.56580078 -350.41334961 30.57837891 -349.60717773 29.56103516 C-337.79712249 14.99629428 -324.30662241 1.39670119 -308.97827148 -9.44677734 C-308.29829102 -9.92808105 -307.61831055 -10.40938477 -306.91772461 -10.90527344 C-222.87521563 -69.74635621 -100.91581318 -71.92824835 0 0 Z M-296.97827148 -8.44677734 C-297.54320312 -8.04861816 -298.10813477 -7.65045898 -298.69018555 -7.24023438 C-305.05045573 -2.72288941 -310.96557398 2.16371767 -316.69311523 7.45556641 C-318.68238568 9.28161466 -320.71678648 11.01312346 -322.79077148 12.74072266 C-352.46795424 38.78274849 -373.58224912 76.13006121 -384.97827148 113.55322266 C-385.24333496 114.41447754 -385.50839844 115.27573242 -385.78149414 116.16308594 C-390.09616536 130.41268425 -392.97536897 144.80457684 -394.97827148 159.55322266 C-395.08284668 160.30780762 -395.18742187 161.06239258 -395.29516602 161.83984375 C-396.31945818 170.40981596 -396.22206968 179.05950332 -396.22827148 187.67822266 C-396.22894623 188.52192413 -396.22962097 189.36562561 -396.23031616 190.2348938 C-396.21262379 204.20476062 -395.46358524 217.77940462 -392.97827148 231.55322266 C-392.74479004 232.91133057 -392.74479004 232.91133057 -392.5065918 234.296875 C-384.61887428 278.92309318 -364.52747437 320.90982776 -332.97827148 353.55322266 C-332.10686523 354.47619141 -331.23545898 355.39916016 -330.33764648 356.35009766 C-307.33291993 380.1620076 -277.14082914 397.02525021 -245.97827148 407.55322266 C-245.1685791 407.82859863 -244.35888672 408.10397461 -243.5246582 408.38769531 C-224.62018703 414.70187242 -204.81934151 418.70052774 -184.97827148 420.55322266 C-183.80135742 420.66408203 -182.62444336 420.77494141 -181.41186523 420.88916016 C-122.3602419 425.60309773 -57.56108428 411.79967199 -11.46850586 372.83496094 C-8.33716752 370.14172269 -5.2538942 367.40273262 -2.21655273 364.60400391 C-0.11530529 362.67877719 2.03492157 360.83243963 4.20922852 358.99072266 C8.21846141 355.47566956 11.63159644 351.66187984 15.02172852 347.55322266 C15.65570557 346.80371338 15.65570557 346.80371338 16.30249023 346.0390625 C35.27710197 323.5640873 49.6167213 297.39182892 59.02172852 269.55322266 C59.29710449 268.74353027 59.57248047 267.93383789 59.85620117 267.09960938 C63.17437373 257.16509274 65.68166913 247.12672239 67.77172852 236.86572266 C67.97048584 235.89344727 68.16924316 234.92117188 68.37402344 233.91943359 C71.37436129 218.4303341 72.40255673 203.23653833 72.33422852 187.49072266 C72.33207336 186.59214539 72.32991821 185.69356812 72.32769775 184.76776123 C72.27300903 170.5136048 71.69072236 156.59041758 69.02172852 142.55322266 C68.81773437 141.47476074 68.61374023 140.39629883 68.40356445 139.28515625 C59.67267363 94.53139785 40.72200586 53.65443723 9.02172852 20.55322266 C8.55009277 20.05435547 8.07845703 19.55548828 7.5925293 19.04150391 C-34.01441723 -24.80570828 -95.44366949 -45.1939109 -154.73364258 -47.59912109 C-205.36824522 -48.91550229 -255.1536977 -38.18945706 -296.97827148 -8.44677734 Z " fill="#6D5490" transform="translate(403.978271484375,55.44677734375)"/>
<path d="M0 0 C3.3950341 1.7476363 6.69488772 3.62392807 9.98046875 5.56640625 C10.84349609 6.07365234 11.70652344 6.58089844 12.59570312 7.10351562 C15.50507641 8.82458124 18.40082705 10.56655527 21.29296875 12.31640625 C22.24373291 12.88359375 23.19449707 13.45078125 24.17407227 14.03515625 C25.05506592 14.5765625 25.93605957 15.11796875 26.84375 15.67578125 C27.64079346 16.16014648 28.43783691 16.64451172 29.2590332 17.14355469 C29.82710693 17.6130957 30.39518066 18.08263672 30.98046875 18.56640625 C30.98046875 19.55640625 30.98046875 20.54640625 30.98046875 21.56640625 C28.61417654 23.27657636 26.29899579 24.77488837 23.79296875 26.25390625 C22.31639908 27.14712357 20.83983668 28.04035289 19.36328125 28.93359375 C18.62239258 29.37670898 17.88150391 29.81982422 17.11816406 30.27636719 C15.19860558 31.4347668 13.30049238 32.61892751 11.41015625 33.82421875 C-0.9420095 41.65221777 -13.01155958 48.27706812 -28.01953125 46.56640625 C-34.51834097 44.49496622 -39.89653242 40.99140471 -44.01953125 35.56640625 C-44.39453125 31.69140625 -44.39453125 31.69140625 -44.01953125 28.56640625 C-43.04693359 28.80037109 -43.04693359 28.80037109 -42.0546875 29.0390625 C-24.41008487 32.10472705 -7.64062973 27.77864088 7.98046875 19.56640625 C7.98046875 18.57640625 7.98046875 17.58640625 7.98046875 16.56640625 C3.66768682 15.26181574 -0.65139011 13.98138563 -4.97729492 12.72119141 C-6.44237236 12.29095625 -7.90567189 11.85461082 -9.36694336 11.41162109 C-20.88612338 7.9262294 -32.29377871 5.20333554 -44.01953125 9.56640625 C-44.34953125 6.26640625 -44.67953125 2.96640625 -45.01953125 -0.43359375 C-29.95421646 -10.06551632 -15.71020686 -7.45879161 0 0 Z " fill="#FAFAFB" transform="translate(364.01953125,229.43359375)"/>
<path d="M0 0 C1.17647095 0.00205444 1.17647095 0.00205444 2.37670898 0.00415039 C8.98112126 0.17825616 15.28296952 1.65796952 20.125 6.5 C20.03536938 8.19141656 19.87922324 9.87959602 19.6875 11.5625 C19.58566406 12.48160156 19.48382813 13.40070313 19.37890625 14.34765625 C19.25322266 15.41306641 19.25322266 15.41306641 19.125 16.5 C18.25875 16.17 17.3925 15.84 16.5 15.5 C3.63787769 12.02926858 -8.06059187 15.8088493 -20.30664062 19.68994141 C-24.48193234 21.00682524 -28.67919041 22.25033945 -32.875 23.5 C-32.6587241 25.45397861 -32.6587241 25.45397861 -31.875 27.5 C-30.2429296 28.65591376 -30.2429296 28.65591376 -28.15625 29.3515625 C-27.38796875 29.64546875 -26.6196875 29.939375 -25.828125 30.2421875 C-25.01859375 30.53351563 -24.2090625 30.82484375 -23.375 31.125 C-22.59640625 31.4240625 -21.8178125 31.723125 -21.015625 32.03125 C-12.3356162 35.27906786 -4.39370293 36.82793489 4.875 36.6875 C5.69871094 36.68685547 6.52242187 36.68621094 7.37109375 36.68554688 C11.41300752 36.65625764 15.18253817 36.50164172 19.125 35.5 C19.65782565 38.34173681 19.87053289 39.76466555 19.125 42.5 C13.88622019 49.00986698 7.64798166 52.70750115 -0.515625 53.87890625 C-20.78707911 55.15264735 -40.99001005 38.36746038 -56.875 27.5 C-53.14679003 23.19821927 -48.46759998 20.61397659 -43.625 17.75 C-42.7390918 17.222854 -41.85318359 16.69570801 -40.94042969 16.15258789 C-35.42163534 12.90457841 -29.84999717 9.80691617 -24.125 6.9375 C-23.5072168 6.62780273 -22.88943359 6.31810547 -22.25292969 5.99902344 C-14.72262908 2.32580572 -8.4316616 -0.06599242 0 0 Z " fill="#FBFAFC" transform="translate(144.875,222.5)"/>
<path d="M0 0 C1.65 0 3.3 0 5 0 C5.66 3.63 6.32 7.26 7 11 C8.98 8.69 10.96 6.38 13 4 C14.32 4.33 15.64 4.66 17 5 C17.495 6.485 17.495 6.485 18 8 C15.94732822 11.55162556 13.44510741 14.69696016 11 18 C15.62 18 20.24 18 25 18 C25.495 19.98 25.495 19.98 26 22 C23.22957891 24.77042109 21.23466195 24.39796106 17.375 24.625 C16.18648438 24.69976562 14.99796875 24.77453125 13.7734375 24.8515625 C12.85820312 24.90054687 11.94296875 24.94953125 11 25 C11.93274109 26.12894876 12.87140122 27.25300876 13.8125 28.375 C14.59560547 29.31472656 14.59560547 29.31472656 15.39453125 30.2734375 C17.08225739 32.2221048 17.08225739 32.2221048 20 34 C20.1875 36.625 20.1875 36.625 20 39 C15.38099287 38.81523971 12.78017921 38.20125576 9.5625 34.9375 C8.716875 33.968125 7.87125 32.99875 7 32 C6.67 35.96 6.34 39.92 6 44 C3.525 44.495 3.525 44.495 1 45 C-0.81115956 43.18884044 -0.38199448 40.38721773 -0.5625 37.9375 C-0.68818359 36.28041016 -0.68818359 36.28041016 -0.81640625 34.58984375 C-0.90728516 33.30787109 -0.90728516 33.30787109 -1 32 C-1.67095703 32.86625 -1.67095703 32.86625 -2.35546875 33.75 C-2.96003906 34.4925 -3.56460937 35.235 -4.1875 36 C-4.77917969 36.7425 -5.37085938 37.485 -5.98046875 38.25 C-8 40 -8 40 -10.73828125 40.25 C-11.48464844 40.1675 -12.23101562 40.085 -13 40 C-13.37992882 36.65781368 -13.23536171 35.33045204 -11.25 32.54296875 C-8.125 29.27148438 -8.125 29.27148438 -5 26 C-9.29 25.34 -13.58 24.68 -18 24 C-18.33 22.35 -18.66 20.7 -19 19 C-18 18 -18 18 -15.05859375 17.90234375 C-13.86363281 17.91394531 -12.66867187 17.92554688 -11.4375 17.9375 C-9.64119141 17.95103516 -9.64119141 17.95103516 -7.80859375 17.96484375 C-6.88175781 17.97644531 -5.95492188 17.98804688 -5 18 C-5.5775 17.48050781 -6.155 16.96101563 -6.75 16.42578125 C-7.4925 15.72839844 -8.235 15.03101563 -9 14.3125 C-9.7425 13.62800781 -10.485 12.94351562 -11.25 12.23828125 C-13.3231932 9.58663012 -13.36795695 8.2828659 -13 5 C-10.9375 4.5625 -10.9375 4.5625 -8 5 C-5.42739828 7.12080183 -3.20745501 9.50627561 -1 12 C-1.01160156 11.21753906 -1.02320313 10.43507813 -1.03515625 9.62890625 C-1.04417969 8.61699219 -1.05320312 7.60507812 -1.0625 6.5625 C-1.07410156 5.55316406 -1.08570313 4.54382813 -1.09765625 3.50390625 C-1 1 -1 1 0 0 Z " fill="#A191B8" transform="translate(375,337)"/>
<path d="M0 0 C0.66 2.64 1.32 5.28 2 8 C3.32 6.35 4.64 4.7 6 3 C7.9375 3.3125 7.9375 3.3125 10 4 C10.495 5.485 10.495 5.485 11 7 C9.60147629 9.56121793 7.79253676 11.68281834 6 14 C11.445 14.495 11.445 14.495 17 15 C17 16.65 17 18.3 17 20 C15.33657163 21.66342837 13.2174291 21.36048097 10.9375 21.5625 C9.55884766 21.68818359 9.55884766 21.68818359 8.15234375 21.81640625 C7.44207031 21.87699219 6.73179688 21.93757813 6 22 C6.78375 22.78375 7.5675 23.5675 8.375 24.375 C10.6875 26.6875 10.6875 26.6875 13 29 C12.625 31.625 12.625 31.625 12 34 C7.59885603 33.49701212 5.28804981 31.91227269 2 29 C1.67 31.97 1.34 34.94 1 38 C-0.65614657 38.38218767 -2.32457024 38.71395102 -4 39 C-5.58272601 37.41727399 -5.34735747 35.61965997 -5.5625 33.4375 C-5.64628906 32.61121094 -5.73007813 31.78492188 -5.81640625 30.93359375 C-5.87699219 30.29550781 -5.93757813 29.65742188 -6 29 C-6.38671875 29.44472656 -6.7734375 29.88945312 -7.171875 30.34765625 C-7.69265625 30.91355469 -8.2134375 31.47945313 -8.75 32.0625 C-9.26046875 32.63097656 -9.7709375 33.19945312 -10.296875 33.78515625 C-12 35 -12 35 -14.140625 34.87109375 C-15.06101562 34.43990234 -15.06101562 34.43990234 -16 34 C-16.495 32.515 -16.495 32.515 -17 31 C-14.93976965 28.0640314 -12.45533881 25.62764328 -10 23 C-13.63 22.34 -17.26 21.68 -21 21 C-22 17 -22 17 -21 15 C-17.37 15 -13.74 15 -10 15 C-11.175625 13.9275 -12.35125 12.855 -13.5625 11.75 C-15.56640625 9.921875 -15.56640625 9.921875 -17 8 C-16.71484375 5.765625 -16.71484375 5.765625 -16 4 C-13.8125 3.6875 -13.8125 3.6875 -11 4 C-8.1875 6.5 -8.1875 6.5 -6 9 C-6 6.03 -6 3.06 -6 0 C-4 -1 -4 -1 0 0 Z " fill="#A191B8" transform="translate(88,295)"/>
<path d="M0 0 C11.10252569 1.88644684 19.83249107 8.69019962 26.85546875 17.265625 C37.99740799 33.00189473 35.65220283 52.10886953 32.6875 70.125 C32.45624224 71.58193616 32.22611035 73.03905144 31.99707031 74.49633789 C31.54586957 77.35955213 31.08972845 80.22189352 30.62841797 83.08349609 C29.80786811 88.19742804 29.02199418 93.31605134 28.25 98.4375 C28.13487061 99.1795166 28.01974121 99.9215332 27.90112305 100.68603516 C27.07615145 106.1072771 26.50590932 111.54027751 26 117 C24.34385343 117.38218767 22.67542976 117.71395102 21 118 C20 117 20 117 19.828125 113.62890625 C19.89905306 108.30575561 20.82437794 103.16820218 21.75 97.9375 C21.92756836 96.88675293 22.10513672 95.83600586 22.28808594 94.75341797 C23.17142684 89.5628199 24.10909477 84.39055767 25.15625 79.23046875 C27.2122509 68.87214898 28.40045125 58.82479232 28.5 48.25 C28.51836914 47.19119629 28.53673828 46.13239258 28.55566406 45.04150391 C28.47136459 34.37762058 25.44202753 24.821899 18 17 C12.37885106 11.89772635 5.70067073 8.47350946 -1 5 C-0.67 3.35 -0.34 1.7 0 0 Z " fill="#745C95" transform="translate(187,244)"/>
<path d="M0 0 C-0.15625 2.32421875 -0.15625 2.32421875 -1 5 C-3.40625 6.51953125 -3.40625 6.51953125 -6.5 7.8125 C-15.99740819 12.23935376 -22.96640075 18.16708939 -27 28 C-33.35306323 45.97781722 -28.0327455 67.48047274 -24.63134766 85.61621094 C-23.16258819 93.48821646 -21.81949174 101.2491486 -21.375 109.25 C-21.30023438 110.53390625 -21.22546875 111.8178125 -21.1484375 113.140625 C-21.09945313 114.08421875 -21.05046875 115.0278125 -21 116 C-22.65614657 116.38218767 -24.32457024 116.71395102 -26 117 C-27.84422848 115.15577152 -27.56811716 112.17152927 -27.8671875 109.68359375 C-28.03073456 108.35545538 -28.1943945 107.02733091 -28.3581543 105.69921875 C-28.44253754 105.00231934 -28.52692078 104.30541992 -28.61386108 103.58740234 C-29.89653029 93.02745376 -31.24644191 82.52012655 -33.38671875 72.09375 C-34.90140035 64.45280844 -35.2486559 57.03072408 -35.29516602 49.25878906 C-35.31233911 47.2686452 -35.35623985 45.27879067 -35.40039062 43.2890625 C-35.48703192 29.98629122 -32.19387406 20.53712054 -23.03515625 10.94140625 C-17.68343885 5.82195145 -7.85637635 -3.11642482 0 0 Z " fill="#735B94" transform="translate(298,245)"/>
<path d="M0 0 C1.67542976 0.28604898 3.34385343 0.61781233 5 1 C5.33 2.98 5.66 4.96 6 7 C6.86625 5.9790625 6.86625 5.9790625 7.75 4.9375 C8.4925 4.298125 9.235 3.65875 10 3 C12.25 3.25 12.25 3.25 14 4 C14.26218749 7.14624993 14.24754367 8.61837017 12.5 11.3125 C12.005 11.869375 11.51 12.42625 11 13 C13.97 13.33 16.94 13.66 20 14 C20.042721 15.66611905 20.04063832 17.33382885 20 19 C18.41727399 20.58272601 16.61965997 20.34735747 14.4375 20.5625 C13.19806641 20.68818359 13.19806641 20.68818359 11.93359375 20.81640625 C11.29550781 20.87699219 10.65742188 20.93757813 10 21 C10.44472656 21.37511719 10.88945312 21.75023438 11.34765625 22.13671875 C13.06170453 23.68678063 14.59920192 25.15956683 16 27 C15.875 29.875 15.875 29.875 15 32 C10.68607774 31.5206753 8.83430453 30.2542015 6 27 C5.67 29.97 5.34 32.94 5 36 C3.35 36 1.7 36 0 36 C-0.66 33.69 -1.32 31.38 -2 29 C-3.65 30.32 -5.3 31.64 -7 33 C-8.32 32.34 -9.64 31.68 -11 31 C-10.42647107 27.12867972 -8.51295648 24.91827204 -6 22 C-8.97 21.01 -11.94 20.02 -15 19 C-14.67 17.35 -14.34 15.7 -14 14 C-11.36 14 -8.72 14 -6 14 C-7.2684375 12.63875 -7.2684375 12.63875 -8.5625 11.25 C-11.02603251 8.32974517 -11.02603251 8.32974517 -10.8125 5.625 C-10.544375 5.08875 -10.27625 4.5525 -10 4 C-7.6875 3.75 -7.6875 3.75 -5 4 C-3.1875 6 -3.1875 6 -2 8 C-1.855625 6.865625 -1.71125 5.73125 -1.5625 4.5625 C-1 1 -1 1 0 0 Z " fill="#A191B8" transform="translate(279,58)"/>
<path d="M0 0 C3.2186267 2.1213676 4.36898801 3.20652425 5.75 6.8125 C6.44064688 11.9113498 6.32148546 15.66952908 4 20.3125 C1.39900113 23.20249874 -0.54388214 24.54572521 -4.3984375 25.1484375 C-9.8430041 25.24395621 -12.99878427 24.54527479 -17.25 20.8125 C-19.83658398 16.57829745 -19.77825648 12.64227356 -19.25 7.8125 C-17.92859682 3.84829046 -16.95331341 2.29203187 -13.5 -0.0625 C-8.53227052 -1.78209867 -4.94379235 -1.80638567 0 0 Z " fill="#E4E0EA" transform="translate(234.25,118.1875)"/>
<path d="M0 0 C6.80671961 1.38912645 11.14148753 6.19505857 15.0625 11.625 C18.10745184 16.48376575 19.27705672 19.80721204 19.0625 25.625 C10.05541476 26.0364912 2.1751281 26.13786984 -4.9375 20.0625 C-8.04403079 16.2764156 -8.34321932 13.75190728 -8.28125 8.95703125 C-7.56268114 4.08219477 -4.926315 1.04815213 0 0 Z " fill="#6F5691" transform="translate(208.9375,374.375)"/>
<path d="M0 0 C2.69990662 1.79993774 4.5418865 3.083773 6 6 C6.60446507 10.87889662 6.86309535 14.71927787 4.0625 18.875 C-4.2717017 24.65791546 -10.87267516 25.56349875 -21 25 C-21.52542162 17.63315109 -18.13747098 12.85815835 -14 7 C-10.07450913 2.50188474 -6.3548998 -1.55341995 0 0 Z " fill="#6F5791" transform="translate(277,375)"/>
<path d="M0 0 C7.0728918 0.15375852 11.78342098 3.37697405 17 8 C21.43018986 13.0898321 24.94454433 18.2714701 26 25 C25.625 27.9375 25.625 27.9375 25 30 C23.125 29.75 23.125 29.75 21 29 C19.75 26.9375 19.75 26.9375 19 25 C18.484375 25.495 17.96875 25.99 17.4375 26.5 C14.00863886 28.61006839 11.95779649 28.62491523 8 28 C4.58331538 25.14256811 2.15567285 21.71240136 1.75 17.25 C2.03551056 13.53836266 3.16730175 11.20722194 5 8 C3.02 6.68 1.04 5.36 -1 4 C-0.67 2.68 -0.34 1.36 0 0 Z " fill="#715993" transform="translate(175,252)"/>
<path d="M0 0 C0.33 1.32 0.66 2.64 1 4 C-3.75 7 -3.75 7 -6 7 C-5.34 8.03125 -4.68 9.0625 -4 10.125 C-2.03861481 13.6064587 -1.31117413 15.953148 -2 20 C-4.03993908 23.6578218 -5.50419262 25.66946174 -9 28 C-12.52295483 28.37478243 -14.34881863 28.41127245 -17.375 26.5 C-18.179375 25.7575 -18.179375 25.7575 -19 25 C-20.485 27.475 -20.485 27.475 -22 30 C-23.32 29.67 -24.64 29.34 -26 29 C-25.46136597 19.12504284 -21.1718418 12.44920949 -14.05078125 5.73046875 C-9.79471085 2.13915601 -5.82745709 -0.70635843 0 0 Z " fill="#705892" transform="translate(309,252)"/>
<path d="M0 0 C2.79659888 2.18271132 3.76939596 3.66006916 4.37109375 7.15625 C4.5972908 11.26892363 4.34475039 13.44839938 2.125 17 C-1.14840013 20.08084718 -3.46126475 20.33387487 -7.9609375 20.29296875 C-11.13134567 19.83745033 -12.8192402 18.24684343 -15 16 C-16.73007568 12.53984865 -16.4835273 8.78327445 -16 5 C-12.01229156 -1.60034501 -6.98748958 -1.79101718 0 0 Z " fill="#D5CEDF" transform="translate(341,403)"/>
<path d="M0 0 C0.66 0 1.32 0 2 0 C2.99 5.61 3.98 11.22 5 17 C6.60875 17.12375 8.2175 17.2475 9.875 17.375 C14.75 17.75 14.75 17.75 17 20 C15.72942818 20.47985967 14.45853152 20.9588593 13.1875 21.4375 C12.47980469 21.70433594 11.77210938 21.97117187 11.04296875 22.24609375 C9.37327604 22.86225186 7.68842296 23.43719235 6 24 C5.01 29.61 4.02 35.22 3 41 C2.34 41 1.68 41 1 41 C0.49645133 38.56318413 -0.00296756 36.12564561 -0.5 33.6875 C-0.64308594 32.99720703 -0.78617188 32.30691406 -0.93359375 31.59570312 C-1.52625044 28.67475227 -2 25.98891878 -2 23 C-5.63 22.34 -9.26 21.68 -13 21 C-13 20.34 -13 19.68 -13 19 C-5.375 17 -5.375 17 -2 17 C-1.34 11.39 -0.68 5.78 0 0 Z " fill="#B9ADCA" transform="translate(153,372)"/>
<path d="M0 0 C0.66 0.33 1.32 0.66 2 1 C3.58470855 6.19432248 4.28533749 11.57858775 4 17 C5.051875 16.95875 6.10375 16.9175 7.1875 16.875 C10.74010173 16.99147875 12.84866641 17.47208068 16 19 C15.67 19.66 15.34 20.32 15 21 C12.71484375 21.6328125 12.71484375 21.6328125 9.9375 22.125 C9.01839844 22.29257813 8.09929687 22.46015625 7.15234375 22.6328125 C6.44207031 22.75398438 5.73179687 22.87515625 5 23 C4.95101562 23.71285156 4.90203125 24.42570312 4.8515625 25.16015625 C4.41871477 30.70508491 3.75971184 35.72086449 2 41 C0.05116862 38.07675293 -0.48079727 36.48916982 -1.125 33.125 C-1.29257813 32.28195313 -1.46015625 31.43890625 -1.6328125 30.5703125 C-1.99878845 28.00848085 -2.06482904 25.58390011 -2 23 C-2.78246094 22.87882812 -3.56492188 22.75765625 -4.37109375 22.6328125 C-5.38300781 22.46523437 -6.39492187 22.29765625 -7.4375 22.125 C-8.95150391 21.88136719 -8.95150391 21.88136719 -10.49609375 21.6328125 C-11.32238281 21.42398438 -12.14867187 21.21515625 -13 21 C-13.33 20.34 -13.66 19.68 -14 19 C-9.84055256 17.69507531 -6.34963091 16.87980295 -2 17 C-1.90912109 15.41058594 -1.90912109 15.41058594 -1.81640625 13.7890625 C-1.73199873 12.40102779 -1.64735083 11.01300768 -1.5625 9.625 C-1.52318359 8.92632812 -1.48386719 8.22765625 -1.44335938 7.5078125 C-1.11328125 2.2265625 -1.11328125 2.2265625 0 0 Z " fill="#B9ADCA" transform="translate(202,50)"/>
<path d="M0 0 C0.66 0.33 1.32 0.66 2 1 C2.62669199 3.16467461 3.15427374 5.35864524 3.625 7.5625 C3.88539063 8.76003906 4.14578125 9.95757812 4.4140625 11.19140625 C4.60742188 12.11824219 4.80078125 13.04507812 5 14 C7.64 14.33 10.28 14.66 13 15 C13 15.99 13 16.98 13 18 C11.72125 18.2475 10.4425 18.495 9.125 18.75 C6.8416882 19.43907523 6.8416882 19.43907523 5 21 C3.98820777 24.12696132 3.62909391 27.01425037 3.3515625 30.28515625 C3 33 3 33 1 35 C0.72349609 33.42798828 0.72349609 33.42798828 0.44140625 31.82421875 C-0.79775372 24.17925994 -0.79775372 24.17925994 -5.26953125 18.3359375 C-7.55096455 17.62456145 -9.61904158 17.16788809 -12 17 C-9 15 -9 15 -3 14 C-2.01 9.38 -1.02 4.76 0 0 Z " fill="#B9ADCA" transform="translate(417,280)"/>
<path d="M0 0 C1.9375 1.0625 1.9375 1.0625 3 3 C3.98586223 6.80261145 4.29822018 9.14261699 3 12.875 C1 15 1 15 -2.4375 15.9375 C-7.39705882 16.0245098 -7.39705882 16.0245098 -10 14 C-12.09679403 11.30412197 -11.99510821 9.907056 -11.8125 6.4375 C-11 3 -11 3 -9.9375 1.0625 C-6.74497633 -0.68823879 -3.54677411 -0.52572226 0 0 Z " fill="#D5CEDF" transform="translate(144,125)"/>
<path d="M0 0 C2.09765625 0.375 2.09765625 0.375 4.16015625 1.875 C5.50468344 5.46040584 5.90697262 8.60589803 5.09765625 12.375 C3.03515625 14.9375 3.03515625 14.9375 0.09765625 16.375 C-3.36993317 16.31521398 -5.79061124 15.98465977 -8.83984375 14.3125 C-10.59293587 11.11568496 -10.38901507 7.88044411 -9.90234375 4.375 C-8.09470237 -0.44537702 -4.62330627 -0.24056228 0 0 Z " fill="#E4E0EA" transform="translate(149.90234375,319.625)"/>
<path d="M0 0 C1.9375 1.0625 1.9375 1.0625 3 3 C3.75471698 9.79245283 3.75471698 9.79245283 1.4375 13.5 C-1.94888329 15.58392818 -4.09385318 15.55802097 -8 15 C-10.4375 13.5 -10.4375 13.5 -12 11 C-12.61014545 8.1910285 -12.65360928 5.80363979 -12 3 C-8.3655827 -1.51548816 -5.40521016 -1.50144727 0 0 Z " fill="#D5CEDF" transform="translate(107,373)"/>
<path d="M0 0 C2.375 1.625 2.375 1.625 4 4 C4.61195145 7.6717087 4.48706506 9.28813568 2.375 12.375 C-0.71186432 14.48706506 -2.3282913 14.61195145 -6 14 C-8.4375 12.4375 -8.4375 12.4375 -10 10 C-9.93866496 6.5039028 -9.65265114 4.06485186 -7.8125 1.0625 C-5.04411529 -0.56034621 -3.14454533 -0.44922076 0 0 Z " fill="#D5CEDF" transform="translate(348,133)"/>
<path d="M0 0 C3 0.5625 3 0.5625 5.375 2.1875 C7.48706506 5.27436432 7.61195145 6.8907913 7 10.5625 C5.375 12.9375 5.375 12.9375 3 14.5625 C-1.10777749 15.06549316 -2.50875983 14.88999345 -6 12.5625 C-7.16377498 8.45049509 -7.46887051 6.44397656 -5.4375 2.625 C-3 0.5625 -3 0.5625 0 0 Z " fill="#D5CEDF" transform="translate(50,227.4375)"/>
<path d="M0 0 C3.4375 0.8125 3.4375 0.8125 5.4375 3.8125 C4.98466981 10.26533019 4.98466981 10.26533019 2.4375 12.8125 C-3.70481015 13.4825702 -3.70481015 13.4825702 -6.5625 11.25 C-7.99385511 7.76107191 -7.496466 5.41494028 -6.5625 1.8125 C-3.5625 -0.1875 -3.5625 -0.1875 0 0 Z " fill="#E9E6EE" transform="translate(333.5625,61.1875)"/>
<path d="M0 0 C3.5 0.4375 3.5 0.4375 5.4375 1.5625 C6.98724515 4.29734439 6.82162076 6.3499407 6.5 9.4375 C4.5 12.4375 4.5 12.4375 1.625 13.25 C-1.5 13.4375 -1.5 13.4375 -3.8125 12.9375 C-5.5 11.4375 -5.5 11.4375 -6.4375 8.0625 C-6.5 4.4375 -6.5 4.4375 -5.5 2 C-3.5 0.4375 -3.5 0.4375 0 0 Z " fill="#E9E6EE" transform="translate(287.5,138.5625)"/>
<path d="M0 0 C3.5 0.4375 3.5 0.4375 5.4375 1.5625 C6.98724515 4.29734439 6.82162076 6.3499407 6.5 9.4375 C4.5 12.4375 4.5 12.4375 1.625 13.25 C-1.5 13.4375 -1.5 13.4375 -3.8125 12.9375 C-5.5 11.4375 -5.5 11.4375 -6.4375 8.0625 C-6.5 4.4375 -6.5 4.4375 -5.5 2 C-3.5 0.4375 -3.5 0.4375 0 0 Z " fill="#E9E6EE" transform="translate(152.5,58.5625)"/>
<path d="M0 0 C1.875 -0.36328125 1.875 -0.36328125 4 -0.3125 C4.70125 -0.30863281 5.4025 -0.30476563 6.125 -0.30078125 C8 0 8 0 10 2 C10.67973856 9.1372549 10.67973856 9.1372549 8.375 12.0625 C5.19296594 13.31856608 3.25787048 12.92070253 0 12 C-2 10 -2 10 -2.25 6.5625 C-2 3 -2 3 0 0 Z " fill="#E9E6EE" transform="translate(336,314)"/>
<path d="M0 0 C2.31 0 4.62 0 7 0 C8.32841008 5.43440487 8.32841008 5.43440487 6.875 7.9375 C5 9 5 9 2.375 8.75 C0 8 0 8 -1 7 C-0.71269945 4.66055264 -0.38063221 2.3260857 0 0 Z " fill="#8A76A6" transform="translate(438,125)"/>
<path d="M0 0 C2.875 -0.125 2.875 -0.125 6 0 C8 2 8 2 8.3125 4.5 C8.1578125 5.7375 8.1578125 5.7375 8 7 C5 9 5 9 1.8125 8.625 C0.4203125 8.315625 0.4203125 8.315625 -1 8 C-1.125 2.25 -1.125 2.25 0 0 Z " fill="#8A76A6" transform="translate(103,52)"/>
<path d="M0 0 C2.31 0.33 4.62 0.66 7 1 C7.33 2.98 7.66 4.96 8 7 C5 9 5 9 1.8125 8.625 C0.4203125 8.315625 0.4203125 8.315625 -1 8 C-1.125 2.25 -1.125 2.25 0 0 Z " fill="#8A76A6" transform="translate(125,38)"/>
<path d="M0 0 C2.875 -0.125 2.875 -0.125 6 0 C6.66 0.66 7.32 1.32 8 2 C7.625 5.125 7.625 5.125 7 8 C4.6875 8.625 4.6875 8.625 2 9 C1.01 8.34 0.02 7.68 -1 7 C-0.67 4.69 -0.34 2.38 0 0 Z " fill="#8A76A6" transform="translate(178,457)"/>
<path d="M0 0 C1.2375 0.1546875 1.2375 0.1546875 2.5 0.3125 C4.5 3.3125 4.5 3.3125 4.125 6 C3.91875 6.763125 3.7125 7.52625 3.5 8.3125 C0.625 8.9375 0.625 8.9375 -2.5 9.3125 C-4.5 7.3125 -4.5 7.3125 -4.75 4.8125 C-4.40047575 1.3172575 -3.47557682 0.4344471 0 0 Z " fill="#8A76A6" transform="translate(320.5,452.6875)"/>
<path d="M0 0 C1.2375 0.1546875 1.2375 0.1546875 2.5 0.3125 C4.5 3.3125 4.5 3.3125 4.125 6 C3.91875 6.763125 3.7125 7.52625 3.5 8.3125 C0.625 8.9375 0.625 8.9375 -2.5 9.3125 C-4.5 7.3125 -4.5 7.3125 -4.75 4.8125 C-4.40047575 1.3172575 -3.47557682 0.4344471 0 0 Z " fill="#8A76A6" transform="translate(332.5,448.6875)"/>
<path d="M0 0 C1.2375 0.1546875 1.2375 0.1546875 2.5 0.3125 C4.5 3.3125 4.5 3.3125 4.125 6 C3.91875 6.763125 3.7125 7.52625 3.5 8.3125 C0.625 8.9375 0.625 8.9375 -2.5 9.3125 C-4.5 7.3125 -4.5 7.3125 -4.75 4.8125 C-4.40047575 1.3172575 -3.47557682 0.4344471 0 0 Z " fill="#8A76A6" transform="translate(344.5,443.6875)"/>
<path d="M0 0 C2.33944736 0.28730055 4.6739143 0.61936779 7 1 C7.625 3.3125 7.625 3.3125 8 6 C7.01 7.485 7.01 7.485 6 9 C3.03 8.505 3.03 8.505 0 8 C-0.38063221 5.6739143 -0.71269945 3.33944736 -1 1 C-0.67 0.67 -0.34 0.34 0 0 Z " fill="#8A76A6" transform="translate(130,440)"/>
<path d="M0 0 C1.98 0 3.96 0 6 0 C6 0.66 6 1.32 6 2 C6.66 2 7.32 2 8 2 C8.1875 4.375 8.1875 4.375 8 7 C5 9 5 9 1.8125 8.625 C0.4203125 8.315625 0.4203125 8.315625 -1 8 C-1.125 2.25 -1.125 2.25 0 0 Z " fill="#8A76A6" transform="translate(69,394)"/>
<path d="M0 0 C1.2375 0.1546875 1.2375 0.1546875 2.5 0.3125 C4.5 3.3125 4.5 3.3125 4.125 6 C3.91875 6.763125 3.7125 7.52625 3.5 8.3125 C0.625 8.9375 0.625 8.9375 -2.5 9.3125 C-4.5 7.3125 -4.5 7.3125 -4.75 4.8125 C-4.40047575 1.3172575 -3.47557682 0.4344471 0 0 Z " fill="#8A76A6" transform="translate(451.5,147.6875)"/>
<path d="M0 0 C2.33944736 0.28730055 4.6739143 0.61936779 7 1 C7.625 3.3125 7.625 3.3125 8 6 C7.01 7.485 7.01 7.485 6 9 C3.03 8.505 3.03 8.505 0 8 C-0.38063221 5.6739143 -0.71269945 3.33944736 -1 1 C-0.67 0.67 -0.34 0.34 0 0 Z " fill="#8A76A6" transform="translate(38,130)"/>
<path d="M0 0 C1.98 0 3.96 0 6 0 C6 0.66 6 1.32 6 2 C6.66 2 7.32 2 8 2 C8.1875 4.375 8.1875 4.375 8 7 C5 9 5 9 1.8125 8.625 C0.4203125 8.315625 0.4203125 8.315625 -1 8 C-1.125 2.25 -1.125 2.25 0 0 Z " fill="#8A76A6" transform="translate(93,60)"/>
<path d="M0 0 C3.125 0.375 3.125 0.375 6 1 C6.625 3.875 6.625 3.875 7 7 C5 9 5 9 2.5 9.25 C0 9 0 9 -2 7 C-2.25 4.5 -2.25 4.5 -2 2 C-1.34 1.34 -0.68 0.68 0 0 Z " fill="#8A76A6" transform="translate(349,36)"/>
<path d="M0 0 C1.2684375 0.12375 1.2684375 0.12375 2.5625 0.25 C4.5625 3.25 4.5625 3.25 4.1875 5.9375 C3.98125 6.700625 3.775 7.46375 3.5625 8.25 C-2.1875 9.375 -2.1875 9.375 -4.4375 8.25 C-3.43230397 0.35203118 -3.43230397 0.35203118 0 0 Z " fill="#8A76A6" transform="translate(139.4375,31.75)"/>
<path d="M0 0 C1.2375 0.1546875 1.2375 0.1546875 2.5 0.3125 C4.5 3.3125 4.5 3.3125 4.125 6 C3.91875 6.763125 3.7125 7.52625 3.5 8.3125 C0.625 8.9375 0.625 8.9375 -2.5 9.3125 C-4.5 7.3125 -4.5 7.3125 -4.75 4.8125 C-4.40047575 1.3172575 -3.47557682 0.4344471 0 0 Z " fill="#8A76A6" transform="translate(151.5,26.6875)"/>
<path d="M0 0 C0.6875 2.3125 0.6875 2.3125 1 5 C-0.125 6.8125 -0.125 6.8125 -2 8 C-4.6875 8.1875 -4.6875 8.1875 -7 8 C-8.35439668 5.29120665 -8.06501451 2.99066732 -8 0 C-5.13822943 -1.43088528 -3.06624227 -0.59991697 0 0 Z " fill="#8A76A6" transform="translate(115,428)"/>
<path d="M0 0 C3.0625 0.1875 3.0625 0.1875 5.0625 2.1875 C4.73278521 5.48464793 4.4398161 6.8101839 2.0625 9.1875 C-0.5625 8.8125 -0.5625 8.8125 -2.9375 8.1875 C-3.31813221 5.8614143 -3.65019945 3.52694736 -3.9375 1.1875 C-2.9375 0.1875 -2.9375 0.1875 0 0 Z " fill="#8A76A6" transform="translate(55.9375,373.8125)"/>
<path d="M0 0 C3.125 0.375 3.125 0.375 6 1 C6.625 3.3125 6.625 3.3125 7 6 C6.01 7.485 6.01 7.485 5 9 C-0.875 8.125 -0.875 8.125 -2 7 C-2.1875 4.5625 -2.1875 4.5625 -2 2 C-1.34 1.34 -0.68 0.68 0 0 Z " fill="#8A76A6" transform="translate(446,335)"/>
<path d="M0 0 C1.2684375 0.12375 1.2684375 0.12375 2.5625 0.25 C4.5625 3.25 4.5625 3.25 4.1875 5.9375 C3.98125 6.700625 3.775 7.46375 3.5625 8.25 C1.5825 8.58 -0.3975 8.91 -2.4375 9.25 C-4.4375 6.25 -4.4375 6.25 -4.125 3.625 C-3.16976704 0.32510431 -3.16976704 0.32510431 0 0 Z " fill="#8A76A6" transform="translate(32.4375,328.75)"/>
<path d="M0 0 C2.4375 0.8125 2.4375 0.8125 4.4375 2.8125 C4.0625 5.4375 4.0625 5.4375 3.4375 7.8125 C0.15053767 8.61203138 -1.27273192 8.90908936 -4.5625 7.8125 C-5.25 5.5 -5.25 5.5 -5.5625 2.8125 C-3.93062878 0.09271463 -3.17771033 -0.23251539 0 0 Z " fill="#8A76A6" transform="translate(27.5625,165.1875)"/>
<path d="M0 0 C3.125 0.375 3.125 0.375 6 1 C6.625 3.3125 6.625 3.3125 7 6 C6.01 7.485 6.01 7.485 5 9 C-0.875 8.125 -0.875 8.125 -2 7 C-2.1875 4.5625 -2.1875 4.5625 -2 2 C-1.34 1.34 -0.68 0.68 0 0 Z " fill="#8A76A6" transform="translate(29,153)"/>
<path d="M0 0 C1.2375 0.1546875 1.2375 0.1546875 2.5 0.3125 C4.5 3.3125 4.5 3.3125 4.125 6 C3.91875 6.763125 3.7125 7.52625 3.5 8.3125 C1.1875 8.9375 1.1875 8.9375 -1.5 9.3125 C-2.49 8.6525 -3.48 7.9925 -4.5 7.3125 C-4.8125 4.8125 -4.8125 4.8125 -4.5 2.3125 C-2.5 0.3125 -2.5 0.3125 0 0 Z " fill="#8A76A6" transform="translate(446.5,135.6875)"/>
<path d="M0 0 C1.9375 0.75 1.9375 0.75 3.9375 2.75 C3.5625 5.875 3.5625 5.875 2.9375 8.75 C0.0625 8.875 0.0625 8.875 -3.0625 8.75 C-5.0625 6.75 -5.0625 6.75 -5.375 4.25 C-5.271875 3.425 -5.16875 2.6 -5.0625 1.75 C-2.0625 -0.25 -2.0625 -0.25 0 0 Z " fill="#8A76A6" transform="translate(48.0625,118.25)"/>
<path d="M0 0 C2 3 2 3 1.625 5.6875 C1.41875 6.450625 1.2125 7.21375 1 8 C-1.3125 8.625 -1.3125 8.625 -4 9 C-4.99 8.34 -5.98 7.68 -7 7 C-7.1875 3.875 -7.1875 3.875 -7 1 C-4.46578263 -0.26710868 -2.80561762 -0.28056176 0 0 Z " fill="#8A76A6" transform="translate(64,97)"/>
<path d="M0 0 C2.375 0.6875 2.375 0.6875 3.375 1.6875 C3.08769945 4.02694736 2.75563221 6.3614143 2.375 8.6875 C0.065 8.6875 -2.245 8.6875 -4.625 8.6875 C-4.955 6.3775 -5.285 4.0675 -5.625 1.6875 C-2.625 -0.3125 -2.625 -0.3125 0 0 Z " fill="#8A76A6" transform="translate(374.625,49.3125)"/>
<path d="M0 0 C1.9375 0.6875 1.9375 0.6875 3.9375 1.6875 C3.6075 3.9975 3.2775 6.3075 2.9375 8.6875 C0.0625 8.8125 0.0625 8.8125 -3.0625 8.6875 C-5.0625 6.6875 -5.0625 6.6875 -5.375 4.1875 C-5.271875 3.3625 -5.16875 2.5375 -5.0625 1.6875 C-2.0625 -0.3125 -2.0625 -0.3125 0 0 Z " fill="#8A76A6" transform="translate(363.0625,42.3125)"/>
<path d="M0 0 C1.2684375 0.12375 1.2684375 0.12375 2.5625 0.25 C4.5625 3.25 4.5625 3.25 4.1875 5.9375 C3.98125 6.700625 3.775 7.46375 3.5625 8.25 C1.5825 8.58 -0.3975 8.91 -2.4375 9.25 C-4.4375 6.25 -4.4375 6.25 -4.125 3.625 C-3.16976704 0.32510431 -3.16976704 0.32510431 0 0 Z " fill="#8A76A6" transform="translate(163.4375,22.75)"/>
<path d="M0 0 C2.875 -0.125 2.875 -0.125 6 0 C8 2 8 2 8.3125 4.5 C8.1578125 5.7375 8.1578125 5.7375 8 7 C5 9 5 9 2.3125 8.625 C1.549375 8.41875 0.78625 8.2125 0 8 C-0.79953138 4.71303767 -1.09658936 3.28976808 0 0 Z " fill="#8A76A6" transform="translate(384,417)"/>
<path d="M0 0 C2.875 -0.125 2.875 -0.125 6 0 C6.66 0.66 7.32 1.32 8 2 C7.625 5.125 7.625 5.125 7 8 C4.36 8 1.72 8 -1 8 C-1.125 2.25 -1.125 2.25 0 0 Z " fill="#8A76A6" transform="translate(46,363)"/>
<path d="M0 0 C3 0.25 3 0.25 5 2.25 C4.44444444 6.80555556 4.44444444 6.80555556 3 8.25 C1.00041636 8.29080783 -1.00045254 8.29254356 -3 8.25 C-3.66 6.27 -4.32 4.29 -5 2.25 C-3 0.25 -3 0.25 0 0 Z " fill="#8A76A6" transform="translate(457,311.75)"/>
<path d="M0 0 C2.375 0.375 2.375 0.375 3.375 1.375 C3.625 4.3125 3.625 4.3125 3.375 7.375 C0.375 9.375 0.375 9.375 -2.3125 9 C-3.075625 8.79375 -3.83875 8.5875 -4.625 8.375 C-5.625 5.375 -5.625 5.375 -4.5 2.6875 C-2.625 0.375 -2.625 0.375 0 0 Z " fill="#8A76A6" transform="translate(456.625,159.625)"/>
<path d="M0 0 C0 2.31 0 4.62 0 7 C-1.98 7.33 -3.96 7.66 -6 8 C-7.5625 5.6875 -7.5625 5.6875 -9 3 C-8.67 2.01 -8.34 1.02 -8 0 C-5.13822943 -1.43088528 -3.06624227 -0.59991697 0 0 Z " fill="#8A76A6" transform="translate(40,142)"/>
<path d="M0 0 C2.625 0.5625 2.625 0.5625 5 2 C5.9375 4.5 5.9375 4.5 6 7 C5.34 7.66 4.68 8.32 4 9 C0.375 8.625 0.375 8.625 -3 8 C-3.1875 5.125 -3.1875 5.125 -3 2 C-2.01 1.34 -1.02 0.68 0 0 Z " fill="#8A76A6" transform="translate(429,369)"/>
<path d="M0 0 C2 3 2 3 1.75 5.0625 C1 7 1 7 -1 9 C-3.26274788 8.64644564 -4.95088852 8.02455574 -7 7 C-7 5.02 -7 3.04 -7 1 C-4.46578263 -0.26710868 -2.80561762 -0.28056176 0 0 Z " fill="#8A76A6" transform="translate(72,87)"/>
<path d="M0 0 C1.2065625 0.0309375 1.2065625 0.0309375 2.4375 0.0625 C2.4375 0.7225 2.4375 1.3825 2.4375 2.0625 C3.0975 2.0625 3.7575 2.0625 4.4375 2.0625 C4.5625 4.4375 4.5625 4.4375 4.4375 7.0625 C2.4375 9.0625 2.4375 9.0625 -0.6875 9.1875 C-2.110625 9.125625 -2.110625 9.125625 -3.5625 9.0625 C-3.66015625 2.91015625 -3.66015625 2.91015625 -3.5625 1.0625 C-2.5625 0.0625 -2.5625 0.0625 0 0 Z " fill="#8A76A6" transform="translate(77.5625,76.9375)"/>
<path d="M0 0 C3.125 0.375 3.125 0.375 6 1 C6.625 3.3125 6.625 3.3125 7 6 C6.01 7.485 6.01 7.485 5 9 C2.375 9.1875 2.375 9.1875 0 9 C-0.66 6.69 -1.32 4.38 -2 2 C-1.34 1.34 -0.68 0.68 0 0 Z " fill="#8A76A6" transform="translate(337,31)"/>
<path d="M0 0 C5.56818182 0.56818182 5.56818182 0.56818182 7 2 C7.04080783 3.99958364 7.04254356 6.00045254 7 8 C4.6875 8.625 4.6875 8.625 2 9 C-1 7 -1 7 -1.8125 4.5 C-1.874375 3.675 -1.93625 2.85 -2 2 C-1.34 1.34 -0.68 0.68 0 0 Z " fill="#8A76A6" transform="translate(325,26)"/>
<path d="M0 0 C3.125 -0.1875 3.125 -0.1875 6 0 C7.125 2.3125 7.125 2.3125 8 5 C7.01 6.485 7.01 6.485 6 8 C2.875 8.1875 2.875 8.1875 0 8 C-1.125 5.6875 -1.125 5.6875 -2 3 C-1.34 2.01 -0.68 1.02 0 0 Z " fill="#8A76A6" transform="translate(229,464)"/>
<path d="M0 0 C0.763125 0.20625 1.52625 0.4125 2.3125 0.625 C2.6425 2.605 2.9725 4.585 3.3125 6.625 C0.95811267 8.05444945 -0.16782433 8.71161261 -2.9375 8.25 C-3.515 8.04375 -4.0925 7.8375 -4.6875 7.625 C-5.0175 5.645 -5.3475 3.665 -5.6875 1.625 C-2.6875 -0.375 -2.6875 -0.375 0 0 Z " fill="#8A76A6" transform="translate(271.6875,463.375)"/>
<path d="M0 0 C1.99954746 -0.04254356 4.00041636 -0.04080783 6 0 C7 1 7 1 7.125 4 C7 7 7 7 6 8 C3.66702567 8.04092937 1.33294775 8.04241723 -1 8 C-1.93065133 5.39417629 -2.14917407 4.35801776 -1.0625 1.75 C-0.711875 1.1725 -0.36125 0.595 0 0 Z " fill="#8A76A6" transform="translate(293,460)"/>
<path d="M0 0 C1.670625 0.061875 1.670625 0.061875 3.375 0.125 C3.41741723 2.45794775 3.41592937 4.79202567 3.375 7.125 C2.375 8.125 2.375 8.125 -0.6875 8.1875 C-1.656875 8.166875 -2.62625 8.14625 -3.625 8.125 C-4.285 6.145 -4.945 4.165 -5.625 2.125 C-3.625 0.125 -3.625 0.125 0 0 Z " fill="#8A76A6" transform="translate(194.625,459.875)"/>
<path d="M0 0 C1 1 1 1 1.0625 4.0625 C1.041875 5.031875 1.02125 6.00125 1 7 C-0.98 7.33 -2.96 7.66 -5 8 C-6.5625 5.6875 -6.5625 5.6875 -8 3 C-7.67 2.01 -7.34 1.02 -7 0 C-4.31633121 -1.3418344 -2.84719317 -0.73004953 0 0 Z " fill="#8A76A6" transform="translate(148,446)"/>
<path d="M0 0 C2.31 0 4.62 0 7 0 C7.33 2.31 7.66 4.62 8 7 C6.35 7.66 4.7 8.32 3 9 C0.9375 7.3125 0.9375 7.3125 -1 5 C-0.75 2.25 -0.75 2.25 0 0 Z " fill="#8A76A6" transform="translate(374,425)"/>
<path d="M0 0 C1.98 0 3.96 0 6 0 C6.33 2.31 6.66 4.62 7 7 C6.34 7 5.68 7 5 7 C5 7.66 5 8.32 5 9 C3.33388095 9.042721 1.66617115 9.04063832 0 9 C-1 8 -1 8 -1.125 5.0625 C-1 2 -1 2 0 0 Z " fill="#8A76A6" transform="translate(61,384)"/>
<path d="M0 0 C1.1446875 0.3403125 1.1446875 0.3403125 2.3125 0.6875 C2.9375 3 2.9375 3 3.3125 5.6875 C2.3225 7.1725 2.3225 7.1725 1.3125 8.6875 C-1.6575 8.1925 -1.6575 8.1925 -4.6875 7.6875 C-5.375 5.375 -5.375 5.375 -5.6875 2.6875 C-4.0011022 -0.12316299 -3.27764429 -0.38112143 0 0 Z " fill="#8A76A6" transform="translate(461.6875,299.3125)"/>
<path d="M0 0 C0.763125 0.20625 1.52625 0.4125 2.3125 0.625 C2.6425 2.605 2.9725 4.585 3.3125 6.625 C0.95811267 8.05444945 -0.16782433 8.71161261 -2.9375 8.25 C-3.515 8.04375 -4.0925 7.8375 -4.6875 7.625 C-5.0175 5.645 -5.3475 3.665 -5.6875 1.625 C-2.6875 -0.375 -2.6875 -0.375 0 0 Z " fill="#8A76A6" transform="translate(22.6875,292.375)"/>
<path d="M0 0 C1 1 1 1 1.0625 3.5625 C1.041875 4.366875 1.02125 5.17125 1 6 C-1.35438733 7.42944945 -2.48032433 8.08661261 -5.25 7.625 C-5.8275 7.41875 -6.405 7.2125 -7 7 C-7.93423645 3.98968256 -8.04449911 3.13349732 -7 0 C-4.31633121 -1.3418344 -2.84719317 -0.73004953 0 0 Z " fill="#8A76A6" transform="translate(470,211)"/>
<path d="M0 0 C0.125 2.875 0.125 2.875 0 6 C-0.66 6.66 -1.32 7.32 -2 8 C-5.125 7.625 -5.125 7.625 -8 7 C-8.6875 4.6875 -8.6875 4.6875 -9 2 C-6.73607469 -1.99516231 -4.01344788 -0.98106504 0 0 Z " fill="#8A76A6" transform="translate(25,191)"/>
<path d="M0 0 C1.99954746 -0.04254356 4.00041636 -0.04080783 6 0 C7 1 7 1 7.0625 4.5625 C7.041875 5.696875 7.02125 6.83125 7 8 C4.69 8 2.38 8 0 8 C-1.125 6.25 -1.125 6.25 -2 4 C-1.125 1.75 -1.125 1.75 0 0 Z " fill="#8A76A6" transform="translate(460,185)"/>
<path d="M0 0 C2.375 0.75 2.375 0.75 3.375 1.75 C3.41580783 3.74958364 3.41754356 5.75045254 3.375 7.75 C0.08803767 8.54953138 -1.33523192 8.84658936 -4.625 7.75 C-5.3125 5.4375 -5.3125 5.4375 -5.625 2.75 C-3.9659358 -0.015107 -3.22812218 -0.30744021 0 0 Z " fill="#8A76A6" transform="translate(316.625,22.25)"/>
<path d="M0 0 C2.97 0.495 2.97 0.495 6 1 C6.93065133 3.60582371 7.14917407 4.64198224 6.0625 7.25 C5.711875 7.8275 5.36125 8.405 5 9 C2.03 8.505 2.03 8.505 -1 8 C-1.625 5.6875 -1.625 5.6875 -2 3 C-1.34 2.01 -0.68 1.02 0 0 Z " fill="#8A76A6" transform="translate(301,19)"/>
<path d="M0 0 C2.31 0 4.62 0 7 0 C7.04241723 2.33294775 7.04092937 4.66702567 7 7 C6 8 6 8 2.9375 8.0625 C1.968125 8.041875 0.99875 8.02125 0 8 C-1.125 6.25 -1.125 6.25 -2 4 C-1.125 1.75 -1.125 1.75 0 0 Z " fill="#8A76A6" transform="translate(185,17)"/>
<path d="M0 0 C3.0625 -0.25 3.0625 -0.25 6 0 C7 1 7 1 7.125 4 C7 7 7 7 6 8 C4.00041636 8.04080783 1.99954746 8.04254356 0 8 C-1.125 5.6875 -1.125 5.6875 -2 3 C-1.34 2.01 -0.68 1.02 0 0 Z " fill="#8A76A6" transform="translate(255,464)"/>
<path d="M0 0 C1.010625 0.0825 2.02125 0.165 3.0625 0.25 C5.0625 3.25 5.0625 3.25 4.75 5.375 C4.0625 7.25 4.0625 7.25 3.0625 8.25 C1.06291636 8.29080783 -0.93795254 8.29254356 -2.9375 8.25 C-3.31813221 5.9239143 -3.65019945 3.58944736 -3.9375 1.25 C-2.9375 0.25 -2.9375 0.25 0 0 Z " fill="#8A76A6" transform="translate(307.9375,456.75)"/>
<path d="M0 0 C2.9375 0.1875 2.9375 0.1875 3.9375 1.1875 C4.0625 4.1875 4.0625 4.1875 3.9375 7.1875 C2.9375 8.1875 2.9375 8.1875 -0.125 8.25 C-1.094375 8.229375 -2.06375 8.20875 -3.0625 8.1875 C-3.7225 6.2075 -4.3825 4.2275 -5.0625 2.1875 C-3.0625 0.1875 -3.0625 0.1875 0 0 Z " fill="#8A76A6" transform="translate(169.0625,453.8125)"/>
<path d="M0 0 C2.9375 0.1875 2.9375 0.1875 3.9375 1.1875 C4.0625 4.1875 4.0625 4.1875 3.9375 7.1875 C2.9375 8.1875 2.9375 8.1875 -0.125 8.25 C-1.094375 8.229375 -2.06375 8.20875 -3.0625 8.1875 C-3.7225 6.2075 -4.3825 4.2275 -5.0625 2.1875 C-3.0625 0.1875 -3.0625 0.1875 0 0 Z " fill="#8A76A6" transform="translate(157.0625,449.8125)"/>
<path d="M0 0 C1.2684375 0.12375 1.2684375 0.12375 2.5625 0.25 C4.7144437 3.47791555 4.76336443 4.53400809 4.5625 8.25 C1.6875 8.875 1.6875 8.875 -1.4375 9.25 C-3.4375 7.25 -3.4375 7.25 -3.625 4.1875 C-3.37983937 0.34665019 -3.37983937 0.34665019 0 0 Z " fill="#8A76A6" transform="translate(355.4375,437.75)"/>
<path d="M0 0 C1.4540625 0.0309375 1.4540625 0.0309375 2.9375 0.0625 C3.5625 3.4375 3.5625 3.4375 3.9375 7.0625 C3.2775 7.7225 2.6175 8.3825 1.9375 9.0625 C-0.6875 8.6875 -0.6875 8.6875 -3.0625 8.0625 C-3.44313221 5.7364143 -3.77519945 3.40194736 -4.0625 1.0625 C-3.0625 0.0625 -3.0625 0.0625 0 0 Z " fill="#8A76A6" transform="translate(367.0625,431.9375)"/>
<path d="M0 0 C3 0.125 3 0.125 4 1.125 C4.1875 4.0625 4.1875 4.0625 4 7.125 C3.34 7.785 2.68 8.445 2 9.125 C-0.26274788 8.77144564 -1.95088852 8.14955574 -4 7.125 C-4.04254356 5.12545254 -4.04080783 3.12458364 -4 1.125 C-3 0.125 -3 0.125 0 0 Z " fill="#8A76A6" transform="translate(415,389.875)"/>
<path d="M0 0 C4.55555556 0.55555556 4.55555556 0.55555556 6 2 C5.71269945 4.33944736 5.38063221 6.6739143 5 9 C2.69 8.67 0.38 8.34 -2 8 C-2.125 5.125 -2.125 5.125 -2 2 C-1.34 1.34 -0.68 0.68 0 0 Z " fill="#8A76A6" transform="translate(435,358)"/>
<path d="M0 0 C1.2684375 0.12375 1.2684375 0.12375 2.5625 0.25 C4.7144437 3.47791555 4.76336443 4.53400809 4.5625 8.25 C1.6875 8.875 1.6875 8.875 -1.4375 9.25 C-3.4375 7.25 -3.4375 7.25 -3.625 4.1875 C-3.37983937 0.34665019 -3.37983937 0.34665019 0 0 Z " fill="#8A76A6" transform="translate(42.4375,351.75)"/>
<path d="M0 0 C2.31 0 4.62 0 7 0 C7.33 1.98 7.66 3.96 8 6 C5 8 5 8 1.8125 7.625 C0.884375 7.41875 -0.04375 7.2125 -1 7 C-0.67 4.69 -0.34 2.38 0 0 Z " fill="#8A76A6" transform="translate(34,341)"/>
<path d="M0 0 C2.9375 0.1875 2.9375 0.1875 3.9375 1.1875 C4.0625 4.1875 4.0625 4.1875 3.9375 7.1875 C2.9375 8.1875 2.9375 8.1875 -0.125 8.25 C-1.094375 8.229375 -2.06375 8.20875 -3.0625 8.1875 C-3.7225 6.2075 -4.3825 4.2275 -5.0625 2.1875 C-3.0625 0.1875 -3.0625 0.1875 0 0 Z " fill="#8A76A6" transform="translate(453.0625,323.8125)"/>
<path d="M0 0 C1.99954746 -0.04254356 4.00041636 -0.04080783 6 0 C7 1 7 1 7.125 4 C7 7 7 7 6 8 C4.00041636 8.04080783 1.99954746 8.04254356 0 8 C-1.125 6.25 -1.125 6.25 -2 4 C-1.125 1.75 -1.125 1.75 0 0 Z " fill="#8A76A6" transform="translate(25,317)"/>
<path d="M0 0 C1.010625 0.0825 2.02125 0.165 3.0625 0.25 C5.0625 3.25 5.0625 3.25 4.75 5.375 C4.0625 7.25 4.0625 7.25 3.0625 8.25 C1.06291636 8.29080783 -0.93795254 8.29254356 -2.9375 8.25 C-3.31813221 5.9239143 -3.65019945 3.58944736 -3.9375 1.25 C-2.9375 0.25 -2.9375 0.25 0 0 Z " fill="#8A76A6" transform="translate(23.9375,304.75)"/>
<path d="M0 0 C2.97 0.495 2.97 0.495 6 1 C6.93065133 3.60582371 7.14917407 4.64198224 6.0625 7.25 C5.711875 7.8275 5.36125 8.405 5 9 C2.03 8.505 2.03 8.505 -1 8 C-1.625 5.6875 -1.625 5.6875 -2 3 C-1.34 2.01 -0.68 1.02 0 0 Z " fill="#8A76A6" transform="translate(463,274)"/>
<path d="M0 0 C3.0625 -0.25 3.0625 -0.25 6 0 C7 1 7 1 7.0625 4.5625 C7.041875 5.696875 7.02125 6.83125 7 8 C4.69 8 2.38 8 0 8 C-1.125 5.6875 -1.125 5.6875 -2 3 C-1.34 2.01 -0.68 1.02 0 0 Z " fill="#8A76A6" transform="translate(14,267)"/>
<path d="M0 0 C3.0625 -0.25 3.0625 -0.25 6 0 C7 1 7 1 7.125 4 C7 7 7 7 6 8 C4.00041636 8.04080783 1.99954746 8.04254356 0 8 C-1.125 5.6875 -1.125 5.6875 -2 3 C-1.34 2.01 -0.68 1.02 0 0 Z " fill="#8A76A6" transform="translate(465,249)"/>
<path d="M0 0 C3.0625 -0.25 3.0625 -0.25 6 0 C7 1 7 1 7.125 4 C7 7 7 7 6 8 C4.00041636 8.04080783 1.99954746 8.04254356 0 8 C-1.125 5.6875 -1.125 5.6875 -2 3 C-1.34 2.01 -0.68 1.02 0 0 Z " fill="#8A76A6" transform="translate(465,236)"/>
<path d="M0 0 C3.625 -0.1875 3.625 -0.1875 7 0 C7.04241723 2.33294775 7.04092937 4.66702567 7 7 C6 8 6 8 2.9375 8.0625 C1.968125 8.041875 0.99875 8.02125 0 8 C-1.125 5.6875 -1.125 5.6875 -2 3 C-1.34 2.01 -0.68 1.02 0 0 Z " fill="#8A76A6" transform="translate(462,198)"/>
<path d="M0 0 C1.4540625 0.0309375 1.4540625 0.0309375 2.9375 0.0625 C3.73703138 3.34946233 4.03408936 4.77273192 2.9375 8.0625 C0.0625 8.1875 0.0625 8.1875 -3.0625 8.0625 C-3.7225 7.4025 -4.3825 6.7425 -5.0625 6.0625 C-4.33395709 0.0884481 -4.33395709 0.0884481 0 0 Z " fill="#8A76A6" transform="translate(24.0625,177.9375)"/>
<path d="M0 0 C1.99954746 -0.04254356 4.00041636 -0.04080783 6 0 C7 1 7 1 7.125 4 C7 7 7 7 6 8 C4.00041636 8.04080783 1.99954746 8.04254356 0 8 C-1.125 6.25 -1.125 6.25 -2 4 C-1.125 1.75 -1.125 1.75 0 0 Z " fill="#8A76A6" transform="translate(457,173)"/>
<path d="M0 0 C1.4540625 0.0309375 1.4540625 0.0309375 2.9375 0.0625 C3.5975 1.7125 4.2575 3.3625 4.9375 5.0625 C3.6175 6.3825 2.2975 7.7025 0.9375 9.0625 C-1.5375 8.0725 -1.5375 8.0725 -4.0625 7.0625 C-4.10504356 5.06295254 -4.10330783 3.06208364 -4.0625 1.0625 C-3.0625 0.0625 -3.0625 0.0625 0 0 Z " fill="#8A76A6" transform="translate(117.0625,44.9375)"/>
<path d="M0 0 C1.4540625 0.0309375 1.4540625 0.0309375 2.9375 0.0625 C3.31813221 2.3885857 3.65019945 4.72305264 3.9375 7.0625 C2.9375 8.0625 2.9375 8.0625 0 8.25 C-3.0625 8.0625 -3.0625 8.0625 -5.0625 6.0625 C-4.33395709 0.0884481 -4.33395709 0.0884481 0 0 Z " fill="#8A76A6" transform="translate(176.0625,19.9375)"/>
<path d="M0 0 C1.670625 0.061875 1.670625 0.061875 3.375 0.125 C3.5 5.875 3.5 5.875 2.375 8.125 C0.395 8.125 -1.585 8.125 -3.625 8.125 C-4.285 6.145 -4.945 4.165 -5.625 2.125 C-3.625 0.125 -3.625 0.125 0 0 Z " fill="#8A76A6" transform="translate(291.625,16.875)"/>
<path d="M0 0 C3 0.125 3 0.125 4 1.125 C4.04080783 3.12458364 4.04254356 5.12545254 4 7.125 C1.6875 8.25 1.6875 8.25 -1 9.125 C-1.99 8.465 -2.98 7.805 -4 7.125 C-4.25 4.0625 -4.25 4.0625 -4 1.125 C-3 0.125 -3 0.125 0 0 Z " fill="#8A76A6" transform="translate(239,11.875)"/>
<path d="M0 0 C2.375 0.25 2.375 0.25 3.375 1.25 C3.41592937 3.58297433 3.41741723 5.91705225 3.375 8.25 C1.065 8.25 -1.245 8.25 -3.625 8.25 C-4.285 6.6 -4.945 4.95 -5.625 3.25 C-3.7774876 0.91630013 -3.0311278 0.28867884 0 0 Z " fill="#8A76A6" transform="translate(219.625,462.75)"/>
<path d="M0 0 C2.5625 0.1875 2.5625 0.1875 4.5625 2.1875 C4.75 4.75 4.75 4.75 4.5625 7.1875 C3.5625 8.1875 3.5625 8.1875 0.625 8.375 C-2.4375 8.1875 -2.4375 8.1875 -4.4375 6.1875 C-3.71780303 0.28598485 -3.71780303 0.28598485 0 0 Z " fill="#8A76A6" transform="translate(90.4375,411.8125)"/>
<path d="M0 0 C2.33944736 0.28730055 4.6739143 0.61936779 7 1 C7.125 3.875 7.125 3.875 7 7 C6.34 7.66 5.68 8.32 5 9 C2.73725212 8.64644564 1.04911148 8.02455574 -1 7 C-1.04254356 5.00045254 -1.04080783 2.99958364 -1 1 C-0.67 0.67 -0.34 0.34 0 0 Z " fill="#8A76A6" transform="translate(420,380)"/>
<path d="M0 0 C3.125 0.375 3.125 0.375 6 1 C5.67 3.31 5.34 5.62 5 8 C0.25 9.125 0.25 9.125 -2 8 C-2.125 5.125 -2.125 5.125 -2 2 C-1.34 1.34 -0.68 0.68 0 0 Z " fill="#8A76A6" transform="translate(441,347)"/>
<path d="M0 0 C2.875 -0.125 2.875 -0.125 6 0 C6.66 0.66 7.32 1.32 8 2 C7.625 5.125 7.625 5.125 7 8 C4.125 8.125 4.125 8.125 1 8 C0.34 7.34 -0.32 6.68 -1 6 C-0.625 2.875 -0.625 2.875 0 0 Z " fill="#8A76A6" transform="translate(460,287)"/>
<path d="M0 0 C2.33294775 -0.04241723 4.66702567 -0.04092937 7 0 C8 1 8 1 8.125 4 C8 7 8 7 7 8 C4.16640458 8.2982732 2.56214622 8.35602594 0.125 6.8125 C-1 5 -1 5 -0.6875 2.3125 C-0.460625 1.549375 -0.23375 0.78625 0 0 Z " fill="#8A76A6" transform="translate(15,280)"/>
<path d="M0 0 C2.33294775 -0.04241723 4.66702567 -0.04092937 7 0 C8 1 8 1 8.125 4 C8 7 8 7 7 8 C4.625 8.3125 4.625 8.3125 2 8 C0.125 6.25 0.125 6.25 -1 4 C-0.6875 1.75 -0.6875 1.75 0 0 Z " fill="#8A76A6" transform="translate(463,262)"/>
<path d="M0 0 C3.0625 -0.25 3.0625 -0.25 6 0 C7 1 7 1 7.125 4 C7 7 7 7 6 8 C4.00041636 8.04080783 1.99954746 8.04254356 0 8 C-1.125 5.6875 -1.125 5.6875 -2 3 C-1.34 2.01 -0.68 1.02 0 0 Z " fill="#8A76A6" transform="translate(14,216)"/>
<path d="M0 0 C2.5 -0.3125 2.5 -0.3125 5 0 C7 2 7 2 7.1875 4.5625 C7 7 7 7 6 8 C3.66702567 8.04092937 1.33294775 8.04241723 -1 8 C-1.625 5.6875 -1.625 5.6875 -2 3 C-1.34 2.01 -0.68 1.02 0 0 Z " fill="#8A76A6" transform="translate(16,203)"/>
<path d="M0 0 C2.625 0.625 2.625 0.625 5 2 C5.9375 3.9375 5.9375 3.9375 6 6 C5.01 7.485 5.01 7.485 4 9 C1.69 8.67 -0.62 8.34 -3 8 C-3.1875 5.125 -3.1875 5.125 -3 2 C-2.01 1.34 -1.02 0.68 0 0 Z " fill="#8A76A6" transform="translate(53,107)"/>
<path d="M0 0 C2.31 0 4.62 0 7 0 C7.04241723 2.33294775 7.04092937 4.66702567 7 7 C6 8 6 8 3.625 8.3125 C1 8 1 8 -0.8125 6 C-1.204375 5.34 -1.59625 4.68 -2 4 C-1.34 2.68 -0.68 1.36 0 0 Z " fill="#8A76A6" transform="translate(275,15)"/>
<path d="M0 0 C2.33294775 -0.04241723 4.66702567 -0.04092937 7 0 C8 1 8 1 8.1875 3.4375 C8 6 8 6 6 8 C3.375 8.125 3.375 8.125 1 8 C-1.125 3.375 -1.125 3.375 0 0 Z " fill="#8A76A6" transform="translate(197,15)"/>
<path d="M0 0 C0.78375 0.04125 1.5675 0.0825 2.375 0.125 C3.80444945 2.47938733 4.46161261 3.60532433 4 6.375 C3.79375 6.9525 3.5875 7.53 3.375 8.125 C1.065 8.125 -1.245 8.125 -3.625 8.125 C-4.25 5.25 -4.25 5.25 -4.625 2.125 C-2.625 0.125 -2.625 0.125 0 0 Z " fill="#8A76A6" transform="translate(213.625,12.875)"/>
<path d="M0 0 C2.31 0 4.62 0 7 0 C7.625 2.3125 7.625 2.3125 8 5 C7.01 6.485 7.01 6.485 6 8 C3.375 8.1875 3.375 8.1875 1 8 C0.26919734 6.02253397 -0.39421747 4.01927511 -1 2 C-0.67 1.34 -0.34 0.68 0 0 Z " fill="#8A76A6" transform="translate(203,462)"/>
<path d="M0 0 C2.33944736 0.28730055 4.6739143 0.61936779 7 1 C7.125 3.375 7.125 3.375 7 6 C5 8 5 8 2.5 8.25 C0 8 0 8 -2 6 C-1.44444444 1.44444444 -1.44444444 1.44444444 0 0 Z " fill="#8A76A6" transform="translate(98,420)"/>
<path d="M0 0 C3.0625 -0.25 3.0625 -0.25 6 0 C7 1 7 1 7.125 4 C7 7 7 7 6 8 C3.66055264 7.71269945 1.3260857 7.38063221 -1 7 C-1.625 5.1875 -1.625 5.1875 -2 3 C-1.34 2.01 -0.68 1.02 0 0 Z " fill="#8A76A6" transform="translate(13,229)"/>
<path d="M0 0 C3.125 -0.1875 3.125 -0.1875 6 0 C6.33 2.31 6.66 4.62 7 7 C4.69 7.33 2.38 7.66 0 8 C-1.125 5.6875 -1.125 5.6875 -2 3 C-1.34 2.01 -0.68 1.02 0 0 Z " fill="#8A76A6" transform="translate(432,114)"/>
<path d="M0 0 C1.010625 0.0825 2.02125 0.165 3.0625 0.25 C5.0625 3.25 5.0625 3.25 4.75 5.375 C4.0625 7.25 4.0625 7.25 3.0625 8.25 C0.625 8.4375 0.625 8.4375 -1.9375 8.25 C-3.9375 6.25 -3.9375 6.25 -4.125 3.6875 C-3.85121288 0.1282675 -3.61900269 0.30800023 0 0 Z " fill="#8A76A6" transform="translate(419.9375,92.75)"/>
<path d="M0 0 C2.4375 0.1875 2.4375 0.1875 3.4375 1.1875 C3.47842937 3.52047433 3.47991723 5.85455225 3.4375 8.1875 C1.10455225 8.22991723 -1.22952567 8.22842937 -3.5625 8.1875 C-4.5625 7.1875 -4.5625 7.1875 -4.75 4.75 C-4.48737296 1.16076381 -3.58923619 0.26262704 0 0 Z " fill="#8A76A6" transform="translate(283.5625,461.8125)"/>
<path d="M0 0 C2.4375 0.1875 2.4375 0.1875 3.4375 1.1875 C3.47842937 3.52047433 3.47991723 5.85455225 3.4375 8.1875 C1.10455225 8.22991723 -1.22952567 8.22842937 -3.5625 8.1875 C-4.5625 7.1875 -4.5625 7.1875 -4.75 4.75 C-4.48737296 1.16076381 -3.58923619 0.26262704 0 0 Z " fill="#8A76A6" transform="translate(16.5625,253.8125)"/>
<path d="M0 0 C2.4375 0.1875 2.4375 0.1875 3.4375 1.1875 C3.5625 4.1875 3.5625 4.1875 3.4375 7.1875 C2.4375 8.1875 2.4375 8.1875 -1.125 8.25 C-2.259375 8.229375 -3.39375 8.20875 -4.5625 8.1875 C-4.6875 5.3125 -4.6875 5.3125 -4.5625 2.1875 C-2.5625 0.1875 -2.5625 0.1875 0 0 Z " fill="#8A76A6" transform="translate(468.5625,222.8125)"/>
<path d="M0 0 C1.4540625 0.0309375 1.4540625 0.0309375 2.9375 0.0625 C3.2675 2.3725 3.5975 4.6825 3.9375 7.0625 C2.2875 7.7225 0.6375 8.3825 -1.0625 9.0625 C-2.5625 7.875 -2.5625 7.875 -4.0625 6.0625 C-4.3125 3.4375 -4.3125 3.4375 -4.0625 1.0625 C-3.0625 0.0625 -3.0625 0.0625 0 0 Z " fill="#8A76A6" transform="translate(428.0625,102.9375)"/>
<path d="M0 0 C3 0.125 3 0.125 4 1.125 C4.25 4.0625 4.25 4.0625 4 7.125 C1 9.125 1 9.125 -1.1875 8.75 C-1.785625 8.54375 -2.38375 8.3375 -3 8.125 C-3.38063221 5.7989143 -3.71269945 3.46444736 -4 1.125 C-3 0.125 -3 0.125 0 0 Z " fill="#8A76A6" transform="translate(394,64.875)"/>
<path d="M0 0 C2.5 -0.3125 2.5 -0.3125 5 0 C5.66 0.66 6.32 1.32 7 2 C6.625 5.125 6.625 5.125 6 8 C3.69 8 1.38 8 -1 8 C-1.625 5.6875 -1.625 5.6875 -2 3 C-1.34 2.01 -0.68 1.02 0 0 Z " fill="#8A76A6" transform="translate(263,13)"/>
<path d="M0 0 C5.875 0.875 5.875 0.875 7 2 C7.04080783 3.99958364 7.04254356 6.00045254 7 8 C4.69 8 2.38 8 0 8 C-1.125 5.6875 -1.125 5.6875 -2 3 C-1.34 2.01 -0.68 1.02 0 0 Z " fill="#8A76A6" transform="translate(250,12)"/>
<path d="M0 0 C2.75 0.25 2.75 0.25 5 1 C5.04254356 2.99954746 5.04080783 5.00041636 5 7 C4 8 4 8 0.9375 8.0625 C-0.031875 8.041875 -1.00125 8.02125 -2 8 C-2.66 6.68 -3.32 5.36 -4 4 C-2.3125 1.9375 -2.3125 1.9375 0 0 Z " fill="#8A76A6" transform="translate(225,12)"/>
<path d="M0 0 C2.33944736 0.28730055 4.6739143 0.61936779 7 1 C6.67 3.31 6.34 5.62 6 8 C3.69 7.67 1.38 7.34 -1 7 C-1.04254356 5.00045254 -1.04080783 2.99958364 -1 1 C-0.67 0.67 -0.34 0.34 0 0 Z " fill="#8A76A6" transform="translate(119,434)"/>
<path d="M0 0 C1.98 0 3.96 0 6 0 C6 2.64 6 5.28 6 8 C2.98968256 8.93423645 2.13349732 9.04449911 -1 8 C-1.125 2.25 -1.125 2.25 0 0 Z " fill="#8A76A6" transform="translate(409,83)"/>
<path d="M0 0 C1 1 1 1 1.1875 3.4375 C1 6 1 6 -1 8 C-3.625 7.625 -3.625 7.625 -6 7 C-6.33 4.69 -6.66 2.38 -7 0 C-4.31633121 -1.3418344 -2.84719317 -0.73004953 0 0 Z " fill="#8A76A6" transform="translate(90,69)"/>
<path d="M0 0 C2.33944736 0.28730055 4.6739143 0.61936779 7 1 C6.67 3.31 6.34 5.62 6 8 C3.69 7.67 1.38 7.34 -1 7 C-1.04254356 5.00045254 -1.04080783 2.99958364 -1 1 C-0.67 0.67 -0.34 0.34 0 0 Z " fill="#8A76A6" transform="translate(381,57)"/>
<path d="M0 0 C2.33294775 -0.04241723 4.66702567 -0.04092937 7 0 C8 1 8 1 8.0625 4.0625 C8.041875 5.031875 8.02125 6.00125 8 7 C5.69 7 3.38 7 1 7 C-0.0625 4.625 -0.0625 4.625 -1 2 C-0.67 1.34 -0.34 0.68 0 0 Z " fill="#8A76A6" transform="translate(241,465)"/>
<path d="M0 0 C0 2.64 0 5.28 0 8 C-1.65 8 -3.3 8 -5 8 C-5 7.34 -5 6.68 -5 6 C-5.66 6 -6.32 6 -7 6 C-7 4.02 -7 2.04 -7 0 C-4.3333581 -1.33332095 -2.83319697 -0.67102033 0 0 Z " fill="#8A76A6" transform="translate(84,404)"/>
<path d="M0 0 C3.625 -0.1875 3.625 -0.1875 7 0 C7.625 1.8125 7.625 1.8125 8 4 C7.01 5.485 7.01 5.485 6 7 C2.375 7.1875 2.375 7.1875 -1 7 C-1.625 5.1875 -1.625 5.1875 -2 3 C-1.34 2.01 -0.68 1.02 0 0 Z " fill="#8A76A6" transform="translate(13,242)"/>
<path d="M0 0 C1.134375 0.020625 2.26875 0.04125 3.4375 0.0625 C3.81968767 1.71864657 4.15145102 3.38707024 4.4375 5.0625 C3.4375 6.0625 3.4375 6.0625 -0.125 6.125 C-1.259375 6.104375 -2.39375 6.08375 -3.5625 6.0625 C-3.94468767 4.40635343 -4.27645102 2.73792976 -4.5625 1.0625 C-3.5625 0.0625 -3.5625 0.0625 0 0 Z " fill="#8A76A6" transform="translate(397.5625,409.9375)"/>
<path d="M0 0 C1.134375 0.020625 2.26875 0.04125 3.4375 0.0625 C3.81968767 1.71864657 4.15145102 3.38707024 4.4375 5.0625 C3.4375 6.0625 3.4375 6.0625 -0.125 6.125 C-1.259375 6.104375 -2.39375 6.08375 -3.5625 6.0625 C-3.94468767 4.40635343 -4.27645102 2.73792976 -4.5625 1.0625 C-3.5625 0.0625 -3.5625 0.0625 0 0 Z " fill="#8A76A6" transform="translate(406.5625,400.9375)"/>
<path d="M0 0 C1.134375 0.020625 2.26875 0.04125 3.4375 0.0625 C3.81968767 1.71864657 4.15145102 3.38707024 4.4375 5.0625 C3.4375 6.0625 3.4375 6.0625 -0.125 6.125 C-1.259375 6.104375 -2.39375 6.08375 -3.5625 6.0625 C-3.94468767 4.40635343 -4.27645102 2.73792976 -4.5625 1.0625 C-3.5625 0.0625 -3.5625 0.0625 0 0 Z " fill="#8A76A6" transform="translate(403.5625,74.9375)"/>
</svg>
