<?xml version="1.0" encoding="UTF-8"?>
<svg version="1.1" xmlns="http://www.w3.org/2000/svg" width="484" height="485">
<path d="M0 0 C4.28752377 3.57515569 8.44242888 7.28069155 12.515625 11.09765625 C13.505625 10.25203125 14.495625 9.40640625 15.515625 8.53515625 C16.1653125 7.9834375 16.815 7.43171875 17.484375 6.86328125 C18.75888019 5.75544212 20.01285235 4.62303014 21.234375 3.45703125 C42.90176507 -16.87990505 73.78234595 -24.01278883 102.64404297 -23.09912109 C110.45214593 -22.5640649 117.74370393 -20.14610221 125.140625 -17.70703125 C128.60529421 -16.88096429 130.14838269 -17.02323777 133.515625 -17.90234375 C147.72289453 -18.99659052 160.33527542 -16.00709021 171.515625 -6.90234375 C186.65306771 8.26097493 187.94059976 28.10161543 189.26416016 48.29931641 C189.49362504 51.76534999 189.73899197 55.22978126 189.98899841 58.69436646 C190.20526205 61.72625939 190.41092565 64.75880628 190.61373901 67.79162598 C190.71482384 69.28476483 190.81908184 70.77769233 190.92654419 72.27038574 C191.07594597 74.36722207 191.21160789 76.46451469 191.34375 78.5625 C191.4660498 80.38189087 191.4660498 80.38189087 191.59082031 82.23803711 C191.515625 85.09765625 191.515625 85.09765625 189.515625 87.09765625 C187.37890625 87.328125 187.37890625 87.328125 184.828125 87.28515625 C183.99925781 87.27871094 183.17039062 87.27226562 182.31640625 87.265625 C179.01337566 87.0675353 175.78468368 86.60151856 172.515625 86.09765625 C173.81689741 102.46629346 176.46050935 115.2193663 185.82421875 129.02734375 C187.80950111 132.11861386 188.51417547 134.01358363 188.578125 137.72265625 C186.4510338 144.4792989 181.23968876 147.03514284 175.30859375 150.1796875 C174.71691406 150.48261719 174.12523437 150.78554688 173.515625 151.09765625 C173.67611328 151.96777344 173.67611328 151.96777344 173.83984375 152.85546875 C174.66644363 158.24170024 174.57224931 161.32932232 171.515625 166.09765625 C172.175625 167.08765625 172.835625 168.07765625 173.515625 169.09765625 C173.94345566 171.90355861 173.74393202 174.22098775 173.515625 177.09765625 C170.0804202 179.38779278 168.530294 179.27608598 164.515625 179.09765625 C164.55490112 179.95931396 164.55490112 179.95931396 164.5949707 180.83837891 C164.699543 183.46618796 164.76413444 186.09355856 164.828125 188.72265625 C164.87001953 189.62628906 164.91191406 190.52992188 164.95507812 191.4609375 C165.03462365 195.82003239 165.05445595 199.08532598 162.30859375 202.62109375 C156.87719373 207.43718831 152.06163665 207.48296402 145.078125 207.47265625 C144.16740234 207.47394531 143.25667969 207.47523438 142.31835938 207.4765625 C132.58970931 207.33046673 123.2469427 205.54955354 113.76953125 203.46484375 C111.31745351 203.06537181 108.99577591 203.03641796 106.515625 203.09765625 C103.85182034 207.02423336 104.26237721 211.25153234 104.3203125 215.80078125 C104.3231424 216.63857117 104.32597229 217.47636108 104.32888794 218.33953857 C104.34006151 221.00905788 104.36516079 223.67823875 104.390625 226.34765625 C104.40065846 228.1601514 104.40978367 229.97265181 104.41796875 231.78515625 C104.4399916 236.22278618 104.47450196 240.66016388 104.515625 245.09765625 C105.59521484 245.21592773 106.67480469 245.33419922 107.78710938 245.45605469 C109.22790916 245.62266183 110.66866195 245.78967569 112.109375 245.95703125 C112.81803711 246.03356934 113.52669922 246.11010742 114.25683594 246.18896484 C124.6414168 247.41840373 135.36307587 251.6404975 142.04296875 260.01171875 C147.71751403 268.53176065 148.09384529 277.06620648 147.515625 287.09765625 C146.515625 288.09765625 146.515625 288.09765625 143.953125 288.16015625 C143.14875 288.13953125 142.344375 288.11890625 141.515625 288.09765625 C141.27328125 287.48277344 141.0309375 286.86789062 140.78125 286.234375 C138.43819779 280.09222979 138.43819779 280.09222979 133.515625 276.09765625 C117.72488693 269.57539487 97.25282092 276.47570298 81.328125 279.78515625 C60.71151716 283.97682016 39.3695008 282.82638308 19.26171875 276.8046875 C12.54251633 275.53651687 6.31508347 277.06308499 -0.26733398 278.55810547 C-21.60746134 283.34657957 -42.81833275 282.84889613 -64.203125 278.625 C-65.218088 278.42459358 -65.218088 278.42459358 -66.2535553 278.22013855 C-69.60881647 277.55123039 -72.95503573 276.85685101 -76.29858398 276.13061523 C-87.29749181 273.82699658 -99.13027868 271.72886556 -109.484375 277.09765625 C-113.43456768 280.08699125 -114.74937444 283.58665478 -116.484375 288.09765625 C-118.15049405 288.14037725 -119.81820385 288.13829457 -121.484375 288.09765625 C-123.29618688 286.28584437 -122.70017659 283.60249234 -122.734375 281.16015625 C-122.58427847 270.58412351 -120.49336233 263.94547537 -112.96875 256.2890625 C-103.85121275 248.24670653 -92.0925505 247.08980165 -80.484375 245.09765625 C-79.58229377 242.39141255 -79.36209901 240.85914639 -79.37084961 238.08520508 C-79.37092514 237.28460159 -79.37100067 236.48399811 -79.37107849 235.65913391 C-79.37623978 234.7996666 -79.38140106 233.94019928 -79.38671875 233.0546875 C-79.3881337 232.17109055 -79.38954865 231.28749359 -79.39100647 230.37712097 C-79.39660431 227.55476497 -79.40915639 224.73248828 -79.421875 221.91015625 C-79.42689028 219.99674594 -79.43145314 218.08333438 -79.43554688 216.16992188 C-79.44657303 211.47913611 -79.46383617 206.78840962 -79.484375 202.09765625 C-80.2686084 202.24912109 -81.0528418 202.40058594 -81.86083984 202.55664062 C-122.20587251 210.2369075 -122.20587251 210.2369075 -133.7578125 204.4609375 C-136.84431723 202.02385571 -139.21227321 199.97944829 -139.80029297 195.9128418 C-139.87787004 193.35862948 -139.83338646 190.83850941 -139.734375 188.28515625 C-139.70730469 186.95967773 -139.70730469 186.95967773 -139.6796875 185.60742188 C-139.63276013 183.43703082 -139.56102231 181.26720106 -139.484375 179.09765625 C-140.43570313 179.12085938 -141.38703125 179.1440625 -142.3671875 179.16796875 C-145.484375 179.09765625 -145.484375 179.09765625 -147.359375 177.97265625 C-149.00886397 175.22350796 -148.80009287 173.25483493 -148.484375 170.09765625 C-148.0925 169.27265625 -147.700625 168.44765625 -147.296875 167.59765625 C-146.12332736 164.97281057 -146.12332736 164.97281057 -147.921875 162.16015625 C-148.6953125 160.64421875 -148.6953125 160.64421875 -149.484375 159.09765625 C-149.278125 158.08703125 -149.071875 157.07640625 -148.859375 156.03515625 C-148.735625 155.06578125 -148.611875 154.09640625 -148.484375 153.09765625 C-151.55361644 149.19134896 -155.35641778 146.78980226 -159.484375 144.09765625 C-161.62635976 142.39884075 -162.36571857 141.40277278 -163.359375 138.84765625 C-163.62661882 132.96829225 -160.18828998 128.60538939 -157.046875 123.91015625 C-149.45662203 112.06039423 -148.51360951 99.80272634 -147.484375 86.09765625 C-148.52980469 86.25878906 -149.57523438 86.41992188 -150.65234375 86.5859375 C-153.75084182 86.99970228 -156.67871527 87.26090928 -159.796875 87.28515625 C-160.63863281 87.29933594 -161.48039062 87.31351562 -162.34765625 87.328125 C-164.484375 87.09765625 -164.484375 87.09765625 -166.484375 85.09765625 C-166.55957031 83.15942383 -166.55957031 83.15942383 -166.3125 80.7421875 C-166.22629395 79.82518066 -166.14008789 78.90817383 -166.05126953 77.96337891 C-165.94669434 76.95581543 -165.84211914 75.94825195 -165.734375 74.91015625 C-164.97897438 67.02377374 -164.34873215 59.15405042 -163.9342804 51.24180603 C-161.62153879 7.45432029 -161.62153879 7.45432029 -145.515625 -7.2578125 C-136.56950119 -14.50073197 -126.64303961 -18.05473963 -115.109375 -18.02734375 C-113.96210937 -18.02476563 -112.81484375 -18.0221875 -111.6328125 -18.01953125 C-108.484375 -17.90234375 -108.484375 -17.90234375 -104.734375 -17.15234375 C-100.6311783 -16.83671323 -98.41211973 -18.08525641 -94.7734375 -19.84375 C-67.69011505 -32.3686312 -22.07472495 -17.03004087 0 0 Z M-81.671875 -15.02734375 C-83.45658203 -14.78371094 -83.45658203 -14.78371094 -85.27734375 -14.53515625 C-88.07665593 -13.98279502 -90.05044623 -13.33975081 -92.484375 -11.90234375 C-91.83210938 -11.48984375 -91.17984375 -11.07734375 -90.5078125 -10.65234375 C-84.55912031 -6.72164448 -80.33935866 -2.89319673 -76.484375 3.09765625 C-75.824375 4.08765625 -75.164375 5.07765625 -74.484375 6.09765625 C-74.734375 8.72265625 -74.734375 8.72265625 -75.484375 11.09765625 C-76.474375 11.59265625 -76.474375 11.59265625 -77.484375 12.09765625 C-79.05316893 16.13237313 -80.24217318 20.29452692 -81.48046875 24.44116211 C-82.09894992 26.50044512 -82.73991622 28.55174534 -83.3828125 30.60351562 C-85.39289444 37.18297592 -86.85098805 43.1399909 -86.50390625 50.08813477 C-86.44765126 55.87607001 -91.10929165 62.46351877 -94.82421875 66.65625 C-97.9543434 69.3739347 -101.51377605 71.45226257 -105.05859375 73.58203125 C-107.54706732 75.0103482 -107.54706732 75.0103482 -109.484375 77.09765625 C-102.52034066 80.18310772 -95.83004298 81.97794931 -88.359375 83.34765625 C-75.86435572 85.86479804 -61.14267526 89.99538664 -53.484375 101.09765625 C-47.18723791 111.61557711 -44.62128784 122.93022191 -46.484375 135.09765625 C-48.84764212 143.15334901 -54.00176395 150.1484823 -58.91015625 156.84375 C-63.29415732 163.1205952 -66.11945421 169.34968983 -65.484375 177.09765625 C-63.29232709 184.3699233 -57.88626307 189.05589405 -52.484375 194.09765625 C-43.52482942 202.84387931 -35.50921541 211.1673151 -35.109375 224.28515625 C-35.181502 232.39042829 -37.64809862 236.26137987 -43.234375 241.84765625 C-54.40275233 249.57960979 -68.17864577 251.1700934 -81.484375 252.09765625 C-81.484375 252.42765625 -81.484375 252.75765625 -81.484375 253.09765625 C-77.33899795 253.43682756 -73.19301282 253.76792578 -69.046875 254.09765625 C-67.88220703 254.19304687 -66.71753906 254.2884375 -65.51757812 254.38671875 C-50.74659772 255.55175382 -38.52038305 255.63273126 -25.796875 247.34765625 C-19.33450456 241.05994447 -16.88255605 234.03510123 -16.171875 225.22265625 C-16.51391684 216.46638525 -19.37257401 210.02272721 -25.41015625 203.67578125 C-29.76491619 199.75725203 -34.98266626 196.91622617 -40.09985352 194.11547852 C-45.71334717 190.95845306 -50.14562866 187.55313773 -52.09082031 181.0793457 C-53.50358055 173.9655896 -51.75984736 168.37004174 -48.484375 162.09765625 C-45.88968974 158.24646481 -42.96932753 154.7236969 -39.83984375 151.296875 C-31.77986209 142.42069266 -29.98314883 132.84934386 -30.203125 121.08984375 C-30.73373064 110.09038893 -35.76411333 98.03236963 -43.484375 90.09765625 C-52.19130138 82.94265887 -63.31537852 79.10885634 -73.70703125 75.05078125 C-74.57473145 74.70450684 -75.44243164 74.35823242 -76.33642578 74.00146484 C-78.03501652 73.32555725 -79.74040288 72.6664387 -81.45263672 72.02587891 C-83.59596879 71.16863552 -85.55195382 70.36086864 -87.484375 69.09765625 C-88.51953125 66.35546875 -88.51953125 66.35546875 -88.484375 64.09765625 C-82.47068817 64.6007934 -77.92194924 66.49082663 -72.546875 69.16015625 C-71.72074707 69.56282715 -70.89461914 69.96549805 -70.04345703 70.38037109 C-68.34511725 71.21017138 -66.64881813 72.04416133 -64.95458984 72.88232422 C-62.64689023 74.01769966 -60.32850759 75.12631005 -58.00390625 76.2265625 C-43.06502425 83.36643118 -33.77190307 90.69188307 -27.46484375 106.265625 C-25.23298299 112.71223476 -25.23390807 118.96518745 -25.171875 125.72265625 C-25.12836914 127.26759766 -25.12836914 127.26759766 -25.08398438 128.84375 C-25.01311874 137.5111625 -26.49077487 145.02888987 -31.703125 152.11328125 C-32.4559375 152.850625 -33.20875 153.58796875 -33.984375 154.34765625 C-39.08440299 159.62383652 -42.94019228 164.65349739 -43.859375 172.16015625 C-43.26239674 178.42842802 -40.99793198 183.62785558 -36.46484375 188.08203125 C-33.4675963 190.45463344 -30.37642538 192.55390231 -27.11328125 194.54296875 C-19.04234297 199.5243573 -14.36727833 206.00495424 -11.953125 215.23046875 C-10.16291255 226.18060156 -10.95929624 236.5510814 -16.234375 246.34765625 C-22.42799561 253.91763699 -28.87150825 257.58811346 -38.64453125 258.66796875 C-46.60945277 259.40517508 -54.61903947 259.20293279 -62.609375 259.16015625 C-64.24999863 259.15513062 -65.89062376 259.1505696 -67.53125 259.14648438 C-71.51566242 259.1355643 -75.5000019 259.11835843 -79.484375 259.09765625 C-79.484375 259.42765625 -79.484375 259.75765625 -79.484375 260.09765625 C-74.9016184 260.84832676 -70.31609266 261.57757871 -65.72705078 262.28881836 C-64.17277954 262.53258476 -62.61934513 262.78176073 -61.06689453 263.03686523 C-47.76496164 265.21659373 -35.50592203 266.44453868 -22.7890625 260.83984375 C-20.21252183 260.01011031 -18.99234757 260.18461554 -16.484375 261.09765625 C-16.7265625 262.95703125 -16.7265625 262.95703125 -17.484375 265.09765625 C-27.85931053 272.84299982 -46.71722981 269.82999187 -58.59375 268.19140625 C-62.09835394 267.67283884 -65.59250394 267.12205973 -69.08398438 266.52148438 C-77.67316921 265.06137491 -85.90538329 264.18184747 -94.484375 266.09765625 C-94.484375 266.42765625 -94.484375 266.75765625 -94.484375 267.09765625 C-86.95140084 268.11668842 -79.4153705 269.11043747 -71.87695312 270.08837891 C-69.32414068 270.4223708 -66.77202024 270.76170477 -64.22070312 271.10693359 C-29.09801081 276.12063074 -29.09801081 276.12063074 5.4765625 269.99609375 C12.13191412 268.02857335 17.96641167 269.20528681 24.453125 271.03515625 C30.1676245 272.5365669 35.60077264 273.86732711 41.515625 274.09765625 C42.63195312 274.16082031 43.74828125 274.22398437 44.8984375 274.2890625 C58.74084569 274.80763936 72.40220086 272.68308791 86.09196472 270.9087677 C93.57612498 269.94591038 101.07368957 269.13603537 108.578125 268.34765625 C109.7851709 268.22028076 110.9922168 268.09290527 112.23583984 267.96166992 C114.99556264 267.67163277 117.75546025 267.38345167 120.515625 267.09765625 C120.515625 266.76765625 120.515625 266.43765625 120.515625 266.09765625 C110.61489578 263.95695804 101.09623454 265.32967414 91.265625 267.09765625 C82.49113462 268.55312547 73.91540469 269.50577434 65.015625 269.53515625 C64.10393555 269.54482422 63.19224609 269.55449219 62.25292969 269.56445312 C55.33258 269.47753333 48.7484335 268.2140605 42.515625 265.09765625 C42.515625 263.44765625 42.515625 261.79765625 42.515625 260.09765625 C46.00166053 260.53341069 48.76812487 261.20587048 52.015625 262.59765625 C64.03946897 267.1545352 76.75348735 264.52281716 89.01708984 262.50292969 C92.61402298 261.91949125 96.21929579 261.41473419 99.828125 260.91015625 C101.49294922 260.67232422 101.49294922 260.67232422 103.19140625 260.4296875 C103.95839844 260.32011719 104.72539062 260.21054687 105.515625 260.09765625 C105.515625 259.76765625 105.515625 259.43765625 105.515625 259.09765625 C104.02736206 259.15880615 104.02736206 259.15880615 102.5090332 259.22119141 C98.76514337 259.37166014 95.02079973 259.5054963 91.27612305 259.63476562 C89.66723469 259.69252964 88.05849331 259.75457609 86.44995117 259.82128906 C58.73487835 260.96132945 58.73487835 260.96132945 49.515625 254.09765625 C41.72581697 246.88487103 37.11097886 237.8888439 36.1796875 227.265625 C36.07942697 217.04907654 36.74808345 208.91729401 43.828125 201.03515625 C48.65333179 196.54680352 54.32631926 193.40949653 60.02734375 190.17578125 C66.60635015 186.37544551 66.60635015 186.37544551 70.515625 180.09765625 C70.90302813 178.01292692 70.90302813 178.01292692 70.890625 175.84765625 C70.91898438 175.14125 70.94734375 174.43484375 70.9765625 173.70703125 C69.71138142 166.54481972 65.34051605 161.44564661 60.515625 156.28515625 C50.52541761 144.93114421 49.42690516 134.4190038 50.28369141 119.60498047 C51.4613875 106.87346586 57.0731034 94.76551647 66.515625 86.09765625 C74.73321664 80.41635832 83.55874418 75.86428866 92.55688477 71.56762695 C94.48157726 70.64654005 96.39804339 69.70966343 98.31445312 68.77148438 C99.55683618 68.17223183 100.79965878 67.57388953 102.04296875 66.9765625 C103.14374756 66.44619385 104.24452637 65.9158252 105.37866211 65.36938477 C108.46259103 64.11915628 111.22305491 63.50369137 114.515625 63.09765625 C114.515625 65.07765625 114.515625 67.05765625 114.515625 69.09765625 C113.28714844 69.4946875 112.05867187 69.89171875 110.79296875 70.30078125 C104.81480512 72.29778956 98.94521786 74.54738894 93.078125 76.84765625 C92.01013672 77.25242187 90.94214844 77.6571875 89.84179688 78.07421875 C76.09365651 83.48277244 66.08401463 91.12290482 59.55859375 104.5078125 C54.91089096 116.0487374 54.62589724 129.84725088 59.1875 141.4921875 C61.85370057 146.72264569 65.52336255 150.87630407 69.41796875 155.21875 C74.76108969 161.19446031 78.77589022 166.67731085 78.515625 175.09765625 C76.35582975 185.77168567 70.15450105 190.25600663 61.515625 196.09765625 C51.30715285 203.16091251 45.11537652 210.66836801 42.515625 223.09765625 C41.67714397 231.53084045 43.31222851 238.73420705 48.640625 245.41015625 C54.13147687 251.25000294 61.3041537 253.8180255 69.22290039 254.24291992 C72.34141699 254.2674171 75.45950513 254.28330324 78.578125 254.28515625 C79.66673828 254.29740234 80.75535156 254.30964844 81.87695312 254.32226562 C82.92431641 254.32419922 83.97167969 254.32613281 85.05078125 254.328125 C86.47982788 254.33428833 86.47982788 254.33428833 87.93774414 254.34057617 C90.60086282 254.08962408 92.23394297 253.45363304 94.515625 252.09765625 C93.46503906 251.95070313 92.41445313 251.80375 91.33203125 251.65234375 C81.88694443 250.20081147 74.03745767 248.65921618 67.71484375 240.8828125 C62.06235791 232.77507028 60.46080861 225.985111 61.515625 216.09765625 C64.32129655 205.61165477 74.20606805 196.43717801 82.453125 189.78515625 C87.08747991 185.98929098 90.37241973 181.14374353 91.578125 175.22265625 C92.01416375 166.56560998 86.3037363 158.78473394 81.515625 152.03515625 C74.78099502 142.49165213 69.14793087 133.23578957 70.95703125 121.1484375 C73.52321479 109.69592696 78.34726224 98.71600854 88.48046875 92.1875 C96.81580345 87.69042939 105.1489886 85.46351416 114.37548828 83.55371094 C117.90344885 82.80191647 121.39759949 81.9337787 124.890625 81.03515625 C126.69660156 80.58462891 126.69660156 80.58462891 128.5390625 80.125 C131.39103331 79.14065837 132.67815162 78.43085086 134.515625 76.09765625 C133.80277344 75.67355469 133.08992187 75.24945313 132.35546875 74.8125 C123.53698573 69.41221767 116.12049427 64.1243145 112.515625 54.09765625 C111.66907563 50.12538613 111.23208629 47.94827238 112.515625 44.09765625 C111.58549601 39.75483886 110.25354066 35.52242703 108.96557617 31.27368164 C108.33282745 29.17574763 107.72330465 27.0719968 107.11523438 24.96679688 C106.71494096 23.62588357 106.31329161 22.28537414 105.91015625 20.9453125 C105.54768799 19.72851807 105.18521973 18.51172363 104.81176758 17.25805664 C103.47327564 13.99439528 102.07111353 12.45303031 99.515625 10.09765625 C99.22860521 4.93130007 103.27241668 0.76540472 106.515625 -2.90234375 C108.51590451 -4.80072223 110.56228371 -6.5978927 112.68359375 -8.359375 C114.3913027 -9.79763733 115.96202971 -11.30064954 117.515625 -12.90234375 C93.20146368 -20.34545436 64.91552019 -13.47572085 42.515625 -2.90234375 C33.54063413 1.87389134 22.93588352 9.070031 16.83984375 17.3828125 C15.515625 19.09765625 15.515625 19.09765625 12.328125 19.84765625 C11.4 19.93015625 10.471875 20.01265625 9.515625 20.09765625 C9.10570312 19.20433594 9.10570312 19.20433594 8.6875 18.29296875 C0.93699138 3.77368261 -19.8746101 -5.38626247 -34.88256836 -10.00976562 C-49.91326076 -14.34709513 -66.09018741 -17.23630709 -81.671875 -15.02734375 Z M136.140625 81.78515625 C128.85751113 86.46715802 120.66168908 87.97567638 112.30859375 89.796875 C99.77745852 92.63814157 87.39666603 98.25269534 80.04296875 109.3125 C76.1214184 116.86043024 75.44890154 124.40549321 77.328125 132.66015625 C79.70403205 139.98206211 84.77225731 146.03671235 89.20458984 152.22802734 C95.76727495 161.58688071 98.6499296 168.51154494 97.515625 180.09765625 C94.85988512 188.90495688 87.15376764 194.31842892 80.30078125 199.90234375 C73.30676159 205.72845609 67.35111733 213.01049784 66.078125 222.28515625 C66.78717494 228.46402001 68.93997778 233.75309514 73.60546875 238 C79.64842637 242.22490541 85.43884301 243.94231406 92.73828125 244.640625 C94.08224976 244.77053833 94.08224976 244.77053833 95.45336914 244.90307617 C96.13391357 244.9672876 96.81445801 245.03149902 97.515625 245.09765625 C97.54068115 243.89230225 97.5657373 242.68694824 97.59155273 241.44506836 C97.68608165 236.95164271 97.78618939 232.45835534 97.88793945 227.96508789 C97.93111692 226.02436571 97.97280331 224.08360973 98.01293945 222.14282227 C98.07106066 219.34511148 98.13463216 216.54756811 98.19921875 213.75 C98.22428749 212.45895607 98.22428749 212.45895607 98.24986267 211.14183044 C98.56829796 198.04498329 98.56829796 198.04498329 100.515625 196.09765625 C107.08779639 196.14940563 113.6279014 197.24602738 120.10986328 198.24462891 C138.29624358 201.65504896 138.29624358 201.65504896 155.515625 197.09765625 C158.86606552 193.74721573 158.16958494 189.07562843 158.23950195 184.56152344 C158.12714469 180.73407525 157.97479848 178.70079191 155.609375 175.59375 C153.31402158 173.92812828 150.96785379 172.51691079 148.515625 171.09765625 C145.42603378 167.19023206 145.42603378 167.19023206 145.67578125 164.14453125 C146.84922144 161.2846119 148.41850014 160.55784224 151.078125 159.03515625 C151.97660156 158.51695312 152.87507813 157.99875 153.80078125 157.46484375 C156.20659968 156.25328051 158.44410412 155.42453493 161.015625 154.66015625 C162.748125 153.88671875 162.748125 153.88671875 164.515625 153.09765625 C164.886875 151.45796875 164.886875 151.45796875 165.265625 149.78515625 C166.515625 146.09765625 166.515625 146.09765625 169.18359375 144.484375 C171.32444479 143.49451914 173.48618785 142.54838499 175.66796875 141.65234375 C178.89994743 139.88783413 179.93504358 138.36896413 181.515625 135.09765625 C181.07992187 134.515 180.64421875 133.93234375 180.1953125 133.33203125 C171.06405558 120.76172952 166.46604811 109.48766447 165.890625 94.03515625 C165.85195313 93.16955078 165.81328125 92.30394531 165.7734375 91.41210938 C165.68042019 89.30759266 165.59699831 87.20265535 165.515625 85.09765625 C162.28694967 84.28319541 159.0576009 83.47143636 155.828125 82.66015625 C154.91611328 82.43005859 154.00410156 82.19996094 153.06445312 81.96289062 C152.17822266 81.74052734 151.29199219 81.51816406 150.37890625 81.2890625 C149.56719971 81.08482666 148.75549316 80.88059082 147.91918945 80.67016602 C147.12601318 80.48123779 146.33283691 80.29230957 145.515625 80.09765625 C144.63463135 79.88592773 143.7536377 79.67419922 142.84594727 79.45605469 C139.68235333 78.9695009 138.69645659 79.93329933 136.140625 81.78515625 Z M-123.796875 80.78515625 C-125.67826172 81.34783203 -125.67826172 81.34783203 -127.59765625 81.921875 C-128.22494629 82.11571777 -128.85223633 82.30956055 -129.49853516 82.50927734 C-132.79926695 83.48724189 -136.13961773 84.28466863 -139.484375 85.09765625 C-139.54906982 85.79213867 -139.61376465 86.48662109 -139.68041992 87.20214844 C-141.26254939 103.56937968 -143.22449251 115.9844359 -152.25 129.94140625 C-153.47262342 132.07712817 -154.21881348 133.65248601 -154.484375 136.09765625 C-151.14397426 141.26988965 -147.22853578 143.94201092 -141.484375 146.09765625 C-140.824375 146.09765625 -140.164375 146.09765625 -139.484375 146.09765625 C-139.484375 148.40765625 -139.484375 150.71765625 -139.484375 153.09765625 C-138.30681641 153.56945312 -138.30681641 153.56945312 -137.10546875 154.05078125 C-131.31423973 156.40990767 -125.81608853 158.82592294 -120.484375 162.09765625 C-120.3981959 166.23425319 -120.62869632 168.16677143 -123.484375 171.2734375 C-125.77234805 173.27908054 -128.10670167 175.19988029 -130.484375 177.09765625 C-131.474375 178.08765625 -131.474375 178.08765625 -132.484375 179.09765625 C-131.989375 180.08765625 -131.989375 180.08765625 -131.484375 181.09765625 C-131.25249094 188.17012002 -131.25249094 188.17012002 -132.171875 191.84765625 C-132.68807986 194.14255185 -132.68807986 194.14255185 -131.546875 196.28515625 C-125.94037783 201.212078 -117.49242156 200.42400362 -110.484375 200.09765625 C-105.36150227 199.56074312 -100.26813737 198.84110806 -95.171875 198.09765625 C-92.53062795 197.71746467 -89.88863226 197.34391103 -87.24609375 196.97265625 C-86.09069092 196.80507813 -84.93528809 196.6375 -83.74487305 196.46484375 C-80.6248093 196.11347154 -77.62080294 196.03110705 -74.484375 196.09765625 C-72.79754793 207.33302756 -72.22547193 218.24621325 -72.359375 229.59765625 C-72.36944665 231.11457728 -72.37856495 232.63150495 -72.38671875 234.1484375 C-72.40835092 237.79831933 -72.4426383 241.44794215 -72.484375 245.09765625 C-70.57580648 244.8087194 -68.66848488 244.51153896 -66.76171875 244.2109375 C-65.69945068 244.04634033 -64.63718262 243.88174316 -63.54272461 243.7121582 C-55.300211 242.05602292 -50.41360719 237.75919648 -45.234375 231.28515625 C-42.59162736 226.4715802 -41.94363489 222.78925067 -43.0078125 217.4921875 C-46.13859492 207.30996393 -53.05774414 200.91685655 -61.234375 194.47265625 C-66.76152865 190.10666933 -70.25540843 185.78455595 -72.484375 179.09765625 C-73.80648802 167.28533499 -68.94920921 159.42320568 -62.20751953 150.28149414 C-55.18049518 140.70524619 -50.21958014 130.77931566 -51.89453125 118.640625 C-54.27658235 108.37098749 -60.39615879 102.10281248 -68.99609375 96.4453125 C-76.22129344 92.3946656 -83.73826585 90.692768 -91.74707031 88.92553711 C-99.50726634 87.18992488 -107.3617991 85.16736865 -113.83984375 80.34375 C-117.52210279 78.6086826 -120.1130167 79.58948536 -123.796875 80.78515625 Z " fill="#6D5590" transform="translate(229.484375,116.90234375)"/>
<path d="M0 0 C1.27422168 0.68247888 2.55294512 1.35661646 3.8359375 2.02246094 C20.28663708 10.56575848 35.20246139 21.59474624 48.42529297 34.57519531 C49.9018381 36.01668893 51.40293515 37.42808453 52.91015625 38.83740234 C94.72685223 78.52448136 118.20405308 141.05518179 120.11279297 197.99902344 C120.2322814 203.19407744 120.24084572 208.38733988 120.21875 213.58349609 C120.21659485 214.50130859 120.2144397 215.41912109 120.21221924 216.36474609 C119.9803629 278.12162618 99.1156233 339.07517134 55.90625 384.02099609 C55.33745117 384.61702637 54.76865234 385.21305664 54.18261719 385.82714844 C37.08646491 403.65441642 17.73737624 417.52076145 -4.09375 429.02099609 C-4.77791992 429.38547852 -5.46208984 429.74996094 -6.16699219 430.12548828 C-27.87371228 441.52730278 -52.0210188 448.7541597 -76.09375 453.02099609 C-76.91004883 453.18180664 -77.72634766 453.34261719 -78.56738281 453.50830078 C-106.73527806 458.97505916 -139.98630158 458.64792769 -168.09375 453.02099609 C-169.03041504 452.84407227 -169.96708008 452.66714844 -170.93212891 452.48486328 C-197.22838308 447.46573318 -222.53329221 438.79550887 -246.09375 426.02099609 C-246.77501953 425.65280762 -247.45628906 425.28461914 -248.15820312 424.90527344 C-264.16889458 416.13945696 -278.44263267 405.22878709 -291.53320312 392.53027344 C-293.1177722 390.9977631 -294.72216457 389.48807357 -296.328125 387.97802734 C-304.94941093 379.74996591 -312.15423881 370.69211396 -319.09375 361.02099609 C-319.5381543 360.40530762 -319.98255859 359.78961914 -320.44042969 359.15527344 C-350.23709306 317.43765443 -364.62146418 266.41994792 -364.40625 215.45849609 C-364.40409485 214.53624237 -364.4019397 213.61398865 -364.39971924 212.66378784 C-364.34584189 198.26094105 -363.78304265 184.20555326 -361.09375 170.02099609 C-360.90039062 168.97057129 -360.70703125 167.92014648 -360.5078125 166.83789062 C-351.75673749 120.59089008 -331.5309938 78.28223486 -299.09375 44.02099609 C-298.5044873 43.39773437 -297.91522461 42.77447266 -297.30810547 42.13232422 C-287.31762696 31.65359856 -276.96067579 22.32454472 -265.09375 14.02099609 C-264.41376953 13.5446875 -263.73378906 13.06837891 -263.03320312 12.57763672 C-187.58017711 -39.57054618 -80.54829527 -43.18329457 0 0 Z M-162.09375 -18.97900391 C-162.95274902 -18.86073242 -163.81174805 -18.74246094 -164.69677734 -18.62060547 C-186.72405983 -15.44090959 -208.16601833 -8.89624426 -228.09375 1.02099609 C-229.16544434 1.54862549 -229.16544434 1.54862549 -230.25878906 2.08691406 C-251.54121158 12.66158805 -269.97444972 26.62352154 -287.09375 43.02099609 C-287.84398437 43.72998047 -288.59421875 44.43896484 -289.3671875 45.16943359 C-323.61497003 78.33428229 -344.8236093 125.71151955 -353.09375 172.02099609 C-353.33714111 173.29185059 -353.33714111 173.29185059 -353.58544922 174.58837891 C-358.62545287 201.58282572 -358.25219533 232.0864325 -353.09375 259.02099609 C-352.85229248 260.37306152 -352.85229248 260.37306152 -352.60595703 261.75244141 C-346.01664065 298.14876145 -331.50707693 334.14015025 -308.09375 363.02099609 C-307.46082031 363.85501953 -306.82789063 364.68904297 -306.17578125 365.54833984 C-294.32050278 380.79739242 -279.94553081 394.04503888 -264.09375 405.02099609 C-263.37171387 405.5229248 -262.64967773 406.02485352 -261.90576172 406.54199219 C-242.96791338 419.51260815 -222.035115 429.3394578 -200.09375 436.02099609 C-198.80186768 436.41859131 -198.80186768 436.41859131 -197.48388672 436.82421875 C-133.92318842 456.06992024 -62.75249752 451.47341537 -3.58105469 420.71484375 C23.24765846 406.16908842 48.43766473 385.11671015 65.90625 360.02099609 C66.30714844 359.45380859 66.70804687 358.88662109 67.12109375 358.30224609 C96.70751289 316.27294039 112.45772585 265.81146067 112.21875 214.45849609 C112.21692719 213.63605408 112.21510437 212.81361206 112.21322632 211.96624756 C112.16075979 197.81053817 111.29857722 183.99381712 108.90625 170.02099609 C108.7505957 169.06757324 108.59494141 168.11415039 108.43457031 167.13183594 C103.03154399 134.97789785 91.0984158 101.58974262 71.90625 75.02099609 C71.45958984 74.39225586 71.01292969 73.76351562 70.55273438 73.11572266 C64.05181138 63.99771631 57.09503503 55.50634266 49.30273438 47.46435547 C47.99692534 46.11471508 46.70869773 44.74812607 45.421875 43.38037109 C3.46608341 -0.22074566 -59.74358416 -19.73843535 -118.84765625 -21.22509766 C-133.34472199 -21.42724253 -147.72758899 -20.98931449 -162.09375 -18.97900391 Z " fill="#6D5490" transform="translate(364.09375,28.97900390625)"/>
<path d="M0 0 C6.43629919 3.91326991 14.81897258 9.05066225 17.1015625 16.6953125 C17.21371094 17.28570312 17.32585937 17.87609375 17.44140625 18.484375 C18.10140625 18.484375 18.76140625 18.484375 19.44140625 18.484375 C18.52578733 25.67860489 16.64484932 32.40784719 14.62890625 39.359375 C14.28537109 40.6071875 13.94183594 41.855 13.58789062 43.140625 C13.24435547 44.32398438 12.90082031 45.50734375 12.546875 46.7265625 C12.23903076 47.8079248 11.93118652 48.88928711 11.61401367 50.00341797 C11.033573 51.2314917 11.033573 51.2314917 10.44140625 52.484375 C8.38012695 53.21459961 8.38012695 53.21459961 6.44140625 53.484375 C5.22228952 55.58941664 5.22228952 55.58941664 4.44140625 58.171875 C0.46733985 68.91713914 -5.70615615 73.7718903 -15.80859375 78.671875 C-21.90969836 81.39061284 -28.02649518 83.14264664 -34.55859375 84.484375 C-31.6529248 81.4879039 -28.67069076 78.69613357 -25.49609375 75.984375 C-20.90831965 71.98522097 -17.27871514 68.78543717 -16.55859375 62.484375 C-19.5934063 62.80382895 -21.12663545 63.01296384 -23.2265625 65.3046875 C-23.72800781 66.06523437 -24.22945312 66.82578125 -24.74609375 67.609375 C-30.24197649 75.12439727 -38.08259573 79.85180442 -46.55859375 83.484375 C-47.21859375 83.154375 -47.87859375 82.824375 -48.55859375 82.484375 C-45.67204561 78.43256051 -42.78014605 74.3846517 -39.88378906 70.33984375 C-38.71557471 68.70417149 -37.55449334 67.06340979 -36.39453125 65.421875 C-28.13849524 53.84368904 -20.09786591 43.64508634 -5.55859375 40.484375 C-5.55859375 39.164375 -5.55859375 37.844375 -5.55859375 36.484375 C-16.12993436 37.23947076 -23.42728718 41.68009887 -30.55859375 49.484375 C-34.60264425 54.62127755 -38.34587426 59.9786668 -42.07226562 65.34814453 C-44.2056453 68.41435218 -46.38176292 71.44890534 -48.55859375 74.484375 C-49.55859375 72.484375 -49.55859375 72.484375 -49.06469727 70.58349609 C-48.77522217 69.81602051 -48.48574707 69.04854492 -48.1875 68.2578125 C-47.86458984 67.39833008 -47.54167969 66.53884766 -47.20898438 65.65332031 C-46.84998047 64.73131836 -46.49097656 63.80931641 -46.12109375 62.859375 C-45.75564453 61.91674805 -45.39019531 60.97412109 -45.01367188 60.00292969 C-33.91460806 31.87451325 -33.91460806 31.87451325 -22.24609375 23.984375 C-17.37622579 22.00341176 -12.77702706 21.67310677 -7.55859375 21.484375 C-7.55859375 19.834375 -7.55859375 18.184375 -7.55859375 16.484375 C-18.32023012 17.49705707 -25.41711166 19.05282268 -33.05859375 26.796875 C-43.77651496 39.93419152 -48.76225692 57.85573349 -54.55859375 73.484375 C-56.46852549 67.86494638 -54.44152644 62.01608406 -53.37109375 56.359375 C-53.16162109 55.1734375 -52.95214844 53.9875 -52.73632812 52.765625 C-51.10720313 44.00605679 -49.15838053 35.11130663 -43.49609375 27.984375 C-43.01011719 27.3553125 -42.52414063 26.72625 -42.0234375 26.078125 C-40.55859375 24.484375 -40.55859375 24.484375 -37.55859375 22.484375 C-37.30828398 19.90057323 -37.30828398 19.90057323 -37.55859375 17.484375 C-41.55539445 18.79378998 -43.58139605 20.20578777 -46.12109375 23.546875 C-46.95833984 24.61615234 -46.95833984 24.61615234 -47.8125 25.70703125 C-52.72621168 33.52280084 -54.60286256 41.38986819 -56.18359375 50.421875 C-56.59220769 52.66020012 -57.0010585 54.89848201 -57.41015625 57.13671875 C-57.69681152 58.73555908 -57.69681152 58.73555908 -57.98925781 60.36669922 C-58.78984435 64.75070011 -59.66435419 69.11863578 -60.55859375 73.484375 C-60.88859375 73.484375 -61.21859375 73.484375 -61.55859375 73.484375 C-60.55221568 19.72376989 -60.55221568 19.72376989 -47.328125 5.94140625 C-43.70899898 2.96141948 -39.72373042 0.61644972 -35.55859375 -1.515625 C-34.47964844 -2.08023438 -34.47964844 -2.08023438 -33.37890625 -2.65625 C-23.13447876 -5.7778207 -9.46295755 -4.79205247 0 0 Z " fill="#FBFBFC" transform="translate(132.55859375,109.515625)"/>
<path d="M0 0 C8.91772968 6.38120192 14.08054476 14.48090237 16.25 25.25 C17.3058649 36.23881618 17.37283751 47.22192163 17.25 58.25 C15.65772395 55.3652092 14.86724103 52.86554273 14.35546875 49.6171875 C14.13358887 48.29122559 14.13358887 48.29122559 13.90722656 46.93847656 C13.7522168 46.0100293 13.59720703 45.08158203 13.4375 44.125 C11.26107667 32.09954654 7.78329688 22.50687219 -1.75 14.25 C-2.74 14.25 -3.73 14.25 -4.75 14.25 C-5.245 16.725 -5.245 16.725 -5.75 19.25 C-5.151875 19.50652344 -4.55375 19.76304687 -3.9375 20.02734375 C2.34641622 23.53960406 6.08304162 31.64223453 8.25 38.25 C10.81015343 48.44298295 12.08543219 58.8236929 13.25 69.25 C10.88679108 66.88679108 10.28852201 65.02989211 9.1484375 61.89453125 C8.74447754 60.80358154 8.34051758 59.71263184 7.92431641 58.58862305 C7.49554199 57.42500244 7.06676758 56.26138184 6.625 55.0625 C-0.71224172 33.68116449 -0.71224172 33.68116449 -15.875 18 C-16.74382812 17.49984375 -17.61265625 16.9996875 -18.5078125 16.484375 C-22.17325047 14.46646838 -24.66843506 14.00075484 -28.875 13.6875 C-30.51855469 13.56181641 -30.51855469 13.56181641 -32.1953125 13.43359375 C-33.45988281 13.34271484 -33.45988281 13.34271484 -34.75 13.25 C-34.42 14.9 -34.09 16.55 -33.75 18.25 C-32.55503906 18.39695313 -32.55503906 18.39695313 -31.3359375 18.546875 C-20.45134303 20.0829005 -20.45134303 20.0829005 -15.75 24.25 C-15.15058594 24.7759375 -14.55117188 25.301875 -13.93359375 25.84375 C-4.18956961 35.45429436 0.40815952 49.82889558 5.375 62.3125 C5.83628296 63.46383423 5.83628296 63.46383423 6.30688477 64.63842773 C7.01767751 66.48590058 7.64253918 68.36602187 8.25 70.25 C7.92 70.91 7.59 71.57 7.25 72.25 C6.89284912 71.75185791 6.53569824 71.25371582 6.16772461 70.74047852 C2.21335979 65.23036069 -1.76119249 59.7352297 -5.75 54.25 C-6.45640625 53.27546875 -7.1628125 52.3009375 -7.890625 51.296875 C-14.16266613 42.91461443 -21.9846519 35.10288885 -32.75 33.5 C-33.74 33.4175 -34.73 33.335 -35.75 33.25 C-36.08 34.57 -36.41 35.89 -36.75 37.25 C-36.20472656 37.39695313 -35.65945313 37.54390625 -35.09765625 37.6953125 C-20.97240571 41.89666907 -12.53868923 51.59696316 -4.5 63.4375 C-3.28689944 65.20212624 -2.07337344 66.9664601 -0.859375 68.73046875 C-0.33311523 69.50285889 0.19314453 70.27524902 0.73535156 71.07104492 C1.76172428 72.5475724 2.83369266 73.99324092 3.94433594 75.4074707 C5.25 77.25 5.25 77.25 5.25 79.25 C-4.80345726 77.68137546 -12.2250396 70.6327677 -18.75 63.25 C-19.41 62.26 -20.07 61.27 -20.75 60.25 C-22.07 60.25 -23.39 60.25 -24.75 60.25 C-23.78115744 67.16346916 -19.44868167 71.17107372 -14.0625 75.3203125 C-11.65256493 77.01137489 -9.22518694 78.65631827 -6.75 80.25 C-12.62542116 82.5741838 -19.27096356 78.51257449 -24.75 76.25 C-36.23160006 70.99839095 -42.81380174 64.91737771 -47.75 53.25 C-48.245 51.765 -48.245 51.765 -48.75 50.25 C-49.69576904 49.86581909 -49.69576904 49.86581909 -50.66064453 49.47387695 C-53.87236078 47.5925573 -54.11796884 45.1641262 -55.1796875 41.66796875 C-55.37853546 41.01677567 -55.57738342 40.36558258 -55.78225708 39.69465637 C-56.19814195 38.31753594 -56.60616064 36.9380188 -57.00683594 35.55639648 C-57.62182132 33.44839563 -58.26981462 31.35264719 -58.921875 29.25585938 C-59.32234466 27.91466761 -59.72084795 26.57288681 -60.1171875 25.23046875 C-60.47925293 24.01254639 -60.84131836 22.79462402 -61.21435547 21.53979492 C-61.92979974 17.1457149 -60.78548465 14.93183812 -58.5234375 11.2578125 C-44.01704018 -8.27314702 -20.9479049 -12.84243416 0 0 Z " fill="#FBFBFC" transform="translate(393.75,112.75)"/>
<path d="M0 0 C2.35546875 0.2421875 2.35546875 0.2421875 5 1 C6.30078125 2.8203125 6.30078125 2.8203125 7.3125 5.125 C14.09932215 18.20204755 28.70873342 22.39482226 41.9375 26.625 C55.43627131 30.98264752 64.72901741 37.69526024 72 50 C78.59969169 63.91717462 79.14704303 79.90107029 74.68359375 94.6484375 C71.18392382 104.19555588 66.56664556 113.36267672 62.15161133 122.51074219 C60.42511334 126.24264244 59.79480197 129.22937749 59.6875 133.3125 C59.65011719 134.23675781 59.61273438 135.16101563 59.57421875 136.11328125 C60.71992305 143.88094619 67.85018128 148.7356552 73.42382812 153.61328125 C80.42242162 159.91692915 85.39913058 166.83759503 86.3359375 176.4453125 C86.49838084 191.74747495 81.46987049 203.52787121 72.375 215.75 C70 218 70 218 67.1875 218.375 C66.1046875 218.189375 66.1046875 218.189375 65 218 C64.125 216 64.125 216 64 213 C65.25985374 210.98702336 66.73405663 209.22706254 68.234375 207.38671875 C75.80218452 197.15678155 77.93389119 187.49248645 77 175 C74.52349056 163.59543741 66.05378531 156.67348345 57.20703125 149.8515625 C53.50360443 146.74461682 51.53537872 143.60613617 50 139 C49.10628246 126.26452502 55.29018331 116.20271056 61.26171875 105.36523438 C69.1291233 90.73762294 72.50844883 75.16393291 68.0390625 58.89453125 C65.07924924 50.64933716 59.46959531 43.80739287 51.64550781 39.79150391 C43.86778942 36.2723246 35.94224854 33.3474756 27.87304688 30.5703125 C14.79109813 25.85306118 4.98751004 18.20215899 -1.56640625 5.859375 C-2.15814853 3.32181351 -1.33396449 2.16111809 0 0 Z " fill="#6D5490" transform="translate(155,149)"/>
<path d="M0 0 C1.65 0.33 3.3 0.66 5 1 C4.33716663 9.83777832 -1.25825332 15.85651108 -7.671875 21.4609375 C-14.60017656 27.10091852 -22.59315202 29.86136814 -30.97265625 32.69140625 C-31.85211914 32.99054932 -32.73158203 33.28969238 -33.63769531 33.59790039 C-35.38168626 34.1860755 -37.12963758 34.76267355 -38.88183594 35.32592773 C-44.38419149 37.1670839 -48.37626436 39.5067767 -53 43 C-53.66 43 -54.32 43 -55 43 C-55.26941406 43.57363281 -55.53882813 44.14726562 -55.81640625 44.73828125 C-57.41802166 47.79879387 -59.43917062 50.50054467 -61.46484375 53.29296875 C-67.40195421 63.76222459 -67.72549703 76.40693306 -65.26171875 88.015625 C-62.3435563 98.33000283 -57.36852743 107.69224999 -52.42578125 117.1640625 C-48.02244331 125.76749478 -45.87330656 134.78825187 -48.69921875 144.37109375 C-51.73392482 149.97796704 -57.06131313 153.2065809 -62.12109375 156.86328125 C-70.0711071 162.76376606 -73.12323358 169.24314601 -75 179 C-75.69928798 190.68322604 -70.05874666 201.11571541 -63 210 C-62.34 210.66 -61.68 211.32 -61 212 C-60.875 214.625 -60.875 214.625 -61 217 C-62.65 217.33 -64.3 217.66 -66 218 C-76.11988828 208.09542849 -81.86877775 195.30150241 -82.375 181.25 C-82.22438684 171.8818613 -79.91904487 161.7646019 -73 155 C-69.99182029 152.6352365 -66.91912913 150.37871195 -63.82421875 148.12890625 C-59.47911877 144.85355426 -56.75999066 142.19056132 -54.9375 136.9375 C-55.10858283 126.15928141 -60.30691285 117.25188591 -65.34472656 108.04150391 C-68.85707289 101.52962955 -71.31367548 95.23316557 -73 88 C-73.18820313 87.23429687 -73.37640625 86.46859375 -73.5703125 85.6796875 C-75.74935778 72.09036873 -74.42954728 58.23807092 -66.6875 46.625 C-65.48363218 45.06349781 -64.25587616 43.51998746 -63 42 C-62.52304687 41.37609375 -62.04609375 40.7521875 -61.5546875 40.109375 C-53.77402123 31.06587808 -40.6561606 27.09132133 -29.6875 23.4375 C-17.73480604 19.42276847 -9.44230257 15.17078746 -3 4 C-2.01751068 2.65371158 -1.02220544 1.31638665 0 0 Z " fill="#6D5490" transform="translate(326,149)"/>
<path d="M0 0 C1.921875 1.3828125 1.921875 1.3828125 2.53125 3.765625 C2.57765625 4.67054687 2.6240625 5.57546875 2.671875 6.5078125 C2.72859375 7.41789062 2.7853125 8.32796875 2.84375 9.265625 C2.86953125 9.96429688 2.8953125 10.66296875 2.921875 11.3828125 C4.901875 9.0728125 6.881875 6.7628125 8.921875 4.3828125 C11.396875 4.8778125 11.396875 4.8778125 13.921875 5.3828125 C13.46488222 10.40973313 10.92945752 13.53177511 7.921875 17.3828125 C8.76492187 17.37121094 9.60796875 17.35960938 10.4765625 17.34765625 C11.57226562 17.33863281 12.66796875 17.32960938 13.796875 17.3203125 C15.43269531 17.30291016 15.43269531 17.30291016 17.1015625 17.28515625 C19.921875 17.3828125 19.921875 17.3828125 21.921875 18.3828125 C21.546875 20.8203125 21.546875 20.8203125 20.921875 23.3828125 C18.22004445 24.73372778 15.80379294 24.72139308 12.796875 24.9453125 C11.70117188 25.02910156 10.60546875 25.11289062 9.4765625 25.19921875 C8.63351563 25.25980469 7.79046875 25.32039063 6.921875 25.3828125 C7.65535156 26.05828125 8.38882813 26.73375 9.14453125 27.4296875 C10.08167969 28.32171875 11.01882812 29.21375 11.984375 30.1328125 C13.39396484 31.45539063 13.39396484 31.45539063 14.83203125 32.8046875 C16.921875 35.3828125 16.921875 35.3828125 16.73046875 37.7109375 C16.46363281 38.26265625 16.19679687 38.814375 15.921875 39.3828125 C12.6390091 39.75076945 11.33524488 39.7060057 8.68359375 37.6328125 C6.76302083 35.54947917 4.84244792 33.46614583 2.921875 31.3828125 C2.591875 35.6728125 2.261875 39.9628125 1.921875 44.3828125 C-0.553125 44.8778125 -0.553125 44.8778125 -3.078125 45.3828125 C-4.81769158 43.64324592 -4.45002886 41.1891503 -4.640625 38.8203125 C-4.72441406 37.80839844 -4.80820313 36.79648438 -4.89453125 35.75390625 C-4.95511719 34.97144531 -5.01570313 34.18898437 -5.078125 33.3828125 C-5.74908203 34.15818359 -5.74908203 34.15818359 -6.43359375 34.94921875 C-8.23906008 36.91636863 -9.9809737 38.72762284 -12.078125 40.3828125 C-15.015625 40.3203125 -15.015625 40.3203125 -17.078125 39.3828125 C-16.33137402 33.37725179 -13.11037024 30.70831194 -9.078125 26.3828125 C-13.368125 25.7228125 -17.658125 25.0628125 -22.078125 24.3828125 C-22.408125 22.7328125 -22.738125 21.0828125 -23.078125 19.3828125 C-22.078125 18.3828125 -22.078125 18.3828125 -19.13671875 18.28515625 C-17.94175781 18.29675781 -16.74679688 18.30835937 -15.515625 18.3203125 C-13.71931641 18.33384766 -13.71931641 18.33384766 -11.88671875 18.34765625 C-10.95988281 18.35925781 -10.03304687 18.37085937 -9.078125 18.3828125 C-9.655625 17.77953125 -10.233125 17.17625 -10.828125 16.5546875 C-11.570625 15.75546875 -12.313125 14.95625 -13.078125 14.1328125 C-13.820625 13.34390625 -14.563125 12.555 -15.328125 11.7421875 C-17.078125 9.3828125 -17.078125 9.3828125 -17.078125 5.3828125 C-15.30859375 4.70703125 -15.30859375 4.70703125 -13.078125 4.3828125 C-11.19140625 5.52734375 -11.19140625 5.52734375 -9.390625 7.1953125 C-8.78863281 7.73800781 -8.18664062 8.28070313 -7.56640625 8.83984375 C-6.078125 10.3828125 -6.078125 10.3828125 -5.078125 12.3828125 C-5.02914062 11.52816406 -4.98015625 10.67351563 -4.9296875 9.79296875 C-4.85492188 8.68824219 -4.78015625 7.58351563 -4.703125 6.4453125 C-4.63351563 5.34316406 -4.56390625 4.24101563 -4.4921875 3.10546875 C-4.35554688 2.20699219 -4.21890625 1.30851562 -4.078125 0.3828125 C-2.078125 -0.6171875 -2.078125 -0.6171875 0 0 Z " fill="#A191B8" transform="translate(202.078125,33.6171875)"/>
<path d="M0 0 C3.69230769 0.69230769 3.69230769 0.69230769 5 2 C5.36760731 4.32817964 5.70241581 6.6618385 6 9 C7.32 7.35 8.64 5.7 10 4 C12.475 4.495 12.475 4.495 15 5 C14.46884894 9.51478398 12.63379708 12.34666857 10 16 C13.96 16 17.92 16 22 16 C22 17.65 22 19.3 22 21 C19.56612247 22.21693876 17.58161154 22.31959896 14.875 22.5625 C13.96492188 22.64628906 13.05484375 22.73007812 12.1171875 22.81640625 C11.41851562 22.87699219 10.71984375 22.93757813 10 23 C10.77537109 23.67095703 10.77537109 23.67095703 11.56640625 24.35546875 C13.53355613 26.16093508 15.34481034 27.9028487 17 30 C16.9375 32.9375 16.9375 32.9375 16 35 C11.16743695 34.58578031 9.17320782 32.53586014 6 29 C5.67 32.3 5.34 35.6 5 39 C3.34385343 39.38218767 1.67542976 39.71395102 0 40 C-1.58272601 38.41727399 -1.34735747 36.61965997 -1.5625 34.4375 C-1.64628906 33.61121094 -1.73007812 32.78492188 -1.81640625 31.93359375 C-1.87699219 31.29550781 -1.93757813 30.65742188 -2 30 C-2.86625 31.2065625 -2.86625 31.2065625 -3.75 32.4375 C-5.97328219 34.96957138 -6.7203912 35.78135941 -10 36 C-10.66 35.67 -11.32 35.34 -12 35 C-11.67010597 29.55674846 -8.54262773 26.84412796 -5 23 C-8.63 22.67 -12.26 22.34 -16 22 C-16.33 20.35 -16.66 18.7 -17 17 C-15.41727399 15.41727399 -13.61965997 15.65264253 -11.4375 15.4375 C-10.61121094 15.35371094 -9.78492188 15.26992188 -8.93359375 15.18359375 C-8.29550781 15.12300781 -7.65742188 15.06242187 -7 15 C-7.825 14.0925 -8.65 13.185 -9.5 12.25 C-12.03294997 9.46375503 -12 9.12741739 -12 5 C-10.375 4.1875 -10.375 4.1875 -8 4 C-5.75390165 5.46818136 -3.97621323 7.15852858 -2 9 C-1.855625 7.700625 -1.71125 6.40125 -1.5625 5.0625 C-1.125 1.125 -1.125 1.125 0 0 Z " fill="#A191B8" transform="translate(388,335)"/>
<path d="M0 0 C1.65 0 3.3 0 5 0 C5.66 2.31 6.32 4.62 7 7 C7.99 5.68 8.98 4.36 10 3 C12.475 3.495 12.475 3.495 15 4 C14.46930939 7.82097239 13.50298434 10.06171403 11 13 C11.63808594 12.98839844 12.27617188 12.97679687 12.93359375 12.96484375 C13.75988281 12.95582031 14.58617188 12.94679688 15.4375 12.9375 C16.26121094 12.92589844 17.08492187 12.91429687 17.93359375 12.90234375 C20 13 20 13 21 14 C21.04063832 15.66617115 21.042721 17.33388095 21 19 C18.03 19.66 15.06 20.32 12 21 C12.845625 21.721875 13.69125 22.44375 14.5625 23.1875 C17 26 17 26 16.8125 28.8125 C16.544375 29.534375 16.27625 30.25625 16 31 C12.17902761 30.46930939 9.93828597 29.50298434 7 27 C6.67 29.64 6.34 32.28 6 35 C4.34385343 35.38218767 2.67542976 35.71395102 1 36 C-0.96822886 34.03177114 -0.66248381 30.65191291 -1 28 C-1.8353125 29.0209375 -1.8353125 29.0209375 -2.6875 30.0625 C-3.450625 30.701875 -4.21375 31.34125 -5 32 C-7.75 31.75 -7.75 31.75 -10 31 C-9.58578031 26.16743695 -7.53586014 24.17320782 -4 21 C-4.95712891 20.90912109 -4.95712891 20.90912109 -5.93359375 20.81640625 C-6.75988281 20.73261719 -7.58617188 20.64882813 -8.4375 20.5625 C-9.26121094 20.48128906 -10.08492188 20.40007812 -10.93359375 20.31640625 C-13 20 -13 20 -14 19 C-14.04063832 17.33382885 -14.042721 15.66611905 -14 14 C-9.545 13.505 -9.545 13.505 -5 13 C-5.845625 12.2575 -6.69125 11.515 -7.5625 10.75 C-8.7690625 9.38875 -8.7690625 9.38875 -10 8 C-9.8125 5.6875 -9.8125 5.6875 -9 4 C-7.25 3.25 -7.25 3.25 -5 3 C-2.75 4.9375 -2.75 4.9375 -1 7 C-0.67 4.69 -0.34 2.38 0 0 Z " fill="#A191B8" transform="translate(87,340)"/>
<path d="M0 0 C4.14017623 -0.31959255 6.02744951 0.35073173 9.375 2.75 C16.10216923 7.26537143 23.26226811 10.84523709 30.49951172 14.47167969 C37.07636022 17.8197718 43.07258924 21.60606212 49 26 C49.67780518 26.50176758 50.35561035 27.00353516 51.05395508 27.52050781 C58.85803246 33.46540165 63.08017554 42.54730498 65 52 C65.25 55.5625 65.25 55.5625 65 58 C64 59 64 59 61.5 59.125 C59 59 59 59 58 58 C57.72587957 56.52511288 57.48123495 55.04471605 57.25 53.5625 C55.13485233 42.75517614 50.03664356 35.09489569 40.98828125 28.95703125 C32.56389625 23.62270397 23.65641093 19.20865575 14.67749023 14.89355469 C0.78919876 8.14906488 0.78919876 8.14906488 -0.74414062 3.97363281 C-1 2 -1 2 0 0 Z " fill="#6D5490" transform="translate(180,147)"/>
<path d="M0 0 C3.85483717 1.39430281 4.75921671 2.59869452 6.875 6.125 C8.49346763 10.49023841 8.22644835 14.55308183 7 19 C5.20867928 22.00685978 3.75317877 23.52657334 0.8125 25.375 C-3.31295817 26.29176848 -6.92242893 26.11744688 -11 25 C-14.78266325 22.4245697 -16.27412944 19.92655778 -17.5 15.625 C-18.31291392 10.97203555 -17.48324773 8.08534304 -15 4 C-10.81962691 -0.94044092 -6.04400583 -0.79657408 0 0 Z " fill="#E4E0EA" transform="translate(168,410)"/>
<path d="M0 0 C1.65 0 3.3 0 5 0 C21.00061618 29.68800042 21.00061618 29.68800042 19 40 C16.28408765 45.83988049 12.67804993 49.54114182 7.875 53.75 C6.61993527 54.86703317 5.36723047 55.98672494 4.1171875 57.109375 C3.56659668 57.59374023 3.01600586 58.07810547 2.44873047 58.57714844 C0.75899854 60.13947858 0.75899854 60.13947858 -1 63 C-3.625 63.1875 -3.625 63.1875 -6 63 C-6.74609375 60.7734375 -6.74609375 60.7734375 -7 58 C-5.41015625 55.7890625 -5.41015625 55.7890625 -3.0625 53.625 C-2.23878906 52.85285156 -1.41507813 52.08070313 -0.56640625 51.28515625 C2.41830404 48.6275375 5.40746893 45.97944572 8.46875 43.41015625 C11.06314741 41.02092803 11.02233444 39.76921081 11.375 36.125 C11.26568769 28.50957585 7.54133575 21.9117015 4.07421875 15.296875 C3.75138916 14.67514404 3.42855957 14.05341309 3.09594727 13.4128418 C2.16696421 11.64247152 1.21294317 9.88530763 0.2578125 8.12890625 C-1.08817759 4.7806514 -1.12074991 3.36854607 0 0 Z " fill="#6D5490" transform="translate(242,240)"/>
<path d="M0 0 C2.72024475 2.13733516 3.60478876 4.1201891 4.75 7.375 C5.05470556 11.82370122 4.22624625 14.66063063 1.75 18.375 C-1.78495016 20.73163344 -3.91495693 21.11621939 -8.09375 20.8515625 C-11.7783521 20.03721204 -13.19124615 18.46313077 -15.25 15.375 C-16.49623229 11.51167991 -16.67301292 8.3768727 -15.0625 4.5625 C-10.67684942 -0.73052656 -6.8461101 -1.90169725 0 0 Z " fill="#D5CEDF" transform="translate(316.25,417.625)"/>
<path d="M0 0 C0.96808594 0.16242188 1.93617188 0.32484375 2.93359375 0.4921875 C7.31648309 1.11626684 11.64215644 1.14712015 16.0625 1.125 C16.83916016 1.12886719 17.61582031 1.13273438 18.41601562 1.13671875 C22.7222659 1.1294262 26.75958423 0.85486782 31 0 C30.76874532 5.66573973 29.32998749 8.40408437 25.5703125 12.6171875 C21.94598374 15.80876058 17.29150697 15.3273323 12.73046875 15.28515625 C7.999292 14.79105625 5.43335115 12.43335115 2.1875 9.1875 C0.56557942 6.19975157 0.32256779 3.35470499 0 0 Z " fill="#6D5490" transform="translate(358,224)"/>
<path d="M0 0 C0.64195313 0.16242188 1.28390625 0.32484375 1.9453125 0.4921875 C5.94417253 1.15695963 9.82902101 1.14493093 13.875 1.125 C14.65230469 1.12886719 15.42960937 1.13273438 16.23046875 1.13671875 C20.92358006 1.12883117 25.37126895 0.77762682 30 0 C29.63325183 7.21271394 29.63325183 7.21271394 26.6875 10.875 C21.65221145 14.85639094 18.05547223 15.44360944 11.6953125 15.31640625 C7.88409863 14.86900288 5.79697077 13.58719797 3 11 C0.07324013 7.29277083 -0.3259948 4.67259219 0 0 Z " fill="#6D5490" transform="translate(96,224)"/>
<path d="M0 0 C2.36300349 2.36300349 2.51433444 3.5798498 3.125 6.8125 C3.29257812 7.66457031 3.46015625 8.51664063 3.6328125 9.39453125 C4 12 4 12 4 17 C7.63 17.33 11.26 17.66 15 18 C15 18.99 15 19.98 15 21 C11.7 21.66 8.4 22.32 5 23 C4.87882812 24.21558594 4.75765625 25.43117188 4.6328125 26.68359375 C4.46402922 28.26828117 4.29473184 29.8529139 4.125 31.4375 C4.04636719 32.23994141 3.96773438 33.04238281 3.88671875 33.86914062 C3.66154237 35.92170994 3.33777413 37.96293009 3 40 C2.01 40.495 2.01 40.495 1 41 C0.49095343 39.12743583 -0.00682455 37.25180659 -0.5 35.375 C-0.7784375 34.33085938 -1.056875 33.28671875 -1.34375 32.2109375 C-1.99118596 29.04312582 -2.1161292 26.22258533 -2 23 C-2.78246094 22.87882812 -3.56492187 22.75765625 -4.37109375 22.6328125 C-5.38300781 22.46523437 -6.39492188 22.29765625 -7.4375 22.125 C-8.95150391 21.88136719 -8.95150391 21.88136719 -10.49609375 21.6328125 C-11.32238281 21.42398438 -12.14867187 21.21515625 -13 21 C-13.33 20.34 -13.66 19.68 -14 19 C-12.7625 18.67 -11.525 18.34 -10.25 18 C-9.55390625 17.814375 -8.8578125 17.62875 -8.140625 17.4375 C-6 17 -6 17 -2 17 C-2.04125 15.865625 -2.0825 14.73125 -2.125 13.5625 C-2.14183841 8.85616438 -1.17621777 4.53683996 0 0 Z " fill="#B9ADCA" transform="translate(292,46)"/>
<path d="M0 0 C3.85940746 3.85940746 3.94344336 10.35985738 4.125 15.625 C4.08375 16.40875 4.0425 17.1925 4 18 C5.2375 17.979375 6.475 17.95875 7.75 17.9375 C10.6640825 17.93233319 13.20953327 18.06984442 16 19 C16 19.66 16 20.32 16 21 C14.54293274 21.50367757 13.08429904 22.00282556 11.625 22.5 C10.81289062 22.7784375 10.00078125 23.056875 9.1640625 23.34375 C7 24 7 24 5 24 C4.95101562 24.71285156 4.90203125 25.42570312 4.8515625 26.16015625 C4.41871477 31.70508491 3.75971184 36.72086449 2 42 C0.05116862 39.07675293 -0.48079727 37.48916982 -1.125 34.125 C-1.29257813 33.28195312 -1.46015625 32.43890625 -1.6328125 31.5703125 C-1.99878845 29.00848085 -2.06482904 26.58390011 -2 24 C-2.69867188 23.87882812 -3.39734375 23.75765625 -4.1171875 23.6328125 C-5.02726563 23.46523438 -5.93734375 23.29765625 -6.875 23.125 C-7.77992188 22.96257812 -8.68484375 22.80015625 -9.6171875 22.6328125 C-12 22 -12 22 -14 20 C-9.84055256 18.69507531 -6.34963091 17.87980295 -2 18 C-1.93941406 16.95199219 -1.87882813 15.90398437 -1.81640625 14.82421875 C-1.73198262 13.44529952 -1.64733553 12.06639395 -1.5625 10.6875 C-1.52318359 9.99720703 -1.48386719 9.30691406 -1.44335938 8.59570312 C-1.25072585 5.52838465 -0.97677283 2.93031848 0 0 Z " fill="#B9ADCA" transform="translate(242,407)"/>
<path d="M0 0 C0.82113281 -0.02900391 1.64226562 -0.05800781 2.48828125 -0.08789062 C8.39071818 -0.14869227 12.84078308 0.94557846 17.75 4.3125 C20.25 7.0625 20.25 7.0625 21.75 9.3125 C21.09 10.9625 20.43 12.6125 19.75 14.3125 C15.8436709 13.73378458 13.77070594 11.7437999 10.75 9.3125 C5.98327729 6.70171867 1.21615335 7.08515474 -4.0625 7.1875 C-5.38797852 7.20103516 -5.38797852 7.20103516 -6.74023438 7.21484375 C-8.91027359 7.23830363 -11.08017247 7.27417135 -13.25 7.3125 C-14.375 3.5625 -14.375 3.5625 -13.25 1.3125 C-8.95584454 -0.14632198 -4.48516665 0.05183166 0 0 Z " fill="#6D5490" transform="translate(107.25,204.6875)"/>
<path d="M0 0 C1.23266602 -0.00386719 1.23266602 -0.00386719 2.49023438 -0.0078125 C3.34037109 -0.00007812 4.19050781 0.00765625 5.06640625 0.015625 C5.91267578 0.00789062 6.75894531 0.00015625 7.63085938 -0.0078125 C12.06962425 0.00609123 15.59619235 0.17888187 19.62890625 2.265625 C19.29890625 3.915625 18.96890625 5.565625 18.62890625 7.265625 C16.67597656 7.21341797 16.67597656 7.21341797 14.68359375 7.16015625 C12.95704421 7.13200599 11.23048064 7.10470716 9.50390625 7.078125 C8.64796875 7.05298828 7.79203125 7.02785156 6.91015625 7.00195312 C1.70099834 6.94184746 -1.86567379 7.34375856 -6.37109375 10.265625 C-7.05171875 11.008125 -7.73234375 11.750625 -8.43359375 12.515625 C-9.07296875 13.093125 -9.71234375 13.670625 -10.37109375 14.265625 C-13.12109375 14.015625 -13.12109375 14.015625 -15.37109375 13.265625 C-15.80859375 11.140625 -15.80859375 11.140625 -15.37109375 8.265625 C-11.22740152 3.59683679 -6.37643192 0.01935394 0 0 Z " fill="#6D5490" transform="translate(371.37109375,204.734375)"/>
<path d="M0 0 C0.66 0.33 1.32 0.66 2 1 C2.6328125 3.14453125 2.6328125 3.14453125 3.125 5.8125 C3.29257812 6.68519531 3.46015625 7.55789063 3.6328125 8.45703125 C4 11 4 11 4 15 C6.97 15.33 9.94 15.66 13 16 C13 16.99 13 17.98 13 19 C9.04 19.495 9.04 19.495 5 20 C4.87882812 21.07121094 4.75765625 22.14242188 4.6328125 23.24609375 C4.46402399 24.64328752 4.29472687 26.04041991 4.125 27.4375 C4.00705078 28.49807617 4.00705078 28.49807617 3.88671875 29.58007812 C3.66072324 31.39673432 3.33699273 33.20062522 3 35 C2.01 35.495 2.01 35.495 1 36 C0.01 30.72 -0.98 25.44 -2 20 C-4.64 19.67 -7.28 19.34 -10 19 C-10 18.01 -10 17.02 -10 16 C-7.36 15.34 -4.72 14.68 -2 14 C-1.34 9.38 -0.68 4.76 0 0 Z " fill="#B9ADCA" transform="translate(50,262)"/>
<path d="M0 0 C3.32878632 2.46040728 4.79301948 3.89610387 5.5625 8 C4.84202557 11.8425303 3.99097304 13.45767292 1 16 C-1.82561523 16.7179842 -4.17277829 16.70536002 -7 16 C-9.5625 14 -9.5625 14 -11 11 C-11.29851924 7.0656695 -10.88490018 4.04877058 -8.3125 1 C-5.21285954 -0.34038506 -3.34840698 -0.54667869 0 0 Z " fill="#D5CEDF" transform="translate(146,62)"/>
<path d="M0 0 C1.9375 1.0625 1.9375 1.0625 3 3 C3.98586223 6.80261145 4.29822018 9.14261699 3 12.875 C1 15 1 15 -2.4375 15.9375 C-7.39705882 16.0245098 -7.39705882 16.0245098 -10 14 C-12.09679403 11.30412197 -11.99510821 9.907056 -11.8125 6.4375 C-11 3 -11 3 -9.9375 1.0625 C-6.74497633 -0.68823879 -3.54677411 -0.52572226 0 0 Z " fill="#E4E0EA" transform="translate(247,80)"/>
<path d="M0 0 C2.86801846 0.08864784 3.78417611 0.16414857 6.125 1.9375 C7.48213883 5.46606096 7.04765877 7.76275116 6.0625 11.375 C4.375 13.375 4.375 13.375 2.0625 14.375 C-1.38016385 14.30474155 -3.22103249 13.97590824 -5.875 11.75 C-7.40612051 8.32749533 -6.8001304 5.95823398 -5.9375 2.375 C-3.9375 0.375 -3.9375 0.375 0 0 Z " fill="#D5CEDF" transform="translate(432.9375,215.625)"/>
<path d="M0 0 C1.875 1.0625 1.875 1.0625 3 3 C3.63316583 8.90954774 3.63316583 8.90954774 1.875 11.9375 C-0.88980433 13.50422245 -2.88188517 13.38976435 -6 13 C-7.875 11.9375 -7.875 11.9375 -9 10 C-9.63316583 4.09045226 -9.63316583 4.09045226 -7.875 1.0625 C-5.11019567 -0.50422245 -3.11811483 -0.38976435 0 0 Z " fill="#E9E6EE" transform="translate(361,71)"/>
<path d="M0 0 C1.134375 0.020625 2.26875 0.04125 3.4375 0.0625 C4.76591008 5.49690487 4.76591008 5.49690487 3.3125 8 C1.4375 9.0625 1.4375 9.0625 -1.1875 8.8125 C-3.5625 8.0625 -3.5625 8.0625 -4.5625 7.0625 C-4.6875 4.0625 -4.6875 4.0625 -4.5625 1.0625 C-3.5625 0.0625 -3.5625 0.0625 0 0 Z " fill="#8A76A6" transform="translate(441.5625,124.9375)"/>
<path d="M0 0 C1.2684375 0.12375 1.2684375 0.12375 2.5625 0.25 C4.7144437 3.47791555 4.76336443 4.53400809 4.5625 8.25 C-2.1875 9.375 -2.1875 9.375 -4.4375 8.25 C-3.43230397 0.35203118 -3.43230397 0.35203118 0 0 Z " fill="#8A76A6" transform="translate(355.4375,437.75)"/>
<path d="M0 0 C2.33944736 0.28730055 4.6739143 0.61936779 7 1 C7.6875 3.3125 7.6875 3.3125 8 6 C6.875 7.875 6.875 7.875 5 9 C0.57894737 8.57894737 0.57894737 8.57894737 -1 7 C-1.125 4 -1.125 4 -1 1 C-0.67 0.67 -0.34 0.34 0 0 Z " fill="#8A76A6" transform="translate(46,363)"/>
<path d="M0 0 C2.375 0.6875 2.375 0.6875 3.375 1.6875 C3.08769945 4.02694736 2.75563221 6.3614143 2.375 8.6875 C-0.5 8.8125 -0.5 8.8125 -3.625 8.6875 C-5.625 6.6875 -5.625 6.6875 -5.9375 4.1875 C-5.834375 3.3625 -5.73125 2.5375 -5.625 1.6875 C-2.625 -0.3125 -2.625 -0.3125 0 0 Z " fill="#8A76A6" transform="translate(437.625,358.3125)"/>
<path d="M0 0 C1.2375 0.1546875 1.2375 0.1546875 2.5 0.3125 C4.5 3.3125 4.5 3.3125 4.125 6 C3.91875 6.763125 3.7125 7.52625 3.5 8.3125 C0.625 8.9375 0.625 8.9375 -2.5 9.3125 C-4.5 7.3125 -4.5 7.3125 -4.75 4.8125 C-4.40047575 1.3172575 -3.47557682 0.4344471 0 0 Z " fill="#8A76A6" transform="translate(320.5,452.6875)"/>
<path d="M0 0 C1.2375 0.1546875 1.2375 0.1546875 2.5 0.3125 C4.5 3.3125 4.5 3.3125 4.125 6 C3.91875 6.763125 3.7125 7.52625 3.5 8.3125 C0.625 8.9375 0.625 8.9375 -2.5 9.3125 C-4.5 7.3125 -4.5 7.3125 -4.75 4.8125 C-4.40047575 1.3172575 -3.47557682 0.4344471 0 0 Z " fill="#8A76A6" transform="translate(332.5,448.6875)"/>
<path d="M0 0 C3.125 0.375 3.125 0.375 6 1 C6.625 3.3125 6.625 3.3125 7 6 C6.01 7.485 6.01 7.485 5 9 C2.5 9.3125 2.5 9.3125 0 9 C-2 7 -2 7 -2.25 4.5 C-2 2 -2 2 0 0 Z " fill="#8A76A6" transform="translate(142,445)"/>
<path d="M0 0 C1.2375 0.1546875 1.2375 0.1546875 2.5 0.3125 C4.5 3.3125 4.5 3.3125 4.125 6 C3.91875 6.763125 3.7125 7.52625 3.5 8.3125 C0.625 8.9375 0.625 8.9375 -2.5 9.3125 C-4.5 7.3125 -4.5 7.3125 -4.75 4.8125 C-4.40047575 1.3172575 -3.47557682 0.4344471 0 0 Z " fill="#8A76A6" transform="translate(344.5,443.6875)"/>
<path d="M0 0 C0.763125 0.20625 1.52625 0.4125 2.3125 0.625 C2.9375 2.9375 2.9375 2.9375 3.3125 5.625 C2.3225 7.11 2.3225 7.11 1.3125 8.625 C-1.1875 8.9375 -1.1875 8.9375 -3.6875 8.625 C-5.6875 6.625 -5.6875 6.625 -6 4.125 C-5.896875 3.3 -5.79375 2.475 -5.6875 1.625 C-2.6875 -0.375 -2.6875 -0.375 0 0 Z " fill="#8A76A6" transform="translate(443.6875,347.375)"/>
<path d="M0 0 C1.2375 0.1546875 1.2375 0.1546875 2.5 0.3125 C4.5 3.3125 4.5 3.3125 4.125 6 C3.91875 6.763125 3.7125 7.52625 3.5 8.3125 C0.625 8.9375 0.625 8.9375 -2.5 9.3125 C-4.5 7.3125 -4.5 7.3125 -4.75 4.8125 C-4.40047575 1.3172575 -3.47557682 0.4344471 0 0 Z " fill="#8A76A6" transform="translate(451.5,147.6875)"/>
<path d="M0 0 C1.2375 0.1546875 1.2375 0.1546875 2.5 0.3125 C4.5 3.3125 4.5 3.3125 4.125 6 C3.91875 6.763125 3.7125 7.52625 3.5 8.3125 C0.625 8.9375 0.625 8.9375 -2.5 9.3125 C-4.5 7.3125 -4.5 7.3125 -4.75 4.8125 C-4.40047575 1.3172575 -3.47557682 0.4344471 0 0 Z " fill="#8A76A6" transform="translate(446.5,135.6875)"/>
<path d="M0 0 C2.33944736 0.28730055 4.6739143 0.61936779 7 1 C7.625 3.3125 7.625 3.3125 8 6 C7.01 7.485 7.01 7.485 6 9 C3.03 8.505 3.03 8.505 0 8 C-0.38063221 5.6739143 -0.71269945 3.33944736 -1 1 C-0.67 0.67 -0.34 0.34 0 0 Z " fill="#8A76A6" transform="translate(38,130)"/>
<path d="M0 0 C3.29714793 0.32971479 4.6226839 0.6226839 7 3 C6.625 6.125 6.625 6.125 6 9 C3.125 9.125 3.125 9.125 0 9 C-2 7 -2 7 -2.25 4.5 C-2 2 -2 2 0 0 Z " fill="#8A76A6" transform="translate(45,118)"/>
<path d="M0 0 C2.625 -0.1875 2.625 -0.1875 5 0 C5 0.66 5 1.32 5 2 C5.66 2 6.32 2 7 2 C7 3.65 7 5.3 7 7 C6.34 7 5.68 7 5 7 C5 7.66 5 8.32 5 9 C3.02 9 1.04 9 -1 9 C-1.625 6.1875 -1.625 6.1875 -2 3 C-1.34 2.01 -0.68 1.02 0 0 Z " fill="#8A76A6" transform="translate(75,77)"/>
<path d="M0 0 C3.0625 0.1875 3.0625 0.1875 5.0625 2.1875 C4.73278521 5.48464793 4.4398161 6.8101839 2.0625 9.1875 C-2.49305556 8.63194444 -2.49305556 8.63194444 -3.9375 7.1875 C-4.0625 4.1875 -4.0625 4.1875 -3.9375 1.1875 C-2.9375 0.1875 -2.9375 0.1875 0 0 Z " fill="#8A76A6" transform="translate(105.9375,51.8125)"/>
<path d="M0 0 C2.625 0.25 2.625 0.25 4.5 1.4375 C5.625 3.25 5.625 3.25 5.3125 5.9375 C5.085625 6.700625 4.85875 7.46375 4.625 8.25 C1.75 8.875 1.75 8.875 -1.375 9.25 C-3.375 7.25 -3.375 7.25 -3.5625 4.1875 C-3.31750282 0.34921082 -3.31750282 0.34921082 0 0 Z " fill="#8A76A6" transform="translate(127.375,37.75)"/>
<path d="M0 0 C3.125 0.375 3.125 0.375 6 1 C6.625 3.875 6.625 3.875 7 7 C5 9 5 9 2.5 9.25 C0 9 0 9 -2 7 C-2.25 4.5 -2.25 4.5 -2 2 C-1.34 1.34 -0.68 0.68 0 0 Z " fill="#8A76A6" transform="translate(349,36)"/>
<path d="M0 0 C1.2684375 0.12375 1.2684375 0.12375 2.5625 0.25 C4.5625 3.25 4.5625 3.25 4.1875 5.9375 C3.98125 6.700625 3.775 7.46375 3.5625 8.25 C-2.1875 9.375 -2.1875 9.375 -4.4375 8.25 C-3.43230397 0.35203118 -3.43230397 0.35203118 0 0 Z " fill="#8A76A6" transform="translate(139.4375,31.75)"/>
<path d="M0 0 C3.125 0.375 3.125 0.375 6 1 C6.625 3.3125 6.625 3.3125 7 6 C6.01 7.485 6.01 7.485 5 9 C2.5 9.3125 2.5 9.3125 0 9 C-2 7 -2 7 -2.25 4.5 C-2 2 -2 2 0 0 Z " fill="#8A76A6" transform="translate(337,31)"/>
<path d="M0 0 C1.2375 0.1546875 1.2375 0.1546875 2.5 0.3125 C4.5 3.3125 4.5 3.3125 4.125 6 C3.91875 6.763125 3.7125 7.52625 3.5 8.3125 C0.625 8.9375 0.625 8.9375 -2.5 9.3125 C-4.5 7.3125 -4.5 7.3125 -4.75 4.8125 C-4.40047575 1.3172575 -3.47557682 0.4344471 0 0 Z " fill="#8A76A6" transform="translate(151.5,26.6875)"/>
<path d="M0 0 C2.875 -0.125 2.875 -0.125 6 0 C6.66 0.66 7.32 1.32 8 2 C7.625 5.125 7.625 5.125 7 8 C4.6875 8.625 4.6875 8.625 2 9 C1.01 8.34 0.02 7.68 -1 7 C-0.67 4.69 -0.34 2.38 0 0 Z " fill="#8A76A6" transform="translate(178,457)"/>
<path d="M0 0 C2.33944736 0.28730055 4.6739143 0.61936779 7 1 C7.6875 3.3125 7.6875 3.3125 8 6 C6.875 7.875 6.875 7.875 5 9 C2.3125 8.6875 2.3125 8.6875 0 8 C-0.38063221 5.6739143 -0.71269945 3.33944736 -1 1 C-0.67 0.67 -0.34 0.34 0 0 Z " fill="#8A76A6" transform="translate(130,440)"/>
<path d="M0 0 C3.125 0.375 3.125 0.375 6 1 C6.625 3.3125 6.625 3.3125 7 6 C6.01 7.485 6.01 7.485 5 9 C-0.875 8.125 -0.875 8.125 -2 7 C-2.1875 4.5625 -2.1875 4.5625 -2 2 C-1.34 1.34 -0.68 0.68 0 0 Z " fill="#8A76A6" transform="translate(446,335)"/>
<path d="M0 0 C1.2684375 0.12375 1.2684375 0.12375 2.5625 0.25 C4.5625 3.25 4.5625 3.25 4.1875 5.9375 C3.98125 6.700625 3.775 7.46375 3.5625 8.25 C1.5825 8.58 -0.3975 8.91 -2.4375 9.25 C-4.4375 6.25 -4.4375 6.25 -4.125 3.625 C-3.16976704 0.32510431 -3.16976704 0.32510431 0 0 Z " fill="#8A76A6" transform="translate(32.4375,328.75)"/>
<path d="M0 0 C3.125 0.375 3.125 0.375 6 1 C6.625 3.3125 6.625 3.3125 7 6 C6.01 7.485 6.01 7.485 5 9 C-0.875 8.125 -0.875 8.125 -2 7 C-2.1875 4.5625 -2.1875 4.5625 -2 2 C-1.34 1.34 -0.68 0.68 0 0 Z " fill="#8A76A6" transform="translate(29,153)"/>
<path d="M0 0 C0.763125 0.20625 1.52625 0.4125 2.3125 0.625 C3.4375 6.375 3.4375 6.375 2.3125 8.625 C0.0025 8.625 -2.3075 8.625 -4.6875 8.625 C-5.0175 6.315 -5.3475 4.005 -5.6875 1.625 C-2.6875 -0.375 -2.6875 -0.375 0 0 Z " fill="#8A76A6" transform="translate(374.6875,49.375)"/>
<path d="M0 0 C1.9375 0.75 1.9375 0.75 3.9375 2.75 C3.5625 5.875 3.5625 5.875 2.9375 8.75 C0.0625 8.875 0.0625 8.875 -3.0625 8.75 C-5.0625 6.75 -5.0625 6.75 -5.375 4.25 C-5.271875 3.425 -5.16875 2.6 -5.0625 1.75 C-2.0625 -0.25 -2.0625 -0.25 0 0 Z " fill="#8A76A6" transform="translate(363.0625,42.25)"/>
<path d="M0 0 C1.2684375 0.12375 1.2684375 0.12375 2.5625 0.25 C4.5625 3.25 4.5625 3.25 4.1875 5.9375 C3.98125 6.700625 3.775 7.46375 3.5625 8.25 C1.5825 8.58 -0.3975 8.91 -2.4375 9.25 C-4.4375 6.25 -4.4375 6.25 -4.125 3.625 C-3.16976704 0.32510431 -3.16976704 0.32510431 0 0 Z " fill="#8A76A6" transform="translate(163.4375,22.75)"/>
<path d="M0 0 C2.875 -0.125 2.875 -0.125 6 0 C8 2 8 2 8.3125 4.5 C8.1578125 5.7375 8.1578125 5.7375 8 7 C5 9 5 9 2.3125 8.625 C1.549375 8.41875 0.78625 8.2125 0 8 C-0.79953138 4.71303767 -1.09658936 3.28976808 0 0 Z " fill="#8A76A6" transform="translate(384,417)"/>
<path d="M0 0 C2.875 -0.1875 2.875 -0.1875 6 0 C8 3 8 3 7.75 5.0625 C7 7 7 7 5 9 C1.875 8.625 1.875 8.625 -1 8 C-1.125 2.25 -1.125 2.25 0 0 Z " fill="#8A76A6" transform="translate(69,394)"/>
<path d="M0 0 C2.875 -0.1875 2.875 -0.1875 6 0 C8 3 8 3 7.6875 5.125 C7 7 7 7 6 8 C4.00041636 8.04080783 1.99954746 8.04254356 0 8 C-1.125 6.25 -1.125 6.25 -2 4 C-1.125 1.75 -1.125 1.75 0 0 Z " fill="#8A76A6" transform="translate(21,305)"/>
<path d="M0 0 C1 1 1 1 1.0625 4.5625 C1.041875 5.696875 1.02125 6.83125 1 8 C-4.43440487 9.32841008 -4.43440487 9.32841008 -6.9375 7.875 C-8 6 -8 6 -7.8125 3.375 C-6.42010387 -0.69508098 -3.8826193 -0.19910868 0 0 Z " fill="#8A76A6" transform="translate(24,292)"/>
<path d="M0 0 C2.375 0.375 2.375 0.375 3.375 1.375 C3.625 4.3125 3.625 4.3125 3.375 7.375 C0.375 9.375 0.375 9.375 -2.3125 9 C-3.075625 8.79375 -3.83875 8.5875 -4.625 8.375 C-5.625 5.375 -5.625 5.375 -4.5 2.6875 C-2.625 0.375 -2.625 0.375 0 0 Z " fill="#8A76A6" transform="translate(456.625,159.625)"/>
<path d="M0 0 C1.010625 0.0825 2.02125 0.165 3.0625 0.25 C5.0625 3.25 5.0625 3.25 4.8125 5.3125 C4.0625 7.25 4.0625 7.25 2.0625 9.25 C-0.20024788 8.89644564 -1.88838852 8.27455574 -3.9375 7.25 C-3.98004356 5.25045254 -3.97830783 3.24958364 -3.9375 1.25 C-2.9375 0.25 -2.9375 0.25 0 0 Z " fill="#8A76A6" transform="translate(60.9375,96.75)"/>
<path d="M0 0 C2.875 -0.1875 2.875 -0.1875 6 0 C8 3 8 3 7.75 5.0625 C7 7 7 7 5 9 C1.875 8.625 1.875 8.625 -1 8 C-1.125 2.25 -1.125 2.25 0 0 Z " fill="#8A76A6" transform="translate(93,60)"/>
<path d="M0 0 C2.64 0 5.28 0 8 0 C8.04241723 2.33294775 8.04092937 4.66702567 8 7 C7 8 7 8 3.9375 8.0625 C2.968125 8.041875 1.99875 8.02125 1 8 C0.26919734 6.02253397 -0.39421747 4.01927511 -1 2 C-0.67 1.34 -0.34 0.68 0 0 Z " fill="#8A76A6" transform="translate(190,460)"/>
<path d="M0 0 C0.94875 0.04125 1.8975 0.0825 2.875 0.125 C3.67453138 3.41196233 3.97158936 4.83523192 2.875 8.125 C0.54205225 8.16741723 -1.79202567 8.16592937 -4.125 8.125 C-5.125 7.125 -5.125 7.125 -5.3125 4.6875 C-5.02108357 0.70480882 -3.90175738 0.1560703 0 0 Z " fill="#8A76A6" transform="translate(157.125,449.875)"/>
<path d="M0 0 C3.125 -0.1875 3.125 -0.1875 6 0 C6.625 3.375 6.625 3.375 7 7 C6.34 7.66 5.68 8.32 5 9 C2.5 8.9375 2.5 8.9375 0 8 C-1.4375 5.625 -1.4375 5.625 -2 3 C-1.34 2.01 -0.68 1.02 0 0 Z " fill="#8A76A6" transform="translate(364,432)"/>
<path d="M0 0 C1.010625 0.0825 2.02125 0.165 3.0625 0.25 C5.0625 3.25 5.0625 3.25 4.8125 5.3125 C4.0625 7.25 4.0625 7.25 2.0625 9.25 C-0.5625 8.875 -0.5625 8.875 -2.9375 8.25 C-3.31813221 5.9239143 -3.65019945 3.58944736 -3.9375 1.25 C-2.9375 0.25 -2.9375 0.25 0 0 Z " fill="#8A76A6" transform="translate(55.9375,373.75)"/>
<path d="M0 0 C2.97 0.495 2.97 0.495 6 1 C6.625 3.3125 6.625 3.3125 7 6 C6.01 7.485 6.01 7.485 5 9 C2.03 8.505 2.03 8.505 -1 8 C-1.625 5.6875 -1.625 5.6875 -2 3 C-1.34 2.01 -0.68 1.02 0 0 Z " fill="#8A76A6" transform="translate(458,299)"/>
<path d="M0 0 C3.125 0.375 3.125 0.375 6 1 C6.625 3.3125 6.625 3.3125 7 6 C6.01 7.485 6.01 7.485 5 9 C2.375 9.1875 2.375 9.1875 0 9 C-0.66 6.69 -1.32 4.38 -2 2 C-1.34 1.34 -0.68 0.68 0 0 Z " fill="#8A76A6" transform="translate(33,141)"/>
<path d="M0 0 C2 3 2 3 1.75 5.0625 C1 7 1 7 -1 9 C-3.26274788 8.64644564 -4.95088852 8.02455574 -7 7 C-7 5.02 -7 3.04 -7 1 C-4.46578263 -0.26710868 -2.80561762 -0.28056176 0 0 Z " fill="#8A76A6" transform="translate(72,87)"/>
<path d="M0 0 C1 1 1 1 1.0625 3.5625 C1.041875 4.366875 1.02125 5.17125 1 6 C0.34 6 -0.32 6 -1 6 C-1 6.66 -1 7.32 -1 8 C-3.375 8.1875 -3.375 8.1875 -6 8 C-8 5 -8 5 -7.75 2.375 C-7.5025 1.59125 -7.255 0.8075 -7 0 C-4.31633121 -1.3418344 -2.84719317 -0.73004953 0 0 Z " fill="#8A76A6" transform="translate(90,69)"/>
<path d="M0 0 C5.56818182 0.56818182 5.56818182 0.56818182 7 2 C7.04080783 3.99958364 7.04254356 6.00045254 7 8 C4.6875 8.625 4.6875 8.625 2 9 C-1 7 -1 7 -1.8125 4.5 C-1.874375 3.675 -1.93625 2.85 -2 2 C-1.34 1.34 -0.68 0.68 0 0 Z " fill="#8A76A6" transform="translate(325,26)"/>
<path d="M0 0 C3.125 -0.1875 3.125 -0.1875 6 0 C7.125 2.3125 7.125 2.3125 8 5 C7.01 6.485 7.01 6.485 6 8 C2.875 8.1875 2.875 8.1875 0 8 C-1.125 5.6875 -1.125 5.6875 -2 3 C-1.34 2.01 -0.68 1.02 0 0 Z " fill="#8A76A6" transform="translate(229,464)"/>
<path d="M0 0 C1.99954746 -0.04254356 4.00041636 -0.04080783 6 0 C7 1 7 1 7.0625 4.5625 C7.041875 5.696875 7.02125 6.83125 7 8 C4.69 8 2.38 8 0 8 C-1.125 6.25 -1.125 6.25 -2 4 C-1.125 1.75 -1.125 1.75 0 0 Z " fill="#8A76A6" transform="translate(280,462)"/>
<path d="M0 0 C0.125 2.875 0.125 2.875 0 6 C-2 8 -2 8 -4.625 8.125 C-5.40875 8.08375 -6.1925 8.0425 -7 8 C-8.35439668 5.29120665 -8.06501451 2.99066732 -8 0 C-5.13822943 -1.43088528 -3.06624227 -0.59991697 0 0 Z " fill="#8A76A6" transform="translate(115,428)"/>
<path d="M0 0 C0.125 2.375 0.125 2.375 0 5 C-0.66 5.66 -1.32 6.32 -2 7 C-5.625 6.625 -5.625 6.625 -9 6 C-9 4.02 -9 2.04 -9 0 C-5.93109813 -1.53445094 -3.29905734 -0.54984289 0 0 Z " fill="#8A76A6" transform="translate(105,421)"/>
<path d="M0 0 C1.98 0 3.96 0 6 0 C6.33 2.31 6.66 4.62 7 7 C6.34 7 5.68 7 5 7 C5 7.66 5 8.32 5 9 C3.33388095 9.042721 1.66617115 9.04063832 0 9 C-1 8 -1 8 -1.125 5.0625 C-1 2 -1 2 0 0 Z " fill="#8A76A6" transform="translate(61,384)"/>
<path d="M0 0 C2.31 0.33 4.62 0.66 7 1 C7.125 3.875 7.125 3.875 7 7 C6.34 7.66 5.68 8.32 5 9 C1.70720291 8.68134222 0.13464912 7.45484649 -2 5 C-1.34 3.35 -0.68 1.7 0 0 Z " fill="#8A76A6" transform="translate(420,380)"/>
<path d="M0 0 C3.0625 -0.25 3.0625 -0.25 6 0 C7 1 7 1 7.0625 4.5625 C7.041875 5.696875 7.02125 6.83125 7 8 C4.69 8 2.38 8 0 8 C-1.125 5.6875 -1.125 5.6875 -2 3 C-1.34 2.01 -0.68 1.02 0 0 Z " fill="#8A76A6" transform="translate(14,267)"/>
<path d="M0 0 C1 1 1 1 1.0625 3.5625 C1.041875 4.366875 1.02125 5.17125 1 6 C-1.35438733 7.42944945 -2.48032433 8.08661261 -5.25 7.625 C-5.8275 7.41875 -6.405 7.2125 -7 7 C-7.93423645 3.98968256 -8.04449911 3.13349732 -7 0 C-4.31633121 -1.3418344 -2.84719317 -0.73004953 0 0 Z " fill="#8A76A6" transform="translate(470,211)"/>
<path d="M0 0 C2.64 0 5.28 0 8 0 C8.04241723 2.33294775 8.04092937 4.66702567 8 7 C7 8 7 8 3.9375 8.0625 C2.968125 8.041875 1.99875 8.02125 1 8 C-1.125 3.375 -1.125 3.375 0 0 Z " fill="#8A76A6" transform="translate(461,198)"/>
<path d="M0 0 C0.125 2.875 0.125 2.875 0 6 C-0.66 6.66 -1.32 7.32 -2 8 C-5.125 7.625 -5.125 7.625 -8 7 C-8.6875 4.6875 -8.6875 4.6875 -9 2 C-6.73607469 -1.99516231 -4.01344788 -0.98106504 0 0 Z " fill="#8A76A6" transform="translate(25,191)"/>
<path d="M0 0 C0.94875 0.04125 1.8975 0.0825 2.875 0.125 C3.25563221 2.4510857 3.58769945 4.78555264 3.875 7.125 C2.875 8.125 2.875 8.125 -0.6875 8.1875 C-1.821875 8.166875 -2.95625 8.14625 -4.125 8.125 C-4.75 5.25 -4.75 5.25 -5.125 2.125 C-3.125 0.125 -3.125 0.125 0 0 Z " fill="#8A76A6" transform="translate(463.125,184.875)"/>
<path d="M0 0 C2.31 0 4.62 0 7 0 C7.79953138 3.28696233 8.09658936 4.71023192 7 8 C4.125 8.125 4.125 8.125 1 8 C0.34 7.34 -0.32 6.68 -1 6 C-0.625 2.875 -0.625 2.875 0 0 Z " fill="#8A76A6" transform="translate(20,178)"/>
<path d="M0 0 C2.375 0.75 2.375 0.75 3.375 1.75 C3.41580783 3.74958364 3.41754356 5.75045254 3.375 7.75 C0.08803767 8.54953138 -1.33523192 8.84658936 -4.625 7.75 C-5.3125 5.4375 -5.3125 5.4375 -5.625 2.75 C-3.9659358 -0.015107 -3.22812218 -0.30744021 0 0 Z " fill="#8A76A6" transform="translate(27.625,165.25)"/>
<path d="M0 0 C0.94875 0.04125 1.8975 0.0825 2.875 0.125 C3.205 2.435 3.535 4.745 3.875 7.125 C-2.875 8.25 -2.875 8.25 -5.125 7.125 C-5.25 4.75 -5.25 4.75 -5.125 2.125 C-3.125 0.125 -3.125 0.125 0 0 Z " fill="#8A76A6" transform="translate(435.125,113.875)"/>
<path d="M0 0 C2.64 0 5.28 0 8 0 C8.125 5.75 8.125 5.75 7 8 C5.02 8 3.04 8 1 8 C0.26919734 6.02253397 -0.39421747 4.01927511 -1 2 C-0.67 1.34 -0.34 0.68 0 0 Z " fill="#8A76A6" transform="translate(287,17)"/>
<path d="M0 0 C2.31 0 4.62 0 7 0 C7.625 2.3125 7.625 2.3125 8 5 C7.01 6.485 7.01 6.485 6 8 C3.5 8.3125 3.5 8.3125 1 8 C0.34 7.34 -0.32 6.68 -1 6 C-0.625 2.875 -0.625 2.875 0 0 Z " fill="#8A76A6" transform="translate(203,462)"/>
<path d="M0 0 C1.99954746 -0.04254356 4.00041636 -0.04080783 6 0 C7 1 7 1 7.0625 4.0625 C7.041875 5.031875 7.02125 6.00125 7 7 C4.29120665 8.35439668 1.99066732 8.06501451 -1 8 C-1.93065133 5.39417629 -2.14917407 4.35801776 -1.0625 1.75 C-0.711875 1.1725 -0.36125 0.595 0 0 Z " fill="#8A76A6" transform="translate(293,460)"/>
<path d="M0 0 C1.99954746 -0.04254356 4.00041636 -0.04080783 6 0 C7 1 7 1 7.125 4 C7 7 7 7 6 8 C4.00041636 8.04080783 1.99954746 8.04254356 0 8 C-1.125 6.25 -1.125 6.25 -2 4 C-1.125 1.75 -1.125 1.75 0 0 Z " fill="#8A76A6" transform="translate(305,457)"/>
<path d="M0 0 C2.9375 0.1875 2.9375 0.1875 3.9375 1.1875 C4.0625 4.1875 4.0625 4.1875 3.9375 7.1875 C2.9375 8.1875 2.9375 8.1875 -0.125 8.25 C-1.094375 8.229375 -2.06375 8.20875 -3.0625 8.1875 C-3.7225 6.2075 -4.3825 4.2275 -5.0625 2.1875 C-3.0625 0.1875 -3.0625 0.1875 0 0 Z " fill="#8A76A6" transform="translate(169.0625,453.8125)"/>
<path d="M0 0 C2.5625 0.1875 2.5625 0.1875 4.5625 2.1875 C4.8125 4.6875 4.8125 4.6875 4.5625 7.1875 C3.9025 7.8475 3.2425 8.5075 2.5625 9.1875 C-1.99305556 8.63194444 -1.99305556 8.63194444 -3.4375 7.1875 C-3.5625 4.1875 -3.5625 4.1875 -3.4375 1.1875 C-2.4375 0.1875 -2.4375 0.1875 0 0 Z " fill="#8A76A6" transform="translate(414.4375,389.8125)"/>
<path d="M0 0 C1.2684375 0.12375 1.2684375 0.12375 2.5625 0.25 C4.7144437 3.47791555 4.76336443 4.53400809 4.5625 8.25 C1.6875 8.875 1.6875 8.875 -1.4375 9.25 C-3.4375 7.25 -3.4375 7.25 -3.625 4.1875 C-3.37983937 0.34665019 -3.37983937 0.34665019 0 0 Z " fill="#8A76A6" transform="translate(42.4375,351.75)"/>
<path d="M0 0 C2.31 0 4.62 0 7 0 C7.33 1.98 7.66 3.96 8 6 C5 8 5 8 1.8125 7.625 C0.884375 7.41875 -0.04375 7.2125 -1 7 C-0.67 4.69 -0.34 2.38 0 0 Z " fill="#8A76A6" transform="translate(34,341)"/>
<path d="M0 0 C2.9375 0.1875 2.9375 0.1875 3.9375 1.1875 C4.0625 4.1875 4.0625 4.1875 3.9375 7.1875 C2.9375 8.1875 2.9375 8.1875 -0.125 8.25 C-1.094375 8.229375 -2.06375 8.20875 -3.0625 8.1875 C-3.7225 6.2075 -4.3825 4.2275 -5.0625 2.1875 C-3.0625 0.1875 -3.0625 0.1875 0 0 Z " fill="#8A76A6" transform="translate(453.0625,323.8125)"/>
<path d="M0 0 C1.99954746 -0.04254356 4.00041636 -0.04080783 6 0 C7 1 7 1 7.125 4 C7 7 7 7 6 8 C4.00041636 8.04080783 1.99954746 8.04254356 0 8 C-1.125 6.25 -1.125 6.25 -2 4 C-1.125 1.75 -1.125 1.75 0 0 Z " fill="#8A76A6" transform="translate(25,317)"/>
<path d="M0 0 C2.9375 0.1875 2.9375 0.1875 3.9375 1.1875 C4.0625 4.1875 4.0625 4.1875 3.9375 7.1875 C2.9375 8.1875 2.9375 8.1875 -0.125 8.25 C-1.094375 8.229375 -2.06375 8.20875 -3.0625 8.1875 C-3.7225 6.2075 -4.3825 4.2275 -5.0625 2.1875 C-3.0625 0.1875 -3.0625 0.1875 0 0 Z " fill="#8A76A6" transform="translate(457.0625,311.8125)"/>
<path d="M0 0 C2.33294775 -0.04241723 4.66702567 -0.04092937 7 0 C8 1 8 1 8.0625 4.0625 C8.041875 5.031875 8.02125 6.00125 8 7 C5.69 7.33 3.38 7.66 1 8 C-1.125 3.375 -1.125 3.375 0 0 Z " fill="#8A76A6" transform="translate(15,280)"/>
<path d="M0 0 C2.97 0.495 2.97 0.495 6 1 C6.93065133 3.60582371 7.14917407 4.64198224 6.0625 7.25 C5.711875 7.8275 5.36125 8.405 5 9 C2.03 8.505 2.03 8.505 -1 8 C-1.625 5.6875 -1.625 5.6875 -2 3 C-1.34 2.01 -0.68 1.02 0 0 Z " fill="#8A76A6" transform="translate(463,274)"/>
<path d="M0 0 C3.0625 -0.25 3.0625 -0.25 6 0 C7 1 7 1 7.125 4 C7 7 7 7 6 8 C4.00041636 8.04080783 1.99954746 8.04254356 0 8 C-1.125 5.6875 -1.125 5.6875 -2 3 C-1.34 2.01 -0.68 1.02 0 0 Z " fill="#8A76A6" transform="translate(465,249)"/>
<path d="M0 0 C3.0625 -0.25 3.0625 -0.25 6 0 C7 1 7 1 7.125 4 C7 7 7 7 6 8 C4.00041636 8.04080783 1.99954746 8.04254356 0 8 C-1.125 5.6875 -1.125 5.6875 -2 3 C-1.34 2.01 -0.68 1.02 0 0 Z " fill="#8A76A6" transform="translate(465,236)"/>
<path d="M0 0 C1.98 0 3.96 0 6 0 C6.38063221 2.3260857 6.71269945 4.66055264 7 7 C6 8 6 8 2.4375 8.0625 C1.303125 8.041875 0.16875 8.02125 -1 8 C-1.93065133 5.39417629 -2.14917407 4.35801776 -1.0625 1.75 C-0.711875 1.1725 -0.36125 0.595 0 0 Z " fill="#8A76A6" transform="translate(465,223)"/>
<path d="M0 0 C1.4540625 0.0309375 1.4540625 0.0309375 2.9375 0.0625 C3.31813221 2.3885857 3.65019945 4.72305264 3.9375 7.0625 C2.9375 8.0625 2.9375 8.0625 0 8.25 C-3.0625 8.0625 -3.0625 8.0625 -5.0625 6.0625 C-4.33395709 0.0884481 -4.33395709 0.0884481 0 0 Z " fill="#8A76A6" transform="translate(460.0625,172.9375)"/>
<path d="M0 0 C1.4540625 0.0309375 1.4540625 0.0309375 2.9375 0.0625 C3.5975 1.7125 4.2575 3.3625 4.9375 5.0625 C3.6175 6.3825 2.2975 7.7025 0.9375 9.0625 C-1.5375 8.0725 -1.5375 8.0725 -4.0625 7.0625 C-4.10504356 5.06295254 -4.10330783 3.06208364 -4.0625 1.0625 C-3.0625 0.0625 -3.0625 0.0625 0 0 Z " fill="#8A76A6" transform="translate(117.0625,44.9375)"/>
<path d="M0 0 C1.1446875 0.3403125 1.1446875 0.3403125 2.3125 0.6875 C2.9375 3 2.9375 3 3.3125 5.6875 C2.3225 7.1725 2.3225 7.1725 1.3125 8.6875 C-1.6575 8.1925 -1.6575 8.1925 -4.6875 7.6875 C-5.375 5.375 -5.375 5.375 -5.6875 2.6875 C-4.0011022 -0.12316299 -3.27764429 -0.38112143 0 0 Z " fill="#8A76A6" transform="translate(316.6875,22.3125)"/>
<path d="M0 0 C1.4540625 0.0309375 1.4540625 0.0309375 2.9375 0.0625 C3.31813221 2.3885857 3.65019945 4.72305264 3.9375 7.0625 C2.9375 8.0625 2.9375 8.0625 0 8.25 C-3.0625 8.0625 -3.0625 8.0625 -5.0625 6.0625 C-4.33395709 0.0884481 -4.33395709 0.0884481 0 0 Z " fill="#8A76A6" transform="translate(176.0625,19.9375)"/>
<path d="M0 0 C2.00720923 0.28674418 4.0085944 0.61866701 6 1 C6.93423645 4.01031744 7.04449911 4.86650268 6 8 C3.6875 8.625 3.6875 8.625 1 9 C0.01 8.34 -0.98 7.68 -2 7 C-1.125 1.125 -1.125 1.125 0 0 Z " fill="#8A76A6" transform="translate(301,19)"/>
<path d="M0 0 C1.99954746 -0.04254356 4.00041636 -0.04080783 6 0 C7 1 7 1 7.125 4 C7 7 7 7 6 8 C4.00041636 8.04080783 1.99954746 8.04254356 0 8 C-1.125 6.25 -1.125 6.25 -2 4 C-1.125 1.75 -1.125 1.75 0 0 Z " fill="#8A76A6" transform="translate(185,17)"/>
<path d="M0 0 C3 0.125 3 0.125 4 1.125 C4.04080783 3.12458364 4.04254356 5.12545254 4 7.125 C1.6875 8.25 1.6875 8.25 -1 9.125 C-1.99 8.465 -2.98 7.805 -4 7.125 C-4.25 4.0625 -4.25 4.0625 -4 1.125 C-3 0.125 -3 0.125 0 0 Z " fill="#8A76A6" transform="translate(239,11.875)"/>
<path d="M0 0 C2.375 0.25 2.375 0.25 3.375 1.25 C3.41592937 3.58297433 3.41741723 5.91705225 3.375 8.25 C1.065 8.25 -1.245 8.25 -3.625 8.25 C-4.285 6.6 -4.945 4.95 -5.625 3.25 C-3.7774876 0.91630013 -3.0311278 0.28867884 0 0 Z " fill="#8A76A6" transform="translate(219.625,462.75)"/>
<path d="M0 0 C2.5 0.25 2.5 0.25 4.5 2.25 C3.94444444 6.80555556 3.94444444 6.80555556 2.5 8.25 C0.16055264 7.96269945 -2.1739143 7.63063221 -4.5 7.25 C-4.625 4.875 -4.625 4.875 -4.5 2.25 C-2.5 0.25 -2.5 0.25 0 0 Z " fill="#8A76A6" transform="translate(90.5,411.75)"/>
<path d="M0 0 C2.625 0.625 2.625 0.625 5 2 C5.9375 3.9375 5.9375 3.9375 6 6 C5.01 7.485 5.01 7.485 4 9 C1.69 8.67 -0.62 8.34 -3 8 C-3.1875 5.125 -3.1875 5.125 -3 2 C-2.01 1.34 -1.02 0.68 0 0 Z " fill="#8A76A6" transform="translate(429,369)"/>
<path d="M0 0 C2.875 -0.125 2.875 -0.125 6 0 C6.66 0.66 7.32 1.32 8 2 C7.625 5.125 7.625 5.125 7 8 C4.125 8.125 4.125 8.125 1 8 C0.34 7.34 -0.32 6.68 -1 6 C-0.625 2.875 -0.625 2.875 0 0 Z " fill="#8A76A6" transform="translate(460,287)"/>
<path d="M0 0 C2.33294775 -0.04241723 4.66702567 -0.04092937 7 0 C8 1 8 1 8.125 4 C8 7 8 7 7 8 C4.625 8.3125 4.625 8.3125 2 8 C0.125 6.25 0.125 6.25 -1 4 C-0.6875 1.75 -0.6875 1.75 0 0 Z " fill="#8A76A6" transform="translate(463,262)"/>
<path d="M0 0 C3.0625 -0.25 3.0625 -0.25 6 0 C7 1 7 1 7.125 4 C7 7 7 7 6 8 C4.00041636 8.04080783 1.99954746 8.04254356 0 8 C-1.125 5.6875 -1.125 5.6875 -2 3 C-1.34 2.01 -0.68 1.02 0 0 Z " fill="#8A76A6" transform="translate(14,216)"/>
<path d="M0 0 C2.5 -0.3125 2.5 -0.3125 5 0 C5.66 0.66 6.32 1.32 7 2 C6.625 5.125 6.625 5.125 6 8 C3.69 8 1.38 8 -1 8 C-1.625 5.6875 -1.625 5.6875 -2 3 C-1.34 2.01 -0.68 1.02 0 0 Z " fill="#8A76A6" transform="translate(16,203)"/>
<path d="M0 0 C1.98 0 3.96 0 6 0 C6.33 2.31 6.66 4.62 7 7 C5.35 7.66 3.7 8.32 2 9 C0.68 7.68 -0.64 6.36 -2 5 C-1.34 3.35 -0.68 1.7 0 0 Z " fill="#8A76A6" transform="translate(425,103)"/>
<path d="M0 0 C2.31 0 4.62 0 7 0 C7.04241723 2.33294775 7.04092937 4.66702567 7 7 C6 8 6 8 3.625 8.3125 C1 8 1 8 -0.8125 6 C-1.204375 5.34 -1.59625 4.68 -2 4 C-1.34 2.68 -0.68 1.36 0 0 Z " fill="#8A76A6" transform="translate(275,15)"/>
<path d="M0 0 C2.33294775 -0.04241723 4.66702567 -0.04092937 7 0 C8 1 8 1 8.1875 3.4375 C8 6 8 6 6 8 C3.375 8.125 3.375 8.125 1 8 C-1.125 3.375 -1.125 3.375 0 0 Z " fill="#8A76A6" transform="translate(197,15)"/>
<path d="M0 0 C2.5 -0.3125 2.5 -0.3125 5 0 C5.66 0.66 6.32 1.32 7 2 C6.625 5.125 6.625 5.125 6 8 C3.69 8 1.38 8 -1 8 C-1.625 5.6875 -1.625 5.6875 -2 3 C-1.34 2.01 -0.68 1.02 0 0 Z " fill="#8A76A6" transform="translate(263,13)"/>
<path d="M0 0 C0 2.31 0 4.62 0 7 C-1.98 7.33 -3.96 7.66 -6 8 C-8 5 -8 5 -7.75 2.375 C-7.5025 1.59125 -7.255 0.8075 -7 0 C-4.3333581 -1.33332095 -2.83319697 -0.67102033 0 0 Z " fill="#8A76A6" transform="translate(274,464)"/>
<path d="M0 0 C2.875 -0.125 2.875 -0.125 6 0 C8 2 8 2 8.125 4.625 C8.08375 5.40875 8.0425 6.1925 8 7 C5.6875 8.125 5.6875 8.125 3 9 C2.01 8.34 1.02 7.68 0 7 C-0.1875 3.375 -0.1875 3.375 0 0 Z " fill="#8A76A6" transform="translate(374,425)"/>
<path d="M0 0 C3.0625 -0.25 3.0625 -0.25 6 0 C7 1 7 1 7.125 4 C7 7 7 7 6 8 C3.66055264 7.71269945 1.3260857 7.38063221 -1 7 C-1.625 5.1875 -1.625 5.1875 -2 3 C-1.34 2.01 -0.68 1.02 0 0 Z " fill="#8A76A6" transform="translate(13,229)"/>
<path d="M0 0 C1.010625 0.0825 2.02125 0.165 3.0625 0.25 C5.0625 3.25 5.0625 3.25 4.75 5.375 C4.0625 7.25 4.0625 7.25 3.0625 8.25 C0.625 8.4375 0.625 8.4375 -1.9375 8.25 C-3.9375 6.25 -3.9375 6.25 -4.125 3.6875 C-3.85121288 0.1282675 -3.61900269 0.30800023 0 0 Z " fill="#8A76A6" transform="translate(419.9375,92.75)"/>
<path d="M0 0 C2.33294775 -0.04241723 4.66702567 -0.04092937 7 0 C8 1 8 1 8.125 4 C8 7 8 7 7 8 C5.00041636 8.04080783 2.99954746 8.04254356 1 8 C-0.35439668 5.29120665 -0.06501451 2.99066732 0 0 Z " fill="#8A76A6" transform="translate(399,74)"/>
<path d="M0 0 C2.31 0.33 4.62 0.66 7 1 C6.67 3.31 6.34 5.62 6 8 C3.69 7.67 1.38 7.34 -1 7 C-1.625 5.1875 -1.625 5.1875 -2 3 C-1.34 2.01 -0.68 1.02 0 0 Z " fill="#8A76A6" transform="translate(119,434)"/>
<path d="M0 0 C2.4375 0.1875 2.4375 0.1875 3.4375 1.1875 C3.5625 4.1875 3.5625 4.1875 3.4375 7.1875 C2.4375 8.1875 2.4375 8.1875 -1.125 8.25 C-2.259375 8.229375 -3.39375 8.20875 -4.5625 8.1875 C-4.6875 5.3125 -4.6875 5.3125 -4.5625 2.1875 C-2.5625 0.1875 -2.5625 0.1875 0 0 Z " fill="#8A76A6" transform="translate(16.5625,253.8125)"/>
<path d="M0 0 C2.6875 0.875 2.6875 0.875 5 2 C4.67 4.31 4.34 6.62 4 9 C1.69 8.67 -0.62 8.34 -3 8 C-3.1875 5.125 -3.1875 5.125 -3 2 C-2.01 1.34 -1.02 0.68 0 0 Z " fill="#8A76A6" transform="translate(53,107)"/>
<path d="M0 0 C2.31 0 4.62 0 7 0 C7 2.64 7 5.28 7 8 C3.98968256 8.93423645 3.13349732 9.04449911 0 8 C0 5.36 0 2.72 0 0 Z " fill="#8A76A6" transform="translate(408,83)"/>
<path d="M0 0 C0.7425 0.2475 1.485 0.495 2.25 0.75 C2.29254356 2.74954746 2.29080783 4.75041636 2.25 6.75 C1.25 7.75 1.25 7.75 -2.3125 7.8125 C-3.446875 7.791875 -4.58125 7.77125 -5.75 7.75 C-6.5 6 -6.5 6 -6.75 3.75 C-4.62771652 0.72982736 -3.76812267 -0.34255661 0 0 Z " fill="#8A76A6" transform="translate(227.75,12.25)"/>
<path d="M0 0 C2.625 -0.1875 2.625 -0.1875 5 0 C6.42944945 2.35438733 7.08661261 3.48032433 6.625 6.25 C6.41875 6.8275 6.2125 7.405 6 8 C4.02 8 2.04 8 0 8 C-1.125 5.6875 -1.125 5.6875 -2 3 C-1.34 2.01 -0.68 1.02 0 0 Z " fill="#8A76A6" transform="translate(255,464)"/>
<path d="M0 0 C2.4375 0.1875 2.4375 0.1875 3.4375 1.1875 C3.47842937 3.52047433 3.47991723 5.85455225 3.4375 8.1875 C1.1275 8.1875 -1.1825 8.1875 -3.5625 8.1875 C-4.1875 5.3125 -4.1875 5.3125 -4.5625 2.1875 C-2.5625 0.1875 -2.5625 0.1875 0 0 Z " fill="#8A76A6" transform="translate(213.5625,12.8125)"/>
<path d="M0 0 C5.875 0.875 5.875 0.875 7 2 C7.125 4.5 7.125 4.5 7 7 C6 8 6 8 2.9375 8.0625 C1.968125 8.041875 0.99875 8.02125 0 8 C-1.125 5.6875 -1.125 5.6875 -2 3 C-1.34 2.01 -0.68 1.02 0 0 Z " fill="#8A76A6" transform="translate(250,12)"/>
<path d="M0 0 C2.5625 0.1875 2.5625 0.1875 4.5625 2.1875 C4.875 4.6875 4.875 4.6875 4.5625 7.1875 C1.5625 9.1875 1.5625 9.1875 -0.625 8.8125 C-1.223125 8.60625 -1.82125 8.4 -2.4375 8.1875 C-2.81813221 5.8614143 -3.15019945 3.52694736 -3.4375 1.1875 C-2.4375 0.1875 -2.4375 0.1875 0 0 Z " fill="#8A76A6" transform="translate(393.4375,64.8125)"/>
<path d="M0 0 C2.33944736 0.28730055 4.6739143 0.61936779 7 1 C6.67 3.31 6.34 5.62 6 8 C3.69 7.67 1.38 7.34 -1 7 C-1.04254356 5.00045254 -1.04080783 2.99958364 -1 1 C-0.67 0.67 -0.34 0.34 0 0 Z " fill="#8A76A6" transform="translate(381,57)"/>
<path d="M0 0 C2.33294775 -0.04241723 4.66702567 -0.04092937 7 0 C8 1 8 1 8.0625 4.0625 C8.041875 5.031875 8.02125 6.00125 8 7 C5.69 7 3.38 7 1 7 C-0.0625 4.625 -0.0625 4.625 -1 2 C-0.67 1.34 -0.34 0.68 0 0 Z " fill="#8A76A6" transform="translate(241,465)"/>
<path d="M0 0 C1.134375 0.020625 2.26875 0.04125 3.4375 0.0625 C4.0625 2.4375 4.0625 2.4375 4.4375 5.0625 C2.4375 7.0625 2.4375 7.0625 -0.6875 7.1875 C-2.110625 7.125625 -2.110625 7.125625 -3.5625 7.0625 C-3.94383299 5.0710944 -4.27575582 3.06970923 -4.5625 1.0625 C-3.5625 0.0625 -3.5625 0.0625 0 0 Z " fill="#8A76A6" transform="translate(397.5625,409.9375)"/>
<path d="M0 0 C3.625 -0.1875 3.625 -0.1875 7 0 C7.625 1.8125 7.625 1.8125 8 4 C7.01 5.485 7.01 5.485 6 7 C2.375 7.1875 2.375 7.1875 -1 7 C-1.625 5.1875 -1.625 5.1875 -2 3 C-1.34 2.01 -0.68 1.02 0 0 Z " fill="#8A76A6" transform="translate(13,242)"/>
<path d="M0 0 C0 2.31 0 4.62 0 7 C-1.65 7.33 -3.3 7.66 -5 8 C-7 2.25 -7 2.25 -7 0 C-4.3333581 -1.33332095 -2.83319697 -0.67102033 0 0 Z " fill="#8A76A6" transform="translate(84,404)"/>
<path d="M0 0 C1.134375 0.020625 2.26875 0.04125 3.4375 0.0625 C3.81968767 1.71864657 4.15145102 3.38707024 4.4375 5.0625 C3.4375 6.0625 3.4375 6.0625 -0.125 6.125 C-1.259375 6.104375 -2.39375 6.08375 -3.5625 6.0625 C-3.94468767 4.40635343 -4.27645102 2.73792976 -4.5625 1.0625 C-3.5625 0.0625 -3.5625 0.0625 0 0 Z " fill="#8A76A6" transform="translate(406.5625,400.9375)"/>
<path d="M0 0 C0.33 0.99 0.66 1.98 1 3 C1.66 3 2.32 3 3 3 C2.54965877 4.62723299 2.08944646 6.25173664 1.625 7.875 C1.36976562 8.77992188 1.11453125 9.68484375 0.8515625 10.6171875 C0 13 0 13 -2 15 C-1.03644647 4.44191344 -1.03644647 4.44191344 0 0 Z " fill="#D3CCDD" transform="translate(79,168)"/>
</svg>
