<?xml version="1.0" encoding="UTF-8"?>
<svg version="1.1" xmlns="http://www.w3.org/2000/svg" width="484" height="485">
<path d="M0 0 C0.80859375 2.10546875 0.80859375 2.10546875 1 5 C-0.55994104 7.37247495 -2.03497557 9.24462869 -3.9375 11.3125 C-4.46730469 11.9098999 -4.99710937 12.5072998 -5.54296875 13.12280273 C-10.66661004 18.81712482 -16.08850819 24.22921089 -21.56616211 29.58129883 C-24.95962951 32.90140763 -28.13687523 36.19467345 -31 40 C-21.23601144 37.21276213 -12.21992095 33.35508197 -4.359375 26.796875 C-1.40173607 24.54436853 0.37082523 24.66240235 4 25 C4.28825361 30.42760455 3.40126937 34.74144251 1.4375 39.75 C1.16719971 40.44883301 0.89689941 41.14766602 0.6184082 41.86767578 C-3.63663819 52.46813777 -10.03224104 60.87901491 -18 69 C-18.61359375 69.63808594 -19.2271875 70.27617188 -19.859375 70.93359375 C-27.30055129 78.072671 -37.11620327 82.41888111 -47 85 C-46.23785959 87.2532847 -45.46573033 89.50227458 -44.6875 91.75 C-44.36749023 92.70132813 -44.36749023 92.70132813 -44.04101562 93.671875 C-42.7850693 97.27100476 -41.36615436 100.03016403 -39 103 C-39 103.66 -39 104.32 -39 105 C-31.16316815 108.19246888 -24.09062187 108.4395148 -15.6875 108.5 C-4.3031941 108.58270902 6.08943896 108.95065531 16 115 C16.66 115 17.32 115 18 115 C19.58455866 113.21276059 19.58455866 113.21276059 21.125 111 C21.66382813 110.2575 22.20265625 109.515 22.7578125 108.75 C23.16773438 108.1725 23.57765625 107.595 24 107 C23.505 106.01 23.01 105.02 22.5 104 C20.70007639 99.75424719 20.47288911 96.59339493 21 92 C23.04305692 88.93541462 24.44079802 88.17846872 27.9375 87.0625 C31.80090342 86.98365503 33.04760342 87.50181828 36 90 C36.67696364 91.36148152 37.34122217 92.72931802 37.99609375 94.1015625 C39.59051891 96.70920106 40.31040023 97.80858738 43.29125977 98.63598633 C46.06455193 98.75275925 48.73246995 98.64877637 51.5 98.4375 C53.36440505 98.34902411 55.22899107 98.26426772 57.09375 98.18359375 C57.91552734 98.12743896 58.73730469 98.07128418 59.58398438 98.01342773 C62.18347913 97.99898026 64.47400608 98.41095756 67 99 C67.3403125 97.948125 67.3403125 97.948125 67.6875 96.875 C69.34633691 93.24135724 71.13841785 90.79799144 74 88 C77.5 86.875 77.5 86.875 81 87 C83.80189446 88.76641172 85.51524911 90.03049822 87 93 C86.94921875 94.953125 86.94921875 94.953125 86.6875 97.25 C86.55021484 98.45849609 86.55021484 98.45849609 86.41015625 99.69140625 C86 102 86 102 84.625 105.1875 C83.68283205 107.89868315 83.68283205 107.89868315 84.984375 109.62890625 C86.27258986 111.13061739 87.63386379 112.56880969 89 114 C89 114.66 89 115.32 89 116 C90.01707031 115.49339844 90.01707031 115.49339844 91.0546875 114.9765625 C91.98539063 114.53054687 92.91609375 114.08453125 93.875 113.625 C94.77992188 113.18414062 95.68484375 112.74328125 96.6171875 112.2890625 C105.91472064 108.74612262 115.33060222 108.65146781 125.16601562 108.52148438 C132.82617807 108.3208028 140.48229794 107.82373061 146.1875 102.1875 C150.307838 96.85529789 152.56315968 90.23036125 155 84 C154.00355469 83.90460938 153.00710938 83.80921875 151.98046875 83.7109375 C138.97685339 81.82294713 126.70450854 72.46708719 118.73144531 62.39794922 C113.95167452 55.94544938 110.29285177 48.93093458 107 41.625 C106.70891357 40.98344971 106.41782715 40.34189941 106.11791992 39.6809082 C104.17497727 35.11714264 103.34547167 30.95535929 103 26 C104 25 104 25 106.2890625 24.74609375 C109.5935227 25.0555893 110.79957631 26.00667933 113.375 28.0625 C117.68503305 31.24309668 122.04242165 33.67710045 126.875 35.9375 C127.51743652 36.24373291 128.15987305 36.54996582 128.82177734 36.86547852 C132.19226427 38.40633581 134.21942848 39 138 39 C137.55197021 38.55720703 137.10394043 38.11441406 136.64233398 37.65820312 C134.57129904 35.60823317 132.50439303 33.55414567 130.4375 31.5 C129.73302734 30.80390625 129.02855469 30.1078125 128.30273438 29.390625 C124.21229218 25.31903277 120.30307978 21.1557869 116.53833008 16.78125 C113.97159401 13.80919694 111.27820151 10.95111977 108.6015625 8.078125 C106.96949733 5.96042092 106.29940347 4.63918612 106 2 C106.33 1.34 106.66 0.68 107 0 C128.44435357 -2.31970171 152.1563766 13.14929593 168.19458008 26.04199219 C178.43214302 34.54379515 188.90549762 45.60640968 190.23828125 59.48046875 C190.3697988 64.2773982 190.3452505 67.87371552 188 72.125 C185.72335055 76.52019824 185.83483245 80.54253406 186 85.375 C186.40104873 99.26244307 180.30643074 110.99142304 170.984375 121.1796875 C159.94548812 131.3059105 148.4193426 131.32255551 134.19726562 131.47851562 C123.56569998 131.70661306 110.48985164 132.20159439 101.51171875 138.640625 C97.99188611 144.13411056 99.4377652 151.76682901 100 158 C110.3096694 158.3948384 119.76154852 157.78564928 128 151 C129.6656056 149.28151803 131.19311293 147.52620082 132.67578125 145.6484375 C134.01896288 143.97639429 135.45991628 142.4904036 137 141 C139.24979588 144.60325874 139.29896807 147.68010034 139.3125 151.875 C139.32925781 153.06867188 139.34601563 154.26234375 139.36328125 155.4921875 C138.66329621 162.25118281 135.42183264 166.18383854 130.38671875 170.390625 C123.07745873 175.31929133 114.37753844 177.15799493 105.6875 177.0625 C104.61886719 177.05347656 103.55023438 177.04445312 102.44921875 177.03515625 C101.64097656 177.02355469 100.83273437 177.01195312 100 177 C100 180.3 100 183.6 100 187 C109.87447589 189.66454111 116.6550469 189.26252937 125.765625 184.41015625 C128.65823136 182.58457776 130.70050246 180.51507543 133 178 C133.66 178 134.32 178 135 178 C135.39550695 186.3056459 134.51426823 193.17502226 129.25 199.875 C124.22334296 205.26337678 117.72986966 206.85767052 110.51953125 207.1328125 C108.68455078 207.12894531 108.68455078 207.12894531 106.8125 207.125 C105.58144531 207.12757813 104.35039062 207.13015625 103.08203125 207.1328125 C100 207 100 207 98 206 C97.01 213.425 97.01 213.425 96 221 C108.18977876 221.40974046 115.96907647 221.57073583 125.4375 213.25 C126.07558594 212.63640625 126.71367187 212.0228125 127.37109375 211.390625 C129 210 129 210 131 210 C131.70630162 225.69559151 131.70630162 225.69559151 126.5234375 231.71484375 C119.17786171 238.57406863 110.79389598 239.83356778 101 240 C97.94943187 239.8149867 95.02671978 239.45400797 92 239 C91.67 242.96 91.34 246.92 91 251 C97.47746708 253.87887426 105.15113349 254.43201258 111.82421875 251.94921875 C113.48775255 251.10626216 115.13195741 250.22313124 116.74609375 249.2890625 C119.09857019 247.94362537 121.46746748 246.9558412 124 246 C122.91701026 254.80641657 121.7132662 260.44818015 115.125 266.75 C109.87939217 270.52683764 105.3297476 271.26401221 98.9375 271.1875 C97.75027344 271.18105469 96.56304687 271.17460937 95.33984375 271.16796875 C92.43880593 271.0220686 89.81991265 270.66633097 87 270 C86.76925781 271.03898437 86.53851563 272.07796875 86.30078125 273.1484375 C82.52306703 289.54411072 82.52306703 289.54411072 78 296 C77.29875 296.41378906 76.5975 296.82757813 75.875 297.25390625 C73.59941076 298.99946553 73.59941076 298.99946553 73.53125 302.6953125 C73.50785729 304.17172643 73.49809635 305.64840198 73.5 307.125 C73.30862794 313.71208174 72.92475806 319.43562262 69 325 C68.0925 325.721875 67.185 326.44375 66.25 327.1875 C62.89025857 331.38717679 63.88811924 335.2716635 64.0625 340.4921875 C63.92586368 348.16090091 60.0847453 353.66246322 54.9921875 359.1484375 C50.7911964 363.05288805 46.17905852 366.24571051 40.75 368.125 C37.37707766 370.42471977 37.0719224 371.96747642 35.6875 375.75 C33.20850765 382.34204717 29.96799711 385.43172201 24 389 C22.96875 389.639375 21.9375 390.27875 20.875 390.9375 C13.1748981 393.82056141 3.56390986 392.73301716 -4.0625 390.25 C-8.29402771 388.8496368 -8.29402771 388.8496368 -12.5 390.75 C-13.325 391.4925 -14.15 392.235 -15 393 C-21.79561161 395.26520387 -28.03720012 394.25301428 -34.5078125 391.390625 C-41.67162457 387.39326278 -47.42321795 381.9031791 -50 374 C-50.52067036 371.63454067 -50.7981295 369.42244605 -51 367 C-51.556875 366.87625 -52.11375 366.7525 -52.6875 366.625 C-60.26425026 364.57722966 -65.19432698 360.55401525 -69.31640625 353.86328125 C-71.29473114 349.79713009 -72.20213916 346.03008965 -72.8125 341.5625 C-73.78807588 335.14899192 -77.0882623 331.00976933 -81 326 C-82.60725635 322.78548731 -82.05748185 319.56387464 -82 316 C-83.0828125 315.690625 -83.0828125 315.690625 -84.1875 315.375 C-87.98456 313.51865956 -89.4981308 311.40532197 -92 308 C-94.16535827 301.50392518 -93.44163988 295.63083236 -90.484375 289.5234375 C-87.94302982 285.2031507 -84.94117879 281.2084367 -81.92578125 277.2109375 C-79.81511678 273.6917363 -79.30163081 271.05923496 -79 267 C-81.97 266.34 -84.94 265.68 -88 265 C-89 261 -89 261 -88.03125 259.18359375 C-84.41723167 255.06250653 -81.44786388 252.4527637 -76 251 C-68.70030566 250.61769195 -63.74624826 252.6773718 -58 257 C-57.154375 257.556875 -56.30875 258.11375 -55.4375 258.6875 C-46.53113193 267.13713124 -41.57602236 278.50367018 -40.75 290.6875 C-40.88935565 298.8939992 -43.7385972 305.79424285 -49 312 C-49.66 312 -50.32 312 -51 312 C-50.71125 312.94875 -50.4225 313.8975 -50.125 314.875 C-49.44374335 317.12451861 -48.98216014 319.17147568 -48.73828125 321.515625 C-48.42444942 324.23821799 -48.05768305 326.46587776 -47 329 C-44.83288259 330.71581202 -42.68363725 331.78510468 -40.18359375 332.953125 C-35.96958564 334.97343658 -34.48567972 337.70711042 -32.87890625 341.984375 C-31.86426657 344.97563107 -30.90713377 347.97461238 -30 351 C-29.01 350.67 -28.02 350.34 -27 350 C-20.46638357 349.21390414 -15.46427404 350.30357932 -10 354 C-9.47664063 354.54011719 -8.95328125 355.08023437 -8.4140625 355.63671875 C-7.05739958 357.26027323 -7.05739958 357.26027323 -4.75 357 C-1.58972776 355.8508101 0.6364614 354.2356981 3.25390625 352.15625 C6.43703385 350.04840711 9.50860178 349.87514336 13.25 349.9375 C15.10625 349.9684375 15.10625 349.9684375 17 350 C16.96519531 349.29875 16.93039063 348.5975 16.89453125 347.875 C16.62466001 338.41665558 18.2471231 332.5533679 24.40234375 325.34765625 C26.23944466 323.79802345 27.65369935 323.40034072 30 323 C29.83886719 322.50242187 29.67773438 322.00484375 29.51171875 321.4921875 C28.80313341 318.04121462 28.81571749 314.63206314 28.8125 311.125 C28.80025391 310.43019531 28.78800781 309.73539062 28.77539062 309.01953125 C28.76285498 304.58191319 29.604282 301.16862676 31 297 C29.27537692 294.57183314 29.27537692 294.57183314 27 292 C24.28311912 286.10327199 23.34781288 279.7848053 22.4296875 273.40625 C22.2466309 271.05603335 22.2466309 271.05603335 21 270 C19.33171715 270.32514802 17.66542861 270.66053507 16 271 C7.52191213 271.63145709 -0.67367596 271.80790015 -8 267 C-13.36722082 261.84523167 -15.85388057 256.01828424 -16.125 248.5625 C-16.08375 247.716875 -16.0425 246.87125 -16 246 C-12.60174975 247.28258475 -9.57572067 248.80897383 -6.4375 250.625 C0.4943882 254.13757115 7.34244988 253.9753467 14.75 252 C15.4925 251.67 16.235 251.34 17 251 C16.505 245.06 16.505 245.06 16 239 C14.288125 239.20625 12.57625 239.4125 10.8125 239.625 C2.34972554 240.32605824 -7.85948324 240.10036911 -15 235 C-20.16640036 230.43817841 -22.87064965 226.26930508 -23.8671875 219.41015625 C-24.04999997 216.09264761 -23.70512715 213.24358488 -23 210 C-20 211 -20 211 -17.75 213.3125 C-12.08158328 218.85208907 -6.37670686 221.1466393 1.5 221.125 C2.90765625 221.12886719 2.90765625 221.12886719 4.34375 221.1328125 C7.2563002 221.07319033 7.2563002 221.07319033 11 220 C10.67 215.38 10.34 210.76 10 206 C9.01 206.33 8.02 206.66 7 207 C-3.39950613 207.75844925 -13.77802632 207.04740601 -22 200 C-25.94116051 194.57615209 -27.14097508 189.84190695 -27.0625 183.25 C-27.05347656 182.26515625 -27.04445313 181.2803125 -27.03515625 180.265625 C-27.02355469 179.51796875 -27.01195312 178.7703125 -27 178 C-26.5153125 178.38671875 -26.030625 178.7734375 -25.53125 179.171875 C-16.07090009 186.52183916 -8.51672485 189.72101522 3.5625 188.5625 C5.026875 188.376875 6.49125 188.19125 8 188 C8 184.37 8 180.74 8 177 C6.2675 177.061875 4.535 177.12375 2.75 177.1875 C-7.08023132 177.1643428 -17.06722829 175.11419163 -25 169 C-30.58319727 163.08699361 -32.23427534 158.33796068 -32.16796875 150.328125 C-31.92765535 146.99726956 -31.07418366 144.1554145 -30 141 C-29.34 141 -28.68 141 -28 141 C-26.90430007 142.52509585 -25.8734091 144.09701109 -24.875 145.6875 C-20.1933308 152.49807639 -15.72599958 155.63525079 -7.625 157.3125 C-2.40467627 158.09372327 2.73227024 158.20568142 8 158 C9.03271598 148.57561735 9.03271598 148.57561735 6.7578125 139.70703125 C4.91549724 138.05573947 3.24860414 137.0288816 1 136 C0.30132812 135.6803125 -0.39734375 135.360625 -1.1171875 135.03125 C-8.59380941 132.15767289 -16.57414818 131.98716924 -24.49609375 131.82421875 C-25.63240234 131.80037109 -26.76871094 131.77652344 -27.93945312 131.75195312 C-30.26739272 131.70905977 -32.59557561 131.67776827 -34.92382812 131.65820312 C-46.71478082 131.37094479 -55.2519686 128.70042132 -63.78125 120.4140625 C-73.41819493 109.92879496 -79.25337324 96.07944154 -78.9375 81.8125 C-78.88464844 80.84957031 -78.83179687 79.88664062 -78.77734375 78.89453125 C-78.82521111 75.88892386 -78.82521111 75.88892386 -80.46484375 73.07421875 C-83.84111843 66.31307837 -83.08483052 58.36190054 -80.81640625 51.33203125 C-69.63834529 27.17991392 -44.03255753 12.01220907 -20 3 C-13.15560939 0.64724073 -7.23322556 -0.3557324 0 0 Z " fill="#6F5691" transform="translate(194,49)"/>
<path d="M0 0 C1.02262939 0.47107178 1.02262939 0.47107178 2.06591797 0.95166016 C23.12851068 10.76393194 41.7563172 23.57447154 58.53662109 39.60400391 C59.5110153 40.53353111 60.4905249 41.45772582 61.47509766 42.37646484 C103.72589726 81.87086961 127.30447318 143.42462957 130.1227417 200.48510742 C130.32468715 206.53140998 130.3375585 212.57594714 130.3125 218.625 C130.30976578 220.00313873 130.30976578 220.00313873 130.30697632 221.40911865 C130.25903119 235.80483775 129.57683005 249.80936075 127 264 C126.76651855 265.39798828 126.76651855 265.39798828 126.52832031 266.82421875 C118.80472349 312.51831254 98.16030786 355.54726855 66 389 C65.43120117 389.59603027 64.86240234 390.19206055 64.27636719 390.80615234 C47.18021491 408.63342033 27.83112624 422.49976536 6 434 C5.31583008 434.36448242 4.63166016 434.72896484 3.92675781 435.10449219 C-17.77996228 446.50630668 -41.9272688 453.73316361 -66 458 C-66.81629883 458.16081055 -67.63259766 458.32162109 -68.47363281 458.48730469 C-96.64152806 463.95406307 -129.89255158 463.62693159 -158 458 C-158.93666504 457.82307617 -159.87333008 457.64615234 -160.83837891 457.46386719 C-198.57175314 450.26174961 -236.10397817 435.54122805 -266 411 C-267.53140625 409.77410156 -267.53140625 409.77410156 -269.09375 408.5234375 C-284.36797351 396.12204165 -297.63388761 382.04283467 -309 366 C-309.43860352 365.3901123 -309.87720703 364.78022461 -310.32910156 364.15185547 C-340.13953159 322.43326824 -354.52775105 271.40768138 -354.3125 220.4375 C-354.31034485 219.51524628 -354.3081897 218.59299255 -354.30596924 217.64279175 C-354.25209189 203.23994495 -353.68929265 189.18455716 -351 175 C-350.80664062 173.9495752 -350.61328125 172.89915039 -350.4140625 171.81689453 C-338.93097836 111.13198457 -306.3136392 54.54354757 -255 19 C-254.32437012 18.52804199 -253.64874023 18.05608398 -252.95263672 17.56982422 C-179.93577068 -32.91075737 -79.80287466 -37.0677108 0 0 Z M-259 32 C-259.56960449 32.46664062 -260.13920898 32.93328125 -260.72607422 33.4140625 C-273.01214201 43.55472866 -284.27249789 54.34252737 -294 67 C-294.42104004 67.54462891 -294.84208008 68.08925781 -295.27587891 68.65039062 C-319.80565109 100.56864841 -335.92406281 137.37758493 -343 177 C-343.24339111 178.27085449 -343.24339111 178.27085449 -343.49169922 179.56738281 C-348.51273916 206.46025926 -348.30889346 237.17827906 -343 264 C-342.82307617 264.90621094 -342.64615234 265.81242187 -342.46386719 266.74609375 C-338.24542624 287.75815539 -331.97609572 307.54133096 -323 327 C-322.66742188 327.72703125 -322.33484375 328.4540625 -321.9921875 329.203125 C-312.6715995 349.35984377 -299.73300725 367.4916788 -284.41210938 383.52050781 C-283.4756544 384.5016484 -282.54457769 385.48795247 -281.61914062 386.47949219 C-257.21059416 412.59216143 -223.94540167 430.66301772 -190 441 C-188.70811768 441.39759521 -188.70811768 441.39759521 -187.39013672 441.80322266 C-125.60620874 460.51093146 -54.3557788 457.30980578 3.30078125 426.9921875 C4.53490055 426.33007167 5.76799318 425.66603831 7 425 C7.5986084 424.68063477 8.1972168 424.36126953 8.81396484 424.03222656 C34.89361715 410.02925163 59.0707419 389.320906 76 365 C76.40089844 364.4328125 76.80179687 363.865625 77.21484375 363.28125 C106.80126289 321.2519443 122.55147585 270.79046458 122.3125 219.4375 C122.31067719 218.61505798 122.30885437 217.79261597 122.30697632 216.94525146 C122.25450979 202.78954208 121.39232722 188.97282102 119 175 C118.8443457 174.04657715 118.68869141 173.0931543 118.52832031 172.11083984 C113.12529399 139.95690176 101.1921658 106.56874653 82 80 C81.55333984 79.37125977 81.10667969 78.74251953 80.64648438 78.09472656 C74.14556138 68.97672022 67.18878503 60.48534657 59.39648438 52.44335938 C58.09067534 51.09371898 56.80244773 49.72712998 55.515625 48.359375 C13.56858728 4.76735541 -49.62648238 -14.7524386 -108.71875 -16.24609375 C-163.1975551 -17.0123845 -216.32157332 -3.01294615 -259 32 Z " fill="#6D5490" transform="translate(354,24)"/>
<path d="M0 0 C10.87060638 9.72519457 14.03139688 24.86633199 14.96484375 38.7578125 C15.07676775 43.46723009 15.06012482 48.17242525 15.02734375 52.8828125 C15.02283203 54.12546875 15.01832031 55.368125 15.01367188 56.6484375 C15.00199298 59.68495028 14.98471743 62.72134577 14.96484375 65.7578125 C5.86033138 66.50858427 -3.16659119 66.90711448 -12.30078125 66.890625 C-13.50023376 66.89158173 -14.69968628 66.89253845 -15.93548584 66.89352417 C-18.44624891 66.89419879 -20.95701381 66.89239519 -23.46777344 66.88818359 C-27.28975353 66.88280603 -31.11161715 66.88816292 -34.93359375 66.89453125 C-37.38932317 66.89387071 -39.84505252 66.89259005 -42.30078125 66.890625 C-43.43018127 66.89264923 -44.5595813 66.89467346 -45.72320557 66.89675903 C-52.22149377 66.87770836 -58.58419461 66.55159422 -65.03515625 65.7578125 C-65.11068372 61.47521135 -65.16438927 57.19298772 -65.19995117 52.90991211 C-65.21481326 51.46029896 -65.23510892 50.01072885 -65.26147461 48.5612793 C-65.55074239 32.22048576 -64.11305991 15.05136587 -52.7890625 2.2109375 C-48.91220012 -1.37172791 -44.98278457 -4.30615903 -40.03515625 -6.2421875 C-39.04515625 -6.6340625 -38.05515625 -7.0259375 -37.03515625 -7.4296875 C-24.17527559 -10.75111363 -10.65808235 -7.67073558 0 0 Z " fill="#FDFDFD" transform="translate(273.03515625,161.2421875)"/>
<path d="M0 0 C-6.65731277 7.32904163 -13.42800206 14.49141437 -20.47094727 21.45141602 C-24.02100616 24.97552656 -27.40715364 28.58672634 -30.6328125 32.4140625 C-32 34 -32 34 -33.6796875 35.4609375 C-35.4340724 37.16802447 -35.4340724 37.16802447 -35 41 C-20.87937317 40.54449591 -7.23066742 34.76283963 5 28 C4.40488419 32.40551011 2.69345425 35.88460718 0.5 39.6875 C-0.02968384 40.60789062 -0.02968384 40.60789062 -0.57006836 41.546875 C-4.02917579 47.35932827 -8.18220787 52.2525406 -13 57 C-13.56203125 57.57234375 -14.1240625 58.1446875 -14.703125 58.734375 C-23.79612761 67.29768814 -35.74948508 71.35532217 -48 71.5625 C-48.8765625 71.61212891 -49.753125 71.66175781 -50.65625 71.71289062 C-56.96185103 71.81260269 -56.96185103 71.81260269 -59.91259766 69.50292969 C-64.57263697 64.1783696 -66.65171314 58.64198662 -66.42578125 51.54296875 C-64.02184078 37.18548945 -50.89550129 25.5484315 -39.640625 17.4453125 C-8.26087909 -4.13043954 -8.26087909 -4.13043954 0 0 Z " fill="#FCFCFD" transform="translate(184,57)"/>
<path d="M0 0 C22.70310545 3.97718636 45.50249412 19.53462314 60 37 C65.27835372 44.54871639 67.54194205 51.81313519 66 61 C64.54298399 65.37104802 62.55269048 69.0108468 59 72 C56.99804688 72.40405273 56.99804688 72.40405273 54.71875 72.43359375 C53.8819873 72.44503418 53.04522461 72.45647461 52.18310547 72.46826172 C51.29768066 72.45811035 50.41225586 72.44795898 49.5 72.4375 C48.59523926 72.42992676 47.69047852 72.42235352 46.75830078 72.41455078 C39.85275162 72.24467105 34.16187752 71.26336276 28 68 C27.154375 67.56429687 26.30875 67.12859375 25.4375 66.6796875 C11.26491559 58.77242242 1.05892783 46.01030863 -5 31 C-5 30.34 -5 29.68 -5 29 C-1.0204438 30.49418281 2.62760145 32.3746404 6.375 34.375 C15.24021652 38.94196575 24.91121501 42.38448114 35 42 C34.49027898 37.62875608 33.11513456 35.55667343 30.125 32.375 C28.91070312 31.075625 28.91070312 31.075625 27.671875 29.75 C24.01650862 25.98775156 20.30014612 22.28983809 16.5703125 18.6015625 C13.79039006 15.78784161 11.19969913 12.86526411 8.63671875 9.85546875 C6.3131435 7.22134407 3.81190162 4.78554903 1.28515625 2.34765625 C0 1 0 1 0 0 Z " fill="#FCFCFD" transform="translate(311,56)"/>
<path d="M0 0 C0.93247559 0.0714624 1.86495117 0.1429248 2.82568359 0.21655273 C17.70915895 1.247182 32.60368479 1.11691837 47.51324463 1.06866455 C51.07392777 1.05827035 54.63461843 1.05383313 58.1953125 1.04882812 C65.13022624 1.03823569 72.06511095 1.0212632 79 1 C79.05563487 2.91631208 79.09350229 4.83313925 79.125 6.75 C79.14820313 7.81734375 79.17140625 8.8846875 79.1953125 9.984375 C78.93353726 15.36647398 77.88585759 20.68485447 77 26 C52.58 26 28.16 26 3 26 C0 7 0 7 0 0 Z " fill="#FDFDFE" transform="translate(208,232)"/>
<path d="M0 0 C23.43 0 46.86 0 71 0 C71 9 71 9 69.90625 13.15625 C69.68066406 14.0328125 69.45507812 14.909375 69.22265625 15.8125 C68.98417969 16.699375 68.74570312 17.58625 68.5 18.5 C68.26152344 19.4178125 68.02304687 20.335625 67.77734375 21.28125 C67.19349081 23.52324531 66.60092033 25.76253068 66 28 C59.70524987 28.02563852 53.41051352 28.04298616 47.11572266 28.05493164 C44.98030087 28.05991869 42.84488242 28.06671072 40.70947266 28.07543945 C29.09389217 28.12168415 17.57262742 28.12726999 6 27 C4.99633155 22.87588361 3.99768621 18.75056731 3 14.625 C2.71382812 13.449375 2.42765625 12.27375 2.1328125 11.0625 C1.86210937 9.94101562 1.59140625 8.81953125 1.3125 7.6640625 C1.06113281 6.62717285 0.80976563 5.5902832 0.55078125 4.52197266 C0 2 0 2 0 0 Z " fill="#FDFDFE" transform="translate(212,264)"/>
<path d="M0 0 C7.66990861 1.94997677 13.74638134 7.60113368 18.13671875 14.07421875 C22.32287333 21.27742167 26.13697099 29.43610835 24.6875 37.9375 C22.61614601 44.79520303 19.19005774 50.37569991 12.875 53.96875 C6.98116514 56.53542002 0.54814915 57.15252664 -5.62109375 55.2109375 C-8.75958948 53.79429539 -10.94723981 52.32558895 -13.3125 49.8125 C-15.09645278 44.68363576 -15.61418488 39.65165144 -13.2109375 34.640625 C-11.67202202 32.31990754 -10.02274848 30.1347975 -8.3125 27.9375 C-7.03348635 26.13076324 -5.76259843 24.31824608 -4.5 22.5 C-3.91605469 21.67628906 -3.33210938 20.85257812 -2.73046875 20.00390625 C-0.19477114 16.30863342 0.12822526 13.56538388 0.12109375 9.13671875 C-0.15562709 6.53499098 -0.15562709 6.53499098 -3.3125 4.375 C-4.3025 3.900625 -5.2925 3.42625 -6.3125 2.9375 C-4.3597255 0.0657728 -3.55006733 -0.0669824 0 0 Z " fill="#FCFCFD" transform="translate(122.3125,306.0625)"/>
<path d="M0 0 C18.67418259 -0.2299147 37.3364101 0.45020461 56 1 C54.515 10.9 54.515 10.9 53 21 C36.5 21 20 21 3 21 C0 3 0 3 0 0 Z " fill="#FDFDFE" transform="translate(220,297)"/>
<path d="M0 0 C1.67542976 0.28604898 3.34385343 0.61781233 5 1 C5.33 4.3 5.66 7.6 6 11 C6.598125 10.401875 7.19625 9.80375 7.8125 9.1875 C8.534375 8.465625 9.25625 7.74375 10 7 C10.495 6.401875 10.99 5.80375 11.5 5.1875 C11.995 4.795625 12.49 4.40375 13 4 C15.1875 4.3125 15.1875 4.3125 17 5 C16.59791618 10.62917348 14.71069698 13.00386479 11 17 C17.93 17.495 17.93 17.495 25 18 C25 19.65 25 21.3 25 23 C23.05909174 24.94090826 19.52706098 24.39919435 16.9375 24.5625 C15.64714844 24.64628906 14.35679687 24.73007813 13.02734375 24.81640625 C12.02832031 24.87699219 11.02929688 24.93757813 10 25 C10.73347656 25.67546875 11.46695312 26.3509375 12.22265625 27.046875 C13.15980469 27.93890625 14.09695313 28.8309375 15.0625 29.75 C16.00222656 30.63171875 16.94195312 31.5134375 17.91015625 32.421875 C20 35 20 35 19.80859375 37.328125 C19 39 19 39 17.265625 39.74609375 C15 40 15 40 12.859375 38.34765625 C12.16328125 37.59355469 11.4671875 36.83945313 10.75 36.0625 C10.04359375 35.31097656 9.3371875 34.55945313 8.609375 33.78515625 C8.07828125 33.19605469 7.5471875 32.60695312 7 32 C6.90912109 33.28197266 6.90912109 33.28197266 6.81640625 34.58984375 C6.73261719 35.69457031 6.64882813 36.79929688 6.5625 37.9375 C6.48128906 39.03964844 6.40007812 40.14179688 6.31640625 41.27734375 C6 44 6 44 5 45 C3.35 45 1.7 45 0 45 C-0.495 38.565 -0.495 38.565 -1 32 C-4.96 36.455 -4.96 36.455 -9 41 C-10.32 40.67 -11.64 40.34 -13 40 C-13.77734375 38.328125 -13.77734375 38.328125 -14 36 C-12.12890625 33.421875 -12.12890625 33.421875 -9.5625 30.75 C-8.71816406 29.85796875 -7.87382812 28.9659375 -7.00390625 28.046875 C-6.34261719 27.37140625 -5.68132812 26.6959375 -5 26 C-5.83144531 25.96261719 -6.66289062 25.92523438 -7.51953125 25.88671875 C-8.60621094 25.82097656 -9.69289063 25.75523437 -10.8125 25.6875 C-11.89144531 25.62949219 -12.97039062 25.57148438 -14.08203125 25.51171875 C-17.17497517 24.96931493 -18.13022903 24.44710376 -20 22 C-19.34 20.68 -18.68 19.36 -18 18 C-14.04 18 -10.08 18 -6 18 C-8.0109375 15.89625 -8.0109375 15.89625 -10.0625 13.75 C-12.34765625 11.359375 -12.34765625 11.359375 -14 9 C-13.74609375 6.703125 -13.74609375 6.703125 -13 5 C-10.875 4.5625 -10.875 4.5625 -8 5 C-5.723853 7.12689146 -3.8541278 9.5023433 -2 12 C-1.90912109 10.82630859 -1.90912109 10.82630859 -1.81640625 9.62890625 C-1.73261719 8.61699219 -1.64882813 7.60507813 -1.5625 6.5625 C-1.48128906 5.55316406 -1.40007812 4.54382813 -1.31640625 3.50390625 C-1 1 -1 1 0 0 Z " fill="#A191B8" transform="translate(399,211)"/>
<path d="M0 0 C2.33236741 0.34002623 4.66575615 0.67310371 7 1 C12.86956522 1.86956522 12.86956522 1.86956522 14 3 C15.02206262 11.04509293 13.68853958 17.36825847 9 24 C5.04826825 28.30876707 0.55705874 32.02415689 -5 34 C-10.81193983 33.42632956 -14.16670887 30.16924248 -18 26 C-20.25260396 21.58865058 -20.75129155 16.89766012 -20 12 C-15.82170636 2.30635877 -10.465276 -2.24925335 0 0 Z " fill="#FCFCFD" transform="translate(237,378)"/>
<path d="M0 0 C15.84 0 31.68 0 48 0 C45.47651007 12.61744966 45.47651007 12.61744966 39.6875 18.25 C32.53379545 22.90822622 24.30708834 22.89432583 16 22 C10.75180007 20.40152865 7.10180399 18.26707458 3.5 14.125 C1.20804488 9.35009351 0 5.30813923 0 0 Z " fill="#FDFDFD" transform="translate(224,324)"/>
<path d="M0 0 C1.65 0 3.3 0 5 0 C5.66 2.64 6.32 5.28 7 8 C7.7425 7.154375 8.485 6.30875 9.25 5.4375 C10.1575 4.633125 11.065 3.82875 12 3 C14.3125 3.1875 14.3125 3.1875 16 4 C15.46884894 8.51478398 13.63379708 11.34666857 11 15 C14.63 15 18.26 15 22 15 C22.495 17.475 22.495 17.475 23 20 C21.26043342 21.73956658 18.8063378 21.37190386 16.4375 21.5625 C14.91962891 21.68818359 14.91962891 21.68818359 13.37109375 21.81640625 C12.19740234 21.90728516 12.19740234 21.90728516 11 22 C11.65434116 25.09596458 11.65434116 25.09596458 13.9375 26.0625 C14.618125 26.371875 15.29875 26.68125 16 27 C16.66 27.66 17.32 28.32 18 29 C17.625 31.625 17.625 31.625 17 34 C12.59885603 33.49701212 10.28804981 31.91227269 7 29 C6.67 31.97 6.34 34.94 6 38 C4.34385343 38.38218767 2.67542976 38.71395102 1 39 C-1.04698414 36.95301586 -0.70045693 32.69588759 -1 30 C-1.721875 30.845625 -2.44375 31.69125 -3.1875 32.5625 C-6 35 -6 35 -8.8125 34.8125 C-9.534375 34.544375 -10.25625 34.27625 -11 34 C-10.55530671 28.96014269 -8.28656638 26.62365012 -5 23 C-8.63 22.34 -12.26 21.68 -16 21 C-16 19.35 -16 17.7 -16 16 C-12.32589215 14.82428549 -8.83070817 14.92633254 -5 15 C-5.44472656 14.62488281 -5.88945313 14.24976563 -6.34765625 13.86328125 C-8.06170453 12.31321937 -9.59920192 10.84043317 -11 9 C-10.875 6.125 -10.875 6.125 -10 4 C-5.68607774 4.4793247 -3.83430453 5.7457985 -1 9 C-0.67 6.03 -0.34 3.06 0 0 Z " fill="#A191B8" transform="translate(64,279)"/>
<path d="M0 0 C2.69181206 2.11081536 4.88373375 4.37690629 7.15234375 6.93359375 C8.8351854 9.07120631 8.8351854 9.07120631 11 10 C10.87603527 15.9503069 9.04742407 18.98541249 4.94140625 23.265625 C-0.45306856 28.08483389 -5.97267686 28.46215866 -12.91015625 28.3046875 C-17.50220568 27.85186847 -21.68791593 26.60272151 -26 25 C-25.62879243 22.43172649 -25.2292923 19.87343237 -24.8125 17.3125 C-24.71130859 16.59126953 -24.61011719 15.87003906 -24.50585938 15.12695312 C-23.63392638 9.9660524 -22.17564579 7.42633512 -18 4 C-12.69272702 0.37552089 -6.39234136 -1.63880089 0 0 Z " fill="#FCFCFD" transform="translate(214,406)"/>
<path d="M0 0 C2.42371668 3.15083168 2.47221167 5.16950234 2.22265625 9.06640625 C1.28511614 15.46064048 -0.73850099 20.33139928 -5.97265625 24.359375 C-10.29881916 26.52638219 -14.46384953 26.41808785 -19.125 25.4375 C-26.0405189 22.3718576 -30.05784937 16.13428909 -33.125 9.4375 C-33.78515625 6.62890625 -33.78515625 6.62890625 -34.125 4.4375 C-33.36574219 4.18355469 -32.60648438 3.92960937 -31.82421875 3.66796875 C-30.33341797 3.15169922 -30.33341797 3.15169922 -28.8125 2.625 C-27.82636719 2.28855469 -26.84023437 1.95210938 -25.82421875 1.60546875 C-23.20122875 0.47048465 -22.04178884 -0.53361825 -20.125 -2.5625 C-13.13400406 -4.41725402 -6.38829504 -3.19414752 0 0 Z " fill="#FCFCFD" transform="translate(183.125,410.5625)"/>
<path d="M0 0 C1.9375 1.375 1.9375 1.375 2.6875 4 C2.81125 5.175625 2.81125 5.175625 2.9375 6.375 C3.329375 5.859375 3.72125 5.34375 4.125 4.8125 C4.723125 4.338125 5.32125 3.86375 5.9375 3.375 C8.625 3.6875 8.625 3.6875 10.9375 4.375 C10.39026317 7.74962715 9.8826 9.45735 7.9375 12.375 C9.236875 12.519375 10.53625 12.66375 11.875 12.8125 C15.8125 13.25 15.8125 13.25 16.9375 14.375 C16.97813832 16.04117115 16.980221 17.70888095 16.9375 19.375 C13.9675 19.705 10.9975 20.035 7.9375 20.375 C7.9375 21.035 7.9375 21.695 7.9375 22.375 C9.56376404 23.75732443 11.2300002 25.09437515 12.9375 26.375 C12.6075 28.025 12.2775 29.675 11.9375 31.375 C6.39903846 30.75961538 6.39903846 30.75961538 4.0625 28.8125 C3.69125 28.338125 3.32 27.86375 2.9375 27.375 C2.6075 30.015 2.2775 32.655 1.9375 35.375 C-1.8125 36.5 -1.8125 36.5 -4.0625 35.375 C-4.46979228 33.05343403 -4.80688677 30.7181213 -5.0625 28.375 C-5.8978125 29.3959375 -5.8978125 29.3959375 -6.75 30.4375 C-7.513125 31.076875 -8.27625 31.71625 -9.0625 32.375 C-11.8125 32.125 -11.8125 32.125 -14.0625 31.375 C-13.61780671 26.33514269 -11.34906638 23.99865012 -8.0625 20.375 C-11.0325 20.375 -14.0025 20.375 -17.0625 20.375 C-17.7225 19.055 -18.3825 17.735 -19.0625 16.375 C-18.7325 15.715 -18.4025 15.055 -18.0625 14.375 C-15.99609375 13.9609375 -15.99609375 13.9609375 -13.5 13.75 C-12.26056641 13.63785156 -12.26056641 13.63785156 -10.99609375 13.5234375 C-10.03896484 13.44996094 -10.03896484 13.44996094 -9.0625 13.375 C-9.908125 12.653125 -10.75375 11.93125 -11.625 11.1875 C-14.0625 8.375 -14.0625 8.375 -13.875 5.5625 C-13.4728125 4.4796875 -13.4728125 4.4796875 -13.0625 3.375 C-9.37495243 3.87331724 -7.45759338 4.47567643 -5.0625 7.375 C-4.93875 6.240625 -4.815 5.10625 -4.6875 3.9375 C-4.48125 2.761875 -4.275 1.58625 -4.0625 0.375 C-2.0625 -0.625 -2.0625 -0.625 0 0 Z " fill="#A191B8" transform="translate(314.0625,396.625)"/>
<path d="M0 0 C0.90878906 0.16371094 1.81757813 0.32742188 2.75390625 0.49609375 C8.12880056 1.26393579 13.52021545 1.1062149 18.9375 1.0625 C20.00291016 1.05798828 21.06832031 1.05347656 22.16601562 1.04882812 C24.77740291 1.03711787 27.38867124 1.02071724 30 1 C30.75386779 14.92561338 30.75386779 14.92561338 26 21 C21.9454472 24.7535598 18.49926642 24.43487516 13.1875 24.28515625 C8.64966088 23.8791976 3.98231362 23.32433843 0 21 C-2.17628461 17.19488126 -2.26987242 13.69725041 -2.25 9.375 C-2.25515625 8.24835938 -2.2603125 7.12171875 -2.265625 5.9609375 C-2 3 -2 3 0 0 Z " fill="#FDFDFD" transform="translate(231,350)"/>
<path d="M0 0 C3.2186267 2.1213676 4.36898801 3.20652425 5.75 6.8125 C6.44064688 11.9113498 6.32148546 15.66952908 4 20.3125 C1.39900113 23.20249874 -0.54388214 24.54572521 -4.3984375 25.1484375 C-9.8430041 25.24395621 -12.99878427 24.54527479 -17.25 20.8125 C-19.83658398 16.57829745 -19.77825648 12.64227356 -19.25 7.8125 C-17.92859682 3.84829046 -16.95331341 2.29203187 -13.5 -0.0625 C-8.53227052 -1.78209867 -4.94379235 -1.80638567 0 0 Z " fill="#E4E0EA" transform="translate(261.25,425.1875)"/>
<path d="M0 0 C5.84415132 0.63286918 9.18773577 3.73408429 13 8 C16.31013989 13.23721297 17.52262524 17.8591534 17 24 C12.42220119 26.67968711 9.29472473 27.62818768 4 27 C-1.75073524 25.18705635 -5.67386904 23.20484669 -9 18 C-9.609375 14.66796875 -9.609375 14.66796875 -9.75 11.1875 C-9.80671875 10.02605469 -9.8634375 8.86460937 -9.921875 7.66796875 C-9.94765625 6.78753906 -9.9734375 5.90710938 -10 5 C-9.36191406 4.72285156 -8.72382813 4.44570313 -8.06640625 4.16015625 C-7.24011719 3.79792969 -6.41382813 3.43570312 -5.5625 3.0625 C-4.73878906 2.70285156 -3.91507813 2.34320313 -3.06640625 1.97265625 C-1.05589883 1.16877677 -1.05589883 1.16877677 0 0 Z " fill="#FBFAFC" transform="translate(140,383)"/>
<path d="M0 0 C5.94 0.33 11.88 0.66 18 1 C19.03125 3.3925 20.0625 5.785 21.125 8.25 C21.4564502 8.99668945 21.78790039 9.74337891 22.12939453 10.51269531 C24.14554045 15.37078378 24.14554045 15.37078378 23.48046875 18.24609375 C21.58461557 20.49210451 19.58310255 22.10648619 17.1875 23.8125 C16.33542969 24.43769531 15.48335937 25.06289062 14.60546875 25.70703125 C12 27 12 27 9.37890625 27.05859375 C5.96982883 25.54158229 5.29927738 23.5931775 3.75 20.25 C3.24984375 19.20328125 2.7496875 18.1565625 2.234375 17.078125 C-0.23830157 10.91208342 0 7.06588206 0 0 Z " fill="#FBFBFC" transform="translate(122,133)"/>
<path d="M0 0 C0.33 0 0.66 0 1 0 C1.86748155 10.23628228 -1.74547298 19.89227979 -8 28 C-13.30462144 27.66846116 -17.2456412 24.53887684 -21 21 C-22.41796875 19.28515625 -22.41796875 19.28515625 -23 17 C-22.16613334 14.25931938 -21.27872048 11.84709844 -20.125 9.25 C-19.82980469 8.55261719 -19.53460938 7.85523438 -19.23046875 7.13671875 C-18.50082785 5.41853212 -17.75221642 3.70842372 -17 2 C-15.85660156 1.93941406 -14.71320313 1.87882813 -13.53515625 1.81640625 C-12.04425695 1.73201572 -10.55337225 1.64736698 -9.0625 1.5625 C-8.30775391 1.52318359 -7.55300781 1.48386719 -6.77539062 1.44335938 C-3.08055813 1.55961976 -3.08055813 1.55961976 0 0 Z " fill="#FBFAFC" transform="translate(373,132)"/>
<path d="M0 0 C2.75569447 2.18159145 4.43588747 3.87177494 6 7 C6.04079849 11.22672392 5.69610539 14.88623137 3.4375 18.5 C0.04188828 20.58960721 -3.02098759 21.22149572 -7 21 C-9.97160035 19.64339984 -11.70283441 18.29716559 -14 16 C-14.99593573 11.40337357 -15.39188911 9.05810061 -13.75 4.625 C-10.23198305 -0.65202542 -5.88617135 -1.04298826 0 0 Z " fill="#D5CEDF" transform="translate(124,232)"/>
<path d="M0 0 C2.79659888 2.18271132 3.76939596 3.66006916 4.37109375 7.15625 C4.5972908 11.26892363 4.34475039 13.44839938 2.125 17 C-1.14840013 20.08084718 -3.46126475 20.33387487 -7.9609375 20.29296875 C-11.13134567 19.83745033 -12.8192402 18.24684343 -15 16 C-16.73007568 12.53984865 -16.4835273 8.78327445 -16 5 C-12.01229156 -1.60034501 -6.98748958 -1.79101718 0 0 Z " fill="#D5CEDF" transform="translate(368,285)"/>
<path d="M0 0 C8.21748002 0.08091611 14.25816557 0.97436093 20.9375 6.1875 C22.34657283 9.00564566 21.44622691 10.36027204 20.5 13.3125 C20.06880859 14.67761719 20.06880859 14.67761719 19.62890625 16.0703125 C19.28666016 17.11832031 19.28666016 17.11832031 18.9375 18.1875 C14.80896134 18.1875 13.84542896 17.77773903 10.4375 15.8125 C4.78465929 12.83421228 -0.76458708 11.91251747 -7.0625 11.1875 C-7.08938151 9.54175434 -7.10884123 7.89588587 -7.125 6.25 C-7.13660156 5.33347656 -7.14820313 4.41695312 -7.16015625 3.47265625 C-6.96452721 -1.10506324 -3.90929128 0.0224414 0 0 Z " fill="#F8F7F9" transform="translate(187.0625,163.8125)"/>
<path d="M0 0 C0.33 3.63 0.66 7.26 1 11 C0.03320312 11.15855469 -0.93359375 11.31710938 -1.9296875 11.48046875 C-10.00748772 12.89655128 -16.86158209 14.75054181 -24 19 C-24.72726052 17.4252706 -25.43120422 15.83975721 -26.125 14.25 C-26.51945312 13.36828125 -26.91390625 12.4865625 -27.3203125 11.578125 C-28 9 -28 9 -27.2421875 6.7734375 C-24.01698359 2.1689011 -19.00732631 1.29218597 -13.78125 0.33984375 C-9.16565714 -0.22414021 -4.64519464 -0.11910755 0 0 Z " fill="#FBFAFC" transform="translate(315,164)"/>
<path d="M0 0 C2.05636087 3.08454131 2.51134354 4.84809674 3.125 8.4375 C3.29257812 9.38496094 3.46015625 10.33242188 3.6328125 11.30859375 C4 14 4 14 4 18 C4.61488281 17.98839844 5.22976563 17.97679687 5.86328125 17.96484375 C6.67152344 17.95582031 7.47976563 17.94679688 8.3125 17.9375 C9.51326172 17.92009766 9.51326172 17.92009766 10.73828125 17.90234375 C13 18 13 18 16 19 C16 19.66 16 20.32 16 21 C15.30132812 21.12375 14.60265625 21.2475 13.8828125 21.375 C11.05397602 22.01609609 8.60395695 22.71532357 6 24 C4.69931854 27.08911846 4.31068579 28.79136573 4 32 C3.63954169 33.83624778 3.2644303 35.66967758 2.875 37.5 C2.58139919 38.99962262 2.28903262 40.49949022 2 42 C-0.784293 39.215707 -0.94910069 36.113137 -1.625 32.375 C-1.7590625 31.66859375 -1.893125 30.9621875 -2.03125 30.234375 C-2.36110025 28.49088082 -2.68146056 26.74559611 -3 25 C-3.62648438 24.79503906 -4.25296875 24.59007812 -4.8984375 24.37890625 C-5.71570313 24.10949219 -6.53296875 23.84007812 -7.375 23.5625 C-8.18710937 23.29566406 -8.99921875 23.02882813 -9.8359375 22.75390625 C-12 22 -12 22 -14 21 C-14 20.34 -14 19.68 -14 19 C-8.555 18.01 -8.555 18.01 -3 17 C-2.86722656 15.85660156 -2.73445313 14.71320313 -2.59765625 13.53515625 C-2.4194969 12.0442438 -2.24109918 10.55335982 -2.0625 9.0625 C-1.97548828 8.30775391 -1.88847656 7.55300781 -1.79882812 6.77539062 C-1.11328125 1.11328125 -1.11328125 1.11328125 0 0 Z " fill="#B9ADCA" transform="translate(364,349)"/>
<path d="M0 0 C0.66 0 1.32 0 2 0 C2.50509208 2.24886238 3.00389179 4.49913869 3.5 6.75 C3.7784375 8.00296875 4.056875 9.2559375 4.34375 10.546875 C5 14 5 14 5 18 C5.61488281 17.98839844 6.22976562 17.97679687 6.86328125 17.96484375 C7.67152344 17.95582031 8.47976562 17.94679687 9.3125 17.9375 C10.51326172 17.92009766 10.51326172 17.92009766 11.73828125 17.90234375 C14 18 14 18 17 19 C17 19.66 17 20.32 17 21 C13.12315913 22.19287411 10.08378077 23 6 23 C5.01 29.27 4.02 35.54 3 42 C0.7766119 39.7766119 0.6394984 39.07694479 0.1484375 36.0859375 C0.01953125 35.32539063 -0.109375 34.56484375 -0.2421875 33.78125 C-0.36851563 32.9871875 -0.49484375 32.193125 -0.625 31.375 C-0.7590625 30.57320312 -0.893125 29.77140625 -1.03125 28.9453125 C-1.36134789 26.96472516 -1.68161083 24.98250325 -2 23 C-2.93972656 22.90912109 -2.93972656 22.90912109 -3.8984375 22.81640625 C-4.71570313 22.73261719 -5.53296875 22.64882812 -6.375 22.5625 C-7.59316406 22.44068359 -7.59316406 22.44068359 -8.8359375 22.31640625 C-11 22 -11 22 -13 21 C-13 20.34 -13 19.68 -13 19 C-9.05979642 17.73913486 -6.52419701 18 -2 18 C-1.34 12.06 -0.68 6.12 0 0 Z " fill="#B9ADCA" transform="translate(82,139)"/>
<path d="M0 0 C1.72515631 3.45031261 1.49677924 7.22716304 1 11 C-1.19831364 14.03215675 -2.44963194 14.81654398 -6 16 C-7.9375 16.203125 -7.9375 16.203125 -10 16.25 C-10.680625 16.27578125 -11.36125 16.3015625 -12.0625 16.328125 C-14 16 -14 16 -15.76953125 14.80859375 C-17.48132023 12.29253567 -17.1118947 10.78326287 -16.6875 7.8125 C-16.56761719 6.91144531 -16.44773437 6.01039063 -16.32421875 5.08203125 C-16.21722656 4.39496094 -16.11023438 3.70789063 -16 3 C-3.65060241 -1.21686747 -3.65060241 -1.21686747 0 0 Z " fill="#F9F9FB" transform="translate(138,366)"/>
<path d="M0 0 C0.66 0 1.32 0 2 0 C2.33951619 1.56116819 2.67132544 3.12401338 3 4.6875 C3.185625 5.55761719 3.37125 6.42773438 3.5625 7.32421875 C3.98972047 9.93712964 4.07616201 12.35813038 4 15 C5.093125 14.979375 6.18625 14.95875 7.3125 14.9375 C11 15 11 15 14 16 C14 16.66 14 17.32 14 18 C11.03 18.66 8.06 19.32 5 20 C4.34 24.95 3.68 29.9 3 35 C2.34 35 1.68 35 1 35 C0.88785156 34.02417969 0.77570313 33.04835937 0.66015625 32.04296875 C0.0577192 28.15665913 -0.59629103 24.67823739 -2 21 C-4.86741469 18.92061594 -7.50051188 18.30813103 -11 18 C-11 17.34 -11 16.68 -11 16 C-7.7 15.67 -4.4 15.34 -1 15 C-1.020625 13.63875 -1.04125 12.2775 -1.0625 10.875 C-1.0683928 7.14485838 -0.75187259 3.66537886 0 0 Z " fill="#B9ADCA" transform="translate(271,45)"/>
<path d="M0 0 C3.32878632 2.46040728 4.79301948 3.89610387 5.5625 8 C4.84202557 11.8425303 3.99097304 13.45767292 1 16 C-1.82561523 16.7179842 -4.17277829 16.70536002 -7 16 C-9.5625 14 -9.5625 14 -11 11 C-11.29851924 7.0656695 -10.88490018 4.04877058 -8.3125 1 C-5.21285954 -0.34038506 -3.34840698 -0.54667869 0 0 Z " fill="#D5CEDF" transform="translate(55,194)"/>
<path d="M0 0 C1.9375 1.0625 1.9375 1.0625 3 3 C3.98586223 6.80261145 4.29822018 9.14261699 3 12.875 C1 15 1 15 -2.4375 15.9375 C-7.39705882 16.0245098 -7.39705882 16.0245098 -10 14 C-12.09679403 11.30412197 -11.99510821 9.907056 -11.8125 6.4375 C-11 3 -11 3 -9.9375 1.0625 C-6.74497633 -0.68823879 -3.54677411 -0.52572226 0 0 Z " fill="#D5CEDF" transform="translate(416,162)"/>
<path d="M0 0 C2.09765625 0.375 2.09765625 0.375 4.16015625 1.875 C5.50468344 5.46040584 5.90697262 8.60589803 5.09765625 12.375 C3.03515625 14.9375 3.03515625 14.9375 0.09765625 16.375 C-3.36993317 16.31521398 -5.79061124 15.98465977 -8.83984375 14.3125 C-10.59293587 11.11568496 -10.38901507 7.88044411 -9.90234375 4.375 C-8.09470237 -0.44537702 -4.62330627 -0.24056228 0 0 Z " fill="#E4E0EA" transform="translate(306.90234375,351.625)"/>
<path d="M0 0 C4.65909091 4.31818182 4.65909091 4.31818182 6 7 C4.78515625 9.3828125 4.78515625 9.3828125 3.0625 12.125 C2.49660156 13.03507813 1.93070313 13.94515625 1.34765625 14.8828125 C0.90292969 15.58148438 0.45820313 16.28015625 0 17 C-6.16529701 16.68383092 -10.17268433 13.50784939 -15 10 C-11.97156498 7.53939655 -8.90610488 5.12796222 -5.8125 2.75 C-4.80123047 1.96882812 -4.80123047 1.96882812 -3.76953125 1.171875 C-2 0 -2 0 0 0 Z " fill="#F9F8FA" transform="translate(150,156)"/>
<path d="M0 0 C4.80601986 2.79059218 9.39218947 5.8980099 14 9 C9.86905316 13.93048494 6.17191994 15.24975405 0 17 C-1.98 14.03 -3.96 11.06 -6 8 C-4.21844267 4.43688534 -2.83236991 2.64354525 0 0 Z " fill="#F9F8FA" transform="translate(346,156)"/>
<path d="M0 0 C2.375 1.625 2.375 1.625 4 4 C4.61195145 7.6717087 4.48706506 9.28813568 2.375 12.375 C-0.71186432 14.48706506 -2.3282913 14.61195145 -6 14 C-8.4375 12.4375 -8.4375 12.4375 -10 10 C-9.93866496 6.5039028 -9.65265114 4.06485186 -7.8125 1.0625 C-5.04411529 -0.56034621 -3.14454533 -0.44922076 0 0 Z " fill="#D5CEDF" transform="translate(215,105)"/>
<path d="M0 0 C2 2 2 2 2.3125 5.9375 C2.23081662 8.43791894 2.12109418 9.77205801 0.9375 12 C-2.13215135 13.58433618 -4.61681143 13.36248449 -8 13 C-9.9375 12 -9.9375 12 -11 10 C-11.46000079 7.23999526 -11.50420748 4.75595226 -11 2 C-7.93817059 -2.04161482 -4.56939437 -1.10003939 0 0 Z " fill="#D5CEDF" transform="translate(424,316)"/>
<path d="M0 0 C4.42386702 -0.46635201 8.59569771 -0.7144994 13 0 C15.63203147 2.27831973 16.92348944 4.7110291 18 8 C18 8.66 18 9.32 18 10 C15.18743719 10.02684312 12.37512759 10.04676188 9.5625 10.0625 C8.76005859 10.07087891 7.95761719 10.07925781 7.13085938 10.08789062 C5.08704779 10.0965143 3.04316098 10.0522815 1 10 C0 9 0 9 -0.09765625 6.93359375 C-0.08605469 6.10988281 -0.07445312 5.28617188 -0.0625 4.4375 C-0.05347656 3.61121094 -0.04445313 2.78492188 -0.03515625 1.93359375 C-0.02355469 1.29550781 -0.01195312 0.65742188 0 0 Z " fill="#FCFBFC" transform="translate(321,164)"/>
<path d="M0 0 C4.29 0.33 8.58 0.66 13 1 C13 3.97 13 6.94 13 10 C7.06 10 1.12 10 -5 10 C-3.35 6.7 -1.7 3.4 0 0 Z " fill="#FCFBFC" transform="translate(161,164)"/>
<path d="M0 0 C3.5 0.4375 3.5 0.4375 5.4375 1.5625 C6.98724515 4.29734439 6.82162076 6.3499407 6.5 9.4375 C4.5 12.4375 4.5 12.4375 1.625 13.25 C-1.5 13.4375 -1.5 13.4375 -3.8125 12.9375 C-5.5 11.4375 -5.5 11.4375 -6.4375 8.0625 C-6.5 4.4375 -6.5 4.4375 -5.5 2 C-3.5 0.4375 -3.5 0.4375 0 0 Z " fill="#E9E6EE" transform="translate(434.5,260.5625)"/>
<path d="M0 0 C3.5 0.4375 3.5 0.4375 5.4375 1.5625 C6.98724515 4.29734439 6.82162076 6.3499407 6.5 9.4375 C4.5 12.4375 4.5 12.4375 1.625 13.25 C-1.5 13.4375 -1.5 13.4375 -3.8125 12.9375 C-5.5 11.4375 -5.5 11.4375 -6.4375 8.0625 C-6.5 4.4375 -6.5 4.4375 -5.5 2 C-3.5 0.4375 -3.5 0.4375 0 0 Z " fill="#E9E6EE" transform="translate(289.5,110.5625)"/>
<path d="M0 0 C1.875 -0.36328125 1.875 -0.36328125 4 -0.3125 C4.70125 -0.30863281 5.4025 -0.30476563 6.125 -0.30078125 C8 0 8 0 10 2 C10.67973856 9.1372549 10.67973856 9.1372549 8.375 12.0625 C5.19296594 13.31856608 3.25787048 12.92070253 0 12 C-2 10 -2 10 -2.25 6.5625 C-2 3 -2 3 0 0 Z " fill="#E9E6EE" transform="translate(178,356)"/>
<path d="M0 0 C1.875 -0.36328125 1.875 -0.36328125 4 -0.3125 C4.70125 -0.30863281 5.4025 -0.30476563 6.125 -0.30078125 C8 0 8 0 10 2 C10.67973856 9.1372549 10.67973856 9.1372549 8.375 12.0625 C5.19296594 13.31856608 3.25787048 12.92070253 0 12 C-2 10 -2 10 -2.25 6.5625 C-2 3 -2 3 0 0 Z " fill="#E9E6EE" transform="translate(78,356)"/>
<path d="M0 0 C1.875 -0.36328125 1.875 -0.36328125 4 -0.3125 C4.70125 -0.30863281 5.4025 -0.30476562 6.125 -0.30078125 C8 0 8 0 10 2 C10.67973856 9.1372549 10.67973856 9.1372549 8.375 12.0625 C5.19296594 13.31856608 3.25787048 12.92070253 0 12 C-2 10 -2 10 -2.25 6.5625 C-2 3 -2 3 0 0 Z " fill="#E9E6EE" transform="translate(118,191)"/>
<path d="M0 0 C1.875 1.0625 1.875 1.0625 3 3 C3.63316583 8.90954774 3.63316583 8.90954774 1.875 11.9375 C-0.88980433 13.50422245 -2.88188517 13.38976435 -6 13 C-7.875 11.9375 -7.875 11.9375 -9 10 C-9.63316583 4.09045226 -9.63316583 4.09045226 -7.875 1.0625 C-5.11019567 -0.50422245 -3.11811483 -0.38976435 0 0 Z " fill="#E9E6EE" transform="translate(225,43)"/>
<path d="M0 0 C1.134375 0.020625 2.26875 0.04125 3.4375 0.0625 C4.76591008 5.49690487 4.76591008 5.49690487 3.3125 8 C1.4375 9.0625 1.4375 9.0625 -1.1875 8.8125 C-3.5625 8.0625 -3.5625 8.0625 -4.5625 7.0625 C-4.6875 4.0625 -4.6875 4.0625 -4.5625 1.0625 C-3.5625 0.0625 -3.5625 0.0625 0 0 Z " fill="#8A76A6" transform="translate(441.5625,124.9375)"/>
<path d="M0 0 C1.2684375 0.12375 1.2684375 0.12375 2.5625 0.25 C4.7144437 3.47791555 4.76336443 4.53400809 4.5625 8.25 C-2.1875 9.375 -2.1875 9.375 -4.4375 8.25 C-3.43230397 0.35203118 -3.43230397 0.35203118 0 0 Z " fill="#8A76A6" transform="translate(355.4375,437.75)"/>
<path d="M0 0 C2.33944736 0.28730055 4.6739143 0.61936779 7 1 C7.6875 3.3125 7.6875 3.3125 8 6 C6.875 7.875 6.875 7.875 5 9 C0.57894737 8.57894737 0.57894737 8.57894737 -1 7 C-1.125 4 -1.125 4 -1 1 C-0.67 0.67 -0.34 0.34 0 0 Z " fill="#8A76A6" transform="translate(46,363)"/>
<path d="M0 0 C2.375 0.6875 2.375 0.6875 3.375 1.6875 C3.08769945 4.02694736 2.75563221 6.3614143 2.375 8.6875 C-0.5 8.8125 -0.5 8.8125 -3.625 8.6875 C-5.625 6.6875 -5.625 6.6875 -5.9375 4.1875 C-5.834375 3.3625 -5.73125 2.5375 -5.625 1.6875 C-2.625 -0.3125 -2.625 -0.3125 0 0 Z " fill="#8A76A6" transform="translate(437.625,358.3125)"/>
<path d="M0 0 C1.2375 0.1546875 1.2375 0.1546875 2.5 0.3125 C4.5 3.3125 4.5 3.3125 4.125 6 C3.91875 6.763125 3.7125 7.52625 3.5 8.3125 C0.625 8.9375 0.625 8.9375 -2.5 9.3125 C-4.5 7.3125 -4.5 7.3125 -4.75 4.8125 C-4.40047575 1.3172575 -3.47557682 0.4344471 0 0 Z " fill="#8A76A6" transform="translate(320.5,452.6875)"/>
<path d="M0 0 C1.2375 0.1546875 1.2375 0.1546875 2.5 0.3125 C4.5 3.3125 4.5 3.3125 4.125 6 C3.91875 6.763125 3.7125 7.52625 3.5 8.3125 C0.625 8.9375 0.625 8.9375 -2.5 9.3125 C-4.5 7.3125 -4.5 7.3125 -4.75 4.8125 C-4.40047575 1.3172575 -3.47557682 0.4344471 0 0 Z " fill="#8A76A6" transform="translate(332.5,448.6875)"/>
<path d="M0 0 C3.125 0.375 3.125 0.375 6 1 C6.625 3.3125 6.625 3.3125 7 6 C6.01 7.485 6.01 7.485 5 9 C2.5 9.3125 2.5 9.3125 0 9 C-2 7 -2 7 -2.25 4.5 C-2 2 -2 2 0 0 Z " fill="#8A76A6" transform="translate(142,445)"/>
<path d="M0 0 C1.2375 0.1546875 1.2375 0.1546875 2.5 0.3125 C4.5 3.3125 4.5 3.3125 4.125 6 C3.91875 6.763125 3.7125 7.52625 3.5 8.3125 C0.625 8.9375 0.625 8.9375 -2.5 9.3125 C-4.5 7.3125 -4.5 7.3125 -4.75 4.8125 C-4.40047575 1.3172575 -3.47557682 0.4344471 0 0 Z " fill="#8A76A6" transform="translate(344.5,443.6875)"/>
<path d="M0 0 C0.763125 0.20625 1.52625 0.4125 2.3125 0.625 C2.9375 2.9375 2.9375 2.9375 3.3125 5.625 C2.3225 7.11 2.3225 7.11 1.3125 8.625 C-1.1875 8.9375 -1.1875 8.9375 -3.6875 8.625 C-5.6875 6.625 -5.6875 6.625 -6 4.125 C-5.896875 3.3 -5.79375 2.475 -5.6875 1.625 C-2.6875 -0.375 -2.6875 -0.375 0 0 Z " fill="#8A76A6" transform="translate(443.6875,347.375)"/>
<path d="M0 0 C1.2375 0.1546875 1.2375 0.1546875 2.5 0.3125 C4.5 3.3125 4.5 3.3125 4.125 6 C3.91875 6.763125 3.7125 7.52625 3.5 8.3125 C0.625 8.9375 0.625 8.9375 -2.5 9.3125 C-4.5 7.3125 -4.5 7.3125 -4.75 4.8125 C-4.40047575 1.3172575 -3.47557682 0.4344471 0 0 Z " fill="#8A76A6" transform="translate(451.5,147.6875)"/>
<path d="M0 0 C1.2375 0.1546875 1.2375 0.1546875 2.5 0.3125 C4.5 3.3125 4.5 3.3125 4.125 6 C3.91875 6.763125 3.7125 7.52625 3.5 8.3125 C0.625 8.9375 0.625 8.9375 -2.5 9.3125 C-4.5 7.3125 -4.5 7.3125 -4.75 4.8125 C-4.40047575 1.3172575 -3.47557682 0.4344471 0 0 Z " fill="#8A76A6" transform="translate(446.5,135.6875)"/>
<path d="M0 0 C2.33944736 0.28730055 4.6739143 0.61936779 7 1 C7.625 3.3125 7.625 3.3125 8 6 C7.01 7.485 7.01 7.485 6 9 C3.03 8.505 3.03 8.505 0 8 C-0.38063221 5.6739143 -0.71269945 3.33944736 -1 1 C-0.67 0.67 -0.34 0.34 0 0 Z " fill="#8A76A6" transform="translate(38,130)"/>
<path d="M0 0 C3.29714793 0.32971479 4.6226839 0.6226839 7 3 C6.625 6.125 6.625 6.125 6 9 C3.125 9.125 3.125 9.125 0 9 C-2 7 -2 7 -2.25 4.5 C-2 2 -2 2 0 0 Z " fill="#8A76A6" transform="translate(45,118)"/>
<path d="M0 0 C3.0625 0.1875 3.0625 0.1875 5.0625 2.1875 C4.73278521 5.48464793 4.4398161 6.8101839 2.0625 9.1875 C-2.49305556 8.63194444 -2.49305556 8.63194444 -3.9375 7.1875 C-4.0625 4.1875 -4.0625 4.1875 -3.9375 1.1875 C-2.9375 0.1875 -2.9375 0.1875 0 0 Z " fill="#8A76A6" transform="translate(105.9375,51.8125)"/>
<path d="M0 0 C2.625 0.25 2.625 0.25 4.5 1.4375 C5.625 3.25 5.625 3.25 5.3125 5.9375 C5.085625 6.700625 4.85875 7.46375 4.625 8.25 C1.75 8.875 1.75 8.875 -1.375 9.25 C-3.375 7.25 -3.375 7.25 -3.5625 4.1875 C-3.31750282 0.34921082 -3.31750282 0.34921082 0 0 Z " fill="#8A76A6" transform="translate(127.375,37.75)"/>
<path d="M0 0 C3.125 0.375 3.125 0.375 6 1 C6.625 3.875 6.625 3.875 7 7 C5 9 5 9 2.5 9.25 C0 9 0 9 -2 7 C-2.25 4.5 -2.25 4.5 -2 2 C-1.34 1.34 -0.68 0.68 0 0 Z " fill="#8A76A6" transform="translate(349,36)"/>
<path d="M0 0 C1.2684375 0.12375 1.2684375 0.12375 2.5625 0.25 C4.5625 3.25 4.5625 3.25 4.1875 5.9375 C3.98125 6.700625 3.775 7.46375 3.5625 8.25 C-2.1875 9.375 -2.1875 9.375 -4.4375 8.25 C-3.43230397 0.35203118 -3.43230397 0.35203118 0 0 Z " fill="#8A76A6" transform="translate(139.4375,31.75)"/>
<path d="M0 0 C3.125 0.375 3.125 0.375 6 1 C6.625 3.3125 6.625 3.3125 7 6 C6.01 7.485 6.01 7.485 5 9 C2.5 9.3125 2.5 9.3125 0 9 C-2 7 -2 7 -2.25 4.5 C-2 2 -2 2 0 0 Z " fill="#8A76A6" transform="translate(337,31)"/>
<path d="M0 0 C1.2375 0.1546875 1.2375 0.1546875 2.5 0.3125 C4.5 3.3125 4.5 3.3125 4.125 6 C3.91875 6.763125 3.7125 7.52625 3.5 8.3125 C0.625 8.9375 0.625 8.9375 -2.5 9.3125 C-4.5 7.3125 -4.5 7.3125 -4.75 4.8125 C-4.40047575 1.3172575 -3.47557682 0.4344471 0 0 Z " fill="#8A76A6" transform="translate(151.5,26.6875)"/>
<path d="M0 0 C2.875 -0.125 2.875 -0.125 6 0 C6.66 0.66 7.32 1.32 8 2 C7.625 5.125 7.625 5.125 7 8 C4.6875 8.625 4.6875 8.625 2 9 C1.01 8.34 0.02 7.68 -1 7 C-0.67 4.69 -0.34 2.38 0 0 Z " fill="#8A76A6" transform="translate(178,457)"/>
<path d="M0 0 C2.33944736 0.28730055 4.6739143 0.61936779 7 1 C7.6875 3.3125 7.6875 3.3125 8 6 C6.875 7.875 6.875 7.875 5 9 C2.3125 8.6875 2.3125 8.6875 0 8 C-0.38063221 5.6739143 -0.71269945 3.33944736 -1 1 C-0.67 0.67 -0.34 0.34 0 0 Z " fill="#8A76A6" transform="translate(130,440)"/>
<path d="M0 0 C3.125 0.375 3.125 0.375 6 1 C6.625 3.3125 6.625 3.3125 7 6 C6.01 7.485 6.01 7.485 5 9 C-0.875 8.125 -0.875 8.125 -2 7 C-2.1875 4.5625 -2.1875 4.5625 -2 2 C-1.34 1.34 -0.68 0.68 0 0 Z " fill="#8A76A6" transform="translate(446,335)"/>
<path d="M0 0 C1.2684375 0.12375 1.2684375 0.12375 2.5625 0.25 C4.5625 3.25 4.5625 3.25 4.1875 5.9375 C3.98125 6.700625 3.775 7.46375 3.5625 8.25 C1.5825 8.58 -0.3975 8.91 -2.4375 9.25 C-4.4375 6.25 -4.4375 6.25 -4.125 3.625 C-3.16976704 0.32510431 -3.16976704 0.32510431 0 0 Z " fill="#8A76A6" transform="translate(32.4375,328.75)"/>
<path d="M0 0 C2.625 0.375 2.625 0.375 5 1 C5.38063221 3.3260857 5.71269945 5.66055264 6 8 C5 9 5 9 2.0625 9.1875 C-1 9 -1 9 -3 7 C-2.67028521 3.70285207 -2.3773161 2.3773161 0 0 Z " fill="#8A76A6" transform="translate(458,172)"/>
<path d="M0 0 C3.125 0.375 3.125 0.375 6 1 C6.625 3.3125 6.625 3.3125 7 6 C6.01 7.485 6.01 7.485 5 9 C-0.875 8.125 -0.875 8.125 -2 7 C-2.1875 4.5625 -2.1875 4.5625 -2 2 C-1.34 1.34 -0.68 0.68 0 0 Z " fill="#8A76A6" transform="translate(29,153)"/>
<path d="M0 0 C0.763125 0.20625 1.52625 0.4125 2.3125 0.625 C3.4375 6.375 3.4375 6.375 2.3125 8.625 C0.0025 8.625 -2.3075 8.625 -4.6875 8.625 C-5.0175 6.315 -5.3475 4.005 -5.6875 1.625 C-2.6875 -0.375 -2.6875 -0.375 0 0 Z " fill="#8A76A6" transform="translate(374.6875,49.375)"/>
<path d="M0 0 C1.9375 0.75 1.9375 0.75 3.9375 2.75 C3.5625 5.875 3.5625 5.875 2.9375 8.75 C0.0625 8.875 0.0625 8.875 -3.0625 8.75 C-5.0625 6.75 -5.0625 6.75 -5.375 4.25 C-5.271875 3.425 -5.16875 2.6 -5.0625 1.75 C-2.0625 -0.25 -2.0625 -0.25 0 0 Z " fill="#8A76A6" transform="translate(363.0625,42.25)"/>
<path d="M0 0 C1.2684375 0.12375 1.2684375 0.12375 2.5625 0.25 C4.5625 3.25 4.5625 3.25 4.1875 5.9375 C3.98125 6.700625 3.775 7.46375 3.5625 8.25 C1.5825 8.58 -0.3975 8.91 -2.4375 9.25 C-4.4375 6.25 -4.4375 6.25 -4.125 3.625 C-3.16976704 0.32510431 -3.16976704 0.32510431 0 0 Z " fill="#8A76A6" transform="translate(163.4375,22.75)"/>
<path d="M0 0 C2.875 -0.125 2.875 -0.125 6 0 C8 2 8 2 8.3125 4.5 C8.1578125 5.7375 8.1578125 5.7375 8 7 C5 9 5 9 2.3125 8.625 C1.549375 8.41875 0.78625 8.2125 0 8 C-0.79953138 4.71303767 -1.09658936 3.28976808 0 0 Z " fill="#8A76A6" transform="translate(384,417)"/>
<path d="M0 0 C2.875 -0.1875 2.875 -0.1875 6 0 C8 3 8 3 7.75 5.0625 C7 7 7 7 5 9 C1.875 8.625 1.875 8.625 -1 8 C-1.125 2.25 -1.125 2.25 0 0 Z " fill="#8A76A6" transform="translate(69,394)"/>
<path d="M0 0 C2.875 -0.1875 2.875 -0.1875 6 0 C8 3 8 3 7.6875 5.125 C7 7 7 7 6 8 C4.00041636 8.04080783 1.99954746 8.04254356 0 8 C-1.125 6.25 -1.125 6.25 -2 4 C-1.125 1.75 -1.125 1.75 0 0 Z " fill="#8A76A6" transform="translate(21,305)"/>
<path d="M0 0 C1 1 1 1 1.0625 4.5625 C1.041875 5.696875 1.02125 6.83125 1 8 C-4.43440487 9.32841008 -4.43440487 9.32841008 -6.9375 7.875 C-8 6 -8 6 -7.8125 3.375 C-6.42010387 -0.69508098 -3.8826193 -0.19910868 0 0 Z " fill="#8A76A6" transform="translate(24,292)"/>
<path d="M0 0 C2.375 0.375 2.375 0.375 3.375 1.375 C3.625 4.3125 3.625 4.3125 3.375 7.375 C0.375 9.375 0.375 9.375 -2.3125 9 C-3.075625 8.79375 -3.83875 8.5875 -4.625 8.375 C-5.625 5.375 -5.625 5.375 -4.5 2.6875 C-2.625 0.375 -2.625 0.375 0 0 Z " fill="#8A76A6" transform="translate(456.625,159.625)"/>
<path d="M0 0 C1.010625 0.0825 2.02125 0.165 3.0625 0.25 C5.0625 3.25 5.0625 3.25 4.8125 5.3125 C4.0625 7.25 4.0625 7.25 2.0625 9.25 C-0.20024788 8.89644564 -1.88838852 8.27455574 -3.9375 7.25 C-3.98004356 5.25045254 -3.97830783 3.24958364 -3.9375 1.25 C-2.9375 0.25 -2.9375 0.25 0 0 Z " fill="#8A76A6" transform="translate(60.9375,96.75)"/>
<path d="M0 0 C2.625 -0.1875 2.625 -0.1875 5 0 C5 0.66 5 1.32 5 2 C5.66 2 6.32 2 7 2 C7 3.65 7 5.3 7 7 C6.34 7 5.68 7 5 7 C5 7.66 5 8.32 5 9 C2.03 8.505 2.03 8.505 -1 8 C-1.625 5.6875 -1.625 5.6875 -2 3 C-1.34 2.01 -0.68 1.02 0 0 Z " fill="#8A76A6" transform="translate(75,77)"/>
<path d="M0 0 C2.875 -0.1875 2.875 -0.1875 6 0 C8 3 8 3 7.75 5.0625 C7 7 7 7 5 9 C1.875 8.625 1.875 8.625 -1 8 C-1.125 2.25 -1.125 2.25 0 0 Z " fill="#8A76A6" transform="translate(93,60)"/>
<path d="M0 0 C2.64 0 5.28 0 8 0 C8.04241723 2.33294775 8.04092937 4.66702567 8 7 C7 8 7 8 3.9375 8.0625 C2.968125 8.041875 1.99875 8.02125 1 8 C0.26919734 6.02253397 -0.39421747 4.01927511 -1 2 C-0.67 1.34 -0.34 0.68 0 0 Z " fill="#8A76A6" transform="translate(190,460)"/>
<path d="M0 0 C3.125 -0.1875 3.125 -0.1875 6 0 C6.625 3.375 6.625 3.375 7 7 C6.34 7.66 5.68 8.32 5 9 C2.5 8.9375 2.5 8.9375 0 8 C-1.4375 5.625 -1.4375 5.625 -2 3 C-1.34 2.01 -0.68 1.02 0 0 Z " fill="#8A76A6" transform="translate(364,432)"/>
<path d="M0 0 C1.010625 0.0825 2.02125 0.165 3.0625 0.25 C5.0625 3.25 5.0625 3.25 4.8125 5.3125 C4.0625 7.25 4.0625 7.25 2.0625 9.25 C-0.5625 8.875 -0.5625 8.875 -2.9375 8.25 C-3.31813221 5.9239143 -3.65019945 3.58944736 -3.9375 1.25 C-2.9375 0.25 -2.9375 0.25 0 0 Z " fill="#8A76A6" transform="translate(55.9375,373.75)"/>
<path d="M0 0 C2.97 0.495 2.97 0.495 6 1 C6.625 3.3125 6.625 3.3125 7 6 C6.01 7.485 6.01 7.485 5 9 C2.03 8.505 2.03 8.505 -1 8 C-1.625 5.6875 -1.625 5.6875 -2 3 C-1.34 2.01 -0.68 1.02 0 0 Z " fill="#8A76A6" transform="translate(458,299)"/>
<path d="M0 0 C3.125 0.375 3.125 0.375 6 1 C6.625 3.3125 6.625 3.3125 7 6 C6.01 7.485 6.01 7.485 5 9 C2.375 9.1875 2.375 9.1875 0 9 C-0.66 6.69 -1.32 4.38 -2 2 C-1.34 1.34 -0.68 0.68 0 0 Z " fill="#8A76A6" transform="translate(33,141)"/>
<path d="M0 0 C2 3 2 3 1.75 5.0625 C1 7 1 7 -1 9 C-3.26274788 8.64644564 -4.95088852 8.02455574 -7 7 C-7 5.02 -7 3.04 -7 1 C-4.46578263 -0.26710868 -2.80561762 -0.28056176 0 0 Z " fill="#8A76A6" transform="translate(72,87)"/>
<path d="M0 0 C1 1 1 1 1.0625 3.5625 C1.041875 4.366875 1.02125 5.17125 1 6 C0.34 6 -0.32 6 -1 6 C-1 6.66 -1 7.32 -1 8 C-3.375 8.1875 -3.375 8.1875 -6 8 C-8 5 -8 5 -7.75 2.375 C-7.5025 1.59125 -7.255 0.8075 -7 0 C-4.31633121 -1.3418344 -2.84719317 -0.73004953 0 0 Z " fill="#8A76A6" transform="translate(90,69)"/>
<path d="M0 0 C5.56818182 0.56818182 5.56818182 0.56818182 7 2 C7.04080783 3.99958364 7.04254356 6.00045254 7 8 C4.6875 8.625 4.6875 8.625 2 9 C-1 7 -1 7 -1.8125 4.5 C-1.874375 3.675 -1.93625 2.85 -2 2 C-1.34 1.34 -0.68 0.68 0 0 Z " fill="#8A76A6" transform="translate(325,26)"/>
<path d="M0 0 C3.125 -0.1875 3.125 -0.1875 6 0 C7.125 2.3125 7.125 2.3125 8 5 C7.01 6.485 7.01 6.485 6 8 C2.875 8.1875 2.875 8.1875 0 8 C-1.125 5.6875 -1.125 5.6875 -2 3 C-1.34 2.01 -0.68 1.02 0 0 Z " fill="#8A76A6" transform="translate(229,464)"/>
<path d="M0 0 C1.99954746 -0.04254356 4.00041636 -0.04080783 6 0 C7 1 7 1 7.0625 4.5625 C7.041875 5.696875 7.02125 6.83125 7 8 C4.69 8 2.38 8 0 8 C-1.125 6.25 -1.125 6.25 -2 4 C-1.125 1.75 -1.125 1.75 0 0 Z " fill="#8A76A6" transform="translate(280,462)"/>
<path d="M0 0 C0.125 2.875 0.125 2.875 0 6 C-2 8 -2 8 -4.625 8.125 C-5.40875 8.08375 -6.1925 8.0425 -7 8 C-8.35439668 5.29120665 -8.06501451 2.99066732 -8 0 C-5.13822943 -1.43088528 -3.06624227 -0.59991697 0 0 Z " fill="#8A76A6" transform="translate(115,428)"/>
<path d="M0 0 C0.125 2.375 0.125 2.375 0 5 C-0.66 5.66 -1.32 6.32 -2 7 C-5.625 6.625 -5.625 6.625 -9 6 C-9 4.02 -9 2.04 -9 0 C-5.93109813 -1.53445094 -3.29905734 -0.54984289 0 0 Z " fill="#8A76A6" transform="translate(105,421)"/>
<path d="M0 0 C1.98 0 3.96 0 6 0 C6.33 2.31 6.66 4.62 7 7 C6.34 7 5.68 7 5 7 C5 7.66 5 8.32 5 9 C3.33388095 9.042721 1.66617115 9.04063832 0 9 C-1 8 -1 8 -1.125 5.0625 C-1 2 -1 2 0 0 Z " fill="#8A76A6" transform="translate(61,384)"/>
<path d="M0 0 C2.31 0.33 4.62 0.66 7 1 C7.125 3.875 7.125 3.875 7 7 C6.34 7.66 5.68 8.32 5 9 C1.70720291 8.68134222 0.13464912 7.45484649 -2 5 C-1.34 3.35 -0.68 1.7 0 0 Z " fill="#8A76A6" transform="translate(420,380)"/>
<path d="M0 0 C3.0625 -0.25 3.0625 -0.25 6 0 C7 1 7 1 7.0625 4.5625 C7.041875 5.696875 7.02125 6.83125 7 8 C4.69 8 2.38 8 0 8 C-1.125 5.6875 -1.125 5.6875 -2 3 C-1.34 2.01 -0.68 1.02 0 0 Z " fill="#8A76A6" transform="translate(14,267)"/>
<path d="M0 0 C1 1 1 1 1.0625 3.5625 C1.041875 4.366875 1.02125 5.17125 1 6 C-1.35438733 7.42944945 -2.48032433 8.08661261 -5.25 7.625 C-5.8275 7.41875 -6.405 7.2125 -7 7 C-7.93423645 3.98968256 -8.04449911 3.13349732 -7 0 C-4.31633121 -1.3418344 -2.84719317 -0.73004953 0 0 Z " fill="#8A76A6" transform="translate(470,211)"/>
<path d="M0 0 C2.64 0 5.28 0 8 0 C8.04241723 2.33294775 8.04092937 4.66702567 8 7 C7 8 7 8 3.9375 8.0625 C2.968125 8.041875 1.99875 8.02125 1 8 C-1.125 3.375 -1.125 3.375 0 0 Z " fill="#8A76A6" transform="translate(461,198)"/>
<path d="M0 0 C0.125 2.875 0.125 2.875 0 6 C-0.66 6.66 -1.32 7.32 -2 8 C-5.125 7.625 -5.125 7.625 -8 7 C-8.6875 4.6875 -8.6875 4.6875 -9 2 C-6.73607469 -1.99516231 -4.01344788 -0.98106504 0 0 Z " fill="#8A76A6" transform="translate(25,191)"/>
<path d="M0 0 C0.94875 0.04125 1.8975 0.0825 2.875 0.125 C3.25563221 2.4510857 3.58769945 4.78555264 3.875 7.125 C2.875 8.125 2.875 8.125 -0.6875 8.1875 C-1.821875 8.166875 -2.95625 8.14625 -4.125 8.125 C-4.75 5.25 -4.75 5.25 -5.125 2.125 C-3.125 0.125 -3.125 0.125 0 0 Z " fill="#8A76A6" transform="translate(463.125,184.875)"/>
<path d="M0 0 C2.31 0 4.62 0 7 0 C7.79953138 3.28696233 8.09658936 4.71023192 7 8 C4.125 8.125 4.125 8.125 1 8 C0.34 7.34 -0.32 6.68 -1 6 C-0.625 2.875 -0.625 2.875 0 0 Z " fill="#8A76A6" transform="translate(20,178)"/>
<path d="M0 0 C2.375 0.75 2.375 0.75 3.375 1.75 C3.41580783 3.74958364 3.41754356 5.75045254 3.375 7.75 C0.08803767 8.54953138 -1.33523192 8.84658936 -4.625 7.75 C-5.3125 5.4375 -5.3125 5.4375 -5.625 2.75 C-3.9659358 -0.015107 -3.22812218 -0.30744021 0 0 Z " fill="#8A76A6" transform="translate(27.625,165.25)"/>
<path d="M0 0 C0.94875 0.04125 1.8975 0.0825 2.875 0.125 C3.205 2.435 3.535 4.745 3.875 7.125 C-2.875 8.25 -2.875 8.25 -5.125 7.125 C-5.25 4.75 -5.25 4.75 -5.125 2.125 C-3.125 0.125 -3.125 0.125 0 0 Z " fill="#8A76A6" transform="translate(435.125,113.875)"/>
<path d="M0 0 C2.64 0 5.28 0 8 0 C8.125 5.75 8.125 5.75 7 8 C5.02 8 3.04 8 1 8 C0.26919734 6.02253397 -0.39421747 4.01927511 -1 2 C-0.67 1.34 -0.34 0.68 0 0 Z " fill="#8A76A6" transform="translate(287,17)"/>
<path d="M0 0 C2.31 0 4.62 0 7 0 C7.625 2.3125 7.625 2.3125 8 5 C7.01 6.485 7.01 6.485 6 8 C3.5 8.3125 3.5 8.3125 1 8 C0.34 7.34 -0.32 6.68 -1 6 C-0.625 2.875 -0.625 2.875 0 0 Z " fill="#8A76A6" transform="translate(203,462)"/>
<path d="M0 0 C1.99954746 -0.04254356 4.00041636 -0.04080783 6 0 C7 1 7 1 7.0625 4.0625 C7.041875 5.031875 7.02125 6.00125 7 7 C4.29120665 8.35439668 1.99066732 8.06501451 -1 8 C-1.93065133 5.39417629 -2.14917407 4.35801776 -1.0625 1.75 C-0.711875 1.1725 -0.36125 0.595 0 0 Z " fill="#8A76A6" transform="translate(293,460)"/>
<path d="M0 0 C1.99954746 -0.04254356 4.00041636 -0.04080783 6 0 C7 1 7 1 7.125 4 C7 7 7 7 6 8 C4.00041636 8.04080783 1.99954746 8.04254356 0 8 C-1.125 6.25 -1.125 6.25 -2 4 C-1.125 1.75 -1.125 1.75 0 0 Z " fill="#8A76A6" transform="translate(305,457)"/>
<path d="M0 0 C2.9375 0.1875 2.9375 0.1875 3.9375 1.1875 C4.0625 4.1875 4.0625 4.1875 3.9375 7.1875 C2.9375 8.1875 2.9375 8.1875 -0.125 8.25 C-1.094375 8.229375 -2.06375 8.20875 -3.0625 8.1875 C-3.7225 6.2075 -4.3825 4.2275 -5.0625 2.1875 C-3.0625 0.1875 -3.0625 0.1875 0 0 Z " fill="#8A76A6" transform="translate(169.0625,453.8125)"/>
<path d="M0 0 C1.4540625 0.0309375 1.4540625 0.0309375 2.9375 0.0625 C3.73703138 3.34946233 4.03408936 4.77273192 2.9375 8.0625 C0.0625 8.1875 0.0625 8.1875 -3.0625 8.0625 C-3.7225 7.4025 -4.3825 6.7425 -5.0625 6.0625 C-4.33395709 0.0884481 -4.33395709 0.0884481 0 0 Z " fill="#8A76A6" transform="translate(157.0625,449.9375)"/>
<path d="M0 0 C2.5625 0.1875 2.5625 0.1875 4.5625 2.1875 C4.8125 4.6875 4.8125 4.6875 4.5625 7.1875 C3.9025 7.8475 3.2425 8.5075 2.5625 9.1875 C-1.99305556 8.63194444 -1.99305556 8.63194444 -3.4375 7.1875 C-3.5625 4.1875 -3.5625 4.1875 -3.4375 1.1875 C-2.4375 0.1875 -2.4375 0.1875 0 0 Z " fill="#8A76A6" transform="translate(414.4375,389.8125)"/>
<path d="M0 0 C1.2684375 0.12375 1.2684375 0.12375 2.5625 0.25 C4.7144437 3.47791555 4.76336443 4.53400809 4.5625 8.25 C1.6875 8.875 1.6875 8.875 -1.4375 9.25 C-3.4375 7.25 -3.4375 7.25 -3.625 4.1875 C-3.37983937 0.34665019 -3.37983937 0.34665019 0 0 Z " fill="#8A76A6" transform="translate(42.4375,351.75)"/>
<path d="M0 0 C2.31 0 4.62 0 7 0 C7.33 1.98 7.66 3.96 8 6 C5 8 5 8 1.8125 7.625 C0.884375 7.41875 -0.04375 7.2125 -1 7 C-0.67 4.69 -0.34 2.38 0 0 Z " fill="#8A76A6" transform="translate(34,341)"/>
<path d="M0 0 C2.9375 0.1875 2.9375 0.1875 3.9375 1.1875 C4.0625 4.1875 4.0625 4.1875 3.9375 7.1875 C2.9375 8.1875 2.9375 8.1875 -0.125 8.25 C-1.094375 8.229375 -2.06375 8.20875 -3.0625 8.1875 C-3.7225 6.2075 -4.3825 4.2275 -5.0625 2.1875 C-3.0625 0.1875 -3.0625 0.1875 0 0 Z " fill="#8A76A6" transform="translate(453.0625,323.8125)"/>
<path d="M0 0 C1.99954746 -0.04254356 4.00041636 -0.04080783 6 0 C7 1 7 1 7.125 4 C7 7 7 7 6 8 C4.00041636 8.04080783 1.99954746 8.04254356 0 8 C-1.125 6.25 -1.125 6.25 -2 4 C-1.125 1.75 -1.125 1.75 0 0 Z " fill="#8A76A6" transform="translate(25,317)"/>
<path d="M0 0 C2.9375 0.1875 2.9375 0.1875 3.9375 1.1875 C4.0625 4.1875 4.0625 4.1875 3.9375 7.1875 C2.9375 8.1875 2.9375 8.1875 -0.125 8.25 C-1.094375 8.229375 -2.06375 8.20875 -3.0625 8.1875 C-3.7225 6.2075 -4.3825 4.2275 -5.0625 2.1875 C-3.0625 0.1875 -3.0625 0.1875 0 0 Z " fill="#8A76A6" transform="translate(457.0625,311.8125)"/>
<path d="M0 0 C2.33294775 -0.04241723 4.66702567 -0.04092937 7 0 C8 1 8 1 8.0625 4.0625 C8.041875 5.031875 8.02125 6.00125 8 7 C5.69 7.33 3.38 7.66 1 8 C-1.125 3.375 -1.125 3.375 0 0 Z " fill="#8A76A6" transform="translate(15,280)"/>
<path d="M0 0 C2.97 0.495 2.97 0.495 6 1 C6.93065133 3.60582371 7.14917407 4.64198224 6.0625 7.25 C5.711875 7.8275 5.36125 8.405 5 9 C2.03 8.505 2.03 8.505 -1 8 C-1.625 5.6875 -1.625 5.6875 -2 3 C-1.34 2.01 -0.68 1.02 0 0 Z " fill="#8A76A6" transform="translate(463,274)"/>
<path d="M0 0 C3.0625 -0.25 3.0625 -0.25 6 0 C7 1 7 1 7.125 4 C7 7 7 7 6 8 C4.00041636 8.04080783 1.99954746 8.04254356 0 8 C-1.125 5.6875 -1.125 5.6875 -2 3 C-1.34 2.01 -0.68 1.02 0 0 Z " fill="#8A76A6" transform="translate(465,249)"/>
<path d="M0 0 C3.0625 -0.25 3.0625 -0.25 6 0 C7 1 7 1 7.125 4 C7 7 7 7 6 8 C4.00041636 8.04080783 1.99954746 8.04254356 0 8 C-1.125 5.6875 -1.125 5.6875 -2 3 C-1.34 2.01 -0.68 1.02 0 0 Z " fill="#8A76A6" transform="translate(465,236)"/>
<path d="M0 0 C1.98 0 3.96 0 6 0 C6.38063221 2.3260857 6.71269945 4.66055264 7 7 C6 8 6 8 2.4375 8.0625 C1.303125 8.041875 0.16875 8.02125 -1 8 C-1.93065133 5.39417629 -2.14917407 4.35801776 -1.0625 1.75 C-0.711875 1.1725 -0.36125 0.595 0 0 Z " fill="#8A76A6" transform="translate(465,223)"/>
<path d="M0 0 C1.4540625 0.0309375 1.4540625 0.0309375 2.9375 0.0625 C3.5975 1.7125 4.2575 3.3625 4.9375 5.0625 C3.6175 6.3825 2.2975 7.7025 0.9375 9.0625 C-1.5375 8.0725 -1.5375 8.0725 -4.0625 7.0625 C-4.10504356 5.06295254 -4.10330783 3.06208364 -4.0625 1.0625 C-3.0625 0.0625 -3.0625 0.0625 0 0 Z " fill="#8A76A6" transform="translate(117.0625,44.9375)"/>
<path d="M0 0 C1.1446875 0.3403125 1.1446875 0.3403125 2.3125 0.6875 C2.9375 3 2.9375 3 3.3125 5.6875 C2.3225 7.1725 2.3225 7.1725 1.3125 8.6875 C-1.6575 8.1925 -1.6575 8.1925 -4.6875 7.6875 C-5.375 5.375 -5.375 5.375 -5.6875 2.6875 C-4.0011022 -0.12316299 -3.27764429 -0.38112143 0 0 Z " fill="#8A76A6" transform="translate(316.6875,22.3125)"/>
<path d="M0 0 C1.4540625 0.0309375 1.4540625 0.0309375 2.9375 0.0625 C3.31813221 2.3885857 3.65019945 4.72305264 3.9375 7.0625 C2.9375 8.0625 2.9375 8.0625 0 8.25 C-3.0625 8.0625 -3.0625 8.0625 -5.0625 6.0625 C-4.33395709 0.0884481 -4.33395709 0.0884481 0 0 Z " fill="#8A76A6" transform="translate(176.0625,19.9375)"/>
<path d="M0 0 C2.00720923 0.28674418 4.0085944 0.61866701 6 1 C6.93423645 4.01031744 7.04449911 4.86650268 6 8 C3.6875 8.625 3.6875 8.625 1 9 C0.01 8.34 -0.98 7.68 -2 7 C-1.125 1.125 -1.125 1.125 0 0 Z " fill="#8A76A6" transform="translate(301,19)"/>
<path d="M0 0 C1.99954746 -0.04254356 4.00041636 -0.04080783 6 0 C7 1 7 1 7.125 4 C7 7 7 7 6 8 C4.00041636 8.04080783 1.99954746 8.04254356 0 8 C-1.125 6.25 -1.125 6.25 -2 4 C-1.125 1.75 -1.125 1.75 0 0 Z " fill="#8A76A6" transform="translate(185,17)"/>
<path d="M0 0 C3 0.125 3 0.125 4 1.125 C4.04080783 3.12458364 4.04254356 5.12545254 4 7.125 C1.6875 8.25 1.6875 8.25 -1 9.125 C-1.99 8.465 -2.98 7.805 -4 7.125 C-4.25 4.0625 -4.25 4.0625 -4 1.125 C-3 0.125 -3 0.125 0 0 Z " fill="#8A76A6" transform="translate(239,11.875)"/>
<path d="M0 0 C2.375 0.25 2.375 0.25 3.375 1.25 C3.41592937 3.58297433 3.41741723 5.91705225 3.375 8.25 C1.065 8.25 -1.245 8.25 -3.625 8.25 C-4.285 6.6 -4.945 4.95 -5.625 3.25 C-3.7774876 0.91630013 -3.0311278 0.28867884 0 0 Z " fill="#8A76A6" transform="translate(219.625,462.75)"/>
<path d="M0 0 C2.5 0.25 2.5 0.25 4.5 2.25 C3.94444444 6.80555556 3.94444444 6.80555556 2.5 8.25 C0.16055264 7.96269945 -2.1739143 7.63063221 -4.5 7.25 C-4.625 4.875 -4.625 4.875 -4.5 2.25 C-2.5 0.25 -2.5 0.25 0 0 Z " fill="#8A76A6" transform="translate(90.5,411.75)"/>
<path d="M0 0 C2.625 0.625 2.625 0.625 5 2 C5.9375 3.9375 5.9375 3.9375 6 6 C5.01 7.485 5.01 7.485 4 9 C1.69 8.67 -0.62 8.34 -3 8 C-3.1875 5.125 -3.1875 5.125 -3 2 C-2.01 1.34 -1.02 0.68 0 0 Z " fill="#8A76A6" transform="translate(429,369)"/>
<path d="M0 0 C2.875 -0.125 2.875 -0.125 6 0 C6.66 0.66 7.32 1.32 8 2 C7.625 5.125 7.625 5.125 7 8 C4.125 8.125 4.125 8.125 1 8 C0.34 7.34 -0.32 6.68 -1 6 C-0.625 2.875 -0.625 2.875 0 0 Z " fill="#8A76A6" transform="translate(460,287)"/>
<path d="M0 0 C2.33294775 -0.04241723 4.66702567 -0.04092937 7 0 C8 1 8 1 8.125 4 C8 7 8 7 7 8 C4.625 8.3125 4.625 8.3125 2 8 C0.125 6.25 0.125 6.25 -1 4 C-0.6875 1.75 -0.6875 1.75 0 0 Z " fill="#8A76A6" transform="translate(463,262)"/>
<path d="M0 0 C3.0625 -0.25 3.0625 -0.25 6 0 C7 1 7 1 7.125 4 C7 7 7 7 6 8 C4.00041636 8.04080783 1.99954746 8.04254356 0 8 C-1.125 5.6875 -1.125 5.6875 -2 3 C-1.34 2.01 -0.68 1.02 0 0 Z " fill="#8A76A6" transform="translate(14,216)"/>
<path d="M0 0 C2.5 -0.3125 2.5 -0.3125 5 0 C5.66 0.66 6.32 1.32 7 2 C6.625 5.125 6.625 5.125 6 8 C3.69 8 1.38 8 -1 8 C-1.625 5.6875 -1.625 5.6875 -2 3 C-1.34 2.01 -0.68 1.02 0 0 Z " fill="#8A76A6" transform="translate(16,203)"/>
<path d="M0 0 C1.98 0 3.96 0 6 0 C6.33 2.31 6.66 4.62 7 7 C5.35 7.66 3.7 8.32 2 9 C0.68 7.68 -0.64 6.36 -2 5 C-1.34 3.35 -0.68 1.7 0 0 Z " fill="#8A76A6" transform="translate(425,103)"/>
<path d="M0 0 C2.31 0 4.62 0 7 0 C7.04241723 2.33294775 7.04092937 4.66702567 7 7 C6 8 6 8 3.625 8.3125 C1 8 1 8 -0.8125 6 C-1.204375 5.34 -1.59625 4.68 -2 4 C-1.34 2.68 -0.68 1.36 0 0 Z " fill="#8A76A6" transform="translate(275,15)"/>
<path d="M0 0 C2.33294775 -0.04241723 4.66702567 -0.04092937 7 0 C8 1 8 1 8.1875 3.4375 C8 6 8 6 6 8 C3.375 8.125 3.375 8.125 1 8 C-1.125 3.375 -1.125 3.375 0 0 Z " fill="#8A76A6" transform="translate(197,15)"/>
<path d="M0 0 C2.5 -0.3125 2.5 -0.3125 5 0 C5.66 0.66 6.32 1.32 7 2 C6.625 5.125 6.625 5.125 6 8 C3.69 8 1.38 8 -1 8 C-1.625 5.6875 -1.625 5.6875 -2 3 C-1.34 2.01 -0.68 1.02 0 0 Z " fill="#8A76A6" transform="translate(263,13)"/>
<path d="M0 0 C0 2.31 0 4.62 0 7 C-1.98 7.33 -3.96 7.66 -6 8 C-8 5 -8 5 -7.75 2.375 C-7.5025 1.59125 -7.255 0.8075 -7 0 C-4.3333581 -1.33332095 -2.83319697 -0.67102033 0 0 Z " fill="#8A76A6" transform="translate(274,464)"/>
<path d="M0 0 C2.875 -0.125 2.875 -0.125 6 0 C8 2 8 2 8.125 4.625 C8.08375 5.40875 8.0425 6.1925 8 7 C5.6875 8.125 5.6875 8.125 3 9 C2.01 8.34 1.02 7.68 0 7 C-0.1875 3.375 -0.1875 3.375 0 0 Z " fill="#8A76A6" transform="translate(374,425)"/>
<path d="M0 0 C3.0625 -0.25 3.0625 -0.25 6 0 C7 1 7 1 7.125 4 C7 7 7 7 6 8 C3.66055264 7.71269945 1.3260857 7.38063221 -1 7 C-1.625 5.1875 -1.625 5.1875 -2 3 C-1.34 2.01 -0.68 1.02 0 0 Z " fill="#8A76A6" transform="translate(13,229)"/>
<path d="M0 0 C1.010625 0.0825 2.02125 0.165 3.0625 0.25 C5.0625 3.25 5.0625 3.25 4.75 5.375 C4.0625 7.25 4.0625 7.25 3.0625 8.25 C0.625 8.4375 0.625 8.4375 -1.9375 8.25 C-3.9375 6.25 -3.9375 6.25 -4.125 3.6875 C-3.85121288 0.1282675 -3.61900269 0.30800023 0 0 Z " fill="#8A76A6" transform="translate(419.9375,92.75)"/>
<path d="M0 0 C2.33294775 -0.04241723 4.66702567 -0.04092937 7 0 C8 1 8 1 8.125 4 C8 7 8 7 7 8 C5.00041636 8.04080783 2.99954746 8.04254356 1 8 C-0.35439668 5.29120665 -0.06501451 2.99066732 0 0 Z " fill="#8A76A6" transform="translate(399,74)"/>
<path d="M0 0 C2.31 0.33 4.62 0.66 7 1 C6.67 3.31 6.34 5.62 6 8 C3.69 7.67 1.38 7.34 -1 7 C-1.625 5.1875 -1.625 5.1875 -2 3 C-1.34 2.01 -0.68 1.02 0 0 Z " fill="#8A76A6" transform="translate(119,434)"/>
<path d="M0 0 C2.4375 0.1875 2.4375 0.1875 3.4375 1.1875 C3.5625 4.1875 3.5625 4.1875 3.4375 7.1875 C2.4375 8.1875 2.4375 8.1875 -1.125 8.25 C-2.259375 8.229375 -3.39375 8.20875 -4.5625 8.1875 C-4.6875 5.3125 -4.6875 5.3125 -4.5625 2.1875 C-2.5625 0.1875 -2.5625 0.1875 0 0 Z " fill="#8A76A6" transform="translate(16.5625,253.8125)"/>
<path d="M0 0 C2.6875 0.875 2.6875 0.875 5 2 C4.67 4.31 4.34 6.62 4 9 C1.69 8.67 -0.62 8.34 -3 8 C-3.1875 5.125 -3.1875 5.125 -3 2 C-2.01 1.34 -1.02 0.68 0 0 Z " fill="#8A76A6" transform="translate(53,107)"/>
<path d="M0 0 C2.31 0 4.62 0 7 0 C7 2.64 7 5.28 7 8 C3.98968256 8.93423645 3.13349732 9.04449911 0 8 C0 5.36 0 2.72 0 0 Z " fill="#8A76A6" transform="translate(408,83)"/>
<path d="M0 0 C0.7425 0.2475 1.485 0.495 2.25 0.75 C2.29254356 2.74954746 2.29080783 4.75041636 2.25 6.75 C1.25 7.75 1.25 7.75 -2.3125 7.8125 C-3.446875 7.791875 -4.58125 7.77125 -5.75 7.75 C-6.5 6 -6.5 6 -6.75 3.75 C-4.62771652 0.72982736 -3.76812267 -0.34255661 0 0 Z " fill="#8A76A6" transform="translate(227.75,12.25)"/>
<path d="M0 0 C2.625 -0.1875 2.625 -0.1875 5 0 C6.42944945 2.35438733 7.08661261 3.48032433 6.625 6.25 C6.41875 6.8275 6.2125 7.405 6 8 C4.02 8 2.04 8 0 8 C-1.125 5.6875 -1.125 5.6875 -2 3 C-1.34 2.01 -0.68 1.02 0 0 Z " fill="#8A76A6" transform="translate(255,464)"/>
<path d="M0 0 C2.4375 0.1875 2.4375 0.1875 3.4375 1.1875 C3.47842937 3.52047433 3.47991723 5.85455225 3.4375 8.1875 C1.1275 8.1875 -1.1825 8.1875 -3.5625 8.1875 C-4.1875 5.3125 -4.1875 5.3125 -4.5625 2.1875 C-2.5625 0.1875 -2.5625 0.1875 0 0 Z " fill="#8A76A6" transform="translate(213.5625,12.8125)"/>
<path d="M0 0 C5.875 0.875 5.875 0.875 7 2 C7.125 4.5 7.125 4.5 7 7 C6 8 6 8 2.9375 8.0625 C1.968125 8.041875 0.99875 8.02125 0 8 C-1.125 5.6875 -1.125 5.6875 -2 3 C-1.34 2.01 -0.68 1.02 0 0 Z " fill="#8A76A6" transform="translate(250,12)"/>
<path d="M0 0 C2.5625 0.1875 2.5625 0.1875 4.5625 2.1875 C4.875 4.6875 4.875 4.6875 4.5625 7.1875 C1.5625 9.1875 1.5625 9.1875 -0.625 8.8125 C-1.223125 8.60625 -1.82125 8.4 -2.4375 8.1875 C-2.81813221 5.8614143 -3.15019945 3.52694736 -3.4375 1.1875 C-2.4375 0.1875 -2.4375 0.1875 0 0 Z " fill="#8A76A6" transform="translate(393.4375,64.8125)"/>
<path d="M0 0 C2.33944736 0.28730055 4.6739143 0.61936779 7 1 C6.67 3.31 6.34 5.62 6 8 C3.69 7.67 1.38 7.34 -1 7 C-1.04254356 5.00045254 -1.04080783 2.99958364 -1 1 C-0.67 0.67 -0.34 0.34 0 0 Z " fill="#8A76A6" transform="translate(381,57)"/>
<path d="M0 0 C2.33294775 -0.04241723 4.66702567 -0.04092937 7 0 C8 1 8 1 8.0625 4.0625 C8.041875 5.031875 8.02125 6.00125 8 7 C5.69 7 3.38 7 1 7 C-0.0625 4.625 -0.0625 4.625 -1 2 C-0.67 1.34 -0.34 0.68 0 0 Z " fill="#8A76A6" transform="translate(241,465)"/>
<path d="M0 0 C1.134375 0.020625 2.26875 0.04125 3.4375 0.0625 C4.0625 2.4375 4.0625 2.4375 4.4375 5.0625 C2.4375 7.0625 2.4375 7.0625 -0.6875 7.1875 C-2.110625 7.125625 -2.110625 7.125625 -3.5625 7.0625 C-3.94383299 5.0710944 -4.27575582 3.06970923 -4.5625 1.0625 C-3.5625 0.0625 -3.5625 0.0625 0 0 Z " fill="#8A76A6" transform="translate(397.5625,409.9375)"/>
<path d="M0 0 C3.625 -0.1875 3.625 -0.1875 7 0 C7.625 1.8125 7.625 1.8125 8 4 C7.01 5.485 7.01 5.485 6 7 C2.375 7.1875 2.375 7.1875 -1 7 C-1.625 5.1875 -1.625 5.1875 -2 3 C-1.34 2.01 -0.68 1.02 0 0 Z " fill="#8A76A6" transform="translate(13,242)"/>
<path d="M0 0 C0 2.31 0 4.62 0 7 C-1.65 7.33 -3.3 7.66 -5 8 C-7 2.25 -7 2.25 -7 0 C-4.3333581 -1.33332095 -2.83319697 -0.67102033 0 0 Z " fill="#8A76A6" transform="translate(84,404)"/>
<path d="M0 0 C1.134375 0.020625 2.26875 0.04125 3.4375 0.0625 C3.81968767 1.71864657 4.15145102 3.38707024 4.4375 5.0625 C3.4375 6.0625 3.4375 6.0625 -0.125 6.125 C-1.259375 6.104375 -2.39375 6.08375 -3.5625 6.0625 C-3.94468767 4.40635343 -4.27645102 2.73792976 -4.5625 1.0625 C-3.5625 0.0625 -3.5625 0.0625 0 0 Z " fill="#8A76A6" transform="translate(406.5625,400.9375)"/>
</svg>
