<?xml version="1.0" encoding="UTF-8"?>
<svg version="1.1" xmlns="http://www.w3.org/2000/svg" width="484" height="485">
<path d="M0 0 C47.4513577 41.94603256 74.96069871 101.59166092 80.02172852 164.55322266 C80.1687515 167.96379024 80.20783336 171.37022322 80.22485352 174.78369141 C80.23186783 175.72871521 80.23888214 176.67373901 80.24610901 177.6473999 C80.26351211 180.67855653 80.26996077 183.70951791 80.27172852 186.74072266 C80.27240326 187.77544708 80.273078 188.81017151 80.27377319 189.87625122 C80.25840623 204.68124801 79.89097169 218.98850731 77.02172852 233.55322266 C76.78824707 234.8704834 76.78824707 234.8704834 76.55004883 236.21435547 C68.87969224 279.37350762 49.91293915 320.93153496 20.13891602 353.24853516 C18.03230757 355.54170672 15.9966957 357.88613995 13.95922852 360.24072266 C10.25830635 364.39971574 6.28717662 367.98739832 2.02172852 371.55322266 C1.21864258 372.26736328 0.41555664 372.98150391 -0.41186523 373.71728516 C-24.22093367 394.45312632 -52.97058945 409.16714498 -82.97827148 418.55322266 C-83.91477539 418.84664551 -84.8512793 419.14006836 -85.81616211 419.44238281 C-105.97149105 425.61752676 -127.20888855 429.65765056 -148.32983398 429.75634766 C-149.30576508 429.76204773 -150.28169617 429.7677478 -151.28720093 429.77362061 C-153.3495782 429.7830222 -155.41197017 429.7895852 -157.47436523 429.79345703 C-160.54626805 429.80304474 -163.61746604 429.8340654 -166.68920898 429.86572266 C-230.37720106 430.2063412 -291.89294817 405.35253839 -337.16577148 360.67822266 C-343.56342944 354.25616944 -349.35848508 347.5540025 -354.72680664 340.25341797 C-355.97559589 338.55685762 -357.24714252 336.87926291 -358.52124023 335.20166016 C-365.28490267 326.16385012 -370.77614183 316.55716183 -375.97827148 306.55322266 C-376.39077148 305.77156738 -376.80327148 304.98991211 -377.22827148 304.18457031 C-395.86880004 268.49815217 -404.47252334 228.47661387 -404.29077148 188.36572266 C-404.28803726 187.0983728 -404.28803726 187.0983728 -404.2852478 185.80541992 C-404.23494953 171.87918704 -403.51741872 158.27542264 -400.97827148 144.55322266 C-400.80134766 143.59609375 -400.62442383 142.63896484 -400.44213867 141.65283203 C-392.81013152 101.71331273 -377.3610288 64.51024473 -351.97827148 32.55322266 C-351.19581055 31.56580078 -350.41334961 30.57837891 -349.60717773 29.56103516 C-337.79712249 14.99629428 -324.30662241 1.39670119 -308.97827148 -9.44677734 C-308.29829102 -9.92808105 -307.61831055 -10.40938477 -306.91772461 -10.90527344 C-222.87521563 -69.74635621 -100.91581318 -71.92824835 0 0 Z M-201.97827148 -45.44677734 C-202.83727051 -45.32850586 -203.69626953 -45.21023437 -204.58129883 -45.08837891 C-226.6005179 -41.90984701 -248.06382516 -35.37853446 -267.97827148 -25.44677734 C-268.70868652 -25.08438965 -269.43910156 -24.72200195 -270.19165039 -24.34863281 C-279.55031213 -19.65810006 -288.45345807 -14.54936791 -296.97827148 -8.44677734 C-297.9850293 -7.72619141 -298.99178711 -7.00560547 -300.02905273 -6.26318359 C-305.87351843 -1.97823225 -311.37093862 2.53824633 -316.69311523 7.45556641 C-318.68238568 9.28161466 -320.71678648 11.01312346 -322.79077148 12.74072266 C-352.46795424 38.78274849 -373.58224912 76.13006121 -384.97827148 113.55322266 C-385.24333496 114.41447754 -385.50839844 115.27573242 -385.78149414 116.16308594 C-390.09616536 130.41268425 -392.97536897 144.80457684 -394.97827148 159.55322266 C-395.08284668 160.30780762 -395.18742187 161.06239258 -395.29516602 161.83984375 C-396.31945818 170.40981596 -396.22206968 179.05950332 -396.22827148 187.67822266 C-396.22894623 188.52192413 -396.22962097 189.36562561 -396.23031616 190.2348938 C-396.21262379 204.20476062 -395.46358524 217.77940462 -392.97827148 231.55322266 C-392.74479004 232.91133057 -392.74479004 232.91133057 -392.5065918 234.296875 C-384.61887428 278.92309318 -364.52747437 320.90982776 -332.97827148 353.55322266 C-332.10686523 354.47619141 -331.23545898 355.39916016 -330.33764648 356.35009766 C-307.33291993 380.1620076 -277.14082914 397.02525021 -245.97827148 407.55322266 C-245.1685791 407.82859863 -244.35888672 408.10397461 -243.5246582 408.38769531 C-224.62018703 414.70187242 -204.81934151 418.70052774 -184.97827148 420.55322266 C-183.80135742 420.66408203 -182.62444336 420.77494141 -181.41186523 420.88916016 C-122.3602419 425.60309773 -57.56108428 411.79967199 -11.46850586 372.83496094 C-8.33716752 370.14172269 -5.2538942 367.40273262 -2.21655273 364.60400391 C-0.11530529 362.67877719 2.03492157 360.83243963 4.20922852 358.99072266 C8.21846141 355.47566956 11.63159644 351.66187984 15.02172852 347.55322266 C15.65570557 346.80371338 15.65570557 346.80371338 16.30249023 346.0390625 C35.27710197 323.5640873 49.6167213 297.39182892 59.02172852 269.55322266 C59.29710449 268.74353027 59.57248047 267.93383789 59.85620117 267.09960938 C63.17437373 257.16509274 65.68166913 247.12672239 67.77172852 236.86572266 C67.97048584 235.89344727 68.16924316 234.92117188 68.37402344 233.91943359 C71.37436129 218.4303341 72.40255673 203.23653833 72.33422852 187.49072266 C72.33207336 186.59214539 72.32991821 185.69356812 72.32769775 184.76776123 C72.27300903 170.5136048 71.69072236 156.59041758 69.02172852 142.55322266 C68.81773437 141.47476074 68.61374023 140.39629883 68.40356445 139.28515625 C59.67267363 94.53139785 40.72200586 53.65443723 9.02172852 20.55322266 C8.55009277 20.05435547 8.07845703 19.55548828 7.5925293 19.04150391 C-34.02241458 -24.81413623 -95.53442242 -45.26400373 -154.84790039 -47.59912109 C-170.62902916 -47.99429146 -186.33371405 -47.63597872 -201.97827148 -45.44677734 Z " fill="#6D5490" transform="translate(403.978271484375,55.44677734375)"/>
<path d="M0 0 C4.68634857 2.38608956 9.02825657 5.33652949 13.3125 8.375 C13.71339844 7.98828125 14.11429688 7.6015625 14.52734375 7.203125 C21.84327383 0.50100312 28.13385628 -1.96671962 38 -2.125 C38.72493652 -2.14353027 39.44987305 -2.16206055 40.19677734 -2.18115234 C45.3198106 -2.12118569 48.28504513 -1.01807253 52.3125 2.375 C54.25390625 4.77734375 54.25390625 4.77734375 55.875 7.3125 C60.37476587 14.27977086 60.37476587 14.27977086 67.3125 18.375 C72.87370833 18.61064442 77.86551026 18.01397457 83.3125 16.875 C97.102545 14.26997716 110.99121388 13.62772701 123.68359375 20.6953125 C132.39619621 26.72331345 137.92854755 35.89560669 139.84863281 46.27246094 C140.35249839 50.32598641 140.72332603 54.38529455 141.08984375 58.453125 C142.0856764 68.04262457 144.23313394 76.43581941 151.3125 83.375 C153.94859565 85.30898104 156.70077101 87.00140747 159.5 88.6875 C172.0579862 96.54680135 183.31431024 105.31181986 187.609375 120.03515625 C189.72685697 130.09319561 188.56870256 138.66465503 186.15698242 148.51367188 C182.10126497 165.2571368 181.83150639 181.08670045 182.27148438 198.25830078 C182.66255574 215.1554964 181.74451232 230.31249138 169.70703125 243.265625 C161.41189727 250.57292084 150.38366963 253.50287069 139.6796875 255.078125 C138.43264038 255.26242065 138.43264038 255.26242065 137.16040039 255.45043945 C135.5132649 255.68565389 133.8639729 255.90638645 132.21264648 256.11010742 C125.26617142 257.06657416 119.29438363 258.76725839 114.9375 264.5 C110.94363433 272.80159756 111.16812665 281.69536505 111.4375 290.6875 C111.58349917 301.96407971 111.36199283 311.71708801 104.0625 320.9375 C99.13394549 325.96144588 92.98638505 329.04444563 85.9375 329.54296875 C80.89257131 329.58050542 76.15814738 329.27124205 71.1875 328.375 C60.18116064 326.40350365 50.99931301 327.07360848 41.4375 333.375 C39.33935816 334.8615064 37.30874824 336.37806161 35.31640625 338.00390625 C31.87962963 340.35538499 28.41167085 340.61073506 24.3125 340.375 C20.36189575 339.1380696 16.78932431 337.31740929 13.3046875 335.09375 C11.29087319 334.11211899 11.29087319 334.11211899 9.27734375 335.23828125 C8.60832031 335.71652344 7.93929687 336.19476563 7.25 336.6875 C2.58844761 339.95327087 -0.91625859 341.11967631 -6.6875 340.375 C-9.95102043 338.34088795 -12.8033692 335.91020004 -15.6875 333.375 C-23.57859606 326.58498711 -31.74479464 326.83418339 -41.6875 327.375 C-43.36324594 327.65919083 -45.03286343 327.98632698 -46.6875 328.375 C-55.02613418 330.2993002 -65.49952757 331.40498603 -73.05078125 326.6875 C-81.07051045 320.25640451 -84.45640185 311.45769388 -85.6875 301.375 C-85.75138938 298.49783619 -85.68438901 295.62686466 -85.625 292.75 C-85.37533391 276.8951421 -85.37533391 276.8951421 -92.6875 263.375 C-99.75861243 258.70818537 -107.55919746 256.97337331 -115.75 255.3125 C-129.35074077 252.51718367 -141.45462791 249.13899144 -149.5 237.0625 C-155.35643653 227.23062363 -156.92884366 217.81083841 -156.5390625 206.48046875 C-156.06789215 186.93105451 -156.37000369 168.63512124 -161.19775391 149.60229492 C-164.63845423 135.82985336 -165.77649184 122.95462331 -158.4375 110.203125 C-153.57440818 103.07427449 -146.49612544 98.3197186 -139.5078125 93.44921875 C-138.76571533 92.93133789 -138.02361816 92.41345703 -137.2590332 91.87988281 C-135.79186743 90.86192061 -134.31930621 89.85167531 -132.84057617 88.85058594 C-123.71540378 82.56437962 -117.16376975 76.38644917 -115.09033203 65.13427734 C-114.40734608 60.1990439 -113.87544571 55.25330732 -113.35351562 50.29882812 C-111.95775468 38.57320641 -109.4999617 28.51984191 -99.94140625 20.9296875 C-90.35729026 14.3188068 -79.90492097 15.16917108 -68.8125 16.3125 C-51.86388095 18.79960247 -51.86388095 18.79960247 -35.6875 15.375 C-33.43938907 12.73721651 -31.57083171 9.97983919 -29.671875 7.08203125 C-22.95303926 -2.08362459 -10.26667604 -4.36378999 0 0 Z M16.671875 14.86328125 C14.3125 16.375 14.3125 16.375 11.76171875 16.31640625 C9.00985956 15.25867409 7.48515201 14.04542342 5.375 12 C-0.11721834 7.01916139 -4.58263923 4.62081877 -12.10546875 4.9140625 C-19.49491535 6.23320728 -23.79299928 11.19913855 -28 17.0625 C-28.61488281 17.99449219 -29.22976562 18.92648438 -29.86328125 19.88671875 C-32.07351956 22.9015406 -34.03415862 24.81036194 -37.59765625 26.02734375 C-44.53762024 26.94679451 -50.63568118 25.46624192 -57.36328125 23.93286133 C-69.31505611 21.25332782 -82.03108585 19.42077569 -93.4375 25 C-100.44923336 29.48155599 -103.71264898 36.55851533 -105.6875 44.375 C-106.20229466 47.86590954 -106.46204112 51.35476711 -106.6875 54.875 C-107.54846685 68.31782328 -111.03937826 77.38514207 -121.0625 86.6875 C-125.90534127 90.76918743 -131.18806922 94.30780294 -136.43310547 97.84887695 C-143.50368137 102.69988434 -149.3653323 107.66771924 -153.0625 115.5625 C-153.54460937 116.56667969 -154.02671875 117.57085937 -154.5234375 118.60546875 C-159.85816752 131.29782977 -155.75461001 145.28323902 -152.9765625 158.12890625 C-150.11991496 171.76798747 -149.4954605 184.43339167 -149.80395508 198.30029297 C-150.1095934 213.19075106 -149.64935613 226.57846119 -139.09375 238.1171875 C-131.52762712 245.29072853 -121.67243301 247.00650664 -111.6875 248.375 C-102.77373085 249.5966841 -94.19809636 251.04108095 -86.8125 256.5 C-81.56378179 263.60120698 -79.53280225 271.56900312 -79.66015625 280.265625 C-79.67281062 281.62890364 -79.68517098 282.99218503 -79.69726562 284.35546875 C-79.72197016 286.48592911 -79.74986194 288.61624251 -79.78344727 290.74658203 C-80.26517067 305.54667113 -80.26517067 305.54667113 -73.6875 318.375 C-67.27309509 323.59075349 -59.54384274 322.99640564 -51.6875 322.375 C-49.13359763 321.94509917 -46.6313414 321.40456788 -44.10546875 320.8359375 C-33.762789 318.86431196 -25.06178773 321.48281032 -15.6484375 325.75390625 C-8.85102165 328.8364553 -3.18826221 330.55421221 4.3125 329.375 C7.64693944 327.91776115 7.64693944 327.91776115 10.3125 326.375 C13.0920612 326.81950473 15.44667069 327.85448119 18 329 C26.26218976 332.07542069 33.92958645 328.6722109 41.625 325.375 C43.37019333 324.64368089 45.11625609 323.91443226 46.86328125 323.1875 C47.62294189 322.86394531 48.38260254 322.54039062 49.1652832 322.20703125 C56.45939639 319.38061422 64.57879285 319.59272997 72.125 321.375 C76.43591616 322.34617884 80.65549475 322.63158582 85.0625 322.6875 C86.29484375 322.70425781 87.5271875 322.72101563 88.796875 322.73828125 C93.3099965 322.27192536 96.58830155 320.94766557 99.95703125 317.875 C104.21243424 312.40986706 104.46459683 308.33739031 104.5234375 301.61328125 C104.55151971 299.83657954 104.58018426 298.05988696 104.609375 296.28320312 C104.65051282 293.48999419 104.68741047 290.69695313 104.71386719 287.90356445 C104.74165374 285.20228051 104.78753665 282.5017644 104.8359375 279.80078125 C104.83919037 278.97653152 104.84244324 278.1522818 104.84579468 277.30305481 C105.01985632 268.99692851 107.2157389 262.33627752 113.3125 256.375 C119.76932437 251.75178838 127.70062266 250.89429061 135.3125 249.375 C148.6660206 246.5971838 161.27993496 243.31411307 169.3125 231.375 C174.81322977 221.96494655 175.63792695 211.44761349 175.3671875 200.765625 C175.34188859 198.77344452 175.31716714 196.78125665 175.29296875 194.7890625 C175.24357525 191.71101611 175.18768258 188.63337758 175.12060547 185.55566406 C174.86709397 173.0956735 175.18412374 162.21889389 179.3125 150.375 C182.44153036 140.80645637 185.55203732 130.0766389 181.3125 120.375 C175.52545672 109.16386389 165.38347064 102.14445407 155.10986328 95.35595703 C148.8525121 91.200454 142.81243094 87.06361237 139 80.4375 C138.29423828 79.24833984 138.29423828 79.24833984 137.57421875 78.03515625 C133.79309369 70.0631867 133.44889493 61.56021024 132.6328125 52.88671875 C131.69387038 44.10547601 130.13588758 33.62977195 123.3125 27.375 C110.47545811 19.60381555 94.7436822 21.25437406 80.625 24.4375 C79.82513672 24.63625732 79.02527344 24.83501465 78.20117188 25.03979492 C71.43656203 26.65394838 65.43480578 26.87610855 59.0625 23.8125 C56.16286606 21.24236992 54.58919737 18.85693268 52.66796875 15.54296875 C49.81715802 10.9833147 46.50780792 6.10676931 41.3125 4.375 C30.78479663 3.46743936 24.28616667 7.9332805 16.671875 14.86328125 Z " fill="#6D5490" transform="translate(228.6875,77.625)"/>
<path d="M0 0 C2.77289796 2.22665095 5.41633381 4.55713306 8 7 C8.86625 6.154375 9.7325 5.30875 10.625 4.4375 C20.55167394 -4.07396584 33.00205362 -8.5238855 45.9765625 -8.24609375 C56.70162911 -7.37312321 63.69128756 -2.57519444 71.0625 4.9375 C79.50383537 14.90913593 82.87004308 27.51456677 86.73168945 39.73046875 C89.40400247 47.8795236 92.99116406 55.16971062 97.12158203 62.66479492 C105.31420153 77.6624108 109.65777644 93.21670317 104.95703125 110.06640625 C100.33564685 124.23236413 90.31262338 134.67152407 78.85961914 143.77880859 C71.06754271 150.07305607 68.23169142 156.25745014 65.9375 165.9375 C61.7326588 183.31044333 61.7326588 183.31044333 54.5625 189.3125 C53.82128906 189.94800781 53.08007812 190.58351563 52.31640625 191.23828125 C50 193 50 193 47.40234375 194.42578125 C44.57939138 196.27561833 43.58132056 197.91900873 42 200.875 C39.21610203 205.74682146 36.75242858 209.8235776 31.41186523 212.10620117 C27.1682823 213.21788325 23.27732796 213.30562329 18.91015625 213.30078125 C18.04740585 213.30506638 17.18465546 213.3093515 16.29576111 213.31376648 C14.47786331 213.31948879 12.65994262 213.32002557 10.84204102 213.31567383 C8.07463188 213.31251385 5.30829285 213.33599892 2.54101562 213.36132812 C0.7682305 213.36360148 -1.00455747 213.36430445 -2.77734375 213.36328125 C-3.5973436 213.372491 -4.41734344 213.38170074 -5.26219177 213.39118958 C-10.58318749 213.34874897 -14.28669999 212.52250079 -19 210 C-21.51171875 207.2578125 -21.51171875 207.2578125 -23.6875 204.125 C-24.41324219 203.09632813 -25.13898438 202.06765625 -25.88671875 201.0078125 C-26.58410156 200.01523437 -27.28148437 199.02265625 -28 198 C-30.22770374 195.05193599 -31.76898999 193.1506587 -34.875 191.125 C-43.70048886 185.12366758 -46.57448276 177.03557732 -48.9921875 166.9453125 C-49.16089355 166.24140381 -49.32959961 165.53749512 -49.50341797 164.81225586 C-49.82627307 163.43083601 -50.1359509 162.04624694 -50.43017578 160.65844727 C-52.08958198 153.34959177 -55.72387305 148.93338618 -61.25 144.0625 C-62.22066406 143.19625 -63.19132812 142.33 -64.19140625 141.4375 C-65.8479153 139.99986211 -67.51741072 138.576581 -69.21484375 137.1875 C-78.50825715 129.53193569 -87.93808042 117.1473958 -90 105 C-91.25042918 86.98152045 -85.1024403 73.71660947 -76.99853516 58.06591797 C-71.63630847 47.58483749 -67.76571346 36.87673986 -64.32055664 25.6159668 C-60.67765394 14.02815575 -55.21387323 2.5797185 -44.18359375 -3.5703125 C-29.08356941 -10.60760746 -13.87390672 -9.35682081 0 0 Z M-49 10 C-54.91693568 17.80086567 -57.68764326 26.95388661 -60.70410156 36.14550781 C-63.97626855 46.02236496 -67.86404074 54.91535965 -73.1875 63.875 C-80.95516504 77.01038944 -85.43503998 88.8932001 -82.3046875 104.45703125 C-78.4735124 118.28467582 -69.51780725 128.77359167 -58.375 137.5625 C-48.95337939 145.07076628 -44.94208143 152.22344512 -42.078125 163.69140625 C-41.91014404 164.34931152 -41.74216309 165.0072168 -41.5690918 165.68505859 C-41.083979 167.60259845 -40.62153009 169.52582911 -40.16015625 171.44921875 C-37.76818541 178.77009921 -33.06207973 183.5126402 -27 188 C-20.8016125 191.09919375 -13.2096516 190.9824408 -6.6875 188.8125 C-1.93233008 186.76087427 0.85099058 183.62446159 3.8125 179.4375 C5.57860109 174.3251021 5.2340485 169.35711005 5 164 C3.89205078 163.58041016 3.89205078 163.58041016 2.76171875 163.15234375 C-16.16310372 155.67379256 -16.16310372 155.67379256 -19 150 C-19.46942784 142.60651147 -19.46942784 142.60651147 -17.80029297 140.44995117 C-10.93307668 134.91911343 2.18385096 136.68986971 10.67480469 136.73925781 C12.89284955 136.75008715 15.11010284 136.73924249 17.328125 136.7265625 C18.75781426 136.72788256 20.18750304 136.73044178 21.6171875 136.734375 C23.52927002 136.73775879 23.52927002 136.73775879 25.47998047 136.74121094 C29.00838041 137.00061612 31.75096363 137.61548478 35 139 C36.45147903 141.90295805 36.37239025 143.77261779 36 147 C32.48343843 152.03705581 28.89377272 154.56746671 23.4375 157.25 C22.77814453 157.58773437 22.11878906 157.92546875 21.43945312 158.2734375 C19.63307871 159.19568695 17.81689658 160.09865689 16 161 C14.77990234 161.61101562 14.77990234 161.61101562 13.53515625 162.234375 C13.02855469 162.48703125 12.52195312 162.7396875 12 163 C11.35513104 174.16636403 11.35513104 174.16636403 16 184 C20.65970684 188.91857944 26.10714109 189.80049249 32.625 190.25 C40.44474564 189.67075958 46.0908336 185.96166214 52 181 C56.47204543 175.1157297 57.94812113 168.02127301 60 161 C63.41419728 149.74381835 66.85759551 143.57147277 76.24609375 136.24609375 C79.02666663 133.97825062 81.50501666 131.57625315 84 129 C84.66902344 128.32839844 85.33804688 127.65679687 86.02734375 126.96484375 C95.78509324 116.60845932 100.61635363 104.78944175 100.2890625 90.58203125 C99.39676918 79.52482886 93.71012246 70.56354112 88.42797852 61.05883789 C83.88459804 52.87573657 80.24298096 44.82938572 77.33203125 35.9296875 C77.02950439 35.00679932 76.72697754 34.08391113 76.4152832 33.13305664 C75.82297391 31.30778343 75.24134691 29.47899444 74.67260742 27.64624023 C72.01009029 19.30891487 68.69251131 11.85594739 62 6 C61.29875 5.29875 60.5975 4.5975 59.875 3.875 C51.95359806 -1.2911317 42.17516884 -2.23011331 33.05859375 -0.4140625 C25.08916129 1.80475778 19.46642092 5.81488629 14 12 C12.7445184 14.15173471 12.7445184 14.15173471 12 16 C9.69 16 7.38 16 5 16 C4.63261719 15.13375 4.63261719 15.13375 4.2578125 14.25 C0.20645386 7.00284914 -8.04470783 1.89953285 -15.8125 -0.578125 C-29.15117593 -3.15058393 -39.92239164 0.01847725 -49 10 Z M8 184 C7.484375 184.9075 6.96875 185.815 6.4375 186.75 C3.93150909 190.38883611 1.19442587 192.58828385 -3 194 C-7.9840759 194.90432717 -12.96044374 195.50707043 -18 196 C-16.41887384 200.38073487 -14.92633074 202.38244617 -11 205 C-5.82835831 206.70190999 -0.25374628 206.1843873 5.125 206.1875 C6.21554688 206.19974609 7.30609375 206.21199219 8.4296875 206.22460938 C20.68845543 206.4278977 20.68845543 206.4278977 31.5625 201.5625 C34.17685033 199.17731603 34.17685033 199.17731603 35 196 C34.01 195.91363281 33.02 195.82726562 32 195.73828125 C22.68284991 194.79819154 15.91435523 193.40364964 9.5 186.1875 C9.005 185.465625 8.51 184.74375 8 184 Z " fill="#6D5490" transform="translate(233,173)"/>
<path d="M0 0 C1.125 3.75 1.125 3.75 0 6 C-1.9609375 6.81640625 -1.9609375 6.81640625 -4.375 7.5625 C-5.16648437 7.81128906 -5.95796875 8.06007812 -6.7734375 8.31640625 C-7.50820312 8.54199219 -8.24296875 8.76757812 -9 9 C-9.99 9.33 -10.98 9.66 -12 10 C-13.01347268 12.15815159 -13.01347268 12.15815159 -14 15 C-22.29804347 32.91197307 -32.86027933 50.08625706 -47.46972656 63.51293945 C-53.25141112 68.86023559 -55.55775537 74.06907956 -56 82 C-56.06386766 84.67331785 -56.04776556 87.32512883 -56 90 C-57.875 91.0625 -57.875 91.0625 -60 92 C-62 91 -62 91 -63 88 C-63.81048893 77.66294441 -62.90242338 70.31163182 -56.75 61.9375 C-56.1725 61.298125 -55.595 60.65875 -55 60 C-55.65226562 59.64808594 -56.30453125 59.29617187 -56.9765625 58.93359375 C-64.66238838 54.59189565 -70.73443564 49.95209483 -73.52734375 41.2890625 C-75.57900191 31.35293291 -73.70315885 22.42026949 -68.6796875 13.7109375 C-64.63235274 7.80580974 -59.15703741 3.34784132 -52 2 C-40.52700911 0.86571727 -31.3059134 4.49385997 -22 11 C-21.55269531 10.45730469 -21.10539062 9.91460937 -20.64453125 9.35546875 C-15.15401565 2.85816351 -9.20577941 -3.18661595 0 0 Z M-58.8125 12.8125 C-64.53396246 18.53396246 -67.04381948 24.37147074 -67.375 32.375 C-67.22900672 38.7042379 -65.63332206 43.00667948 -61.45703125 47.75390625 C-57.30146738 51.70026553 -53.60174712 53.01723735 -48 54 C-45.525 51.03 -45.525 51.03 -43 48 C-43.92232422 47.52820313 -43.92232422 47.52820313 -44.86328125 47.046875 C-45.67152344 46.61890625 -46.47976562 46.1909375 -47.3125 45.75 C-48.11300781 45.33234375 -48.91351563 44.9146875 -49.73828125 44.484375 C-52.86248594 42.43394705 -54.5790525 40.46532356 -55.6171875 36.8515625 C-56.21578248 31.68187856 -56.07631978 28.45535967 -53 24 C-49.2303276 20.5951346 -46.51527559 20.56477111 -41.60546875 20.6953125 C-37.72533541 21.14906123 -34.59311322 22.48711023 -31 24 C-30.01 24 -29.02 24 -28 24 C-27.01 22.02 -26.02 20.04 -25 18 C-35.78872444 9.34099778 -46.32469288 4.76480208 -58.8125 12.8125 Z M-48.3125 27.5625 C-50.32327018 29.98566145 -50.32327018 29.98566145 -50.0625 33.5 C-48.79679636 37.6693767 -47.74073906 38.8386841 -44 41 C-41.03 41.495 -41.03 41.495 -38 42 C-36.02 38.37 -34.04 34.74 -32 31 C-36.7750783 27.41869127 -42.65323377 23.73867147 -48.3125 27.5625 Z " fill="#6D5490" transform="translate(195,143)"/>
<path d="M0 0 C3.73655426 1.9526983 5.69086158 4.1490834 7.15234375 8.171875 C7.43207031 9.10515625 7.71179688 10.0384375 8 11 C8.85722656 10.44570312 9.71445312 9.89140625 10.59765625 9.3203125 C11.75231699 8.58808862 12.9072813 7.85634328 14.0625 7.125 C14.62388672 6.76019531 15.18527344 6.39539063 15.76367188 6.01953125 C23.35244788 1.24944348 31.13500367 -0.06425243 40 1 C47.77600597 3.30483055 53.66691917 8.20085704 58 15 C62.22041587 24.74033832 63.44926939 33.39459594 60.09765625 43.54296875 C56.63104938 51.30274001 50.4783682 55.47278779 43 59 C43.40992188 59.50789063 43.81984375 60.01578125 44.2421875 60.5390625 C44.78101563 61.22742188 45.31984375 61.91578125 45.875 62.625 C46.40867187 63.29789062 46.94234375 63.97078125 47.4921875 64.6640625 C50.60949959 69.49347346 51.26056176 73.95275044 51.1875 79.625 C51.18105469 80.73101562 51.17460937 81.83703125 51.16796875 82.9765625 C50.90104167 87.78125 50.90104167 87.78125 50 90 C47 91 47 91 44 90 C43.97421875 88.9378125 43.9484375 87.875625 43.921875 86.78125 C43.86554126 85.35412853 43.80819517 83.92704677 43.75 82.5 C43.73582031 81.80390625 43.72164063 81.1078125 43.70703125 80.390625 C43.3300214 72.24721221 40.18768595 66.67776055 34.27929688 61.18261719 C33.69212891 60.64797852 33.10496094 60.11333984 32.5 59.5625 C24.76362017 52.17999243 18.81068152 43.94077727 13 35 C12.39542969 34.07316406 11.79085938 33.14632812 11.16796875 32.19140625 C7.5583584 26.3912672 4.6250329 20.27178327 1.7109375 14.1015625 C-0.95744381 9.26435984 -3.43853649 6.81219515 -8.75 5.25 C-9.54921875 5.00765625 -10.3484375 4.7653125 -11.171875 4.515625 C-11.77515625 4.34546875 -12.3784375 4.1753125 -13 4 C-13 2.35 -13 0.7 -13 -1 C-9.03032523 -2.98483738 -4.10076643 -1.16834248 0 0 Z M12 17 C12.77479736 19.99152582 12.77479736 19.99152582 14 23 C17.65383105 24.21794368 18.20168059 23.66468839 21.5625 22.0625 C27.31381791 19.62892625 33.14996202 18.62399365 39.1640625 20.7734375 C41.46404908 22.31002428 42.09446897 23.39372542 43 26 C43.54300948 30.73193978 43.54432368 35.33074071 42.0625 39.875 C38.89697502 43.13644998 35.0493391 45.00504258 31 47 C32.65 48.98 34.3 50.96 36 53 C43.99573531 50.93307523 49.57095756 47.9961666 53.9375 40.8125 C56.23936795 32.55285617 55.78157616 25.7552731 51.55859375 18.23046875 C48.21514738 13.44573722 43.77135535 9.40764765 38 8 C28.04484503 6.98761136 20.03714674 11.52216814 12 17 Z M24.875 26.8125 C23.98554688 27.14894531 23.09609375 27.48539063 22.1796875 27.83203125 C19.66577681 28.85793039 19.66577681 28.85793039 19 32 C20.20173774 34.34969072 20.20173774 34.34969072 21.9375 36.6875 C22.50339844 37.49574219 23.06929688 38.30398437 23.65234375 39.13671875 C24.09707031 39.75160156 24.54179687 40.36648437 25 41 C30.21130865 40.59126991 33.39958746 39.918096 37 36 C38.32908167 33.10927047 38.32908167 33.10927047 38 30 C35.8744845 27.04089856 35.8744845 27.04089856 33 25 C29.77859101 25 27.85868541 25.65121136 24.875 26.8125 Z " fill="#6D5490" transform="translate(300,144)"/>
<path d="M0 0 C0.8125 1.6875 0.8125 1.6875 1 4 C-0.11986715 5.18773789 -1.25425646 6.36471313 -2.453125 7.47265625 C-6.92996019 11.89296574 -10.34593656 16.66564201 -10.875 23.0625 C-10.46024044 30.46595814 -6.57389654 36.69399382 -3.06494141 43.05175781 C-1.48833513 45.93605815 -0.02683424 48.86958009 1.4375 51.8125 C1.91058594 52.74707031 2.38367188 53.68164062 2.87109375 54.64453125 C7.56535096 64.43912327 4.909502 76.28433378 2.6796875 86.4140625 C1.4486997 92.90858432 1.05451759 99.11102596 3.125 105.4375 C9.99125848 114.82138659 20.36438477 116.32272963 31.19140625 118.44580078 C43.98270984 120.96552745 53.11829077 123.9515326 61 135 C67.56539926 145.73716337 70.65824495 156.60760627 68 169 C66.19110763 177.46771357 66.26223592 183.54135133 71 191 C71.33 191.33 71.66 191.66 72 192 C72.04063832 193.66617115 72.042721 195.33388095 72 197 C70.35 197.33 68.7 197.66 67 198 C61.42388464 191.83692513 59.71779118 186.72883978 59.69140625 178.328125 C59.66623484 176.84374627 59.64083699 175.35937136 59.61523438 173.875 C59.58662972 171.56706851 59.56257526 169.2592036 59.54370117 166.95117188 C59.41828988 154.08480034 58.89262854 143.06074143 49.4375 133.375 C41.54503175 127.32023882 31.25381948 126.10596194 21.70092773 124.57006836 C12.62892355 123.02602358 3.35081441 120.10787407 -2.21875 112.2890625 C-7.39816454 103.22508706 -6.02307585 94.17436183 -4.13427734 84.41162109 C-1.14367154 68.60112108 -4.12011271 56.79613355 -12.73803711 43.42626953 C-17.98951711 35.20685487 -20.15764994 27.83337129 -19 18 C-17.10014415 11.17724721 -11.93125919 5.87789058 -7 1 C-4.53721199 -0.231394 -2.7204945 -0.07159196 0 0 Z " fill="#6D5490" transform="translate(106,190)"/>
<path d="M0 0 C3.56442676 -0.52418041 4.88469435 -0.07605266 7.9375 1.9375 C14.31675319 7.73981815 18.59597492 15.15169902 19.3125 23.75 C18.96688669 32.92603337 15.07825908 39.90477796 10.34790039 47.51708984 C4.31544896 57.23101061 1.1107982 65.44037659 2 77 C2.45309623 78.92829327 2.95447013 80.84579196 3.5 82.75 C6.09505647 92.31073437 6.6770007 102.80326497 2.30859375 111.91796875 C-2.45969938 119.50453663 -9.5781127 121.94247888 -18 124 C-20.57364437 124.49111362 -23.15225662 124.94425966 -25.73364258 125.39282227 C-42.0367958 128.02327969 -42.0367958 128.02327969 -54.5625 138.125 C-60.64673066 149.33967084 -60.29384383 161.03870465 -59.86303711 173.38378906 C-59.34465927 189.54825933 -59.34465927 189.54825933 -65.46850586 196.71972656 C-65.97389893 197.1422168 -66.47929199 197.56470703 -67 198 C-69.6875 197.6875 -69.6875 197.6875 -72 197 C-72.45737514 193.34099889 -72.0149312 192.02324878 -69.98046875 188.85546875 C-66.32611492 181.76838414 -67.82942401 172.82184117 -68.1574707 165.06762695 C-68.65499512 152.26793545 -67.26017087 141.95547695 -58.9375 131.5625 C-49.58749833 122.18219038 -38.5626077 119.86061283 -25.984375 117.17871094 C-16.79302672 115.17947893 -9.58191314 112.94999751 -4 105 C-1.60200203 97.8060061 -2.82222165 90.11635466 -4.5 82.875 C-8.10395204 67.03840307 -2.95633942 55.61036726 4.17749023 41.62402344 C8.35341482 33.40691394 11.6558771 26.32475531 9 17 C6.47578341 11.99028179 3.62736264 8.2020145 -1 5 C-0.67 3.35 -0.34 1.7 0 0 Z " fill="#6D5490" transform="translate(377,190)"/>
<path d="M0 0 C1.828125 1.11328125 1.828125 1.11328125 3.5 2.3125 C4.05171875 2.69792969 4.6034375 3.08335938 5.171875 3.48046875 C8.79721286 6.2533138 11.33391712 9.31357777 13.5 13.3125 C13.75 16.1875 13.75 16.1875 13.5 18.3125 C11.85 18.6425 10.2 18.9725 8.5 19.3125 C8.14808594 18.78140625 7.79617187 18.2503125 7.43359375 17.703125 C3.44174412 11.99154903 0.06858261 8.13657978 -6.96875 6.8671875 C-17.18691257 6.19184917 -25.08046127 11.12939945 -32.6875 17.5 C-38.77333244 22.59262458 -44.28734562 24.64172603 -52.27001953 24.53955078 C-57.25740812 24.03174791 -61.92037857 22.04206918 -66.609375 20.35742188 C-72.48500535 18.35007228 -76.40731118 17.80211709 -82.1875 20.625 C-84.58726838 22.17958519 -84.58726838 22.17958519 -86 24.5 C-86.7425 25.3971875 -86.7425 25.3971875 -87.5 26.3125 C-90.1875 26.5625 -90.1875 26.5625 -92.5 26.3125 C-93.3125 24.1875 -93.3125 24.1875 -93.5 21.3125 C-90.49865286 16.7166872 -86.87310579 12.95789745 -81.5 11.3125 C-72.87526064 10.33590737 -65.00047319 11.68321445 -56.6171875 13.625 C-49.37519813 15.22223074 -44.50215826 14.40077818 -37.94140625 10.875 C-35.53534719 9.3351222 -33.53435004 7.68427121 -31.4375 5.75 C-22.96346595 -1.96591967 -10.85460585 -5.10437319 0 0 Z " fill="#6D5490" transform="translate(225.5,110.6875)"/>
<path d="M0 0 C0.66 3.3 1.32 6.6 2 10 C2.721875 9.01 3.44375 8.02 4.1875 7 C6.6095123 4.05206503 6.6095123 4.05206503 9.8125 3.625 C10.534375 3.74875 11.25625 3.8725 12 4 C12.35281338 8.1970092 11.64185432 10.06522073 9 13.3125 C8.443125 14.00988281 7.88625 14.70726562 7.3125 15.42578125 C6.6628125 16.20501953 6.6628125 16.20501953 6 17 C7.39025391 16.98259766 7.39025391 16.98259766 8.80859375 16.96484375 C10.00613281 16.95582031 11.20367187 16.94679688 12.4375 16.9375 C13.63246094 16.92589844 14.82742187 16.91429687 16.05859375 16.90234375 C19 17 19 17 20 18 C20 19.65 20 21.3 20 23 C15.38 23.66 10.76 24.32 6 25 C9.01619057 28.77023821 11.25861209 31.19395906 15 34 C14.67 35.65 14.34 37.3 14 39 C8.55674846 38.67010597 5.84412796 35.54262773 2 32 C1.67 35.96 1.34 39.92 1 44 C-1.475 44.495 -1.475 44.495 -4 45 C-5.81115956 43.18884044 -5.38199448 40.38721773 -5.5625 37.9375 C-5.68818359 36.28041016 -5.68818359 36.28041016 -5.81640625 34.58984375 C-5.90728516 33.30787109 -5.90728516 33.30787109 -6 32 C-6.67095703 32.86625 -6.67095703 32.86625 -7.35546875 33.75 C-7.96003906 34.4925 -8.56460938 35.235 -9.1875 36 C-9.77917969 36.7425 -10.37085937 37.485 -10.98046875 38.25 C-13 40 -13 40 -15.73828125 40.25 C-16.48464844 40.1675 -17.23101562 40.085 -18 40 C-18.703125 38.25 -18.703125 38.25 -19 36 C-17.671875 34 -17.671875 34 -15.75 32 C-13.31851126 29.42784662 -11.0759049 26.87038702 -9 24 C-9.99902344 24.01160156 -10.99804688 24.02320313 -12.02734375 24.03515625 C-13.31769531 24.04417969 -14.60804687 24.05320312 -15.9375 24.0625 C-17.22527344 24.07410156 -18.51304688 24.08570313 -19.83984375 24.09765625 C-23 24 -23 24 -24 23 C-24 21.35 -24 19.7 -24 18 C-17.565 17.505 -17.565 17.505 -11 17 C-12.134375 15.9275 -13.26875 14.855 -14.4375 13.75 C-17.00384429 11.32363813 -18.70831244 9.61991736 -19 6 C-18.34 5.34 -17.68 4.68 -17 4 C-11.93105557 4.408448 -9.29022824 8.5199509 -6 12 C-6 8.04 -6 4.08 -6 0 C-4 -1 -4 -1 0 0 Z " fill="#A191B8" transform="translate(104,348)"/>
<path d="M0 0 C4.39620497 2.66465816 8.27098364 6.17122959 12.13671875 9.5390625 C16.81879529 13.16434748 21.85618927 14.51458284 27.75 14.5625 C29.7349579 14.28918869 31.7141545 13.97236793 33.6875 13.625 C54.76884827 10.08687162 54.76884827 10.08687162 62.5625 14.8125 C64.296875 16.203125 64.296875 16.203125 65.75 17.5625 C67.0184375 18.5525 67.0184375 18.5525 68.3125 19.5625 C69.75 21.5625 69.75 21.5625 69.5 24.3125 C69.12875 25.42625 69.12875 25.42625 68.75 26.5625 C66.6875 26.9375 66.6875 26.9375 63.75 26.5625 C61.81951947 25.155826 60.12344482 23.62351167 58.3984375 21.97265625 C54.75120852 18.85263336 50.28901703 19.22498071 45.75 19.5625 C43.13488254 20.1608517 40.62668983 20.8066309 38.0625 21.5625 C29.99447012 23.73721198 21.38253488 25.70059302 13.5 22.0625 C11.89560623 20.60396021 10.29734414 19.13851524 8.71484375 17.65625 C2.03747783 11.5171966 -3.51940874 7.47267782 -12.8125 7.0625 C-18.02251924 7.29535002 -22.12359261 8.29014207 -26.25 11.5625 C-28.49756241 14.08439015 -30.42867169 16.72012401 -32.25 19.5625 C-33.9 19.2325 -35.55 18.9025 -37.25 18.5625 C-37.02696038 13.09802923 -35.8039185 10.20728216 -32.0703125 6.203125 C-23.67646028 -1.36214954 -10.74739293 -4.93617212 0 0 Z " fill="#6D5490" transform="translate(281.25,110.4375)"/>
<path d="M0 0 C1.2065625 0.0309375 1.2065625 0.0309375 2.4375 0.0625 C3.0975 2.7025 3.7575 5.3425 4.4375 8.0625 C4.829375 7.4025 5.22125 6.7425 5.625 6.0625 C7.4375 4.0625 7.4375 4.0625 10.125 3.8125 C10.888125 3.895 11.65125 3.9775 12.4375 4.0625 C13.08984375 5.828125 13.08984375 5.828125 13.4375 8.0625 C12.0798849 10.68189855 10.27570051 12.73112374 8.4375 15.0625 C12.0675 15.0625 15.6975 15.0625 19.4375 15.0625 C20.4375 19.0625 20.4375 19.0625 19.4375 21.0625 C15.4775 21.0625 11.5175 21.0625 7.4375 21.0625 C8.571875 22.3 9.70625 23.5375 10.875 24.8125 C13.31596647 27.47537251 15.00033495 29.40621046 15.4375 33.0625 C14.4375 34.0625 14.4375 34.0625 12.1875 34.4375 C8.33136948 33.91166402 6.93624064 31.91820359 4.4375 29.0625 C4.34662109 30.01962891 4.34662109 30.01962891 4.25390625 30.99609375 C4.17011719 31.82238281 4.08632813 32.64867187 4 33.5 C3.91878906 34.32371094 3.83757812 35.14742187 3.75390625 35.99609375 C3.4375 38.0625 3.4375 38.0625 2.4375 39.0625 C0.77132885 39.10313832 -0.89638095 39.105221 -2.5625 39.0625 C-2.8925 36.0925 -3.2225 33.1225 -3.5625 30.0625 C-4.284375 30.8875 -5.00625 31.7125 -5.75 32.5625 C-8.5625 35.0625 -8.5625 35.0625 -11.375 35.375 C-12.096875 35.271875 -12.81875 35.16875 -13.5625 35.0625 C-13.9375 33 -13.9375 33 -13.5625 30.0625 C-11.77072891 27.52677718 -9.72011879 25.29075512 -7.5625 23.0625 C-8.62791016 22.97162109 -8.62791016 22.97162109 -9.71484375 22.87890625 C-10.63394531 22.79511719 -11.55304688 22.71132812 -12.5 22.625 C-13.87478516 22.50318359 -13.87478516 22.50318359 -15.27734375 22.37890625 C-17.5625 22.0625 -17.5625 22.0625 -18.5625 21.0625 C-18.5625 19.4125 -18.5625 17.7625 -18.5625 16.0625 C-15.2625 15.7325 -11.9625 15.4025 -8.5625 15.0625 C-9.408125 14.175625 -10.25375 13.28875 -11.125 12.375 C-13.58853251 9.4616652 -13.58853251 9.4616652 -13.375 6.1875 C-13.106875 5.48625 -12.83875 4.785 -12.5625 4.0625 C-8.24857774 4.5418247 -6.39680453 5.8082985 -3.5625 9.0625 C-3.583125 7.763125 -3.60375 6.46375 -3.625 5.125 C-3.64649454 3.77084367 -3.63398199 2.41493917 -3.5625 1.0625 C-2.5625 0.0625 -2.5625 0.0625 0 0 Z " fill="#A191B8" transform="translate(314.5625,45.9375)"/>
<path d="M0 0 C2.475 0.495 2.475 0.495 5 1 C5.33 3.31 5.66 5.62 6 8 C7.65 6.35 9.3 4.7 11 3 C12.32 3.66 13.64 4.32 15 5 C13.87548273 7.9719385 12.77706209 10.33440687 11 13 C13.97 13.33 16.94 13.66 20 14 C20.495 15.98 20.495 15.98 21 18 C18.60236815 20.39763185 17.66726502 20.34280586 14.375 20.625 C13.55773437 20.69976562 12.74046875 20.77453125 11.8984375 20.8515625 C11.27195312 20.90054687 10.64546875 20.94953125 10 21 C10.969375 21.7425 11.93875 22.485 12.9375 23.25 C14.91900909 24.90359978 15.91398143 25.81183438 17 28.1875 C17 28.785625 17 29.38375 17 30 C16.34 30.66 15.68 31.32 15 32 C12.04337034 31.77256695 10.44966312 31.38764062 8.1875 29.4375 C7.795625 28.963125 7.40375 28.48875 7 28 C6.7834375 29.7015625 6.7834375 29.7015625 6.5625 31.4375 C6 35 6 35 5 36 C3.33382885 36.04063832 1.66611905 36.042721 0 36 C-0.33 33.36 -0.66 30.72 -1 28 C-1.7425 28.845625 -2.485 29.69125 -3.25 30.5625 C-6 33 -6 33 -8.25 33 C-10 32 -10 32 -11 29 C-9.78515625 26.95703125 -9.78515625 26.95703125 -8.0625 24.8125 C-7.21365234 23.73935547 -7.21365234 23.73935547 -6.34765625 22.64453125 C-5.90292969 22.10183594 -5.45820313 21.55914062 -5 21 C-7.97 20.67 -10.94 20.34 -14 20 C-14.38218767 18.34385343 -14.71395102 16.67542976 -15 15 C-14.67 14.67 -14.34 14.34 -14 14 C-12.47480724 14.08937803 -10.95318071 14.24537146 -9.4375 14.4375 C-8.61121094 14.53933594 -7.78492188 14.64117187 -6.93359375 14.74609375 C-6.29550781 14.82988281 -5.65742188 14.91367187 -5 15 C-5.66708984 14.31164062 -5.66708984 14.31164062 -6.34765625 13.609375 C-6.91355469 12.99578125 -7.47945313 12.3821875 -8.0625 11.75 C-8.63097656 11.14671875 -9.19945312 10.5434375 -9.78515625 9.921875 C-11 8 -11 8 -10.68359375 5.765625 C-10.45800781 5.18296875 -10.23242188 4.6003125 -10 4 C-5.44615385 3.63076923 -5.44615385 3.63076923 -3.1875 5.5 C-2.795625 5.995 -2.40375 6.49 -2 7 C-1.34 4.69 -0.68 2.38 0 0 Z " fill="#A191B8" transform="translate(383,347)"/>
<path d="M0 0 C0 1.65 0 3.3 0 5 C-3.27185553 6.07310858 -5.42947592 5.89263102 -8.75 5.0625 C-9.54921875 4.86785156 -10.3484375 4.67320312 -11.171875 4.47265625 C-11.77515625 4.31667969 -12.3784375 4.16070312 -13 4 C-12.938125 5.051875 -12.87625 6.10375 -12.8125 7.1875 C-13.01104612 11.22460449 -13.50690063 12.88362578 -16 16 C-20.62445909 18.89921939 -25.7250378 18.78812305 -31 18 C-34.1875 15.625 -34.1875 15.625 -36 13 C-36 12.34 -36 11.68 -36 11 C-36.66 11 -37.32 11 -38 11 C-38.2475 11.5775 -38.495 12.155 -38.75 12.75 C-40.16683317 15.3002997 -41.87627537 17.01785701 -44 19 C-45.32 18.34 -46.64 17.68 -48 17 C-47.42093523 10.72076644 -44.99473398 8.26474798 -40.55078125 4.0546875 C-29.88735941 -4.53483759 -12.1768434 -6.21796259 0 0 Z " fill="#6D5490" transform="translate(318,242)"/>
<path d="M0 0 C4.60780236 3.53562674 8.76793179 7.15189769 12 12 C11.625 14.6875 11.625 14.6875 11 17 C10.01 17.33 9.02 17.66 8 18 C5.66666667 15.66666667 3.33333333 13.33333333 1 11 C0.195625 11.804375 -0.60875 12.60875 -1.4375 13.4375 C-4.88482493 16.88482493 -5.31597594 17.18758913 -10.1875 17.3125 C-15.48871373 17.27113812 -18.10722334 16.58545218 -22 13 C-23.1577506 9.52674819 -23.06866652 6.63932552 -23 3 C-23.77085937 3.15597656 -24.54171875 3.31195313 -25.3359375 3.47265625 C-26.84027344 3.76462891 -26.84027344 3.76462891 -28.375 4.0625 C-29.37273437 4.25972656 -30.37046875 4.45695313 -31.3984375 4.66015625 C-34 5 -34 5 -36 4 C-36.1875 1.625 -36.1875 1.625 -36 -1 C-26.79206229 -7.13862514 -9.24576983 -5.44377102 0 0 Z " fill="#6D5490" transform="translate(201,243)"/>
<path d="M0 0 C1.66611905 -0.042721 3.33382885 -0.04063832 5 0 C6 1 6 1 6.05004883 3.59765625 C6.01935303 4.74105469 5.98865723 5.88445312 5.95703125 7.0625 C5.66240765 22.58066114 5.8893048 36.41783853 11.15625 51.2578125 C12.0926645 54.30115964 11.88793027 55.98103708 11 59 C9.35 59 7.7 59 6 59 C0.43185782 46.47874627 -2.20009545 33.36458489 -2.1875 19.6875 C-2.1884668 18.58643921 -2.1884668 18.58643921 -2.18945312 17.46313477 C-2.13190312 11.49297607 -1.40585471 5.81170294 0 0 Z " fill="#6D5490" transform="translate(258,247)"/>
<path d="M0 0 C1.67542976 0.28604898 3.34385343 0.61781233 5 1 C8.34400847 17.57075626 7.18314284 33.0616114 2.5 49.25 C2.17962769 50.35939941 2.17962769 50.35939941 1.8527832 51.49121094 C0.25731232 56.74268768 0.25731232 56.74268768 -2 59 C-4.625 58.625 -4.625 58.625 -7 58 C-6.22216099 51.71246798 -4.65200469 45.82036965 -2.9375 39.71875 C-1.4591781 33.85473979 -0.8754863 28.26686892 -0.9375 22.2265625 C-0.94523438 20.99035156 -0.95296875 19.75414062 -0.9609375 18.48046875 C-0.97382813 17.20816406 -0.98671875 15.93585938 -1 14.625 C-1.02536754 12.07556192 -1.0464485 9.52607626 -1.0625 6.9765625 C-1.07410156 5.85330566 -1.08570313 4.73004883 -1.09765625 3.57275391 C-1 1 -1 1 0 0 Z " fill="#6D5490" transform="translate(220,247)"/>
<path d="M0 0 C1.65 0 3.3 0 5 0 C9.5608222 8.36150737 12.4851274 16.45567012 10 26 C6.76680018 32.11998538 2.52147753 35.78306713 -4 38 C-6.21880912 38.3294998 -8.45107107 38.57659388 -10.6875 38.75 C-11.82574219 38.84796875 -12.96398437 38.9459375 -14.13671875 39.046875 C-17 39 -17 39 -19 37 C-18.46428571 33.46428571 -18.46428571 33.46428571 -17 32 C-14.03374674 31.4995585 -11.0589708 31.09912166 -8.078125 30.6953125 C-3.85590202 29.74156162 -1.03050613 28.13355674 1.875 24.9375 C3.75348034 20.0325791 3.09881254 14.85141853 1.21875 9.97265625 C0.9403125 9.38355469 0.661875 8.79445313 0.375 8.1875 C-1.09197729 4.78677992 -1.14932574 3.44797723 0 0 Z " fill="#6D5490" transform="translate(359,263)"/>
<path d="M0 0 C1.65 0 3.3 0 5 0 C6.14232044 4.04482018 5.86770015 6.05014683 4.0625 9.8125 C2.01151684 14.63876456 1.21651544 17.77676962 2 23 C4.24411903 26.56418904 5.94340796 28.49571743 9.75 30.3125 C13.200029 31.04231383 16.52716707 31.32924775 20.046875 31.4609375 C22 32 22 32 23.265625 34.0390625 C23.50796875 34.68617188 23.7503125 35.33328125 24 36 C23.34 36.99 22.68 37.98 22 39 C13.46988867 38.85292911 6.02478857 38.21455459 -1 33 C-5.14761264 28.56558436 -6.0894877 22.916131 -6 17 C-5.2990854 10.67020201 -3.02826493 5.55181903 0 0 Z " fill="#6D5490" transform="translate(119,263)"/>
<path d="M0 0 C1.42505859 0.11794922 1.42505859 0.11794922 2.87890625 0.23828125 C5.4375 0.6875 5.4375 0.6875 8.4375 2.6875 C8.1075 4.3375 7.7775 5.9875 7.4375 7.6875 C6.15166016 7.61789063 6.15166016 7.61789063 4.83984375 7.546875 C-6.43719937 7.19089168 -10.57877854 9.76630216 -18.7109375 17.06640625 C-20.88350393 18.96854774 -22.91593699 20.51124977 -25.5625 21.6875 C-27.875 21.375 -27.875 21.375 -29.5625 20.6875 C-29.94140625 18.53515625 -29.94140625 18.53515625 -29.5625 15.6875 C-27.57864251 13.58431274 -25.74548594 11.89826984 -23.5 10.125 C-22.93861328 9.65642578 -22.37722656 9.18785156 -21.79882812 8.70507812 C-15.0340896 3.17732036 -8.97176885 -0.81783471 0 0 Z " fill="#6D5490" transform="translate(273.5625,133.3125)"/>
<path d="M0 0 C0.66 0.33 1.32 0.66 2 1 C3.58470855 6.19432248 4.28533749 11.57858775 4 17 C5.5778125 16.9690625 5.5778125 16.9690625 7.1875 16.9375 C10.32704904 16.98896802 12.96883396 17.26517187 16 18 C15.67 18.99 15.34 19.98 15 21 C11.7 21.66 8.4 22.32 5 23 C4.87625 24.670625 4.7525 26.34125 4.625 28.0625 C4.21780875 32.63012361 3.44714602 36.65856194 2 41 C0.05116862 38.07675293 -0.48079727 36.48916982 -1.125 33.125 C-1.29257812 32.28195312 -1.46015625 31.43890625 -1.6328125 30.5703125 C-1.99878845 28.00848085 -2.06482904 25.58390011 -2 23 C-2.69867188 22.87882812 -3.39734375 22.75765625 -4.1171875 22.6328125 C-5.02726562 22.46523438 -5.93734375 22.29765625 -6.875 22.125 C-7.77992188 21.96257812 -8.68484375 21.80015625 -9.6171875 21.6328125 C-12 21 -12 21 -14 19 C-9.84055256 17.69507531 -6.34963091 16.87980295 -2 17 C-1.90912109 15.41058594 -1.90912109 15.41058594 -1.81640625 13.7890625 C-1.73199873 12.40102779 -1.64735083 11.01300768 -1.5625 9.625 C-1.52318359 8.92632812 -1.48386719 8.22765625 -1.44335938 7.5078125 C-1.11328125 2.2265625 -1.11328125 2.2265625 0 0 Z " fill="#B9ADCA" transform="translate(438,237)"/>
<path d="M0 0 C3.18868509 2.51524778 6.29321564 5.1004145 9.36328125 7.7578125 C11.97780709 10.0693015 11.97780709 10.0693015 15 12 C15.1875 14.625 15.1875 14.625 15 17 C13.26953125 17.66015625 13.26953125 17.66015625 11 18 C8.88671875 16.99609375 8.88671875 16.99609375 6.6875 15.4375 C5.90375 14.88449219 5.12 14.33148438 4.3125 13.76171875 C1.63227461 11.71985786 -0.91349808 9.57574991 -3.39453125 7.296875 C-7.45299375 4.01850626 -10.55578995 3.7711158 -15.75 3.875 C-16.92046875 3.89304688 -18.0909375 3.91109375 -19.296875 3.9296875 C-20.18890625 3.95289063 -21.0809375 3.97609375 -22 4 C-22.33 2.35 -22.66 0.7 -23 -1 C-15.56302978 -5.95798015 -7.22925986 -4.81950657 0 0 Z " fill="#6D5490" transform="translate(224,137)"/>
<path d="M0 0 C0.66 0 1.32 0 2 0 C2.99 5.61 3.98 11.22 5 17 C6.60875 17.12375 8.2175 17.2475 9.875 17.375 C14.75 17.75 14.75 17.75 17 20 C15.72942818 20.47985967 14.45853152 20.9588593 13.1875 21.4375 C12.47980469 21.70433594 11.77210937 21.97117188 11.04296875 22.24609375 C9.37327604 22.86225186 7.68842296 23.43719235 6 24 C5.01 29.61 4.02 35.22 3 41 C2.34 41 1.68 41 1 41 C0.49645133 38.56318413 -0.00296756 36.12564561 -0.5 33.6875 C-0.64308594 32.99720703 -0.78617188 32.30691406 -0.93359375 31.59570312 C-1.52625044 28.67475227 -2 25.98891878 -2 23 C-3.258125 22.855625 -4.51625 22.71125 -5.8125 22.5625 C-8.42667123 22.26251314 -10.47439892 21.84186703 -13 21 C-13 20.34 -13 19.68 -13 19 C-7.555 18.01 -7.555 18.01 -2 17 C-1.34 11.39 -0.68 5.78 0 0 Z " fill="#B9ADCA" transform="translate(82,119)"/>
<path d="M0 0 C0.66 0 1.32 0 2 0 C2.33951619 1.56116819 2.67132544 3.12401338 3 4.6875 C3.185625 5.55761719 3.37125 6.42773438 3.5625 7.32421875 C3.98972047 9.93712964 4.07616201 12.35813038 4 15 C5.093125 14.979375 6.18625 14.95875 7.3125 14.9375 C11 15 11 15 14 16 C14 16.66 14 17.32 14 18 C11.03 18.66 8.06 19.32 5 20 C4.34 25.28 3.68 30.56 3 36 C2.34 35.67 1.68 35.34 1 35 C0.59984687 32.71591427 0.25458315 30.42209129 -0.0625 28.125 C-0.86840451 23.0066437 -0.86840451 23.0066437 -4.1953125 19.40625 C-6.49240764 18.68615748 -8.60457695 18.21091775 -11 18 C-11 17.34 -11 16.68 -11 16 C-7.7 15.67 -4.4 15.34 -1 15 C-1.020625 13.63875 -1.04125 12.2775 -1.0625 10.875 C-1.0683928 7.14485838 -0.75187259 3.66537886 0 0 Z " fill="#B9ADCA" transform="translate(287,412)"/>
<path d="M0 0 C1.9375 1.0625 1.9375 1.0625 3 3 C3.75471698 9.79245283 3.75471698 9.79245283 1.4375 13.5 C-1.94888329 15.58392818 -4.09385318 15.55802097 -8 15 C-10.4375 13.5 -10.4375 13.5 -12 11 C-12.61014545 8.1910285 -12.65360928 5.80363979 -12 3 C-8.3655827 -1.51548816 -5.40521016 -1.50144727 0 0 Z " fill="#D5CEDF" transform="translate(168,60)"/>
<path d="M0 0 C1.9375 1.0625 1.9375 1.0625 3 3 C3.75471698 9.79245283 3.75471698 9.79245283 1.4375 13.5 C-1.94888329 15.58392818 -4.09385318 15.55802097 -8 15 C-10.4375 13.5 -10.4375 13.5 -12 11 C-12.61014545 8.1910285 -12.65360928 5.80363979 -12 3 C-8.3655827 -1.51548816 -5.40521016 -1.50144727 0 0 Z " fill="#E4E0EA" transform="translate(253,45)"/>
<path d="M0 0 C2.86801846 0.08864784 3.78417611 0.16414857 6.125 1.9375 C7.48213883 5.46606096 7.04765877 7.76275116 6.0625 11.375 C4.375 13.375 4.375 13.375 2.0625 14.375 C-1.38016385 14.30474155 -3.22103249 13.97590824 -5.875 11.75 C-7.40612051 8.32749533 -6.8001304 5.95823398 -5.9375 2.375 C-3.9375 0.375 -3.9375 0.375 0 0 Z " fill="#D5CEDF" transform="translate(150.9375,417.625)"/>
<path d="M0 0 C2 2 2 2 2.3125 5.9375 C2.23081662 8.43791894 2.12109418 9.77205801 0.9375 12 C-2.13215135 13.58433618 -4.61681143 13.36248449 -8 13 C-9.9375 12 -9.9375 12 -11 10 C-11.46000079 7.23999526 -11.50420748 4.75595226 -11 2 C-7.93817059 -2.04161482 -4.56939437 -1.10003939 0 0 Z " fill="#D5CEDF" transform="translate(48,251)"/>
<path d="M0 0 C2 2 2 2 2.3125 5.9375 C2.23081662 8.43791894 2.12109418 9.77205801 0.9375 12 C-2.13215135 13.58433618 -4.61681143 13.36248449 -8 13 C-9.9375 12 -9.9375 12 -11 10 C-11.46000079 7.23999526 -11.50420748 4.75595226 -11 2 C-7.93817059 -2.04161482 -4.56939437 -1.10003939 0 0 Z " fill="#D5CEDF" transform="translate(418,136)"/>
<path d="M0 0 C3.4375 0.8125 3.4375 0.8125 5.4375 3.8125 C4.98466981 10.26533019 4.98466981 10.26533019 2.4375 12.8125 C-3.70481015 13.4825702 -3.70481015 13.4825702 -6.5625 11.25 C-7.99385511 7.76107191 -7.496466 5.41494028 -6.5625 1.8125 C-3.5625 -0.1875 -3.5625 -0.1875 0 0 Z " fill="#E9E6EE" transform="translate(384.5625,93.1875)"/>
<path d="M0 0 C3.5 0.4375 3.5 0.4375 5.4375 1.5625 C6.98724515 4.29734439 6.82162076 6.3499407 6.5 9.4375 C4.5 12.4375 4.5 12.4375 1.625 13.25 C-1.5 13.4375 -1.5 13.4375 -3.8125 12.9375 C-5.5 11.4375 -5.5 11.4375 -6.4375 8.0625 C-6.5 4.4375 -6.5 4.4375 -5.5 2 C-3.5 0.4375 -3.5 0.4375 0 0 Z " fill="#E9E6EE" transform="translate(53.5,315.5625)"/>
<path d="M0 0 C1.875 -0.36328125 1.875 -0.36328125 4 -0.3125 C4.70125 -0.30863281 5.4025 -0.30476563 6.125 -0.30078125 C8 0 8 0 10 2 C10.67973856 9.1372549 10.67973856 9.1372549 8.375 12.0625 C5.19296594 13.31856608 3.25787048 12.92070253 0 12 C-2 10 -2 10 -2.25 6.5625 C-2 3 -2 3 0 0 Z " fill="#E9E6EE" transform="translate(422,316)"/>
<path d="M0 0 C1.875 1.0625 1.875 1.0625 3 3 C3.63316583 8.90954774 3.63316583 8.90954774 1.875 11.9375 C-0.88980433 13.50422245 -2.88188517 13.38976435 -6 13 C-7.875 11.9375 -7.875 11.9375 -9 10 C-9.63316583 4.09045226 -9.63316583 4.09045226 -7.875 1.0625 C-5.11019567 -0.50422245 -3.11811483 -0.38976435 0 0 Z " fill="#E9E6EE" transform="translate(214,433)"/>
<path d="M0 0 C2.31 0 4.62 0 7 0 C8.32841008 5.43440487 8.32841008 5.43440487 6.875 7.9375 C5 9 5 9 2.375 8.75 C0 8 0 8 -1 7 C-0.71269945 4.66055264 -0.38063221 2.3260857 0 0 Z " fill="#8A76A6" transform="translate(438,125)"/>
<path d="M0 0 C2.875 -0.125 2.875 -0.125 6 0 C8 2 8 2 8.3125 4.5 C8.1578125 5.7375 8.1578125 5.7375 8 7 C5 9 5 9 1.8125 8.625 C0.4203125 8.315625 0.4203125 8.315625 -1 8 C-1.125 2.25 -1.125 2.25 0 0 Z " fill="#8A76A6" transform="translate(103,52)"/>
<path d="M0 0 C2.31 0.33 4.62 0.66 7 1 C7.33 2.98 7.66 4.96 8 7 C5 9 5 9 1.8125 8.625 C0.4203125 8.315625 0.4203125 8.315625 -1 8 C-1.125 2.25 -1.125 2.25 0 0 Z " fill="#8A76A6" transform="translate(125,38)"/>
<path d="M0 0 C2.875 -0.125 2.875 -0.125 6 0 C6.66 0.66 7.32 1.32 8 2 C7.625 5.125 7.625 5.125 7 8 C4.6875 8.625 4.6875 8.625 2 9 C1.01 8.34 0.02 7.68 -1 7 C-0.67 4.69 -0.34 2.38 0 0 Z " fill="#8A76A6" transform="translate(178,457)"/>
<path d="M0 0 C1.2375 0.1546875 1.2375 0.1546875 2.5 0.3125 C4.5 3.3125 4.5 3.3125 4.125 6 C3.91875 6.763125 3.7125 7.52625 3.5 8.3125 C0.625 8.9375 0.625 8.9375 -2.5 9.3125 C-4.5 7.3125 -4.5 7.3125 -4.75 4.8125 C-4.40047575 1.3172575 -3.47557682 0.4344471 0 0 Z " fill="#8A76A6" transform="translate(320.5,452.6875)"/>
<path d="M0 0 C1.2375 0.1546875 1.2375 0.1546875 2.5 0.3125 C4.5 3.3125 4.5 3.3125 4.125 6 C3.91875 6.763125 3.7125 7.52625 3.5 8.3125 C0.625 8.9375 0.625 8.9375 -2.5 9.3125 C-4.5 7.3125 -4.5 7.3125 -4.75 4.8125 C-4.40047575 1.3172575 -3.47557682 0.4344471 0 0 Z " fill="#8A76A6" transform="translate(332.5,448.6875)"/>
<path d="M0 0 C1.2375 0.1546875 1.2375 0.1546875 2.5 0.3125 C4.5 3.3125 4.5 3.3125 4.125 6 C3.91875 6.763125 3.7125 7.52625 3.5 8.3125 C0.625 8.9375 0.625 8.9375 -2.5 9.3125 C-4.5 7.3125 -4.5 7.3125 -4.75 4.8125 C-4.40047575 1.3172575 -3.47557682 0.4344471 0 0 Z " fill="#8A76A6" transform="translate(344.5,443.6875)"/>
<path d="M0 0 C2.33944736 0.28730055 4.6739143 0.61936779 7 1 C7.625 3.3125 7.625 3.3125 8 6 C7.01 7.485 7.01 7.485 6 9 C3.03 8.505 3.03 8.505 0 8 C-0.38063221 5.6739143 -0.71269945 3.33944736 -1 1 C-0.67 0.67 -0.34 0.34 0 0 Z " fill="#8A76A6" transform="translate(130,440)"/>
<path d="M0 0 C1.98 0 3.96 0 6 0 C6 0.66 6 1.32 6 2 C6.66 2 7.32 2 8 2 C8.1875 4.375 8.1875 4.375 8 7 C5 9 5 9 1.8125 8.625 C0.4203125 8.315625 0.4203125 8.315625 -1 8 C-1.125 2.25 -1.125 2.25 0 0 Z " fill="#8A76A6" transform="translate(69,394)"/>
<path d="M0 0 C1.2375 0.1546875 1.2375 0.1546875 2.5 0.3125 C4.5 3.3125 4.5 3.3125 4.125 6 C3.91875 6.763125 3.7125 7.52625 3.5 8.3125 C0.625 8.9375 0.625 8.9375 -2.5 9.3125 C-4.5 7.3125 -4.5 7.3125 -4.75 4.8125 C-4.40047575 1.3172575 -3.47557682 0.4344471 0 0 Z " fill="#8A76A6" transform="translate(451.5,147.6875)"/>
<path d="M0 0 C2.33944736 0.28730055 4.6739143 0.61936779 7 1 C7.625 3.3125 7.625 3.3125 8 6 C7.01 7.485 7.01 7.485 6 9 C3.03 8.505 3.03 8.505 0 8 C-0.38063221 5.6739143 -0.71269945 3.33944736 -1 1 C-0.67 0.67 -0.34 0.34 0 0 Z " fill="#8A76A6" transform="translate(38,130)"/>
<path d="M0 0 C1.98 0 3.96 0 6 0 C6 0.66 6 1.32 6 2 C6.66 2 7.32 2 8 2 C8.1875 4.375 8.1875 4.375 8 7 C5 9 5 9 1.8125 8.625 C0.4203125 8.315625 0.4203125 8.315625 -1 8 C-1.125 2.25 -1.125 2.25 0 0 Z " fill="#8A76A6" transform="translate(93,60)"/>
<path d="M0 0 C3.125 0.375 3.125 0.375 6 1 C6.625 3.875 6.625 3.875 7 7 C5 9 5 9 2.5 9.25 C0 9 0 9 -2 7 C-2.25 4.5 -2.25 4.5 -2 2 C-1.34 1.34 -0.68 0.68 0 0 Z " fill="#8A76A6" transform="translate(349,36)"/>
<path d="M0 0 C1.2684375 0.12375 1.2684375 0.12375 2.5625 0.25 C4.5625 3.25 4.5625 3.25 4.1875 5.9375 C3.98125 6.700625 3.775 7.46375 3.5625 8.25 C-2.1875 9.375 -2.1875 9.375 -4.4375 8.25 C-3.43230397 0.35203118 -3.43230397 0.35203118 0 0 Z " fill="#8A76A6" transform="translate(139.4375,31.75)"/>
<path d="M0 0 C1.2375 0.1546875 1.2375 0.1546875 2.5 0.3125 C4.5 3.3125 4.5 3.3125 4.125 6 C3.91875 6.763125 3.7125 7.52625 3.5 8.3125 C0.625 8.9375 0.625 8.9375 -2.5 9.3125 C-4.5 7.3125 -4.5 7.3125 -4.75 4.8125 C-4.40047575 1.3172575 -3.47557682 0.4344471 0 0 Z " fill="#8A76A6" transform="translate(151.5,26.6875)"/>
<path d="M0 0 C0.6875 2.3125 0.6875 2.3125 1 5 C-0.125 6.8125 -0.125 6.8125 -2 8 C-4.6875 8.1875 -4.6875 8.1875 -7 8 C-8.35439668 5.29120665 -8.06501451 2.99066732 -8 0 C-5.13822943 -1.43088528 -3.06624227 -0.59991697 0 0 Z " fill="#8A76A6" transform="translate(115,428)"/>
<path d="M0 0 C3.0625 0.1875 3.0625 0.1875 5.0625 2.1875 C4.73278521 5.48464793 4.4398161 6.8101839 2.0625 9.1875 C-0.5625 8.8125 -0.5625 8.8125 -2.9375 8.1875 C-3.31813221 5.8614143 -3.65019945 3.52694736 -3.9375 1.1875 C-2.9375 0.1875 -2.9375 0.1875 0 0 Z " fill="#8A76A6" transform="translate(55.9375,373.8125)"/>
<path d="M0 0 C3.125 0.375 3.125 0.375 6 1 C6.625 3.3125 6.625 3.3125 7 6 C6.01 7.485 6.01 7.485 5 9 C-0.875 8.125 -0.875 8.125 -2 7 C-2.1875 4.5625 -2.1875 4.5625 -2 2 C-1.34 1.34 -0.68 0.68 0 0 Z " fill="#8A76A6" transform="translate(446,335)"/>
<path d="M0 0 C1.2684375 0.12375 1.2684375 0.12375 2.5625 0.25 C4.5625 3.25 4.5625 3.25 4.1875 5.9375 C3.98125 6.700625 3.775 7.46375 3.5625 8.25 C1.5825 8.58 -0.3975 8.91 -2.4375 9.25 C-4.4375 6.25 -4.4375 6.25 -4.125 3.625 C-3.16976704 0.32510431 -3.16976704 0.32510431 0 0 Z " fill="#8A76A6" transform="translate(32.4375,328.75)"/>
<path d="M0 0 C2.4375 0.8125 2.4375 0.8125 4.4375 2.8125 C4.0625 5.4375 4.0625 5.4375 3.4375 7.8125 C0.15053767 8.61203138 -1.27273192 8.90908936 -4.5625 7.8125 C-5.25 5.5 -5.25 5.5 -5.5625 2.8125 C-3.93062878 0.09271463 -3.17771033 -0.23251539 0 0 Z " fill="#8A76A6" transform="translate(27.5625,165.1875)"/>
<path d="M0 0 C3.125 0.375 3.125 0.375 6 1 C6.625 3.3125 6.625 3.3125 7 6 C6.01 7.485 6.01 7.485 5 9 C-0.875 8.125 -0.875 8.125 -2 7 C-2.1875 4.5625 -2.1875 4.5625 -2 2 C-1.34 1.34 -0.68 0.68 0 0 Z " fill="#8A76A6" transform="translate(29,153)"/>
<path d="M0 0 C1.2375 0.1546875 1.2375 0.1546875 2.5 0.3125 C4.5 3.3125 4.5 3.3125 4.125 6 C3.91875 6.763125 3.7125 7.52625 3.5 8.3125 C1.1875 8.9375 1.1875 8.9375 -1.5 9.3125 C-2.49 8.6525 -3.48 7.9925 -4.5 7.3125 C-4.8125 4.8125 -4.8125 4.8125 -4.5 2.3125 C-2.5 0.3125 -2.5 0.3125 0 0 Z " fill="#8A76A6" transform="translate(446.5,135.6875)"/>
<path d="M0 0 C1.9375 0.75 1.9375 0.75 3.9375 2.75 C3.5625 5.875 3.5625 5.875 2.9375 8.75 C0.0625 8.875 0.0625 8.875 -3.0625 8.75 C-5.0625 6.75 -5.0625 6.75 -5.375 4.25 C-5.271875 3.425 -5.16875 2.6 -5.0625 1.75 C-2.0625 -0.25 -2.0625 -0.25 0 0 Z " fill="#8A76A6" transform="translate(48.0625,118.25)"/>
<path d="M0 0 C2 3 2 3 1.625 5.6875 C1.41875 6.450625 1.2125 7.21375 1 8 C-1.3125 8.625 -1.3125 8.625 -4 9 C-4.99 8.34 -5.98 7.68 -7 7 C-7.1875 3.875 -7.1875 3.875 -7 1 C-4.46578263 -0.26710868 -2.80561762 -0.28056176 0 0 Z " fill="#8A76A6" transform="translate(64,97)"/>
<path d="M0 0 C2.375 0.6875 2.375 0.6875 3.375 1.6875 C3.08769945 4.02694736 2.75563221 6.3614143 2.375 8.6875 C0.065 8.6875 -2.245 8.6875 -4.625 8.6875 C-4.955 6.3775 -5.285 4.0675 -5.625 1.6875 C-2.625 -0.3125 -2.625 -0.3125 0 0 Z " fill="#8A76A6" transform="translate(374.625,49.3125)"/>
<path d="M0 0 C1.9375 0.6875 1.9375 0.6875 3.9375 1.6875 C3.6075 3.9975 3.2775 6.3075 2.9375 8.6875 C0.0625 8.8125 0.0625 8.8125 -3.0625 8.6875 C-5.0625 6.6875 -5.0625 6.6875 -5.375 4.1875 C-5.271875 3.3625 -5.16875 2.5375 -5.0625 1.6875 C-2.0625 -0.3125 -2.0625 -0.3125 0 0 Z " fill="#8A76A6" transform="translate(363.0625,42.3125)"/>
<path d="M0 0 C1.2684375 0.12375 1.2684375 0.12375 2.5625 0.25 C4.5625 3.25 4.5625 3.25 4.1875 5.9375 C3.98125 6.700625 3.775 7.46375 3.5625 8.25 C1.5825 8.58 -0.3975 8.91 -2.4375 9.25 C-4.4375 6.25 -4.4375 6.25 -4.125 3.625 C-3.16976704 0.32510431 -3.16976704 0.32510431 0 0 Z " fill="#8A76A6" transform="translate(163.4375,22.75)"/>
<path d="M0 0 C2.875 -0.125 2.875 -0.125 6 0 C8 2 8 2 8.3125 4.5 C8.1578125 5.7375 8.1578125 5.7375 8 7 C5 9 5 9 2.3125 8.625 C1.549375 8.41875 0.78625 8.2125 0 8 C-0.79953138 4.71303767 -1.09658936 3.28976808 0 0 Z " fill="#8A76A6" transform="translate(384,417)"/>
<path d="M0 0 C2.875 -0.125 2.875 -0.125 6 0 C6.66 0.66 7.32 1.32 8 2 C7.625 5.125 7.625 5.125 7 8 C4.36 8 1.72 8 -1 8 C-1.125 2.25 -1.125 2.25 0 0 Z " fill="#8A76A6" transform="translate(46,363)"/>
<path d="M0 0 C3 0.25 3 0.25 5 2.25 C4.44444444 6.80555556 4.44444444 6.80555556 3 8.25 C1.00041636 8.29080783 -1.00045254 8.29254356 -3 8.25 C-3.66 6.27 -4.32 4.29 -5 2.25 C-3 0.25 -3 0.25 0 0 Z " fill="#8A76A6" transform="translate(457,311.75)"/>
<path d="M0 0 C2.375 0.375 2.375 0.375 3.375 1.375 C3.625 4.3125 3.625 4.3125 3.375 7.375 C0.375 9.375 0.375 9.375 -2.3125 9 C-3.075625 8.79375 -3.83875 8.5875 -4.625 8.375 C-5.625 5.375 -5.625 5.375 -4.5 2.6875 C-2.625 0.375 -2.625 0.375 0 0 Z " fill="#8A76A6" transform="translate(456.625,159.625)"/>
<path d="M0 0 C0 2.31 0 4.62 0 7 C-1.98 7.33 -3.96 7.66 -6 8 C-7.5625 5.6875 -7.5625 5.6875 -9 3 C-8.67 2.01 -8.34 1.02 -8 0 C-5.13822943 -1.43088528 -3.06624227 -0.59991697 0 0 Z " fill="#8A76A6" transform="translate(40,142)"/>
<path d="M0 0 C2.625 0.5625 2.625 0.5625 5 2 C5.9375 4.5 5.9375 4.5 6 7 C5.34 7.66 4.68 8.32 4 9 C0.375 8.625 0.375 8.625 -3 8 C-3.1875 5.125 -3.1875 5.125 -3 2 C-2.01 1.34 -1.02 0.68 0 0 Z " fill="#8A76A6" transform="translate(429,369)"/>
<path d="M0 0 C2 3 2 3 1.75 5.0625 C1 7 1 7 -1 9 C-3.26274788 8.64644564 -4.95088852 8.02455574 -7 7 C-7 5.02 -7 3.04 -7 1 C-4.46578263 -0.26710868 -2.80561762 -0.28056176 0 0 Z " fill="#8A76A6" transform="translate(72,87)"/>
<path d="M0 0 C3.125 0.375 3.125 0.375 6 1 C6.625 3.3125 6.625 3.3125 7 6 C6.01 7.485 6.01 7.485 5 9 C2.375 9.1875 2.375 9.1875 0 9 C-0.66 6.69 -1.32 4.38 -2 2 C-1.34 1.34 -0.68 0.68 0 0 Z " fill="#8A76A6" transform="translate(337,31)"/>
<path d="M0 0 C5.56818182 0.56818182 5.56818182 0.56818182 7 2 C7.04080783 3.99958364 7.04254356 6.00045254 7 8 C4.6875 8.625 4.6875 8.625 2 9 C-1 7 -1 7 -1.8125 4.5 C-1.874375 3.675 -1.93625 2.85 -2 2 C-1.34 1.34 -0.68 0.68 0 0 Z " fill="#8A76A6" transform="translate(325,26)"/>
<path d="M0 0 C3.125 -0.1875 3.125 -0.1875 6 0 C7.125 2.3125 7.125 2.3125 8 5 C7.01 6.485 7.01 6.485 6 8 C2.875 8.1875 2.875 8.1875 0 8 C-1.125 5.6875 -1.125 5.6875 -2 3 C-1.34 2.01 -0.68 1.02 0 0 Z " fill="#8A76A6" transform="translate(229,464)"/>
<path d="M0 0 C0.763125 0.20625 1.52625 0.4125 2.3125 0.625 C2.6425 2.605 2.9725 4.585 3.3125 6.625 C0.95811267 8.05444945 -0.16782433 8.71161261 -2.9375 8.25 C-3.515 8.04375 -4.0925 7.8375 -4.6875 7.625 C-5.0175 5.645 -5.3475 3.665 -5.6875 1.625 C-2.6875 -0.375 -2.6875 -0.375 0 0 Z " fill="#8A76A6" transform="translate(271.6875,463.375)"/>
<path d="M0 0 C1.99954746 -0.04254356 4.00041636 -0.04080783 6 0 C7 1 7 1 7.125 4 C7 7 7 7 6 8 C3.66702567 8.04092937 1.33294775 8.04241723 -1 8 C-1.93065133 5.39417629 -2.14917407 4.35801776 -1.0625 1.75 C-0.711875 1.1725 -0.36125 0.595 0 0 Z " fill="#8A76A6" transform="translate(293,460)"/>
<path d="M0 0 C1.670625 0.061875 1.670625 0.061875 3.375 0.125 C3.41741723 2.45794775 3.41592937 4.79202567 3.375 7.125 C2.375 8.125 2.375 8.125 -0.6875 8.1875 C-1.656875 8.166875 -2.62625 8.14625 -3.625 8.125 C-4.285 6.145 -4.945 4.165 -5.625 2.125 C-3.625 0.125 -3.625 0.125 0 0 Z " fill="#8A76A6" transform="translate(194.625,459.875)"/>
<path d="M0 0 C1 1 1 1 1.0625 4.0625 C1.041875 5.031875 1.02125 6.00125 1 7 C-0.98 7.33 -2.96 7.66 -5 8 C-6.5625 5.6875 -6.5625 5.6875 -8 3 C-7.67 2.01 -7.34 1.02 -7 0 C-4.31633121 -1.3418344 -2.84719317 -0.73004953 0 0 Z " fill="#8A76A6" transform="translate(148,446)"/>
<path d="M0 0 C2.31 0 4.62 0 7 0 C7.33 2.31 7.66 4.62 8 7 C6.35 7.66 4.7 8.32 3 9 C0.9375 7.3125 0.9375 7.3125 -1 5 C-0.75 2.25 -0.75 2.25 0 0 Z " fill="#8A76A6" transform="translate(374,425)"/>
<path d="M0 0 C1.98 0 3.96 0 6 0 C6.33 2.31 6.66 4.62 7 7 C6.34 7 5.68 7 5 7 C5 7.66 5 8.32 5 9 C3.33388095 9.042721 1.66617115 9.04063832 0 9 C-1 8 -1 8 -1.125 5.0625 C-1 2 -1 2 0 0 Z " fill="#8A76A6" transform="translate(61,384)"/>
<path d="M0 0 C1.1446875 0.3403125 1.1446875 0.3403125 2.3125 0.6875 C2.9375 3 2.9375 3 3.3125 5.6875 C2.3225 7.1725 2.3225 7.1725 1.3125 8.6875 C-1.6575 8.1925 -1.6575 8.1925 -4.6875 7.6875 C-5.375 5.375 -5.375 5.375 -5.6875 2.6875 C-4.0011022 -0.12316299 -3.27764429 -0.38112143 0 0 Z " fill="#8A76A6" transform="translate(461.6875,299.3125)"/>
<path d="M0 0 C0.763125 0.20625 1.52625 0.4125 2.3125 0.625 C2.6425 2.605 2.9725 4.585 3.3125 6.625 C0.95811267 8.05444945 -0.16782433 8.71161261 -2.9375 8.25 C-3.515 8.04375 -4.0925 7.8375 -4.6875 7.625 C-5.0175 5.645 -5.3475 3.665 -5.6875 1.625 C-2.6875 -0.375 -2.6875 -0.375 0 0 Z " fill="#8A76A6" transform="translate(22.6875,292.375)"/>
<path d="M0 0 C1 1 1 1 1.0625 3.5625 C1.041875 4.366875 1.02125 5.17125 1 6 C-1.35438733 7.42944945 -2.48032433 8.08661261 -5.25 7.625 C-5.8275 7.41875 -6.405 7.2125 -7 7 C-7.93423645 3.98968256 -8.04449911 3.13349732 -7 0 C-4.31633121 -1.3418344 -2.84719317 -0.73004953 0 0 Z " fill="#8A76A6" transform="translate(470,211)"/>
<path d="M0 0 C0.125 2.875 0.125 2.875 0 6 C-0.66 6.66 -1.32 7.32 -2 8 C-5.125 7.625 -5.125 7.625 -8 7 C-8.6875 4.6875 -8.6875 4.6875 -9 2 C-6.73607469 -1.99516231 -4.01344788 -0.98106504 0 0 Z " fill="#8A76A6" transform="translate(25,191)"/>
<path d="M0 0 C1.99954746 -0.04254356 4.00041636 -0.04080783 6 0 C7 1 7 1 7.0625 4.5625 C7.041875 5.696875 7.02125 6.83125 7 8 C4.69 8 2.38 8 0 8 C-1.125 6.25 -1.125 6.25 -2 4 C-1.125 1.75 -1.125 1.75 0 0 Z " fill="#8A76A6" transform="translate(460,185)"/>
<path d="M0 0 C2.375 0.75 2.375 0.75 3.375 1.75 C3.41580783 3.74958364 3.41754356 5.75045254 3.375 7.75 C0.08803767 8.54953138 -1.33523192 8.84658936 -4.625 7.75 C-5.3125 5.4375 -5.3125 5.4375 -5.625 2.75 C-3.9659358 -0.015107 -3.22812218 -0.30744021 0 0 Z " fill="#8A76A6" transform="translate(316.625,22.25)"/>
<path d="M0 0 C2.97 0.495 2.97 0.495 6 1 C6.93065133 3.60582371 7.14917407 4.64198224 6.0625 7.25 C5.711875 7.8275 5.36125 8.405 5 9 C2.03 8.505 2.03 8.505 -1 8 C-1.625 5.6875 -1.625 5.6875 -2 3 C-1.34 2.01 -0.68 1.02 0 0 Z " fill="#8A76A6" transform="translate(301,19)"/>
<path d="M0 0 C2.31 0 4.62 0 7 0 C7.04241723 2.33294775 7.04092937 4.66702567 7 7 C6 8 6 8 2.9375 8.0625 C1.968125 8.041875 0.99875 8.02125 0 8 C-1.125 6.25 -1.125 6.25 -2 4 C-1.125 1.75 -1.125 1.75 0 0 Z " fill="#8A76A6" transform="translate(185,17)"/>
<path d="M0 0 C3.0625 -0.25 3.0625 -0.25 6 0 C7 1 7 1 7.125 4 C7 7 7 7 6 8 C4.00041636 8.04080783 1.99954746 8.04254356 0 8 C-1.125 5.6875 -1.125 5.6875 -2 3 C-1.34 2.01 -0.68 1.02 0 0 Z " fill="#8A76A6" transform="translate(255,464)"/>
<path d="M0 0 C1.010625 0.0825 2.02125 0.165 3.0625 0.25 C5.0625 3.25 5.0625 3.25 4.75 5.375 C4.0625 7.25 4.0625 7.25 3.0625 8.25 C1.06291636 8.29080783 -0.93795254 8.29254356 -2.9375 8.25 C-3.31813221 5.9239143 -3.65019945 3.58944736 -3.9375 1.25 C-2.9375 0.25 -2.9375 0.25 0 0 Z " fill="#8A76A6" transform="translate(307.9375,456.75)"/>
<path d="M0 0 C2.9375 0.1875 2.9375 0.1875 3.9375 1.1875 C4.0625 4.1875 4.0625 4.1875 3.9375 7.1875 C2.9375 8.1875 2.9375 8.1875 -0.125 8.25 C-1.094375 8.229375 -2.06375 8.20875 -3.0625 8.1875 C-3.7225 6.2075 -4.3825 4.2275 -5.0625 2.1875 C-3.0625 0.1875 -3.0625 0.1875 0 0 Z " fill="#8A76A6" transform="translate(169.0625,453.8125)"/>
<path d="M0 0 C2.9375 0.1875 2.9375 0.1875 3.9375 1.1875 C4.0625 4.1875 4.0625 4.1875 3.9375 7.1875 C2.9375 8.1875 2.9375 8.1875 -0.125 8.25 C-1.094375 8.229375 -2.06375 8.20875 -3.0625 8.1875 C-3.7225 6.2075 -4.3825 4.2275 -5.0625 2.1875 C-3.0625 0.1875 -3.0625 0.1875 0 0 Z " fill="#8A76A6" transform="translate(157.0625,449.8125)"/>
<path d="M0 0 C1.2684375 0.12375 1.2684375 0.12375 2.5625 0.25 C4.7144437 3.47791555 4.76336443 4.53400809 4.5625 8.25 C1.6875 8.875 1.6875 8.875 -1.4375 9.25 C-3.4375 7.25 -3.4375 7.25 -3.625 4.1875 C-3.37983937 0.34665019 -3.37983937 0.34665019 0 0 Z " fill="#8A76A6" transform="translate(355.4375,437.75)"/>
<path d="M0 0 C1.4540625 0.0309375 1.4540625 0.0309375 2.9375 0.0625 C3.5625 3.4375 3.5625 3.4375 3.9375 7.0625 C3.2775 7.7225 2.6175 8.3825 1.9375 9.0625 C-0.6875 8.6875 -0.6875 8.6875 -3.0625 8.0625 C-3.44313221 5.7364143 -3.77519945 3.40194736 -4.0625 1.0625 C-3.0625 0.0625 -3.0625 0.0625 0 0 Z " fill="#8A76A6" transform="translate(367.0625,431.9375)"/>
<path d="M0 0 C3 0.125 3 0.125 4 1.125 C4.1875 4.0625 4.1875 4.0625 4 7.125 C3.34 7.785 2.68 8.445 2 9.125 C-0.26274788 8.77144564 -1.95088852 8.14955574 -4 7.125 C-4.04254356 5.12545254 -4.04080783 3.12458364 -4 1.125 C-3 0.125 -3 0.125 0 0 Z " fill="#8A76A6" transform="translate(415,389.875)"/>
<path d="M0 0 C4.55555556 0.55555556 4.55555556 0.55555556 6 2 C5.71269945 4.33944736 5.38063221 6.6739143 5 9 C2.69 8.67 0.38 8.34 -2 8 C-2.125 5.125 -2.125 5.125 -2 2 C-1.34 1.34 -0.68 0.68 0 0 Z " fill="#8A76A6" transform="translate(435,358)"/>
<path d="M0 0 C1.2684375 0.12375 1.2684375 0.12375 2.5625 0.25 C4.7144437 3.47791555 4.76336443 4.53400809 4.5625 8.25 C1.6875 8.875 1.6875 8.875 -1.4375 9.25 C-3.4375 7.25 -3.4375 7.25 -3.625 4.1875 C-3.37983937 0.34665019 -3.37983937 0.34665019 0 0 Z " fill="#8A76A6" transform="translate(42.4375,351.75)"/>
<path d="M0 0 C2.31 0 4.62 0 7 0 C7.33 1.98 7.66 3.96 8 6 C5 8 5 8 1.8125 7.625 C0.884375 7.41875 -0.04375 7.2125 -1 7 C-0.67 4.69 -0.34 2.38 0 0 Z " fill="#8A76A6" transform="translate(34,341)"/>
<path d="M0 0 C2.9375 0.1875 2.9375 0.1875 3.9375 1.1875 C4.0625 4.1875 4.0625 4.1875 3.9375 7.1875 C2.9375 8.1875 2.9375 8.1875 -0.125 8.25 C-1.094375 8.229375 -2.06375 8.20875 -3.0625 8.1875 C-3.7225 6.2075 -4.3825 4.2275 -5.0625 2.1875 C-3.0625 0.1875 -3.0625 0.1875 0 0 Z " fill="#8A76A6" transform="translate(453.0625,323.8125)"/>
<path d="M0 0 C1.99954746 -0.04254356 4.00041636 -0.04080783 6 0 C7 1 7 1 7.125 4 C7 7 7 7 6 8 C4.00041636 8.04080783 1.99954746 8.04254356 0 8 C-1.125 6.25 -1.125 6.25 -2 4 C-1.125 1.75 -1.125 1.75 0 0 Z " fill="#8A76A6" transform="translate(25,317)"/>
<path d="M0 0 C1.010625 0.0825 2.02125 0.165 3.0625 0.25 C5.0625 3.25 5.0625 3.25 4.75 5.375 C4.0625 7.25 4.0625 7.25 3.0625 8.25 C1.06291636 8.29080783 -0.93795254 8.29254356 -2.9375 8.25 C-3.31813221 5.9239143 -3.65019945 3.58944736 -3.9375 1.25 C-2.9375 0.25 -2.9375 0.25 0 0 Z " fill="#8A76A6" transform="translate(23.9375,304.75)"/>
<path d="M0 0 C2.97 0.495 2.97 0.495 6 1 C6.93065133 3.60582371 7.14917407 4.64198224 6.0625 7.25 C5.711875 7.8275 5.36125 8.405 5 9 C2.03 8.505 2.03 8.505 -1 8 C-1.625 5.6875 -1.625 5.6875 -2 3 C-1.34 2.01 -0.68 1.02 0 0 Z " fill="#8A76A6" transform="translate(463,274)"/>
<path d="M0 0 C3.0625 -0.25 3.0625 -0.25 6 0 C7 1 7 1 7.0625 4.5625 C7.041875 5.696875 7.02125 6.83125 7 8 C4.69 8 2.38 8 0 8 C-1.125 5.6875 -1.125 5.6875 -2 3 C-1.34 2.01 -0.68 1.02 0 0 Z " fill="#8A76A6" transform="translate(14,267)"/>
<path d="M0 0 C2.64 0 5.28 0 8 0 C8.04241723 2.33294775 8.04092937 4.66702567 8 7 C7 8 7 8 4.625 8.3125 C2 8 2 8 0.125 6.25 C-1 4 -1 4 -0.6875 1.75 C-0.460625 1.1725 -0.23375 0.595 0 0 Z " fill="#8A76A6" transform="translate(463,262)"/>
<path d="M0 0 C3.0625 -0.25 3.0625 -0.25 6 0 C7 1 7 1 7.125 4 C7 7 7 7 6 8 C4.00041636 8.04080783 1.99954746 8.04254356 0 8 C-1.125 5.6875 -1.125 5.6875 -2 3 C-1.34 2.01 -0.68 1.02 0 0 Z " fill="#8A76A6" transform="translate(465,249)"/>
<path d="M0 0 C3.0625 -0.25 3.0625 -0.25 6 0 C7 1 7 1 7.125 4 C7 7 7 7 6 8 C4.00041636 8.04080783 1.99954746 8.04254356 0 8 C-1.125 5.6875 -1.125 5.6875 -2 3 C-1.34 2.01 -0.68 1.02 0 0 Z " fill="#8A76A6" transform="translate(465,236)"/>
<path d="M0 0 C3.625 -0.1875 3.625 -0.1875 7 0 C7.04241723 2.33294775 7.04092937 4.66702567 7 7 C6 8 6 8 2.9375 8.0625 C1.968125 8.041875 0.99875 8.02125 0 8 C-1.125 5.6875 -1.125 5.6875 -2 3 C-1.34 2.01 -0.68 1.02 0 0 Z " fill="#8A76A6" transform="translate(462,198)"/>
<path d="M0 0 C1.4540625 0.0309375 1.4540625 0.0309375 2.9375 0.0625 C3.73703138 3.34946233 4.03408936 4.77273192 2.9375 8.0625 C0.0625 8.1875 0.0625 8.1875 -3.0625 8.0625 C-3.7225 7.4025 -4.3825 6.7425 -5.0625 6.0625 C-4.33395709 0.0884481 -4.33395709 0.0884481 0 0 Z " fill="#8A76A6" transform="translate(24.0625,177.9375)"/>
<path d="M0 0 C1.99954746 -0.04254356 4.00041636 -0.04080783 6 0 C7 1 7 1 7.125 4 C7 7 7 7 6 8 C4.00041636 8.04080783 1.99954746 8.04254356 0 8 C-1.125 6.25 -1.125 6.25 -2 4 C-1.125 1.75 -1.125 1.75 0 0 Z " fill="#8A76A6" transform="translate(457,173)"/>
<path d="M0 0 C1.4540625 0.0309375 1.4540625 0.0309375 2.9375 0.0625 C3.5975 1.7125 4.2575 3.3625 4.9375 5.0625 C3.6175 6.3825 2.2975 7.7025 0.9375 9.0625 C-1.5375 8.0725 -1.5375 8.0725 -4.0625 7.0625 C-4.10504356 5.06295254 -4.10330783 3.06208364 -4.0625 1.0625 C-3.0625 0.0625 -3.0625 0.0625 0 0 Z " fill="#8A76A6" transform="translate(117.0625,44.9375)"/>
<path d="M0 0 C1.4540625 0.0309375 1.4540625 0.0309375 2.9375 0.0625 C3.31813221 2.3885857 3.65019945 4.72305264 3.9375 7.0625 C2.9375 8.0625 2.9375 8.0625 0 8.25 C-3.0625 8.0625 -3.0625 8.0625 -5.0625 6.0625 C-4.33395709 0.0884481 -4.33395709 0.0884481 0 0 Z " fill="#8A76A6" transform="translate(176.0625,19.9375)"/>
<path d="M0 0 C1.670625 0.061875 1.670625 0.061875 3.375 0.125 C3.5 5.875 3.5 5.875 2.375 8.125 C0.395 8.125 -1.585 8.125 -3.625 8.125 C-4.285 6.145 -4.945 4.165 -5.625 2.125 C-3.625 0.125 -3.625 0.125 0 0 Z " fill="#8A76A6" transform="translate(291.625,16.875)"/>
<path d="M0 0 C3 0.125 3 0.125 4 1.125 C4.04080783 3.12458364 4.04254356 5.12545254 4 7.125 C1.6875 8.25 1.6875 8.25 -1 9.125 C-1.99 8.465 -2.98 7.805 -4 7.125 C-4.25 4.0625 -4.25 4.0625 -4 1.125 C-3 0.125 -3 0.125 0 0 Z " fill="#8A76A6" transform="translate(239,11.875)"/>
<path d="M0 0 C2.375 0.25 2.375 0.25 3.375 1.25 C3.41592937 3.58297433 3.41741723 5.91705225 3.375 8.25 C1.065 8.25 -1.245 8.25 -3.625 8.25 C-4.285 6.6 -4.945 4.95 -5.625 3.25 C-3.7774876 0.91630013 -3.0311278 0.28867884 0 0 Z " fill="#8A76A6" transform="translate(219.625,462.75)"/>
<path d="M0 0 C2.5625 0.1875 2.5625 0.1875 4.5625 2.1875 C4.75 4.75 4.75 4.75 4.5625 7.1875 C3.5625 8.1875 3.5625 8.1875 0.625 8.375 C-2.4375 8.1875 -2.4375 8.1875 -4.4375 6.1875 C-3.71780303 0.28598485 -3.71780303 0.28598485 0 0 Z " fill="#8A76A6" transform="translate(90.4375,411.8125)"/>
<path d="M0 0 C2.33944736 0.28730055 4.6739143 0.61936779 7 1 C7.125 3.875 7.125 3.875 7 7 C6.34 7.66 5.68 8.32 5 9 C2.73725212 8.64644564 1.04911148 8.02455574 -1 7 C-1.04254356 5.00045254 -1.04080783 2.99958364 -1 1 C-0.67 0.67 -0.34 0.34 0 0 Z " fill="#8A76A6" transform="translate(420,380)"/>
<path d="M0 0 C3.125 0.375 3.125 0.375 6 1 C5.67 3.31 5.34 5.62 5 8 C0.25 9.125 0.25 9.125 -2 8 C-2.125 5.125 -2.125 5.125 -2 2 C-1.34 1.34 -0.68 0.68 0 0 Z " fill="#8A76A6" transform="translate(441,347)"/>
<path d="M0 0 C2.875 -0.125 2.875 -0.125 6 0 C6.66 0.66 7.32 1.32 8 2 C7.625 5.125 7.625 5.125 7 8 C4.125 8.125 4.125 8.125 1 8 C0.34 7.34 -0.32 6.68 -1 6 C-0.625 2.875 -0.625 2.875 0 0 Z " fill="#8A76A6" transform="translate(460,287)"/>
<path d="M0 0 C2.33294775 -0.04241723 4.66702567 -0.04092937 7 0 C8 1 8 1 8.125 4 C8 7 8 7 7 8 C4.16640458 8.2982732 2.56214622 8.35602594 0.125 6.8125 C-1 5 -1 5 -0.6875 2.3125 C-0.460625 1.549375 -0.23375 0.78625 0 0 Z " fill="#8A76A6" transform="translate(15,280)"/>
<path d="M0 0 C3.0625 -0.25 3.0625 -0.25 6 0 C7 1 7 1 7.125 4 C7 7 7 7 6 8 C4.00041636 8.04080783 1.99954746 8.04254356 0 8 C-1.125 5.6875 -1.125 5.6875 -2 3 C-1.34 2.01 -0.68 1.02 0 0 Z " fill="#8A76A6" transform="translate(14,216)"/>
<path d="M0 0 C2.5 -0.3125 2.5 -0.3125 5 0 C7 2 7 2 7.1875 4.5625 C7 7 7 7 6 8 C3.66702567 8.04092937 1.33294775 8.04241723 -1 8 C-1.625 5.6875 -1.625 5.6875 -2 3 C-1.34 2.01 -0.68 1.02 0 0 Z " fill="#8A76A6" transform="translate(16,203)"/>
<path d="M0 0 C2.625 0.625 2.625 0.625 5 2 C5.9375 3.9375 5.9375 3.9375 6 6 C5.01 7.485 5.01 7.485 4 9 C1.69 8.67 -0.62 8.34 -3 8 C-3.1875 5.125 -3.1875 5.125 -3 2 C-2.01 1.34 -1.02 0.68 0 0 Z " fill="#8A76A6" transform="translate(53,107)"/>
<path d="M0 0 C1.2065625 0.0309375 1.2065625 0.0309375 2.4375 0.0625 C2.4375 0.7225 2.4375 1.3825 2.4375 2.0625 C3.0975 2.0625 3.7575 2.0625 4.4375 2.0625 C4.5625 4.4375 4.5625 4.4375 4.4375 7.0625 C3.7775 7.7225 3.1175 8.3825 2.4375 9.0625 C-2.11805556 8.50694444 -2.11805556 8.50694444 -3.5625 7.0625 C-3.6875 4.0625 -3.6875 4.0625 -3.5625 1.0625 C-2.5625 0.0625 -2.5625 0.0625 0 0 Z " fill="#8A76A6" transform="translate(77.5625,76.9375)"/>
<path d="M0 0 C2.31 0 4.62 0 7 0 C7.04241723 2.33294775 7.04092937 4.66702567 7 7 C6 8 6 8 3.625 8.3125 C1 8 1 8 -0.8125 6 C-1.204375 5.34 -1.59625 4.68 -2 4 C-1.34 2.68 -0.68 1.36 0 0 Z " fill="#8A76A6" transform="translate(275,15)"/>
<path d="M0 0 C2.33294775 -0.04241723 4.66702567 -0.04092937 7 0 C8 1 8 1 8.1875 3.4375 C8 6 8 6 6 8 C3.375 8.125 3.375 8.125 1 8 C-1.125 3.375 -1.125 3.375 0 0 Z " fill="#8A76A6" transform="translate(197,15)"/>
<path d="M0 0 C0.78375 0.04125 1.5675 0.0825 2.375 0.125 C3.80444945 2.47938733 4.46161261 3.60532433 4 6.375 C3.79375 6.9525 3.5875 7.53 3.375 8.125 C1.065 8.125 -1.245 8.125 -3.625 8.125 C-4.25 5.25 -4.25 5.25 -4.625 2.125 C-2.625 0.125 -2.625 0.125 0 0 Z " fill="#8A76A6" transform="translate(213.625,12.875)"/>
<path d="M0 0 C2.31 0 4.62 0 7 0 C7.625 2.3125 7.625 2.3125 8 5 C7.01 6.485 7.01 6.485 6 8 C3.375 8.1875 3.375 8.1875 1 8 C0.26919734 6.02253397 -0.39421747 4.01927511 -1 2 C-0.67 1.34 -0.34 0.68 0 0 Z " fill="#8A76A6" transform="translate(203,462)"/>
<path d="M0 0 C2.33944736 0.28730055 4.6739143 0.61936779 7 1 C7.125 3.375 7.125 3.375 7 6 C5 8 5 8 2.5 8.25 C0 8 0 8 -2 6 C-1.44444444 1.44444444 -1.44444444 1.44444444 0 0 Z " fill="#8A76A6" transform="translate(98,420)"/>
<path d="M0 0 C3.0625 -0.25 3.0625 -0.25 6 0 C7 1 7 1 7.125 4 C7 7 7 7 6 8 C3.66055264 7.71269945 1.3260857 7.38063221 -1 7 C-1.625 5.1875 -1.625 5.1875 -2 3 C-1.34 2.01 -0.68 1.02 0 0 Z " fill="#8A76A6" transform="translate(13,229)"/>
<path d="M0 0 C3.125 -0.1875 3.125 -0.1875 6 0 C6.33 2.31 6.66 4.62 7 7 C4.69 7.33 2.38 7.66 0 8 C-1.125 5.6875 -1.125 5.6875 -2 3 C-1.34 2.01 -0.68 1.02 0 0 Z " fill="#8A76A6" transform="translate(432,114)"/>
<path d="M0 0 C1.010625 0.0825 2.02125 0.165 3.0625 0.25 C5.0625 3.25 5.0625 3.25 4.75 5.375 C4.0625 7.25 4.0625 7.25 3.0625 8.25 C0.625 8.4375 0.625 8.4375 -1.9375 8.25 C-3.9375 6.25 -3.9375 6.25 -4.125 3.6875 C-3.85121288 0.1282675 -3.61900269 0.30800023 0 0 Z " fill="#8A76A6" transform="translate(419.9375,92.75)"/>
<path d="M0 0 C2.4375 0.1875 2.4375 0.1875 3.4375 1.1875 C3.47842937 3.52047433 3.47991723 5.85455225 3.4375 8.1875 C1.10455225 8.22991723 -1.22952567 8.22842937 -3.5625 8.1875 C-4.5625 7.1875 -4.5625 7.1875 -4.75 4.75 C-4.48737296 1.16076381 -3.58923619 0.26262704 0 0 Z " fill="#8A76A6" transform="translate(283.5625,461.8125)"/>
<path d="M0 0 C2.4375 0.1875 2.4375 0.1875 3.4375 1.1875 C3.47842937 3.52047433 3.47991723 5.85455225 3.4375 8.1875 C1.10455225 8.22991723 -1.22952567 8.22842937 -3.5625 8.1875 C-4.5625 7.1875 -4.5625 7.1875 -4.75 4.75 C-4.48737296 1.16076381 -3.58923619 0.26262704 0 0 Z " fill="#8A76A6" transform="translate(16.5625,253.8125)"/>
<path d="M0 0 C2.4375 0.1875 2.4375 0.1875 3.4375 1.1875 C3.5625 4.1875 3.5625 4.1875 3.4375 7.1875 C2.4375 8.1875 2.4375 8.1875 -1.125 8.25 C-2.259375 8.229375 -3.39375 8.20875 -4.5625 8.1875 C-4.6875 5.3125 -4.6875 5.3125 -4.5625 2.1875 C-2.5625 0.1875 -2.5625 0.1875 0 0 Z " fill="#8A76A6" transform="translate(468.5625,222.8125)"/>
<path d="M0 0 C1.4540625 0.0309375 1.4540625 0.0309375 2.9375 0.0625 C3.2675 2.3725 3.5975 4.6825 3.9375 7.0625 C2.2875 7.7225 0.6375 8.3825 -1.0625 9.0625 C-2.5625 7.875 -2.5625 7.875 -4.0625 6.0625 C-4.3125 3.4375 -4.3125 3.4375 -4.0625 1.0625 C-3.0625 0.0625 -3.0625 0.0625 0 0 Z " fill="#8A76A6" transform="translate(428.0625,102.9375)"/>
<path d="M0 0 C3 0.125 3 0.125 4 1.125 C4.25 4.0625 4.25 4.0625 4 7.125 C1 9.125 1 9.125 -1.1875 8.75 C-1.785625 8.54375 -2.38375 8.3375 -3 8.125 C-3.38063221 5.7989143 -3.71269945 3.46444736 -4 1.125 C-3 0.125 -3 0.125 0 0 Z " fill="#8A76A6" transform="translate(394,64.875)"/>
<path d="M0 0 C2.5 -0.3125 2.5 -0.3125 5 0 C5.66 0.66 6.32 1.32 7 2 C6.625 5.125 6.625 5.125 6 8 C3.69 8 1.38 8 -1 8 C-1.625 5.6875 -1.625 5.6875 -2 3 C-1.34 2.01 -0.68 1.02 0 0 Z " fill="#8A76A6" transform="translate(263,13)"/>
<path d="M0 0 C5.875 0.875 5.875 0.875 7 2 C7.04080783 3.99958364 7.04254356 6.00045254 7 8 C4.69 8 2.38 8 0 8 C-1.125 5.6875 -1.125 5.6875 -2 3 C-1.34 2.01 -0.68 1.02 0 0 Z " fill="#8A76A6" transform="translate(250,12)"/>
<path d="M0 0 C2.75 0.25 2.75 0.25 5 1 C5.04254356 2.99954746 5.04080783 5.00041636 5 7 C4 8 4 8 0.9375 8.0625 C-0.031875 8.041875 -1.00125 8.02125 -2 8 C-2.66 6.68 -3.32 5.36 -4 4 C-2.3125 1.9375 -2.3125 1.9375 0 0 Z " fill="#8A76A6" transform="translate(225,12)"/>
<path d="M0 0 C2.33944736 0.28730055 4.6739143 0.61936779 7 1 C6.67 3.31 6.34 5.62 6 8 C3.69 7.67 1.38 7.34 -1 7 C-1.04254356 5.00045254 -1.04080783 2.99958364 -1 1 C-0.67 0.67 -0.34 0.34 0 0 Z " fill="#8A76A6" transform="translate(119,434)"/>
<path d="M0 0 C1.98 0 3.96 0 6 0 C6 2.64 6 5.28 6 8 C2.98968256 8.93423645 2.13349732 9.04449911 -1 8 C-1.125 2.25 -1.125 2.25 0 0 Z " fill="#8A76A6" transform="translate(409,83)"/>
<path d="M0 0 C1 1 1 1 1.1875 3.4375 C1 6 1 6 -1 8 C-3.625 7.625 -3.625 7.625 -6 7 C-6.33 4.69 -6.66 2.38 -7 0 C-4.31633121 -1.3418344 -2.84719317 -0.73004953 0 0 Z " fill="#8A76A6" transform="translate(90,69)"/>
<path d="M0 0 C2.33944736 0.28730055 4.6739143 0.61936779 7 1 C6.67 3.31 6.34 5.62 6 8 C3.69 7.67 1.38 7.34 -1 7 C-1.04254356 5.00045254 -1.04080783 2.99958364 -1 1 C-0.67 0.67 -0.34 0.34 0 0 Z " fill="#8A76A6" transform="translate(381,57)"/>
<path d="M0 0 C2.33294775 -0.04241723 4.66702567 -0.04092937 7 0 C8 1 8 1 8.0625 4.0625 C8.041875 5.031875 8.02125 6.00125 8 7 C5.69 7 3.38 7 1 7 C-0.0625 4.625 -0.0625 4.625 -1 2 C-0.67 1.34 -0.34 0.68 0 0 Z " fill="#8A76A6" transform="translate(241,465)"/>
<path d="M0 0 C0 2.64 0 5.28 0 8 C-1.65 8 -3.3 8 -5 8 C-5 7.34 -5 6.68 -5 6 C-5.66 6 -6.32 6 -7 6 C-7 4.02 -7 2.04 -7 0 C-4.3333581 -1.33332095 -2.83319697 -0.67102033 0 0 Z " fill="#8A76A6" transform="translate(84,404)"/>
<path d="M0 0 C3.625 -0.1875 3.625 -0.1875 7 0 C7.625 1.8125 7.625 1.8125 8 4 C7.01 5.485 7.01 5.485 6 7 C2.375 7.1875 2.375 7.1875 -1 7 C-1.625 5.1875 -1.625 5.1875 -2 3 C-1.34 2.01 -0.68 1.02 0 0 Z " fill="#8A76A6" transform="translate(13,242)"/>
<path d="M0 0 C1.134375 0.020625 2.26875 0.04125 3.4375 0.0625 C3.81968767 1.71864657 4.15145102 3.38707024 4.4375 5.0625 C3.4375 6.0625 3.4375 6.0625 -0.125 6.125 C-1.259375 6.104375 -2.39375 6.08375 -3.5625 6.0625 C-3.94468767 4.40635343 -4.27645102 2.73792976 -4.5625 1.0625 C-3.5625 0.0625 -3.5625 0.0625 0 0 Z " fill="#8A76A6" transform="translate(397.5625,409.9375)"/>
<path d="M0 0 C1.134375 0.020625 2.26875 0.04125 3.4375 0.0625 C3.81968767 1.71864657 4.15145102 3.38707024 4.4375 5.0625 C3.4375 6.0625 3.4375 6.0625 -0.125 6.125 C-1.259375 6.104375 -2.39375 6.08375 -3.5625 6.0625 C-3.94468767 4.40635343 -4.27645102 2.73792976 -4.5625 1.0625 C-3.5625 0.0625 -3.5625 0.0625 0 0 Z " fill="#8A76A6" transform="translate(406.5625,400.9375)"/>
<path d="M0 0 C1.134375 0.020625 2.26875 0.04125 3.4375 0.0625 C3.81968767 1.71864657 4.15145102 3.38707024 4.4375 5.0625 C3.4375 6.0625 3.4375 6.0625 -0.125 6.125 C-1.259375 6.104375 -2.39375 6.08375 -3.5625 6.0625 C-3.94468767 4.40635343 -4.27645102 2.73792976 -4.5625 1.0625 C-3.5625 0.0625 -3.5625 0.0625 0 0 Z " fill="#8A76A6" transform="translate(403.5625,74.9375)"/>
</svg>
