<?xml version="1.0" encoding="UTF-8"?>
<svg version="1.1" xmlns="http://www.w3.org/2000/svg" width="484" height="485">
<path d="M0 0 C2.99593147 2.47302762 4.71509305 3.94606039 5.96484375 7.6953125 C6.35258091 12.42570585 6.44602247 14.75077649 4.27734375 19.0078125 C1.3412543 22.42002456 -0.72103549 24.52000032 -5.35546875 24.87109375 C-7.59130097 24.88160707 -9.80353265 24.82658448 -12.03515625 24.6953125 C-11.94769341 26.13392544 -11.83950277 27.57128758 -11.72265625 29.0078125 C-11.66464844 29.80832031 -11.60664063 30.60882813 -11.546875 31.43359375 C-10.9401606 34.11517875 -10.19153471 35.0306498 -8.03515625 36.6953125 C4.41456139 40.84521838 20.02810051 36.98257974 32.50390625 34.66796875 C55.40901121 30.43717872 78.27924802 33.51131529 97.90234375 46.5703125 C112.10301085 56.41951554 121.41706933 68.33919512 130.34204102 82.92993164 C135.70623544 92.8835959 135.70623544 92.8835959 144.07666016 99.30297852 C145.01131104 99.49718384 145.01131104 99.49718384 145.96484375 99.6953125 C155.85229851 88.50916261 155.85229851 88.50916261 164.96484375 76.6953125 C163.67449219 76.71851563 162.38414062 76.74171875 161.0546875 76.765625 C159.33724541 76.78439486 157.61979701 76.80259375 155.90234375 76.8203125 C155.05478516 76.83707031 154.20722656 76.85382813 153.33398438 76.87109375 C148.13066174 76.91127385 143.89014554 76.39277065 138.96484375 74.6953125 C139.01757812 72.4362793 139.01757812 72.4362793 139.96484375 69.6953125 C142.3741013 68.14295781 144.52798117 66.99346559 147.12109375 65.83984375 C147.8510556 65.4965654 148.58101746 65.15328705 149.33309937 64.79960632 C150.89473465 64.06673299 152.46010494 63.34177578 154.02874756 62.62402344 C158.08106737 60.76726437 162.10367317 58.84818882 166.12890625 56.93359375 C166.91234406 56.56255524 167.69578186 56.19151672 168.50296021 55.80923462 C178.02888162 51.27663453 187.10849961 46.17196742 195.7109375 40.05859375 C196.31373535 39.630625 196.9165332 39.20265625 197.53759766 38.76171875 C199.14945806 37.59998495 200.73983654 36.40860217 202.328125 35.21484375 C204.96484375 33.6953125 204.96484375 33.6953125 207.3203125 33.95703125 C207.86300781 34.20066406 208.40570313 34.44429687 208.96484375 34.6953125 C209.98924162 37.83143811 209.95508587 39.55242736 208.79663086 42.62744141 C208.5156102 43.38989166 208.23458954 44.15234192 207.9450531 44.93789673 C207.63060745 45.75760956 207.3161618 46.57732239 206.9921875 47.421875 C206.67206192 48.28356293 206.35193634 49.14525085 206.02210999 50.03305054 C204.99237356 52.79940474 203.94808082 55.55997173 202.90234375 58.3203125 C201.55259211 61.91491763 200.20875795 65.51170924 198.8671875 69.109375 C198.53650269 69.99446747 198.20581787 70.87955994 197.8651123 71.79147339 C193.36221333 83.9118551 189.11590264 96.14635869 185.96484375 108.6953125 C183.58984375 109.3203125 183.58984375 109.3203125 180.96484375 109.6953125 C178.65955243 107.39002118 178.31839405 106.01464618 177.45703125 102.90625 C177.06064453 101.49472656 177.06064453 101.49472656 176.65625 100.0546875 C176.38683594 99.06984375 176.11742187 98.085 175.83984375 97.0703125 C175.56269531 96.07773438 175.28554688 95.08515625 175 94.0625 C174.31567114 91.60835514 173.63756106 89.15266087 172.96484375 86.6953125 C170.90136628 89.06946475 168.83924374 91.44479018 166.77734375 93.8203125 C166.19919922 94.48546875 165.62105469 95.150625 165.02539062 95.8359375 C163.33407548 97.78524987 161.64931961 99.74009029 159.96484375 101.6953125 C159.45614746 102.27635742 158.94745117 102.85740234 158.42333984 103.45605469 C155.78904087 106.18330386 155.78904087 106.18330386 154.96484375 109.6953125 C162.93098272 114.60888057 170.94885594 118.66748322 179.58984375 122.2578125 C203.01107311 132.09593088 221.46902016 146.76781736 232.49609375 170.0703125 C237.8578965 183.30369801 239.08663145 196.16588863 238.90234375 210.3203125 C238.65354844 232.13726689 238.65354844 232.13726689 247.15234375 251.8203125 C251.08578423 254.44260615 254.37175804 254.14561502 258.96484375 253.6953125 C258.46984375 252.8909375 257.97484375 252.0865625 257.46484375 251.2578125 C255.61320904 246.86018006 255.22298759 243.39935498 255.96484375 238.6953125 C257.8520376 234.61897378 259.35876113 233.05663098 263.21484375 230.7578125 C267.55051197 229.52937317 270.68228707 229.24756561 274.96484375 230.6953125 C277.91850207 232.53016085 280.38269648 234.53101797 281.96484375 237.6953125 C282.38954791 241.4084403 282.45814826 244.98757217 281.96484375 248.6953125 C280.30237361 250.69880216 278.63551508 252.69865652 276.96484375 254.6953125 C276.5324725 257.49671007 276.5324725 257.49671007 276.46484375 260.5703125 C276.09676131 268.39690754 273.19816783 272.83957455 267.52734375 278.0703125 C262.11573686 282.33470508 256.77594017 283.25992694 249.984375 283.1484375 C243.90899676 282.23673779 237.24049435 279.33326851 233.17951965 274.62574768 C230.29837593 272.11438194 228.68949699 272.16694695 224.90112305 272.10522461 C223.66076797 272.07503738 222.4204129 272.04485016 221.14247131 272.01374817 C219.77467039 271.99985162 218.40686735 271.98616083 217.0390625 271.97265625 C215.60420372 271.94379883 214.16938272 271.91300735 212.73460388 271.88041687 C209.65611079 271.81356626 206.57770071 271.75794399 203.49884033 271.71099854 C196.09881474 271.59643329 188.70021786 271.41667405 181.30139923 271.24250031 C178.76775573 271.18327833 176.23407105 271.12610794 173.70037842 271.06903076 C158.15133636 270.71151949 142.62445325 270.08509865 127.08984375 269.3203125 C125.83554565 269.25918274 124.58124756 269.19805298 123.28894043 269.1350708 C99.09894692 267.94438772 74.92365936 266.48613662 50.75244141 264.96533203 C49.38966467 264.87997402 48.02688699 264.79463125 46.66410828 264.70930481 C44.1423576 264.55085659 41.62071255 264.39071453 39.09919739 264.2285614 C37.97905746 264.15805069 36.85891754 264.08753998 35.70483398 264.01489258 C34.73569565 263.95288162 33.76655731 263.89087067 32.76805115 263.82698059 C27.07487774 263.21638053 27.07487774 263.21638053 21.99609375 265.09375 C18.81199353 269.20013395 18.81199353 269.20013395 17.96484375 274.20703125 C18.692278 277.91808256 19.85418903 281.37564331 21.08984375 284.9453125 C22.73229683 291.98439712 23.41106156 299.52353408 20.3671875 306.19921875 C17.84349091 310.21317273 14.57176031 313.38162392 11.15234375 316.6328125 C7.50851981 320.14153282 3.94771968 323.64930493 0.64453125 327.484375 C-3.73658108 332.56327681 -8.39463332 337.35297702 -13.09765625 342.1328125 C-14.40573242 343.49696289 -14.40573242 343.49696289 -15.74023438 344.88867188 C-17.01737305 346.18321289 -17.01737305 346.18321289 -18.3203125 347.50390625 C-19.46318726 348.67651001 -19.46318726 348.67651001 -20.62915039 349.87280273 C-23.45719638 352.01500094 -25.53929698 352.38771727 -29.03515625 352.6953125 C-30.01564536 348.04033864 -29.96449305 344.05129272 -29.4765625 339.328125 C-29.40855942 338.64853729 -29.34055634 337.96894958 -29.27049255 337.26876831 C-29.05361629 335.11845142 -28.82582223 332.96945773 -28.59765625 330.8203125 C-28.44784223 329.35424062 -28.29874646 327.88809516 -28.15039062 326.421875 C-27.78694739 322.84546553 -27.41371035 319.27015781 -27.03515625 315.6953125 C-28.30576904 316.0509729 -28.30576904 316.0509729 -29.60205078 316.41381836 C-32.76591694 317.29782067 -35.93053891 318.17901137 -39.09570312 319.05834961 C-40.46157308 319.43842199 -41.82713868 319.81959002 -43.19238281 320.2019043 C-45.16260713 320.75342329 -47.13391741 321.30090264 -49.10546875 321.84765625 C-50.28898926 322.17757568 -51.47250977 322.50749512 -52.69189453 322.84741211 C-55.82343428 323.64161669 -58.81772821 324.38512512 -62.03515625 324.6953125 C-62.69515625 324.0353125 -63.35515625 323.3753125 -64.03515625 322.6953125 C-63.21391807 311.92796749 -51.05342928 300.17651904 -44.7734375 291.75 C-42.22645016 288.32683832 -39.7302693 284.87351107 -37.265625 281.390625 C-36.65090332 280.53090088 -36.03618164 279.67117676 -35.40283203 278.78540039 C-34.230366 277.14372595 -33.06794972 275.49481035 -31.91748047 273.83764648 C-28.62128955 269.25608937 -25.57791403 265.40755917 -20.03515625 263.6953125 C-16.53305736 263.23739797 -13.12287186 263.27006573 -9.59765625 263.3828125 C-8.69466797 263.39248047 -7.79167969 263.40214844 -6.86132812 263.41210938 C-1.51704764 263.50111622 3.67555828 263.93439775 8.96484375 264.6953125 C9.33609375 263.86 9.33609375 263.86 9.71484375 263.0078125 C10.96484375 260.6953125 10.96484375 260.6953125 13.11938477 258.49462891 C15.29017551 255.80959689 15.29017551 255.80959689 14.77709961 252.51318359 C14.45652073 251.20050756 14.10874761 249.89433559 13.7421875 248.59375 C13.33413045 246.96851036 12.92645057 245.343176 12.51904297 243.71777344 C12.27498718 242.78074585 12.0309314 241.84371826 11.77947998 240.8782959 C10.85988323 237.28520602 9.99477228 233.68045749 9.14111328 230.07128906 C8.97848747 229.384175 8.81586166 228.69706095 8.6483078 227.98912525 C8.30671695 226.54542471 7.96522768 225.10170013 7.6238327 223.65795326 C6.71305126 219.81595168 5.79213243 215.97637926 4.87255859 212.13647461 C-5.8782303 167.19339003 -16.36295815 122.19419862 -24.84765625 76.7578125 C-25.01759094 75.8501413 -25.18752563 74.94247009 -25.36260986 74.0072937 C-25.82899087 71.49948929 -26.28767774 68.99044901 -26.7421875 66.48046875 C-26.87582199 65.75650909 -27.00945648 65.03254944 -27.1471405 64.28665161 C-27.78105514 60.71395181 -28.18083943 57.32506832 -28.03515625 53.6953125 C-28.62296875 53.42847656 -29.21078125 53.16164062 -29.81640625 52.88671875 C-35.61285637 49.77418832 -39.96290025 44.49911332 -42.375 38.421875 C-44.03073209 31.58340756 -44.73643622 22.91191506 -41.34765625 16.5078125 C-36.21778191 10.26877614 -30.30711153 7.29439833 -22.28515625 6.3828125 C-18.77668176 5.31077863 -17.30894443 2.48070302 -15.03515625 -0.3046875 C-10.24240454 -3.28396559 -4.69337381 -3.00880394 0 0 Z M-21.03515625 57.6953125 C-18.37427361 74.4295548 -15.29294422 91.04300038 -11.84765625 107.6328125 C-11.5979306 108.8404425 -11.34820496 110.04807251 -11.09091187 111.29229736 C-6.49210864 133.45790201 -1.48730589 155.52450703 3.65234375 177.5703125 C3.82731258 178.32195049 4.00228142 179.07358849 4.18255234 179.84800339 C9.53976625 202.85721621 15.1767184 225.79087907 20.96484375 248.6953125 C28.31013125 241.3788241 35.06539365 233.65908684 41.58984375 225.60546875 C44.13973384 222.48101461 46.73107919 219.39558446 49.33984375 216.3203125 C50.02965332 215.50687378 50.02965332 215.50687378 50.73339844 214.67700195 C52.61476358 212.46014633 54.49784947 210.24475542 56.38085938 208.02929688 C61.10003985 202.47463216 65.80559424 196.91471325 70.40234375 191.2578125 C74.35992563 186.39402225 78.43026821 181.63650019 82.52319336 176.88696289 C85.55429664 173.36232331 88.53469691 169.80491368 91.46484375 166.1953125 C94.89692699 161.96738387 98.41044215 157.82011173 101.96484375 153.6953125 C107.0645274 147.77416022 112.04221397 141.76479151 116.96484375 135.6953125 C118.65042122 133.63123317 120.33897966 131.56961538 122.02734375 129.5078125 C122.78144531 128.58613281 123.53554688 127.66445312 124.3125 126.71484375 C124.85777344 126.04839844 125.40304687 125.38195312 125.96484375 124.6953125 C123.44279376 122.16417404 120.91241114 119.64429063 118.3515625 117.15234375 C112.39483614 111.3163036 107.06349369 105.30922387 101.96484375 98.6953125 C88.01934581 80.85560004 73.91043505 66.48066005 50.40234375 63.4453125 C39.63614024 62.24398011 28.72025349 62.58305949 17.90405273 62.76855469 C4.42120944 62.95805989 -8.11012119 61.82672778 -21.03515625 57.6953125 Z M133.96484375 131.6953125 C125.61694379 141.36288891 125.61694379 141.36288891 117.46484375 151.1953125 C113.53105805 156.04128039 109.48036616 160.77629778 105.40625 165.50390625 C102.37526091 169.02849153 99.39491794 172.58580082 96.46484375 176.1953125 C92.53105805 181.04128039 88.48036616 185.77629778 84.40625 190.50390625 C81.37526091 194.02849153 78.39491794 197.58580082 75.46484375 201.1953125 C72.03276362 205.4232373 68.51933204 209.5705914 64.96484375 213.6953125 C60.64550103 218.70846023 56.41387098 223.78068765 52.2421875 228.91796875 C49.68279885 232.0392815 47.07869875 235.1196313 44.46484375 238.1953125 C40.87597319 242.42392728 37.30726881 246.66728716 33.77734375 250.9453125 C33.04128906 251.83734375 32.30523437 252.729375 31.546875 253.6484375 C29.86292151 255.39601717 29.86292151 255.39601717 29.96484375 256.6953125 C56.40160606 258.73905223 82.86044644 260.29393262 109.33815002 261.68833923 C111.80616221 261.81853568 114.27411864 261.94974709 116.74206543 262.08117676 C145.5862779 263.61349326 174.38389767 264.88062529 203.27734375 264.7578125 C205.40950412 264.75276962 207.54166568 264.74821181 209.67382812 264.74414062 C214.77086453 264.7333964 219.86783966 264.71629845 224.96484375 264.6953125 C224.55564697 263.518479 224.1464502 262.34164551 223.72485352 261.12915039 C220.8849416 252.86038437 218.21470565 244.80224907 216.90234375 236.1328125 C216.58904044 234.27964256 216.27385562 232.42678997 215.95703125 230.57421875 C215.7981543 229.62434082 215.63927734 228.67446289 215.47558594 227.69580078 C212.34583594 207.0500542 212.34583594 207.0500542 204.96484375 187.6953125 C204.56007813 186.86902344 204.1553125 186.04273438 203.73828125 185.19140625 C194.12663171 167.23279791 175.53664425 157.60972548 158.4765625 148.03320312 C152.765189 144.80375737 147.41828101 141.42588338 142.21875 137.4140625 C139.54838626 135.3777366 136.77191903 133.537077 133.96484375 131.6953125 Z M-24.03515625 275.6953125 C-24.03515625 276.0253125 -24.03515625 276.3553125 -24.03515625 276.6953125 C-20.45225025 276.84065005 -16.87010208 276.92939181 -13.28515625 277.0078125 C-11.76148438 277.0706543 -11.76148438 277.0706543 -10.20703125 277.13476562 C-4.17577397 277.39233958 -4.17577397 277.39233958 0.66796875 274.17578125 C1.0959375 273.35722656 1.52390625 272.53867187 1.96484375 271.6953125 C-0.27168758 269.45878117 -5.222946 270.36916048 -8.22265625 270.3203125 C-9.07408203 270.28292969 -9.92550781 270.24554688 -10.80273438 270.20703125 C-16.98643809 270.12094721 -19.77354554 271.16168408 -24.03515625 275.6953125 Z M8.31713867 280.86254883 C6.41290509 283.44335429 6.86088665 284.88730383 7.328125 288.01953125 C7.47314453 289.04755859 7.61816406 290.07558594 7.76757812 291.13476562 C7.93580078 292.20662109 8.10402344 293.27847656 8.27734375 294.3828125 C8.43396484 295.46626953 8.59058594 296.54972656 8.75195312 297.66601562 C9.14140983 300.3450057 9.546241 303.02074785 9.96484375 305.6953125 C13.24257879 304.94381227 13.24257879 304.94381227 14.96484375 301.6953125 C15.58583351 293.99503951 13.89433057 287.12613377 11.96484375 279.6953125 C9.90030144 279.50262775 9.90030144 279.50262775 8.31713867 280.86254883 Z M-21.34765625 283.1953125 C-22.18361328 283.24300781 -23.01957031 283.29070312 -23.88085938 283.33984375 C-25.9323641 283.45707259 -27.98377043 283.57602111 -30.03515625 283.6953125 C-30.69515625 285.0153125 -31.35515625 286.3353125 -32.03515625 287.6953125 C-28.24163605 287.44725066 -24.45104976 287.16802783 -20.66015625 286.8828125 C-19.57992187 286.81255859 -18.4996875 286.74230469 -17.38671875 286.66992188 C-16.35546875 286.58935547 -15.32421875 286.50878906 -14.26171875 286.42578125 C-12.83206787 286.32366333 -12.83206787 286.32366333 -11.37353516 286.21948242 C-8.67033037 285.89619317 -8.67033037 285.89619317 -7.03515625 282.6953125 C-11.81981187 282.61735477 -16.57369889 282.91648626 -21.34765625 283.1953125 Z M0.96484375 290.6953125 C-0.91967201 293.8552076 -1.21233531 295.82642729 -0.79296875 299.4609375 C-0.69628906 300.35039062 -0.59960938 301.23984375 -0.5 302.15625 C-0.38785156 303.07664062 -0.27570313 303.99703125 -0.16015625 304.9453125 C-0.05574219 305.88117188 0.04867187 306.81703125 0.15625 307.78125 C0.41510096 310.08737676 0.68497822 312.39165747 0.96484375 314.6953125 C2.28484375 314.0353125 3.60484375 313.3753125 4.96484375 312.6953125 C3.97484375 305.4353125 2.98484375 298.1753125 1.96484375 290.6953125 C1.63484375 290.6953125 1.30484375 290.6953125 0.96484375 290.6953125 Z M-24.36328125 293.1328125 C-25.56210938 293.26816406 -25.56210938 293.26816406 -26.78515625 293.40625 C-28.02265625 293.54933594 -28.02265625 293.54933594 -29.28515625 293.6953125 C-30.125625 293.79070312 -30.96609375 293.88609375 -31.83203125 293.984375 C-33.89996629 294.21936762 -35.96759256 294.45707471 -38.03515625 294.6953125 C-38.36515625 295.6853125 -38.69515625 296.6753125 -39.03515625 297.6953125 C-33.69662937 297.79953537 -28.36679294 297.74816637 -23.03515625 297.4453125 C-22.12765625 297.39890625 -21.22015625 297.3525 -20.28515625 297.3046875 C-17.85370392 296.91642173 -17.85370392 296.91642173 -16.72265625 294.6484375 C-16.49578125 294.00390625 -16.26890625 293.359375 -16.03515625 292.6953125 C-18.91651852 292.6953125 -21.52411974 292.8083369 -24.36328125 293.1328125 Z M-8.03515625 300.6953125 C-10.79934007 305.64013022 -9.85787708 310.1305502 -9.16015625 315.5078125 C-9.05574219 316.39146484 -8.95132813 317.27511719 -8.84375 318.18554688 C-8.58551126 320.35709992 -8.31567445 322.5265442 -8.03515625 324.6953125 C-7.04515625 324.3653125 -6.05515625 324.0353125 -5.03515625 323.6953125 C-4.68956338 312.63230675 -4.68956338 312.63230675 -6.03515625 301.6953125 C-6.69515625 301.3653125 -7.35515625 301.0353125 -8.03515625 300.6953125 Z M-36.8359375 303.6015625 C-41.22697468 303.65014936 -43.96527193 303.71257647 -47.2890625 306.765625 C-49.02977479 309.00920973 -50.58946085 311.25292607 -52.03515625 313.6953125 C-48.13220554 315.64678785 -43.14196495 313.14981805 -39.09765625 312.0703125 C-38.08251953 311.82152344 -37.06738281 311.57273437 -36.02148438 311.31640625 C-30.18510746 309.88312847 -30.18510746 309.88312847 -25.84375 305.984375 C-25.57691406 305.22898437 -25.31007813 304.47359375 -25.03515625 303.6953125 C-27.13255655 303.66092889 -29.23060934 303.63763711 -31.328125 303.6640625 C-33.16405837 303.68525654 -35.00090952 303.66298603 -36.8359375 303.6015625 Z M-18.5859375 313.140625 C-20.67836595 316.82916464 -20.85488447 320.39323482 -21.22265625 324.5703125 C-21.34543945 325.75560547 -21.34543945 325.75560547 -21.47070312 326.96484375 C-21.89236033 331.22393588 -22.12471174 335.41042686 -22.03515625 339.6953125 C-20.88889303 338.71664912 -19.74315837 337.73736663 -18.59765625 336.7578125 C-17.95957031 336.21253906 -17.32148438 335.66726563 -16.6640625 335.10546875 C-15.76524476 334.32735555 -14.87579097 333.53594722 -14.03515625 332.6953125 C-13.60138957 325.66574073 -14.18778437 318.67099887 -15.03515625 311.6953125 C-17.14461956 311.46804822 -17.14461956 311.46804822 -18.5859375 313.140625 Z " fill="#6E5590" transform="translate(160.03515625,57.3046875)"/>
<path d="M0 0 C47.4513577 41.94603256 74.96069871 101.59166092 80.02172852 164.55322266 C80.1687515 167.96379024 80.20783336 171.37022322 80.22485352 174.78369141 C80.23186783 175.72871521 80.23888214 176.67373901 80.24610901 177.6473999 C80.26351211 180.67855653 80.26996077 183.70951791 80.27172852 186.74072266 C80.27240326 187.77544708 80.273078 188.81017151 80.27377319 189.87625122 C80.25840623 204.68124801 79.89097169 218.98850731 77.02172852 233.55322266 C76.78824707 234.8704834 76.78824707 234.8704834 76.55004883 236.21435547 C68.87969224 279.37350762 49.91293915 320.93153496 20.13891602 353.24853516 C18.03230757 355.54170672 15.9966957 357.88613995 13.95922852 360.24072266 C10.25830635 364.39971574 6.28717662 367.98739832 2.02172852 371.55322266 C1.21864258 372.26736328 0.41555664 372.98150391 -0.41186523 373.71728516 C-24.22093367 394.45312632 -52.97058945 409.16714498 -82.97827148 418.55322266 C-83.91477539 418.84664551 -84.8512793 419.14006836 -85.81616211 419.44238281 C-105.97149105 425.61752676 -127.20888855 429.65765056 -148.32983398 429.75634766 C-149.30576508 429.76204773 -150.28169617 429.7677478 -151.28720093 429.77362061 C-153.3495782 429.7830222 -155.41197017 429.7895852 -157.47436523 429.79345703 C-160.54626805 429.80304474 -163.61746604 429.8340654 -166.68920898 429.86572266 C-230.37720106 430.2063412 -291.89294817 405.35253839 -337.16577148 360.67822266 C-343.56342944 354.25616944 -349.35848508 347.5540025 -354.72680664 340.25341797 C-355.97559589 338.55685762 -357.24714252 336.87926291 -358.52124023 335.20166016 C-365.28490267 326.16385012 -370.77614183 316.55716183 -375.97827148 306.55322266 C-376.39077148 305.77156738 -376.80327148 304.98991211 -377.22827148 304.18457031 C-395.86880004 268.49815217 -404.47252334 228.47661387 -404.29077148 188.36572266 C-404.28803726 187.0983728 -404.28803726 187.0983728 -404.2852478 185.80541992 C-404.23494953 171.87918704 -403.51741872 158.27542264 -400.97827148 144.55322266 C-400.80134766 143.59609375 -400.62442383 142.63896484 -400.44213867 141.65283203 C-392.81013152 101.71331273 -377.3610288 64.51024473 -351.97827148 32.55322266 C-351.19581055 31.56580078 -350.41334961 30.57837891 -349.60717773 29.56103516 C-337.79712249 14.99629428 -324.30662241 1.39670119 -308.97827148 -9.44677734 C-308.29829102 -9.92808105 -307.61831055 -10.40938477 -306.91772461 -10.90527344 C-222.87521563 -69.74635621 -100.91581318 -71.92824835 0 0 Z M-201.97827148 -45.44677734 C-202.83727051 -45.32850586 -203.69626953 -45.21023437 -204.58129883 -45.08837891 C-226.6005179 -41.90984701 -248.06382516 -35.37853446 -267.97827148 -25.44677734 C-268.70868652 -25.08438965 -269.43910156 -24.72200195 -270.19165039 -24.34863281 C-279.55031213 -19.65810006 -288.45345807 -14.54936791 -296.97827148 -8.44677734 C-297.9850293 -7.72619141 -298.99178711 -7.00560547 -300.02905273 -6.26318359 C-305.87351843 -1.97823225 -311.37093862 2.53824633 -316.69311523 7.45556641 C-318.68238568 9.28161466 -320.71678648 11.01312346 -322.79077148 12.74072266 C-352.46795424 38.78274849 -373.58224912 76.13006121 -384.97827148 113.55322266 C-385.24333496 114.41447754 -385.50839844 115.27573242 -385.78149414 116.16308594 C-390.09616536 130.41268425 -392.97536897 144.80457684 -394.97827148 159.55322266 C-395.08284668 160.30780762 -395.18742187 161.06239258 -395.29516602 161.83984375 C-396.31945818 170.40981596 -396.22206968 179.05950332 -396.22827148 187.67822266 C-396.22894623 188.52192413 -396.22962097 189.36562561 -396.23031616 190.2348938 C-396.21262379 204.20476062 -395.46358524 217.77940462 -392.97827148 231.55322266 C-392.74479004 232.91133057 -392.74479004 232.91133057 -392.5065918 234.296875 C-384.61887428 278.92309318 -364.52747437 320.90982776 -332.97827148 353.55322266 C-332.10686523 354.47619141 -331.23545898 355.39916016 -330.33764648 356.35009766 C-307.33291993 380.1620076 -277.14082914 397.02525021 -245.97827148 407.55322266 C-245.1685791 407.82859863 -244.35888672 408.10397461 -243.5246582 408.38769531 C-224.62018703 414.70187242 -204.81934151 418.70052774 -184.97827148 420.55322266 C-183.80135742 420.66408203 -182.62444336 420.77494141 -181.41186523 420.88916016 C-122.3602419 425.60309773 -57.56108428 411.79967199 -11.46850586 372.83496094 C-8.33716752 370.14172269 -5.2538942 367.40273262 -2.21655273 364.60400391 C-0.11530529 362.67877719 2.03492157 360.83243963 4.20922852 358.99072266 C8.21846141 355.47566956 11.63159644 351.66187984 15.02172852 347.55322266 C15.65570557 346.80371338 15.65570557 346.80371338 16.30249023 346.0390625 C35.27710197 323.5640873 49.6167213 297.39182892 59.02172852 269.55322266 C59.29710449 268.74353027 59.57248047 267.93383789 59.85620117 267.09960938 C63.17437373 257.16509274 65.68166913 247.12672239 67.77172852 236.86572266 C67.97048584 235.89344727 68.16924316 234.92117188 68.37402344 233.91943359 C71.37436129 218.4303341 72.40255673 203.23653833 72.33422852 187.49072266 C72.33207336 186.59214539 72.32991821 185.69356812 72.32769775 184.76776123 C72.27300903 170.5136048 71.69072236 156.59041758 69.02172852 142.55322266 C68.81773437 141.47476074 68.61374023 140.39629883 68.40356445 139.28515625 C59.67267363 94.53139785 40.72200586 53.65443723 9.02172852 20.55322266 C8.55009277 20.05435547 8.07845703 19.55548828 7.5925293 19.04150391 C-34.02241458 -24.81413623 -95.53442242 -45.26400373 -154.84790039 -47.59912109 C-170.62902916 -47.99429146 -186.33371405 -47.63597872 -201.97827148 -45.44677734 Z " fill="#6D5490" transform="translate(403.978271484375,55.44677734375)"/>
<path d="M0 0 C0.8669751 0.60134766 0.8669751 0.60134766 1.75146484 1.21484375 C11.34346676 7.60830356 21.6989141 12.29163536 32.1171875 17.16601562 C51.66832163 26.34024655 51.66832163 26.34024655 57 32 C57.33 32.99 57.66 33.98 58 35 C56.234375 37.55859375 56.234375 37.55859375 53.75 40.4375 C49.74979463 45.11907446 49.74979463 45.11907446 46 50 C42.40977877 48.69945262 39.59305843 47.14140756 36.53125 44.87109375 C29.8889043 40.11689632 22.82188858 36.11043702 15.74072266 32.05493164 C7.96746016 27.5921823 0.88054521 22.75534927 -6 17 C-7.32667636 15.99118505 -8.65787265 14.98816596 -10 14 C-9.23919536 8.07955666 -3.88464046 4.15820669 0 0 Z " fill="#FCFCFD" transform="translate(309,171)"/>
<path d="M0 0 C11.7712072 3.21032924 19.59686716 19.13818433 26.1640625 28.5078125 C26.6897583 29.25691895 27.2154541 30.00602539 27.75708008 30.77783203 C28.76372176 32.21598187 29.76643322 33.65689411 30.7644043 35.10107422 C36.48498578 43.42328152 36.48498578 43.42328152 44 50 C42.43632643 53.52238047 40.30504111 56.27123994 37.875 59.25 C37.15054688 60.14203125 36.42609375 61.0340625 35.6796875 61.953125 C35.12539063 62.62859375 34.57109375 63.3040625 34 64 C24.87241386 58.38302392 17.97034114 51.08558221 11.36621094 42.72070312 C0.37617067 28.73371578 0.37617067 28.73371578 -12 16 C-10.37921571 12.27131047 -8.02767716 9.42653322 -5.4375 6.3125 C-4.63183594 5.33925781 -3.82617188 4.36601563 -2.99609375 3.36328125 C-1 1 -1 1 0 0 Z " fill="#FCFBFD" transform="translate(257,113)"/>
<path d="M0 0 C1.86900929 3.21376692 2.34188761 5.82344619 2.59765625 9.515625 C2.71536377 11.13343872 2.71536377 11.13343872 2.83544922 12.78393555 C2.91037598 13.92773682 2.98530273 15.07153809 3.0625 16.25 C3.14773926 17.42280518 3.23297852 18.59561035 3.32080078 19.80395508 C3.67683983 24.78267065 4.00920319 29.75839513 4.20703125 34.74609375 C4.81572637 49.02919551 6.85952395 61.42746414 17.6875 71.5 C22.47907107 73.66976803 26.82397115 73.794532 32 73 C35.40277812 71.20566347 35.40277812 71.20566347 38 69 C40.375 68.25 40.375 68.25 42 68 C42.31986304 71.99828799 42.22229924 74.52761413 40.5 78.1875 C36.50447473 82.68246593 32.92823815 84.59984485 26.94140625 85.41796875 C18.24840296 85.79681577 12.14646381 83.93212965 5.26171875 78.671875 C-10.33303329 63.35919858 -10.82092844 29.12603062 -14 9 C-12.56428714 8.03833794 -11.12797298 7.07757356 -9.69140625 6.1171875 C-8.89162354 5.58206543 -8.09184082 5.04694336 -7.26782227 4.49560547 C-4.88548187 2.92447647 -2.46791525 1.43298305 0 0 Z " fill="#FBFAFC" transform="translate(389,246)"/>
<path d="M0 0 C0.99 0.33 1.98 0.66 3 1 C2.51273438 1.55945313 2.02546875 2.11890625 1.5234375 2.6953125 C-1.03656415 6.56813551 -0.51185625 10.51414873 0 15 C1.69069751 19.9781649 4.53496351 23.26769166 9 26 C15.17980948 28.73192327 21.04450362 29.54519713 27.75 29.5 C29.13566162 29.4990332 29.13566162 29.4990332 30.54931641 29.49804688 C40.22400333 29.30109052 49.61891175 27.61349754 59.10058594 25.77929688 C65.18808713 24.60301671 70.79651019 23.6921345 77 24 C75 30 73 36 71 42 C63.38657367 41.93257486 55.7736438 41.84260534 48.16064453 41.73754883 C45.57509274 41.70445867 42.98947148 41.67637816 40.40380859 41.65356445 C36.66994845 41.619725 32.93671597 41.56739434 29.203125 41.51171875 C28.06200256 41.50532883 26.92088013 41.4989389 25.74517822 41.49235535 C13.49399955 41.27194627 1.59401601 39.07583609 -7.66015625 30.453125 C-10.75560756 26.95156492 -12.96071558 23.64187733 -13.03125 18.8984375 C-12.61086342 12.61365812 -10.85623211 8.55678843 -6.0625 4.265625 C-2.16727221 1.14371449 -2.16727221 1.14371449 0 0 Z " fill="#FBFAFC" transform="translate(137,72)"/>
<path d="M0 0 C2.475 0.495 2.475 0.495 5 1 C5.33 4.63 5.66 8.26 6 12 C6.721875 10.865625 7.44375 9.73125 8.1875 8.5625 C10.07087059 5.89349483 10.6227949 5.12573503 13.8125 4.0625 C14.8953125 4.0315625 14.8953125 4.0315625 16 4 C16.875 6 16.875 6 17 9 C15.24061204 11.92870426 13.1946405 14.35747369 11 17 C17.93 17.495 17.93 17.495 25 18 C25 19.65 25 21.3 25 23 C23.05909174 24.94090826 19.52706098 24.39919435 16.9375 24.5625 C15.64714844 24.64628906 14.35679688 24.73007812 13.02734375 24.81640625 C12.02832031 24.87699219 11.02929688 24.93757813 10 25 C10.73347656 25.67546875 11.46695313 26.3509375 12.22265625 27.046875 C13.15980469 27.93890625 14.09695312 28.8309375 15.0625 29.75 C16.00222656 30.63171875 16.94195312 31.5134375 17.91015625 32.421875 C20 35 20 35 19.99609375 37.265625 C19 39 19 39 16 40 C13.9921875 38.6015625 13.9921875 38.6015625 11.875 36.625 C11.17117187 35.97789062 10.46734375 35.33078125 9.7421875 34.6640625 C8.82062587 33.7838265 7.90113574 32.90113574 7 32 C6.90912109 33.28197266 6.90912109 33.28197266 6.81640625 34.58984375 C6.73261719 35.69457031 6.64882812 36.79929687 6.5625 37.9375 C6.48128906 39.03964844 6.40007812 40.14179688 6.31640625 41.27734375 C6 44 6 44 5 45 C3.35 45 1.7 45 0 45 C-0.495 38.565 -0.495 38.565 -1 32 C-2.0725 33.299375 -3.145 34.59875 -4.25 35.9375 C-7.39516129 39.74798387 -7.39516129 39.74798387 -10.109375 40.87890625 C-11.04523438 40.93884766 -11.04523438 40.93884766 -12 41 C-12.66 40.34 -13.32 39.68 -14 39 C-13.74329274 35.12454844 -11.48940667 33.00443895 -8.9375 30.25 C-8.20402344 29.45078125 -7.47054687 28.6515625 -6.71484375 27.828125 C-6.14894531 27.22484375 -5.58304688 26.6215625 -5 26 C-5.83144531 25.95101563 -6.66289063 25.90203125 -7.51953125 25.8515625 C-9.14955078 25.73941406 -9.14955078 25.73941406 -10.8125 25.625 C-11.89144531 25.55539062 -12.97039062 25.48578125 -14.08203125 25.4140625 C-17 25 -17 25 -20 23 C-19.6875 21.0625 -19.6875 21.0625 -19 19 C-15.98509443 17.99503148 -13.95818308 17.89664697 -10.8125 17.9375 C-9.91144531 17.94652344 -9.01039062 17.95554687 -8.08203125 17.96484375 C-7.39496094 17.97644531 -6.70789063 17.98804688 -6 18 C-6.58910156 17.39671875 -7.17820312 16.7934375 -7.78515625 16.171875 C-8.91244141 14.97304688 -8.91244141 14.97304688 -10.0625 13.75 C-10.81660156 12.96109375 -11.57070312 12.1721875 -12.34765625 11.359375 C-14 9 -14 9 -13.74609375 6.703125 C-13.49988281 6.14109375 -13.25367187 5.5790625 -13 5 C-10.875 4.5625 -10.875 4.5625 -8 5 C-5.723853 7.12689146 -3.8541278 9.5023433 -2 12 C-1.90912109 10.82630859 -1.90912109 10.82630859 -1.81640625 9.62890625 C-1.73261719 8.61699219 -1.64882812 7.60507812 -1.5625 6.5625 C-1.48128906 5.55316406 -1.40007812 4.54382813 -1.31640625 3.50390625 C-1 1 -1 1 0 0 Z " fill="#A191B8" transform="translate(82,258)"/>
<path d="M0 0 C1.67542976 0.28604898 3.34385343 0.61781233 5 1 C5.66 3.31 6.32 5.62 7 8 C7.391875 7.34 7.78375 6.68 8.1875 6 C10 4 10 4 12.6875 3.75 C13.450625 3.8325 14.21375 3.915 15 4 C15.8125 5.625 15.8125 5.625 16 8 C14.53181864 10.24609835 12.84147142 12.02378677 11 14 C16.445 14.495 16.445 14.495 22 15 C22 16.98 22 18.96 22 21 C18.04 21.33 14.08 21.66 10 22 C12.0109375 23.85625 12.0109375 23.85625 14.0625 25.75 C16.34765625 27.859375 16.34765625 27.859375 18 30 C17.74609375 32.265625 17.74609375 32.265625 17 34 C14.8125 34.3125 14.8125 34.3125 12 34 C9.1875 31.5 9.1875 31.5 7 29 C6.90912109 29.95712891 6.90912109 29.95712891 6.81640625 30.93359375 C6.73261719 31.75988281 6.64882813 32.58617187 6.5625 33.4375 C6.48128906 34.26121094 6.40007812 35.08492188 6.31640625 35.93359375 C6 38 6 38 5 39 C3.35 39 1.7 39 0 39 C-0.495 34.05 -0.495 34.05 -1 29 C-1.721875 29.99 -2.44375 30.98 -3.1875 32 C-5.6095123 34.94793497 -5.6095123 34.94793497 -8.8125 35.375 C-9.8953125 35.189375 -9.8953125 35.189375 -11 35 C-11.71484375 33.265625 -11.71484375 33.265625 -12 31 C-10.56640625 28.859375 -10.56640625 28.859375 -8.5625 26.75 C-7.90378906 26.04359375 -7.24507813 25.3371875 -6.56640625 24.609375 C-6.04949219 24.07828125 -5.53257812 23.5471875 -5 23 C-5.61488281 22.96261719 -6.22976563 22.92523438 -6.86328125 22.88671875 C-7.67152344 22.82097656 -8.47976563 22.75523437 -9.3125 22.6875 C-10.11300781 22.62949219 -10.91351563 22.57148438 -11.73828125 22.51171875 C-14.36272334 21.91793306 -15.30820672 21.04219706 -17 19 C-16.34 17.68 -15.68 16.36 -15 15 C-12.03 15 -9.06 15 -6 15 C-7.010625 13.9275 -8.02125 12.855 -9.0625 11.75 C-10.78515625 9.921875 -10.78515625 9.921875 -12 8 C-11.68359375 5.765625 -11.68359375 5.765625 -11 4 C-8.8125 3.625 -8.8125 3.625 -6 4 C-4.00977164 5.83961648 -2.61010101 7.79186148 -1 10 C-1.01160156 9.36191406 -1.02320313 8.72382813 -1.03515625 8.06640625 C-1.04417969 7.24011719 -1.05320312 6.41382813 -1.0625 5.5625 C-1.07410156 4.73878906 -1.08570313 3.91507812 -1.09765625 3.06640625 C-1 1 -1 1 0 0 Z " fill="#A191B8" transform="translate(367,353)"/>
<path d="M0 0 C1.65 0 3.3 0 5 0 C5.66 1.98 6.32 3.96 7 6 C7.391875 5.484375 7.78375 4.96875 8.1875 4.4375 C8.785625 3.963125 9.38375 3.48875 10 3 C12.6875 3.3125 12.6875 3.3125 15 4 C14.44271087 7.34373475 13.64826111 10.03312999 12 13 C13.299375 12.979375 14.59875 12.95875 15.9375 12.9375 C17.29165633 12.91600546 18.64756083 12.92851801 20 13 C21 14 21 14 21 19 C17.7 19.66 14.4 20.32 11 21 C12.98 22.65 14.96 24.3 17 26 C16.67 27.65 16.34 29.3 16 31 C13.75 31.25 13.75 31.25 11 31 C8.6875 29 8.6875 29 7 27 C6.67 29.64 6.34 32.28 6 35 C4.34385343 35.38218767 2.67542976 35.71395102 1 36 C-0.96822886 34.03177114 -0.66248381 30.65191291 -1 28 C-1.8353125 29.0209375 -1.8353125 29.0209375 -2.6875 30.0625 C-3.450625 30.701875 -4.21375 31.34125 -5 32 C-7.75 31.75 -7.75 31.75 -10 31 C-9.55530671 25.96014269 -7.28656638 23.62365012 -4 20 C-4.62648438 20.02320312 -5.25296875 20.04640625 -5.8984375 20.0703125 C-7.12433594 20.09738281 -7.12433594 20.09738281 -8.375 20.125 C-9.59316406 20.15980469 -9.59316406 20.15980469 -10.8359375 20.1953125 C-13 20 -13 20 -15 18 C-14.67 16.68 -14.34 15.36 -14 14 C-11.03 14 -8.06 14 -5 14 C-5.825 13.0925 -6.65 12.185 -7.5 11.25 C-10.03294997 8.46375503 -10 8.12741739 -10 4 C-8.3125 3.25 -8.3125 3.25 -6 3 C-3.25 4.9375 -3.25 4.9375 -1 7 C-0.67 4.69 -0.34 2.38 0 0 Z " fill="#A191B8" transform="translate(319,51)"/>
<path d="M0 0 C3.70342384 2.11624219 5.37272301 4.1299108 7 8 C7.58909226 12.27665678 7.48792817 15.93120496 5.6875 19.875 C1.81161661 24.75574205 1.81161661 24.75574205 -1.05078125 25.6171875 C-6.27801276 26.21303772 -9.45673699 26.02884201 -14 23 C-16.83039171 20.65760686 -17.80672915 18.66339664 -18.23828125 14.94921875 C-18.4194823 9.42735507 -17.72103642 6.35892838 -14 2 C-9.54422653 -0.97051564 -5.22557394 -0.62737491 0 0 Z " fill="#E4E0EA" transform="translate(234,44)"/>
<path d="M0 0 C3.70342384 2.11624219 5.37272301 4.1299108 7 8 C7.58560454 12.25133689 7.46696273 15.92598573 5.75 19.875 C2.6867406 23.59467212 0.93487494 24.78889921 -3.875 25.875 C-8.79766758 26.33334894 -12.04442525 24.61840669 -15.8125 21.5 C-18.46003314 18.15574761 -18.32880603 14.35615046 -18.2890625 10.2890625 C-17.84466358 6.76990349 -16.26573627 4.6541482 -14 2 C-9.54422653 -0.97051564 -5.22557394 -0.62737491 0 0 Z " fill="#E4E0EA" transform="translate(272,269)"/>
<path d="M0 0 C2.75569447 2.18159145 4.43588747 3.87177494 6 7 C6.04079849 11.22672392 5.69610539 14.88623137 3.4375 18.5 C0.04188828 20.58960721 -3.02098759 21.22149572 -7 21 C-9.97160035 19.64339984 -11.70283441 18.29716559 -14 16 C-14.99593573 11.40337357 -15.39188911 9.05810061 -13.75 4.625 C-10.23198305 -0.65202542 -5.88617135 -1.04298826 0 0 Z " fill="#D5CEDF" transform="translate(298,414)"/>
<path d="M0 0 C2.75569447 2.18159145 4.43588747 3.87177494 6 7 C6.04079849 11.22672392 5.69610539 14.88623137 3.4375 18.5 C0.04188828 20.58960721 -3.02098759 21.22149572 -7 21 C-9.97160035 19.64339984 -11.70283441 18.29716559 -14 16 C-14.99593573 11.40337357 -15.39188911 9.05810061 -13.75 4.625 C-10.23198305 -0.65202542 -5.88617135 -1.04298826 0 0 Z " fill="#D5CEDF" transform="translate(98,119)"/>
<path d="M0 0 C5.57894737 3.15789474 5.57894737 3.15789474 7 6 C7.16796875 8.0234375 7.16796875 8.0234375 7.1875 10.375 C7.20167969 11.14585937 7.21585937 11.91671875 7.23046875 12.7109375 C6.97105568 15.28748088 6.39340154 16.82425673 5 19 C0.75758844 21.82827437 -3.02303157 21.8876122 -8 21 C-10.8367179 19.29294852 -11.34742379 18.08480892 -13 15 C-13.78458423 11.05400286 -13.36645633 7.84284955 -11.75 4.125 C-8.39342865 0.04916336 -5.20351012 -0.62442121 0 0 Z " fill="#D5CEDF" transform="translate(314,224)"/>
<path d="M0 0 C0.66 0.33 1.32 0.66 2 1 C3.72678334 6.56407966 4.25182442 12.20803845 4 18 C5.2375 17.979375 6.475 17.95875 7.75 17.9375 C10.6640825 17.93233319 13.20953327 18.06984442 16 19 C16 19.66 16 20.32 16 21 C14.54293274 21.50367757 13.08429904 22.00282556 11.625 22.5 C10.81289062 22.7784375 10.00078125 23.056875 9.1640625 23.34375 C7 24 7 24 5 24 C4.92652344 25.19496094 4.92652344 25.19496094 4.8515625 26.4140625 C4.10896309 36.93848858 4.10896309 36.93848858 2 42 C-0.05636087 38.91545869 -0.51134354 37.15190326 -1.125 33.5625 C-1.29257813 32.61503906 -1.46015625 31.66757812 -1.6328125 30.69140625 C-2 28 -2 28 -2 24 C-5.96 23.01 -9.92 22.02 -14 21 C-13.67 20.34 -13.34 19.68 -13 19 C-10.49609375 18.5859375 -10.49609375 18.5859375 -7.4375 18.375 C-6.42558594 18.30023438 -5.41367188 18.22546875 -4.37109375 18.1484375 C-3.58863281 18.09945313 -2.80617187 18.05046875 -2 18 C-1.93941406 17.03578125 -1.87882813 16.0715625 -1.81640625 15.078125 C-1.73261719 13.81484375 -1.64882812 12.5515625 -1.5625 11.25 C-1.48128906 9.99703125 -1.40007812 8.7440625 -1.31640625 7.453125 C-1.07484478 4.81682447 -0.75716066 2.51962706 0 0 Z " fill="#B9ADCA" transform="translate(200,396)"/>
<path d="M0 0 C1.63572653 2.96904984 2.48650988 5.67579747 3.125 9 C3.29257812 9.845625 3.46015625 10.69125 3.6328125 11.5625 C4 14 4 14 4 18 C5.051875 17.95875 6.10375 17.9175 7.1875 17.875 C10.74010173 17.99147875 12.84866641 18.47208068 16 20 C13.6870518 22.3129482 12.52095125 22.49580975 9.375 23.125 C8.55773437 23.29257813 7.74046875 23.46015625 6.8984375 23.6328125 C6.27195312 23.75398438 5.64546875 23.87515625 5 24 C4.87882812 25.04800781 4.75765625 26.09601563 4.6328125 27.17578125 C4.46396055 28.55473886 4.29466659 29.93364239 4.125 31.3125 C4.00705078 32.34793945 4.00705078 32.34793945 3.88671875 33.40429688 C3.44056153 36.95639471 3.02019807 38.9697029 1 42 C-1.26475565 36.17634262 -2.06548814 30.1439184 -3 24 C-6.3 23.34 -9.6 22.68 -13 22 C-13 21.01 -13 20.02 -13 19 C-9.37 18.67 -5.74 18.34 -2 18 C-2.020625 16.494375 -2.04125 14.98875 -2.0625 13.4375 C-2.0625 2.0625 -2.0625 2.0625 0 0 Z " fill="#B9ADCA" transform="translate(59,181)"/>
<path d="M0 0 C1.37577361 0.11617644 2.75061045 0.24345777 4.125 0.375 C4.89070312 0.44460937 5.65640625 0.51421875 6.4453125 0.5859375 C9.43548102 1.07058255 12.15098869 1.98426553 15 3 C13.71024828 5.43853057 12.41828475 7.87584412 11.125 10.3125 C10.76019531 11.00279297 10.39539063 11.69308594 10.01953125 12.40429688 C9.66503906 13.07138672 9.31054688 13.73847656 8.9453125 14.42578125 C8.45828857 15.34484253 8.45828857 15.34484253 7.96142578 16.2824707 C7.05452942 17.90258648 6.0298971 19.45515434 5 21 C1.04 20.01 -2.92 19.02 -7 18 C-2.85714286 5.14285714 -2.85714286 5.14285714 0 0 Z " fill="#FAF9FB" transform="translate(220,97)"/>
<path d="M0 0 C0.66 0 1.32 0 2 0 C3.76171875 1.828125 3.76171875 1.828125 5.6875 4.25 C6.33074219 5.03890625 6.97398437 5.8278125 7.63671875 6.640625 C9 9 9 9 9.0703125 10.96484375 C7.42379341 14.09563369 4.87686733 16.10575821 2.1875 18.3125 C1.65318359 18.77978516 1.11886719 19.24707031 0.56835938 19.72851562 C-3.37596092 23.01302342 -3.37596092 23.01302342 -6.24609375 22.953125 C-8.87268663 21.52575604 -10.27936577 19.39659768 -12 17 C-10.59132499 12.71239355 -8.51792965 10.08082102 -5.4375 6.8125 C-2.35814202 3.65811063 -2.35814202 3.65811063 0 0 Z " fill="#FAF9FB" transform="translate(371,209)"/>
<path d="M0 0 C0.66 0 1.32 0 2 0 C2.70365602 1.5552912 3.38729378 3.11964827 4.0625 4.6875 C4.44535156 5.55761719 4.82820313 6.42773438 5.22265625 7.32421875 C6.1499175 10.51604768 6.30025747 11.92666416 5 15 C2.80264903 16.67208779 0.82385114 17.98730816 -1.5625 19.3125 C-2.17802734 19.67150391 -2.79355469 20.03050781 -3.42773438 20.40039062 C-4.94339357 21.28158783 -6.47064376 22.14279477 -8 23 C-14 15.23529412 -14 15.23529412 -14 11 C-12.07191478 9.4197956 -10.14787173 7.94887609 -8.125 6.5 C-3.88743771 3.46302235 -3.88743771 3.46302235 0 0 Z " fill="#FAF9FB" transform="translate(382,226)"/>
<path d="M0 0 C4.23429756 1.31061591 8.07407404 2.94356259 12 5 C11.41246271 8.0750708 10.54526011 9.87901137 8.49609375 12.234375 C8.00302734 12.80800781 7.50996094 13.38164063 7.00195312 13.97265625 C6.48568359 14.55917969 5.96941406 15.14570312 5.4375 15.75 C4.91736328 16.35199219 4.39722656 16.95398438 3.86132812 17.57421875 C2.58043726 19.05488159 1.29103688 20.52817542 0 22 C-4.455 20.02 -4.455 20.02 -9 18 C-7.41579353 12.13843607 -4.37339097 4.37339097 0 0 Z " fill="#FBFAFC" transform="translate(240,103)"/>
<path d="M0 0 C0.66 0 1.32 0 2 0 C3.26305335 5.07476794 4.27036084 9.72796354 4 15 C5.918125 14.9690625 5.918125 14.9690625 7.875 14.9375 C11.75 14.875 11.75 14.875 14 16 C14 16.66 14 17.32 14 18 C11.03 18.66 8.06 19.32 5 20 C4.93941406 20.66386719 4.87882812 21.32773438 4.81640625 22.01171875 C3.98418278 30.78207381 3.98418278 30.78207381 3 35 C2.34 35 1.68 35 1 35 C0.88785156 34.02417969 0.77570313 33.04835937 0.66015625 32.04296875 C0.0577192 28.15665913 -0.59629103 24.67823739 -2 21 C-4.86741469 18.92061594 -7.50051188 18.30813103 -11 18 C-11 17.34 -11 16.68 -11 16 C-7.7 15.67 -4.4 15.34 -1 15 C-1.020625 13.63875 -1.04125 12.2775 -1.0625 10.875 C-1.0683928 7.14485838 -0.75187259 3.66537886 0 0 Z " fill="#B9ADCA" transform="translate(409,142)"/>
<path d="M0 0 C2.72106694 2.72106694 2.60655572 4.84776311 3.125 8.625 C3.29257813 9.81351563 3.46015625 11.00203125 3.6328125 12.2265625 C3.75398437 13.14179688 3.87515625 14.05703125 4 15 C5.918125 14.938125 5.918125 14.938125 7.875 14.875 C10.0546875 14.8046875 10.0546875 14.8046875 12 15 C12.66 15.66 13.32 16.32 14 17 C12.70990357 17.50403768 11.41786211 18.00309926 10.125 18.5 C9.40570313 18.7784375 8.68640625 19.056875 7.9453125 19.34375 C6 20 6 20 4 20 C3.95101562 20.83144531 3.90203125 21.66289062 3.8515625 22.51953125 C3.77679688 23.60621094 3.70203125 24.69289062 3.625 25.8125 C3.55539063 26.89144531 3.48578125 27.97039062 3.4140625 29.08203125 C3 32 3 32 1 35 C0.49363393 33.25183142 -0.00484619 31.50137737 -0.5 29.75 C-0.7784375 28.77546875 -1.056875 27.8009375 -1.34375 26.796875 C-2 24 -2 24 -2 20 C-2.63808594 19.87882812 -3.27617187 19.75765625 -3.93359375 19.6328125 C-4.75988281 19.46523437 -5.58617187 19.29765625 -6.4375 19.125 C-7.26121094 18.96257812 -8.08492187 18.80015625 -8.93359375 18.6328125 C-9.61550781 18.42398438 -10.29742187 18.21515625 -11 18 C-11.33 17.34 -11.66 16.68 -12 16 C-8.52674819 14.8422494 -5.63932552 14.93133348 -2 15 C-1.93941406 14.08476562 -1.87882813 13.16953125 -1.81640625 12.2265625 C-1.73261719 11.03804687 -1.64882812 9.84953125 -1.5625 8.625 C-1.48128906 7.44164062 -1.40007812 6.25828125 -1.31640625 5.0390625 C-1 2 -1 2 0 0 Z " fill="#B9ADCA" transform="translate(202,212)"/>
<path d="M0 0 C2.09765625 0.375 2.09765625 0.375 4.16015625 1.875 C5.50468344 5.46040584 5.90697262 8.60589803 5.09765625 12.375 C3.03515625 14.9375 3.03515625 14.9375 0.09765625 16.375 C-3.36993317 16.31521398 -5.79061124 15.98465977 -8.83984375 14.3125 C-10.59293587 11.11568496 -10.38901507 7.88044411 -9.90234375 4.375 C-8.09470237 -0.44537702 -4.62330627 -0.24056228 0 0 Z " fill="#D5CEDF" transform="translate(240.90234375,353.625)"/>
<path d="M0 0 C2.1621789 1.57607574 2.88866524 2.49621021 3.46875 5.12109375 C3.52426701 9.23629217 3.54853806 11.30186066 0.9375 14.625 C-2.90996265 16.42593997 -4.95594856 16.19823746 -9 15 C-11.81972931 12.63506574 -11.97850831 11.1719335 -12.4375 7.5 C-12 4 -12 4 -10.5 1.5625 C-6.75107996 -0.78057502 -4.38964238 -0.48773804 0 0 Z " fill="#D5CEDF" transform="translate(190,154)"/>
<path d="M0 0 C3.5625 0.5 3.5625 0.5 6.0625 2.0625 C7.5625 4.5 7.5625 4.5 7.5625 8.0625 C6.5625 11.5 6.5625 11.5 4.8125 13.4375 C2.06758782 14.73370853 0.56175788 15.02487013 -2.4375 14.5 C-4.75 12.875 -4.75 12.875 -6.4375 10.5 C-6.92496608 7.15737548 -6.75315201 5.20557508 -5.375 2.125 C-3.4375 0.5 -3.4375 0.5 0 0 Z " fill="#F8F7FA" transform="translate(152.4375,61.5)"/>
<path d="M0 0 C2 2 2 2 2.3125 5.9375 C2.23081662 8.43791894 2.12109418 9.77205801 0.9375 12 C-2.13215135 13.58433618 -4.61681143 13.36248449 -8 13 C-9.9375 12 -9.9375 12 -11 10 C-11.46000079 7.23999526 -11.50420748 4.75595226 -11 2 C-7.93817059 -2.04161482 -4.56939437 -1.10003939 0 0 Z " fill="#D5CEDF" transform="translate(73,338)"/>
<path d="M0 0 C2 2 2 2 2.3125 5.9375 C2.23081662 8.43791894 2.12109418 9.77205801 0.9375 12 C-2.13215135 13.58433618 -4.61681143 13.36248449 -8 13 C-9.9375 12 -9.9375 12 -11 10 C-11.46000079 7.23999526 -11.50420748 4.75595226 -11 2 C-7.93817059 -2.04161482 -4.56939437 -1.10003939 0 0 Z " fill="#D5CEDF" transform="translate(433,233)"/>
<path d="M0 0 C2 1.5625 2 1.5625 3 4 C2.93375803 7.77579201 2.78061285 10.07482922 0.3125 13 C-2.89970645 14.38906225 -4.6936636 14.05521374 -8 13 C-9.9375 11.3125 -9.9375 11.3125 -11 9 C-10.87304813 5.88967921 -10.47953174 3.79921957 -8.875 1.125 C-5.84140473 -0.69515716 -3.44035486 -0.43004436 0 0 Z " fill="#FAF9FB" transform="translate(433,294)"/>
<path d="M0 0 C3.4375 0.8125 3.4375 0.8125 5.4375 3.8125 C4.98466981 10.26533019 4.98466981 10.26533019 2.4375 12.8125 C-3.70481015 13.4825702 -3.70481015 13.4825702 -6.5625 11.25 C-7.99385511 7.76107191 -7.496466 5.41494028 -6.5625 1.8125 C-3.5625 -0.1875 -3.5625 -0.1875 0 0 Z " fill="#E9E6EE" transform="translate(244.5625,175.1875)"/>
<path d="M0 0 C1.875 -0.36328125 1.875 -0.36328125 4 -0.3125 C4.70125 -0.30863281 5.4025 -0.30476563 6.125 -0.30078125 C8 0 8 0 10 2 C10.67973856 9.1372549 10.67973856 9.1372549 8.375 12.0625 C5.19296594 13.31856608 3.25787048 12.92070253 0 12 C-2 10 -2 10 -2.25 6.5625 C-2 3 -2 3 0 0 Z " fill="#E9E6EE" transform="translate(307,368)"/>
<path d="M0 0 C1.875 1.0625 1.875 1.0625 3 3 C3.63316583 8.90954774 3.63316583 8.90954774 1.875 11.9375 C-0.88980433 13.50422245 -2.88188517 13.38976435 -6 13 C-7.875 11.9375 -7.875 11.9375 -9 10 C-9.63316583 4.09045226 -9.63316583 4.09045226 -7.875 1.0625 C-5.11019567 -0.50422245 -3.11811483 -0.38976435 0 0 Z " fill="#E9E6EE" transform="translate(336,286)"/>
<path d="M0 0 C1.875 1.0625 1.875 1.0625 3 3 C3.63316583 8.90954774 3.63316583 8.90954774 1.875 11.9375 C-0.88980433 13.50422245 -2.88188517 13.38976435 -6 13 C-7.875 11.9375 -7.875 11.9375 -9 10 C-9.63316583 4.09045226 -9.63316583 4.09045226 -7.875 1.0625 C-5.11019567 -0.50422245 -3.11811483 -0.38976435 0 0 Z " fill="#E9E6EE" transform="translate(119,200)"/>
<path d="M0 0 C2.31 0 4.62 0 7 0 C8.32841008 5.43440487 8.32841008 5.43440487 6.875 7.9375 C5 9 5 9 2.375 8.75 C0 8 0 8 -1 7 C-0.71269945 4.66055264 -0.38063221 2.3260857 0 0 Z " fill="#8A76A6" transform="translate(438,125)"/>
<path d="M0 0 C2.875 -0.125 2.875 -0.125 6 0 C8 2 8 2 8.3125 4.5 C8.1578125 5.7375 8.1578125 5.7375 8 7 C5 9 5 9 1.8125 8.625 C0.4203125 8.315625 0.4203125 8.315625 -1 8 C-1.125 2.25 -1.125 2.25 0 0 Z " fill="#8A76A6" transform="translate(103,52)"/>
<path d="M0 0 C2.31 0.33 4.62 0.66 7 1 C7.33 2.98 7.66 4.96 8 7 C5 9 5 9 1.8125 8.625 C0.4203125 8.315625 0.4203125 8.315625 -1 8 C-1.125 2.25 -1.125 2.25 0 0 Z " fill="#8A76A6" transform="translate(125,38)"/>
<path d="M0 0 C2.875 -0.125 2.875 -0.125 6 0 C6.66 0.66 7.32 1.32 8 2 C7.625 5.125 7.625 5.125 7 8 C4.6875 8.625 4.6875 8.625 2 9 C1.01 8.34 0.02 7.68 -1 7 C-0.67 4.69 -0.34 2.38 0 0 Z " fill="#8A76A6" transform="translate(178,457)"/>
<path d="M0 0 C1.2375 0.1546875 1.2375 0.1546875 2.5 0.3125 C4.5 3.3125 4.5 3.3125 4.125 6 C3.91875 6.763125 3.7125 7.52625 3.5 8.3125 C0.625 8.9375 0.625 8.9375 -2.5 9.3125 C-4.5 7.3125 -4.5 7.3125 -4.75 4.8125 C-4.40047575 1.3172575 -3.47557682 0.4344471 0 0 Z " fill="#8A76A6" transform="translate(320.5,452.6875)"/>
<path d="M0 0 C1.2375 0.1546875 1.2375 0.1546875 2.5 0.3125 C4.5 3.3125 4.5 3.3125 4.125 6 C3.91875 6.763125 3.7125 7.52625 3.5 8.3125 C0.625 8.9375 0.625 8.9375 -2.5 9.3125 C-4.5 7.3125 -4.5 7.3125 -4.75 4.8125 C-4.40047575 1.3172575 -3.47557682 0.4344471 0 0 Z " fill="#8A76A6" transform="translate(332.5,448.6875)"/>
<path d="M0 0 C1.2375 0.1546875 1.2375 0.1546875 2.5 0.3125 C4.5 3.3125 4.5 3.3125 4.125 6 C3.91875 6.763125 3.7125 7.52625 3.5 8.3125 C0.625 8.9375 0.625 8.9375 -2.5 9.3125 C-4.5 7.3125 -4.5 7.3125 -4.75 4.8125 C-4.40047575 1.3172575 -3.47557682 0.4344471 0 0 Z " fill="#8A76A6" transform="translate(344.5,443.6875)"/>
<path d="M0 0 C2.33944736 0.28730055 4.6739143 0.61936779 7 1 C7.625 3.3125 7.625 3.3125 8 6 C7.01 7.485 7.01 7.485 6 9 C3.03 8.505 3.03 8.505 0 8 C-0.38063221 5.6739143 -0.71269945 3.33944736 -1 1 C-0.67 0.67 -0.34 0.34 0 0 Z " fill="#8A76A6" transform="translate(130,440)"/>
<path d="M0 0 C1.98 0 3.96 0 6 0 C6 0.66 6 1.32 6 2 C6.66 2 7.32 2 8 2 C8.1875 4.375 8.1875 4.375 8 7 C5 9 5 9 1.8125 8.625 C0.4203125 8.315625 0.4203125 8.315625 -1 8 C-1.125 2.25 -1.125 2.25 0 0 Z " fill="#8A76A6" transform="translate(69,394)"/>
<path d="M0 0 C1.2375 0.1546875 1.2375 0.1546875 2.5 0.3125 C4.5 3.3125 4.5 3.3125 4.125 6 C3.91875 6.763125 3.7125 7.52625 3.5 8.3125 C0.625 8.9375 0.625 8.9375 -2.5 9.3125 C-4.5 7.3125 -4.5 7.3125 -4.75 4.8125 C-4.40047575 1.3172575 -3.47557682 0.4344471 0 0 Z " fill="#8A76A6" transform="translate(451.5,147.6875)"/>
<path d="M0 0 C2.33944736 0.28730055 4.6739143 0.61936779 7 1 C7.625 3.3125 7.625 3.3125 8 6 C7.01 7.485 7.01 7.485 6 9 C3.03 8.505 3.03 8.505 0 8 C-0.38063221 5.6739143 -0.71269945 3.33944736 -1 1 C-0.67 0.67 -0.34 0.34 0 0 Z " fill="#8A76A6" transform="translate(38,130)"/>
<path d="M0 0 C1.98 0 3.96 0 6 0 C6 0.66 6 1.32 6 2 C6.66 2 7.32 2 8 2 C8.1875 4.375 8.1875 4.375 8 7 C5 9 5 9 1.8125 8.625 C0.4203125 8.315625 0.4203125 8.315625 -1 8 C-1.125 2.25 -1.125 2.25 0 0 Z " fill="#8A76A6" transform="translate(93,60)"/>
<path d="M0 0 C3.125 0.375 3.125 0.375 6 1 C6.625 3.875 6.625 3.875 7 7 C5 9 5 9 2.5 9.25 C0 9 0 9 -2 7 C-2.25 4.5 -2.25 4.5 -2 2 C-1.34 1.34 -0.68 0.68 0 0 Z " fill="#8A76A6" transform="translate(349,36)"/>
<path d="M0 0 C1.2684375 0.12375 1.2684375 0.12375 2.5625 0.25 C4.5625 3.25 4.5625 3.25 4.1875 5.9375 C3.98125 6.700625 3.775 7.46375 3.5625 8.25 C-2.1875 9.375 -2.1875 9.375 -4.4375 8.25 C-3.43230397 0.35203118 -3.43230397 0.35203118 0 0 Z " fill="#8A76A6" transform="translate(139.4375,31.75)"/>
<path d="M0 0 C1.2375 0.1546875 1.2375 0.1546875 2.5 0.3125 C4.5 3.3125 4.5 3.3125 4.125 6 C3.91875 6.763125 3.7125 7.52625 3.5 8.3125 C0.625 8.9375 0.625 8.9375 -2.5 9.3125 C-4.5 7.3125 -4.5 7.3125 -4.75 4.8125 C-4.40047575 1.3172575 -3.47557682 0.4344471 0 0 Z " fill="#8A76A6" transform="translate(151.5,26.6875)"/>
<path d="M0 0 C0.6875 2.3125 0.6875 2.3125 1 5 C-0.125 6.8125 -0.125 6.8125 -2 8 C-4.6875 8.1875 -4.6875 8.1875 -7 8 C-8.35439668 5.29120665 -8.06501451 2.99066732 -8 0 C-5.13822943 -1.43088528 -3.06624227 -0.59991697 0 0 Z " fill="#8A76A6" transform="translate(115,428)"/>
<path d="M0 0 C3.0625 0.1875 3.0625 0.1875 5.0625 2.1875 C4.73278521 5.48464793 4.4398161 6.8101839 2.0625 9.1875 C-0.5625 8.8125 -0.5625 8.8125 -2.9375 8.1875 C-3.31813221 5.8614143 -3.65019945 3.52694736 -3.9375 1.1875 C-2.9375 0.1875 -2.9375 0.1875 0 0 Z " fill="#8A76A6" transform="translate(55.9375,373.8125)"/>
<path d="M0 0 C3.125 0.375 3.125 0.375 6 1 C6.625 3.3125 6.625 3.3125 7 6 C6.01 7.485 6.01 7.485 5 9 C-0.875 8.125 -0.875 8.125 -2 7 C-2.1875 4.5625 -2.1875 4.5625 -2 2 C-1.34 1.34 -0.68 0.68 0 0 Z " fill="#8A76A6" transform="translate(446,335)"/>
<path d="M0 0 C1.2684375 0.12375 1.2684375 0.12375 2.5625 0.25 C4.5625 3.25 4.5625 3.25 4.1875 5.9375 C3.98125 6.700625 3.775 7.46375 3.5625 8.25 C1.5825 8.58 -0.3975 8.91 -2.4375 9.25 C-4.4375 6.25 -4.4375 6.25 -4.125 3.625 C-3.16976704 0.32510431 -3.16976704 0.32510431 0 0 Z " fill="#8A76A6" transform="translate(32.4375,328.75)"/>
<path d="M0 0 C2.4375 0.8125 2.4375 0.8125 4.4375 2.8125 C4.0625 5.4375 4.0625 5.4375 3.4375 7.8125 C0.15053767 8.61203138 -1.27273192 8.90908936 -4.5625 7.8125 C-5.25 5.5 -5.25 5.5 -5.5625 2.8125 C-3.93062878 0.09271463 -3.17771033 -0.23251539 0 0 Z " fill="#8A76A6" transform="translate(27.5625,165.1875)"/>
<path d="M0 0 C3.125 0.375 3.125 0.375 6 1 C6.625 3.3125 6.625 3.3125 7 6 C6.01 7.485 6.01 7.485 5 9 C-0.875 8.125 -0.875 8.125 -2 7 C-2.1875 4.5625 -2.1875 4.5625 -2 2 C-1.34 1.34 -0.68 0.68 0 0 Z " fill="#8A76A6" transform="translate(29,153)"/>
<path d="M0 0 C1.2375 0.1546875 1.2375 0.1546875 2.5 0.3125 C4.5 3.3125 4.5 3.3125 4.125 6 C3.91875 6.763125 3.7125 7.52625 3.5 8.3125 C1.1875 8.9375 1.1875 8.9375 -1.5 9.3125 C-2.49 8.6525 -3.48 7.9925 -4.5 7.3125 C-4.8125 4.8125 -4.8125 4.8125 -4.5 2.3125 C-2.5 0.3125 -2.5 0.3125 0 0 Z " fill="#8A76A6" transform="translate(446.5,135.6875)"/>
<path d="M0 0 C1.9375 0.75 1.9375 0.75 3.9375 2.75 C3.5625 5.875 3.5625 5.875 2.9375 8.75 C0.0625 8.875 0.0625 8.875 -3.0625 8.75 C-5.0625 6.75 -5.0625 6.75 -5.375 4.25 C-5.271875 3.425 -5.16875 2.6 -5.0625 1.75 C-2.0625 -0.25 -2.0625 -0.25 0 0 Z " fill="#8A76A6" transform="translate(48.0625,118.25)"/>
<path d="M0 0 C2 3 2 3 1.625 5.6875 C1.41875 6.450625 1.2125 7.21375 1 8 C-1.3125 8.625 -1.3125 8.625 -4 9 C-4.99 8.34 -5.98 7.68 -7 7 C-7.1875 3.875 -7.1875 3.875 -7 1 C-4.46578263 -0.26710868 -2.80561762 -0.28056176 0 0 Z " fill="#8A76A6" transform="translate(64,97)"/>
<path d="M0 0 C2.375 0.6875 2.375 0.6875 3.375 1.6875 C3.08769945 4.02694736 2.75563221 6.3614143 2.375 8.6875 C0.065 8.6875 -2.245 8.6875 -4.625 8.6875 C-4.955 6.3775 -5.285 4.0675 -5.625 1.6875 C-2.625 -0.3125 -2.625 -0.3125 0 0 Z " fill="#8A76A6" transform="translate(374.625,49.3125)"/>
<path d="M0 0 C1.9375 0.6875 1.9375 0.6875 3.9375 1.6875 C3.6075 3.9975 3.2775 6.3075 2.9375 8.6875 C0.0625 8.8125 0.0625 8.8125 -3.0625 8.6875 C-5.0625 6.6875 -5.0625 6.6875 -5.375 4.1875 C-5.271875 3.3625 -5.16875 2.5375 -5.0625 1.6875 C-2.0625 -0.3125 -2.0625 -0.3125 0 0 Z " fill="#8A76A6" transform="translate(363.0625,42.3125)"/>
<path d="M0 0 C1.2684375 0.12375 1.2684375 0.12375 2.5625 0.25 C4.5625 3.25 4.5625 3.25 4.1875 5.9375 C3.98125 6.700625 3.775 7.46375 3.5625 8.25 C1.5825 8.58 -0.3975 8.91 -2.4375 9.25 C-4.4375 6.25 -4.4375 6.25 -4.125 3.625 C-3.16976704 0.32510431 -3.16976704 0.32510431 0 0 Z " fill="#8A76A6" transform="translate(163.4375,22.75)"/>
<path d="M0 0 C2.875 -0.125 2.875 -0.125 6 0 C8 2 8 2 8.3125 4.5 C8.1578125 5.7375 8.1578125 5.7375 8 7 C5 9 5 9 2.3125 8.625 C1.549375 8.41875 0.78625 8.2125 0 8 C-0.79953138 4.71303767 -1.09658936 3.28976808 0 0 Z " fill="#8A76A6" transform="translate(384,417)"/>
<path d="M0 0 C2.875 -0.125 2.875 -0.125 6 0 C6.66 0.66 7.32 1.32 8 2 C7.625 5.125 7.625 5.125 7 8 C4.36 8 1.72 8 -1 8 C-1.125 2.25 -1.125 2.25 0 0 Z " fill="#8A76A6" transform="translate(46,363)"/>
<path d="M0 0 C3 0.25 3 0.25 5 2.25 C4.44444444 6.80555556 4.44444444 6.80555556 3 8.25 C1.00041636 8.29080783 -1.00045254 8.29254356 -3 8.25 C-3.66 6.27 -4.32 4.29 -5 2.25 C-3 0.25 -3 0.25 0 0 Z " fill="#8A76A6" transform="translate(457,311.75)"/>
<path d="M0 0 C2.375 0.375 2.375 0.375 3.375 1.375 C3.625 4.3125 3.625 4.3125 3.375 7.375 C0.375 9.375 0.375 9.375 -2.3125 9 C-3.075625 8.79375 -3.83875 8.5875 -4.625 8.375 C-5.625 5.375 -5.625 5.375 -4.5 2.6875 C-2.625 0.375 -2.625 0.375 0 0 Z " fill="#8A76A6" transform="translate(456.625,159.625)"/>
<path d="M0 0 C0 2.31 0 4.62 0 7 C-1.98 7.33 -3.96 7.66 -6 8 C-7.5625 5.6875 -7.5625 5.6875 -9 3 C-8.67 2.01 -8.34 1.02 -8 0 C-5.13822943 -1.43088528 -3.06624227 -0.59991697 0 0 Z " fill="#8A76A6" transform="translate(40,142)"/>
<path d="M0 0 C2.625 0.5625 2.625 0.5625 5 2 C5.9375 4.5 5.9375 4.5 6 7 C5.34 7.66 4.68 8.32 4 9 C0.375 8.625 0.375 8.625 -3 8 C-3.1875 5.125 -3.1875 5.125 -3 2 C-2.01 1.34 -1.02 0.68 0 0 Z " fill="#8A76A6" transform="translate(429,369)"/>
<path d="M0 0 C2 3 2 3 1.75 5.0625 C1 7 1 7 -1 9 C-3.26274788 8.64644564 -4.95088852 8.02455574 -7 7 C-7 5.02 -7 3.04 -7 1 C-4.46578263 -0.26710868 -2.80561762 -0.28056176 0 0 Z " fill="#8A76A6" transform="translate(72,87)"/>
<path d="M0 0 C3.125 0.375 3.125 0.375 6 1 C6.625 3.3125 6.625 3.3125 7 6 C6.01 7.485 6.01 7.485 5 9 C2.375 9.1875 2.375 9.1875 0 9 C-0.66 6.69 -1.32 4.38 -2 2 C-1.34 1.34 -0.68 0.68 0 0 Z " fill="#8A76A6" transform="translate(337,31)"/>
<path d="M0 0 C5.56818182 0.56818182 5.56818182 0.56818182 7 2 C7.04080783 3.99958364 7.04254356 6.00045254 7 8 C4.6875 8.625 4.6875 8.625 2 9 C-1 7 -1 7 -1.8125 4.5 C-1.874375 3.675 -1.93625 2.85 -2 2 C-1.34 1.34 -0.68 0.68 0 0 Z " fill="#8A76A6" transform="translate(325,26)"/>
<path d="M0 0 C3.125 -0.1875 3.125 -0.1875 6 0 C7.125 2.3125 7.125 2.3125 8 5 C7.01 6.485 7.01 6.485 6 8 C2.875 8.1875 2.875 8.1875 0 8 C-1.125 5.6875 -1.125 5.6875 -2 3 C-1.34 2.01 -0.68 1.02 0 0 Z " fill="#8A76A6" transform="translate(229,464)"/>
<path d="M0 0 C0.763125 0.20625 1.52625 0.4125 2.3125 0.625 C2.6425 2.605 2.9725 4.585 3.3125 6.625 C0.95811267 8.05444945 -0.16782433 8.71161261 -2.9375 8.25 C-3.515 8.04375 -4.0925 7.8375 -4.6875 7.625 C-5.0175 5.645 -5.3475 3.665 -5.6875 1.625 C-2.6875 -0.375 -2.6875 -0.375 0 0 Z " fill="#8A76A6" transform="translate(271.6875,463.375)"/>
<path d="M0 0 C1.99954746 -0.04254356 4.00041636 -0.04080783 6 0 C7 1 7 1 7.125 4 C7 7 7 7 6 8 C3.66702567 8.04092937 1.33294775 8.04241723 -1 8 C-1.93065133 5.39417629 -2.14917407 4.35801776 -1.0625 1.75 C-0.711875 1.1725 -0.36125 0.595 0 0 Z " fill="#8A76A6" transform="translate(293,460)"/>
<path d="M0 0 C1.670625 0.061875 1.670625 0.061875 3.375 0.125 C3.41741723 2.45794775 3.41592937 4.79202567 3.375 7.125 C2.375 8.125 2.375 8.125 -0.6875 8.1875 C-1.656875 8.166875 -2.62625 8.14625 -3.625 8.125 C-4.285 6.145 -4.945 4.165 -5.625 2.125 C-3.625 0.125 -3.625 0.125 0 0 Z " fill="#8A76A6" transform="translate(194.625,459.875)"/>
<path d="M0 0 C1 1 1 1 1.0625 4.0625 C1.041875 5.031875 1.02125 6.00125 1 7 C-0.98 7.33 -2.96 7.66 -5 8 C-6.5625 5.6875 -6.5625 5.6875 -8 3 C-7.67 2.01 -7.34 1.02 -7 0 C-4.31633121 -1.3418344 -2.84719317 -0.73004953 0 0 Z " fill="#8A76A6" transform="translate(148,446)"/>
<path d="M0 0 C2.31 0 4.62 0 7 0 C7.33 2.31 7.66 4.62 8 7 C6.35 7.66 4.7 8.32 3 9 C0.9375 7.3125 0.9375 7.3125 -1 5 C-0.75 2.25 -0.75 2.25 0 0 Z " fill="#8A76A6" transform="translate(374,425)"/>
<path d="M0 0 C1.98 0 3.96 0 6 0 C6.33 2.31 6.66 4.62 7 7 C6.34 7 5.68 7 5 7 C5 7.66 5 8.32 5 9 C3.33388095 9.042721 1.66617115 9.04063832 0 9 C-1 8 -1 8 -1.125 5.0625 C-1 2 -1 2 0 0 Z " fill="#8A76A6" transform="translate(61,384)"/>
<path d="M0 0 C1.1446875 0.3403125 1.1446875 0.3403125 2.3125 0.6875 C2.9375 3 2.9375 3 3.3125 5.6875 C2.3225 7.1725 2.3225 7.1725 1.3125 8.6875 C-1.6575 8.1925 -1.6575 8.1925 -4.6875 7.6875 C-5.375 5.375 -5.375 5.375 -5.6875 2.6875 C-4.0011022 -0.12316299 -3.27764429 -0.38112143 0 0 Z " fill="#8A76A6" transform="translate(461.6875,299.3125)"/>
<path d="M0 0 C0.763125 0.20625 1.52625 0.4125 2.3125 0.625 C2.6425 2.605 2.9725 4.585 3.3125 6.625 C0.95811267 8.05444945 -0.16782433 8.71161261 -2.9375 8.25 C-3.515 8.04375 -4.0925 7.8375 -4.6875 7.625 C-5.0175 5.645 -5.3475 3.665 -5.6875 1.625 C-2.6875 -0.375 -2.6875 -0.375 0 0 Z " fill="#8A76A6" transform="translate(22.6875,292.375)"/>
<path d="M0 0 C1 1 1 1 1.0625 3.5625 C1.041875 4.366875 1.02125 5.17125 1 6 C-1.35438733 7.42944945 -2.48032433 8.08661261 -5.25 7.625 C-5.8275 7.41875 -6.405 7.2125 -7 7 C-7.93423645 3.98968256 -8.04449911 3.13349732 -7 0 C-4.31633121 -1.3418344 -2.84719317 -0.73004953 0 0 Z " fill="#8A76A6" transform="translate(470,211)"/>
<path d="M0 0 C0.125 2.875 0.125 2.875 0 6 C-0.66 6.66 -1.32 7.32 -2 8 C-5.125 7.625 -5.125 7.625 -8 7 C-8.6875 4.6875 -8.6875 4.6875 -9 2 C-6.73607469 -1.99516231 -4.01344788 -0.98106504 0 0 Z " fill="#8A76A6" transform="translate(25,191)"/>
<path d="M0 0 C1.99954746 -0.04254356 4.00041636 -0.04080783 6 0 C7 1 7 1 7.0625 4.5625 C7.041875 5.696875 7.02125 6.83125 7 8 C4.69 8 2.38 8 0 8 C-1.125 6.25 -1.125 6.25 -2 4 C-1.125 1.75 -1.125 1.75 0 0 Z " fill="#8A76A6" transform="translate(460,185)"/>
<path d="M0 0 C2.375 0.75 2.375 0.75 3.375 1.75 C3.41580783 3.74958364 3.41754356 5.75045254 3.375 7.75 C0.08803767 8.54953138 -1.33523192 8.84658936 -4.625 7.75 C-5.3125 5.4375 -5.3125 5.4375 -5.625 2.75 C-3.9659358 -0.015107 -3.22812218 -0.30744021 0 0 Z " fill="#8A76A6" transform="translate(316.625,22.25)"/>
<path d="M0 0 C2.31 0 4.62 0 7 0 C7.04241723 2.33294775 7.04092937 4.66702567 7 7 C6 8 6 8 2.9375 8.0625 C1.968125 8.041875 0.99875 8.02125 0 8 C-1.125 6.25 -1.125 6.25 -2 4 C-1.125 1.75 -1.125 1.75 0 0 Z " fill="#8A76A6" transform="translate(185,17)"/>
<path d="M0 0 C3.0625 -0.25 3.0625 -0.25 6 0 C7 1 7 1 7.125 4 C7 7 7 7 6 8 C4.00041636 8.04080783 1.99954746 8.04254356 0 8 C-1.125 5.6875 -1.125 5.6875 -2 3 C-1.34 2.01 -0.68 1.02 0 0 Z " fill="#8A76A6" transform="translate(255,464)"/>
<path d="M0 0 C1.010625 0.0825 2.02125 0.165 3.0625 0.25 C5.0625 3.25 5.0625 3.25 4.75 5.375 C4.0625 7.25 4.0625 7.25 3.0625 8.25 C1.06291636 8.29080783 -0.93795254 8.29254356 -2.9375 8.25 C-3.31813221 5.9239143 -3.65019945 3.58944736 -3.9375 1.25 C-2.9375 0.25 -2.9375 0.25 0 0 Z " fill="#8A76A6" transform="translate(307.9375,456.75)"/>
<path d="M0 0 C2.9375 0.1875 2.9375 0.1875 3.9375 1.1875 C4.0625 4.1875 4.0625 4.1875 3.9375 7.1875 C2.9375 8.1875 2.9375 8.1875 -0.125 8.25 C-1.094375 8.229375 -2.06375 8.20875 -3.0625 8.1875 C-3.7225 6.2075 -4.3825 4.2275 -5.0625 2.1875 C-3.0625 0.1875 -3.0625 0.1875 0 0 Z " fill="#8A76A6" transform="translate(169.0625,453.8125)"/>
<path d="M0 0 C2.9375 0.1875 2.9375 0.1875 3.9375 1.1875 C4.0625 4.1875 4.0625 4.1875 3.9375 7.1875 C2.9375 8.1875 2.9375 8.1875 -0.125 8.25 C-1.094375 8.229375 -2.06375 8.20875 -3.0625 8.1875 C-3.7225 6.2075 -4.3825 4.2275 -5.0625 2.1875 C-3.0625 0.1875 -3.0625 0.1875 0 0 Z " fill="#8A76A6" transform="translate(157.0625,449.8125)"/>
<path d="M0 0 C1.2684375 0.12375 1.2684375 0.12375 2.5625 0.25 C4.7144437 3.47791555 4.76336443 4.53400809 4.5625 8.25 C1.6875 8.875 1.6875 8.875 -1.4375 9.25 C-3.4375 7.25 -3.4375 7.25 -3.625 4.1875 C-3.37983937 0.34665019 -3.37983937 0.34665019 0 0 Z " fill="#8A76A6" transform="translate(355.4375,437.75)"/>
<path d="M0 0 C1.4540625 0.0309375 1.4540625 0.0309375 2.9375 0.0625 C3.5625 3.4375 3.5625 3.4375 3.9375 7.0625 C3.2775 7.7225 2.6175 8.3825 1.9375 9.0625 C-0.6875 8.6875 -0.6875 8.6875 -3.0625 8.0625 C-3.44313221 5.7364143 -3.77519945 3.40194736 -4.0625 1.0625 C-3.0625 0.0625 -3.0625 0.0625 0 0 Z " fill="#8A76A6" transform="translate(367.0625,431.9375)"/>
<path d="M0 0 C3 0.125 3 0.125 4 1.125 C4.1875 4.0625 4.1875 4.0625 4 7.125 C3.34 7.785 2.68 8.445 2 9.125 C-0.26274788 8.77144564 -1.95088852 8.14955574 -4 7.125 C-4.04254356 5.12545254 -4.04080783 3.12458364 -4 1.125 C-3 0.125 -3 0.125 0 0 Z " fill="#8A76A6" transform="translate(415,389.875)"/>
<path d="M0 0 C4.55555556 0.55555556 4.55555556 0.55555556 6 2 C5.71269945 4.33944736 5.38063221 6.6739143 5 9 C2.69 8.67 0.38 8.34 -2 8 C-2.125 5.125 -2.125 5.125 -2 2 C-1.34 1.34 -0.68 0.68 0 0 Z " fill="#8A76A6" transform="translate(435,358)"/>
<path d="M0 0 C1.2684375 0.12375 1.2684375 0.12375 2.5625 0.25 C4.7144437 3.47791555 4.76336443 4.53400809 4.5625 8.25 C1.6875 8.875 1.6875 8.875 -1.4375 9.25 C-3.4375 7.25 -3.4375 7.25 -3.625 4.1875 C-3.37983937 0.34665019 -3.37983937 0.34665019 0 0 Z " fill="#8A76A6" transform="translate(42.4375,351.75)"/>
<path d="M0 0 C2.31 0 4.62 0 7 0 C7.33 1.98 7.66 3.96 8 6 C5 8 5 8 1.8125 7.625 C0.884375 7.41875 -0.04375 7.2125 -1 7 C-0.67 4.69 -0.34 2.38 0 0 Z " fill="#8A76A6" transform="translate(34,341)"/>
<path d="M0 0 C2.9375 0.1875 2.9375 0.1875 3.9375 1.1875 C4.0625 4.1875 4.0625 4.1875 3.9375 7.1875 C2.9375 8.1875 2.9375 8.1875 -0.125 8.25 C-1.094375 8.229375 -2.06375 8.20875 -3.0625 8.1875 C-3.7225 6.2075 -4.3825 4.2275 -5.0625 2.1875 C-3.0625 0.1875 -3.0625 0.1875 0 0 Z " fill="#8A76A6" transform="translate(453.0625,323.8125)"/>
<path d="M0 0 C1.99954746 -0.04254356 4.00041636 -0.04080783 6 0 C7 1 7 1 7.125 4 C7 7 7 7 6 8 C4.00041636 8.04080783 1.99954746 8.04254356 0 8 C-1.125 6.25 -1.125 6.25 -2 4 C-1.125 1.75 -1.125 1.75 0 0 Z " fill="#8A76A6" transform="translate(25,317)"/>
<path d="M0 0 C1.010625 0.0825 2.02125 0.165 3.0625 0.25 C5.0625 3.25 5.0625 3.25 4.75 5.375 C4.0625 7.25 4.0625 7.25 3.0625 8.25 C1.06291636 8.29080783 -0.93795254 8.29254356 -2.9375 8.25 C-3.31813221 5.9239143 -3.65019945 3.58944736 -3.9375 1.25 C-2.9375 0.25 -2.9375 0.25 0 0 Z " fill="#8A76A6" transform="translate(23.9375,304.75)"/>
<path d="M0 0 C2.97 0.495 2.97 0.495 6 1 C6.93065133 3.60582371 7.14917407 4.64198224 6.0625 7.25 C5.711875 7.8275 5.36125 8.405 5 9 C2.03 8.505 2.03 8.505 -1 8 C-1.625 5.6875 -1.625 5.6875 -2 3 C-1.34 2.01 -0.68 1.02 0 0 Z " fill="#8A76A6" transform="translate(463,274)"/>
<path d="M0 0 C3.0625 -0.25 3.0625 -0.25 6 0 C7 1 7 1 7.0625 4.5625 C7.041875 5.696875 7.02125 6.83125 7 8 C4.69 8 2.38 8 0 8 C-1.125 5.6875 -1.125 5.6875 -2 3 C-1.34 2.01 -0.68 1.02 0 0 Z " fill="#8A76A6" transform="translate(14,267)"/>
<path d="M0 0 C2.64 0 5.28 0 8 0 C8.04241723 2.33294775 8.04092937 4.66702567 8 7 C7 8 7 8 4.625 8.3125 C2 8 2 8 0.125 6.25 C-1 4 -1 4 -0.6875 1.75 C-0.460625 1.1725 -0.23375 0.595 0 0 Z " fill="#8A76A6" transform="translate(463,262)"/>
<path d="M0 0 C3.0625 -0.25 3.0625 -0.25 6 0 C7 1 7 1 7.125 4 C7 7 7 7 6 8 C4.00041636 8.04080783 1.99954746 8.04254356 0 8 C-1.125 5.6875 -1.125 5.6875 -2 3 C-1.34 2.01 -0.68 1.02 0 0 Z " fill="#8A76A6" transform="translate(465,249)"/>
<path d="M0 0 C3.0625 -0.25 3.0625 -0.25 6 0 C7 1 7 1 7.125 4 C7 7 7 7 6 8 C4.00041636 8.04080783 1.99954746 8.04254356 0 8 C-1.125 5.6875 -1.125 5.6875 -2 3 C-1.34 2.01 -0.68 1.02 0 0 Z " fill="#8A76A6" transform="translate(465,236)"/>
<path d="M0 0 C3.625 -0.1875 3.625 -0.1875 7 0 C7.04241723 2.33294775 7.04092937 4.66702567 7 7 C6 8 6 8 2.9375 8.0625 C1.968125 8.041875 0.99875 8.02125 0 8 C-1.125 5.6875 -1.125 5.6875 -2 3 C-1.34 2.01 -0.68 1.02 0 0 Z " fill="#8A76A6" transform="translate(462,198)"/>
<path d="M0 0 C1.4540625 0.0309375 1.4540625 0.0309375 2.9375 0.0625 C3.73703138 3.34946233 4.03408936 4.77273192 2.9375 8.0625 C0.0625 8.1875 0.0625 8.1875 -3.0625 8.0625 C-3.7225 7.4025 -4.3825 6.7425 -5.0625 6.0625 C-4.33395709 0.0884481 -4.33395709 0.0884481 0 0 Z " fill="#8A76A6" transform="translate(24.0625,177.9375)"/>
<path d="M0 0 C1.99954746 -0.04254356 4.00041636 -0.04080783 6 0 C7 1 7 1 7.125 4 C7 7 7 7 6 8 C4.00041636 8.04080783 1.99954746 8.04254356 0 8 C-1.125 6.25 -1.125 6.25 -2 4 C-1.125 1.75 -1.125 1.75 0 0 Z " fill="#8A76A6" transform="translate(457,173)"/>
<path d="M0 0 C1.4540625 0.0309375 1.4540625 0.0309375 2.9375 0.0625 C3.5975 1.7125 4.2575 3.3625 4.9375 5.0625 C3.6175 6.3825 2.2975 7.7025 0.9375 9.0625 C-1.5375 8.0725 -1.5375 8.0725 -4.0625 7.0625 C-4.10504356 5.06295254 -4.10330783 3.06208364 -4.0625 1.0625 C-3.0625 0.0625 -3.0625 0.0625 0 0 Z " fill="#8A76A6" transform="translate(117.0625,44.9375)"/>
<path d="M0 0 C1.4540625 0.0309375 1.4540625 0.0309375 2.9375 0.0625 C3.31813221 2.3885857 3.65019945 4.72305264 3.9375 7.0625 C2.9375 8.0625 2.9375 8.0625 0 8.25 C-3.0625 8.0625 -3.0625 8.0625 -5.0625 6.0625 C-4.33395709 0.0884481 -4.33395709 0.0884481 0 0 Z " fill="#8A76A6" transform="translate(176.0625,19.9375)"/>
<path d="M0 0 C2.97 0.495 2.97 0.495 6 1 C6.93065133 3.60582371 7.14917407 4.64198224 6.0625 7.25 C5.711875 7.8275 5.36125 8.405 5 9 C2.03 8.505 2.03 8.505 -1 8 C-1.625 5.6875 -1.625 5.6875 -2 3 C-1.34 2.01 -0.68 1.02 0 0 Z " fill="#8A76A6" transform="translate(301,19)"/>
<path d="M0 0 C1.670625 0.061875 1.670625 0.061875 3.375 0.125 C3.5 5.875 3.5 5.875 2.375 8.125 C0.395 8.125 -1.585 8.125 -3.625 8.125 C-4.285 6.145 -4.945 4.165 -5.625 2.125 C-3.625 0.125 -3.625 0.125 0 0 Z " fill="#8A76A6" transform="translate(291.625,16.875)"/>
<path d="M0 0 C3 0.125 3 0.125 4 1.125 C4.04080783 3.12458364 4.04254356 5.12545254 4 7.125 C1.6875 8.25 1.6875 8.25 -1 9.125 C-1.99 8.465 -2.98 7.805 -4 7.125 C-4.25 4.0625 -4.25 4.0625 -4 1.125 C-3 0.125 -3 0.125 0 0 Z " fill="#8A76A6" transform="translate(239,11.875)"/>
<path d="M0 0 C2.375 0.25 2.375 0.25 3.375 1.25 C3.41592937 3.58297433 3.41741723 5.91705225 3.375 8.25 C1.065 8.25 -1.245 8.25 -3.625 8.25 C-4.285 6.6 -4.945 4.95 -5.625 3.25 C-3.7774876 0.91630013 -3.0311278 0.28867884 0 0 Z " fill="#8A76A6" transform="translate(219.625,462.75)"/>
<path d="M0 0 C2.5625 0.1875 2.5625 0.1875 4.5625 2.1875 C4.75 4.75 4.75 4.75 4.5625 7.1875 C3.5625 8.1875 3.5625 8.1875 0.625 8.375 C-2.4375 8.1875 -2.4375 8.1875 -4.4375 6.1875 C-3.71780303 0.28598485 -3.71780303 0.28598485 0 0 Z " fill="#8A76A6" transform="translate(90.4375,411.8125)"/>
<path d="M0 0 C2.33944736 0.28730055 4.6739143 0.61936779 7 1 C7.125 3.875 7.125 3.875 7 7 C6.34 7.66 5.68 8.32 5 9 C2.73725212 8.64644564 1.04911148 8.02455574 -1 7 C-1.04254356 5.00045254 -1.04080783 2.99958364 -1 1 C-0.67 0.67 -0.34 0.34 0 0 Z " fill="#8A76A6" transform="translate(420,380)"/>
<path d="M0 0 C3.125 0.375 3.125 0.375 6 1 C5.67 3.31 5.34 5.62 5 8 C0.25 9.125 0.25 9.125 -2 8 C-2.125 5.125 -2.125 5.125 -2 2 C-1.34 1.34 -0.68 0.68 0 0 Z " fill="#8A76A6" transform="translate(441,347)"/>
<path d="M0 0 C2.875 -0.125 2.875 -0.125 6 0 C6.66 0.66 7.32 1.32 8 2 C7.625 5.125 7.625 5.125 7 8 C4.125 8.125 4.125 8.125 1 8 C0.34 7.34 -0.32 6.68 -1 6 C-0.625 2.875 -0.625 2.875 0 0 Z " fill="#8A76A6" transform="translate(460,287)"/>
<path d="M0 0 C2.33294775 -0.04241723 4.66702567 -0.04092937 7 0 C8 1 8 1 8.125 4 C8 7 8 7 7 8 C4.16640458 8.2982732 2.56214622 8.35602594 0.125 6.8125 C-1 5 -1 5 -0.6875 2.3125 C-0.460625 1.549375 -0.23375 0.78625 0 0 Z " fill="#8A76A6" transform="translate(15,280)"/>
<path d="M0 0 C3.0625 -0.25 3.0625 -0.25 6 0 C7 1 7 1 7.125 4 C7 7 7 7 6 8 C4.00041636 8.04080783 1.99954746 8.04254356 0 8 C-1.125 5.6875 -1.125 5.6875 -2 3 C-1.34 2.01 -0.68 1.02 0 0 Z " fill="#8A76A6" transform="translate(14,216)"/>
<path d="M0 0 C2.5 -0.3125 2.5 -0.3125 5 0 C7 2 7 2 7.1875 4.5625 C7 7 7 7 6 8 C3.66702567 8.04092937 1.33294775 8.04241723 -1 8 C-1.625 5.6875 -1.625 5.6875 -2 3 C-1.34 2.01 -0.68 1.02 0 0 Z " fill="#8A76A6" transform="translate(16,203)"/>
<path d="M0 0 C2.625 0.625 2.625 0.625 5 2 C5.9375 3.9375 5.9375 3.9375 6 6 C5.01 7.485 5.01 7.485 4 9 C1.69 8.67 -0.62 8.34 -3 8 C-3.1875 5.125 -3.1875 5.125 -3 2 C-2.01 1.34 -1.02 0.68 0 0 Z " fill="#8A76A6" transform="translate(53,107)"/>
<path d="M0 0 C1.2065625 0.0309375 1.2065625 0.0309375 2.4375 0.0625 C2.4375 0.7225 2.4375 1.3825 2.4375 2.0625 C3.0975 2.0625 3.7575 2.0625 4.4375 2.0625 C4.5625 4.4375 4.5625 4.4375 4.4375 7.0625 C3.7775 7.7225 3.1175 8.3825 2.4375 9.0625 C-2.11805556 8.50694444 -2.11805556 8.50694444 -3.5625 7.0625 C-3.6875 4.0625 -3.6875 4.0625 -3.5625 1.0625 C-2.5625 0.0625 -2.5625 0.0625 0 0 Z " fill="#8A76A6" transform="translate(77.5625,76.9375)"/>
<path d="M0 0 C2.31 0 4.62 0 7 0 C7.04241723 2.33294775 7.04092937 4.66702567 7 7 C6 8 6 8 3.625 8.3125 C1 8 1 8 -0.8125 6 C-1.204375 5.34 -1.59625 4.68 -2 4 C-1.34 2.68 -0.68 1.36 0 0 Z " fill="#8A76A6" transform="translate(275,15)"/>
<path d="M0 0 C2.33294775 -0.04241723 4.66702567 -0.04092937 7 0 C8 1 8 1 8.1875 3.4375 C8 6 8 6 6 8 C3.375 8.125 3.375 8.125 1 8 C-1.125 3.375 -1.125 3.375 0 0 Z " fill="#8A76A6" transform="translate(197,15)"/>
<path d="M0 0 C0.78375 0.04125 1.5675 0.0825 2.375 0.125 C3.80444945 2.47938733 4.46161261 3.60532433 4 6.375 C3.79375 6.9525 3.5875 7.53 3.375 8.125 C1.065 8.125 -1.245 8.125 -3.625 8.125 C-4.25 5.25 -4.25 5.25 -4.625 2.125 C-2.625 0.125 -2.625 0.125 0 0 Z " fill="#8A76A6" transform="translate(213.625,12.875)"/>
<path d="M0 0 C2.31 0 4.62 0 7 0 C7.625 2.3125 7.625 2.3125 8 5 C7.01 6.485 7.01 6.485 6 8 C3.375 8.1875 3.375 8.1875 1 8 C0.26919734 6.02253397 -0.39421747 4.01927511 -1 2 C-0.67 1.34 -0.34 0.68 0 0 Z " fill="#8A76A6" transform="translate(203,462)"/>
<path d="M0 0 C2.33944736 0.28730055 4.6739143 0.61936779 7 1 C7.125 3.375 7.125 3.375 7 6 C5 8 5 8 2.5 8.25 C0 8 0 8 -2 6 C-1.44444444 1.44444444 -1.44444444 1.44444444 0 0 Z " fill="#8A76A6" transform="translate(98,420)"/>
<path d="M0 0 C3.0625 -0.25 3.0625 -0.25 6 0 C7 1 7 1 7.125 4 C7 7 7 7 6 8 C3.66055264 7.71269945 1.3260857 7.38063221 -1 7 C-1.625 5.1875 -1.625 5.1875 -2 3 C-1.34 2.01 -0.68 1.02 0 0 Z " fill="#8A76A6" transform="translate(13,229)"/>
<path d="M0 0 C3.125 -0.1875 3.125 -0.1875 6 0 C6.33 2.31 6.66 4.62 7 7 C4.69 7.33 2.38 7.66 0 8 C-1.125 5.6875 -1.125 5.6875 -2 3 C-1.34 2.01 -0.68 1.02 0 0 Z " fill="#8A76A6" transform="translate(432,114)"/>
<path d="M0 0 C1.010625 0.0825 2.02125 0.165 3.0625 0.25 C5.0625 3.25 5.0625 3.25 4.75 5.375 C4.0625 7.25 4.0625 7.25 3.0625 8.25 C0.625 8.4375 0.625 8.4375 -1.9375 8.25 C-3.9375 6.25 -3.9375 6.25 -4.125 3.6875 C-3.85121288 0.1282675 -3.61900269 0.30800023 0 0 Z " fill="#8A76A6" transform="translate(419.9375,92.75)"/>
<path d="M0 0 C2.4375 0.1875 2.4375 0.1875 3.4375 1.1875 C3.47842937 3.52047433 3.47991723 5.85455225 3.4375 8.1875 C1.10455225 8.22991723 -1.22952567 8.22842937 -3.5625 8.1875 C-4.5625 7.1875 -4.5625 7.1875 -4.75 4.75 C-4.48737296 1.16076381 -3.58923619 0.26262704 0 0 Z " fill="#8A76A6" transform="translate(283.5625,461.8125)"/>
<path d="M0 0 C2.4375 0.1875 2.4375 0.1875 3.4375 1.1875 C3.47842937 3.52047433 3.47991723 5.85455225 3.4375 8.1875 C1.10455225 8.22991723 -1.22952567 8.22842937 -3.5625 8.1875 C-4.5625 7.1875 -4.5625 7.1875 -4.75 4.75 C-4.48737296 1.16076381 -3.58923619 0.26262704 0 0 Z " fill="#8A76A6" transform="translate(16.5625,253.8125)"/>
<path d="M0 0 C2.4375 0.1875 2.4375 0.1875 3.4375 1.1875 C3.5625 4.1875 3.5625 4.1875 3.4375 7.1875 C2.4375 8.1875 2.4375 8.1875 -1.125 8.25 C-2.259375 8.229375 -3.39375 8.20875 -4.5625 8.1875 C-4.6875 5.3125 -4.6875 5.3125 -4.5625 2.1875 C-2.5625 0.1875 -2.5625 0.1875 0 0 Z " fill="#8A76A6" transform="translate(468.5625,222.8125)"/>
<path d="M0 0 C1.4540625 0.0309375 1.4540625 0.0309375 2.9375 0.0625 C3.2675 2.3725 3.5975 4.6825 3.9375 7.0625 C2.2875 7.7225 0.6375 8.3825 -1.0625 9.0625 C-2.5625 7.875 -2.5625 7.875 -4.0625 6.0625 C-4.3125 3.4375 -4.3125 3.4375 -4.0625 1.0625 C-3.0625 0.0625 -3.0625 0.0625 0 0 Z " fill="#8A76A6" transform="translate(428.0625,102.9375)"/>
<path d="M0 0 C3 0.125 3 0.125 4 1.125 C4.25 4.0625 4.25 4.0625 4 7.125 C1 9.125 1 9.125 -1.1875 8.75 C-1.785625 8.54375 -2.38375 8.3375 -3 8.125 C-3.38063221 5.7989143 -3.71269945 3.46444736 -4 1.125 C-3 0.125 -3 0.125 0 0 Z " fill="#8A76A6" transform="translate(394,64.875)"/>
<path d="M0 0 C2.5 -0.3125 2.5 -0.3125 5 0 C5.66 0.66 6.32 1.32 7 2 C6.625 5.125 6.625 5.125 6 8 C3.69 8 1.38 8 -1 8 C-1.625 5.6875 -1.625 5.6875 -2 3 C-1.34 2.01 -0.68 1.02 0 0 Z " fill="#8A76A6" transform="translate(263,13)"/>
<path d="M0 0 C5.875 0.875 5.875 0.875 7 2 C7.04080783 3.99958364 7.04254356 6.00045254 7 8 C4.69 8 2.38 8 0 8 C-1.125 5.6875 -1.125 5.6875 -2 3 C-1.34 2.01 -0.68 1.02 0 0 Z " fill="#8A76A6" transform="translate(250,12)"/>
<path d="M0 0 C2.75 0.25 2.75 0.25 5 1 C5.04254356 2.99954746 5.04080783 5.00041636 5 7 C4 8 4 8 0.9375 8.0625 C-0.031875 8.041875 -1.00125 8.02125 -2 8 C-2.66 6.68 -3.32 5.36 -4 4 C-2.3125 1.9375 -2.3125 1.9375 0 0 Z " fill="#8A76A6" transform="translate(225,12)"/>
<path d="M0 0 C2.33944736 0.28730055 4.6739143 0.61936779 7 1 C6.67 3.31 6.34 5.62 6 8 C3.69 7.67 1.38 7.34 -1 7 C-1.04254356 5.00045254 -1.04080783 2.99958364 -1 1 C-0.67 0.67 -0.34 0.34 0 0 Z " fill="#8A76A6" transform="translate(119,434)"/>
<path d="M0 0 C1.98 0 3.96 0 6 0 C6 2.64 6 5.28 6 8 C2.98968256 8.93423645 2.13349732 9.04449911 -1 8 C-1.125 2.25 -1.125 2.25 0 0 Z " fill="#8A76A6" transform="translate(409,83)"/>
<path d="M0 0 C1 1 1 1 1.1875 3.4375 C1 6 1 6 -1 8 C-3.625 7.625 -3.625 7.625 -6 7 C-6.33 4.69 -6.66 2.38 -7 0 C-4.31633121 -1.3418344 -2.84719317 -0.73004953 0 0 Z " fill="#8A76A6" transform="translate(90,69)"/>
<path d="M0 0 C2.33944736 0.28730055 4.6739143 0.61936779 7 1 C6.67 3.31 6.34 5.62 6 8 C3.69 7.67 1.38 7.34 -1 7 C-1.04254356 5.00045254 -1.04080783 2.99958364 -1 1 C-0.67 0.67 -0.34 0.34 0 0 Z " fill="#8A76A6" transform="translate(381,57)"/>
<path d="M0 0 C2.33294775 -0.04241723 4.66702567 -0.04092937 7 0 C8 1 8 1 8.0625 4.0625 C8.041875 5.031875 8.02125 6.00125 8 7 C5.69 7 3.38 7 1 7 C-0.0625 4.625 -0.0625 4.625 -1 2 C-0.67 1.34 -0.34 0.68 0 0 Z " fill="#8A76A6" transform="translate(241,465)"/>
<path d="M0 0 C0 2.64 0 5.28 0 8 C-1.65 8 -3.3 8 -5 8 C-5 7.34 -5 6.68 -5 6 C-5.66 6 -6.32 6 -7 6 C-7 4.02 -7 2.04 -7 0 C-4.3333581 -1.33332095 -2.83319697 -0.67102033 0 0 Z " fill="#8A76A6" transform="translate(84,404)"/>
<path d="M0 0 C3.625 -0.1875 3.625 -0.1875 7 0 C7.625 1.8125 7.625 1.8125 8 4 C7.01 5.485 7.01 5.485 6 7 C2.375 7.1875 2.375 7.1875 -1 7 C-1.625 5.1875 -1.625 5.1875 -2 3 C-1.34 2.01 -0.68 1.02 0 0 Z " fill="#8A76A6" transform="translate(13,242)"/>
<path d="M0 0 C1.134375 0.020625 2.26875 0.04125 3.4375 0.0625 C3.81968767 1.71864657 4.15145102 3.38707024 4.4375 5.0625 C3.4375 6.0625 3.4375 6.0625 -0.125 6.125 C-1.259375 6.104375 -2.39375 6.08375 -3.5625 6.0625 C-3.94468767 4.40635343 -4.27645102 2.73792976 -4.5625 1.0625 C-3.5625 0.0625 -3.5625 0.0625 0 0 Z " fill="#8A76A6" transform="translate(397.5625,409.9375)"/>
<path d="M0 0 C1.134375 0.020625 2.26875 0.04125 3.4375 0.0625 C3.81968767 1.71864657 4.15145102 3.38707024 4.4375 5.0625 C3.4375 6.0625 3.4375 6.0625 -0.125 6.125 C-1.259375 6.104375 -2.39375 6.08375 -3.5625 6.0625 C-3.94468767 4.40635343 -4.27645102 2.73792976 -4.5625 1.0625 C-3.5625 0.0625 -3.5625 0.0625 0 0 Z " fill="#8A76A6" transform="translate(406.5625,400.9375)"/>
<path d="M0 0 C1.134375 0.020625 2.26875 0.04125 3.4375 0.0625 C3.81968767 1.71864657 4.15145102 3.38707024 4.4375 5.0625 C3.4375 6.0625 3.4375 6.0625 -0.125 6.125 C-1.259375 6.104375 -2.39375 6.08375 -3.5625 6.0625 C-3.94468767 4.40635343 -4.27645102 2.73792976 -4.5625 1.0625 C-3.5625 0.0625 -3.5625 0.0625 0 0 Z " fill="#8A76A6" transform="translate(403.5625,74.9375)"/>
</svg>
