<?xml version="1.0" encoding="UTF-8"?>
<svg version="1.1" xmlns="http://www.w3.org/2000/svg" width="484" height="485">
<path d="M0 0 C13.61567362 11.3927065 20.9347868 27.12726781 23.5625 44.5625 C24.54448257 59.53773422 23.29013674 73.37898056 13.2421875 85.2265625 C2.8180475 95.46372241 -13.2660539 100.90187061 -26.45678711 106.48144531 C-32.40731883 109.02418978 -37.80238336 111.78061242 -43.1875 115.375 C-42.37667969 115.35179687 -41.56585938 115.32859375 -40.73046875 115.3046875 C-30.29394236 115.13459277 -21.19075526 115.0356164 -12.74609375 121.7421875 C-9.2166829 125.43966553 -8.70755359 128.98600308 -8.7890625 133.93359375 C-9.37745219 137.53892276 -11.02417413 140.20065251 -12.99609375 143.234375 C-15.39084958 147.53708383 -15.30309457 151.85589403 -15.25 156.6875 C-15.24097656 157.75613281 -15.23195313 158.82476562 -15.22265625 159.92578125 C-15.20525391 161.13814453 -15.20525391 161.13814453 -15.1875 162.375 C-14.671875 161.50875 -14.15625 160.6425 -13.625 159.75 C-9.03749635 152.96498586 -3.23911069 148.95892341 4.8125 147.375 C15.86025141 146.10433211 26.04869946 149.66970874 34.8125 156.375 C41.22956508 162.90014197 44.18361587 170.39744797 44.125 179.49023438 C44.104375 180.29783203 44.08375 181.10542969 44.0625 181.9375 C44.05734375 182.74896484 44.0521875 183.56042969 44.046875 184.39648438 C43.98557462 189.14343255 43.59180739 193.69287092 42.8125 198.375 C43.658125 198.890625 44.50375 199.40625 45.375 199.9375 C55.08227083 206.50822341 60.00779599 215.08395984 62.8125 226.375 C68.13555092 266.64130456 55.08815536 315.95840536 31.375 348.6875 C27.26435971 354.0227387 22.7250757 358.77599296 17.8125 363.375 C20.69191942 365.29461295 23.48609312 366.62136665 26.625 368.0625 C31.85586858 370.66842362 35.95109361 373.16272861 38.8125 378.375 C39.625 381.3125 39.625 381.3125 38.8125 384.375 C28.52518319 400.15523597 8.89665304 403.44703181 -8.24829102 407.06030273 C-10.62195044 407.56185563 -12.99161325 408.07977412 -15.36132812 408.59960938 C-51.3959671 416.38458433 -51.3959671 416.38458433 -63.1875 410.375 C-66.12591104 408.28188529 -67.89106877 406.04609034 -68.54296875 402.37109375 C-68.39720082 394.96343264 -63.65191095 389.8903715 -59.1875 384.375 C-58.1821462 383.04569886 -57.1799937 381.71393018 -56.1875 380.375 C-57.02539062 380.27832031 -57.86328125 380.18164062 -58.7265625 380.08203125 C-72.14378047 377.34104203 -83.78941427 367.77669679 -94.1875 359.375 C-95.04770752 358.68833252 -95.04770752 358.68833252 -95.92529297 357.98779297 C-104.43660346 351.15927018 -112.15662367 343.63219637 -119.76855469 335.82348633 C-120.95346353 334.61390888 -122.15626278 333.42189047 -123.36328125 332.234375 C-139.60435136 315.68030782 -157.30751802 289.06204948 -158.25390625 265.40234375 C-158.06231651 256.66810566 -155.41262121 249.95441591 -151.1875 242.375 C-151.79078125 241.58738281 -152.3940625 240.79976562 -153.015625 239.98828125 C-159.62768726 231.08482834 -165.71554325 220.94447032 -164.1875 209.375 C-161.8701859 197.80758085 -155.37608533 190.47452863 -146.1875 183.375 C-139.54069215 179.12104297 -131.86472025 179.60321595 -124.1875 180.375 C-120.93765021 181.36148528 -118.08785069 182.61435351 -115.1875 184.375 C-119.81504995 174.13886374 -119.81504995 174.13886374 -128.390625 167.35546875 C-131.67879789 165.56127006 -133.54790485 162.65419031 -135.1875 159.375 C-135.55502889 154.9646533 -135.6294023 152.35923694 -133.8125 148.3125 C-128.71589228 142.60915327 -122.1461559 138.4880829 -115.1875 135.375 C-115.53683594 134.69953125 -115.88617188 134.0240625 -116.24609375 133.328125 C-116.92865234 131.99007812 -116.92865234 131.99007812 -117.625 130.625 C-118.30369141 129.30242187 -118.30369141 129.30242187 -118.99609375 127.953125 C-122.69336515 119.95247213 -122.39402713 109.3815238 -120.3515625 100.90625 C-116.00606754 89.59046446 -108.47376572 83.04925564 -98.37939453 76.91162109 C-94.52117719 74.51970492 -92.20467988 72.60432883 -90.1875 68.375 C-92.15407289 69.08164316 -94.11063258 69.81619775 -96.0625 70.5625 C-97.15304688 70.96855469 -98.24359375 71.37460938 -99.3671875 71.79296875 C-102.37788122 73.14179319 -102.37788122 73.14179319 -103.5703125 76.05078125 C-103.77398437 76.81777344 -103.97765625 77.58476563 -104.1875 78.375 C-111.80498651 78.80437815 -119.19669217 78.8250686 -125.234375 73.60546875 C-130.82493908 67.56442533 -132.64167425 62.19196467 -132.43359375 54.015625 C-131.44668466 43.42593385 -126.48321961 34.14375405 -118.75 26.9375 C-111.27559745 20.76894149 -103.51052349 18.79917251 -93.90234375 19.5546875 C-82.95860179 21.50112436 -73.91973853 27.67559475 -66.1875 35.375 C-65.61128906 35.94863281 -65.03507812 36.52226563 -64.44140625 37.11328125 C-64.02761719 37.52964844 -63.61382812 37.94601563 -63.1875 38.375 C-63.29191406 37.17617187 -63.29191406 37.17617187 -63.3984375 35.953125 C-63.90546466 25.66771684 -61.01705173 18.29931203 -54.9375 10.0625 C-40.9761418 -3.5815546 -17.60888481 -12.42980104 0 0 Z M-41.5 37.4375 C-44.51492743 42.68570701 -43.66733204 48.64065085 -42.1875 54.375 C-44.1875 55.25 -44.1875 55.25 -47.1875 55.375 C-50.10256012 53.67650731 -52.61517282 51.54799413 -55.1875 49.375 C-56.1775 48.59125 -57.1675 47.8075 -58.1875 47 C-58.8475 46.46375 -59.5075 45.9275 -60.1875 45.375 C-59.30151281 53.15572852 -59.30151281 53.15572852 -54.97265625 59.33203125 C-53.24595633 60.31612038 -51.48932533 61.24950199 -49.70703125 62.12890625 C-46.37582092 63.77643508 -43.94448278 65.90822593 -41.1875 68.375 C-31.25260481 64.99321999 -31.25260481 64.99321999 -24.125 57.62890625 C-21.7168263 52.28577085 -21.53906996 46.98512653 -23.1875 41.375 C-25.36076551 37.59063861 -27.69545689 34.99365202 -31.75 33.3125 C-36.00452661 33.42159043 -38.33739022 34.61679398 -41.5 37.4375 Z M-62.1875 41.375 C-61.1875 43.375 -61.1875 43.375 -61.1875 43.375 Z M-61.1875 43.375 C-60.1875 45.375 -60.1875 45.375 -60.1875 45.375 Z M-43.8125 124.0625 C-45.12831055 124.17887817 -45.12831055 124.17887817 -46.47070312 124.29760742 C-47.29763672 124.38888916 -48.12457031 124.4801709 -48.9765625 124.57421875 C-50.08572021 124.69543091 -50.08572021 124.69543091 -51.21728516 124.8190918 C-53.65239602 125.50617326 -54.62502429 126.40590481 -56.1875 128.375 C-57.08988747 131.08216242 -57.30601302 132.61276768 -57.28515625 135.38671875 C-57.28193359 136.14404297 -57.27871094 136.90136719 -57.27539062 137.68164062 C-57.26701172 138.46732422 -57.25863281 139.25300781 -57.25 140.0625 C-57.24548828 140.85978516 -57.24097656 141.65707031 -57.23632812 142.47851562 C-57.2245585 144.44404257 -57.20662348 146.40953085 -57.1875 148.375 C-71.93993306 153.05032917 -89.50054781 150.46614476 -103.1875 143.375 C-103.88101563 142.84003906 -104.57453125 142.30507812 -105.2890625 141.75390625 C-107.15904973 140.12079066 -107.15904973 140.12079066 -109.875 140.3125 C-115.54914247 142.13250796 -120.39259551 145.25374924 -124.25 149.8125 C-125.48865006 153.1981435 -125.58471218 155.80009036 -125.1875 159.375 C-123.35634793 161.99093153 -122.27781634 162.34489455 -119.1875 163.375 C-110.84762845 163.83513084 -102.72864574 163.19322945 -94.5 161.875 C-92.87130981 161.61759033 -92.87130981 161.61759033 -91.2097168 161.35498047 C-81.56154591 159.74773919 -72.02869058 157.69277015 -62.5 155.5 C-61.79573883 155.34136475 -61.09147766 155.18272949 -60.36587524 155.01928711 C-35.15654448 149.34782417 -35.15654448 149.34782417 -16.1875 133.375 C-15.43558022 130.74391496 -15.43558022 130.74391496 -16.1875 128.375 C-23.35560462 121.75319435 -34.81177075 123.22414914 -43.8125 124.0625 Z M-27.5625 150.5 C-41.62693736 156.865447 -56.70640417 160.37226002 -71.625 164.125 C-72.40213348 164.32154175 -73.17926697 164.5180835 -73.97994995 164.72058105 C-85.19553124 167.54602803 -96.3633956 170.17327826 -107.9375 171 C-108.94296875 171.07476562 -109.9484375 171.14953125 -110.984375 171.2265625 C-111.71140625 171.27554688 -112.4384375 171.32453125 -113.1875 171.375 C-112.71699219 172.33277344 -112.24648437 173.29054687 -111.76171875 174.27734375 C-108.47166093 181.22616514 -105.96924314 187.33923871 -105.125 195.0625 C-103.47408674 207.22474553 -97.10638814 217.83877882 -91.59814453 228.62841797 C-88.75248148 234.21244833 -85.9700416 239.8276598 -83.18359375 245.44140625 C-79.07379027 253.71073018 -74.96029756 261.97815576 -70.82421875 270.234375 C-70.37066513 271.1434108 -69.91711151 272.05244659 -69.44981384 272.98902893 C-69.03413651 273.81732712 -68.61845917 274.64562531 -68.19018555 275.49902344 C-67.8260405 276.22651794 -67.46189545 276.95401245 -67.0867157 277.70355225 C-66.29950915 279.35889117 -66.29950915 279.35889117 -65.1875 280.375 C-55.70951431 280.00221787 -46.84546909 277.36001721 -37.75 274.875 C-36.18312987 274.45373035 -34.61607367 274.0331521 -33.04882812 273.61328125 C-25.5749529 271.64006671 -25.5749529 271.64006671 -18.1875 269.375 C-17.39300724 249.77892071 -17.01598594 230.17402896 -16.90039062 210.56256104 C-16.88354748 208.15783791 -16.85969237 205.75315305 -16.82861328 203.34857178 C-16.78635532 199.92098852 -16.77089792 196.49421857 -16.76171875 193.06640625 C-16.74425095 192.04975388 -16.72678314 191.0331015 -16.70878601 189.98564148 C-16.72769354 183.61835652 -17.84579541 178.57939582 -20.25460815 172.67921448 C-22.45552675 167.24301252 -22.31771363 161.76086708 -22.25 156 C-22.24548828 155.26394531 -22.24097656 154.52789062 -22.23632812 153.76953125 C-22.22465142 151.97131842 -22.20672011 150.17314803 -22.1875 148.375 C-24.08520781 148.375 -25.89849874 149.68591938 -27.5625 150.5 Z M-5.77734375 174.3359375 C-7.54101092 176.88617092 -8.50826072 179.35615877 -9.1875 182.375 C-3.24046009 187.40841216 2.29947643 188.78120987 9.875 190.1875 C10.93783203 190.40341797 12.00066406 190.61933594 13.09570312 190.84179688 C18.09786473 191.82598232 22.69863316 192.48568976 27.8125 192.375 C29.78890177 185.78699411 30.07233691 178.03465569 27.125 171.8125 C22.70080557 167.14915992 19.18066798 164.28295609 12.625 164.0625 C4.38888237 164.20933516 -0.67587709 168.13050881 -5.77734375 174.3359375 Z M-145.625 203.9375 C-148.60392963 208.58463022 -148.81356963 213.00993113 -148.1875 218.375 C-146.37235272 223.90922623 -143.36727596 227.35465165 -139.1875 231.375 C-137.93646484 230.41400391 -137.93646484 230.41400391 -136.66015625 229.43359375 C-136.11939453 229.01827393 -135.57863281 228.6029541 -135.02148438 228.17504883 C-133.8329427 227.2608742 -132.64545434 226.34532861 -131.45898438 225.4284668 C-128.82232106 223.39192351 -126.1815414 221.37062402 -123.49609375 219.3984375 C-118.69405337 215.83956493 -115.2640468 212.53565914 -112.1875 207.375 C-112.1875 206.385 -112.1875 205.395 -112.1875 204.375 C-114.30992063 202.70441171 -114.30992063 202.70441171 -117 201.25 C-117.89332031 200.73179687 -118.78664063 200.21359375 -119.70703125 199.6796875 C-128.74966946 194.9234022 -138.65136842 196.60624628 -145.625 203.9375 Z M-28.046875 278.2734375 C-28.82887268 278.46845856 -29.61087036 278.66347961 -30.41656494 278.8644104 C-32.07454921 279.2785658 -33.73223614 279.69391309 -35.38964844 280.11035156 C-37.91255057 280.74373635 -40.43665602 281.37213804 -42.9609375 282 C-44.57299213 282.40334435 -46.18497367 282.80698094 -47.796875 283.2109375 C-48.92219635 283.49074966 -48.92219635 283.49074966 -50.07025146 283.7762146 C-54.17612311 284.81174784 -58.185801 285.97716786 -62.1875 287.375 C-61.8575 288.035 -61.5275 288.695 -61.1875 289.375 C-53.64606822 288.67654449 -46.45761424 286.84939307 -39.125 285 C-37.88427734 284.69578125 -36.64355469 284.3915625 -35.36523438 284.078125 C-29.39410634 282.58294687 -23.73505707 281.06222675 -18.1875 278.375 C-18.1875 277.715 -18.1875 277.055 -18.1875 276.375 C-21.56283408 276.375 -24.78819302 277.45441765 -28.046875 278.2734375 Z M-27.2890625 287.8359375 C-28.50207031 288.14273437 -29.71507812 288.44953125 -30.96484375 288.765625 C-32.23457031 289.09046875 -33.50429687 289.4153125 -34.8125 289.75 C-42.58473693 291.7272185 -50.34584106 293.69099949 -58.1875 295.375 C-56.5375 298.675 -54.8875 301.975 -53.1875 305.375 C-47.60006378 302.75811319 -47.60006378 302.75811319 -42.625 299.1875 C-39.3910829 296.78279241 -37.20069165 296.51104039 -33.1875 296.375 C-31.14811547 296.78126792 -29.1836984 297.31360633 -27.1875 297.89453125 C-24.13654789 298.62747482 -21.31230086 298.50520004 -18.1875 298.375 C-18.1875 294.415 -18.1875 290.455 -18.1875 286.375 C-21.4842711 286.375 -24.09377779 287.02108607 -27.2890625 287.8359375 Z M-49.1875 312.375 C-48.5275 314.355 -47.8675 316.335 -47.1875 318.375 C-37.32083869 316.55091135 -27.79554386 314.29146324 -18.1875 311.375 C-18.1875 309.395 -18.1875 307.415 -18.1875 305.375 C-19.91557318 305.03604344 -21.64501974 304.70408475 -23.375 304.375 C-24.33792969 304.189375 -25.30085938 304.00375 -26.29296875 303.8125 C-35.8423897 302.36913273 -41.77410679 306.8149551 -49.1875 312.375 Z M-25.78515625 319.43359375 C-26.66880859 319.65466797 -27.55246094 319.87574219 -28.46289062 320.10351562 C-29.38263672 320.33748047 -30.30238281 320.57144531 -31.25 320.8125 C-32.17361328 321.04259766 -33.09722656 321.27269531 -34.04882812 321.50976562 C-38.73685518 322.61097345 -38.73685518 322.61097345 -43.1875 324.375 C-42.8575 325.365 -42.5275 326.355 -42.1875 327.375 C-34.2675 325.395 -26.3475 323.415 -18.1875 321.375 C-18.1875 320.385 -18.1875 319.395 -18.1875 318.375 C-21.00546706 318.375 -23.07202653 318.75281342 -25.78515625 319.43359375 Z M-25.41796875 329.46875 C-26.62163086 329.80712891 -26.62163086 329.80712891 -27.84960938 330.15234375 C-29.09967773 330.51005859 -29.09967773 330.51005859 -30.375 330.875 C-31.21998047 331.11347656 -32.06496094 331.35195313 -32.93554688 331.59765625 C-35.02051564 332.18663048 -37.10413977 332.78036099 -39.1875 333.375 C-36.64884262 338.74116563 -36.64884262 338.74116563 -34.10522461 344.10498047 C-31.86583283 348.82200644 -29.6394305 353.54452292 -27.43359375 358.27734375 C-26.53907843 360.1849033 -25.64454757 362.09245557 -24.75 364 C-24.11312256 365.3770813 -24.11312256 365.3770813 -23.46337891 366.78198242 C-23.06425293 367.62994385 -22.66512695 368.47790527 -22.25390625 369.3515625 C-21.7271228 370.48198975 -21.7271228 370.48198975 -21.18969727 371.63525391 C-20.30077348 373.54827907 -20.30077348 373.54827907 -18.1875 374.375 C-18.1875 359.195 -18.1875 344.015 -18.1875 328.375 C-20.95607389 328.375 -22.78902855 328.72295136 -25.41796875 329.46875 Z M3.8125 372.375 C1.82735323 373.20973297 -0.12553201 374.12136143 -2.0625 375.0625 C-14.12320588 380.57968267 -27.99865088 382.77000692 -41.1875 383.375 C-36.8872043 386.98998961 -32.28793997 389.98410487 -27.5625 393 C-26.04940717 393.97124202 -24.53638356 394.94259187 -23.0234375 395.9140625 C-22.35876465 396.33896973 -21.6940918 396.76387695 -21.00927734 397.20166016 C-19.39164965 398.24351471 -17.78845218 399.30769855 -16.1875 400.375 C-13.67159782 400.82293566 -13.67159782 400.82293566 -11.1875 400.375 C-9.65167842 399.04639335 -9.65167842 399.04639335 -8.5625 397 C-8.07265625 396.19949219 -7.5828125 395.39898437 -7.078125 394.57421875 C-6.45421875 393.51847656 -5.8303125 392.46273438 -5.1875 391.375 C-4.24723581 389.83834553 -3.30429867 388.3033249 -2.359375 386.76953125 C0.38177802 382.31504731 3.10229016 377.84836557 5.8125 373.375 C5.1525 373.045 4.4925 372.715 3.8125 372.375 Z " fill="#6F5791" transform="translate(288.1875,37.625)"/>
<path d="M0 0 C1.02262939 0.47107178 1.02262939 0.47107178 2.06591797 0.95166016 C23.12851068 10.76393194 41.7563172 23.57447154 58.53662109 39.60400391 C59.5110153 40.53353111 60.4905249 41.45772582 61.47509766 42.37646484 C103.72589726 81.87086961 127.30447318 143.42462957 130.1227417 200.48510742 C130.32468715 206.53140998 130.3375585 212.57594714 130.3125 218.625 C130.30976578 220.00313873 130.30976578 220.00313873 130.30697632 221.40911865 C130.25903119 235.80483775 129.57683005 249.80936075 127 264 C126.76651855 265.39798828 126.76651855 265.39798828 126.52832031 266.82421875 C118.80472349 312.51831254 98.16030786 355.54726855 66 389 C65.43120117 389.59603027 64.86240234 390.19206055 64.27636719 390.80615234 C47.18021491 408.63342033 27.83112624 422.49976536 6 434 C5.31583008 434.36448242 4.63166016 434.72896484 3.92675781 435.10449219 C-17.77996228 446.50630668 -41.9272688 453.73316361 -66 458 C-66.81629883 458.16081055 -67.63259766 458.32162109 -68.47363281 458.48730469 C-96.64152806 463.95406307 -129.89255158 463.62693159 -158 458 C-158.93666504 457.82307617 -159.87333008 457.64615234 -160.83837891 457.46386719 C-198.57175314 450.26174961 -236.10397817 435.54122805 -266 411 C-267.53140625 409.77410156 -267.53140625 409.77410156 -269.09375 408.5234375 C-284.36797351 396.12204165 -297.63388761 382.04283467 -309 366 C-309.43860352 365.3901123 -309.87720703 364.78022461 -310.32910156 364.15185547 C-340.13953159 322.43326824 -354.52775105 271.40768138 -354.3125 220.4375 C-354.31034485 219.51524628 -354.3081897 218.59299255 -354.30596924 217.64279175 C-354.25209189 203.23994495 -353.68929265 189.18455716 -351 175 C-350.80664062 173.9495752 -350.61328125 172.89915039 -350.4140625 171.81689453 C-338.93097836 111.13198457 -306.3136392 54.54354757 -255 19 C-254.32437012 18.52804199 -253.64874023 18.05608398 -252.95263672 17.56982422 C-179.93577068 -32.91075737 -79.80287466 -37.0677108 0 0 Z M-259 32 C-259.56960449 32.46664062 -260.13920898 32.93328125 -260.72607422 33.4140625 C-273.01214201 43.55472866 -284.27249789 54.34252737 -294 67 C-294.42104004 67.54462891 -294.84208008 68.08925781 -295.27587891 68.65039062 C-319.80565109 100.56864841 -335.92406281 137.37758493 -343 177 C-343.24339111 178.27085449 -343.24339111 178.27085449 -343.49169922 179.56738281 C-348.51273916 206.46025926 -348.30889346 237.17827906 -343 264 C-342.82307617 264.90621094 -342.64615234 265.81242187 -342.46386719 266.74609375 C-338.24542624 287.75815539 -331.97609572 307.54133096 -323 327 C-322.66742188 327.72703125 -322.33484375 328.4540625 -321.9921875 329.203125 C-312.6715995 349.35984377 -299.73300725 367.4916788 -284.41210938 383.52050781 C-283.4756544 384.5016484 -282.54457769 385.48795247 -281.61914062 386.47949219 C-257.21059416 412.59216143 -223.94540167 430.66301772 -190 441 C-188.70811768 441.39759521 -188.70811768 441.39759521 -187.39013672 441.80322266 C-125.60620874 460.51093146 -54.3557788 457.30980578 3.30078125 426.9921875 C4.53490055 426.33007167 5.76799318 425.66603831 7 425 C7.5986084 424.68063477 8.1972168 424.36126953 8.81396484 424.03222656 C18.07850364 419.05780808 26.60984451 413.31787257 35 407 C35.86496094 406.36191406 36.72992188 405.72382813 37.62109375 405.06640625 C52.08444869 393.85222933 65.6095677 380.07557268 76 365 C76.39799805 364.43571289 76.79599609 363.87142578 77.20605469 363.29003906 C106.79946955 321.26048099 122.55149546 270.79467739 122.3125 219.4375 C122.31067719 218.61505798 122.30885437 217.79261597 122.30697632 216.94525146 C122.25450979 202.78954208 121.39232722 188.97282102 119 175 C118.8443457 174.04657715 118.68869141 173.0931543 118.52832031 172.11083984 C113.12529399 139.95690176 101.1921658 106.56874653 82 80 C81.55333984 79.37125977 81.10667969 78.74251953 80.64648438 78.09472656 C74.14556138 68.97672022 67.18878503 60.48534657 59.39648438 52.44335938 C58.09067534 51.09371898 56.80244773 49.72712998 55.515625 48.359375 C13.56858728 4.76735541 -49.62648238 -14.7524386 -108.71875 -16.24609375 C-163.1975551 -17.0123845 -216.32157332 -3.01294615 -259 32 Z " fill="#6D5490" transform="translate(354,24)"/>
<path d="M0 0 C7.13852037 5.23136344 12.12484195 11.06803587 16 19 C16.4125 19.77214844 16.825 20.54429688 17.25 21.33984375 C22.61853707 33.13944086 21.58818023 49.33415204 17.203125 61.26953125 C10.14123173 77.29636047 -0.13326584 84.78742312 -16.125 91.4375 C-18.3371187 92.38657448 -20.54805834 93.3384018 -22.7578125 94.29296875 C-23.82418945 94.7523584 -24.89056641 95.21174805 -25.98925781 95.68505859 C-46.03219513 104.23094906 -46.03219513 104.23094906 -58.9140625 121.04296875 C-60.29393428 124.80038938 -60.84657114 128.01084973 -61 132 C-64.4135006 128.69661233 -65.86675287 127.26584774 -66.375 122.4375 C-66.12769514 112.58063496 -58.37804285 105.91513005 -52.015625 99.22265625 C-40.58671675 87.24069194 -40.58671675 87.24069194 -36.9375 71.75 C-36.94652344 70.85796875 -36.95554688 69.9659375 -36.96484375 69.046875 C-36.97644531 68.37140625 -36.98804688 67.6959375 -37 67 C-35.80503906 66.54560547 -35.80503906 66.54560547 -34.5859375 66.08203125 C-24.41128558 62.05920659 -18.85834656 58.28415106 -14.140625 48.203125 C-12.41233131 43.34969752 -12.03996743 39.06273584 -13 34 C-15.65262612 28.59650234 -19.3220617 25.1901948 -24.8125 22.75 C-30.01150253 21.52670529 -34.16973993 21.36644844 -39.25 23.125 C-43.10459828 25.75313519 -45.46697322 28.51403477 -46.46484375 33.16796875 C-46.71499273 35.10405329 -46.86568609 37.0524483 -47 39 C-53.5978803 32.74937656 -53.5978803 32.74937656 -54.3359375 27.703125 C-54.4740002 19.0327876 -51.60844681 13.05744874 -45.828125 6.6640625 C-42.28158014 3.43579731 -38.23757512 1.19874181 -34 -1 C-33.07960938 -1.51433594 -33.07960938 -1.51433594 -32.140625 -2.0390625 C-22.75068145 -6.48474374 -8.66194102 -5.44674596 0 0 Z " fill="#FDFDFD" transform="translate(285,44)"/>
<path d="M0 0 C2.0653372 2.62131876 3.67162641 5.14695424 5.07421875 8.171875 C5.48317383 9.04126709 5.89212891 9.91065918 6.31347656 10.80639648 C6.7669043 11.77778564 7.22033203 12.7491748 7.6875 13.75 C12.04730016 22.9825603 16.54801059 32.13691052 21.12890625 41.26171875 C21.66984421 42.33956635 22.21078217 43.41741394 22.76811218 44.52792358 C24.98376184 48.93958877 27.20120397 53.35032121 29.4258728 57.75744629 C31.01109943 60.89788266 32.59174042 64.04059304 34.171875 67.18359375 C34.65882339 68.1440007 35.14577179 69.10440765 35.6474762 70.09391785 C36.0896196 70.97485611 36.531763 71.85579437 36.98730469 72.76342773 C37.37746765 73.53629623 37.76763062 74.30916473 38.1696167 75.10545349 C39 77 39 77 39 79 C14.83726042 84.20748698 -10.51881561 86.89623688 -35 82 C-35.99257812 81.86335938 -36.98515625 81.72671875 -38.0078125 81.5859375 C-40.77837153 81.05708435 -42.66648899 80.58448279 -45 79 C-49.29023698 71.28810162 -49.01327935 61.21174389 -46.875 52.875 C-42.49758355 39.90487719 -30.6556575 32.20899034 -19.76025391 24.9440918 C-9.60630111 18.15611084 -3.34006903 11.97536945 0 0 Z " fill="#FEFDFE" transform="translate(184,240)"/>
<path d="M0 0 C0.77730469 0.78117188 1.55460937 1.56234375 2.35546875 2.3671875 C9.7625993 9.74149473 17.01649417 12.11462004 27.125 13.4375 C42.32731785 15.65472054 58.3253135 19.04336501 69 31 C73.08666349 37.21883575 75.29722821 44.52855264 74 52 C59.88383348 67.95102352 32.50621817 76.31709843 13 83 C11.90993652 83.37511719 10.81987305 83.75023437 9.69677734 84.13671875 C1.26391173 87 1.26391173 87 -1 87 C-1.20190525 57.99087457 -0.61740271 29.00154912 0 0 Z " fill="#FEFEFE" transform="translate(271,220)"/>
<path d="M0 0 C0.66 0 1.32 0 2 0 C-4.1069003 21.85243743 -13.7704031 41.99408821 -30 58 C-30.60457031 58.60328125 -31.20914062 59.2065625 -31.83203125 59.828125 C-40.85671793 68.17211755 -51.19362812 71.62675089 -63 75 C-63 59.49 -63 43.98 -63 28 C-58.9575 26.700625 -54.915 25.40125 -50.75 24.0625 C-23.54231267 15.58307958 -23.54231267 15.58307958 0 0 Z " fill="#FDFDFD" transform="translate(333,337)"/>
<path d="M0 0 C5.4217987 10.09377417 10.70350289 20.24439028 15.6875 30.5625 C16.13335449 31.47217529 16.57920898 32.38185059 17.03857422 33.3190918 C17.64403076 34.58619995 17.64403076 34.58619995 18.26171875 35.87890625 C18.62225342 36.6272876 18.98278809 37.37566895 19.35424805 38.14672852 C19.56734619 38.75830811 19.78044434 39.3698877 20 40 C19.505 40.99 19.505 40.99 19 42 C6.35428004 45.43496241 -10.15849592 44.26462648 -22 39 C-23.12148437 38.51402344 -24.24296875 38.02804687 -25.3984375 37.52734375 C-37.31773216 31.96237505 -47.49728312 24.27295363 -57.5 15.8125 C-58.06332031 15.3378833 -58.62664062 14.8632666 -59.20703125 14.37426758 C-63.21524601 10.90355059 -66.64790729 7.10329366 -70 3 C-68.21722656 3.23976563 -68.21722656 3.23976563 -66.3984375 3.484375 C-59.81739367 4.20903504 -53.24006454 4.23376211 -46.625 4.25 C-45.96580566 4.25200409 -45.30661133 4.25400818 -44.62744141 4.256073 C-33.48512241 4.26434533 -22.90492216 3.22950209 -12 1 C-7.92384319 0.22043501 -4.15177983 -0.0988519 0 0 Z " fill="#FDFDFE" transform="translate(249,371)"/>
<path d="M0 0 C5.10806879 2.18917234 9.85277781 4.63373585 12.82421875 9.49609375 C14.33099706 16.12591832 12.3077004 21.71951283 9.22265625 27.55078125 C6.77382684 31.27257043 3.82236165 34.42094645 0.75830078 37.63037109 C-11.12299673 49.74088704 -11.12299673 49.74088704 -15.92578125 65.18359375 C-15.79846237 69.85902602 -14.70236389 73.12222702 -12.55078125 77.24609375 C-20.82511021 76.71794509 -27.01818439 73.27724148 -32.55078125 67.12109375 C-36.10383248 62.89362076 -37.13483963 59.11436317 -36.984375 53.64453125 C-36.10596321 48.78556875 -33.44205005 46.12323979 -29.55078125 43.24609375 C-26.02291004 41.35696404 -22.38926069 39.714861 -18.68188477 38.21069336 C-13.51510206 36.04435304 -10.73320468 33.90254664 -7.55078125 29.24609375 C-6.71728174 26.20269248 -6.71728174 26.20269248 -7.55078125 23.24609375 C-9.72341625 20.67323651 -11.53071963 18.75612456 -14.55078125 17.24609375 C-16.62642801 17.04851144 -16.62642801 17.04851144 -18.92578125 17.05859375 C-19.69664062 17.04441406 -20.4675 17.03023437 -21.26171875 17.015625 C-23.76913013 17.26807768 -25.38340027 17.99415908 -27.55078125 19.24609375 C-28.12065761 13.77528073 -27.21456803 10.60363368 -24.12109375 6.04296875 C-21.61923323 3.18014328 -18.97837525 1.86288337 -15.55078125 0.24609375 C-10.99389348 -2.03235013 -4.7696076 -1.40970026 0 0 Z " fill="#FCFBFC" transform="translate(229.55078125,100.75390625)"/>
<path d="M0 0 C8.32637655 5.74945417 15.62669999 14.24336396 17.68359375 24.36328125 C17.84021484 25.66845703 17.84021484 25.66845703 18 27 C16.08333333 27.47916667 14.16666667 27.95833333 12.25 28.4375 C11.18265625 28.70433594 10.1153125 28.97117188 9.015625 29.24609375 C7.21354167 29.69661458 5.41145833 30.14713542 3.609375 30.59765625 C3.07828125 30.73042969 2.5471875 30.86320312 2 31 C1.56300781 30.18595703 1.56300781 30.18595703 1.1171875 29.35546875 C-1.60010113 24.61303105 -3.52872111 21.59164477 -9 20 C-14.80556192 19.28845481 -20.15279829 18.86218812 -25.125 22.3125 C-28.77847621 25.59101036 -28.77847621 25.59101036 -30.23046875 30.0859375 C-30.1537863 34.17102052 -30.02788733 38.0169366 -29 42 C-34.44170274 41.61130695 -37.20279686 39.88350321 -41 36 C-43.69083493 30.61833014 -44.03432405 24.45558261 -42.3125 18.703125 C-38.21647585 8.80439996 -31.85289821 1.86573745 -22.5625 -3.375 C-14.53364667 -5.33325691 -7.27235381 -3.78490628 0 0 Z " fill="#FCFBFD" transform="translate(205,67)"/>
<path d="M0 0 C2.33333333 4.66666667 4.66666667 9.33333333 7 14 C7.99 14 8.98 14 10 14 C10.268125 13.071875 10.53625 12.14375 10.8125 11.1875 C12.52486188 6.59116022 12.52486188 6.59116022 15 5 C18.1875 4.8125 18.1875 4.8125 21 5 C21.495 6.485 21.495 6.485 22 8 C19.06067924 12.96809106 15.04445422 14.81295848 10 17.125 C5.68319064 19.15045947 1.78673688 21.06892001 -2 24 C-2.66 24 -3.32 24 -4 24 C-4.309375 24.78375 -4.61875 25.5675 -4.9375 26.375 C-6 29 -6 29 -7 31 C-7.92291806 39.33263159 -7.09630964 46.1853042 -2 53 C2.22167133 57.11479357 6.46168181 59.97188348 12 62 C7.47565515 63.46412481 4.41033017 61.88057876 0.25 60 C-0.46647705 59.67749268 -1.1829541 59.35498535 -1.92114258 59.02270508 C-11.70956988 54.44541501 -16.8982621 49.06950249 -21 39 C-23.43656213 31.69031361 -22.15781502 24.6160544 -19.3125 17.6015625 C-15.03305521 9.11909157 -8.04613741 4.65599271 0 0 Z " fill="#FAF9FB" transform="translate(195,119)"/>
<path d="M0 0 C3.69230769 0.69230769 3.69230769 0.69230769 5 2 C5.23287008 3.68183948 5.41264166 5.3712416 5.5625 7.0625 C5.68818359 8.44115234 5.68818359 8.44115234 5.81640625 9.84765625 C5.87699219 10.55792969 5.93757813 11.26820312 6 12 C6.30292969 11.4946875 6.60585938 10.989375 6.91796875 10.46875 C8.18414568 8.50520177 9.41018649 6.71442051 11 5 C13.8125 4.5625 13.8125 4.5625 16 5 C16.71484375 6.671875 16.71484375 6.671875 17 9 C15.56640625 11.578125 15.56640625 11.578125 13.5625 14.25 C12.90378906 15.14203125 12.24507813 16.0340625 11.56640625 16.953125 C11.04949219 17.62859375 10.53257812 18.3040625 10 19 C11.08861328 18.75443359 11.08861328 18.75443359 12.19921875 18.50390625 C14.82038731 18.03231525 17.15697867 17.89786535 19.8125 17.9375 C20.99779297 17.95103516 20.99779297 17.95103516 22.20703125 17.96484375 C22.79871094 17.97644531 23.39039063 17.98804687 24 18 C24.38218767 19.65614657 24.71395102 21.32457024 25 23 C22.26380771 25.73619229 13.31619002 25.55186621 10 26 C13.3 29.3 16.6 32.6 20 36 C19.34 37.32 18.68 38.64 18 40 C13.85114741 39.87427719 11.99452585 38.2673472 9.1875 35.4375 C7.6096875 33.7359375 7.6096875 33.7359375 6 32 C5.67 36.29 5.34 40.58 5 45 C2.525 45.495 2.525 45.495 0 46 C-1.81115956 44.18884044 -1.38199448 41.38721773 -1.5625 38.9375 C-1.68818359 37.28041016 -1.68818359 37.28041016 -1.81640625 35.58984375 C-1.90728516 34.30787109 -1.90728516 34.30787109 -2 33 C-4.31 35.64 -6.62 38.28 -9 41 C-10.65 40.67 -12.3 40.34 -14 40 C-13.28619952 33.62111632 -9.26717365 30.53810531 -5 26 C-11.93 25.505 -11.93 25.505 -19 25 C-19.33 23.35 -19.66 21.7 -20 20 C-19 19 -19 19 -16.05859375 18.90234375 C-14.86363281 18.91394531 -13.66867187 18.92554687 -12.4375 18.9375 C-10.64119141 18.95103516 -10.64119141 18.95103516 -8.80859375 18.96484375 C-7.88175781 18.97644531 -6.95492188 18.98804687 -6 19 C-6.74056641 18.22076172 -6.74056641 18.22076172 -7.49609375 17.42578125 C-8.13675781 16.72839844 -8.77742188 16.03101562 -9.4375 15.3125 C-10.39462891 14.28576172 -10.39462891 14.28576172 -11.37109375 13.23828125 C-13.16221098 10.77710578 -13.62798558 8.99183426 -14 6 C-11.9375 5.0625 -11.9375 5.0625 -9 5 C-6.37232162 7.07391145 -4.18678905 9.47290372 -2 12 C-1.90912109 10.82630859 -1.90912109 10.82630859 -1.81640625 9.62890625 C-1.73261719 8.61699219 -1.64882813 7.60507813 -1.5625 6.5625 C-1.48128906 5.55316406 -1.40007812 4.54382813 -1.31640625 3.50390625 C-1 1 -1 1 0 0 Z " fill="#A191B8" transform="translate(359,108)"/>
<path d="M0 0 C1.32 0.33 2.64 0.66 4 1 C4.66 3.64 5.32 6.28 6 9 C7.32 7.35 8.64 5.7 10 4 C11.32 4.33 12.64 4.66 14 5 C14.8125 6.625 14.8125 6.625 15 9 C13.53181864 11.24609835 11.84147142 13.02378677 10 15 C15.445 15.495 15.445 15.495 21 16 C21.495 17.485 21.495 17.485 22 19 C21.34 19.99 20.68 20.98 20 22 C17.3984375 22.29296875 17.3984375 22.29296875 14.375 22.1875 C12.87066406 22.14689453 12.87066406 22.14689453 11.3359375 22.10546875 C10.56507813 22.07066406 9.79421875 22.03585937 9 22 C11.41556126 25.19199167 13.68003538 27.74716687 17 30 C16.67 31.65 16.34 33.3 16 35 C11.2482602 34.56802365 9.07999946 33.67230705 6 30 C5.67 32.97 5.34 35.94 5 39 C3.34385343 39.38218767 1.67542976 39.71395102 0 40 C-1.58272601 38.41727399 -1.34735747 36.61965997 -1.5625 34.4375 C-1.64628906 33.61121094 -1.73007813 32.78492188 -1.81640625 31.93359375 C-1.87699219 31.29550781 -1.93757813 30.65742188 -2 30 C-2.38671875 30.44472656 -2.7734375 30.88945312 -3.171875 31.34765625 C-3.69265625 31.91355469 -4.2134375 32.47945313 -4.75 33.0625 C-5.26046875 33.63097656 -5.7709375 34.19945312 -6.296875 34.78515625 C-8 36 -8 36 -10.203125 35.68359375 C-10.79609375 35.45800781 -11.3890625 35.23242188 -12 35 C-12.375 32.875 -12.375 32.875 -12 30 C-10.17833339 27.72557999 -8.18409934 25.95658899 -6 24 C-9.63 23.34 -13.26 22.68 -17 22 C-17.33 20.68 -17.66 19.36 -18 18 C-16 16 -16 16 -13.6171875 15.8046875 C-12.71226563 15.82789063 -11.80734375 15.85109375 -10.875 15.875 C-9.50988281 15.90207031 -9.50988281 15.90207031 -8.1171875 15.9296875 C-7.41851562 15.95289063 -6.71984375 15.97609375 -6 16 C-6.51691406 15.54109375 -7.03382812 15.0821875 -7.56640625 14.609375 C-8.22511719 13.99578125 -8.88382813 13.3821875 -9.5625 12.75 C-10.22378906 12.14671875 -10.88507813 11.5434375 -11.56640625 10.921875 C-13 9 -13 9 -12.71484375 6.765625 C-12.36099609 5.89164062 -12.36099609 5.89164062 -12 5 C-9.8125 4.6875 -9.8125 4.6875 -7 5 C-4.1875 7.5 -4.1875 7.5 -2 10 C-2.04125 8.72125 -2.0825 7.4425 -2.125 6.125 C-2.1953125 3.9453125 -2.1953125 3.9453125 -2 2 C-1.34 1.34 -0.68 0.68 0 0 Z " fill="#A191B8" transform="translate(122,365)"/>
<path d="M0 0 C1.36328125 2.06640625 1.36328125 2.06640625 2.3125 4.5625 C2.63863281 5.38878906 2.96476562 6.21507812 3.30078125 7.06640625 C3.64689453 8.02353516 3.64689453 8.02353516 4 9 C2.37509046 9.02698189 0.75005367 9.04638757 -0.875 9.0625 C-2.23238281 9.07990234 -2.23238281 9.07990234 -3.6171875 9.09765625 C-6 9 -6 9 -8 8 C-12.33976002 7.17694207 -15.73822043 7.23296075 -19.5703125 9.5625 C-20.83488281 10.5215625 -20.83488281 10.5215625 -22.125 11.5 C-26.66302057 14.93135604 -26.66302057 14.93135604 -30.375 15.6875 C-34.78454011 14.85120791 -38.84401802 13.37945457 -43.078125 11.91015625 C-47.83474211 10.42848274 -51.62955695 9.78834987 -56.27734375 12.1640625 C-57.78891752 13.06446751 -59.27561986 14.00874299 -60.7265625 15.00390625 C-63.92958238 16.40729125 -65.67248666 15.99360309 -69 15 C-71.81640625 13.109375 -71.81640625 13.109375 -74.5625 10.75 C-75.47128906 9.98171875 -76.38007813 9.2134375 -77.31640625 8.421875 C-79.96853325 6.02839794 -82.49925031 3.55049335 -85 1 C-82.36962313 -0.31518844 -81.21718116 0.23264946 -78.375 0.875 C-68.47782132 3.09171825 -58.65742915 3.27379594 -48.5625 3.3125 C-47.40738922 3.31892014 -47.40738922 3.31892014 -46.22894287 3.32546997 C-32.92574507 3.36392251 -20.34255502 2.07515444 -7.30712891 -0.74633789 C-4.61821946 -1.04197566 -2.58968006 -0.76649449 0 0 Z " fill="#F9F8FA" transform="translate(231,334)"/>
<path d="M0 0 C7.3435356 0.14687071 17.61971429 3.61971429 23 9 C23.4375 11.75 23.4375 11.75 23 15 C13.75716767 24.97252961 -2.06585916 28.74165795 -15 31 C-17.24609375 30.54296875 -17.24609375 30.54296875 -19 30 C-16.77882181 26.36888308 -14.55503243 22.73938263 -12.32885742 19.11132812 C-11.57261144 17.87804056 -10.8170685 16.64432159 -10.06225586 15.41015625 C-8.97436119 13.63166002 -7.88390994 11.85475368 -6.79296875 10.078125 C-6.1383667 9.00981445 -5.48376465 7.94150391 -4.80932617 6.84082031 C-3.29697334 4.46627739 -1.72949409 2.2186203 0 0 Z " fill="#FDFDFD" transform="translate(296,407)"/>
<path d="M0 0 C2.475 0.495 2.475 0.495 5 1 C5.33 3.31 5.66 5.62 6 8 C6.391875 7.34 6.78375 6.68 7.1875 6 C9 4 9 4 11.6875 3.75 C12.450625 3.8325 13.21375 3.915 14 4 C14.33 4.99 14.66 5.98 15 7 C13.0625 10.1875 13.0625 10.1875 11 13 C13.97 13.33 16.94 13.66 20 14 C20.495 15.98 20.495 15.98 21 18 C18.60236815 20.39763185 17.66726502 20.34280586 14.375 20.625 C13.55773437 20.69976562 12.74046875 20.77453125 11.8984375 20.8515625 C11.27195313 20.90054688 10.64546875 20.94953125 10 21 C10.969375 21.7425 11.93875 22.485 12.9375 23.25 C14.91900909 24.90359978 15.91398143 25.81183438 17 28.1875 C17 28.785625 17 29.38375 17 30 C16.34 30.66 15.68 31.32 15 32 C12.04337034 31.77256695 10.44966312 31.38764062 8.1875 29.4375 C7.795625 28.963125 7.40375 28.48875 7 28 C6.7834375 29.7015625 6.7834375 29.7015625 6.5625 31.4375 C6 35 6 35 5 36 C3.33382885 36.04063832 1.66611905 36.042721 0 36 C-0.33 33.36 -0.66 30.72 -1 28 C-1.7425 28.845625 -2.485 29.69125 -3.25 30.5625 C-4.1575 31.366875 -5.065 32.17125 -6 33 C-8.3125 32.8125 -8.3125 32.8125 -10 32 C-10.68359375 30.234375 -10.68359375 30.234375 -11 28 C-9.31309029 25.33131969 -7.17802881 23.31137751 -5 21 C-7.97 20.67 -10.94 20.34 -14 20 C-14.38218767 18.34385343 -14.71395102 16.67542976 -15 15 C-14 14 -14 14 -12.15234375 13.90234375 C-10.1015625 13.93489583 -8.05078125 13.96744792 -6 14 C-7.2684375 12.63875 -7.2684375 12.63875 -8.5625 11.25 C-11.02603251 8.32974517 -11.02603251 8.32974517 -10.8125 5.625 C-10.544375 5.08875 -10.27625 4.5525 -10 4 C-5.44615385 3.63076923 -5.44615385 3.63076923 -3.1875 5.5 C-2.795625 5.995 -2.40375 6.49 -2 7 C-1.34 4.69 -0.68 2.38 0 0 Z " fill="#A191B8" transform="translate(120,83)"/>
<path d="M0 0 C5.11822484 0.90305922 9.11906765 3.8896269 13.37109375 6.7265625 C14.99473654 7.78393881 16.61843393 8.84123131 18.2421875 9.8984375 C19.02190918 10.41212891 19.80163086 10.92582031 20.60498047 11.45507812 C24.01443765 13.68277126 27.46953232 15.83507745 30.93359375 17.9765625 C27.41956901 20.31924566 24.19406193 20.84115589 20.12109375 21.5390625 C19.42177734 21.66474609 18.72246094 21.79042969 18.00195312 21.91992188 C16.61716451 22.16734435 15.23141082 22.40942867 13.84472656 22.64599609 C12.22341134 22.92643309 10.60709271 23.23552087 8.9921875 23.55078125 C4.92088249 24.11754018 0.9146586 24.19976925 -3.19140625 24.2265625 C-3.98933594 24.2471875 -4.78726563 24.2678125 -5.609375 24.2890625 C-11.47365892 24.32822299 -11.47365892 24.32822299 -14.62109375 22.4609375 C-15.09804687 21.97109375 -15.575 21.48125 -16.06640625 20.9765625 C-15.91611782 13.91300633 -12.5977231 10.16627581 -8.06640625 4.9765625 C-7.628125 4.409375 -7.18984375 3.8421875 -6.73828125 3.2578125 C-4.53777741 0.61720789 -3.47043997 -0.02652566 0 0 Z " fill="#FDFCFD" transform="translate(243.06640625,420.0234375)"/>
<path d="M0 0 C-0.69593804 7.35552977 -4.66407555 11.20087275 -10 16 C-14.3949675 18.91420153 -18.74186279 20.85931934 -23.9375 21.75 C-30.58785512 23.12315025 -35.7288741 29.1434177 -40.6953125 33.48046875 C-45.35521173 36.85950563 -50.72063229 36.23681527 -56.22729492 35.85375977 C-59.84373909 35.6689589 -61.73625087 35.83242459 -64.828125 37.796875 C-66.56835647 39.56214577 -68.15080985 41.26435613 -69.625 43.25 C-70.800625 44.61125 -70.800625 44.61125 -72 46 C-72.99 46 -73.98 46 -75 46 C-75 42.04 -75 38.08 -75 34 C-72.61974609 33.21689453 -72.61974609 33.21689453 -70.19140625 32.41796875 C-35.30055419 20.87297891 -35.30055419 20.87297891 -4.171875 1.71484375 C-2 0 -2 0 0 0 Z " fill="#F9F8FA" transform="translate(345,289)"/>
<path d="M0 0 C0.495 0.99 0.495 0.99 1 2 C-17.19471014 14.68039157 -46.79605434 35 -70 35 C-70.5 32.375 -70.5 32.375 -70 29 C-67.63490683 26.54252038 -64.85177462 24.84497419 -62 23 C-61.43410156 22.52046875 -60.86820312 22.0409375 -60.28515625 21.546875 C-55.5640332 17.82136294 -51.29860331 17.65161372 -45.5 17.5 C-38.88382253 17.31534928 -33.86185727 16.98340371 -29 12 C-27.38830893 9.97763764 -25.90256571 7.95480927 -24.51953125 5.76953125 C-21.67296195 2.45463178 -18.56980698 2.0589246 -14.3359375 1.62109375 C-13.02882813 1.56050781 -11.72171875 1.49992187 -10.375 1.4375 C-5.09367507 1.21950965 -5.09367507 1.21950965 0 0 Z " fill="#F9F8FA" transform="translate(340,314)"/>
<path d="M0 0 C1.60488281 0.00483398 1.60488281 0.00483398 3.2421875 0.00976562 C4.35335937 0.01814453 5.46453125 0.02652344 6.609375 0.03515625 C8.29933594 0.04192383 8.29933594 0.04192383 10.0234375 0.04882812 C12.80213717 0.06060228 15.58072909 0.07704785 18.359375 0.09765625 C19.8200035 2.74504541 20.359375 3.99213959 20.359375 7.09765625 C17.90203262 7.58241734 15.44367592 8.06051559 12.984375 8.53515625 C12.30503906 8.66986328 11.62570313 8.80457031 10.92578125 8.94335938 C0.08714884 11.01991979 -10.69143269 11.33435 -21.703125 11.34765625 C-22.43307678 11.349328 -23.16302856 11.35099976 -23.9151001 11.35272217 C-50.7524975 11.35640791 -50.7524975 11.35640791 -58.640625 6.09765625 C-57.53654297 5.80761719 -57.53654297 5.80761719 -56.41015625 5.51171875 C-55.43433594 5.25132812 -54.45851562 4.9909375 -53.453125 4.72265625 C-52.49019531 4.46742188 -51.52726563 4.2121875 -50.53515625 3.94921875 C-47.65585775 3.15854016 -47.65585775 3.15854016 -45.046875 2.01953125 C-41.21771791 0.55251652 -37.67928998 0.51293371 -33.640625 1.09765625 C-31.6328125 1.99609375 -31.6328125 1.99609375 -29.703125 3.09765625 C-25.10666356 5.66653689 -20.80762022 5.99061012 -15.640625 5.09765625 C-12.29309942 3.28386633 -12.29309942 3.28386633 -9.640625 1.09765625 C-6.41893019 -0.00996416 -3.38767627 -0.01801955 0 0 Z " fill="#F9F8FB" transform="translate(220.640625,349.90234375)"/>
<path d="M0 0 C3.2186267 2.1213676 4.36898801 3.20652425 5.75 6.8125 C6.44064688 11.9113498 6.32148546 15.66952908 4 20.3125 C1.39900113 23.20249874 -0.54388214 24.54572521 -4.3984375 25.1484375 C-9.8430041 25.24395621 -12.99878427 24.54527479 -17.25 20.8125 C-19.83658398 16.57829745 -19.77825648 12.64227356 -19.25 7.8125 C-17.92859682 3.84829046 -16.95331341 2.29203187 -13.5 -0.0625 C-8.53227052 -1.78209867 -4.94379235 -1.80638567 0 0 Z " fill="#E4E0EA" transform="translate(437.25,232.1875)"/>
<path d="M0 0 C2.72024475 2.13733516 3.60478876 4.1201891 4.75 7.375 C5.05470556 11.82370122 4.22624625 14.66063063 1.75 18.375 C-1.78495016 20.73163344 -3.91495693 21.11621939 -8.09375 20.8515625 C-11.7783521 20.03721204 -13.19124615 18.46313077 -15.25 15.375 C-16.49623229 11.51167991 -16.67301292 8.3768727 -15.0625 4.5625 C-10.67684942 -0.73052656 -6.8461101 -1.90169725 0 0 Z " fill="#D5CEDF" transform="translate(56.25,246.625)"/>
<path d="M0 0 C2.79659888 2.18271132 3.76939596 3.66006916 4.37109375 7.15625 C4.5972908 11.26892363 4.34475039 13.44839938 2.125 17 C-1.14840013 20.08084718 -3.46126475 20.33387487 -7.9609375 20.29296875 C-11.13134567 19.83745033 -12.8192402 18.24684343 -15 16 C-16.73007568 12.53984865 -16.4835273 8.78327445 -16 5 C-12.01229156 -1.60034501 -6.98748958 -1.79101718 0 0 Z " fill="#D5CEDF" transform="translate(424,307)"/>
<path d="M0 0 C3.85940746 3.85940746 3.94344336 10.35985738 4.125 15.625 C4.08375 16.40875 4.0425 17.1925 4 18 C5.2375 17.979375 6.475 17.95875 7.75 17.9375 C10.6640825 17.93233319 13.20953327 18.06984442 16 19 C16 19.66 16 20.32 16 21 C14.54293274 21.50367757 13.08429904 22.00282556 11.625 22.5 C10.81289063 22.7784375 10.00078125 23.056875 9.1640625 23.34375 C7 24 7 24 5 24 C4.87882812 25.13179688 4.75765625 26.26359375 4.6328125 27.4296875 C4.46399724 28.91151031 4.29470145 30.39327842 4.125 31.875 C4.00705078 32.99455078 4.00705078 32.99455078 3.88671875 34.13671875 C3.2265625 39.7734375 3.2265625 39.7734375 1 42 C0.49309416 39.93918639 -0.00524619 37.87626474 -0.5 35.8125 C-0.7784375 34.66394531 -1.056875 33.51539063 -1.34375 32.33203125 C-1.91495385 29.43181171 -2.13283779 26.93903615 -2 24 C-2.69867188 23.87882812 -3.39734375 23.75765625 -4.1171875 23.6328125 C-5.02726562 23.46523438 -5.93734375 23.29765625 -6.875 23.125 C-7.77992188 22.96257812 -8.68484375 22.80015625 -9.6171875 22.6328125 C-12 22 -12 22 -14 20 C-9.82262526 18.40861915 -6.46839215 17.78721942 -2 18 C-2.04125 16.88625 -2.0825 15.7725 -2.125 14.625 C-2.14300722 9.60098664 -1.11958236 4.8781803 0 0 Z " fill="#B9ADCA" transform="translate(371,355)"/>
<path d="M0 0 C0.66 0.33 1.32 0.66 2 1 C2.63860769 3.69797102 3.16825242 6.33366623 3.625 9.0625 C3.7590625 9.82111328 3.893125 10.57972656 4.03125 11.36132812 C4.36200122 13.23952258 4.68200734 15.11960338 5 17 C10.94 17.99 10.94 17.99 17 19 C17 19.66 17 20.32 17 21 C13.04 21.99 9.08 22.98 5 24 C4.855625 25.85625 4.71125 27.7125 4.5625 29.625 C4.21748543 33.79474747 3.79952651 37.88814936 3 42 C2.34 42 1.68 42 1 42 C-0.32 36.06 -1.64 30.12 -3 24 C-6.3 23.01 -9.6 22.02 -13 21 C-13 20.34 -13 19.68 -13 19 C-9.37 18.67 -5.74 18.34 -2 18 C-1.93941406 17.11957031 -1.87882812 16.23914063 -1.81640625 15.33203125 C-1.73261719 14.17058594 -1.64882812 13.00914062 -1.5625 11.8125 C-1.48128906 10.66394531 -1.40007812 9.51539063 -1.31640625 8.33203125 C-1.04596188 5.48401829 -0.62478253 2.78789518 0 0 Z " fill="#B9ADCA" transform="translate(74,161)"/>
<path d="M0 0 C1.21236328 0.01353516 1.21236328 0.01353516 2.44921875 0.02734375 C3.37154297 0.04474609 3.37154297 0.04474609 4.3125 0.0625 C4.8075 1.5475 4.8075 1.5475 5.3125 3.0625 C-21.49880671 8.15325444 -53.72308261 13.30100547 -79.6875 2.0625 C-76.37459668 0.95819889 -75.53913951 1.18918059 -72.2578125 1.984375 C-64.30553005 3.53667726 -56.34482145 3.36115881 -48.27441406 3.32324219 C-45.58895851 3.31260481 -42.90418415 3.32314034 -40.21875 3.3359375 C-26.74469901 3.34647112 -13.13247254 -0.19032569 0 0 Z " fill="#EBE7EF" transform="translate(221.6875,324.9375)"/>
<path d="M0 0 C0.495 1.485 0.495 1.485 1 3 C-21.93843709 9.79876357 -49.76871109 11.50118226 -73 5 C-73.66 4.34 -74.32 3.68 -75 3 C-74.37706055 3.06928711 -73.75412109 3.13857422 -73.11230469 3.20996094 C-65.15340613 4.0217397 -57.2472528 4.23060247 -49.25 4.25 C-48.24285446 4.25300613 -48.24285446 4.25300613 -47.21536255 4.256073 C-33.48261221 4.26603768 -20.14195182 2.79805171 -6.62890625 0.40234375 C-4 0 -4 0 0 0 Z " fill="#F2F0F5" transform="translate(245,362)"/>
<path d="M0 0 C-1.34954197 4.04862592 -4.00444139 5.34011471 -7.4375 7.5625 C-8.1078125 7.99941162 -8.778125 8.43632324 -9.46875 8.88647461 C-24.61612139 18.62382143 -40.057651 25.89229562 -57 32 C-57.79792969 32.28810547 -58.59585937 32.57621094 -59.41796875 32.87304688 C-70.98150978 37 -70.98150978 37 -76 37 C-75.67 36.01 -75.34 35.02 -75 34 C-72.50097656 32.87182617 -72.50097656 32.87182617 -69.140625 31.79296875 C-67.8932959 31.37837402 -66.6459668 30.9637793 -65.36083984 30.53662109 C-64.6912323 30.31770203 -64.02162476 30.09878296 -63.33172607 29.87322998 C-51.33033833 25.9199186 -39.75113596 21.37488075 -28.375 15.875 C-27.22290039 15.32610107 -26.07080078 14.77720215 -24.88378906 14.21166992 C-17.6105032 10.62522767 -11.10688454 6.48460029 -4.56884766 1.72705078 C-2 0 -2 0 0 0 Z " fill="#F4F2F6" transform="translate(346,279)"/>
<path d="M0 0 C0 0.99 0 1.98 0 3 C-17.83965781 18.88689378 -44.09410477 28.71823443 -67 34 C-67 32.68 -67 31.36 -67 30 C-65.93023926 29.66174194 -65.93023926 29.66174194 -64.83886719 29.31665039 C-30.61115616 18.47949618 -30.61115616 18.47949618 0 0 Z " fill="#F4F2F6" transform="translate(337,325)"/>
<path d="M0 0 C0.66 0.33 1.32 0.66 2 1 C2.6328125 3.14453125 2.6328125 3.14453125 3.125 5.8125 C3.29257812 6.68519531 3.46015625 7.55789062 3.6328125 8.45703125 C4 11 4 11 4 15 C5.093125 14.979375 6.18625 14.95875 7.3125 14.9375 C11 15 11 15 14 16 C14 16.66 14 17.32 14 18 C11.03 18.66 8.06 19.32 5 20 C4.34 24.95 3.68 29.9 3 35 C2.34 35 1.68 35 1 35 C0.01 30.05 -0.98 25.1 -2 20 C-6.455 19.01 -6.455 19.01 -11 18 C-11 17.34 -11 16.68 -11 16 C-8.03 15.34 -5.06 14.68 -2 14 C-1.34 9.38 -0.68 4.76 0 0 Z " fill="#B9ADCA" transform="translate(406,160)"/>
<path d="M0 0 C3.32878632 2.46040728 4.79301948 3.89610387 5.5625 8 C4.84202557 11.8425303 3.99097304 13.45767292 1 16 C-1.82561523 16.7179842 -4.17277829 16.70536002 -7 16 C-9.5625 14 -9.5625 14 -11 11 C-11.29851924 7.0656695 -10.88490018 4.04877058 -8.3125 1 C-5.21285954 -0.34038506 -3.34840698 -0.54667869 0 0 Z " fill="#D5CEDF" transform="translate(176,416)"/>
<path d="M0 0 C2.09765625 0.375 2.09765625 0.375 4.16015625 1.875 C5.50468344 5.46040584 5.90697262 8.60589803 5.09765625 12.375 C3.03515625 14.9375 3.03515625 14.9375 0.09765625 16.375 C-3.36993317 16.31521398 -5.79061124 15.98465977 -8.83984375 14.3125 C-10.59293587 11.11568496 -10.38901507 7.88044411 -9.90234375 4.375 C-8.09470237 -0.44537702 -4.62330627 -0.24056228 0 0 Z " fill="#E4E0EA" transform="translate(117.90234375,183.625)"/>
<path d="M0 0 C2.09765625 0.375 2.09765625 0.375 4.16015625 1.875 C5.50468344 5.46040584 5.90697262 8.60589803 5.09765625 12.375 C3.03515625 14.9375 3.03515625 14.9375 0.09765625 16.375 C-3.36993317 16.31521398 -5.79061124 15.98465977 -8.83984375 14.3125 C-10.59293587 11.11568496 -10.38901507 7.88044411 -9.90234375 4.375 C-8.09470237 -0.44537702 -4.62330627 -0.24056228 0 0 Z " fill="#E4E0EA" transform="translate(312.90234375,153.625)"/>
<path d="M0 0 C1.9375 1.0625 1.9375 1.0625 3 3 C3.75471698 9.79245283 3.75471698 9.79245283 1.4375 13.5 C-1.94888329 15.58392818 -4.09385318 15.55802097 -8 15 C-10.4375 13.5 -10.4375 13.5 -12 11 C-12.61014545 8.1910285 -12.65360928 5.80363979 -12 3 C-8.3655827 -1.51548816 -5.40521016 -1.50144727 0 0 Z " fill="#D5CEDF" transform="translate(375,237)"/>
<path d="M0 0 C2.375 1.625 2.375 1.625 4 4 C4.61195145 7.6717087 4.48706506 9.28813568 2.375 12.375 C-0.71186432 14.48706506 -2.3282913 14.61195145 -6 14 C-8.4375 12.4375 -8.4375 12.4375 -10 10 C-9.93866496 6.5039028 -9.65265114 4.06485186 -7.8125 1.0625 C-5.04411529 -0.56034621 -3.14454533 -0.44922076 0 0 Z " fill="#D5CEDF" transform="translate(71,327)"/>
<path d="M0 0 C2.375 1.625 2.375 1.625 4 4 C4.61195145 7.6717087 4.48706506 9.28813568 2.375 12.375 C-0.71186432 14.48706506 -2.3282913 14.61195145 -6 14 C-8.4375 12.4375 -8.4375 12.4375 -10 10 C-9.93866496 6.5039028 -9.65265114 4.06485186 -7.8125 1.0625 C-5.04411529 -0.56034621 -3.14454533 -0.44922076 0 0 Z " fill="#D5CEDF" transform="translate(346,62)"/>
<path d="M0 0 C3.4375 0.8125 3.4375 0.8125 5.4375 3.8125 C4.98466981 10.26533019 4.98466981 10.26533019 2.4375 12.8125 C-3.70481015 13.4825702 -3.70481015 13.4825702 -6.5625 11.25 C-7.99385511 7.76107191 -7.496466 5.41494028 -6.5625 1.8125 C-3.5625 -0.1875 -3.5625 -0.1875 0 0 Z " fill="#E9E6EE" transform="translate(376.5625,300.1875)"/>
<path d="M0 0 C3.4375 0.8125 3.4375 0.8125 5.4375 3.8125 C4.98466981 10.26533019 4.98466981 10.26533019 2.4375 12.8125 C-3.70481015 13.4825702 -3.70481015 13.4825702 -6.5625 11.25 C-7.99385511 7.76107191 -7.496466 5.41494028 -6.5625 1.8125 C-3.5625 -0.1875 -3.5625 -0.1875 0 0 Z " fill="#E9E6EE" transform="translate(206.5625,35.1875)"/>
<path d="M0 0 C3.5 0.4375 3.5 0.4375 5.4375 1.5625 C6.98724515 4.29734439 6.82162076 6.3499407 6.5 9.4375 C4.5 12.4375 4.5 12.4375 1.625 13.25 C-1.5 13.4375 -1.5 13.4375 -3.8125 12.9375 C-5.5 11.4375 -5.5 11.4375 -6.4375 8.0625 C-6.5 4.4375 -6.5 4.4375 -5.5 2 C-3.5 0.4375 -3.5 0.4375 0 0 Z " fill="#E9E6EE" transform="translate(95.5,287.5625)"/>
<path d="M0 0 C1.875 1.0625 1.875 1.0625 3 3 C3.63316583 8.90954774 3.63316583 8.90954774 1.875 11.9375 C-0.88980433 13.50422245 -2.88188517 13.38976435 -6 13 C-7.875 11.9375 -7.875 11.9375 -9 10 C-9.63316583 4.09045226 -9.63316583 4.09045226 -7.875 1.0625 C-5.11019567 -0.50422245 -3.11811483 -0.38976435 0 0 Z " fill="#E9E6EE" transform="translate(76,120)"/>
<path d="M0 0 C-1.34982304 4.04946912 -4.00491822 5.33842688 -7.4375 7.5625 C-8.09258545 7.99288574 -8.7476709 8.42327148 -9.42260742 8.86669922 C-14.77024787 12.32410123 -20.2542127 15.5197395 -25.8125 18.625 C-26.59488037 19.06271729 -27.37726074 19.50043457 -28.18334961 19.95141602 C-33.74224334 23 -33.74224334 23 -36 23 C-35.75097656 21.14135742 -35.75097656 21.14135742 -35 19 C-33.25683594 17.77075195 -33.25683594 17.77075195 -30.984375 16.73828125 C-29.73406494 16.14926025 -29.73406494 16.14926025 -28.45849609 15.54833984 C-27.56469238 15.1405127 -26.67088867 14.73268555 -25.75 14.3125 C-18.0572337 10.66176546 -11.16521094 6.69086365 -4.3359375 1.6171875 C-2 0 -2 0 0 0 Z " fill="#EFECF3" transform="translate(346,279)"/>
<path d="M0 0 C0.33 0.99 0.66 1.98 1 3 C-1.90766886 7.93039503 -5.94290678 9.80286484 -11 12 C-10.51780822 4.76712329 -10.51780822 4.76712329 -8.3125 1.5 C-5.37616329 -0.40465084 -3.43370148 -0.31215468 0 0 Z " fill="#F4F2F7" transform="translate(216,124)"/>
<path d="M0 0 C1.134375 0.020625 2.26875 0.04125 3.4375 0.0625 C4.76591008 5.49690487 4.76591008 5.49690487 3.3125 8 C1.4375 9.0625 1.4375 9.0625 -1.1875 8.8125 C-3.5625 8.0625 -3.5625 8.0625 -4.5625 7.0625 C-4.6875 4.0625 -4.6875 4.0625 -4.5625 1.0625 C-3.5625 0.0625 -3.5625 0.0625 0 0 Z " fill="#8A76A6" transform="translate(441.5625,124.9375)"/>
<path d="M0 0 C1.2684375 0.12375 1.2684375 0.12375 2.5625 0.25 C4.7144437 3.47791555 4.76336443 4.53400809 4.5625 8.25 C-2.1875 9.375 -2.1875 9.375 -4.4375 8.25 C-3.43230397 0.35203118 -3.43230397 0.35203118 0 0 Z " fill="#8A76A6" transform="translate(355.4375,437.75)"/>
<path d="M0 0 C2.33944736 0.28730055 4.6739143 0.61936779 7 1 C7.6875 3.3125 7.6875 3.3125 8 6 C6.875 7.875 6.875 7.875 5 9 C0.57894737 8.57894737 0.57894737 8.57894737 -1 7 C-1.125 4 -1.125 4 -1 1 C-0.67 0.67 -0.34 0.34 0 0 Z " fill="#8A76A6" transform="translate(46,363)"/>
<path d="M0 0 C2.375 0.6875 2.375 0.6875 3.375 1.6875 C3.08769945 4.02694736 2.75563221 6.3614143 2.375 8.6875 C-0.5 8.8125 -0.5 8.8125 -3.625 8.6875 C-5.625 6.6875 -5.625 6.6875 -5.9375 4.1875 C-5.834375 3.3625 -5.73125 2.5375 -5.625 1.6875 C-2.625 -0.3125 -2.625 -0.3125 0 0 Z " fill="#8A76A6" transform="translate(437.625,358.3125)"/>
<path d="M0 0 C1.2375 0.1546875 1.2375 0.1546875 2.5 0.3125 C4.5 3.3125 4.5 3.3125 4.125 6 C3.91875 6.763125 3.7125 7.52625 3.5 8.3125 C0.625 8.9375 0.625 8.9375 -2.5 9.3125 C-4.5 7.3125 -4.5 7.3125 -4.75 4.8125 C-4.40047575 1.3172575 -3.47557682 0.4344471 0 0 Z " fill="#8A76A6" transform="translate(320.5,452.6875)"/>
<path d="M0 0 C1.2375 0.1546875 1.2375 0.1546875 2.5 0.3125 C4.5 3.3125 4.5 3.3125 4.125 6 C3.91875 6.763125 3.7125 7.52625 3.5 8.3125 C0.625 8.9375 0.625 8.9375 -2.5 9.3125 C-4.5 7.3125 -4.5 7.3125 -4.75 4.8125 C-4.40047575 1.3172575 -3.47557682 0.4344471 0 0 Z " fill="#8A76A6" transform="translate(332.5,448.6875)"/>
<path d="M0 0 C3.125 0.375 3.125 0.375 6 1 C6.625 3.3125 6.625 3.3125 7 6 C6.01 7.485 6.01 7.485 5 9 C2.5 9.3125 2.5 9.3125 0 9 C-2 7 -2 7 -2.25 4.5 C-2 2 -2 2 0 0 Z " fill="#8A76A6" transform="translate(142,445)"/>
<path d="M0 0 C1.2375 0.1546875 1.2375 0.1546875 2.5 0.3125 C4.5 3.3125 4.5 3.3125 4.125 6 C3.91875 6.763125 3.7125 7.52625 3.5 8.3125 C0.625 8.9375 0.625 8.9375 -2.5 9.3125 C-4.5 7.3125 -4.5 7.3125 -4.75 4.8125 C-4.40047575 1.3172575 -3.47557682 0.4344471 0 0 Z " fill="#8A76A6" transform="translate(344.5,443.6875)"/>
<path d="M0 0 C0.763125 0.20625 1.52625 0.4125 2.3125 0.625 C2.9375 2.9375 2.9375 2.9375 3.3125 5.625 C2.3225 7.11 2.3225 7.11 1.3125 8.625 C-1.1875 8.9375 -1.1875 8.9375 -3.6875 8.625 C-5.6875 6.625 -5.6875 6.625 -6 4.125 C-5.896875 3.3 -5.79375 2.475 -5.6875 1.625 C-2.6875 -0.375 -2.6875 -0.375 0 0 Z " fill="#8A76A6" transform="translate(443.6875,347.375)"/>
<path d="M0 0 C1.2375 0.1546875 1.2375 0.1546875 2.5 0.3125 C4.5 3.3125 4.5 3.3125 4.125 6 C3.91875 6.763125 3.7125 7.52625 3.5 8.3125 C0.625 8.9375 0.625 8.9375 -2.5 9.3125 C-4.5 7.3125 -4.5 7.3125 -4.75 4.8125 C-4.40047575 1.3172575 -3.47557682 0.4344471 0 0 Z " fill="#8A76A6" transform="translate(451.5,147.6875)"/>
<path d="M0 0 C1.2375 0.1546875 1.2375 0.1546875 2.5 0.3125 C4.5 3.3125 4.5 3.3125 4.125 6 C3.91875 6.763125 3.7125 7.52625 3.5 8.3125 C0.625 8.9375 0.625 8.9375 -2.5 9.3125 C-4.5 7.3125 -4.5 7.3125 -4.75 4.8125 C-4.40047575 1.3172575 -3.47557682 0.4344471 0 0 Z " fill="#8A76A6" transform="translate(446.5,135.6875)"/>
<path d="M0 0 C2.33944736 0.28730055 4.6739143 0.61936779 7 1 C7.625 3.3125 7.625 3.3125 8 6 C7.01 7.485 7.01 7.485 6 9 C3.03 8.505 3.03 8.505 0 8 C-0.38063221 5.6739143 -0.71269945 3.33944736 -1 1 C-0.67 0.67 -0.34 0.34 0 0 Z " fill="#8A76A6" transform="translate(38,130)"/>
<path d="M0 0 C3.29714793 0.32971479 4.6226839 0.6226839 7 3 C6.625 6.125 6.625 6.125 6 9 C3.125 9.125 3.125 9.125 0 9 C-2 7 -2 7 -2.25 4.5 C-2 2 -2 2 0 0 Z " fill="#8A76A6" transform="translate(45,118)"/>
<path d="M0 0 C3.0625 0.1875 3.0625 0.1875 5.0625 2.1875 C4.73278521 5.48464793 4.4398161 6.8101839 2.0625 9.1875 C-2.49305556 8.63194444 -2.49305556 8.63194444 -3.9375 7.1875 C-4.0625 4.1875 -4.0625 4.1875 -3.9375 1.1875 C-2.9375 0.1875 -2.9375 0.1875 0 0 Z " fill="#8A76A6" transform="translate(105.9375,51.8125)"/>
<path d="M0 0 C2.625 0.25 2.625 0.25 4.5 1.4375 C5.625 3.25 5.625 3.25 5.3125 5.9375 C5.085625 6.700625 4.85875 7.46375 4.625 8.25 C1.75 8.875 1.75 8.875 -1.375 9.25 C-3.375 7.25 -3.375 7.25 -3.5625 4.1875 C-3.31750282 0.34921082 -3.31750282 0.34921082 0 0 Z " fill="#8A76A6" transform="translate(127.375,37.75)"/>
<path d="M0 0 C3.125 0.375 3.125 0.375 6 1 C6.625 3.875 6.625 3.875 7 7 C5 9 5 9 2.5 9.25 C0 9 0 9 -2 7 C-2.25 4.5 -2.25 4.5 -2 2 C-1.34 1.34 -0.68 0.68 0 0 Z " fill="#8A76A6" transform="translate(349,36)"/>
<path d="M0 0 C1.2684375 0.12375 1.2684375 0.12375 2.5625 0.25 C4.5625 3.25 4.5625 3.25 4.1875 5.9375 C3.98125 6.700625 3.775 7.46375 3.5625 8.25 C-2.1875 9.375 -2.1875 9.375 -4.4375 8.25 C-3.43230397 0.35203118 -3.43230397 0.35203118 0 0 Z " fill="#8A76A6" transform="translate(139.4375,31.75)"/>
<path d="M0 0 C3.125 0.375 3.125 0.375 6 1 C6.625 3.3125 6.625 3.3125 7 6 C6.01 7.485 6.01 7.485 5 9 C2.5 9.3125 2.5 9.3125 0 9 C-2 7 -2 7 -2.25 4.5 C-2 2 -2 2 0 0 Z " fill="#8A76A6" transform="translate(337,31)"/>
<path d="M0 0 C1.2375 0.1546875 1.2375 0.1546875 2.5 0.3125 C4.5 3.3125 4.5 3.3125 4.125 6 C3.91875 6.763125 3.7125 7.52625 3.5 8.3125 C0.625 8.9375 0.625 8.9375 -2.5 9.3125 C-4.5 7.3125 -4.5 7.3125 -4.75 4.8125 C-4.40047575 1.3172575 -3.47557682 0.4344471 0 0 Z " fill="#8A76A6" transform="translate(151.5,26.6875)"/>
<path d="M0 0 C2.875 -0.125 2.875 -0.125 6 0 C6.66 0.66 7.32 1.32 8 2 C7.625 5.125 7.625 5.125 7 8 C4.6875 8.625 4.6875 8.625 2 9 C1.01 8.34 0.02 7.68 -1 7 C-0.67 4.69 -0.34 2.38 0 0 Z " fill="#8A76A6" transform="translate(178,457)"/>
<path d="M0 0 C2.33944736 0.28730055 4.6739143 0.61936779 7 1 C7.6875 3.3125 7.6875 3.3125 8 6 C6.875 7.875 6.875 7.875 5 9 C2.3125 8.6875 2.3125 8.6875 0 8 C-0.38063221 5.6739143 -0.71269945 3.33944736 -1 1 C-0.67 0.67 -0.34 0.34 0 0 Z " fill="#8A76A6" transform="translate(130,440)"/>
<path d="M0 0 C3.125 0.375 3.125 0.375 6 1 C6.625 3.3125 6.625 3.3125 7 6 C6.01 7.485 6.01 7.485 5 9 C-0.875 8.125 -0.875 8.125 -2 7 C-2.1875 4.5625 -2.1875 4.5625 -2 2 C-1.34 1.34 -0.68 0.68 0 0 Z " fill="#8A76A6" transform="translate(446,335)"/>
<path d="M0 0 C1.2684375 0.12375 1.2684375 0.12375 2.5625 0.25 C4.5625 3.25 4.5625 3.25 4.1875 5.9375 C3.98125 6.700625 3.775 7.46375 3.5625 8.25 C1.5825 8.58 -0.3975 8.91 -2.4375 9.25 C-4.4375 6.25 -4.4375 6.25 -4.125 3.625 C-3.16976704 0.32510431 -3.16976704 0.32510431 0 0 Z " fill="#8A76A6" transform="translate(32.4375,328.75)"/>
<path d="M0 0 C2.625 0.375 2.625 0.375 5 1 C5.38063221 3.3260857 5.71269945 5.66055264 6 8 C5 9 5 9 2.0625 9.1875 C-1 9 -1 9 -3 7 C-2.67028521 3.70285207 -2.3773161 2.3773161 0 0 Z " fill="#8A76A6" transform="translate(458,172)"/>
<path d="M0 0 C3.125 0.375 3.125 0.375 6 1 C6.625 3.3125 6.625 3.3125 7 6 C6.01 7.485 6.01 7.485 5 9 C-0.875 8.125 -0.875 8.125 -2 7 C-2.1875 4.5625 -2.1875 4.5625 -2 2 C-1.34 1.34 -0.68 0.68 0 0 Z " fill="#8A76A6" transform="translate(29,153)"/>
<path d="M0 0 C0.763125 0.20625 1.52625 0.4125 2.3125 0.625 C3.4375 6.375 3.4375 6.375 2.3125 8.625 C0.0025 8.625 -2.3075 8.625 -4.6875 8.625 C-5.0175 6.315 -5.3475 4.005 -5.6875 1.625 C-2.6875 -0.375 -2.6875 -0.375 0 0 Z " fill="#8A76A6" transform="translate(374.6875,49.375)"/>
<path d="M0 0 C1.9375 0.75 1.9375 0.75 3.9375 2.75 C3.5625 5.875 3.5625 5.875 2.9375 8.75 C0.0625 8.875 0.0625 8.875 -3.0625 8.75 C-5.0625 6.75 -5.0625 6.75 -5.375 4.25 C-5.271875 3.425 -5.16875 2.6 -5.0625 1.75 C-2.0625 -0.25 -2.0625 -0.25 0 0 Z " fill="#8A76A6" transform="translate(363.0625,42.25)"/>
<path d="M0 0 C1.2684375 0.12375 1.2684375 0.12375 2.5625 0.25 C4.5625 3.25 4.5625 3.25 4.1875 5.9375 C3.98125 6.700625 3.775 7.46375 3.5625 8.25 C1.5825 8.58 -0.3975 8.91 -2.4375 9.25 C-4.4375 6.25 -4.4375 6.25 -4.125 3.625 C-3.16976704 0.32510431 -3.16976704 0.32510431 0 0 Z " fill="#8A76A6" transform="translate(163.4375,22.75)"/>
<path d="M0 0 C2.875 -0.125 2.875 -0.125 6 0 C8 2 8 2 8.3125 4.5 C8.1578125 5.7375 8.1578125 5.7375 8 7 C5 9 5 9 2.3125 8.625 C1.549375 8.41875 0.78625 8.2125 0 8 C-0.79953138 4.71303767 -1.09658936 3.28976808 0 0 Z " fill="#8A76A6" transform="translate(384,417)"/>
<path d="M0 0 C2.875 -0.1875 2.875 -0.1875 6 0 C8 3 8 3 7.75 5.0625 C7 7 7 7 5 9 C1.875 8.625 1.875 8.625 -1 8 C-1.125 2.25 -1.125 2.25 0 0 Z " fill="#8A76A6" transform="translate(69,394)"/>
<path d="M0 0 C2.875 -0.1875 2.875 -0.1875 6 0 C8 3 8 3 7.6875 5.125 C7 7 7 7 6 8 C4.00041636 8.04080783 1.99954746 8.04254356 0 8 C-1.125 6.25 -1.125 6.25 -2 4 C-1.125 1.75 -1.125 1.75 0 0 Z " fill="#8A76A6" transform="translate(21,305)"/>
<path d="M0 0 C1 1 1 1 1.0625 4.5625 C1.041875 5.696875 1.02125 6.83125 1 8 C-4.43440487 9.32841008 -4.43440487 9.32841008 -6.9375 7.875 C-8 6 -8 6 -7.8125 3.375 C-6.42010387 -0.69508098 -3.8826193 -0.19910868 0 0 Z " fill="#8A76A6" transform="translate(24,292)"/>
<path d="M0 0 C2.375 0.375 2.375 0.375 3.375 1.375 C3.625 4.3125 3.625 4.3125 3.375 7.375 C0.375 9.375 0.375 9.375 -2.3125 9 C-3.075625 8.79375 -3.83875 8.5875 -4.625 8.375 C-5.625 5.375 -5.625 5.375 -4.5 2.6875 C-2.625 0.375 -2.625 0.375 0 0 Z " fill="#8A76A6" transform="translate(456.625,159.625)"/>
<path d="M0 0 C1.010625 0.0825 2.02125 0.165 3.0625 0.25 C5.0625 3.25 5.0625 3.25 4.8125 5.3125 C4.0625 7.25 4.0625 7.25 2.0625 9.25 C-0.20024788 8.89644564 -1.88838852 8.27455574 -3.9375 7.25 C-3.98004356 5.25045254 -3.97830783 3.24958364 -3.9375 1.25 C-2.9375 0.25 -2.9375 0.25 0 0 Z " fill="#8A76A6" transform="translate(60.9375,96.75)"/>
<path d="M0 0 C2.625 -0.1875 2.625 -0.1875 5 0 C5 0.66 5 1.32 5 2 C5.66 2 6.32 2 7 2 C7 3.65 7 5.3 7 7 C6.34 7 5.68 7 5 7 C5 7.66 5 8.32 5 9 C2.03 8.505 2.03 8.505 -1 8 C-1.625 5.6875 -1.625 5.6875 -2 3 C-1.34 2.01 -0.68 1.02 0 0 Z " fill="#8A76A6" transform="translate(75,77)"/>
<path d="M0 0 C2.875 -0.1875 2.875 -0.1875 6 0 C8 3 8 3 7.75 5.0625 C7 7 7 7 5 9 C1.875 8.625 1.875 8.625 -1 8 C-1.125 2.25 -1.125 2.25 0 0 Z " fill="#8A76A6" transform="translate(93,60)"/>
<path d="M0 0 C2.64 0 5.28 0 8 0 C8.04241723 2.33294775 8.04092937 4.66702567 8 7 C7 8 7 8 3.9375 8.0625 C2.968125 8.041875 1.99875 8.02125 1 8 C0.26919734 6.02253397 -0.39421747 4.01927511 -1 2 C-0.67 1.34 -0.34 0.68 0 0 Z " fill="#8A76A6" transform="translate(190,460)"/>
<path d="M0 0 C3.125 -0.1875 3.125 -0.1875 6 0 C6.625 3.375 6.625 3.375 7 7 C6.34 7.66 5.68 8.32 5 9 C2.5 8.9375 2.5 8.9375 0 8 C-1.4375 5.625 -1.4375 5.625 -2 3 C-1.34 2.01 -0.68 1.02 0 0 Z " fill="#8A76A6" transform="translate(364,432)"/>
<path d="M0 0 C1.010625 0.0825 2.02125 0.165 3.0625 0.25 C5.0625 3.25 5.0625 3.25 4.8125 5.3125 C4.0625 7.25 4.0625 7.25 2.0625 9.25 C-0.5625 8.875 -0.5625 8.875 -2.9375 8.25 C-3.31813221 5.9239143 -3.65019945 3.58944736 -3.9375 1.25 C-2.9375 0.25 -2.9375 0.25 0 0 Z " fill="#8A76A6" transform="translate(55.9375,373.75)"/>
<path d="M0 0 C2.97 0.495 2.97 0.495 6 1 C6.625 3.3125 6.625 3.3125 7 6 C6.01 7.485 6.01 7.485 5 9 C2.03 8.505 2.03 8.505 -1 8 C-1.625 5.6875 -1.625 5.6875 -2 3 C-1.34 2.01 -0.68 1.02 0 0 Z " fill="#8A76A6" transform="translate(458,299)"/>
<path d="M0 0 C3.125 0.375 3.125 0.375 6 1 C6.625 3.3125 6.625 3.3125 7 6 C6.01 7.485 6.01 7.485 5 9 C2.375 9.1875 2.375 9.1875 0 9 C-0.66 6.69 -1.32 4.38 -2 2 C-1.34 1.34 -0.68 0.68 0 0 Z " fill="#8A76A6" transform="translate(33,141)"/>
<path d="M0 0 C2 3 2 3 1.75 5.0625 C1 7 1 7 -1 9 C-3.26274788 8.64644564 -4.95088852 8.02455574 -7 7 C-7 5.02 -7 3.04 -7 1 C-4.46578263 -0.26710868 -2.80561762 -0.28056176 0 0 Z " fill="#8A76A6" transform="translate(72,87)"/>
<path d="M0 0 C1 1 1 1 1.0625 3.5625 C1.041875 4.366875 1.02125 5.17125 1 6 C0.34 6 -0.32 6 -1 6 C-1 6.66 -1 7.32 -1 8 C-3.375 8.1875 -3.375 8.1875 -6 8 C-8 5 -8 5 -7.75 2.375 C-7.5025 1.59125 -7.255 0.8075 -7 0 C-4.31633121 -1.3418344 -2.84719317 -0.73004953 0 0 Z " fill="#8A76A6" transform="translate(90,69)"/>
<path d="M0 0 C5.56818182 0.56818182 5.56818182 0.56818182 7 2 C7.04080783 3.99958364 7.04254356 6.00045254 7 8 C4.6875 8.625 4.6875 8.625 2 9 C-1 7 -1 7 -1.8125 4.5 C-1.874375 3.675 -1.93625 2.85 -2 2 C-1.34 1.34 -0.68 0.68 0 0 Z " fill="#8A76A6" transform="translate(325,26)"/>
<path d="M0 0 C3.125 -0.1875 3.125 -0.1875 6 0 C7.125 2.3125 7.125 2.3125 8 5 C7.01 6.485 7.01 6.485 6 8 C2.875 8.1875 2.875 8.1875 0 8 C-1.125 5.6875 -1.125 5.6875 -2 3 C-1.34 2.01 -0.68 1.02 0 0 Z " fill="#8A76A6" transform="translate(229,464)"/>
<path d="M0 0 C1.99954746 -0.04254356 4.00041636 -0.04080783 6 0 C7 1 7 1 7.0625 4.5625 C7.041875 5.696875 7.02125 6.83125 7 8 C4.69 8 2.38 8 0 8 C-1.125 6.25 -1.125 6.25 -2 4 C-1.125 1.75 -1.125 1.75 0 0 Z " fill="#8A76A6" transform="translate(280,462)"/>
<path d="M0 0 C0.125 2.875 0.125 2.875 0 6 C-2 8 -2 8 -4.625 8.125 C-5.40875 8.08375 -6.1925 8.0425 -7 8 C-8.35439668 5.29120665 -8.06501451 2.99066732 -8 0 C-5.13822943 -1.43088528 -3.06624227 -0.59991697 0 0 Z " fill="#8A76A6" transform="translate(115,428)"/>
<path d="M0 0 C0.125 2.375 0.125 2.375 0 5 C-0.66 5.66 -1.32 6.32 -2 7 C-5.625 6.625 -5.625 6.625 -9 6 C-9 4.02 -9 2.04 -9 0 C-5.93109813 -1.53445094 -3.29905734 -0.54984289 0 0 Z " fill="#8A76A6" transform="translate(105,421)"/>
<path d="M0 0 C1.98 0 3.96 0 6 0 C6.33 2.31 6.66 4.62 7 7 C6.34 7 5.68 7 5 7 C5 7.66 5 8.32 5 9 C3.33388095 9.042721 1.66617115 9.04063832 0 9 C-1 8 -1 8 -1.125 5.0625 C-1 2 -1 2 0 0 Z " fill="#8A76A6" transform="translate(61,384)"/>
<path d="M0 0 C2.31 0.33 4.62 0.66 7 1 C7.125 3.875 7.125 3.875 7 7 C6.34 7.66 5.68 8.32 5 9 C1.70720291 8.68134222 0.13464912 7.45484649 -2 5 C-1.34 3.35 -0.68 1.7 0 0 Z " fill="#8A76A6" transform="translate(420,380)"/>
<path d="M0 0 C3.0625 -0.25 3.0625 -0.25 6 0 C7 1 7 1 7.0625 4.5625 C7.041875 5.696875 7.02125 6.83125 7 8 C4.69 8 2.38 8 0 8 C-1.125 5.6875 -1.125 5.6875 -2 3 C-1.34 2.01 -0.68 1.02 0 0 Z " fill="#8A76A6" transform="translate(14,267)"/>
<path d="M0 0 C1 1 1 1 1.0625 3.5625 C1.041875 4.366875 1.02125 5.17125 1 6 C-1.35438733 7.42944945 -2.48032433 8.08661261 -5.25 7.625 C-5.8275 7.41875 -6.405 7.2125 -7 7 C-7.93423645 3.98968256 -8.04449911 3.13349732 -7 0 C-4.31633121 -1.3418344 -2.84719317 -0.73004953 0 0 Z " fill="#8A76A6" transform="translate(470,211)"/>
<path d="M0 0 C2.64 0 5.28 0 8 0 C8.04241723 2.33294775 8.04092937 4.66702567 8 7 C7 8 7 8 3.9375 8.0625 C2.968125 8.041875 1.99875 8.02125 1 8 C-1.125 3.375 -1.125 3.375 0 0 Z " fill="#8A76A6" transform="translate(461,198)"/>
<path d="M0 0 C0.125 2.875 0.125 2.875 0 6 C-0.66 6.66 -1.32 7.32 -2 8 C-5.125 7.625 -5.125 7.625 -8 7 C-8.6875 4.6875 -8.6875 4.6875 -9 2 C-6.73607469 -1.99516231 -4.01344788 -0.98106504 0 0 Z " fill="#8A76A6" transform="translate(25,191)"/>
<path d="M0 0 C0.94875 0.04125 1.8975 0.0825 2.875 0.125 C3.25563221 2.4510857 3.58769945 4.78555264 3.875 7.125 C2.875 8.125 2.875 8.125 -0.6875 8.1875 C-1.821875 8.166875 -2.95625 8.14625 -4.125 8.125 C-4.75 5.25 -4.75 5.25 -5.125 2.125 C-3.125 0.125 -3.125 0.125 0 0 Z " fill="#8A76A6" transform="translate(463.125,184.875)"/>
<path d="M0 0 C2.31 0 4.62 0 7 0 C7.79953138 3.28696233 8.09658936 4.71023192 7 8 C4.125 8.125 4.125 8.125 1 8 C0.34 7.34 -0.32 6.68 -1 6 C-0.625 2.875 -0.625 2.875 0 0 Z " fill="#8A76A6" transform="translate(20,178)"/>
<path d="M0 0 C2.375 0.75 2.375 0.75 3.375 1.75 C3.41580783 3.74958364 3.41754356 5.75045254 3.375 7.75 C0.08803767 8.54953138 -1.33523192 8.84658936 -4.625 7.75 C-5.3125 5.4375 -5.3125 5.4375 -5.625 2.75 C-3.9659358 -0.015107 -3.22812218 -0.30744021 0 0 Z " fill="#8A76A6" transform="translate(27.625,165.25)"/>
<path d="M0 0 C0.94875 0.04125 1.8975 0.0825 2.875 0.125 C3.205 2.435 3.535 4.745 3.875 7.125 C-2.875 8.25 -2.875 8.25 -5.125 7.125 C-5.25 4.75 -5.25 4.75 -5.125 2.125 C-3.125 0.125 -3.125 0.125 0 0 Z " fill="#8A76A6" transform="translate(435.125,113.875)"/>
<path d="M0 0 C2.64 0 5.28 0 8 0 C8.125 5.75 8.125 5.75 7 8 C5.02 8 3.04 8 1 8 C0.26919734 6.02253397 -0.39421747 4.01927511 -1 2 C-0.67 1.34 -0.34 0.68 0 0 Z " fill="#8A76A6" transform="translate(287,17)"/>
<path d="M0 0 C2.31 0 4.62 0 7 0 C7.625 2.3125 7.625 2.3125 8 5 C7.01 6.485 7.01 6.485 6 8 C3.5 8.3125 3.5 8.3125 1 8 C0.34 7.34 -0.32 6.68 -1 6 C-0.625 2.875 -0.625 2.875 0 0 Z " fill="#8A76A6" transform="translate(203,462)"/>
<path d="M0 0 C1.99954746 -0.04254356 4.00041636 -0.04080783 6 0 C7 1 7 1 7.0625 4.0625 C7.041875 5.031875 7.02125 6.00125 7 7 C4.29120665 8.35439668 1.99066732 8.06501451 -1 8 C-1.93065133 5.39417629 -2.14917407 4.35801776 -1.0625 1.75 C-0.711875 1.1725 -0.36125 0.595 0 0 Z " fill="#8A76A6" transform="translate(293,460)"/>
<path d="M0 0 C1.99954746 -0.04254356 4.00041636 -0.04080783 6 0 C7 1 7 1 7.125 4 C7 7 7 7 6 8 C4.00041636 8.04080783 1.99954746 8.04254356 0 8 C-1.125 6.25 -1.125 6.25 -2 4 C-1.125 1.75 -1.125 1.75 0 0 Z " fill="#8A76A6" transform="translate(305,457)"/>
<path d="M0 0 C2.9375 0.1875 2.9375 0.1875 3.9375 1.1875 C4.0625 4.1875 4.0625 4.1875 3.9375 7.1875 C2.9375 8.1875 2.9375 8.1875 -0.125 8.25 C-1.094375 8.229375 -2.06375 8.20875 -3.0625 8.1875 C-3.7225 6.2075 -4.3825 4.2275 -5.0625 2.1875 C-3.0625 0.1875 -3.0625 0.1875 0 0 Z " fill="#8A76A6" transform="translate(169.0625,453.8125)"/>
<path d="M0 0 C1.4540625 0.0309375 1.4540625 0.0309375 2.9375 0.0625 C3.73703138 3.34946233 4.03408936 4.77273192 2.9375 8.0625 C0.0625 8.1875 0.0625 8.1875 -3.0625 8.0625 C-3.7225 7.4025 -4.3825 6.7425 -5.0625 6.0625 C-4.33395709 0.0884481 -4.33395709 0.0884481 0 0 Z " fill="#8A76A6" transform="translate(157.0625,449.9375)"/>
<path d="M0 0 C2.5625 0.1875 2.5625 0.1875 4.5625 2.1875 C4.8125 4.6875 4.8125 4.6875 4.5625 7.1875 C3.9025 7.8475 3.2425 8.5075 2.5625 9.1875 C-1.99305556 8.63194444 -1.99305556 8.63194444 -3.4375 7.1875 C-3.5625 4.1875 -3.5625 4.1875 -3.4375 1.1875 C-2.4375 0.1875 -2.4375 0.1875 0 0 Z " fill="#8A76A6" transform="translate(414.4375,389.8125)"/>
<path d="M0 0 C1.2684375 0.12375 1.2684375 0.12375 2.5625 0.25 C4.7144437 3.47791555 4.76336443 4.53400809 4.5625 8.25 C1.6875 8.875 1.6875 8.875 -1.4375 9.25 C-3.4375 7.25 -3.4375 7.25 -3.625 4.1875 C-3.37983937 0.34665019 -3.37983937 0.34665019 0 0 Z " fill="#8A76A6" transform="translate(42.4375,351.75)"/>
<path d="M0 0 C2.31 0 4.62 0 7 0 C7.33 1.98 7.66 3.96 8 6 C5 8 5 8 1.8125 7.625 C0.884375 7.41875 -0.04375 7.2125 -1 7 C-0.67 4.69 -0.34 2.38 0 0 Z " fill="#8A76A6" transform="translate(34,341)"/>
<path d="M0 0 C2.9375 0.1875 2.9375 0.1875 3.9375 1.1875 C4.0625 4.1875 4.0625 4.1875 3.9375 7.1875 C2.9375 8.1875 2.9375 8.1875 -0.125 8.25 C-1.094375 8.229375 -2.06375 8.20875 -3.0625 8.1875 C-3.7225 6.2075 -4.3825 4.2275 -5.0625 2.1875 C-3.0625 0.1875 -3.0625 0.1875 0 0 Z " fill="#8A76A6" transform="translate(453.0625,323.8125)"/>
<path d="M0 0 C1.99954746 -0.04254356 4.00041636 -0.04080783 6 0 C7 1 7 1 7.125 4 C7 7 7 7 6 8 C4.00041636 8.04080783 1.99954746 8.04254356 0 8 C-1.125 6.25 -1.125 6.25 -2 4 C-1.125 1.75 -1.125 1.75 0 0 Z " fill="#8A76A6" transform="translate(25,317)"/>
<path d="M0 0 C2.9375 0.1875 2.9375 0.1875 3.9375 1.1875 C4.0625 4.1875 4.0625 4.1875 3.9375 7.1875 C2.9375 8.1875 2.9375 8.1875 -0.125 8.25 C-1.094375 8.229375 -2.06375 8.20875 -3.0625 8.1875 C-3.7225 6.2075 -4.3825 4.2275 -5.0625 2.1875 C-3.0625 0.1875 -3.0625 0.1875 0 0 Z " fill="#8A76A6" transform="translate(457.0625,311.8125)"/>
<path d="M0 0 C2.33294775 -0.04241723 4.66702567 -0.04092937 7 0 C8 1 8 1 8.0625 4.0625 C8.041875 5.031875 8.02125 6.00125 8 7 C5.69 7.33 3.38 7.66 1 8 C-1.125 3.375 -1.125 3.375 0 0 Z " fill="#8A76A6" transform="translate(15,280)"/>
<path d="M0 0 C2.97 0.495 2.97 0.495 6 1 C6.93065133 3.60582371 7.14917407 4.64198224 6.0625 7.25 C5.711875 7.8275 5.36125 8.405 5 9 C2.03 8.505 2.03 8.505 -1 8 C-1.625 5.6875 -1.625 5.6875 -2 3 C-1.34 2.01 -0.68 1.02 0 0 Z " fill="#8A76A6" transform="translate(463,274)"/>
<path d="M0 0 C3.0625 -0.25 3.0625 -0.25 6 0 C7 1 7 1 7.125 4 C7 7 7 7 6 8 C4.00041636 8.04080783 1.99954746 8.04254356 0 8 C-1.125 5.6875 -1.125 5.6875 -2 3 C-1.34 2.01 -0.68 1.02 0 0 Z " fill="#8A76A6" transform="translate(465,249)"/>
<path d="M0 0 C3.0625 -0.25 3.0625 -0.25 6 0 C7 1 7 1 7.125 4 C7 7 7 7 6 8 C4.00041636 8.04080783 1.99954746 8.04254356 0 8 C-1.125 5.6875 -1.125 5.6875 -2 3 C-1.34 2.01 -0.68 1.02 0 0 Z " fill="#8A76A6" transform="translate(465,236)"/>
<path d="M0 0 C1.98 0 3.96 0 6 0 C6.38063221 2.3260857 6.71269945 4.66055264 7 7 C6 8 6 8 2.4375 8.0625 C1.303125 8.041875 0.16875 8.02125 -1 8 C-1.93065133 5.39417629 -2.14917407 4.35801776 -1.0625 1.75 C-0.711875 1.1725 -0.36125 0.595 0 0 Z " fill="#8A76A6" transform="translate(465,223)"/>
<path d="M0 0 C1.4540625 0.0309375 1.4540625 0.0309375 2.9375 0.0625 C3.5975 1.7125 4.2575 3.3625 4.9375 5.0625 C3.6175 6.3825 2.2975 7.7025 0.9375 9.0625 C-1.5375 8.0725 -1.5375 8.0725 -4.0625 7.0625 C-4.10504356 5.06295254 -4.10330783 3.06208364 -4.0625 1.0625 C-3.0625 0.0625 -3.0625 0.0625 0 0 Z " fill="#8A76A6" transform="translate(117.0625,44.9375)"/>
<path d="M0 0 C1.1446875 0.3403125 1.1446875 0.3403125 2.3125 0.6875 C2.9375 3 2.9375 3 3.3125 5.6875 C2.3225 7.1725 2.3225 7.1725 1.3125 8.6875 C-1.6575 8.1925 -1.6575 8.1925 -4.6875 7.6875 C-5.375 5.375 -5.375 5.375 -5.6875 2.6875 C-4.0011022 -0.12316299 -3.27764429 -0.38112143 0 0 Z " fill="#8A76A6" transform="translate(316.6875,22.3125)"/>
<path d="M0 0 C1.4540625 0.0309375 1.4540625 0.0309375 2.9375 0.0625 C3.31813221 2.3885857 3.65019945 4.72305264 3.9375 7.0625 C2.9375 8.0625 2.9375 8.0625 0 8.25 C-3.0625 8.0625 -3.0625 8.0625 -5.0625 6.0625 C-4.33395709 0.0884481 -4.33395709 0.0884481 0 0 Z " fill="#8A76A6" transform="translate(176.0625,19.9375)"/>
<path d="M0 0 C2.00720923 0.28674418 4.0085944 0.61866701 6 1 C6.93423645 4.01031744 7.04449911 4.86650268 6 8 C3.6875 8.625 3.6875 8.625 1 9 C0.01 8.34 -0.98 7.68 -2 7 C-1.125 1.125 -1.125 1.125 0 0 Z " fill="#8A76A6" transform="translate(301,19)"/>
<path d="M0 0 C1.99954746 -0.04254356 4.00041636 -0.04080783 6 0 C7 1 7 1 7.125 4 C7 7 7 7 6 8 C4.00041636 8.04080783 1.99954746 8.04254356 0 8 C-1.125 6.25 -1.125 6.25 -2 4 C-1.125 1.75 -1.125 1.75 0 0 Z " fill="#8A76A6" transform="translate(185,17)"/>
<path d="M0 0 C3 0.125 3 0.125 4 1.125 C4.04080783 3.12458364 4.04254356 5.12545254 4 7.125 C1.6875 8.25 1.6875 8.25 -1 9.125 C-1.99 8.465 -2.98 7.805 -4 7.125 C-4.25 4.0625 -4.25 4.0625 -4 1.125 C-3 0.125 -3 0.125 0 0 Z " fill="#8A76A6" transform="translate(239,11.875)"/>
<path d="M0 0 C2.375 0.25 2.375 0.25 3.375 1.25 C3.41592937 3.58297433 3.41741723 5.91705225 3.375 8.25 C1.065 8.25 -1.245 8.25 -3.625 8.25 C-4.285 6.6 -4.945 4.95 -5.625 3.25 C-3.7774876 0.91630013 -3.0311278 0.28867884 0 0 Z " fill="#8A76A6" transform="translate(219.625,462.75)"/>
<path d="M0 0 C2.5 0.25 2.5 0.25 4.5 2.25 C3.94444444 6.80555556 3.94444444 6.80555556 2.5 8.25 C0.16055264 7.96269945 -2.1739143 7.63063221 -4.5 7.25 C-4.625 4.875 -4.625 4.875 -4.5 2.25 C-2.5 0.25 -2.5 0.25 0 0 Z " fill="#8A76A6" transform="translate(90.5,411.75)"/>
<path d="M0 0 C2.625 0.625 2.625 0.625 5 2 C5.9375 3.9375 5.9375 3.9375 6 6 C5.01 7.485 5.01 7.485 4 9 C1.69 8.67 -0.62 8.34 -3 8 C-3.1875 5.125 -3.1875 5.125 -3 2 C-2.01 1.34 -1.02 0.68 0 0 Z " fill="#8A76A6" transform="translate(429,369)"/>
<path d="M0 0 C2.875 -0.125 2.875 -0.125 6 0 C6.66 0.66 7.32 1.32 8 2 C7.625 5.125 7.625 5.125 7 8 C4.125 8.125 4.125 8.125 1 8 C0.34 7.34 -0.32 6.68 -1 6 C-0.625 2.875 -0.625 2.875 0 0 Z " fill="#8A76A6" transform="translate(460,287)"/>
<path d="M0 0 C2.33294775 -0.04241723 4.66702567 -0.04092937 7 0 C8 1 8 1 8.125 4 C8 7 8 7 7 8 C4.625 8.3125 4.625 8.3125 2 8 C0.125 6.25 0.125 6.25 -1 4 C-0.6875 1.75 -0.6875 1.75 0 0 Z " fill="#8A76A6" transform="translate(463,262)"/>
<path d="M0 0 C3.0625 -0.25 3.0625 -0.25 6 0 C7 1 7 1 7.125 4 C7 7 7 7 6 8 C4.00041636 8.04080783 1.99954746 8.04254356 0 8 C-1.125 5.6875 -1.125 5.6875 -2 3 C-1.34 2.01 -0.68 1.02 0 0 Z " fill="#8A76A6" transform="translate(14,216)"/>
<path d="M0 0 C2.5 -0.3125 2.5 -0.3125 5 0 C5.66 0.66 6.32 1.32 7 2 C6.625 5.125 6.625 5.125 6 8 C3.69 8 1.38 8 -1 8 C-1.625 5.6875 -1.625 5.6875 -2 3 C-1.34 2.01 -0.68 1.02 0 0 Z " fill="#8A76A6" transform="translate(16,203)"/>
<path d="M0 0 C1.98 0 3.96 0 6 0 C6.33 2.31 6.66 4.62 7 7 C5.35 7.66 3.7 8.32 2 9 C0.68 7.68 -0.64 6.36 -2 5 C-1.34 3.35 -0.68 1.7 0 0 Z " fill="#8A76A6" transform="translate(425,103)"/>
<path d="M0 0 C2.31 0 4.62 0 7 0 C7.04241723 2.33294775 7.04092937 4.66702567 7 7 C6 8 6 8 3.625 8.3125 C1 8 1 8 -0.8125 6 C-1.204375 5.34 -1.59625 4.68 -2 4 C-1.34 2.68 -0.68 1.36 0 0 Z " fill="#8A76A6" transform="translate(275,15)"/>
<path d="M0 0 C2.33294775 -0.04241723 4.66702567 -0.04092937 7 0 C8 1 8 1 8.1875 3.4375 C8 6 8 6 6 8 C3.375 8.125 3.375 8.125 1 8 C-1.125 3.375 -1.125 3.375 0 0 Z " fill="#8A76A6" transform="translate(197,15)"/>
<path d="M0 0 C2.5 -0.3125 2.5 -0.3125 5 0 C5.66 0.66 6.32 1.32 7 2 C6.625 5.125 6.625 5.125 6 8 C3.69 8 1.38 8 -1 8 C-1.625 5.6875 -1.625 5.6875 -2 3 C-1.34 2.01 -0.68 1.02 0 0 Z " fill="#8A76A6" transform="translate(263,13)"/>
<path d="M0 0 C0 2.31 0 4.62 0 7 C-1.98 7.33 -3.96 7.66 -6 8 C-8 5 -8 5 -7.75 2.375 C-7.5025 1.59125 -7.255 0.8075 -7 0 C-4.3333581 -1.33332095 -2.83319697 -0.67102033 0 0 Z " fill="#8A76A6" transform="translate(274,464)"/>
<path d="M0 0 C2.875 -0.125 2.875 -0.125 6 0 C8 2 8 2 8.125 4.625 C8.08375 5.40875 8.0425 6.1925 8 7 C5.6875 8.125 5.6875 8.125 3 9 C2.01 8.34 1.02 7.68 0 7 C-0.1875 3.375 -0.1875 3.375 0 0 Z " fill="#8A76A6" transform="translate(374,425)"/>
<path d="M0 0 C3.0625 -0.25 3.0625 -0.25 6 0 C7 1 7 1 7.125 4 C7 7 7 7 6 8 C3.66055264 7.71269945 1.3260857 7.38063221 -1 7 C-1.625 5.1875 -1.625 5.1875 -2 3 C-1.34 2.01 -0.68 1.02 0 0 Z " fill="#8A76A6" transform="translate(13,229)"/>
<path d="M0 0 C1.010625 0.0825 2.02125 0.165 3.0625 0.25 C5.0625 3.25 5.0625 3.25 4.75 5.375 C4.0625 7.25 4.0625 7.25 3.0625 8.25 C0.625 8.4375 0.625 8.4375 -1.9375 8.25 C-3.9375 6.25 -3.9375 6.25 -4.125 3.6875 C-3.85121288 0.1282675 -3.61900269 0.30800023 0 0 Z " fill="#8A76A6" transform="translate(419.9375,92.75)"/>
<path d="M0 0 C2.33294775 -0.04241723 4.66702567 -0.04092937 7 0 C8 1 8 1 8.125 4 C8 7 8 7 7 8 C5.00041636 8.04080783 2.99954746 8.04254356 1 8 C-0.35439668 5.29120665 -0.06501451 2.99066732 0 0 Z " fill="#8A76A6" transform="translate(399,74)"/>
<path d="M0 0 C2.31 0.33 4.62 0.66 7 1 C6.67 3.31 6.34 5.62 6 8 C3.69 7.67 1.38 7.34 -1 7 C-1.625 5.1875 -1.625 5.1875 -2 3 C-1.34 2.01 -0.68 1.02 0 0 Z " fill="#8A76A6" transform="translate(119,434)"/>
<path d="M0 0 C2.4375 0.1875 2.4375 0.1875 3.4375 1.1875 C3.5625 4.1875 3.5625 4.1875 3.4375 7.1875 C2.4375 8.1875 2.4375 8.1875 -1.125 8.25 C-2.259375 8.229375 -3.39375 8.20875 -4.5625 8.1875 C-4.6875 5.3125 -4.6875 5.3125 -4.5625 2.1875 C-2.5625 0.1875 -2.5625 0.1875 0 0 Z " fill="#8A76A6" transform="translate(16.5625,253.8125)"/>
<path d="M0 0 C2.6875 0.875 2.6875 0.875 5 2 C4.67 4.31 4.34 6.62 4 9 C1.69 8.67 -0.62 8.34 -3 8 C-3.1875 5.125 -3.1875 5.125 -3 2 C-2.01 1.34 -1.02 0.68 0 0 Z " fill="#8A76A6" transform="translate(53,107)"/>
<path d="M0 0 C2.31 0 4.62 0 7 0 C7 2.64 7 5.28 7 8 C3.98968256 8.93423645 3.13349732 9.04449911 0 8 C0 5.36 0 2.72 0 0 Z " fill="#8A76A6" transform="translate(408,83)"/>
<path d="M0 0 C0.7425 0.2475 1.485 0.495 2.25 0.75 C2.29254356 2.74954746 2.29080783 4.75041636 2.25 6.75 C1.25 7.75 1.25 7.75 -2.3125 7.8125 C-3.446875 7.791875 -4.58125 7.77125 -5.75 7.75 C-6.5 6 -6.5 6 -6.75 3.75 C-4.62771652 0.72982736 -3.76812267 -0.34255661 0 0 Z " fill="#8A76A6" transform="translate(227.75,12.25)"/>
<path d="M0 0 C2.625 -0.1875 2.625 -0.1875 5 0 C6.42944945 2.35438733 7.08661261 3.48032433 6.625 6.25 C6.41875 6.8275 6.2125 7.405 6 8 C4.02 8 2.04 8 0 8 C-1.125 5.6875 -1.125 5.6875 -2 3 C-1.34 2.01 -0.68 1.02 0 0 Z " fill="#8A76A6" transform="translate(255,464)"/>
<path d="M0 0 C2.4375 0.1875 2.4375 0.1875 3.4375 1.1875 C3.47842937 3.52047433 3.47991723 5.85455225 3.4375 8.1875 C1.1275 8.1875 -1.1825 8.1875 -3.5625 8.1875 C-4.1875 5.3125 -4.1875 5.3125 -4.5625 2.1875 C-2.5625 0.1875 -2.5625 0.1875 0 0 Z " fill="#8A76A6" transform="translate(213.5625,12.8125)"/>
<path d="M0 0 C5.875 0.875 5.875 0.875 7 2 C7.125 4.5 7.125 4.5 7 7 C6 8 6 8 2.9375 8.0625 C1.968125 8.041875 0.99875 8.02125 0 8 C-1.125 5.6875 -1.125 5.6875 -2 3 C-1.34 2.01 -0.68 1.02 0 0 Z " fill="#8A76A6" transform="translate(250,12)"/>
<path d="M0 0 C2.5625 0.1875 2.5625 0.1875 4.5625 2.1875 C4.875 4.6875 4.875 4.6875 4.5625 7.1875 C1.5625 9.1875 1.5625 9.1875 -0.625 8.8125 C-1.223125 8.60625 -1.82125 8.4 -2.4375 8.1875 C-2.81813221 5.8614143 -3.15019945 3.52694736 -3.4375 1.1875 C-2.4375 0.1875 -2.4375 0.1875 0 0 Z " fill="#8A76A6" transform="translate(393.4375,64.8125)"/>
<path d="M0 0 C2.33944736 0.28730055 4.6739143 0.61936779 7 1 C6.67 3.31 6.34 5.62 6 8 C3.69 7.67 1.38 7.34 -1 7 C-1.04254356 5.00045254 -1.04080783 2.99958364 -1 1 C-0.67 0.67 -0.34 0.34 0 0 Z " fill="#8A76A6" transform="translate(381,57)"/>
<path d="M0 0 C2.33294775 -0.04241723 4.66702567 -0.04092937 7 0 C8 1 8 1 8.0625 4.0625 C8.041875 5.031875 8.02125 6.00125 8 7 C5.69 7 3.38 7 1 7 C-0.0625 4.625 -0.0625 4.625 -1 2 C-0.67 1.34 -0.34 0.68 0 0 Z " fill="#8A76A6" transform="translate(241,465)"/>
<path d="M0 0 C1.134375 0.020625 2.26875 0.04125 3.4375 0.0625 C4.0625 2.4375 4.0625 2.4375 4.4375 5.0625 C2.4375 7.0625 2.4375 7.0625 -0.6875 7.1875 C-2.110625 7.125625 -2.110625 7.125625 -3.5625 7.0625 C-3.94383299 5.0710944 -4.27575582 3.06970923 -4.5625 1.0625 C-3.5625 0.0625 -3.5625 0.0625 0 0 Z " fill="#8A76A6" transform="translate(397.5625,409.9375)"/>
<path d="M0 0 C3.625 -0.1875 3.625 -0.1875 7 0 C7.625 1.8125 7.625 1.8125 8 4 C7.01 5.485 7.01 5.485 6 7 C2.375 7.1875 2.375 7.1875 -1 7 C-1.625 5.1875 -1.625 5.1875 -2 3 C-1.34 2.01 -0.68 1.02 0 0 Z " fill="#8A76A6" transform="translate(13,242)"/>
<path d="M0 0 C0 2.31 0 4.62 0 7 C-1.65 7.33 -3.3 7.66 -5 8 C-7 2.25 -7 2.25 -7 0 C-4.3333581 -1.33332095 -2.83319697 -0.67102033 0 0 Z " fill="#8A76A6" transform="translate(84,404)"/>
<path d="M0 0 C1.134375 0.020625 2.26875 0.04125 3.4375 0.0625 C3.81968767 1.71864657 4.15145102 3.38707024 4.4375 5.0625 C3.4375 6.0625 3.4375 6.0625 -0.125 6.125 C-1.259375 6.104375 -2.39375 6.08375 -3.5625 6.0625 C-3.94468767 4.40635343 -4.27645102 2.73792976 -4.5625 1.0625 C-3.5625 0.0625 -3.5625 0.0625 0 0 Z " fill="#8A76A6" transform="translate(406.5625,400.9375)"/>
<path d="M0 0 C0 0.99 0 1.98 0 3 C-2.13824216 4.70060743 -4.22089861 6.20205658 -6.5 7.6875 C-7.12003906 8.10322266 -7.74007813 8.51894531 -8.37890625 8.94726562 C-9.91315943 9.97403506 -11.45581929 10.98822225 -13 12 C-13.33 11.01 -13.66 10.02 -14 9 C-9.38 6.03 -4.76 3.06 0 0 Z " fill="#EFECF2" transform="translate(337,325)"/>
<path d="M0 0 C-1.22053859 3.66161578 -2.36782304 4.16270474 -5.5625 6.1875 C-6.38878906 6.71730469 -7.21507812 7.24710937 -8.06640625 7.79296875 C-8.70449219 8.19128906 -9.34257812 8.58960938 -10 9 C-10.33 8.01 -10.66 7.02 -11 6 C-9.54550599 4.9944239 -8.08627557 3.99569565 -6.625 3 C-5.40683594 2.1646875 -5.40683594 2.1646875 -4.1640625 1.3125 C-2 0 -2 0 0 0 Z " fill="#E3DEE9" transform="translate(346,279)"/>
</svg>
