<?xml version="1.0" encoding="UTF-8"?>
<svg version="1.1" xmlns="http://www.w3.org/2000/svg" width="484" height="485">
<path d="M0 0 C42.27967311 32.21541923 59.09552461 88.22195768 65.9765625 138.91796875 C66.70920196 144.60548877 67.38127987 150.29899102 68 156 C69.07894531 155.98710937 70.15789062 155.97421875 71.26953125 155.9609375 C75 156 75 156 78.6875 156.625 C84.2302891 157.42307417 89.56852055 156.06042425 95 155 C95.0417334 154.14962158 95.0834668 153.29924316 95.12646484 152.4230957 C95.63269944 143.8200577 96.81713981 135.60754355 98.625 127.1875 C98.89078857 125.93485352 99.15657715 124.68220703 99.43041992 123.39160156 C108.38340391 82.16150828 123.022632 26.21118656 160.4375 1.125 C177.03307945 -8.76122376 194.98393139 -12.41876276 214 -8 C231.38445113 -2.47737461 244.10682543 8.33885803 253.01318359 24.07519531 C262.00107325 41.60624976 261.2879351 60.11619742 256.2734375 78.69140625 C255.5625 80.875 255.5625 80.875 254 84 C252.02734375 84.7578125 252.02734375 84.7578125 250 85 C249.34 84.67 248.68 84.34 248 84 C247.37744141 82.08911133 247.37744141 82.08911133 246.8515625 79.58203125 C246.65312744 78.66397705 246.45469238 77.74592285 246.25024414 76.80004883 C246.04391357 75.81415771 245.83758301 74.8282666 245.625 73.8125 C245.18088462 71.79111595 244.73427001 69.77027938 244.28515625 67.75 C243.95668701 66.26886719 243.95668701 66.26886719 243.62158203 64.7578125 C239.88912179 47.91486267 239.88912179 47.91486267 230.1875 34 C223.28419529 29.66851469 216.13061487 27.79413788 208 29 C192.62416381 32.94305704 181.78480774 45.86076341 173.82226562 58.93359375 C155.0576773 90.90289238 139.40147429 134.10320058 139.9375 171.625 C139.94652344 172.46289062 139.95554687 173.30078125 139.96484375 174.1640625 C139.97644531 174.76992188 139.98804688 175.37578125 140 176 C151.26459488 171.10848489 158.28899351 164.08233827 165.90234375 154.6015625 C176.39550341 141.58769968 190.67383062 134.50054801 207.2578125 132.40625 C212.36175782 131.88867745 217.43720804 131.88861607 222.5625 131.9375 C223.47580078 131.94201172 224.38910156 131.94652344 225.33007812 131.95117188 C227.55345738 131.9628126 229.77669121 131.97916149 232 132 C232.66 133.32 233.32 134.64 234 136 C233.5875 136.46148437 233.175 136.92296875 232.75 137.3984375 C229.35427186 141.23379115 226.01455295 145.11480912 222.75 149.0625 C222.10546875 149.83722656 221.4609375 150.61195313 220.796875 151.41015625 C216.67928555 157.34485582 215.4925 163.14049469 214.625 170.125 C212.54011965 184.67842021 207.64406733 198.38593086 195.7578125 207.8203125 C190.06163268 211.64308207 183.91486353 213.01029649 177.13671875 213.31640625 C175.80737305 213.37924805 175.80737305 213.37924805 174.45117188 213.44335938 C173.53916016 213.48267578 172.62714844 213.52199219 171.6875 213.5625 C170.29047852 213.62727539 170.29047852 213.62727539 168.86523438 213.69335938 C166.57695546 213.79897225 164.28857628 213.90107752 162 214 C162.34933594 215.01320313 162.69867188 216.02640625 163.05859375 217.0703125 C163.51847229 218.42179229 163.97809409 219.77335947 164.4375 221.125 C164.78264648 222.12273437 164.78264648 222.12273437 165.13476562 223.140625 C168.60583262 233.40291002 170.18854676 245.12987856 165.6015625 255.27734375 C163.08376268 259.55760345 160.06652501 263.44393056 157.07885742 267.40405273 C146.54071701 281.50163238 145.1416571 296.61053661 144.0625 313.6875 C142.47459655 337.8583678 142.47459655 337.8583678 134.03515625 346.3515625 C127.44084688 351.69282652 120.84072931 353.55952748 112.46875 354.25 C111.6540625 354.4975 110.839375 354.745 110 355 C108.84431252 357.33373708 108.84431252 357.33373708 108 360 C101.61258984 367.25166862 93.29466793 372.27880917 83.58984375 373.23828125 C73.5275619 373.51984731 66.10661196 371.20132578 58.5 364.5 C56.23652517 362.35410828 54.27227705 360.41694741 52.56640625 357.8046875 C50.41114279 355.32156601 48.63927256 355.2010686 45.4375 354.625 C36.75879629 352.66258453 29.25858881 348.94981938 24.25 341.3515625 C19.77790086 332.938426 18.75978627 325.12482241 18.9375 315.75 C19.31356065 295.68268717 14.565541 280.63970314 2.60546875 264.4375 C-3.63786219 254.9585742 -6.75660321 243.32857421 -4.63525391 232.06298828 C-3.20870066 225.57300482 -1.62777127 219.1196295 1 213 C-0.08796875 213.03480469 -1.1759375 213.06960938 -2.296875 213.10546875 C-16.23351932 213.42051106 -29.04253453 212.22387994 -39.8125 202.3359375 C-46.95043529 194.51989835 -49.74199864 184.90683328 -51.60546875 174.67578125 C-54.2614822 160.3011145 -60.65282117 148.34717883 -71 138 C-71.1875 135.4375 -71.1875 135.4375 -71 133 C-68.74334141 130.74334141 -63.5206334 131.75919163 -60.5 131.75 C-46.60152566 131.75591827 -33.31420017 133.01463523 -21 140 C-20.23558594 140.43054688 -19.47117187 140.86109375 -18.68359375 141.3046875 C-10.17830128 146.5409893 -3.59828867 153.87138354 2.5 161.6875 C7.83121755 168.36097444 13.97805617 173.02732932 22 176 C24.28605637 130.36354128 4.58018973 75.61631505 -25.40234375 41.24609375 C-31.68037497 34.5911823 -38.90022342 28.6946003 -48.125 26.9375 C-55.97452706 27.06410528 -61.47276489 29.60227903 -67.15234375 34.98828125 C-76.20932186 44.84947306 -79.39161468 56.61662125 -82.125 69.4375 C-82.62188662 71.74993388 -83.12423701 74.06120247 -83.6328125 76.37109375 C-83.84824707 77.38099365 -84.06368164 78.39089355 -84.28564453 79.43139648 C-85 82 -85 82 -87 85 C-88.87109375 84.6953125 -88.87109375 84.6953125 -91 84 C-99.32353724 71.38857994 -99.32216968 54.01038877 -97 39.625 C-93.18004573 22.59437055 -83.41608624 8.77212429 -69.3828125 -1.5390625 C-48.7584338 -14.18417337 -19.96078717 -13.84243215 0 0 Z M-43 -4 C-43.33 -3.34 -43.66 -2.68 -44 -2 C-43.29541627 -0.30259375 -42.58555926 1.39451463 -41.7890625 3.05078125 C-40.37757719 6.53756922 -39.99107342 9.57598737 -40.0703125 13.33984375 C-40.12822031 17.14935051 -39.99982386 20.31530429 -39 24 C-35.030584 27.70521786 -30.47285272 30 -25 30 C-24.34642722 28.77493102 -23.70251767 27.54470484 -23.0625 26.3125 C-22.70285156 25.62800781 -22.34320313 24.94351563 -21.97265625 24.23828125 C-19.62947709 18.84614608 -19.87828446 13.45873775 -19.9375 7.6875 C-19.94201172 6.85154297 -19.94652344 6.01558594 -19.95117188 5.15429688 C-19.96289452 3.10283351 -19.98082797 1.05140727 -20 -1 C-27.78273888 -3.04937325 -34.93489832 -4.49155247 -43 -4 Z M182 0 C181.28184371 11.47668998 181.24420992 21.85009063 189 31 C193.70374002 29.3457795 197.40725319 27.49727522 201 24 C202.85286928 18.94786836 202.67377755 13.39992233 202.85498047 8.08007812 C203.13369106 4.08241104 204.50128804 0.67865662 206 -3 C203.47886908 -3.05447822 200.9589415 -3.09389852 198.4375 -3.125 C197.73302734 -3.14175781 197.02855469 -3.15851563 196.30273438 -3.17578125 C188.60805399 -3.29880857 188.60805399 -3.29880857 182 0 Z M-53 -2 C-62.42700996 2.21952377 -62.42700996 2.21952377 -70 9 C-69.38511719 9.51949219 -68.77023438 10.03898437 -68.13671875 10.57421875 C-67.32847656 11.27160156 -66.52023438 11.96898437 -65.6875 12.6875 C-64.88699219 13.37199219 -64.08648437 14.05648437 -63.26171875 14.76171875 C-61 17 -61 17 -59.59375 19.75 C-59.0678125 20.4925 -58.541875 21.235 -58 22 C-55.03618482 22.60481772 -55.03618482 22.60481772 -51.8125 22.3125 C-50.72582031 22.26738281 -49.63914062 22.22226563 -48.51953125 22.17578125 C-47.68808594 22.11777344 -46.85664062 22.05976562 -46 22 C-45.55584986 14.01763494 -45.32828019 6.82789818 -50 0 C-50.99 -0.66 -51.98 -1.32 -53 -2 Z M213 -1 C212.360625 0.0725 211.72125 1.145 211.0625 2.25 C210.70285156 2.85328125 210.34320313 3.4565625 209.97265625 4.078125 C207.92521377 8.123674 207.88860861 11.75199233 207.9375 16.25 C207.94652344 17.32765625 207.95554687 18.4053125 207.96484375 19.515625 C207.97644531 20.33546875 207.98804688 21.1553125 208 22 C212.12566435 22.54873368 215.8936402 22.76768834 220 22 C222.35057857 19.95769403 223.788904 17.88432668 225.46484375 15.26953125 C227.55941176 12.17298159 229.77686827 10.80809829 233 9 C229.86458323 5.45628571 226.73402362 3.68563522 222.4375 1.75 C221.30183594 1.22921875 220.16617187 0.7084375 218.99609375 0.171875 C216.07053861 -1.182131 216.07053861 -1.182131 213 -1 Z M-13 2 C-13.03963867 2.55349121 -13.07927734 3.10698242 -13.12011719 3.67724609 C-14.63768555 23.82066041 -14.63768555 23.82066041 -19 32 C-19.556875 33.11375 -19.556875 33.11375 -20.125 34.25 C-20.41375 34.8275 -20.7025 35.405 -21 36 C-19.56354149 37.60509934 -18.12579294 39.20904424 -16.6875 40.8125 C-15.88699219 41.70582031 -15.08648437 42.59914062 -14.26171875 43.51953125 C-12.54775419 45.39926786 -10.82122396 47.22592747 -9 49 C-0.53231224 42.27627771 4.26233165 35.48544873 7 25 C7.24878906 24.24460937 7.49757813 23.48921875 7.75390625 22.7109375 C8.37998017 20.16286043 8.58897632 18.56592785 8 16 C2.60898198 9.55909006 -5.60637263 5.71087001 -13 2 Z M154 16 C155.78261042 29.86214157 159.84503702 40.16376528 171 49 C175.25209792 44.87675353 179.13635705 40.48717034 183 36 C181.85329791 33.69671046 180.69026556 31.40634232 179.5 29.125 C175.96461675 20.79800595 175.69210585 10.92893041 176 2 C168.36177861 2 159.52485788 11.36852339 154 16 Z M-76 14 C-77.74580774 15.91320837 -77.74580774 15.91320837 -79.5 18.3125 C-80.1084375 19.11300781 -80.716875 19.91351563 -81.34375 20.73828125 C-84.26207451 24.46627997 -84.26207451 24.46627997 -85 29 C-82.03789398 30.52219337 -79.32611231 31.63443657 -76 32 C-72.83222043 30.51408278 -70.53863383 28.37207188 -68 26 C-67.01 25.34 -66.02 24.68 -65 24 C-66.36911804 20.8510285 -67.8752136 18.9521513 -70.5 16.75 C-71.1084375 16.22921875 -71.716875 15.7084375 -72.34375 15.171875 C-73.93395821 13.80747003 -73.93395821 13.80747003 -76 14 Z M237 14 C232.728008 16.36322962 229.75591436 18.97212517 227 23 C227 23.66 227 24.32 227 25 C228.65214933 26.29697078 228.65214933 26.29697078 230.75 27.5 C231.44609375 27.9228125 232.1421875 28.345625 232.859375 28.78125 C233.56578125 29.1834375 234.2721875 29.585625 235 30 C235.6496875 30.40992187 236.299375 30.81984375 236.96875 31.2421875 C239.7185841 32.26808715 241.04554153 31.65905765 243.75 30.625 C244.54921875 30.32851562 245.3484375 30.03203125 246.171875 29.7265625 C246.77515625 29.48679687 247.3784375 29.24703125 248 29 C246.61934049 23.47736194 243.86990756 19.12593198 240 15 C239.01 14.67 238.02 14.34 237 14 Z M14 24 C13.5875 25.134375 13.175 26.26875 12.75 27.4375 C8.6017872 38.44097527 4.21532132 46.43985775 -5 54 C-4.40165275 58.14298667 -2.99335715 61.18194377 -0.9375 64.8125 C-0.38964844 65.78832031 0.15820312 66.76414063 0.72265625 67.76953125 C1.35494141 68.87361328 1.35494141 68.87361328 2 70 C12.52934201 65.28151965 23.70843121 59.9191102 29 49 C29.73452842 45.41693453 28.82409919 43.41758741 26.98828125 40.40625 C26.10823569 39.09610698 25.21586107 37.79417685 24.3125 36.5 C23.87744141 35.84902344 23.44238281 35.19804688 22.99414062 34.52734375 C20.31178531 30.59322262 17.47430686 27.25520642 14 24 Z M147 24 C145.61006448 25.72632361 145.61006448 25.72632361 144.25 27.98046875 C143.7240625 28.81513672 143.198125 29.64980469 142.65625 30.50976562 C141.83640625 31.83524414 141.83640625 31.83524414 141 33.1875 C140.4534375 34.05181641 139.906875 34.91613281 139.34375 35.80664062 C135.67851295 41.65597033 135.67851295 41.65597033 133 48 C135.90839395 56.95393195 145.868382 63.31510282 153.77734375 67.453125 C155.83340392 68.37559117 157.88107725 69.23483345 160 70 C161.20284401 67.92426919 162.38705701 65.84116905 163.5625 63.75 C163.90474609 63.16347656 164.24699219 62.57695312 164.59960938 61.97265625 C165.96923601 59.51009523 167.0160981 57.61602049 166.94140625 54.7578125 C165.7516406 52.53625838 164.42352031 51.5882288 162.375 50.125 C154.87106381 43.87621861 150.70114332 33.45079621 149 24 C148.34 24 147.68 24 147 24 Z M-88 35 C-90.20399168 39.55491614 -90.58846263 44.02906176 -91 49 C-89.02 49 -87.04 49 -85 49 C-84.16180842 47.37750059 -83.3295884 45.75191503 -82.5 44.125 C-82.0359375 43.22007813 -81.571875 42.31515625 -81.09375 41.3828125 C-79.86094411 39.13403141 -79.86094411 39.13403141 -80 37 C-82.64 36.34 -85.28 35.68 -88 35 Z M242 38 C243.65 41.63 245.3 45.26 247 49 C248.98 49 250.96 49 253 49 C252.85795259 47.41632253 252.71119847 45.83306682 252.5625 44.25 C252.48128906 43.36828125 252.40007812 42.4865625 252.31640625 41.578125 C252.03761535 39.30649548 251.61209423 37.20148177 251 35 C247.69644454 35 244.97891751 36.67603666 242 38 Z M33 54 C32.00466743 55.34232924 31.02949067 56.69961198 30.0625 58.0625 C23.53122484 66.54916711 14.32710743 71.09728968 5 76 C7.31 82.27 9.62 88.54 12 95 C23.67543464 89.68247531 34.60481116 83.76531152 41 72 C40.89732143 67.70803582 38.75771677 64.02157362 36.9375 60.1875 C36.38964844 59.02605469 35.84179688 57.86460937 35.27734375 56.66796875 C34.85582031 55.78753906 34.43429688 54.90710938 34 54 C33.67 54 33.34 54 33 54 Z M-91 55 C-90.67 59.29 -90.34 63.58 -90 68 C-89.67 68 -89.34 68 -89 68 C-88.34 64.04 -87.68 60.08 -87 56 C-88.32 55.67 -89.64 55.34 -91 55 Z M129 55 C128.01070539 56.86967605 127.03399531 58.74601378 126.0625 60.625 C125.24458984 62.19121094 125.24458984 62.19121094 124.41015625 63.7890625 C122.9892504 67.02447693 122.13781262 69.46914551 122 73 C127.2383324 83.76768326 139.53465435 90.51485187 150 95 C152.31 89.06 154.62 83.12 157 77 C154.21136483 74.21136483 152.38955496 73.07370906 148.9375 71.375 C141.11100708 67.22301437 135.19247147 61.23478904 129 55 Z M249 56 C249.66 59.63 250.32 63.26 251 67 C252.80568106 63.38863788 253.24851563 62.455469 253.125 58.75 C253.08375 57.5125 253.0425 56.275 253 55 C250.9254644 54.8509288 250.9254644 54.8509288 249 56 Z M43 80 C41.95244255 81.14576596 40.96190283 82.3439356 40 83.5625 C33.21852811 91.50691025 24.16124938 96.24520707 15 101 C16.16204993 107.54849313 17.73383385 113.74538144 20 120 C29.04963553 118.06079239 36.55381681 114.80351041 43 108 C43.71542969 107.26265625 44.43085938 106.5253125 45.16796875 105.765625 C47.93642791 102.33751422 50.21413595 99.43861766 49.81005859 94.83691406 C48.73855752 89.70017023 46.95396879 84.85928681 45 80 C44.34 80 43.68 80 43 80 Z M118 80 C117.13071724 82.39127957 116.27948399 84.78661726 115.4375 87.1875 C115.0672168 88.19780273 115.0672168 88.19780273 114.68945312 89.22851562 C113.31328853 93.20194862 112.5548955 95.99122454 114 100 C119.88439253 110.38422211 128.88894455 116.29061687 140 120 C140.66 120 141.32 120 142 120 C143.98 113.73 145.96 107.46 148 101 C145.710625 99.824375 143.42125 98.64875 141.0625 97.4375 C132.32969814 92.83677219 125.1137838 87.83328549 119 80 C118.67 80 118.34 80 118 80 Z M52 107 C51.0282223 108.17652332 50.07327253 109.36695066 49.125 110.5625 C41.73543065 119.06577227 32.61248334 122.87868137 22 126 C23.32 132.27 24.64 138.54 26 145 C37.40019514 142.33501932 47.94431299 137.97807643 55.76953125 128.9609375 C57.64910423 124.43802854 56.34482476 120.82025373 55.1875 116.1875 C54.98318359 115.30384766 54.77886719 114.42019531 54.56835938 113.50976562 C54.06289815 111.33510686 53.53976147 109.16635281 53 107 C52.67 107 52.34 107 52 107 Z M110 107 C109.32595716 109.56076097 108.660586 112.12326583 108 114.6875 C107.80921875 115.40873047 107.6184375 116.12996094 107.421875 116.87304688 C105.95675246 122.36954524 105.95675246 122.36954524 106 128 C111.43903803 136.61462544 122.88263931 141.79398088 132.4375 144.1953125 C133.613125 144.46085937 134.78875 144.72640625 136 145 C136.67099984 142.39688008 137.33695338 139.79264602 138 137.1875 C138.28617188 136.08051758 138.28617188 136.08051758 138.578125 134.95117188 C139.35262914 131.89464659 140 129.16626522 140 126 C139.23816406 125.78085938 138.47632813 125.56171875 137.69140625 125.3359375 C126.94868848 122.03667586 119.61209252 117.181418 112 109 C111.34 108.34 110.68 107.68 110 107 Z M104 136 C103.49792321 138.79130788 102.99824925 141.58300871 102.5 144.375 C102.35691406 145.1690625 102.21382812 145.963125 102.06640625 146.78125 C101.2887917 150.86495914 101.2887917 150.86495914 101 155 C102.02738281 155.27972656 103.05476562 155.55945313 104.11328125 155.84765625 C115.39779765 159.05951873 123.77932602 163.62346082 133 171 C133.33 164.73 133.66 158.46 134 152 C132.288125 151.319375 130.57625 150.63875 128.8125 149.9375 C119.99409639 146.25968238 111.34502294 142.18172281 104 136 Z M51.98828125 140.50390625 C44.97763328 145.77910894 36.15897517 148.9313589 28 152 C28.11397544 154.43847451 28.24070974 156.87513174 28.375 159.3125 C28.4059375 160.00279297 28.436875 160.69308594 28.46875 161.40429688 C28.68124919 165.06990789 28.91933861 166.87900792 31 170 C31.53367188 169.55269531 32.06734375 169.10539062 32.6171875 168.64453125 C41.11006606 161.7532509 49.11594851 157.55155628 60 156 C61.19127531 151.643098 60.76679687 148.12042737 60.0625 143.6875 C59.77052734 141.80611328 59.77052734 141.80611328 59.47265625 139.88671875 C59.31667969 138.93410156 59.16070312 137.98148438 59 137 C55.32630003 137 54.63210781 138.18809787 51.98828125 140.50390625 Z M-59 139 C-57.45505561 142.44210409 -55.38263874 145.16109837 -53.0625 148.125 C-47.67468439 155.50036423 -46.22213516 161.99174307 -45.0625 170.9375 C-43.53319265 182.30864014 -40.07013494 191.89189206 -31.19140625 199.5625 C-21.16442835 206.56679225 -8.75323947 206.70819056 3 206 C6.11332248 205.33131686 6.11332248 205.33131686 7.1875 202.9375 C7.455625 202.298125 7.72375 201.65875 8 201 C4.04930616 199.29078141 0.11914211 198.2525388 -4.0625 197.25 C-12.92657414 194.97160061 -23.01230851 191.95171842 -28.76953125 184.37109375 C-31.13167896 179.81927261 -32.439514 174.87587227 -33.83203125 169.9609375 C-34.99961278 165.86220935 -36.55431548 161.99968531 -38.30078125 158.11328125 C-39.11601441 155.64936426 -39.12192904 153.57857334 -39 151 C-33.23023082 151 -30.29815881 153.86856152 -26.3046875 157.61328125 C-21.65539736 162.4280546 -17.66362354 167.75186008 -13.6875 173.125 C-6.46489654 180.85150603 2.99597785 186.60374816 13 190 C16.2985139 189.27731765 16.2985139 189.27731765 17.6875 185.9375 C18.120625 184.968125 18.55375 183.99875 19 183 C18.31035156 182.6596875 17.62070313 182.319375 16.91015625 181.96875 C7.49984795 177.11514792 0.64253991 171.04846331 -6.21484375 163.06640625 C-18.49015477 148.85712938 -32.41402831 141.63343468 -51 139 C-52.45720928 138.93907988 -53.91673459 138.91235749 -55.375 138.9375 C-57.169375 138.9684375 -57.169375 138.9684375 -59 139 Z M166 165 C164.82726728 166.39074073 163.66008036 167.78618798 162.5 169.1875 C157.25708997 175.31042567 150.32143982 179.72461903 143 183 C144.32 185.31 145.64 187.62 147 190 C162.51404493 186.89004169 173.99611697 176.41398848 183.3125 164.20703125 C187.36596929 158.90561886 191.02543435 154.24704655 197 151 C198.32 151 199.64 151 201 151 C200.35264883 157.95902506 198.16744132 164.38197634 196 171 C195.68933594 172.00289062 195.37867188 173.00578125 195.05859375 174.0390625 C192.223927 182.64980754 188.839631 187.70280091 180.8125 192.125 C172.61237105 195.98144497 163.78179848 197.92396814 155 200 C155.33 201.65 155.66 203.3 156 205 C166.57313021 208.52437674 179.28379392 205.8677824 189.1875 201.4375 C197.35750515 197.10603386 201.93854415 190.69151116 205.1171875 182.1171875 C206.27251675 178.0377506 207.02047173 173.91265791 207.8125 169.75 C210.05254358 158.11409136 214.63795782 148.36987186 222 139 C199.11471933 137.81627859 181.06230856 148.71712506 166 165 Z M80 344 C78.27610069 345.31626694 78.27610069 345.31626694 76.5625 347.1875 C71.70171517 351.73028956 66.32717863 353.30220707 60 355 C64.07382295 360.68737635 68.15568121 364.18416032 75 366 C82.44348052 367.04187245 88.60164929 365.96145541 95 362 C97.46897463 360.1288732 99.77097735 358.15018262 102 356 C101.505 355.01 101.505 355.01 101 354 C98.93610561 353.33244094 96.84759594 352.74011777 94.75 352.1875 C89.31729672 350.6064288 86.51896785 349.34006035 83 345 C82.01 344.67 81.02 344.34 80 344 Z " fill="#6D5490" transform="translate(161,84)"/>
<path d="M0 0 C3.72964888 1.17932912 3.72964888 1.17932912 7.03125 -0.046875 C16.05759127 -2.62050123 27.10314303 -2.50995948 35.6171875 1.6171875 C36.70386719 2.23980469 36.70386719 2.23980469 37.8125 2.875 C38.57820313 3.31070313 39.34390625 3.74640625 40.1328125 4.1953125 C59.54595086 16.23803901 74.23205155 41.78877439 81.8125 62.875 C82.245625 64.009375 82.67875 65.14375 83.125 66.3125 C85.40860416 78.14572153 83.24241135 86.85238947 76.8125 96.875 C74.73660157 99.88439475 72.56422944 102.82063314 70.38330078 105.75439453 C60.44891881 119.3590958 59.4764 133.66748631 59.43164062 149.94311523 C59.38230584 160.64013023 58.79672972 170.89077028 50.8125 178.875 C43.5209812 184.77765808 34.99127198 186.50310479 25.7734375 186.21875 C18.29694456 185.35076665 12.75947026 182.66848079 7.87109375 176.94921875 C6.3740054 174.01580947 6.15787281 171.12305667 5.8125 167.875 C6.81410156 167.37871094 7.81570312 166.88242187 8.84765625 166.37109375 C20.72438471 160.40020694 20.72438471 160.40020694 29.25 150.4375 C30.04064777 146.83566017 30.55723356 143.5249318 29.8125 139.875 C27.63675584 137.18394802 25.90184144 135.41967072 22.8125 133.875 C19.82044411 133.7390486 16.85288129 133.66220375 13.859375 133.63671875 C12.96639709 133.628647 12.07341919 133.62057526 11.15338135 133.61225891 C9.26031437 133.5984143 7.36722238 133.58769384 5.47412109 133.57983398 C2.5877299 133.5626502 -0.29750722 133.51877158 -3.18359375 133.47460938 C-5.02342908 133.4644798 -6.86327415 133.45596453 -8.703125 133.44921875 C-9.99249969 133.42295662 -9.99249969 133.42295662 -11.30792236 133.39616394 C-17.32432892 133.41778882 -20.83362077 134.52112077 -25.1875 138.875 C-26.00225135 144.16572713 -25.90891229 148.61209871 -22.75 153.0625 C-16.4905111 160.3334754 -8.84672823 164.9521346 -0.1875 168.875 C-0.47691297 173.69854953 -1.24975566 176.98188106 -4.6171875 180.58984375 C-10.00298603 184.99762414 -17.43230287 185.88497813 -24.1875 185.875 C-27.94076721 185.49286819 -31.52983747 184.79078657 -35.1875 183.875 C-35.93386719 183.69066406 -36.68023437 183.50632812 -37.44921875 183.31640625 C-42.95039181 181.62937984 -46.25317557 178.81197908 -49.1875 173.875 C-53.8708933 164.55310215 -53.5773157 154.73659045 -53.83862305 144.54272461 C-54.34217818 126.54548308 -58.83726999 112.85476162 -69.546875 98.26171875 C-76.60125965 87.9992687 -78.41182517 78.09903585 -77.1875 65.875 C-72.03567341 44.18436561 -52.6312389 16.13709125 -34.20703125 3.89453125 C-23.42754893 -2.320107 -12.06037069 -3.06654477 0 0 Z " fill="#FDFDFD" transform="translate(239.1875,247.125)"/>
<path d="M0 0 C47.4513577 41.94603256 74.96069871 101.59166092 80.02172852 164.55322266 C80.1687515 167.96379024 80.20783336 171.37022322 80.22485352 174.78369141 C80.23186783 175.72871521 80.23888214 176.67373901 80.24610901 177.6473999 C80.26351211 180.67855653 80.26996077 183.70951791 80.27172852 186.74072266 C80.27240326 187.77544708 80.273078 188.81017151 80.27377319 189.87625122 C80.25840623 204.68124801 79.89097169 218.98850731 77.02172852 233.55322266 C76.78824707 234.8704834 76.78824707 234.8704834 76.55004883 236.21435547 C68.87969224 279.37350762 49.91293915 320.93153496 20.13891602 353.24853516 C18.03230757 355.54170672 15.9966957 357.88613995 13.95922852 360.24072266 C10.25830635 364.39971574 6.28717662 367.98739832 2.02172852 371.55322266 C1.21864258 372.26736328 0.41555664 372.98150391 -0.41186523 373.71728516 C-24.22093367 394.45312632 -52.97058945 409.16714498 -82.97827148 418.55322266 C-83.91477539 418.84664551 -84.8512793 419.14006836 -85.81616211 419.44238281 C-105.97149105 425.61752676 -127.20888855 429.65765056 -148.32983398 429.75634766 C-149.30576508 429.76204773 -150.28169617 429.7677478 -151.28720093 429.77362061 C-153.3495782 429.7830222 -155.41197017 429.7895852 -157.47436523 429.79345703 C-160.54626805 429.80304474 -163.61746604 429.8340654 -166.68920898 429.86572266 C-230.37720106 430.2063412 -291.89294817 405.35253839 -337.16577148 360.67822266 C-343.56342944 354.25616944 -349.35848508 347.5540025 -354.72680664 340.25341797 C-355.97559589 338.55685762 -357.24714252 336.87926291 -358.52124023 335.20166016 C-365.28490267 326.16385012 -370.77614183 316.55716183 -375.97827148 306.55322266 C-376.39077148 305.77156738 -376.80327148 304.98991211 -377.22827148 304.18457031 C-395.86880004 268.49815217 -404.47252334 228.47661387 -404.29077148 188.36572266 C-404.28803726 187.0983728 -404.28803726 187.0983728 -404.2852478 185.80541992 C-404.23494953 171.87918704 -403.51741872 158.27542264 -400.97827148 144.55322266 C-400.80134766 143.59609375 -400.62442383 142.63896484 -400.44213867 141.65283203 C-392.81013152 101.71331273 -377.3610288 64.51024473 -351.97827148 32.55322266 C-351.19581055 31.56580078 -350.41334961 30.57837891 -349.60717773 29.56103516 C-337.74729354 14.93484276 -324.21039674 1.62588008 -308.97827148 -9.44677734 C-308.13393555 -10.07455078 -307.28959961 -10.70232422 -306.41967773 -11.34912109 C-299.25174582 -16.53969248 -291.63960927 -21.03183471 -283.97827148 -25.44677734 C-283.07915039 -25.96739746 -283.07915039 -25.96739746 -282.16186523 -26.49853516 C-197.43180042 -75.05538 -76.35413928 -63.40120551 0 0 Z M-201.97827148 -45.44677734 C-202.83727051 -45.32850586 -203.69626953 -45.21023437 -204.58129883 -45.08837891 C-226.6005179 -41.90984701 -248.06382516 -35.37853446 -267.97827148 -25.44677734 C-268.70868652 -25.08438965 -269.43910156 -24.72200195 -270.19165039 -24.34863281 C-279.55031213 -19.65810006 -288.45345807 -14.54936791 -296.97827148 -8.44677734 C-297.9850293 -7.72619141 -298.99178711 -7.00560547 -300.02905273 -6.26318359 C-305.87351843 -1.97823225 -311.37093862 2.53824633 -316.69311523 7.45556641 C-318.68238568 9.28161466 -320.71678648 11.01312346 -322.79077148 12.74072266 C-352.46795424 38.78274849 -373.58224912 76.13006121 -384.97827148 113.55322266 C-385.24333496 114.41447754 -385.50839844 115.27573242 -385.78149414 116.16308594 C-390.09616536 130.41268425 -392.97536897 144.80457684 -394.97827148 159.55322266 C-395.08284668 160.30780762 -395.18742187 161.06239258 -395.29516602 161.83984375 C-396.31945818 170.40981596 -396.22206968 179.05950332 -396.22827148 187.67822266 C-396.22894623 188.52192413 -396.22962097 189.36562561 -396.23031616 190.2348938 C-396.21262379 204.20476062 -395.46358524 217.77940462 -392.97827148 231.55322266 C-392.74479004 232.91133057 -392.74479004 232.91133057 -392.5065918 234.296875 C-384.61887428 278.92309318 -364.52747437 320.90982776 -332.97827148 353.55322266 C-332.10686523 354.47619141 -331.23545898 355.39916016 -330.33764648 356.35009766 C-307.33291993 380.1620076 -277.14082914 397.02525021 -245.97827148 407.55322266 C-245.1685791 407.82859863 -244.35888672 408.10397461 -243.5246582 408.38769531 C-224.62018703 414.70187242 -204.81934151 418.70052774 -184.97827148 420.55322266 C-183.80135742 420.66408203 -182.62444336 420.77494141 -181.41186523 420.88916016 C-122.3602419 425.60309773 -57.56108428 411.79967199 -11.46850586 372.83496094 C-8.33716752 370.14172269 -5.2538942 367.40273262 -2.21655273 364.60400391 C-0.11530529 362.67877719 2.03492157 360.83243963 4.20922852 358.99072266 C8.21846141 355.47566956 11.63159644 351.66187984 15.02172852 347.55322266 C15.65570557 346.80371338 15.65570557 346.80371338 16.30249023 346.0390625 C35.27710197 323.5640873 49.6167213 297.39182892 59.02172852 269.55322266 C59.29710449 268.74353027 59.57248047 267.93383789 59.85620117 267.09960938 C63.17437373 257.16509274 65.68166913 247.12672239 67.77172852 236.86572266 C67.97048584 235.89344727 68.16924316 234.92117188 68.37402344 233.91943359 C71.37436129 218.4303341 72.40255673 203.23653833 72.33422852 187.49072266 C72.33207336 186.59214539 72.32991821 185.69356812 72.32769775 184.76776123 C72.27300903 170.5136048 71.69072236 156.59041758 69.02172852 142.55322266 C68.81773437 141.47476074 68.61374023 140.39629883 68.40356445 139.28515625 C59.67267363 94.53139785 40.72200586 53.65443723 9.02172852 20.55322266 C8.55009277 20.05435547 8.07845703 19.55548828 7.5925293 19.04150391 C-34.02241458 -24.81413623 -95.53442242 -45.26400373 -154.84790039 -47.59912109 C-170.62902916 -47.99429146 -186.33371405 -47.63597872 -201.97827148 -45.44677734 Z " fill="#6D5490" transform="translate(403.978271484375,55.44677734375)"/>
<path d="M0 0 C1.65 0 3.3 0 5 0 C8.61827817 6.78427158 9.11646649 13.17602217 7.37890625 20.68359375 C4.67546975 28.57762832 -0.3021916 32.7244256 -7.25 37 C-10.11629904 38.04229056 -11.24564195 38.22415914 -14 37 C-15 36 -15 36 -15.0625 32.4375 C-15.041875 31.303125 -15.02125 30.16875 -15 29 C-15.66 29 -16.32 29 -17 29 C-17.2784375 30.299375 -17.2784375 30.299375 -17.5625 31.625 C-19.87290206 37.04942224 -23.9854807 39.62646412 -28.75 42.875 C-33.4528732 44.50291765 -38.06493075 44.4371782 -43 44 C-45.11925604 41.88074396 -44.41831017 37.3803907 -44.5625 34.4375 C-44.60568359 33.63119141 -44.64886719 32.82488281 -44.69335938 31.99414062 C-44.79975262 29.99631195 -44.90040888 27.9981793 -45 26 C-45.59167969 26.5775 -46.18335938 27.155 -46.79296875 27.75 C-47.58316406 28.4925 -48.37335938 29.235 -49.1875 30 C-49.96480469 30.7425 -50.74210938 31.485 -51.54296875 32.25 C-54.33045204 34.23536171 -55.65781368 34.37992882 -59 34 C-63.69395442 23.94152624 -65.58924413 17.64607543 -61.8515625 6.98046875 C-61 5 -61 5 -59 2 C-57.0625 2.3125 -57.0625 2.3125 -55 3 C-54 6 -54 6 -55.4375 9.0625 C-57.52208338 13.54722296 -57.65502795 18.13407809 -57 23 C-56.34 23.99 -55.68 24.98 -55 26 C-53.70756532 24.8758824 -52.41607925 23.75067408 -51.125 22.625 C-50.40570313 21.99851562 -49.68640625 21.37203125 -48.9453125 20.7265625 C-47.5923402 19.52573166 -46.2791655 18.2791655 -45 17 C-42.375 17.375 -42.375 17.375 -40 18 C-38.19320413 22.62369023 -37.78160918 26.42528653 -37.875 31.375 C-37.89304688 32.62023437 -37.91109375 33.86546875 -37.9296875 35.1484375 C-37.95289063 36.08945312 -37.97609375 37.03046875 -38 38 C-31.57520595 36.60140538 -27.51254804 34.42344687 -23.3671875 29.265625 C-21.53110095 26.22296728 -20.85603112 23.38132289 -20.38671875 19.8828125 C-20 18 -20 18 -18 16 C-16.01171875 16.140625 -16.01171875 16.140625 -14 17 C-11.22450115 20.77115399 -9.57860814 25.37113484 -9 30 C-4.40325491 27.4926845 -1.84655101 25.15431054 0.31640625 20.34375 C2.22815795 13.78917274 1.17750587 6.62347052 0 0 Z " fill="#735B95" transform="translate(271,262)"/>
<path d="M0 0 C2.475 0.495 2.475 0.495 5 1 C5.66 4.3 6.32 7.6 7 11 C8.98 8.69 10.96 6.38 13 4 C14.32 4.33 15.64 4.66 17 5 C17.50726997 11.03439897 14.69131226 13.46276201 11 18 C15.62 18 20.24 18 25 18 C25 19.65 25 21.3 25 23 C23.05909174 24.94090826 19.52706098 24.39919435 16.9375 24.5625 C15.64714844 24.64628906 14.35679687 24.73007812 13.02734375 24.81640625 C12.02832031 24.87699219 11.02929688 24.93757813 10 25 C11.28857013 26.31554021 12.58095891 27.62734097 13.875 28.9375 C14.59429687 29.66839844 15.31359375 30.39929688 16.0546875 31.15234375 C17.87027192 33.05667999 17.87027192 33.05667999 20 34 C19.67 35.65 19.34 37.3 19 39 C16.9375 39.4375 16.9375 39.4375 14 39 C11.42739828 36.87919817 9.20745501 34.49372439 7 32 C6.90912109 33.28197266 6.90912109 33.28197266 6.81640625 34.58984375 C6.73261719 35.69457031 6.64882812 36.79929687 6.5625 37.9375 C6.48128906 39.03964844 6.40007812 40.14179688 6.31640625 41.27734375 C6 44 6 44 5 45 C3.35 45 1.7 45 0 45 C-0.495 38.565 -0.495 38.565 -1 32 C-2.051875 33.32 -3.10375 34.64 -4.1875 36 C-5.98046875 38.25 -5.98046875 38.25 -8 40 C-10.73828125 40.25 -10.73828125 40.25 -13 40 C-13.37992882 36.65781368 -13.23536171 35.33045204 -11.25 32.54296875 C-8.125 29.27148438 -8.125 29.27148438 -5 26 C-9.62 25.34 -14.24 24.68 -19 24 C-19 22.35 -19 20.7 -19 19 C-14.20699867 17.60848348 -9.84864218 18.31337311 -5 19 C-5.48210937 18.46890625 -5.96421875 17.9378125 -6.4609375 17.390625 C-7.09257813 16.68421875 -7.72421875 15.9778125 -8.375 15.25 C-9.00148438 14.55390625 -9.62796875 13.8578125 -10.2734375 13.140625 C-11.893349 11.13222793 -13.07956199 9.4072994 -14 7 C-13.67 6.34 -13.34 5.68 -13 5 C-10.9375 4.5625 -10.9375 4.5625 -8 5 C-5.42739828 7.12080183 -3.20745501 9.50627561 -1 12 C-1.01160156 11.21753906 -1.02320312 10.43507813 -1.03515625 9.62890625 C-1.04417969 8.61699219 -1.05320312 7.60507812 -1.0625 6.5625 C-1.07410156 5.55316406 -1.08570312 4.54382813 -1.09765625 3.50390625 C-1 1 -1 1 0 0 Z " fill="#A191B8" transform="translate(119,350)"/>
<path d="M0 0 C1.65 0 3.3 0 5 0 C5.66 2.97 6.32 5.94 7 9 C8.32 7.35 9.64 5.7 11 4 C13.475 4.495 13.475 4.495 16 5 C15.49701212 9.40114397 13.91227269 11.71195019 11 15 C14.63 15 18.26 15 22 15 C22.495 17.475 22.495 17.475 23 20 C21.43694509 21.56305491 19.72321782 21.30639968 17.5625 21.5 C14.15502495 21.79146944 14.15502495 21.79146944 11 23 C11.5053125 23.37511719 12.010625 23.75023437 12.53125 24.13671875 C17.90394511 28.36878216 17.90394511 28.36878216 18.4375 31.875 C18.293125 32.57625 18.14875 33.2775 18 34 C16.234375 34.68359375 16.234375 34.68359375 14 35 C11.33131969 33.31309029 9.31137751 31.17802881 7 29 C6.67 32.3 6.34 35.6 6 39 C2 40 2 40 0 39 C-0.4140625 36.93359375 -0.4140625 36.93359375 -0.625 34.4375 C-0.69976562 33.61121094 -0.77453125 32.78492188 -0.8515625 31.93359375 C-0.92503906 30.97646484 -0.92503906 30.97646484 -1 30 C-1.721875 30.845625 -2.44375 31.69125 -3.1875 32.5625 C-6 35 -6 35 -8.8125 34.8125 C-9.534375 34.544375 -10.25625 34.27625 -11 34 C-10.67566492 28.64847115 -7.50295176 25.71719957 -4 22 C-4.78246094 22.01160156 -5.56492187 22.02320313 -6.37109375 22.03515625 C-7.38300781 22.04417969 -8.39492188 22.05320313 -9.4375 22.0625 C-10.44683594 22.07410156 -11.45617187 22.08570313 -12.49609375 22.09765625 C-15 22 -15 22 -16 21 C-16 19.35 -16 17.7 -16 16 C-10.555 15.505 -10.555 15.505 -5 15 C-6.010625 14.113125 -7.02125 13.22625 -8.0625 12.3125 C-9.73046875 10.66796875 -9.73046875 10.66796875 -11 9 C-10.875 6.125 -10.875 6.125 -10 4 C-5.68607774 4.4793247 -3.83430453 5.7457985 -1 9 C-0.67 6.03 -0.34 3.06 0 0 Z " fill="#A191B8" transform="translate(367,153)"/>
<path d="M0 0 C1.65 0 3.3 0 5 0 C5.66 2.31 6.32 4.62 7 7 C7.86625 5.9790625 7.86625 5.9790625 8.75 4.9375 C9.4925 4.298125 10.235 3.65875 11 3 C13.25 3.25 13.25 3.25 15 4 C14.47535095 8.61691161 13.92509086 10.09987886 11 14 C14.3 14 17.6 14 21 14 C21 15.65 21 17.3 21 19 C19.41727399 20.58272601 17.61965997 20.34735747 15.4375 20.5625 C14.19806641 20.68818359 14.19806641 20.68818359 12.93359375 20.81640625 C12.29550781 20.87699219 11.65742188 20.93757813 11 21 C11.99 21.721875 12.98 22.44375 14 23.1875 C16.94793497 25.6095123 16.94793497 25.6095123 17.375 28.8125 C17.25125 29.534375 17.1275 30.25625 17 31 C15.375 31.8125 15.375 31.8125 13 32 C10.75390165 30.53181864 8.97621323 28.84147142 7 27 C6.67 29.64 6.34 32.28 6 35 C4.34385343 35.38218767 2.67542976 35.71395102 1 36 C-0.96822886 34.03177114 -0.66248381 30.65191291 -1 28 C-1.391875 28.66 -1.78375 29.32 -2.1875 30 C-4 32 -4 32 -6.6875 32.25 C-7.450625 32.1675 -8.21375 32.085 -9 32 C-9.68359375 30.234375 -9.68359375 30.234375 -10 28 C-8.78515625 26.078125 -8.78515625 26.078125 -7.0625 24.25 C-6.49660156 23.63640625 -5.93070313 23.0228125 -5.34765625 22.390625 C-4.90292969 21.93171875 -4.45820313 21.4728125 -4 21 C-4.95712891 20.90912109 -4.95712891 20.90912109 -5.93359375 20.81640625 C-6.75988281 20.73261719 -7.58617187 20.64882813 -8.4375 20.5625 C-9.26121094 20.48128906 -10.08492187 20.40007813 -10.93359375 20.31640625 C-13 20 -13 20 -14 19 C-14.04063832 17.33382885 -14.042721 15.66611905 -14 14 C-11.03 14 -8.06 14 -5 14 C-6.2684375 12.63875 -6.2684375 12.63875 -7.5625 11.25 C-10.02603251 8.32974517 -10.02603251 8.32974517 -9.8125 5.625 C-9.544375 5.08875 -9.27625 4.5525 -9 4 C-4.44615385 3.63076923 -4.44615385 3.63076923 -2.1875 5.5 C-1.795625 5.995 -1.40375 6.49 -1 7 C-0.67 4.69 -0.34 2.38 0 0 Z " fill="#A191B8" transform="translate(187,43)"/>
<path d="M0 0 C3.2186267 2.1213676 4.36898801 3.20652425 5.75 6.8125 C6.44064688 11.9113498 6.32148546 15.66952908 4 20.3125 C1.39900113 23.20249874 -0.54388214 24.54572521 -4.3984375 25.1484375 C-9.8430041 25.24395621 -12.99878427 24.54527479 -17.25 20.8125 C-19.82484133 16.60633796 -19.81721303 12.61662248 -19.25 7.8125 C-17.77406483 4.57949914 -15.98407055 2.09089213 -13.25 -0.1875 C-8.51800479 -1.76483174 -4.69388532 -1.71507348 0 0 Z " fill="#E4E0EA" transform="translate(74.25,267.1875)"/>
<path d="M0 0 C6.07928093 3.58854642 11.624327 9.60833021 14.51171875 16.0625 C14.19921875 18.875 14.19921875 18.875 13.51171875 21.0625 C11.86171875 20.7325 10.21171875 20.4025 8.51171875 20.0625 C8.18171875 19.0725 7.85171875 18.0825 7.51171875 17.0625 C6.61453125 17.5265625 6.61453125 17.5265625 5.69921875 18 C1.4849247 20.04694282 -1.82356093 20.62548349 -6.48828125 20.0625 C-9.74027123 17.36404023 -11.25992247 15.86302112 -11.79296875 11.66015625 C-11.79999243 9.43716188 -11.70939384 7.27362588 -11.48828125 5.0625 C-13.15890625 5.124375 -13.15890625 5.124375 -14.86328125 5.1875 C-18.48828125 5.0625 -18.48828125 5.0625 -20.48828125 3.0625 C-20.30078125 1 -20.30078125 1 -19.48828125 -0.9375 C-13.49365929 -2.93570732 -5.8876405 -2.2182633 0 0 Z " fill="#725993" transform="translate(193.48828125,308.9375)"/>
<path d="M0 0 C0.74056641 0.00902344 1.48113281 0.01804687 2.24414062 0.02734375 C4.05873467 0.05075787 5.87316071 0.08662385 7.6875 0.125 C8.1825 2.6 8.1825 2.6 8.6875 5.125 C5.7175 5.125 2.7475 5.125 -0.3125 5.125 C-0.25449219 5.86105469 -0.19648438 6.59710938 -0.13671875 7.35546875 C0.22997926 15.28662295 0.22997926 15.28662295 -2.375 19.3125 C-6.12184203 21.62438125 -7.96902468 21.79898755 -12.3125 21.125 C-14.83803127 19.97792634 -16.97650569 18.6505473 -19.3125 17.125 C-20.3025 19.6 -20.3025 19.6 -21.3125 22.125 C-23.25 21.8125 -23.25 21.8125 -25.3125 21.125 C-26.3125 18.125 -26.3125 18.125 -25.34375 15.85546875 C-18.89826896 5.1513663 -12.90205407 -0.29977963 0 0 Z " fill="#6F5792" transform="translate(302.3125,307.875)"/>
<path d="M0 0 C2.75569447 2.18159145 4.43588747 3.87177494 6 7 C6.04079849 11.22672392 5.69610539 14.88623137 3.4375 18.5 C0.04188828 20.58960721 -3.02098759 21.22149572 -7 21 C-9.97160035 19.64339984 -11.70283441 18.29716559 -14 16 C-14.99593573 11.40337357 -15.39188911 9.05810061 -13.75 4.625 C-10.23198305 -0.65202542 -5.88617135 -1.04298826 0 0 Z " fill="#D5CEDF" transform="translate(402,339)"/>
<path d="M0 0 C2.75569447 2.18159145 4.43588747 3.87177494 6 7 C6.04079849 11.22672392 5.69610539 14.88623137 3.4375 18.5 C0.04188828 20.58960721 -3.02098759 21.22149572 -7 21 C-9.97160035 19.64339984 -11.70283441 18.29716559 -14 16 C-14.99593573 11.40337357 -15.39188911 9.05810061 -13.75 4.625 C-10.23198305 -0.65202542 -5.88617135 -1.04298826 0 0 Z " fill="#D5CEDF" transform="translate(237,109)"/>
<path d="M0 0 C1.67542976 0.28604898 3.34385343 0.61781233 5 1 C5.02505615 2.20422607 5.0501123 3.40845215 5.07592773 4.64916992 C5.17108705 9.17627103 5.27102905 13.70325676 5.37231445 18.23022461 C5.41525784 20.17843907 5.45695544 22.12668146 5.49731445 24.07495117 C5.71926124 34.74757737 5.98141038 45.36792407 7 56 C5.34385343 56.38218767 3.67542976 56.71395102 2 57 C-3.01773501 51.98226499 -1.22629187 34.88540239 -1.23318481 28.17694092 C-1.22745387 26.39577849 -1.21831254 24.61462387 -1.20581055 22.83349609 C-1.18719789 20.08031232 -1.18530396 17.32745976 -1.18554688 14.57421875 C-1.18064291 12.82291373 -1.17481956 11.07161099 -1.16796875 9.3203125 C-1.16685593 8.49757843 -1.1657431 7.67484436 -1.16459656 6.82717896 C-1.11616705 1.11616705 -1.11616705 1.11616705 0 0 Z " fill="#745C95" transform="translate(263,317)"/>
<path d="M0 0 C1.65 0.33 3.3 0.66 5 1 C5.04987886 6.90412196 5.0859438 12.80811804 5.10986328 18.71240234 C5.11984748 20.71600484 5.13343955 22.71959305 5.15087891 24.72314453 C5.3319431 46.07806848 5.3319431 46.07806848 3 56 C-0.75 57.125 -0.75 57.125 -3 56 C-2.85572556 54.0415512 -2.70948162 52.08324748 -2.5625 50.125 C-2.48128906 49.03445313 -2.40007812 47.94390625 -2.31640625 46.8203125 C-2.15349859 44.85335336 -1.98690176 42.88607081 -1.76147461 40.92529297 C-0.81483429 32.59733302 -0.65793052 24.24596149 -0.4375 15.875 C-0.39420698 14.33071997 -0.35058967 12.786449 -0.30664062 11.2421875 C-0.20069059 7.49488861 -0.0991213 3.74748647 0 0 Z " fill="#715893" transform="translate(217,317)"/>
<path d="M0 0 C0.66 0.33 1.32 0.66 2 1 C2.63860769 3.69797102 3.16825242 6.33366623 3.625 9.0625 C3.7590625 9.82111328 3.893125 10.57972656 4.03125 11.36132812 C4.36200122 13.23952258 4.68200734 15.11960338 5 17 C5.78246094 17.12117188 6.56492187 17.24234375 7.37109375 17.3671875 C8.38300781 17.53476563 9.39492188 17.70234375 10.4375 17.875 C11.95150391 18.11863281 11.95150391 18.11863281 13.49609375 18.3671875 C14.32238281 18.57601562 15.14867188 18.78484375 16 19 C16.33 19.66 16.66 20.32 17 21 C13.04 21.99 9.08 22.98 5 24 C4.855625 25.85625 4.71125 27.7125 4.5625 29.625 C4.21748543 33.79474747 3.79952651 37.88814936 3 42 C2.34 42 1.68 42 1 42 C-0.32 36.06 -1.64 30.12 -3 24 C-7.455 23.01 -7.455 23.01 -12 22 C-12.33 21.01 -12.66 20.02 -13 19 C-9.37 18.67 -5.74 18.34 -2 18 C-1.93941406 17.11957031 -1.87882812 16.23914063 -1.81640625 15.33203125 C-1.73261719 14.17058594 -1.64882813 13.00914062 -1.5625 11.8125 C-1.48128906 10.66394531 -1.40007813 9.51539063 -1.31640625 8.33203125 C-1.04596188 5.48401829 -0.62478253 2.78789518 0 0 Z " fill="#B9ADCA" transform="translate(53,197)"/>
<path d="M0 0 C3.85940746 3.85940746 3.94344336 10.35985738 4.125 15.625 C4.08375 16.40875 4.0425 17.1925 4 18 C4.61488281 17.98839844 5.22976563 17.97679687 5.86328125 17.96484375 C6.67152344 17.95582031 7.47976563 17.94679688 8.3125 17.9375 C9.51326172 17.92009766 9.51326172 17.92009766 10.73828125 17.90234375 C13 18 13 18 16 19 C16 19.66 16 20.32 16 21 C11.05 22.485 11.05 22.485 6 24 C5.80664062 25.13179688 5.61328125 26.26359375 5.4140625 27.4296875 C5.15145714 28.91153202 4.88841352 30.39329892 4.625 31.875 C4.43550781 32.99455078 4.43550781 32.99455078 4.2421875 34.13671875 C3.2265625 39.7734375 3.2265625 39.7734375 1 42 C-0.32 36.06 -1.64 30.12 -3 24 C-6.63 23.01 -10.26 22.02 -14 21 C-14 20.34 -14 19.68 -14 19 C-9.94150823 18.01612321 -6.16468745 17.96075677 -2 18 C-1.93941406 16.86820312 -1.87882812 15.73640625 -1.81640625 14.5703125 C-1.73200083 13.08852855 -1.64735283 11.6067584 -1.5625 10.125 C-1.50352539 9.00544922 -1.50352539 9.00544922 -1.44335938 7.86328125 C-1.11328125 2.2265625 -1.11328125 2.2265625 0 0 Z " fill="#B9ADCA" transform="translate(344,371)"/>
<path d="M0 0 C0.66 0.33 1.32 0.66 2 1 C2.46806645 3.33744294 2.82669794 5.69739079 3.125 8.0625 C3.29257812 9.35285156 3.46015625 10.64320312 3.6328125 11.97265625 C3.75398438 12.97167969 3.87515625 13.97070312 4 15 C5.918125 14.9690625 5.918125 14.9690625 7.875 14.9375 C11.75 14.875 11.75 14.875 14 16 C14 16.66 14 17.32 14 18 C9.545 19.485 9.545 19.485 5 21 C4.87882812 21.84304687 4.75765625 22.68609375 4.6328125 23.5546875 C4.46523438 24.65039062 4.29765625 25.74609375 4.125 26.875 C3.96257812 27.96554688 3.80015625 29.05609375 3.6328125 30.1796875 C3 33 3 33 1 35 C0.49564306 33.0636296 -0.00333874 31.12585854 -0.5 29.1875 C-0.7784375 28.10855469 -1.056875 27.02960938 -1.34375 25.91796875 C-2 23 -2 23 -2 20 C-2.63808594 19.87882812 -3.27617187 19.75765625 -3.93359375 19.6328125 C-4.75988281 19.46523437 -5.58617187 19.29765625 -6.4375 19.125 C-7.26121094 18.96257812 -8.08492188 18.80015625 -8.93359375 18.6328125 C-9.61550781 18.42398438 -10.29742187 18.21515625 -11 18 C-11.33 17.34 -11.66 16.68 -12 16 C-8.7 15.67 -5.4 15.34 -2 15 C-1.93941406 14.16855469 -1.87882812 13.33710937 -1.81640625 12.48046875 C-1.73261719 11.39378906 -1.64882813 10.30710937 -1.5625 9.1875 C-1.48128906 8.10855469 -1.40007812 7.02960937 -1.31640625 5.91796875 C-1 3 -1 3 0 0 Z " fill="#B9ADCA" transform="translate(291,49)"/>
<path d="M0 0 C1.9375 1.0625 1.9375 1.0625 3 3 C3.98586223 6.80261145 4.29822018 9.14261699 3 12.875 C1 15 1 15 -2.4375 15.9375 C-7.39705882 16.0245098 -7.39705882 16.0245098 -10 14 C-12.09679403 11.30412197 -11.99510821 9.907056 -11.8125 6.4375 C-11 3 -11 3 -9.9375 1.0625 C-6.74497633 -0.68823879 -3.54677411 -0.52572226 0 0 Z " fill="#E4E0EA" transform="translate(249,174)"/>
<path d="M0 0 C2.09765625 0.375 2.09765625 0.375 4.16015625 1.875 C5.50468344 5.46040584 5.90697262 8.60589803 5.09765625 12.375 C3.03515625 14.9375 3.03515625 14.9375 0.09765625 16.375 C-3.36993317 16.31521398 -5.79061124 15.98465977 -8.83984375 14.3125 C-10.59293587 11.11568496 -10.38901507 7.88044411 -9.90234375 4.375 C-8.09470237 -0.44537702 -4.62330627 -0.24056228 0 0 Z " fill="#D5CEDF" transform="translate(74.90234375,328.625)"/>
<path d="M0 0 C1.9375 1.0625 1.9375 1.0625 3 3 C3.75471698 9.79245283 3.75471698 9.79245283 1.4375 13.5 C-1.94888329 15.58392818 -4.09385318 15.55802097 -8 15 C-10.4375 13.5 -10.4375 13.5 -12 11 C-12.61014545 8.1910285 -12.65360928 5.80363979 -12 3 C-8.3655827 -1.51548816 -5.40521016 -1.50144727 0 0 Z " fill="#D5CEDF" transform="translate(442,197)"/>
<path d="M0 0 C2.86801846 0.08864784 3.78417611 0.16414857 6.125 1.9375 C7.48213883 5.46606096 7.04765877 7.76275116 6.0625 11.375 C4.375 13.375 4.375 13.375 2.0625 14.375 C-1.38016385 14.30474155 -3.22103249 13.97590824 -5.875 11.75 C-7.40612051 8.32749533 -6.8001304 5.95823398 -5.9375 2.375 C-3.9375 0.375 -3.9375 0.375 0 0 Z " fill="#D5CEDF" transform="translate(424.9375,274.625)"/>
<path d="M0 0 C1.9375 1 1.9375 1 3 3 C3.46000079 5.76000474 3.50420748 8.24404774 3 11 C1.4375 13.0625 1.4375 13.0625 -1 14 C-4.625 13.875 -4.625 13.875 -8 13 C-10.46324069 9.30513897 -10.38991688 7.36706908 -10 3 C-7.77766882 -1.05248626 -4.20052866 -0.45005664 0 0 Z " fill="#D5CEDF" transform="translate(126,150)"/>
<path d="M0 0 C3.4375 0.8125 3.4375 0.8125 5.4375 3.8125 C4.98466981 10.26533019 4.98466981 10.26533019 2.4375 12.8125 C-3.70481015 13.4825702 -3.70481015 13.4825702 -6.5625 11.25 C-7.99385511 7.76107191 -7.496466 5.41494028 -6.5625 1.8125 C-3.5625 -0.1875 -3.5625 -0.1875 0 0 Z " fill="#E9E6EE" transform="translate(148.5625,415.1875)"/>
<path d="M0 0 C3.4375 0.8125 3.4375 0.8125 5.4375 3.8125 C4.98466981 10.26533019 4.98466981 10.26533019 2.4375 12.8125 C-3.70481015 13.4825702 -3.70481015 13.4825702 -6.5625 11.25 C-7.99385511 7.76107191 -7.496466 5.41494028 -6.5625 1.8125 C-3.5625 -0.1875 -3.5625 -0.1875 0 0 Z " fill="#E9E6EE" transform="translate(248.5625,45.1875)"/>
<path d="M0 0 C3.5 0.4375 3.5 0.4375 5.4375 1.5625 C6.98724515 4.29734439 6.82162076 6.3499407 6.5 9.4375 C4.5 12.4375 4.5 12.4375 1.625 13.25 C-1.5 13.4375 -1.5 13.4375 -3.8125 12.9375 C-5.5 11.4375 -5.5 11.4375 -6.4375 8.0625 C-6.5 4.4375 -6.5 4.4375 -5.5 2 C-3.5 0.4375 -3.5 0.4375 0 0 Z " fill="#E9E6EE" transform="translate(357.5,312.5625)"/>
<path d="M0 0 C1.875 1.0625 1.875 1.0625 3 3 C3.63316583 8.90954774 3.63316583 8.90954774 1.875 11.9375 C-0.88980433 13.50422245 -2.88188517 13.38976435 -6 13 C-7.875 11.9375 -7.875 11.9375 -9 10 C-9.63316583 4.09045226 -9.63316583 4.09045226 -7.875 1.0625 C-5.11019567 -0.50422245 -3.11811483 -0.38976435 0 0 Z " fill="#E9E6EE" transform="translate(153,195)"/>
<path d="M0 0 C2.31 0 4.62 0 7 0 C8.32841008 5.43440487 8.32841008 5.43440487 6.875 7.9375 C5 9 5 9 2.375 8.75 C0 8 0 8 -1 7 C-0.71269945 4.66055264 -0.38063221 2.3260857 0 0 Z " fill="#8A76A6" transform="translate(438,125)"/>
<path d="M0 0 C2.875 -0.125 2.875 -0.125 6 0 C8 2 8 2 8.3125 4.5 C8.1578125 5.7375 8.1578125 5.7375 8 7 C5 9 5 9 1.8125 8.625 C0.4203125 8.315625 0.4203125 8.315625 -1 8 C-1.125 2.25 -1.125 2.25 0 0 Z " fill="#8A76A6" transform="translate(103,52)"/>
<path d="M0 0 C2.31 0.33 4.62 0.66 7 1 C7.33 2.98 7.66 4.96 8 7 C5 9 5 9 1.8125 8.625 C0.4203125 8.315625 0.4203125 8.315625 -1 8 C-1.125 2.25 -1.125 2.25 0 0 Z " fill="#8A76A6" transform="translate(125,38)"/>
<path d="M0 0 C2.875 -0.125 2.875 -0.125 6 0 C6.66 0.66 7.32 1.32 8 2 C7.625 5.125 7.625 5.125 7 8 C4.6875 8.625 4.6875 8.625 2 9 C1.01 8.34 0.02 7.68 -1 7 C-0.67 4.69 -0.34 2.38 0 0 Z " fill="#8A76A6" transform="translate(178,457)"/>
<path d="M0 0 C1.2375 0.1546875 1.2375 0.1546875 2.5 0.3125 C4.5 3.3125 4.5 3.3125 4.125 6 C3.91875 6.763125 3.7125 7.52625 3.5 8.3125 C0.625 8.9375 0.625 8.9375 -2.5 9.3125 C-4.5 7.3125 -4.5 7.3125 -4.75 4.8125 C-4.40047575 1.3172575 -3.47557682 0.4344471 0 0 Z " fill="#8A76A6" transform="translate(320.5,452.6875)"/>
<path d="M0 0 C1.2375 0.1546875 1.2375 0.1546875 2.5 0.3125 C4.5 3.3125 4.5 3.3125 4.125 6 C3.91875 6.763125 3.7125 7.52625 3.5 8.3125 C0.625 8.9375 0.625 8.9375 -2.5 9.3125 C-4.5 7.3125 -4.5 7.3125 -4.75 4.8125 C-4.40047575 1.3172575 -3.47557682 0.4344471 0 0 Z " fill="#8A76A6" transform="translate(332.5,448.6875)"/>
<path d="M0 0 C1.2375 0.1546875 1.2375 0.1546875 2.5 0.3125 C4.5 3.3125 4.5 3.3125 4.125 6 C3.91875 6.763125 3.7125 7.52625 3.5 8.3125 C0.625 8.9375 0.625 8.9375 -2.5 9.3125 C-4.5 7.3125 -4.5 7.3125 -4.75 4.8125 C-4.40047575 1.3172575 -3.47557682 0.4344471 0 0 Z " fill="#8A76A6" transform="translate(344.5,443.6875)"/>
<path d="M0 0 C2.33944736 0.28730055 4.6739143 0.61936779 7 1 C7.625 3.3125 7.625 3.3125 8 6 C7.01 7.485 7.01 7.485 6 9 C3.03 8.505 3.03 8.505 0 8 C-0.38063221 5.6739143 -0.71269945 3.33944736 -1 1 C-0.67 0.67 -0.34 0.34 0 0 Z " fill="#8A76A6" transform="translate(130,440)"/>
<path d="M0 0 C1.98 0 3.96 0 6 0 C6 0.66 6 1.32 6 2 C6.66 2 7.32 2 8 2 C8.1875 4.375 8.1875 4.375 8 7 C5 9 5 9 1.8125 8.625 C0.4203125 8.315625 0.4203125 8.315625 -1 8 C-1.125 2.25 -1.125 2.25 0 0 Z " fill="#8A76A6" transform="translate(69,394)"/>
<path d="M0 0 C1.2375 0.1546875 1.2375 0.1546875 2.5 0.3125 C4.5 3.3125 4.5 3.3125 4.125 6 C3.91875 6.763125 3.7125 7.52625 3.5 8.3125 C0.625 8.9375 0.625 8.9375 -2.5 9.3125 C-4.5 7.3125 -4.5 7.3125 -4.75 4.8125 C-4.40047575 1.3172575 -3.47557682 0.4344471 0 0 Z " fill="#8A76A6" transform="translate(451.5,147.6875)"/>
<path d="M0 0 C2.33944736 0.28730055 4.6739143 0.61936779 7 1 C7.625 3.3125 7.625 3.3125 8 6 C7.01 7.485 7.01 7.485 6 9 C3.03 8.505 3.03 8.505 0 8 C-0.38063221 5.6739143 -0.71269945 3.33944736 -1 1 C-0.67 0.67 -0.34 0.34 0 0 Z " fill="#8A76A6" transform="translate(38,130)"/>
<path d="M0 0 C1.98 0 3.96 0 6 0 C6 0.66 6 1.32 6 2 C6.66 2 7.32 2 8 2 C8.1875 4.375 8.1875 4.375 8 7 C5 9 5 9 1.8125 8.625 C0.4203125 8.315625 0.4203125 8.315625 -1 8 C-1.125 2.25 -1.125 2.25 0 0 Z " fill="#8A76A6" transform="translate(93,60)"/>
<path d="M0 0 C3.125 0.375 3.125 0.375 6 1 C6.625 3.875 6.625 3.875 7 7 C5 9 5 9 2.5 9.25 C0 9 0 9 -2 7 C-2.25 4.5 -2.25 4.5 -2 2 C-1.34 1.34 -0.68 0.68 0 0 Z " fill="#8A76A6" transform="translate(349,36)"/>
<path d="M0 0 C1.2684375 0.12375 1.2684375 0.12375 2.5625 0.25 C4.5625 3.25 4.5625 3.25 4.1875 5.9375 C3.98125 6.700625 3.775 7.46375 3.5625 8.25 C-2.1875 9.375 -2.1875 9.375 -4.4375 8.25 C-3.43230397 0.35203118 -3.43230397 0.35203118 0 0 Z " fill="#8A76A6" transform="translate(139.4375,31.75)"/>
<path d="M0 0 C1.2375 0.1546875 1.2375 0.1546875 2.5 0.3125 C4.5 3.3125 4.5 3.3125 4.125 6 C3.91875 6.763125 3.7125 7.52625 3.5 8.3125 C0.625 8.9375 0.625 8.9375 -2.5 9.3125 C-4.5 7.3125 -4.5 7.3125 -4.75 4.8125 C-4.40047575 1.3172575 -3.47557682 0.4344471 0 0 Z " fill="#8A76A6" transform="translate(151.5,26.6875)"/>
<path d="M0 0 C0.6875 2.3125 0.6875 2.3125 1 5 C-0.125 6.8125 -0.125 6.8125 -2 8 C-4.6875 8.1875 -4.6875 8.1875 -7 8 C-8.35439668 5.29120665 -8.06501451 2.99066732 -8 0 C-5.13822943 -1.43088528 -3.06624227 -0.59991697 0 0 Z " fill="#8A76A6" transform="translate(115,428)"/>
<path d="M0 0 C3.0625 0.1875 3.0625 0.1875 5.0625 2.1875 C4.73278521 5.48464793 4.4398161 6.8101839 2.0625 9.1875 C-0.5625 8.8125 -0.5625 8.8125 -2.9375 8.1875 C-3.31813221 5.8614143 -3.65019945 3.52694736 -3.9375 1.1875 C-2.9375 0.1875 -2.9375 0.1875 0 0 Z " fill="#8A76A6" transform="translate(55.9375,373.8125)"/>
<path d="M0 0 C3.125 0.375 3.125 0.375 6 1 C6.625 3.3125 6.625 3.3125 7 6 C6.01 7.485 6.01 7.485 5 9 C-0.875 8.125 -0.875 8.125 -2 7 C-2.1875 4.5625 -2.1875 4.5625 -2 2 C-1.34 1.34 -0.68 0.68 0 0 Z " fill="#8A76A6" transform="translate(446,335)"/>
<path d="M0 0 C1.2684375 0.12375 1.2684375 0.12375 2.5625 0.25 C4.5625 3.25 4.5625 3.25 4.1875 5.9375 C3.98125 6.700625 3.775 7.46375 3.5625 8.25 C1.5825 8.58 -0.3975 8.91 -2.4375 9.25 C-4.4375 6.25 -4.4375 6.25 -4.125 3.625 C-3.16976704 0.32510431 -3.16976704 0.32510431 0 0 Z " fill="#8A76A6" transform="translate(32.4375,328.75)"/>
<path d="M0 0 C2.4375 0.8125 2.4375 0.8125 4.4375 2.8125 C4.0625 5.4375 4.0625 5.4375 3.4375 7.8125 C0.15053767 8.61203138 -1.27273192 8.90908936 -4.5625 7.8125 C-5.25 5.5 -5.25 5.5 -5.5625 2.8125 C-3.93062878 0.09271463 -3.17771033 -0.23251539 0 0 Z " fill="#8A76A6" transform="translate(27.5625,165.1875)"/>
<path d="M0 0 C3.125 0.375 3.125 0.375 6 1 C6.625 3.3125 6.625 3.3125 7 6 C6.01 7.485 6.01 7.485 5 9 C-0.875 8.125 -0.875 8.125 -2 7 C-2.1875 4.5625 -2.1875 4.5625 -2 2 C-1.34 1.34 -0.68 0.68 0 0 Z " fill="#8A76A6" transform="translate(29,153)"/>
<path d="M0 0 C1.2375 0.1546875 1.2375 0.1546875 2.5 0.3125 C4.5 3.3125 4.5 3.3125 4.125 6 C3.91875 6.763125 3.7125 7.52625 3.5 8.3125 C1.1875 8.9375 1.1875 8.9375 -1.5 9.3125 C-2.49 8.6525 -3.48 7.9925 -4.5 7.3125 C-4.8125 4.8125 -4.8125 4.8125 -4.5 2.3125 C-2.5 0.3125 -2.5 0.3125 0 0 Z " fill="#8A76A6" transform="translate(446.5,135.6875)"/>
<path d="M0 0 C1.9375 0.75 1.9375 0.75 3.9375 2.75 C3.5625 5.875 3.5625 5.875 2.9375 8.75 C0.0625 8.875 0.0625 8.875 -3.0625 8.75 C-5.0625 6.75 -5.0625 6.75 -5.375 4.25 C-5.271875 3.425 -5.16875 2.6 -5.0625 1.75 C-2.0625 -0.25 -2.0625 -0.25 0 0 Z " fill="#8A76A6" transform="translate(48.0625,118.25)"/>
<path d="M0 0 C2 3 2 3 1.625 5.6875 C1.41875 6.450625 1.2125 7.21375 1 8 C-1.3125 8.625 -1.3125 8.625 -4 9 C-4.99 8.34 -5.98 7.68 -7 7 C-7.1875 3.875 -7.1875 3.875 -7 1 C-4.46578263 -0.26710868 -2.80561762 -0.28056176 0 0 Z " fill="#8A76A6" transform="translate(64,97)"/>
<path d="M0 0 C2.375 0.6875 2.375 0.6875 3.375 1.6875 C3.08769945 4.02694736 2.75563221 6.3614143 2.375 8.6875 C0.065 8.6875 -2.245 8.6875 -4.625 8.6875 C-4.955 6.3775 -5.285 4.0675 -5.625 1.6875 C-2.625 -0.3125 -2.625 -0.3125 0 0 Z " fill="#8A76A6" transform="translate(374.625,49.3125)"/>
<path d="M0 0 C1.9375 0.6875 1.9375 0.6875 3.9375 1.6875 C3.6075 3.9975 3.2775 6.3075 2.9375 8.6875 C0.0625 8.8125 0.0625 8.8125 -3.0625 8.6875 C-5.0625 6.6875 -5.0625 6.6875 -5.375 4.1875 C-5.271875 3.3625 -5.16875 2.5375 -5.0625 1.6875 C-2.0625 -0.3125 -2.0625 -0.3125 0 0 Z " fill="#8A76A6" transform="translate(363.0625,42.3125)"/>
<path d="M0 0 C1.2684375 0.12375 1.2684375 0.12375 2.5625 0.25 C4.5625 3.25 4.5625 3.25 4.1875 5.9375 C3.98125 6.700625 3.775 7.46375 3.5625 8.25 C1.5825 8.58 -0.3975 8.91 -2.4375 9.25 C-4.4375 6.25 -4.4375 6.25 -4.125 3.625 C-3.16976704 0.32510431 -3.16976704 0.32510431 0 0 Z " fill="#8A76A6" transform="translate(163.4375,22.75)"/>
<path d="M0 0 C2.875 -0.125 2.875 -0.125 6 0 C8 2 8 2 8.3125 4.5 C8.1578125 5.7375 8.1578125 5.7375 8 7 C5 9 5 9 2.3125 8.625 C1.549375 8.41875 0.78625 8.2125 0 8 C-0.79953138 4.71303767 -1.09658936 3.28976808 0 0 Z " fill="#8A76A6" transform="translate(384,417)"/>
<path d="M0 0 C2.875 -0.125 2.875 -0.125 6 0 C6.66 0.66 7.32 1.32 8 2 C7.625 5.125 7.625 5.125 7 8 C4.36 8 1.72 8 -1 8 C-1.125 2.25 -1.125 2.25 0 0 Z " fill="#8A76A6" transform="translate(46,363)"/>
<path d="M0 0 C3 0.25 3 0.25 5 2.25 C4.44444444 6.80555556 4.44444444 6.80555556 3 8.25 C1.00041636 8.29080783 -1.00045254 8.29254356 -3 8.25 C-3.66 6.27 -4.32 4.29 -5 2.25 C-3 0.25 -3 0.25 0 0 Z " fill="#8A76A6" transform="translate(457,311.75)"/>
<path d="M0 0 C2.375 0.375 2.375 0.375 3.375 1.375 C3.625 4.3125 3.625 4.3125 3.375 7.375 C0.375 9.375 0.375 9.375 -2.3125 9 C-3.075625 8.79375 -3.83875 8.5875 -4.625 8.375 C-5.625 5.375 -5.625 5.375 -4.5 2.6875 C-2.625 0.375 -2.625 0.375 0 0 Z " fill="#8A76A6" transform="translate(456.625,159.625)"/>
<path d="M0 0 C0 2.31 0 4.62 0 7 C-1.98 7.33 -3.96 7.66 -6 8 C-7.5625 5.6875 -7.5625 5.6875 -9 3 C-8.67 2.01 -8.34 1.02 -8 0 C-5.13822943 -1.43088528 -3.06624227 -0.59991697 0 0 Z " fill="#8A76A6" transform="translate(40,142)"/>
<path d="M0 0 C2.625 0.5625 2.625 0.5625 5 2 C5.9375 4.5 5.9375 4.5 6 7 C5.34 7.66 4.68 8.32 4 9 C0.375 8.625 0.375 8.625 -3 8 C-3.1875 5.125 -3.1875 5.125 -3 2 C-2.01 1.34 -1.02 0.68 0 0 Z " fill="#8A76A6" transform="translate(429,369)"/>
<path d="M0 0 C2 3 2 3 1.75 5.0625 C1 7 1 7 -1 9 C-3.26274788 8.64644564 -4.95088852 8.02455574 -7 7 C-7 5.02 -7 3.04 -7 1 C-4.46578263 -0.26710868 -2.80561762 -0.28056176 0 0 Z " fill="#8A76A6" transform="translate(72,87)"/>
<path d="M0 0 C3.125 0.375 3.125 0.375 6 1 C6.625 3.3125 6.625 3.3125 7 6 C6.01 7.485 6.01 7.485 5 9 C2.375 9.1875 2.375 9.1875 0 9 C-0.66 6.69 -1.32 4.38 -2 2 C-1.34 1.34 -0.68 0.68 0 0 Z " fill="#8A76A6" transform="translate(337,31)"/>
<path d="M0 0 C5.56818182 0.56818182 5.56818182 0.56818182 7 2 C7.04080783 3.99958364 7.04254356 6.00045254 7 8 C4.6875 8.625 4.6875 8.625 2 9 C-1 7 -1 7 -1.8125 4.5 C-1.874375 3.675 -1.93625 2.85 -2 2 C-1.34 1.34 -0.68 0.68 0 0 Z " fill="#8A76A6" transform="translate(325,26)"/>
<path d="M0 0 C3.125 -0.1875 3.125 -0.1875 6 0 C7.125 2.3125 7.125 2.3125 8 5 C7.01 6.485 7.01 6.485 6 8 C2.875 8.1875 2.875 8.1875 0 8 C-1.125 5.6875 -1.125 5.6875 -2 3 C-1.34 2.01 -0.68 1.02 0 0 Z " fill="#8A76A6" transform="translate(229,464)"/>
<path d="M0 0 C0.763125 0.20625 1.52625 0.4125 2.3125 0.625 C2.6425 2.605 2.9725 4.585 3.3125 6.625 C0.95811267 8.05444945 -0.16782433 8.71161261 -2.9375 8.25 C-3.515 8.04375 -4.0925 7.8375 -4.6875 7.625 C-5.0175 5.645 -5.3475 3.665 -5.6875 1.625 C-2.6875 -0.375 -2.6875 -0.375 0 0 Z " fill="#8A76A6" transform="translate(271.6875,463.375)"/>
<path d="M0 0 C1.99954746 -0.04254356 4.00041636 -0.04080783 6 0 C7 1 7 1 7.125 4 C7 7 7 7 6 8 C3.66702567 8.04092937 1.33294775 8.04241723 -1 8 C-1.93065133 5.39417629 -2.14917407 4.35801776 -1.0625 1.75 C-0.711875 1.1725 -0.36125 0.595 0 0 Z " fill="#8A76A6" transform="translate(293,460)"/>
<path d="M0 0 C1.670625 0.061875 1.670625 0.061875 3.375 0.125 C3.41741723 2.45794775 3.41592937 4.79202567 3.375 7.125 C2.375 8.125 2.375 8.125 -0.6875 8.1875 C-1.656875 8.166875 -2.62625 8.14625 -3.625 8.125 C-4.285 6.145 -4.945 4.165 -5.625 2.125 C-3.625 0.125 -3.625 0.125 0 0 Z " fill="#8A76A6" transform="translate(194.625,459.875)"/>
<path d="M0 0 C1 1 1 1 1.0625 4.0625 C1.041875 5.031875 1.02125 6.00125 1 7 C-0.98 7.33 -2.96 7.66 -5 8 C-6.5625 5.6875 -6.5625 5.6875 -8 3 C-7.67 2.01 -7.34 1.02 -7 0 C-4.31633121 -1.3418344 -2.84719317 -0.73004953 0 0 Z " fill="#8A76A6" transform="translate(148,446)"/>
<path d="M0 0 C2.31 0 4.62 0 7 0 C7.33 2.31 7.66 4.62 8 7 C6.35 7.66 4.7 8.32 3 9 C0.9375 7.3125 0.9375 7.3125 -1 5 C-0.75 2.25 -0.75 2.25 0 0 Z " fill="#8A76A6" transform="translate(374,425)"/>
<path d="M0 0 C1.98 0 3.96 0 6 0 C6.33 2.31 6.66 4.62 7 7 C6.34 7 5.68 7 5 7 C5 7.66 5 8.32 5 9 C3.33388095 9.042721 1.66617115 9.04063832 0 9 C-1 8 -1 8 -1.125 5.0625 C-1 2 -1 2 0 0 Z " fill="#8A76A6" transform="translate(61,384)"/>
<path d="M0 0 C1.1446875 0.3403125 1.1446875 0.3403125 2.3125 0.6875 C2.9375 3 2.9375 3 3.3125 5.6875 C2.3225 7.1725 2.3225 7.1725 1.3125 8.6875 C-1.6575 8.1925 -1.6575 8.1925 -4.6875 7.6875 C-5.375 5.375 -5.375 5.375 -5.6875 2.6875 C-4.0011022 -0.12316299 -3.27764429 -0.38112143 0 0 Z " fill="#8A76A6" transform="translate(461.6875,299.3125)"/>
<path d="M0 0 C0.763125 0.20625 1.52625 0.4125 2.3125 0.625 C2.6425 2.605 2.9725 4.585 3.3125 6.625 C0.95811267 8.05444945 -0.16782433 8.71161261 -2.9375 8.25 C-3.515 8.04375 -4.0925 7.8375 -4.6875 7.625 C-5.0175 5.645 -5.3475 3.665 -5.6875 1.625 C-2.6875 -0.375 -2.6875 -0.375 0 0 Z " fill="#8A76A6" transform="translate(22.6875,292.375)"/>
<path d="M0 0 C1 1 1 1 1.0625 3.5625 C1.041875 4.366875 1.02125 5.17125 1 6 C-1.35438733 7.42944945 -2.48032433 8.08661261 -5.25 7.625 C-5.8275 7.41875 -6.405 7.2125 -7 7 C-7.93423645 3.98968256 -8.04449911 3.13349732 -7 0 C-4.31633121 -1.3418344 -2.84719317 -0.73004953 0 0 Z " fill="#8A76A6" transform="translate(470,211)"/>
<path d="M0 0 C0.125 2.875 0.125 2.875 0 6 C-0.66 6.66 -1.32 7.32 -2 8 C-5.125 7.625 -5.125 7.625 -8 7 C-8.6875 4.6875 -8.6875 4.6875 -9 2 C-6.73607469 -1.99516231 -4.01344788 -0.98106504 0 0 Z " fill="#8A76A6" transform="translate(25,191)"/>
<path d="M0 0 C1.99954746 -0.04254356 4.00041636 -0.04080783 6 0 C7 1 7 1 7.0625 4.5625 C7.041875 5.696875 7.02125 6.83125 7 8 C4.69 8 2.38 8 0 8 C-1.125 6.25 -1.125 6.25 -2 4 C-1.125 1.75 -1.125 1.75 0 0 Z " fill="#8A76A6" transform="translate(460,185)"/>
<path d="M0 0 C2.375 0.75 2.375 0.75 3.375 1.75 C3.41580783 3.74958364 3.41754356 5.75045254 3.375 7.75 C0.08803767 8.54953138 -1.33523192 8.84658936 -4.625 7.75 C-5.3125 5.4375 -5.3125 5.4375 -5.625 2.75 C-3.9659358 -0.015107 -3.22812218 -0.30744021 0 0 Z " fill="#8A76A6" transform="translate(316.625,22.25)"/>
<path d="M0 0 C2.97 0.495 2.97 0.495 6 1 C6.93065133 3.60582371 7.14917407 4.64198224 6.0625 7.25 C5.711875 7.8275 5.36125 8.405 5 9 C2.03 8.505 2.03 8.505 -1 8 C-1.625 5.6875 -1.625 5.6875 -2 3 C-1.34 2.01 -0.68 1.02 0 0 Z " fill="#8A76A6" transform="translate(301,19)"/>
<path d="M0 0 C2.31 0 4.62 0 7 0 C7.04241723 2.33294775 7.04092937 4.66702567 7 7 C6 8 6 8 2.9375 8.0625 C1.968125 8.041875 0.99875 8.02125 0 8 C-1.125 6.25 -1.125 6.25 -2 4 C-1.125 1.75 -1.125 1.75 0 0 Z " fill="#8A76A6" transform="translate(185,17)"/>
<path d="M0 0 C3.0625 -0.25 3.0625 -0.25 6 0 C7 1 7 1 7.125 4 C7 7 7 7 6 8 C4.00041636 8.04080783 1.99954746 8.04254356 0 8 C-1.125 5.6875 -1.125 5.6875 -2 3 C-1.34 2.01 -0.68 1.02 0 0 Z " fill="#8A76A6" transform="translate(255,464)"/>
<path d="M0 0 C1.010625 0.0825 2.02125 0.165 3.0625 0.25 C5.0625 3.25 5.0625 3.25 4.75 5.375 C4.0625 7.25 4.0625 7.25 3.0625 8.25 C1.06291636 8.29080783 -0.93795254 8.29254356 -2.9375 8.25 C-3.31813221 5.9239143 -3.65019945 3.58944736 -3.9375 1.25 C-2.9375 0.25 -2.9375 0.25 0 0 Z " fill="#8A76A6" transform="translate(307.9375,456.75)"/>
<path d="M0 0 C2.9375 0.1875 2.9375 0.1875 3.9375 1.1875 C4.0625 4.1875 4.0625 4.1875 3.9375 7.1875 C2.9375 8.1875 2.9375 8.1875 -0.125 8.25 C-1.094375 8.229375 -2.06375 8.20875 -3.0625 8.1875 C-3.7225 6.2075 -4.3825 4.2275 -5.0625 2.1875 C-3.0625 0.1875 -3.0625 0.1875 0 0 Z " fill="#8A76A6" transform="translate(169.0625,453.8125)"/>
<path d="M0 0 C2.9375 0.1875 2.9375 0.1875 3.9375 1.1875 C4.0625 4.1875 4.0625 4.1875 3.9375 7.1875 C2.9375 8.1875 2.9375 8.1875 -0.125 8.25 C-1.094375 8.229375 -2.06375 8.20875 -3.0625 8.1875 C-3.7225 6.2075 -4.3825 4.2275 -5.0625 2.1875 C-3.0625 0.1875 -3.0625 0.1875 0 0 Z " fill="#8A76A6" transform="translate(157.0625,449.8125)"/>
<path d="M0 0 C1.2684375 0.12375 1.2684375 0.12375 2.5625 0.25 C4.7144437 3.47791555 4.76336443 4.53400809 4.5625 8.25 C1.6875 8.875 1.6875 8.875 -1.4375 9.25 C-3.4375 7.25 -3.4375 7.25 -3.625 4.1875 C-3.37983937 0.34665019 -3.37983937 0.34665019 0 0 Z " fill="#8A76A6" transform="translate(355.4375,437.75)"/>
<path d="M0 0 C1.4540625 0.0309375 1.4540625 0.0309375 2.9375 0.0625 C3.5625 3.4375 3.5625 3.4375 3.9375 7.0625 C3.2775 7.7225 2.6175 8.3825 1.9375 9.0625 C-0.6875 8.6875 -0.6875 8.6875 -3.0625 8.0625 C-3.44313221 5.7364143 -3.77519945 3.40194736 -4.0625 1.0625 C-3.0625 0.0625 -3.0625 0.0625 0 0 Z " fill="#8A76A6" transform="translate(367.0625,431.9375)"/>
<path d="M0 0 C3 0.125 3 0.125 4 1.125 C4.1875 4.0625 4.1875 4.0625 4 7.125 C3.34 7.785 2.68 8.445 2 9.125 C-0.26274788 8.77144564 -1.95088852 8.14955574 -4 7.125 C-4.04254356 5.12545254 -4.04080783 3.12458364 -4 1.125 C-3 0.125 -3 0.125 0 0 Z " fill="#8A76A6" transform="translate(415,389.875)"/>
<path d="M0 0 C4.55555556 0.55555556 4.55555556 0.55555556 6 2 C5.71269945 4.33944736 5.38063221 6.6739143 5 9 C2.69 8.67 0.38 8.34 -2 8 C-2.125 5.125 -2.125 5.125 -2 2 C-1.34 1.34 -0.68 0.68 0 0 Z " fill="#8A76A6" transform="translate(435,358)"/>
<path d="M0 0 C1.2684375 0.12375 1.2684375 0.12375 2.5625 0.25 C4.7144437 3.47791555 4.76336443 4.53400809 4.5625 8.25 C1.6875 8.875 1.6875 8.875 -1.4375 9.25 C-3.4375 7.25 -3.4375 7.25 -3.625 4.1875 C-3.37983937 0.34665019 -3.37983937 0.34665019 0 0 Z " fill="#8A76A6" transform="translate(42.4375,351.75)"/>
<path d="M0 0 C2.31 0 4.62 0 7 0 C7.33 1.98 7.66 3.96 8 6 C5 8 5 8 1.8125 7.625 C0.884375 7.41875 -0.04375 7.2125 -1 7 C-0.67 4.69 -0.34 2.38 0 0 Z " fill="#8A76A6" transform="translate(34,341)"/>
<path d="M0 0 C2.9375 0.1875 2.9375 0.1875 3.9375 1.1875 C4.0625 4.1875 4.0625 4.1875 3.9375 7.1875 C2.9375 8.1875 2.9375 8.1875 -0.125 8.25 C-1.094375 8.229375 -2.06375 8.20875 -3.0625 8.1875 C-3.7225 6.2075 -4.3825 4.2275 -5.0625 2.1875 C-3.0625 0.1875 -3.0625 0.1875 0 0 Z " fill="#8A76A6" transform="translate(453.0625,323.8125)"/>
<path d="M0 0 C1.99954746 -0.04254356 4.00041636 -0.04080783 6 0 C7 1 7 1 7.125 4 C7 7 7 7 6 8 C4.00041636 8.04080783 1.99954746 8.04254356 0 8 C-1.125 6.25 -1.125 6.25 -2 4 C-1.125 1.75 -1.125 1.75 0 0 Z " fill="#8A76A6" transform="translate(25,317)"/>
<path d="M0 0 C1.010625 0.0825 2.02125 0.165 3.0625 0.25 C5.0625 3.25 5.0625 3.25 4.75 5.375 C4.0625 7.25 4.0625 7.25 3.0625 8.25 C1.06291636 8.29080783 -0.93795254 8.29254356 -2.9375 8.25 C-3.31813221 5.9239143 -3.65019945 3.58944736 -3.9375 1.25 C-2.9375 0.25 -2.9375 0.25 0 0 Z " fill="#8A76A6" transform="translate(23.9375,304.75)"/>
<path d="M0 0 C2.97 0.495 2.97 0.495 6 1 C6.93065133 3.60582371 7.14917407 4.64198224 6.0625 7.25 C5.711875 7.8275 5.36125 8.405 5 9 C2.03 8.505 2.03 8.505 -1 8 C-1.625 5.6875 -1.625 5.6875 -2 3 C-1.34 2.01 -0.68 1.02 0 0 Z " fill="#8A76A6" transform="translate(463,274)"/>
<path d="M0 0 C3.0625 -0.25 3.0625 -0.25 6 0 C7 1 7 1 7.0625 4.5625 C7.041875 5.696875 7.02125 6.83125 7 8 C4.69 8 2.38 8 0 8 C-1.125 5.6875 -1.125 5.6875 -2 3 C-1.34 2.01 -0.68 1.02 0 0 Z " fill="#8A76A6" transform="translate(14,267)"/>
<path d="M0 0 C3.0625 -0.25 3.0625 -0.25 6 0 C7 1 7 1 7.125 4 C7 7 7 7 6 8 C4.00041636 8.04080783 1.99954746 8.04254356 0 8 C-1.125 5.6875 -1.125 5.6875 -2 3 C-1.34 2.01 -0.68 1.02 0 0 Z " fill="#8A76A6" transform="translate(465,249)"/>
<path d="M0 0 C3.0625 -0.25 3.0625 -0.25 6 0 C7 1 7 1 7.125 4 C7 7 7 7 6 8 C4.00041636 8.04080783 1.99954746 8.04254356 0 8 C-1.125 5.6875 -1.125 5.6875 -2 3 C-1.34 2.01 -0.68 1.02 0 0 Z " fill="#8A76A6" transform="translate(465,236)"/>
<path d="M0 0 C3.625 -0.1875 3.625 -0.1875 7 0 C7.04241723 2.33294775 7.04092937 4.66702567 7 7 C6 8 6 8 2.9375 8.0625 C1.968125 8.041875 0.99875 8.02125 0 8 C-1.125 5.6875 -1.125 5.6875 -2 3 C-1.34 2.01 -0.68 1.02 0 0 Z " fill="#8A76A6" transform="translate(462,198)"/>
<path d="M0 0 C1.4540625 0.0309375 1.4540625 0.0309375 2.9375 0.0625 C3.73703138 3.34946233 4.03408936 4.77273192 2.9375 8.0625 C0.0625 8.1875 0.0625 8.1875 -3.0625 8.0625 C-3.7225 7.4025 -4.3825 6.7425 -5.0625 6.0625 C-4.33395709 0.0884481 -4.33395709 0.0884481 0 0 Z " fill="#8A76A6" transform="translate(24.0625,177.9375)"/>
<path d="M0 0 C1.99954746 -0.04254356 4.00041636 -0.04080783 6 0 C7 1 7 1 7.125 4 C7 7 7 7 6 8 C4.00041636 8.04080783 1.99954746 8.04254356 0 8 C-1.125 6.25 -1.125 6.25 -2 4 C-1.125 1.75 -1.125 1.75 0 0 Z " fill="#8A76A6" transform="translate(457,173)"/>
<path d="M0 0 C1.4540625 0.0309375 1.4540625 0.0309375 2.9375 0.0625 C3.5975 1.7125 4.2575 3.3625 4.9375 5.0625 C3.6175 6.3825 2.2975 7.7025 0.9375 9.0625 C-1.5375 8.0725 -1.5375 8.0725 -4.0625 7.0625 C-4.10504356 5.06295254 -4.10330783 3.06208364 -4.0625 1.0625 C-3.0625 0.0625 -3.0625 0.0625 0 0 Z " fill="#8A76A6" transform="translate(117.0625,44.9375)"/>
<path d="M0 0 C1.4540625 0.0309375 1.4540625 0.0309375 2.9375 0.0625 C3.31813221 2.3885857 3.65019945 4.72305264 3.9375 7.0625 C2.9375 8.0625 2.9375 8.0625 0 8.25 C-3.0625 8.0625 -3.0625 8.0625 -5.0625 6.0625 C-4.33395709 0.0884481 -4.33395709 0.0884481 0 0 Z " fill="#8A76A6" transform="translate(176.0625,19.9375)"/>
<path d="M0 0 C1.670625 0.061875 1.670625 0.061875 3.375 0.125 C3.5 5.875 3.5 5.875 2.375 8.125 C0.395 8.125 -1.585 8.125 -3.625 8.125 C-4.285 6.145 -4.945 4.165 -5.625 2.125 C-3.625 0.125 -3.625 0.125 0 0 Z " fill="#8A76A6" transform="translate(291.625,16.875)"/>
<path d="M0 0 C3 0.125 3 0.125 4 1.125 C4.04080783 3.12458364 4.04254356 5.12545254 4 7.125 C1.6875 8.25 1.6875 8.25 -1 9.125 C-1.99 8.465 -2.98 7.805 -4 7.125 C-4.25 4.0625 -4.25 4.0625 -4 1.125 C-3 0.125 -3 0.125 0 0 Z " fill="#8A76A6" transform="translate(239,11.875)"/>
<path d="M0 0 C2.375 0.25 2.375 0.25 3.375 1.25 C3.41592937 3.58297433 3.41741723 5.91705225 3.375 8.25 C1.065 8.25 -1.245 8.25 -3.625 8.25 C-4.285 6.6 -4.945 4.95 -5.625 3.25 C-3.7774876 0.91630013 -3.0311278 0.28867884 0 0 Z " fill="#8A76A6" transform="translate(219.625,462.75)"/>
<path d="M0 0 C2.5625 0.1875 2.5625 0.1875 4.5625 2.1875 C4.75 4.75 4.75 4.75 4.5625 7.1875 C3.5625 8.1875 3.5625 8.1875 0.625 8.375 C-2.4375 8.1875 -2.4375 8.1875 -4.4375 6.1875 C-3.71780303 0.28598485 -3.71780303 0.28598485 0 0 Z " fill="#8A76A6" transform="translate(90.4375,411.8125)"/>
<path d="M0 0 C2.33944736 0.28730055 4.6739143 0.61936779 7 1 C7.125 3.875 7.125 3.875 7 7 C6.34 7.66 5.68 8.32 5 9 C2.73725212 8.64644564 1.04911148 8.02455574 -1 7 C-1.04254356 5.00045254 -1.04080783 2.99958364 -1 1 C-0.67 0.67 -0.34 0.34 0 0 Z " fill="#8A76A6" transform="translate(420,380)"/>
<path d="M0 0 C3.125 0.375 3.125 0.375 6 1 C5.67 3.31 5.34 5.62 5 8 C0.25 9.125 0.25 9.125 -2 8 C-2.125 5.125 -2.125 5.125 -2 2 C-1.34 1.34 -0.68 0.68 0 0 Z " fill="#8A76A6" transform="translate(441,347)"/>
<path d="M0 0 C2.875 -0.125 2.875 -0.125 6 0 C6.66 0.66 7.32 1.32 8 2 C7.625 5.125 7.625 5.125 7 8 C4.125 8.125 4.125 8.125 1 8 C0.34 7.34 -0.32 6.68 -1 6 C-0.625 2.875 -0.625 2.875 0 0 Z " fill="#8A76A6" transform="translate(460,287)"/>
<path d="M0 0 C2.33294775 -0.04241723 4.66702567 -0.04092937 7 0 C8 1 8 1 8.125 4 C8 7 8 7 7 8 C4.16640458 8.2982732 2.56214622 8.35602594 0.125 6.8125 C-1 5 -1 5 -0.6875 2.3125 C-0.460625 1.549375 -0.23375 0.78625 0 0 Z " fill="#8A76A6" transform="translate(15,280)"/>
<path d="M0 0 C2.33294775 -0.04241723 4.66702567 -0.04092937 7 0 C8 1 8 1 8.125 4 C8 7 8 7 7 8 C4.625 8.3125 4.625 8.3125 2 8 C0.125 6.25 0.125 6.25 -1 4 C-0.6875 1.75 -0.6875 1.75 0 0 Z " fill="#8A76A6" transform="translate(463,262)"/>
<path d="M0 0 C2.33294775 -0.04241723 4.66702567 -0.04092937 7 0 C8 1 8 1 8.125 4 C8 7 8 7 7 8 C4.625 8.3125 4.625 8.3125 2 8 C0.125 6.25 0.125 6.25 -1 4 C-0.6875 1.75 -0.6875 1.75 0 0 Z " fill="#8A76A6" transform="translate(12,229)"/>
<path d="M0 0 C3.0625 -0.25 3.0625 -0.25 6 0 C7 1 7 1 7.125 4 C7 7 7 7 6 8 C4.00041636 8.04080783 1.99954746 8.04254356 0 8 C-1.125 5.6875 -1.125 5.6875 -2 3 C-1.34 2.01 -0.68 1.02 0 0 Z " fill="#8A76A6" transform="translate(14,216)"/>
<path d="M0 0 C2.5 -0.3125 2.5 -0.3125 5 0 C7 2 7 2 7.1875 4.5625 C7 7 7 7 6 8 C3.66702567 8.04092937 1.33294775 8.04241723 -1 8 C-1.625 5.6875 -1.625 5.6875 -2 3 C-1.34 2.01 -0.68 1.02 0 0 Z " fill="#8A76A6" transform="translate(16,203)"/>
<path d="M0 0 C2.625 0.625 2.625 0.625 5 2 C5.9375 3.9375 5.9375 3.9375 6 6 C5.01 7.485 5.01 7.485 4 9 C1.69 8.67 -0.62 8.34 -3 8 C-3.1875 5.125 -3.1875 5.125 -3 2 C-2.01 1.34 -1.02 0.68 0 0 Z " fill="#8A76A6" transform="translate(53,107)"/>
<path d="M0 0 C1.2065625 0.0309375 1.2065625 0.0309375 2.4375 0.0625 C2.4375 0.7225 2.4375 1.3825 2.4375 2.0625 C3.0975 2.0625 3.7575 2.0625 4.4375 2.0625 C4.5625 4.4375 4.5625 4.4375 4.4375 7.0625 C3.7775 7.7225 3.1175 8.3825 2.4375 9.0625 C-2.11805556 8.50694444 -2.11805556 8.50694444 -3.5625 7.0625 C-3.6875 4.0625 -3.6875 4.0625 -3.5625 1.0625 C-2.5625 0.0625 -2.5625 0.0625 0 0 Z " fill="#8A76A6" transform="translate(77.5625,76.9375)"/>
<path d="M0 0 C2.31 0 4.62 0 7 0 C7.04241723 2.33294775 7.04092937 4.66702567 7 7 C6 8 6 8 3.625 8.3125 C1 8 1 8 -0.8125 6 C-1.204375 5.34 -1.59625 4.68 -2 4 C-1.34 2.68 -0.68 1.36 0 0 Z " fill="#8A76A6" transform="translate(275,15)"/>
<path d="M0 0 C2.33294775 -0.04241723 4.66702567 -0.04092937 7 0 C8 1 8 1 8.1875 3.4375 C8 6 8 6 6 8 C3.375 8.125 3.375 8.125 1 8 C-1.125 3.375 -1.125 3.375 0 0 Z " fill="#8A76A6" transform="translate(197,15)"/>
<path d="M0 0 C0.78375 0.04125 1.5675 0.0825 2.375 0.125 C3.80444945 2.47938733 4.46161261 3.60532433 4 6.375 C3.79375 6.9525 3.5875 7.53 3.375 8.125 C1.065 8.125 -1.245 8.125 -3.625 8.125 C-4.25 5.25 -4.25 5.25 -4.625 2.125 C-2.625 0.125 -2.625 0.125 0 0 Z " fill="#8A76A6" transform="translate(213.625,12.875)"/>
<path d="M0 0 C2.31 0 4.62 0 7 0 C7.625 2.3125 7.625 2.3125 8 5 C7.01 6.485 7.01 6.485 6 8 C3.375 8.1875 3.375 8.1875 1 8 C0.26919734 6.02253397 -0.39421747 4.01927511 -1 2 C-0.67 1.34 -0.34 0.68 0 0 Z " fill="#8A76A6" transform="translate(203,462)"/>
<path d="M0 0 C2.33944736 0.28730055 4.6739143 0.61936779 7 1 C7.125 3.375 7.125 3.375 7 6 C5 8 5 8 2.5 8.25 C0 8 0 8 -2 6 C-1.44444444 1.44444444 -1.44444444 1.44444444 0 0 Z " fill="#8A76A6" transform="translate(98,420)"/>
<path d="M0 0 C3.125 -0.1875 3.125 -0.1875 6 0 C6.33 2.31 6.66 4.62 7 7 C4.69 7.33 2.38 7.66 0 8 C-1.125 5.6875 -1.125 5.6875 -2 3 C-1.34 2.01 -0.68 1.02 0 0 Z " fill="#8A76A6" transform="translate(432,114)"/>
<path d="M0 0 C1.010625 0.0825 2.02125 0.165 3.0625 0.25 C5.0625 3.25 5.0625 3.25 4.75 5.375 C4.0625 7.25 4.0625 7.25 3.0625 8.25 C0.625 8.4375 0.625 8.4375 -1.9375 8.25 C-3.9375 6.25 -3.9375 6.25 -4.125 3.6875 C-3.85121288 0.1282675 -3.61900269 0.30800023 0 0 Z " fill="#8A76A6" transform="translate(419.9375,92.75)"/>
<path d="M0 0 C2.4375 0.1875 2.4375 0.1875 3.4375 1.1875 C3.47842937 3.52047433 3.47991723 5.85455225 3.4375 8.1875 C1.10455225 8.22991723 -1.22952567 8.22842937 -3.5625 8.1875 C-4.5625 7.1875 -4.5625 7.1875 -4.75 4.75 C-4.48737296 1.16076381 -3.58923619 0.26262704 0 0 Z " fill="#8A76A6" transform="translate(283.5625,461.8125)"/>
<path d="M0 0 C2.4375 0.1875 2.4375 0.1875 3.4375 1.1875 C3.47842937 3.52047433 3.47991723 5.85455225 3.4375 8.1875 C1.10455225 8.22991723 -1.22952567 8.22842937 -3.5625 8.1875 C-4.5625 7.1875 -4.5625 7.1875 -4.75 4.75 C-4.48737296 1.16076381 -3.58923619 0.26262704 0 0 Z " fill="#8A76A6" transform="translate(16.5625,253.8125)"/>
<path d="M0 0 C2.4375 0.1875 2.4375 0.1875 3.4375 1.1875 C3.5625 4.1875 3.5625 4.1875 3.4375 7.1875 C2.4375 8.1875 2.4375 8.1875 -1.125 8.25 C-2.259375 8.229375 -3.39375 8.20875 -4.5625 8.1875 C-4.6875 5.3125 -4.6875 5.3125 -4.5625 2.1875 C-2.5625 0.1875 -2.5625 0.1875 0 0 Z " fill="#8A76A6" transform="translate(468.5625,222.8125)"/>
<path d="M0 0 C1.4540625 0.0309375 1.4540625 0.0309375 2.9375 0.0625 C3.2675 2.3725 3.5975 4.6825 3.9375 7.0625 C2.2875 7.7225 0.6375 8.3825 -1.0625 9.0625 C-2.5625 7.875 -2.5625 7.875 -4.0625 6.0625 C-4.3125 3.4375 -4.3125 3.4375 -4.0625 1.0625 C-3.0625 0.0625 -3.0625 0.0625 0 0 Z " fill="#8A76A6" transform="translate(428.0625,102.9375)"/>
<path d="M0 0 C3 0.125 3 0.125 4 1.125 C4.25 4.0625 4.25 4.0625 4 7.125 C1 9.125 1 9.125 -1.1875 8.75 C-1.785625 8.54375 -2.38375 8.3375 -3 8.125 C-3.38063221 5.7989143 -3.71269945 3.46444736 -4 1.125 C-3 0.125 -3 0.125 0 0 Z " fill="#8A76A6" transform="translate(394,64.875)"/>
<path d="M0 0 C2.5 -0.3125 2.5 -0.3125 5 0 C5.66 0.66 6.32 1.32 7 2 C6.625 5.125 6.625 5.125 6 8 C3.69 8 1.38 8 -1 8 C-1.625 5.6875 -1.625 5.6875 -2 3 C-1.34 2.01 -0.68 1.02 0 0 Z " fill="#8A76A6" transform="translate(263,13)"/>
<path d="M0 0 C5.875 0.875 5.875 0.875 7 2 C7.04080783 3.99958364 7.04254356 6.00045254 7 8 C4.69 8 2.38 8 0 8 C-1.125 5.6875 -1.125 5.6875 -2 3 C-1.34 2.01 -0.68 1.02 0 0 Z " fill="#8A76A6" transform="translate(250,12)"/>
<path d="M0 0 C2.75 0.25 2.75 0.25 5 1 C5.04254356 2.99954746 5.04080783 5.00041636 5 7 C4 8 4 8 0.9375 8.0625 C-0.031875 8.041875 -1.00125 8.02125 -2 8 C-2.66 6.68 -3.32 5.36 -4 4 C-2.3125 1.9375 -2.3125 1.9375 0 0 Z " fill="#8A76A6" transform="translate(225,12)"/>
<path d="M0 0 C2.33944736 0.28730055 4.6739143 0.61936779 7 1 C6.67 3.31 6.34 5.62 6 8 C3.69 7.67 1.38 7.34 -1 7 C-1.04254356 5.00045254 -1.04080783 2.99958364 -1 1 C-0.67 0.67 -0.34 0.34 0 0 Z " fill="#8A76A6" transform="translate(119,434)"/>
<path d="M0 0 C1.98 0 3.96 0 6 0 C6 2.64 6 5.28 6 8 C2.98968256 8.93423645 2.13349732 9.04449911 -1 8 C-1.125 2.25 -1.125 2.25 0 0 Z " fill="#8A76A6" transform="translate(409,83)"/>
<path d="M0 0 C1 1 1 1 1.1875 3.4375 C1 6 1 6 -1 8 C-3.625 7.625 -3.625 7.625 -6 7 C-6.33 4.69 -6.66 2.38 -7 0 C-4.31633121 -1.3418344 -2.84719317 -0.73004953 0 0 Z " fill="#8A76A6" transform="translate(90,69)"/>
<path d="M0 0 C2.33944736 0.28730055 4.6739143 0.61936779 7 1 C6.67 3.31 6.34 5.62 6 8 C3.69 7.67 1.38 7.34 -1 7 C-1.04254356 5.00045254 -1.04080783 2.99958364 -1 1 C-0.67 0.67 -0.34 0.34 0 0 Z " fill="#8A76A6" transform="translate(381,57)"/>
<path d="M0 0 C2.33294775 -0.04241723 4.66702567 -0.04092937 7 0 C8 1 8 1 8.0625 4.0625 C8.041875 5.031875 8.02125 6.00125 8 7 C5.69 7 3.38 7 1 7 C-0.0625 4.625 -0.0625 4.625 -1 2 C-0.67 1.34 -0.34 0.68 0 0 Z " fill="#8A76A6" transform="translate(241,465)"/>
<path d="M0 0 C0 2.64 0 5.28 0 8 C-1.65 8 -3.3 8 -5 8 C-5 7.34 -5 6.68 -5 6 C-5.66 6 -6.32 6 -7 6 C-7 4.02 -7 2.04 -7 0 C-4.3333581 -1.33332095 -2.83319697 -0.67102033 0 0 Z " fill="#8A76A6" transform="translate(84,404)"/>
<path d="M0 0 C3.625 -0.1875 3.625 -0.1875 7 0 C7.625 1.8125 7.625 1.8125 8 4 C7.01 5.485 7.01 5.485 6 7 C2.375 7.1875 2.375 7.1875 -1 7 C-1.625 5.1875 -1.625 5.1875 -2 3 C-1.34 2.01 -0.68 1.02 0 0 Z " fill="#8A76A6" transform="translate(13,242)"/>
<path d="M0 0 C1.134375 0.020625 2.26875 0.04125 3.4375 0.0625 C3.81968767 1.71864657 4.15145102 3.38707024 4.4375 5.0625 C3.4375 6.0625 3.4375 6.0625 -0.125 6.125 C-1.259375 6.104375 -2.39375 6.08375 -3.5625 6.0625 C-3.94468767 4.40635343 -4.27645102 2.73792976 -4.5625 1.0625 C-3.5625 0.0625 -3.5625 0.0625 0 0 Z " fill="#8A76A6" transform="translate(397.5625,409.9375)"/>
<path d="M0 0 C1.134375 0.020625 2.26875 0.04125 3.4375 0.0625 C3.81968767 1.71864657 4.15145102 3.38707024 4.4375 5.0625 C3.4375 6.0625 3.4375 6.0625 -0.125 6.125 C-1.259375 6.104375 -2.39375 6.08375 -3.5625 6.0625 C-3.94468767 4.40635343 -4.27645102 2.73792976 -4.5625 1.0625 C-3.5625 0.0625 -3.5625 0.0625 0 0 Z " fill="#8A76A6" transform="translate(406.5625,400.9375)"/>
<path d="M0 0 C1.134375 0.020625 2.26875 0.04125 3.4375 0.0625 C3.81968767 1.71864657 4.15145102 3.38707024 4.4375 5.0625 C3.4375 6.0625 3.4375 6.0625 -0.125 6.125 C-1.259375 6.104375 -2.39375 6.08375 -3.5625 6.0625 C-3.94468767 4.40635343 -4.27645102 2.73792976 -4.5625 1.0625 C-3.5625 0.0625 -3.5625 0.0625 0 0 Z " fill="#8A76A6" transform="translate(403.5625,74.9375)"/>
</svg>
