<?xml version="1.0" encoding="UTF-8"?>
<svg version="1.1" xmlns="http://www.w3.org/2000/svg" width="484" height="485">
<path d="M0 0 C3.16188462 1.41831587 4.9336018 0.73634257 8.31640625 0.0390625 C25.15850661 -1.18747969 39.42290585 0.97274667 52.76171875 12.07421875 C62.81513236 21.48063049 65.7333356 33.05491868 69.1015625 46.05078125 C72.55130193 58.51208492 78.15808759 66.49414582 89.31640625 73.0390625 C93.09404344 75.14175209 96.89353187 77.20455414 100.69360352 79.26635742 C106.78497676 82.61990551 112.0837137 86.45263875 117.31640625 91.0390625 C118.86328125 92.18375 118.86328125 92.18375 120.44140625 93.3515625 C128.24178327 100.64321928 135.51987269 111.07503864 136.4934082 122.03100586 C136.56103765 124.34630401 136.6013988 126.6604354 136.62890625 128.9765625 C136.65791016 129.75580078 136.68691406 130.53503906 136.71679688 131.33789062 C136.84561018 143.59497182 131.63263198 153.98993052 125.81640625 164.4765625 C115.48741709 183.69282178 111.85964916 200.69031564 117.31640625 222.0390625 C118.79395354 226.45647192 120.51900017 230.74320925 122.31640625 235.0390625 C128.79532871 250.61446636 131.70663342 264.83819347 125.72265625 281.14453125 C121.73176858 289.35910836 115.64225072 294.97170997 107.078125 298.0859375 C98.63686593 300.22474042 89.95486827 301.06322411 81.31640625 302.0390625 C68.39917006 303.53890361 56.44303374 304.97497416 47.31640625 315.0390625 C45.19738345 318.34214529 43.54024314 321.80074403 41.87890625 325.3515625 C36.82688232 335.54023683 32.11165509 344.18482309 21.31640625 349.0390625 C19.95515625 349.44125 19.95515625 349.44125 18.56640625 349.8515625 C15.56276596 350.94904645 13.42209041 352.19418289 10.75390625 353.9140625 C-3.66509289 362.55275802 -21.55049277 363.5546344 -37.9375 360.34375 C-43.90405115 358.66719844 -48.24270666 356.05606659 -53.1796875 352.41015625 C-56.43492464 350.6276473 -59.4686322 350.15694639 -63.12109375 349.5390625 C-72.44414394 347.90589555 -78.82225577 345.0283233 -84.49609375 337.2890625 C-87.62595341 332.40885479 -90.25493766 327.29928536 -92.68359375 322.0390625 C-93.75996094 322.01328125 -94.83632812 321.9875 -95.9453125 321.9609375 C-110.5348328 321.46253774 -122.44667915 319.09413133 -133.68359375 309.0390625 C-134.67154932 307.79111862 -135.63371275 306.52194479 -136.55859375 305.2265625 C-139.87938776 300.97747737 -144.220605 300.78708775 -149.296875 299.83203125 C-157.67893896 297.8694488 -165.55133906 293.00152273 -170.68359375 286.0390625 C-177.30306177 274.75144356 -179.39141766 265.28547877 -176.30859375 252.4765625 C-173.91546098 244.00521933 -170.57163675 235.91164951 -167.21337891 227.78295898 C-163.96707389 219.91956372 -161.3949408 213.03149785 -161.30859375 204.4140625 C-161.26605469 202.50753906 -161.26605469 202.50753906 -161.22265625 200.5625 C-161.99755588 188.07386804 -168.44687988 177.11317865 -174.24609375 166.3515625 C-182.82424113 150.38792257 -190.12412343 135.23481125 -184.6171875 116.70703125 C-179.93295297 103.32070412 -169.18000223 90.11721557 -156.27246094 83.87255859 C-155.40524414 83.48793457 -154.53802734 83.10331055 -153.64453125 82.70703125 C-144.2173413 78.85290461 -144.2173413 78.85290461 -137.39501953 71.74267578 C-135.54769617 66.49297181 -134.83094779 61.06883869 -134.09667969 55.57177734 C-130.69218851 34.6981417 -113.33771883 14.02517004 -96.68359375 2.0390625 C-69.45463198 -16.87835609 -27.63300628 -19.51130531 0 0 Z M10.31640625 7.0390625 C11.93548513 10.46548525 13.92834156 13.33508314 16.1953125 16.35546875 C17.31640625 18.0390625 17.31640625 18.0390625 18.31640625 21.0390625 C21.08439252 22.12012152 23.71732959 22.99320472 26.56640625 23.7890625 C27.33082031 24.02238281 28.09523438 24.25570312 28.8828125 24.49609375 C33.02396578 25.69051965 36.08176202 26.42802581 40.31640625 25.0390625 C41.13395695 27.57920159 41.94555811 30.12099481 42.75390625 32.6640625 C42.98400391 33.37691406 43.21410156 34.08976562 43.45117188 34.82421875 C45.61887477 41.67290326 46.48463367 48.26544823 46.87890625 55.4140625 C46.92208984 56.15011719 46.96527344 56.88617188 47.00976562 57.64453125 C47.11484424 59.44254318 47.21602718 61.24078208 47.31640625 63.0390625 C51.64684016 61.36762877 51.64684016 61.36762877 54.19140625 57.8515625 C54.23265625 57.2534375 54.27390625 56.6553125 54.31640625 56.0390625 C56.43359375 55.55859375 56.43359375 55.55859375 59.31640625 56.0390625 C61.75723513 58.30367304 63.55970755 60.992405 65.44140625 63.7265625 C66.28856201 64.93638794 66.28856201 64.93638794 67.15283203 66.1706543 C89.74878562 99.22840137 98.23974909 135.78642288 91.796875 175.21875 C90.20755195 182.78597844 86.91164772 189.21215711 83.37890625 196.015625 C76.90222194 208.51922388 70.27955112 222.60395876 72.31640625 237.0390625 C73.79443905 241.41519882 75.80353554 244.99516445 79.31640625 248.0390625 C87.4511287 250.75063665 94.49614772 247.67325485 102.31640625 245.0390625 C102.90765482 256.16329488 101.58246766 267.1674691 94.31640625 276.0390625 C89.49622705 281.25981061 84.05296797 283.05267216 77.06640625 283.3515625 C66.41415703 283.06170538 56.39278172 278.96997455 48.50390625 271.8515625 C43.56150141 266.61100795 41.57973474 259.99975476 40.31640625 253.0390625 C39.17171875 254.18375 39.17171875 254.18375 38.00390625 255.3515625 C36.52459288 256.83087587 35.03507604 258.30099062 33.50390625 259.7265625 C32.09276848 260.99124521 32.09276848 260.99124521 32.31640625 263.0390625 C31.71570313 263.31492187 31.115 263.59078125 30.49609375 263.875 C28.04820044 265.06703126 28.04820044 265.06703126 25.44140625 267.6640625 C18.09055921 274.12582221 8.60133756 279.06788448 -0.68359375 282.0390625 C1.60193606 284.61120216 3.73918076 285.8033468 6.87890625 287.1640625 C16.58626456 291.91839735 23.66365651 298.79548169 27.31640625 309.0390625 C29.94043577 317.05693048 29.20046406 324.74803386 28.31640625 333.0390625 C32.84765868 329.14359827 34.77254299 324.36428213 37.22851562 319.05859375 C40.28019741 312.66631355 43.70990247 307.57170773 49.94140625 303.8515625 C50.69679688 303.38363281 51.4521875 302.91570312 52.23046875 302.43359375 C60.77323025 298.57313064 69.91613676 297.39940805 79.12890625 296.1640625 C95.61509352 293.76899167 108.94322568 290.22535836 119.90625 276.96484375 C124.04804247 271.30860084 124.10920827 264.7903976 123.31640625 258.0390625 C120.96966752 248.59753226 116.96863577 239.74296154 113.13452148 230.83300781 C106.32933224 214.86114536 103.68468519 198.6693334 110.08251953 182.04882812 C113.35238187 174.37288643 117.30487978 167.03083719 121.24804688 159.68603516 C127.86169789 147.34790177 135.08690156 133.76438494 131.21875 119.37890625 C123.54391107 99.4774841 104.29936089 89.01474427 86.53295898 79.57592773 C72.31052088 71.91255839 67.62951882 60.5829783 62.94921875 45.69140625 C58.90758285 32.96271353 54.55584397 20.48957549 42.44921875 13.34765625 C34.2563345 9.1081962 27.10216338 6.69466206 17.87890625 6.9140625 C17.14736328 6.92308594 16.41582031 6.93210937 15.66210938 6.94140625 C13.88006327 6.96470097 12.09818866 7.0005606 10.31640625 7.0390625 Z M-166.68359375 100.0390625 C-167.31394531 100.57789063 -167.94429687 101.11671875 -168.59375 101.671875 C-175.30070308 107.79499564 -179.04037118 115.45921194 -179.921875 124.4765625 C-180.30242524 137.61556016 -174.73296423 148.38646749 -168.86474609 159.73632812 C-158.71334193 179.5271599 -150.73153106 196.3113015 -157.20703125 218.8125 C-159.20310496 224.84139802 -161.89141353 230.59701175 -164.45458984 236.40014648 C-169.66737772 248.34984629 -173.61970635 261.51500414 -169.12109375 274.3515625 C-165.16805089 282.94633164 -158.40726137 287.72955922 -149.68359375 291.0390625 C-148.69359375 291.0390625 -147.70359375 291.0390625 -146.68359375 291.0390625 C-147.11671875 289.8221875 -147.54984375 288.6053125 -147.99609375 287.3515625 C-151.58063755 276.44226553 -153.13609976 266.33745 -152.93359375 254.8515625 C-152.9284375 253.63919922 -152.92328125 252.42683594 -152.91796875 251.17773438 C-152.8390167 242.3499084 -152.8390167 242.3499084 -151.68359375 240.0390625 C-150.69359375 239.7090625 -149.70359375 239.3790625 -148.68359375 239.0390625 C-147.26971762 236.0007823 -147.26971762 236.0007823 -146.12109375 232.3515625 C-145.70730469 231.13082031 -145.29351562 229.91007813 -144.8671875 228.65234375 C-144.11977783 226.37064758 -143.37467599 224.08819296 -142.6328125 221.8046875 C-141.68359375 219.0390625 -141.68359375 219.0390625 -140.05859375 215.4765625 C-136.37945 205.48218746 -138.63441889 195.34355944 -142.81054688 185.89111328 C-147.09684206 176.79831819 -152.48068745 168.31667041 -157.87109375 159.8515625 C-165.69057345 147.55824367 -173.49239692 133.81033942 -170.18359375 118.765625 C-167.26262112 110.10228571 -160.64226015 104.24223319 -152.68359375 100.0390625 C-149.87109375 99.84375 -149.87109375 99.84375 -147.68359375 100.0390625 C-147.68359375 102.1640625 -147.68359375 102.1640625 -148.68359375 105.0390625 C-150.54663504 106.65755183 -152.5257208 108.02232919 -154.546875 109.4375 C-159.62210092 113.24159986 -163.39636436 117.7316385 -164.68359375 124.0390625 C-166.39431676 140.57605159 -154.22826297 156.99855596 -145.93457031 170.49291992 C-141.03072997 178.59204722 -137.12600181 187.22516747 -133.68359375 196.0390625 C-131.7117567 194.06722545 -131.01628854 192.88463151 -129.99609375 190.3515625 C-129.72410156 189.70832031 -129.45210937 189.06507813 -129.171875 188.40234375 C-127.87374515 182.11939529 -130.33344923 177.19574798 -133.55859375 171.9765625 C-140.68359375 160.11461195 -140.68359375 160.11461195 -140.68359375 155.0390625 C-138.20859375 154.5440625 -138.20859375 154.5440625 -135.68359375 154.0390625 C-135.43867188 154.86664063 -135.19375 155.69421875 -134.94140625 156.546875 C-133.49165886 160.57195006 -131.61128865 164.17133964 -129.55859375 167.9140625 C-128.99978516 168.94660156 -128.99978516 168.94660156 -128.4296875 170 C-127.51859849 171.68201048 -126.6016906 173.36086686 -125.68359375 175.0390625 C-123.15883913 172.51430788 -122.64051504 170.30408253 -121.55859375 166.9140625 C-121.20539063 165.81835938 -120.8521875 164.72265625 -120.48828125 163.59375 C-120.22273438 162.75070313 -119.9571875 161.90765625 -119.68359375 161.0390625 C-120.67359375 161.0390625 -121.66359375 161.0390625 -122.68359375 161.0390625 C-122.95558594 160.18828125 -123.22757813 159.3375 -123.5078125 158.4609375 C-124.69808216 154.9968969 -126.07472991 151.66433284 -127.49609375 148.2890625 C-136.23699352 126.8679302 -138.05174256 105.97834302 -138.68359375 83.0390625 C-146.9057538 83.0390625 -160.84556522 94.79111427 -166.68359375 100.0390625 Z M22.94140625 101.7890625 C9.09687504 110.16293016 -6.22320971 112.29276016 -22.14453125 112.06640625 C-23.93489378 112.05374264 -25.72525848 112.041383 -27.515625 112.02929688 C-30.27041838 112.00475691 -33.02509007 111.97697431 -35.77978516 111.94311523 C-45.75683388 111.82873672 -55.61429168 111.9451245 -65.55078125 112.9296875 C-66.35615326 113.00948349 -67.16152527 113.08927948 -67.99130249 113.17149353 C-75.09717282 113.95309722 -82.0467496 115.30672989 -88.68359375 118.0390625 C-89.68623009 118.43155937 -89.68623009 118.43155937 -90.7091217 118.83198547 C-93.13182899 120.01005618 -94.81816472 121.0824592 -96.68359375 123.0390625 C-97.8542927 127.07927025 -97.68629538 131.00775614 -97.5703125 135.1875 C-97.56610794 136.39105133 -97.56190338 137.59460266 -97.55757141 138.83462524 C-97.5410968 141.39189279 -97.50535744 143.94909746 -97.4519043 146.50585938 C-97.37266532 150.33805726 -97.34954314 154.16706541 -97.33789062 158 C-97.054565 194.48209651 -92.37929234 232.87828206 -65.68359375 260.0390625 C-65.04679687 260.68875 -64.41 261.3384375 -63.75390625 262.0078125 C-51.27426935 273.81427397 -29.50014645 279.68821532 -12.5 279.515625 C3.23058209 276.85386215 18.08101992 265.76312967 29.31640625 255.0390625 C29.82945312 254.5553418 30.3425 254.07162109 30.87109375 253.57324219 C40.81545098 243.81566369 42.88339216 232.64469732 45.58203125 219.35546875 C47.01294003 212.8935456 49.01047817 206.5914917 50.95800781 200.27001953 C60.11287743 170.01015212 52.8074453 143.64031098 38.40039062 116.41918945 C35.22488278 110.53812574 32.01194302 104.61160333 28.31640625 99.0390625 C26.36112435 99.0390625 24.5266265 100.77892215 22.94140625 101.7890625 Z M-83.68359375 320.0390625 C-81.64603168 327.94175652 -78.53498304 333.4413648 -71.62109375 337.9765625 C-68.6921042 339.65187706 -66.08738881 340.71995671 -62.68359375 341.0390625 C-62.68359375 337.7390625 -62.68359375 334.4390625 -62.68359375 331.0390625 C-59.50833336 331.52016256 -57.18161758 332.27636033 -54.24609375 333.6640625 C-50.37201962 335.15931918 -48.58170969 335.39887039 -44.68359375 334.0390625 C-42.49275879 330.83026381 -42.46781658 328.10170354 -42.55859375 324.2890625 C-42.57664063 323.30421875 -42.5946875 322.319375 -42.61328125 321.3046875 C-42.63648438 320.55703125 -42.6596875 319.809375 -42.68359375 319.0390625 C-55.93665551 312.67759286 -70.10723313 316.79694653 -83.68359375 320.0390625 Z " fill="#705792" transform="translate(265.68359375,74.9609375)"/>
<path d="M0 0 C4.86466434 4.1792905 8.99660651 8.86014414 12.55078125 14.19140625 C13.55753906 13.99933594 14.56429687 13.80726562 15.6015625 13.609375 C22.08063219 12.92365744 27.72199722 14.32073011 33.55078125 17.19140625 C36.09232357 20.26243655 36.75166053 23.33682396 37.55078125 27.19140625 C37.84082031 28.16335937 38.13085938 29.1353125 38.4296875 30.13671875 C42.46969732 44.59379426 42.2914035 61.03894595 34.92578125 74.37890625 C26.23007689 87.73379048 14.50317142 93.76359139 -0.44921875 98.19140625 C-6.37678647 99.28395137 -12.11419446 99.28948763 -18.11328125 99.21875 C-20.22786281 99.2060812 -22.34244625 99.19372197 -24.45703125 99.18164062 C-27.74290024 99.15710108 -31.02866712 99.12937646 -34.31445312 99.09545898 C-73.10003357 98.10267291 -73.10003357 98.10267291 -106.38671875 115.62890625 C-109.79473582 119.23236516 -112.27328644 122.74493587 -114.44921875 127.19140625 C-115.44921875 124.19140625 -115.44921875 124.19140625 -114.33203125 121.37109375 C-105.10413759 104.02265367 -90.89934421 95.00418771 -72.44921875 89.19140625 C-62.76008071 86.38759794 -52.94504731 84.25379788 -43.04101562 82.36767578 C-23.44271805 78.62829204 -0.22860198 74.0708416 12.55078125 57.19140625 C16.67321204 49.79877797 18.70920966 43.45298544 18.61328125 35.00390625 C18.60651367 33.87952148 18.60651367 33.87952148 18.59960938 32.73242188 C18.58784479 30.88538242 18.5699099 29.03838412 18.55078125 27.19140625 C17.23078125 27.19140625 15.91078125 27.19140625 14.55078125 27.19140625 C14.54820312 28.279375 14.545625 29.36734375 14.54296875 30.48828125 C14.31414022 42.42141668 12.38012902 51.8710634 3.48828125 60.56640625 C-11.72922974 72.72032592 -33.12887712 75.8438586 -51.81958008 78.80004883 C-74.78668375 82.43274432 -96.69298466 88.20823431 -111.57421875 107.37890625 C-114.47679522 111.50642325 -116.8215703 115.4169708 -118.44921875 120.19140625 C-121.04877558 113.52896589 -117.18639638 103.37385022 -114.55078125 97.02832031 C-106.93988727 80.82472704 -95.64953578 70.6833803 -78.88330078 64.05029297 C-71.7601955 61.53684419 -64.36503613 59.83117619 -57.05859375 57.94140625 C-35.82859468 52.40851528 -16.9417185 46.12512242 -3.69921875 27.62109375 C-2.30257487 24.90636722 -2.19216182 23.20111442 -2.44921875 20.19140625 C-3.43921875 20.19140625 -4.42921875 20.19140625 -5.44921875 20.19140625 C-7.12993583 22.18332633 -7.12993583 22.18332633 -8.69921875 24.75390625 C-21.22404977 43.19107986 -40.86999369 48.3679862 -61.38671875 54.12890625 C-80.81948845 59.59118661 -102.35622259 65.83095458 -113.76171875 84.00390625 C-119.04640028 93.67756058 -122.30705502 103.39350777 -124.44921875 114.19140625 C-124.77921875 114.19140625 -125.10921875 114.19140625 -125.44921875 114.19140625 C-126.21497306 91.83609262 -126.21782853 72.80128719 -110.19921875 55.44140625 C-99.36036841 45.45451795 -85.34281078 40.66917925 -71.9296875 35.15576172 C-59.82887839 30.15367039 -46.88022567 24.60330973 -39.44921875 13.19140625 C-39.44921875 11.87140625 -39.44921875 10.55140625 -39.44921875 9.19140625 C-43.33742589 8.74045691 -43.33742589 8.74045691 -45.125 10.73046875 C-45.93517578 11.76300781 -45.93517578 11.76300781 -46.76171875 12.81640625 C-51.79880581 19.18289401 -57.4389238 23.64350729 -64.82421875 26.94140625 C-65.53392822 27.26866699 -66.2436377 27.59592773 -66.97485352 27.93310547 C-74.70249271 31.43047567 -82.61442233 34.50436611 -90.54248047 37.51464844 C-106.53057238 43.7057276 -117.49388759 51.75700544 -125.44921875 67.19140625 C-129.68558515 77.38554441 -130.59799301 87.20247732 -131.01171875 98.12890625 C-131.05490234 99.19431641 -131.09808594 100.25972656 -131.14257812 101.35742188 C-131.24796364 103.96864068 -131.35008963 106.57994371 -131.44921875 109.19140625 C-131.77921875 109.19140625 -132.10921875 109.19140625 -132.44921875 109.19140625 C-137.92068262 79.40722794 -132.14983335 47.57790693 -115.26025391 22.42041016 C-101.38884441 2.77338001 -82.94799608 -9.86379272 -59.16796875 -14.3359375 C-38.30726361 -16.98735065 -16.94998558 -12.92712359 0 0 Z " fill="#FDFCFD" transform="translate(266.44921875,82.80859375)"/>
<path d="M0 0 C47.4513577 41.94603256 74.96069871 101.59166092 80.02172852 164.55322266 C80.1687515 167.96379024 80.20783336 171.37022322 80.22485352 174.78369141 C80.23186783 175.72871521 80.23888214 176.67373901 80.24610901 177.6473999 C80.26351211 180.67855653 80.26996077 183.70951791 80.27172852 186.74072266 C80.27240326 187.77544708 80.273078 188.81017151 80.27377319 189.87625122 C80.25840623 204.68124801 79.89097169 218.98850731 77.02172852 233.55322266 C76.78824707 234.8704834 76.78824707 234.8704834 76.55004883 236.21435547 C68.87969224 279.37350762 49.91293915 320.93153496 20.13891602 353.24853516 C18.03230757 355.54170672 15.9966957 357.88613995 13.95922852 360.24072266 C10.25830635 364.39971574 6.28717662 367.98739832 2.02172852 371.55322266 C1.21864258 372.26736328 0.41555664 372.98150391 -0.41186523 373.71728516 C-24.22093367 394.45312632 -52.97058945 409.16714498 -82.97827148 418.55322266 C-83.91477539 418.84664551 -84.8512793 419.14006836 -85.81616211 419.44238281 C-105.97149105 425.61752676 -127.20888855 429.65765056 -148.32983398 429.75634766 C-149.30576508 429.76204773 -150.28169617 429.7677478 -151.28720093 429.77362061 C-153.3495782 429.7830222 -155.41197017 429.7895852 -157.47436523 429.79345703 C-160.54626805 429.80304474 -163.61746604 429.8340654 -166.68920898 429.86572266 C-230.37720106 430.2063412 -291.89294817 405.35253839 -337.16577148 360.67822266 C-343.56342944 354.25616944 -349.35848508 347.5540025 -354.72680664 340.25341797 C-355.97559589 338.55685762 -357.24714252 336.87926291 -358.52124023 335.20166016 C-365.28490267 326.16385012 -370.77614183 316.55716183 -375.97827148 306.55322266 C-376.39077148 305.77156738 -376.80327148 304.98991211 -377.22827148 304.18457031 C-395.86880004 268.49815217 -404.47252334 228.47661387 -404.29077148 188.36572266 C-404.28803726 187.0983728 -404.28803726 187.0983728 -404.2852478 185.80541992 C-404.23494953 171.87918704 -403.51741872 158.27542264 -400.97827148 144.55322266 C-400.80134766 143.59609375 -400.62442383 142.63896484 -400.44213867 141.65283203 C-392.81013152 101.71331273 -377.3610288 64.51024473 -351.97827148 32.55322266 C-351.19581055 31.56580078 -350.41334961 30.57837891 -349.60717773 29.56103516 C-337.74729354 14.93484276 -324.21039674 1.62588008 -308.97827148 -9.44677734 C-308.13393555 -10.07455078 -307.28959961 -10.70232422 -306.41967773 -11.34912109 C-299.25174582 -16.53969248 -291.63960927 -21.03183471 -283.97827148 -25.44677734 C-283.07915039 -25.96739746 -283.07915039 -25.96739746 -282.16186523 -26.49853516 C-197.43180042 -75.05538 -76.35413928 -63.40120551 0 0 Z M-201.97827148 -45.44677734 C-202.83727051 -45.32850586 -203.69626953 -45.21023437 -204.58129883 -45.08837891 C-226.6005179 -41.90984701 -248.06382516 -35.37853446 -267.97827148 -25.44677734 C-268.70868652 -25.08438965 -269.43910156 -24.72200195 -270.19165039 -24.34863281 C-279.55031213 -19.65810006 -288.45345807 -14.54936791 -296.97827148 -8.44677734 C-297.9850293 -7.72619141 -298.99178711 -7.00560547 -300.02905273 -6.26318359 C-305.87351843 -1.97823225 -311.37093862 2.53824633 -316.69311523 7.45556641 C-318.68238568 9.28161466 -320.71678648 11.01312346 -322.79077148 12.74072266 C-352.46795424 38.78274849 -373.58224912 76.13006121 -384.97827148 113.55322266 C-385.24333496 114.41447754 -385.50839844 115.27573242 -385.78149414 116.16308594 C-390.09616536 130.41268425 -392.97536897 144.80457684 -394.97827148 159.55322266 C-395.08284668 160.30780762 -395.18742187 161.06239258 -395.29516602 161.83984375 C-396.31945818 170.40981596 -396.22206968 179.05950332 -396.22827148 187.67822266 C-396.22894623 188.52192413 -396.22962097 189.36562561 -396.23031616 190.2348938 C-396.21262379 204.20476062 -395.46358524 217.77940462 -392.97827148 231.55322266 C-392.74479004 232.91133057 -392.74479004 232.91133057 -392.5065918 234.296875 C-384.61887428 278.92309318 -364.52747437 320.90982776 -332.97827148 353.55322266 C-332.10686523 354.47619141 -331.23545898 355.39916016 -330.33764648 356.35009766 C-307.33291993 380.1620076 -277.14082914 397.02525021 -245.97827148 407.55322266 C-245.1685791 407.82859863 -244.35888672 408.10397461 -243.5246582 408.38769531 C-224.62018703 414.70187242 -204.81934151 418.70052774 -184.97827148 420.55322266 C-183.80135742 420.66408203 -182.62444336 420.77494141 -181.41186523 420.88916016 C-122.3602419 425.60309773 -57.56108428 411.79967199 -11.46850586 372.83496094 C-8.33716752 370.14172269 -5.2538942 367.40273262 -2.21655273 364.60400391 C-0.11530529 362.67877719 2.03492157 360.83243963 4.20922852 358.99072266 C8.21846141 355.47566956 11.63159644 351.66187984 15.02172852 347.55322266 C15.65570557 346.80371338 15.65570557 346.80371338 16.30249023 346.0390625 C35.27710197 323.5640873 49.6167213 297.39182892 59.02172852 269.55322266 C59.29710449 268.74353027 59.57248047 267.93383789 59.85620117 267.09960938 C63.17437373 257.16509274 65.68166913 247.12672239 67.77172852 236.86572266 C67.97048584 235.89344727 68.16924316 234.92117188 68.37402344 233.91943359 C71.37436129 218.4303341 72.40255673 203.23653833 72.33422852 187.49072266 C72.33207336 186.59214539 72.32991821 185.69356812 72.32769775 184.76776123 C72.27300903 170.5136048 71.69072236 156.59041758 69.02172852 142.55322266 C68.81773437 141.47476074 68.61374023 140.39629883 68.40356445 139.28515625 C59.67267363 94.53139785 40.72200586 53.65443723 9.02172852 20.55322266 C8.55009277 20.05435547 8.07845703 19.55548828 7.5925293 19.04150391 C-34.02241458 -24.81413623 -95.53442242 -45.26400373 -154.84790039 -47.59912109 C-170.62902916 -47.99429146 -186.33371405 -47.63597872 -201.97827148 -45.44677734 Z " fill="#6D5490" transform="translate(403.978271484375,55.44677734375)"/>
<path d="M0 0 C0.33 1.65 0.66 3.3 1 5 C0.33613281 5.50789062 -0.32773438 6.01578125 -1.01171875 6.5390625 C-10.90284313 14.02637597 -10.90284313 14.02637597 -16 25 C-17.70949381 41.52510681 -5.55499885 57.97075772 2.74902344 71.44946289 C6.16383968 77.07878595 8.91205679 82.94575376 11.58984375 88.953125 C12.94200915 92.07976478 12.94200915 92.07976478 15 95 C15.7734375 93.2365625 15.7734375 93.2365625 16.5625 91.4375 C16.85253906 90.77621094 17.14257812 90.11492187 17.44140625 89.43359375 C18.88614037 83.13940243 16.36186368 78.17565036 13.125 72.9375 C5.90100637 60.91074138 5.90100637 60.91074138 6.3125 57.125 C6.539375 56.42375 6.76625 55.7225 7 55 C8.65 55 10.3 55 12 55 C15.3 61.27 18.6 67.54 22 74 C24.13684525 70.79473213 25.51313036 67.59571722 27 64.05859375 C28 62 28 62 30 60 C30.61502709 58.09953715 31.16769618 56.17868384 31.6875 54.25 C37.24713409 35.50191061 37.24713409 35.50191061 44 31 C44.029729 32.52246338 44.029729 32.52246338 44.06005859 34.07568359 C44.31274282 105.6975467 44.31274282 105.6975467 78.40234375 166.375 C89.35623175 175.7488296 102.22941184 179.13653501 116 182 C156.07112132 190.37537084 156.07112132 190.37537084 166.45703125 206.15625 C170.41671369 213.45409511 173.66565456 222.62670949 172 231 C169.39494866 239.35187314 164.33884565 244.46290652 157 249 C144.46715328 255.45255474 144.46715328 255.45255474 137 255 C139.3925401 253.08596792 141.61502971 251.69248515 144.375 250.3125 C150.19958493 247.02523425 154.40622663 240.89106151 156.5390625 234.60546875 C158.00252421 226.33318945 157.60633787 217.21305006 156 209 C154.35 209.33 152.7 209.66 151 210 C151.165 210.86625 151.33 211.7325 151.5 212.625 C152.86527793 222.46303215 153.47878793 231.77946121 147.5234375 240.05078125 C142.39296709 246.45801256 137.18316942 249.78802867 129 250.75 C127.66773974 250.84901934 126.33450557 250.93821733 125 251 C125.87011719 250.34837891 125.87011719 250.34837891 126.7578125 249.68359375 C127.49773437 249.12800781 128.23765625 248.57242188 129 248 C129.63679687 247.53722656 130.27359375 247.07445312 130.9296875 246.59765625 C137.77336455 241.19692316 141.27084436 234.18746691 144 226 C144.62826701 215.24696852 144.85395014 205.62561889 138 196.75 C127.32590249 185.47043898 109.11346779 184.41207004 94.62109375 182.84594727 C68.4975724 179.97990046 68.4975724 179.97990046 61 171 C57.68099664 166.56785397 56.44349668 162.43283438 56 157 C54.68 157.33 53.36 157.66 52 158 C51.30976388 164.48821954 53.09780618 168.79707491 57 174 C68.04135804 185.06583998 84.39934643 186.31702076 99.09375 187.76757812 C111.91294892 189.12924186 126.73419195 191.12848852 135.4140625 201.7265625 C140.07393663 208.67732448 139.90169774 215.89322696 139 224 C137.20857644 232.44076632 133.23288773 239.39255836 126.05078125 244.34375 C121.45210032 246.87347625 117.20379234 247.62830055 112 248 C112.5775 247.57074219 113.155 247.14148438 113.75 246.69921875 C122.99147422 239.92936377 122.99147422 239.92936377 128 230 C129.0443838 220.76544855 129.23116903 212.90855427 123.80078125 204.98046875 C117.5749574 198.13341302 109.72409188 195.54673165 100.63589478 194.67868042 C97.14082523 194.59031987 93.6707753 194.62672374 90.17578125 194.71484375 C88.90832565 194.72761856 87.64087006 194.74039337 86.33500671 194.7535553 C82.32694255 194.79540325 78.3200585 194.86379084 74.3125 194.9375 C70.29432244 195.00733206 66.27643202 195.06772108 62.25785828 195.11073303 C59.77002724 195.13774722 57.28229523 195.17909671 54.79499817 195.23728943 C45.03507343 195.34991009 36.88157791 194.29965749 29.375 187.6953125 C26.18705706 183.76472377 25.69995583 179.61599677 25.375 174.6875 C25.30023438 173.61886719 25.22546875 172.55023438 25.1484375 171.44921875 C25.09945312 170.64097656 25.05046875 169.83273437 25 169 C23.35 168.67 21.7 168.34 20 168 C20.13956509 176.80528837 20.45014513 184.81161655 26 192 C34.5466861 199.95040568 44.60251365 200.32857394 55.75 200.1875 C57.35041138 200.17783203 57.35041138 200.17783203 58.9831543 200.16796875 C65.2641516 200.10663931 71.46736693 199.80981769 77.72265625 199.23046875 C82.06692404 198.92497197 86.39602995 198.84607925 90.75 198.8125 C91.53093018 198.79960937 92.31186035 198.78671875 93.11645508 198.7734375 C103.43678863 198.75595097 112.93842033 201.0474976 120.51953125 208.4921875 C124.29154937 213.85031925 123.86261014 220.77741063 123 227 C120.82910186 233.41830755 117.70442037 238.77734778 111.8125 242.3125 C107.7560337 243.30408065 104.08365558 242.65836713 100 242 C100 241.67 100 241.34 100 241 C100.87011719 240.94392578 100.87011719 240.94392578 101.7578125 240.88671875 C106.76606287 240.46523233 110.7206215 239.852919 115 237 C117.38612004 234.13665595 117.9572247 232.32998086 118.4375 228.625 C117.80457851 223.38079339 116.20575235 219.75375392 112.09375 216.484375 C100.631439 209.04242681 84.10066054 210.78578837 71.1875 213.4375 C68.79048806 213.95288188 66.39445861 214.47288265 64 215 C48.9646101 217.51365652 33.36311404 216.98785267 20.50390625 208.078125 C8.12484405 197.80408273 1.76105856 181.86201427 0.14355469 166.15087891 C-0.22378866 160.64697609 -0.10591145 155.11504415 -0.0144043 149.6027832 C-0.00062744 148.69230225 0.01314941 147.78182129 0.02734375 146.84375 C0.04531006 146.03099609 0.06327637 145.21824219 0.08178711 144.38085938 C0.06514822 141.94055879 0.06514822 141.94055879 -0.54589844 139.36499023 C-1.14563505 136.24152326 -0.36318138 134.49131757 0.8125 131.5625 C1.18890625 130.59828125 1.5653125 129.6340625 1.953125 128.640625 C2.29859375 127.76921875 2.6440625 126.8978125 3 126 C3.350625 124.948125 3.70125 123.89625 4.0625 122.8125 C5 120 5 120 6.625 116.4375 C10.30414375 106.44312496 8.04917486 96.30449694 3.87304688 86.85205078 C-0.41324831 77.75925569 -5.7970937 69.27760791 -11.1875 60.8125 C-19.04096831 48.46574632 -26.67177109 34.86491457 -23.53515625 19.76171875 C-20.49475194 10.49658136 -10.35768782 -0.90468218 0 0 Z " fill="#FCFBFC" transform="translate(118,174)"/>
<path d="M0 0 C11.69592755 4.69983144 19.86382817 26.87894741 24.7421875 37.5 C41.11314347 77.11310192 34.93749191 108.70015872 19.12890625 146.85546875 C18.54503813 148.21629524 17.958522 149.57599505 17.3671875 150.93359375 C13.52138963 160.0082209 12.33730573 171.02801811 14.8515625 180.609375 C18.44476284 189.20687054 23.92763468 193.76350238 32.12890625 197.85546875 C27.41852583 198.53923365 24.6251904 198.7492668 20.48046875 196.2734375 C13.02834905 190.06333775 9.15975671 183.28030418 7.625 173.71484375 C6.79316861 158.77727579 13.07705096 143.79111054 18.7421875 130.23046875 C28.86113183 105.60295353 26.08815936 80.20507131 18.21484375 55.296875 C17.43303079 52.8192591 16.71095614 50.38415216 16.12890625 47.85546875 C14.14890625 48.35046875 14.14890625 48.35046875 12.12890625 48.85546875 C12.84450067 54.5507151 14.1104002 59.99954479 15.58007812 65.54296875 C20.77779457 85.62236004 22.09586839 108.08004698 15.12890625 127.85546875 C14.39544079 130.00767876 13.66240824 132.16003633 12.9296875 134.3125 C11.36857425 138.86978516 9.77073747 143.41201606 8.15234375 147.94921875 C3.80182855 160.46321482 0.38863163 177.21526807 6.12890625 189.85546875 C9.91220643 195.7883713 15.51423809 199.64732251 22.12890625 201.85546875 C24.22490485 202.13423393 26.33153236 202.34135619 28.44140625 202.48046875 C29.51003906 202.55523437 30.57867187 202.63 31.6796875 202.70703125 C32.89205078 202.78050781 32.89205078 202.78050781 34.12890625 202.85546875 C31.54159414 205.68919153 29.59518903 206.68965325 25.7109375 207.12890625 C18.77099359 207.38340349 14.42253247 206.4376509 9.12890625 201.85546875 C5.15966045 198.0831307 3.04734654 193.90399582 1.12890625 188.85546875 C0.13890625 188.85546875 -0.85109375 188.85546875 -1.87109375 188.85546875 C-1.84226314 195.08287958 -0.68971662 199.23781837 3.31640625 204.0625 C9.26061205 209.94265186 15.23679468 211.96334076 23.50390625 212.10546875 C28.51928119 212.07167242 31.71004802 211.15695741 36.12890625 208.85546875 C37.11890625 208.52546875 38.10890625 208.19546875 39.12890625 207.85546875 C39.12890625 208.51546875 39.12890625 209.17546875 39.12890625 209.85546875 C32.43190291 216.11053786 25.96920032 218.39026657 16.8671875 218.15625 C9.32863643 217.32819232 4.65863686 213.09150959 -0.109375 207.43359375 C-2.98317579 203.22803162 -4.51149468 198.73312643 -5.87109375 193.85546875 C-6.06058594 193.200625 -6.25007813 192.54578125 -6.4453125 191.87109375 C-9.28693759 178.41899701 -4.7479113 162.86730393 0.12890625 150.35546875 C7.99250506 129.79409154 10.85916281 106.13763138 4.12890625 84.85546875 C3.78472656 83.70691406 3.44054687 82.55835938 3.0859375 81.375 C-1.95648763 66.40287615 -10.06589688 52.22145659 -18.36328125 38.828125 C-19.87109375 35.85546875 -19.87109375 35.85546875 -19.828125 33.7265625 C-18.58944142 31.3048097 -17.12222667 29.14455524 -15.55859375 26.91796875 C-12.16689009 21.7400605 -10.31102713 16.75187496 -8.6953125 10.80078125 C-6.70534789 3.68972289 -6.70534789 3.68972289 -3.99609375 0.98046875 C-1.87109375 -0.14453125 -1.87109375 -0.14453125 0 0 Z " fill="#FBFBFC" transform="translate(318.87109375,135.14453125)"/>
<path d="M0 0 C1.65 0 3.3 0 5 0 C6.66342837 1.66342837 6.36048097 3.7825709 6.5625 6.0625 C6.68818359 7.44115234 6.68818359 7.44115234 6.81640625 8.84765625 C6.87699219 9.55792969 6.93757813 10.26820312 7 11 C8.98 8.69 10.96 6.38 13 4 C15.475 4.495 15.475 4.495 18 5 C17.65539206 10.51372705 14.31722297 13.83582649 11 18 C15.62 18 20.24 18 25 18 C25.495 19.98 25.495 19.98 26 22 C23.22957891 24.77042109 21.23466195 24.39796106 17.375 24.625 C16.18648438 24.69976562 14.99796875 24.77453125 13.7734375 24.8515625 C12.85820312 24.90054688 11.94296875 24.94953125 11 25 C11.6496875 25.59167969 12.299375 26.18335937 12.96875 26.79296875 C13.8040625 27.58316406 14.639375 28.37335938 15.5 29.1875 C16.3353125 29.96480469 17.170625 30.74210937 18.03125 31.54296875 C20 34 20 34 20.28125 36.80078125 C20.14203125 37.88939453 20.14203125 37.88939453 20 39 C16.7171341 39.36795695 15.41336988 39.3231932 12.76171875 37.25 C10.84114583 35.16666667 8.92057292 33.08333333 7 31 C6.67 35.29 6.34 39.58 6 44 C3.525 44.495 3.525 44.495 1 45 C-0.73956658 43.26043342 -0.37190386 40.8063378 -0.5625 38.4375 C-0.64628906 37.42558594 -0.73007812 36.41367188 -0.81640625 35.37109375 C-0.87699219 34.58863281 -0.93757813 33.80617187 -1 33 C-1.67095703 33.77537109 -1.67095703 33.77537109 -2.35546875 34.56640625 C-4.16093508 36.53355613 -5.9028487 38.34481034 -8 40 C-10.9375 39.9375 -10.9375 39.9375 -13 39 C-12.25324902 32.99443929 -9.03224524 30.32549944 -5 26 C-9.29 25.34 -13.58 24.68 -18 24 C-18.33 22.35 -18.66 20.7 -19 19 C-18 18 -18 18 -15.05859375 17.90234375 C-13.86363281 17.91394531 -12.66867187 17.92554687 -11.4375 17.9375 C-9.64119141 17.95103516 -9.64119141 17.95103516 -7.80859375 17.96484375 C-6.88175781 17.97644531 -5.95492188 17.98804687 -5 18 C-5.5775 17.48050781 -6.155 16.96101563 -6.75 16.42578125 C-7.4925 15.72839844 -8.235 15.03101562 -9 14.3125 C-9.7425 13.62800781 -10.485 12.94351563 -11.25 12.23828125 C-13.3231932 9.58663012 -13.36795695 8.2828659 -13 5 C-11.3125 4.1875 -11.3125 4.1875 -9 4 C-6.4375 6.25 -6.4375 6.25 -4 9 C-3.01 9.99 -2.02 10.98 -1 12 C-0.67 8.04 -0.34 4.08 0 0 Z " fill="#A191B8" transform="translate(375,92)"/>
<path d="M0 0 C0.33 1.65 0.66 3.3 1 5 C0.33613281 5.50789062 -0.32773438 6.01578125 -1.01171875 6.5390625 C-10.90284313 14.02637597 -10.90284313 14.02637597 -16 25 C-17.645903 40.91039568 -6.35718138 56.61191669 1.625 69.625 C7.69374502 79.55854962 13.93823336 90.20473787 15 102 C15.08121094 102.88042969 15.16242188 103.76085937 15.24609375 104.66796875 C15.57379335 111.7085449 14.06525542 117.65693496 11 124 C10.34 124.66 9.68 125.32 9 126 C6.375 125.625 6.375 125.625 4 125 C4.49144908 121.85472592 5.25262675 119.43411607 6.5625 116.5 C10.32773043 106.49685051 8.06221738 96.33401801 3.87304688 86.85205078 C-0.41324831 77.75925569 -5.7970937 69.27760791 -11.1875 60.8125 C-19.04096831 48.46574632 -26.67177109 34.86491457 -23.53515625 19.76171875 C-20.49475194 10.49658136 -10.35768782 -0.90468218 0 0 Z " fill="#6D5490" transform="translate(118,174)"/>
<path d="M0 0 C1.67542976 0.28604898 3.34385343 0.61781233 5 1 C5.66 3.31 6.32 5.62 7 8 C7.556875 7.319375 8.11375 6.63875 8.6875 5.9375 C9.450625 5.298125 10.21375 4.65875 11 4 C13.75 4.25 13.75 4.25 16 5 C15.49701212 9.40114397 13.91227269 11.71195019 11 15 C11.61488281 14.97679687 12.22976562 14.95359375 12.86328125 14.9296875 C13.67152344 14.91164063 14.47976562 14.89359375 15.3125 14.875 C16.11300781 14.85179687 16.91351563 14.82859375 17.73828125 14.8046875 C20 15 20 15 23 17 C22.625 18.9375 22.625 18.9375 22 21 C19.70370006 22.14814997 17.92301914 22.30769809 15.375 22.5625 C14.14910156 22.68818359 14.14910156 22.68818359 12.8984375 22.81640625 C12.27195312 22.87699219 11.64546875 22.93757813 11 23 C11.77537109 23.67095703 11.77537109 23.67095703 12.56640625 24.35546875 C14.53355613 26.16093508 16.34481034 27.9028487 18 30 C17.9375 32.9375 17.9375 32.9375 17 35 C12.16743695 34.58578031 10.17320782 32.53586014 7 29 C6.67 32.3 6.34 35.6 6 39 C4.34385343 39.38218767 2.67542976 39.71395102 1 40 C-0.58272601 38.41727399 -0.34735747 36.61965997 -0.5625 34.4375 C-0.64628906 33.61121094 -0.73007812 32.78492188 -0.81640625 31.93359375 C-0.87699219 31.29550781 -0.93757813 30.65742188 -1 30 C-1.38671875 30.44472656 -1.7734375 30.88945312 -2.171875 31.34765625 C-2.69265625 31.91355469 -3.2134375 32.47945313 -3.75 33.0625 C-4.26046875 33.63097656 -4.7709375 34.19945312 -5.296875 34.78515625 C-7 36 -7 36 -9.203125 35.68359375 C-9.79609375 35.45800781 -10.3890625 35.23242188 -11 35 C-11.3077917 31.86162389 -11.27813784 30.40656372 -9.46875 27.76171875 C-8.8190625 27.07722656 -8.169375 26.39273437 -7.5 25.6875 C-6.8503125 24.99011719 -6.200625 24.29273438 -5.53125 23.57421875 C-4.77328125 22.79498047 -4.77328125 22.79498047 -4 22 C-4.78246094 22.01160156 -5.56492187 22.02320313 -6.37109375 22.03515625 C-7.38300781 22.04417969 -8.39492188 22.05320312 -9.4375 22.0625 C-10.44683594 22.07410156 -11.45617188 22.08570313 -12.49609375 22.09765625 C-15 22 -15 22 -16 21 C-16 19.35 -16 17.7 -16 16 C-12.7 15.67 -9.4 15.34 -6 15 C-6.825 14.278125 -7.65 13.55625 -8.5 12.8125 C-11 10 -11 10 -11.3125 7.1875 C-11.209375 6.465625 -11.10625 5.74375 -11 5 C-9.203125 4.31640625 -9.203125 4.31640625 -7 4 C-5.296875 5.21484375 -5.296875 5.21484375 -3.75 6.9375 C-3.22921875 7.50339844 -2.7084375 8.06929688 -2.171875 8.65234375 C-1.78515625 9.09707031 -1.3984375 9.54179687 -1 10 C-1.01160156 9.36191406 -1.02320313 8.72382813 -1.03515625 8.06640625 C-1.04417969 7.24011719 -1.05320312 6.41382813 -1.0625 5.5625 C-1.07410156 4.73878906 -1.08570313 3.91507812 -1.09765625 3.06640625 C-1 1 -1 1 0 0 Z " fill="#A191B8" transform="translate(63,268)"/>
<path d="M0 0 C1.67542976 0.28604898 3.34385343 0.61781233 5 1 C5.33 2.65 5.66 4.3 6 6 C7.98 5.01 9.96 4.02 12 3 C12.99 3.66 13.98 4.32 15 5 C14.40072174 8.35595828 13.15377564 10.37801226 11 13 C13.97 13.33 16.94 13.66 20 14 C21 18 21 18 20 20 C16.7 20 13.4 20 10 20 C10.78375 20.78375 11.5675 21.5675 12.375 22.375 C13.91666667 23.91666667 15.45833333 25.45833333 17 27 C16.625 29.125 16.625 29.125 16 31 C14.3125 31.75 14.3125 31.75 12 32 C9.25 30.0625 9.25 30.0625 7 28 C6.7834375 29.7015625 6.7834375 29.7015625 6.5625 31.4375 C6 35 6 35 5 36 C3.33382885 36.04063832 1.66611905 36.042721 0 36 C-0.33 33.36 -0.66 30.72 -1 28 C-1.7425 28.845625 -2.485 29.69125 -3.25 30.5625 C-4.1575 31.366875 -5.065 32.17125 -6 33 C-8.3125 32.8125 -8.3125 32.8125 -10 32 C-10.3125 29.8125 -10.3125 29.8125 -10 27 C-7.5 24.1875 -7.5 24.1875 -5 22 C-9.455 21.01 -9.455 21.01 -14 20 C-14.38218767 18.34385343 -14.71395102 16.67542976 -15 15 C-14 14 -14 14 -11.93359375 13.90234375 C-10.69802734 13.91974609 -10.69802734 13.91974609 -9.4375 13.9375 C-8.61121094 13.94652344 -7.78492188 13.95554687 -6.93359375 13.96484375 C-6.29550781 13.97644531 -5.65742188 13.98804688 -5 14 C-5.825 13.278125 -6.65 12.55625 -7.5 11.8125 C-10 9 -10 9 -10.3125 6.1875 C-10.209375 5.465625 -10.10625 4.74375 -10 4 C-6.85375007 3.73781251 -5.38162983 3.75245633 -2.6875 5.5 C-1.8521875 6.2425 -1.8521875 6.2425 -1 7 C-1.020625 6.030625 -1.04125 5.06125 -1.0625 4.0625 C-1 1 -1 1 0 0 Z " fill="#A191B8" transform="translate(420,277)"/>
<path d="M0 0 C8.83096942 0.37578593 15.50646216 5.77016307 21.43359375 12.02734375 C28.72588081 21.21089728 30.97784051 32.53524186 29.79296875 44.00390625 C28.63294078 50.92583136 25.25285302 56.88631528 22.02490234 63.03076172 C20.19916567 66.53871598 18.44871039 70.08434303 16.6875 73.625 C16.02505611 74.95067905 15.36231421 76.27620924 14.69921875 77.6015625 C14.13847656 78.72304687 13.57773437 79.84453125 13 81 C12.33333333 82.33333333 11.66666667 83.66666667 11 85 C9.35 85 7.7 85 6 85 C4.89737307 81.65452967 4.93021049 80.18595232 6.1875 76.8359375 C6.785625 75.69382812 7.38375 74.55171875 8 73.375 C8.31743164 72.76180908 8.63486328 72.14861816 8.96191406 71.5168457 C11.02667938 67.60040291 13.30979843 63.8843011 15.75 60.1875 C22.12922884 50.32478215 23.70057409 40.68426502 21.4140625 29.0078125 C18.55633067 19.75295621 12.34757359 12.59737571 3.9375 7.875 C2.63504084 7.22933648 1.32608237 6.59563983 0 6 C0 4.02 0 2.04 0 0 Z " fill="#6D5490" transform="translate(356,169)"/>
<path d="M0 0 C1.65 0 3.3 0 5 0 C7.51973585 4.7956634 10.02776731 9.59720674 12.52563477 14.40429688 C13.37506512 16.03515159 14.2275447 17.66442219 15.08325195 19.29199219 C24.08286206 36.41909606 29.87453152 51.77441214 24.25219727 71.19775391 C21.51307126 79.58138203 17.81608426 86.29821763 12 93 C10.35 92.67 8.7 92.34 7 92 C7.54851614 88.20664745 8.52107688 85.92636344 10.8125 82.875 C14.2700327 77.91310812 16.23237449 72.75611384 18 67 C18.1959375 66.37996094 18.391875 65.75992188 18.59375 65.12109375 C20.94207138 52.86014657 18.16607689 40.49837222 14 29 C13.34 29 12.68 29 12 29 C10.39368064 26.12619779 8.79033785 23.25074523 7.1875 20.375 C6.73568359 19.56675781 6.28386719 18.75851563 5.81835938 17.92578125 C-1.06207888 5.5711257 -1.06207888 5.5711257 -0.6875 2.125 C-0.460625 1.42375 -0.23375 0.7225 0 0 Z " fill="#735B94" transform="translate(125,229)"/>
<path d="M0 0 C0.66 0.4125 1.32 0.825 2 1.25 C2.66 1.4975 3.32 1.745 4 2 C5.67419438 1.0126546 7.34051852 0.01187895 9 -1 C13.27270864 -0.63481123 16.35664308 1.14228612 20 3.3125 C21.010625 3.90675781 22.02125 4.50101562 23.0625 5.11328125 C25.87320957 6.91856413 28.43482396 8.8639251 31 11 C30.67 12.65 30.34 14.3 30 16 C29.01 16.33 28.02 16.66 27 17 C26.01 16.34 25.02 15.68 24 15 C21.01242827 14.80342483 18.120363 14.72004075 15.1328125 14.734375 C14.26107391 14.73246155 13.38933533 14.7305481 12.49118042 14.72857666 C10.64694938 14.72721574 8.80270873 14.73090569 6.95849609 14.73925781 C4.142683 14.74993296 1.32751164 14.73937276 -1.48828125 14.7265625 C-3.2812514 14.72788462 -5.07422116 14.73044809 -6.8671875 14.734375 C-7.70692108 14.73032654 -8.54665466 14.72627808 -9.41183472 14.72210693 C-13.7246473 14.75649036 -17.06951626 14.99645805 -21 17 C-21.66 16.34 -22.32 15.68 -23 15 C-22.94921875 12.6328125 -22.94921875 12.6328125 -22 10 C-19.70703125 7.8671875 -19.70703125 7.8671875 -16.8125 5.875 C-15.87019531 5.21242188 -14.92789063 4.54984375 -13.95703125 3.8671875 C-5.08023567 -1.73797536 -5.08023567 -1.73797536 0 0 Z " fill="#6D5490" transform="translate(238,295)"/>
<path d="M0 0 C1.65 0.33 3.3 0.66 5 1 C4.87645863 6.92998552 3.08199077 9.88539069 -1 14.1484375 C-11.8247737 24.16981002 -26.80377419 25.52192171 -40.85327148 27.42993164 C-51.06302408 28.89766912 -59.75557879 31.5077073 -67.9296875 37.92578125 C-70.64775579 39.3360997 -72.13039974 38.85488091 -75 38 C-75.23828125 35.69140625 -75.23828125 35.69140625 -75 33 C-73.41796875 31.33984375 -73.41796875 31.33984375 -71.1875 29.9375 C-70.47980469 29.47214844 -69.77210938 29.00679688 -69.04296875 28.52734375 C-59.87822116 23.92732282 -50.64615323 22.02384546 -40.5625 20.5 C-19.72167554 17.3985081 -19.72167554 17.3985081 -3.3359375 4.9921875 C-2.16150321 3.3715994 -1.07003189 1.69134072 0 0 Z " fill="#6D5490" transform="translate(374,342)"/>
<path d="M0 0 C-0.12224463 5.86774205 -1.88088823 9.00929985 -5.90625 13.265625 C-10.27887983 16.88772881 -14.96984941 17.78248386 -20.5 18.375 C-28.00186033 17.57122925 -33.64786601 15.35213399 -39 10 C-40.4375 7.875 -40.4375 7.875 -41 6 C-40.67 5.01 -40.34 4.02 -40 3 C-38.48599609 3.23976562 -38.48599609 3.23976562 -36.94140625 3.484375 C-23.38666545 5.25764139 -12.63210477 0 0 0 Z " fill="#6D5490" transform="translate(302,233)"/>
<path d="M0 0 C0.71285156 0.20496094 1.42570313 0.40992188 2.16015625 0.62109375 C3.59681641 1.02521484 3.59681641 1.02521484 5.0625 1.4375 C6.00222656 1.70433594 6.94195312 1.97117188 7.91015625 2.24609375 C18.65319591 4.8673411 30.114166 4.77727902 41 3 C40.58049124 7.75443258 38.4190394 10.81928507 35 14 C28.59433717 17.87008796 22.19578183 18.92123791 14.796875 17.609375 C8.43034626 15.92029595 4.43594065 12.62058352 1 7 C0.21747861 4.50717736 0.05503174 2.64152375 0 0 Z " fill="#6D5490" transform="translate(182,233)"/>
<path d="M0 0 C1.125 2.625 1.125 2.625 1 5 C0.34 5.66 -0.32 6.32 -1 7 C-5.04342415 6.44228632 -8.81668546 4.49064261 -12.5625 2.9375 C-16.1190377 1.56960088 -19.24192093 0.87345702 -23.0546875 0.8671875 C-23.82828613 0.86533447 -24.60188477 0.86348145 -25.39892578 0.86157227 C-26.62458252 0.86821899 -26.62458252 0.86821899 -27.875 0.875 C-29.13352783 0.87681274 -29.13352783 0.87681274 -30.41748047 0.87866211 C-36.81845594 0.91823443 -43.13309374 1.28265657 -49.5078125 1.87890625 C-50.33023438 1.91886719 -51.15265625 1.95882812 -52 2 C-53 1 -53 1 -53.125 -1.5 C-53 -4 -53 -4 -52 -5 C-15.14930991 -10.09953994 -15.14930991 -10.09953994 0 0 Z " fill="#6D5490" transform="translate(230,211)"/>
<path d="M0 0 C1 1 1 1 1.0625 3.5625 C1.041875 4.366875 1.02125 5.17125 1 6 C-2.20986572 6.96295972 -4.85475442 6.9741393 -8.125 6.5625 C-21.70314728 5.05833398 -36.15738975 4.1049265 -48 12 C-50.1875 11.625 -50.1875 11.625 -52 11 C-52.6875 9.1875 -52.6875 9.1875 -53 7 C-41.59879449 -6.97100103 -15.34840833 -2.12397166 0 0 Z " fill="#6D5490" transform="translate(306,206)"/>
<path d="M0 0 C3.22238743 0.26853229 4.7416643 0.77118838 7.1875 2.9375 C11.74650244 6.28076845 16.81420992 7.24506078 22.4375 6.8125 C27.7509488 5.80725293 32.12109827 3.87890173 36 0 C37.66617115 -0.04063832 39.33388095 -0.042721 41 0 C41.75 1.6875 41.75 1.6875 42 4 C38.92145866 9.35398494 33.87244217 11.75322224 28.16796875 13.58984375 C19.41402352 15.24599555 10.59802926 14.85939893 3 10 C0.4375 8.0625 0.4375 8.0625 -1 6 C-1.3125 3.3125 -1.3125 3.3125 -1 1 C-0.67 0.67 -0.34 0.34 0 0 Z " fill="#6D5490" transform="translate(222,272)"/>
<path d="M0 0 C0.66 0.33 1.32 0.66 2 1 C2.63912692 3.86434404 3.16944544 6.66879881 3.625 9.5625 C3.7590625 10.36880859 3.893125 11.17511719 4.03125 12.00585938 C4.36207299 14.0026124 4.68205038 16.0011567 5 18 C5.61488281 17.97679687 6.22976563 17.95359375 6.86328125 17.9296875 C7.67152344 17.91164062 8.47976563 17.89359375 9.3125 17.875 C10.51326172 17.84019531 10.51326172 17.84019531 11.73828125 17.8046875 C14 18 14 18 17 20 C13.26137967 21.65362053 9.98300973 23.00424757 6 24 C5.01 29.94 4.02 35.88 3 42 C2.34 41.67 1.68 41.34 1 41 C0.1986381 38.14258915 -0.49708506 35.33288557 -1.125 32.4375 C-1.30675781 31.63119141 -1.48851562 30.82488281 -1.67578125 29.99414062 C-2.12467118 27.99776175 -2.56329743 25.9990802 -3 24 C-6.3 23.01 -9.6 22.02 -13 21 C-13 20.34 -13 19.68 -13 19 C-9.32589215 17.82428549 -5.83070817 17.92633254 -2 18 C-1.93941406 17.11957031 -1.87882812 16.23914063 -1.81640625 15.33203125 C-1.73261719 14.17058594 -1.64882813 13.00914062 -1.5625 11.8125 C-1.48128906 10.66394531 -1.40007812 9.51539063 -1.31640625 8.33203125 C-1.04596188 5.48401829 -0.62478253 2.78789518 0 0 Z " fill="#B9ADCA" transform="translate(432,205)"/>
<path d="M0 0 C0.66 0.33 1.32 0.66 2 1 C3.58470855 6.19432248 4.28533749 11.57858775 4 17 C4.69867188 17.06058594 5.39734375 17.12117188 6.1171875 17.18359375 C7.02726562 17.26738281 7.93734375 17.35117188 8.875 17.4375 C9.77992187 17.51871094 10.68484375 17.59992188 11.6171875 17.68359375 C14 18 14 18 16 19 C16 19.66 16 20.32 16 21 C12.12315913 22.19287411 9.08378077 23 5 23 C4.90912109 24.19496094 4.90912109 24.19496094 4.81640625 25.4140625 C3.98418278 35.93848858 3.98418278 35.93848858 3 41 C2.34 41 1.68 41 1 41 C-0.32 35.39 -1.64 29.78 -3 24 C-4.629375 23.54625 -6.25875 23.0925 -7.9375 22.625 C-10.71484375 21.8515625 -10.71484375 21.8515625 -13 21 C-13.33 20.34 -13.66 19.68 -14 19 C-10.04 18.34 -6.08 17.68 -2 17 C-1.93941406 16.02417969 -1.87882812 15.04835938 -1.81640625 14.04296875 C-1.73261719 12.77066406 -1.64882812 11.49835938 -1.5625 10.1875 C-1.48128906 8.92292969 -1.40007812 7.65835938 -1.31640625 6.35546875 C-1 3 -1 3 0 0 Z " fill="#B9ADCA" transform="translate(99,98)"/>
<path d="M0 0 C1.67542976 0.28604898 3.34385343 0.61781233 5 1 C5.09796875 1.9178125 5.1959375 2.835625 5.296875 3.78125 C6.18542454 11.07348414 7.33103015 16.64045227 11 23 C11 23.66 11 24.32 11 25 C11.62648437 25.20496094 12.25296875 25.40992188 12.8984375 25.62109375 C13.71570313 25.89050781 14.53296875 26.15992188 15.375 26.4375 C16.18710938 26.70433594 16.99921875 26.97117187 17.8359375 27.24609375 C20 28 20 28 22 29 C21.67 30.65 21.34 32.3 21 34 C14.82414103 33.97199157 11.08815768 32.96980657 6.5078125 28.765625 C-0.04741065 21.08956059 -1.64359707 10.81485538 -1 1 C-0.67 0.67 -0.34 0.34 0 0 Z " fill="#745C95" transform="translate(153,329)"/>
<path d="M0 0 C0.33 0 0.66 0 1 0 C1.15855469 0.65226562 1.31710937 1.30453125 1.48046875 1.9765625 C3.77288234 10.56361451 7.40699353 15.32814718 14.9375 20.01953125 C20.79884623 22.80589092 28.9651929 23.18713639 35.1640625 21.36328125 C36.80860585 20.64598043 38.40872602 19.82878853 40 19 C40.99 18.67 41.98 18.34 43 18 C43 18.66 43 19.32 43 20 C36.30299666 26.25506911 29.84029407 28.53479782 20.73828125 28.30078125 C13.03077804 27.45416535 8.52141917 23.1015916 3.703125 17.296875 C0.38389384 12.82048068 -1.34722102 9.26009061 -0.6875 3.5625 C-0.460625 2.386875 -0.23375 1.21125 0 0 Z " fill="#F4F3F7" transform="translate(315,325)"/>
<path d="M0 0 C0.66 0.33 1.32 0.66 2 1 C2.6328125 3.14453125 2.6328125 3.14453125 3.125 5.8125 C3.29257812 6.68519531 3.46015625 7.55789063 3.6328125 8.45703125 C4 11 4 11 4 15 C7.3 15.33 10.6 15.66 14 16 C14 16.66 14 17.32 14 18 C11.03 18.66 8.06 19.32 5 20 C4.87882812 21.07121094 4.75765625 22.14242188 4.6328125 23.24609375 C4.46402399 24.64328752 4.29472687 26.04041991 4.125 27.4375 C4.00705078 28.49807617 4.00705078 28.49807617 3.88671875 29.58007812 C3.66072324 31.39673432 3.33699273 33.20062522 3 35 C2.01 35.495 2.01 35.495 1 36 C0.01 30.72 -0.98 25.44 -2 20 C-4.64 19.67 -7.28 19.34 -10 19 C-10 18.01 -10 17.02 -10 16 C-7.36 15.67 -4.72 15.34 -2 15 C-1.34 10.05 -0.68 5.1 0 0 Z " fill="#B9ADCA" transform="translate(337,392)"/>
<path d="M0 0 C3.32878632 2.46040728 4.79301948 3.89610387 5.5625 8 C4.84202557 11.8425303 3.99097304 13.45767292 1 16 C-1.82561523 16.7179842 -4.17277829 16.70536002 -7 16 C-9.5625 14 -9.5625 14 -11 11 C-11.29851924 7.0656695 -10.88490018 4.04877058 -8.3125 1 C-5.21285954 -0.34038506 -3.34840698 -0.54667869 0 0 Z " fill="#E4E0EA" transform="translate(203,434)"/>
<path d="M0 0 C2.09765625 0.375 2.09765625 0.375 4.16015625 1.875 C5.50468344 5.46040584 5.90697262 8.60589803 5.09765625 12.375 C3.03515625 14.9375 3.03515625 14.9375 0.09765625 16.375 C-3.36993317 16.31521398 -5.79061124 15.98465977 -8.83984375 14.3125 C-10.59293587 11.11568496 -10.38901507 7.88044411 -9.90234375 4.375 C-8.09470237 -0.44537702 -4.62330627 -0.24056228 0 0 Z " fill="#D5CEDF" transform="translate(124.90234375,396.625)"/>
<path d="M0 0 C1.9375 1.0625 1.9375 1.0625 3 3 C3.75471698 9.79245283 3.75471698 9.79245283 1.4375 13.5 C-1.94888329 15.58392818 -4.09385318 15.55802097 -8 15 C-10.4375 13.5 -10.4375 13.5 -12 11 C-12.61014545 8.1910285 -12.65360928 5.80363979 -12 3 C-8.3655827 -1.51548816 -5.40521016 -1.50144727 0 0 Z " fill="#D5CEDF" transform="translate(162,50)"/>
<path d="M0 0 C0.33 1.65 0.66 3.3 1 5 C0.443125 5.15855469 -0.11375 5.31710937 -0.6875 5.48046875 C-7.20877465 7.47430441 -13.12306029 10.12306029 -18 15 C-20.625 15.125 -20.625 15.125 -23 15 C-23.33 13.35 -23.66 11.7 -24 10 C-16.45621035 2.67690632 -10.58719731 -0.56717128 0 0 Z " fill="#6D5490" transform="translate(317,354)"/>
<path d="M0 0 C0.98484375 -0.00128906 1.9696875 -0.00257813 2.984375 -0.00390625 C4.02078125 -0.00003906 5.0571875 0.00382812 6.125 0.0078125 C7.67960938 0.00201172 7.67960938 0.00201172 9.265625 -0.00390625 C10.25046875 -0.00261719 11.2353125 -0.00132812 12.25 0 C13.16007812 0.00112793 14.07015625 0.00225586 15.0078125 0.00341797 C17.125 0.1328125 17.125 0.1328125 18.125 1.1328125 C18.16563832 2.79898365 18.167721 4.46669345 18.125 6.1328125 C10.27209987 9.69845364 2.17396289 8.56268809 -5.875 6.1328125 C-5.917721 4.46669345 -5.91563832 2.79898365 -5.875 1.1328125 C-4.22105883 -0.52112867 -2.27184587 0.00281567 0 0 Z " fill="#6D5490" transform="translate(235.875,315.8671875)"/>
<path d="M0 0 C2.86801846 0.08864784 3.78417611 0.16414857 6.125 1.9375 C7.48213883 5.46606096 7.04765877 7.76275116 6.0625 11.375 C4.375 13.375 4.375 13.375 2.0625 14.375 C-1.38016385 14.30474155 -3.22103249 13.97590824 -5.875 11.75 C-7.40612051 8.32749533 -6.8001304 5.95823398 -5.9375 2.375 C-3.9375 0.375 -3.9375 0.375 0 0 Z " fill="#D5CEDF" transform="translate(294.9375,42.625)"/>
<path d="M0 0 C3.4375 0.8125 3.4375 0.8125 5.4375 3.8125 C4.98466981 10.26533019 4.98466981 10.26533019 2.4375 12.8125 C-3.70481015 13.4825702 -3.70481015 13.4825702 -6.5625 11.25 C-7.99385511 7.76107191 -7.496466 5.41494028 -6.5625 1.8125 C-3.5625 -0.1875 -3.5625 -0.1875 0 0 Z " fill="#E9E6EE" transform="translate(53.5625,173.1875)"/>
<path d="M0 0 C3.5 0.4375 3.5 0.4375 5.4375 1.5625 C6.98724515 4.29734439 6.82162076 6.3499407 6.5 9.4375 C4.5 12.4375 4.5 12.4375 1.625 13.25 C-1.5 13.4375 -1.5 13.4375 -3.8125 12.9375 C-5.5 11.4375 -5.5 11.4375 -6.4375 8.0625 C-6.5 4.4375 -6.5 4.4375 -5.5 2 C-3.5 0.4375 -3.5 0.4375 0 0 Z " fill="#E9E6EE" transform="translate(417.5,155.5625)"/>
<path d="M0 0 C1.875 1.0625 1.875 1.0625 3 3 C3.63316583 8.90954774 3.63316583 8.90954774 1.875 11.9375 C-0.88980433 13.50422245 -2.88188517 13.38976435 -6 13 C-7.875 11.9375 -7.875 11.9375 -9 10 C-9.63316583 4.09045226 -9.63316583 4.09045226 -7.875 1.0625 C-5.11019567 -0.50422245 -3.11811483 -0.38976435 0 0 Z " fill="#E9E6EE" transform="translate(383,383)"/>
<path d="M0 0 C1.875 1.0625 1.875 1.0625 3 3 C3.63316583 8.90954774 3.63316583 8.90954774 1.875 11.9375 C-0.88980433 13.50422245 -2.88188517 13.38976435 -6 13 C-7.875 11.9375 -7.875 11.9375 -9 10 C-9.63316583 4.09045226 -9.63316583 4.09045226 -7.875 1.0625 C-5.11019567 -0.50422245 -3.11811483 -0.38976435 0 0 Z " fill="#E9E6EE" transform="translate(238,38)"/>
<path d="M0 0 C2.31 0 4.62 0 7 0 C8.32841008 5.43440487 8.32841008 5.43440487 6.875 7.9375 C5 9 5 9 2.375 8.75 C0 8 0 8 -1 7 C-0.71269945 4.66055264 -0.38063221 2.3260857 0 0 Z " fill="#8A76A6" transform="translate(438,125)"/>
<path d="M0 0 C2.875 -0.125 2.875 -0.125 6 0 C8 2 8 2 8.3125 4.5 C8.1578125 5.7375 8.1578125 5.7375 8 7 C5 9 5 9 1.8125 8.625 C0.4203125 8.315625 0.4203125 8.315625 -1 8 C-1.125 2.25 -1.125 2.25 0 0 Z " fill="#8A76A6" transform="translate(103,52)"/>
<path d="M0 0 C2.31 0.33 4.62 0.66 7 1 C7.33 2.98 7.66 4.96 8 7 C5 9 5 9 1.8125 8.625 C0.4203125 8.315625 0.4203125 8.315625 -1 8 C-1.125 2.25 -1.125 2.25 0 0 Z " fill="#8A76A6" transform="translate(125,38)"/>
<path d="M0 0 C2.875 -0.125 2.875 -0.125 6 0 C6.66 0.66 7.32 1.32 8 2 C7.625 5.125 7.625 5.125 7 8 C4.6875 8.625 4.6875 8.625 2 9 C1.01 8.34 0.02 7.68 -1 7 C-0.67 4.69 -0.34 2.38 0 0 Z " fill="#8A76A6" transform="translate(178,457)"/>
<path d="M0 0 C1.2375 0.1546875 1.2375 0.1546875 2.5 0.3125 C4.5 3.3125 4.5 3.3125 4.125 6 C3.91875 6.763125 3.7125 7.52625 3.5 8.3125 C0.625 8.9375 0.625 8.9375 -2.5 9.3125 C-4.5 7.3125 -4.5 7.3125 -4.75 4.8125 C-4.40047575 1.3172575 -3.47557682 0.4344471 0 0 Z " fill="#8A76A6" transform="translate(320.5,452.6875)"/>
<path d="M0 0 C1.2375 0.1546875 1.2375 0.1546875 2.5 0.3125 C4.5 3.3125 4.5 3.3125 4.125 6 C3.91875 6.763125 3.7125 7.52625 3.5 8.3125 C0.625 8.9375 0.625 8.9375 -2.5 9.3125 C-4.5 7.3125 -4.5 7.3125 -4.75 4.8125 C-4.40047575 1.3172575 -3.47557682 0.4344471 0 0 Z " fill="#8A76A6" transform="translate(332.5,448.6875)"/>
<path d="M0 0 C1.2375 0.1546875 1.2375 0.1546875 2.5 0.3125 C4.5 3.3125 4.5 3.3125 4.125 6 C3.91875 6.763125 3.7125 7.52625 3.5 8.3125 C0.625 8.9375 0.625 8.9375 -2.5 9.3125 C-4.5 7.3125 -4.5 7.3125 -4.75 4.8125 C-4.40047575 1.3172575 -3.47557682 0.4344471 0 0 Z " fill="#8A76A6" transform="translate(344.5,443.6875)"/>
<path d="M0 0 C2.33944736 0.28730055 4.6739143 0.61936779 7 1 C7.625 3.3125 7.625 3.3125 8 6 C7.01 7.485 7.01 7.485 6 9 C3.03 8.505 3.03 8.505 0 8 C-0.38063221 5.6739143 -0.71269945 3.33944736 -1 1 C-0.67 0.67 -0.34 0.34 0 0 Z " fill="#8A76A6" transform="translate(130,440)"/>
<path d="M0 0 C1.98 0 3.96 0 6 0 C6 0.66 6 1.32 6 2 C6.66 2 7.32 2 8 2 C8.1875 4.375 8.1875 4.375 8 7 C5 9 5 9 1.8125 8.625 C0.4203125 8.315625 0.4203125 8.315625 -1 8 C-1.125 2.25 -1.125 2.25 0 0 Z " fill="#8A76A6" transform="translate(69,394)"/>
<path d="M0 0 C1.2375 0.1546875 1.2375 0.1546875 2.5 0.3125 C4.5 3.3125 4.5 3.3125 4.125 6 C3.91875 6.763125 3.7125 7.52625 3.5 8.3125 C0.625 8.9375 0.625 8.9375 -2.5 9.3125 C-4.5 7.3125 -4.5 7.3125 -4.75 4.8125 C-4.40047575 1.3172575 -3.47557682 0.4344471 0 0 Z " fill="#8A76A6" transform="translate(451.5,147.6875)"/>
<path d="M0 0 C2.33944736 0.28730055 4.6739143 0.61936779 7 1 C7.625 3.3125 7.625 3.3125 8 6 C7.01 7.485 7.01 7.485 6 9 C3.03 8.505 3.03 8.505 0 8 C-0.38063221 5.6739143 -0.71269945 3.33944736 -1 1 C-0.67 0.67 -0.34 0.34 0 0 Z " fill="#8A76A6" transform="translate(38,130)"/>
<path d="M0 0 C1.98 0 3.96 0 6 0 C6 0.66 6 1.32 6 2 C6.66 2 7.32 2 8 2 C8.1875 4.375 8.1875 4.375 8 7 C5 9 5 9 1.8125 8.625 C0.4203125 8.315625 0.4203125 8.315625 -1 8 C-1.125 2.25 -1.125 2.25 0 0 Z " fill="#8A76A6" transform="translate(93,60)"/>
<path d="M0 0 C3.125 0.375 3.125 0.375 6 1 C6.625 3.875 6.625 3.875 7 7 C5 9 5 9 2.5 9.25 C0 9 0 9 -2 7 C-2.25 4.5 -2.25 4.5 -2 2 C-1.34 1.34 -0.68 0.68 0 0 Z " fill="#8A76A6" transform="translate(349,36)"/>
<path d="M0 0 C1.2684375 0.12375 1.2684375 0.12375 2.5625 0.25 C4.5625 3.25 4.5625 3.25 4.1875 5.9375 C3.98125 6.700625 3.775 7.46375 3.5625 8.25 C-2.1875 9.375 -2.1875 9.375 -4.4375 8.25 C-3.43230397 0.35203118 -3.43230397 0.35203118 0 0 Z " fill="#8A76A6" transform="translate(139.4375,31.75)"/>
<path d="M0 0 C1.2375 0.1546875 1.2375 0.1546875 2.5 0.3125 C4.5 3.3125 4.5 3.3125 4.125 6 C3.91875 6.763125 3.7125 7.52625 3.5 8.3125 C0.625 8.9375 0.625 8.9375 -2.5 9.3125 C-4.5 7.3125 -4.5 7.3125 -4.75 4.8125 C-4.40047575 1.3172575 -3.47557682 0.4344471 0 0 Z " fill="#8A76A6" transform="translate(151.5,26.6875)"/>
<path d="M0 0 C0.6875 2.3125 0.6875 2.3125 1 5 C-0.125 6.8125 -0.125 6.8125 -2 8 C-4.6875 8.1875 -4.6875 8.1875 -7 8 C-8.35439668 5.29120665 -8.06501451 2.99066732 -8 0 C-5.13822943 -1.43088528 -3.06624227 -0.59991697 0 0 Z " fill="#8A76A6" transform="translate(115,428)"/>
<path d="M0 0 C3.0625 0.1875 3.0625 0.1875 5.0625 2.1875 C4.73278521 5.48464793 4.4398161 6.8101839 2.0625 9.1875 C-0.5625 8.8125 -0.5625 8.8125 -2.9375 8.1875 C-3.31813221 5.8614143 -3.65019945 3.52694736 -3.9375 1.1875 C-2.9375 0.1875 -2.9375 0.1875 0 0 Z " fill="#8A76A6" transform="translate(55.9375,373.8125)"/>
<path d="M0 0 C3.125 0.375 3.125 0.375 6 1 C6.625 3.3125 6.625 3.3125 7 6 C6.01 7.485 6.01 7.485 5 9 C-0.875 8.125 -0.875 8.125 -2 7 C-2.1875 4.5625 -2.1875 4.5625 -2 2 C-1.34 1.34 -0.68 0.68 0 0 Z " fill="#8A76A6" transform="translate(446,335)"/>
<path d="M0 0 C1.2684375 0.12375 1.2684375 0.12375 2.5625 0.25 C4.5625 3.25 4.5625 3.25 4.1875 5.9375 C3.98125 6.700625 3.775 7.46375 3.5625 8.25 C1.5825 8.58 -0.3975 8.91 -2.4375 9.25 C-4.4375 6.25 -4.4375 6.25 -4.125 3.625 C-3.16976704 0.32510431 -3.16976704 0.32510431 0 0 Z " fill="#8A76A6" transform="translate(32.4375,328.75)"/>
<path d="M0 0 C2.4375 0.8125 2.4375 0.8125 4.4375 2.8125 C4.0625 5.4375 4.0625 5.4375 3.4375 7.8125 C0.15053767 8.61203138 -1.27273192 8.90908936 -4.5625 7.8125 C-5.25 5.5 -5.25 5.5 -5.5625 2.8125 C-3.93062878 0.09271463 -3.17771033 -0.23251539 0 0 Z " fill="#8A76A6" transform="translate(27.5625,165.1875)"/>
<path d="M0 0 C3.125 0.375 3.125 0.375 6 1 C6.625 3.3125 6.625 3.3125 7 6 C6.01 7.485 6.01 7.485 5 9 C-0.875 8.125 -0.875 8.125 -2 7 C-2.1875 4.5625 -2.1875 4.5625 -2 2 C-1.34 1.34 -0.68 0.68 0 0 Z " fill="#8A76A6" transform="translate(29,153)"/>
<path d="M0 0 C1.2375 0.1546875 1.2375 0.1546875 2.5 0.3125 C4.5 3.3125 4.5 3.3125 4.125 6 C3.91875 6.763125 3.7125 7.52625 3.5 8.3125 C1.1875 8.9375 1.1875 8.9375 -1.5 9.3125 C-2.49 8.6525 -3.48 7.9925 -4.5 7.3125 C-4.8125 4.8125 -4.8125 4.8125 -4.5 2.3125 C-2.5 0.3125 -2.5 0.3125 0 0 Z " fill="#8A76A6" transform="translate(446.5,135.6875)"/>
<path d="M0 0 C1.9375 0.75 1.9375 0.75 3.9375 2.75 C3.5625 5.875 3.5625 5.875 2.9375 8.75 C0.0625 8.875 0.0625 8.875 -3.0625 8.75 C-5.0625 6.75 -5.0625 6.75 -5.375 4.25 C-5.271875 3.425 -5.16875 2.6 -5.0625 1.75 C-2.0625 -0.25 -2.0625 -0.25 0 0 Z " fill="#8A76A6" transform="translate(48.0625,118.25)"/>
<path d="M0 0 C2 3 2 3 1.625 5.6875 C1.41875 6.450625 1.2125 7.21375 1 8 C-1.3125 8.625 -1.3125 8.625 -4 9 C-4.99 8.34 -5.98 7.68 -7 7 C-7.1875 3.875 -7.1875 3.875 -7 1 C-4.46578263 -0.26710868 -2.80561762 -0.28056176 0 0 Z " fill="#8A76A6" transform="translate(64,97)"/>
<path d="M0 0 C2.375 0.6875 2.375 0.6875 3.375 1.6875 C3.08769945 4.02694736 2.75563221 6.3614143 2.375 8.6875 C0.065 8.6875 -2.245 8.6875 -4.625 8.6875 C-4.955 6.3775 -5.285 4.0675 -5.625 1.6875 C-2.625 -0.3125 -2.625 -0.3125 0 0 Z " fill="#8A76A6" transform="translate(374.625,49.3125)"/>
<path d="M0 0 C1.9375 0.6875 1.9375 0.6875 3.9375 1.6875 C3.6075 3.9975 3.2775 6.3075 2.9375 8.6875 C0.0625 8.8125 0.0625 8.8125 -3.0625 8.6875 C-5.0625 6.6875 -5.0625 6.6875 -5.375 4.1875 C-5.271875 3.3625 -5.16875 2.5375 -5.0625 1.6875 C-2.0625 -0.3125 -2.0625 -0.3125 0 0 Z " fill="#8A76A6" transform="translate(363.0625,42.3125)"/>
<path d="M0 0 C1.2684375 0.12375 1.2684375 0.12375 2.5625 0.25 C4.5625 3.25 4.5625 3.25 4.1875 5.9375 C3.98125 6.700625 3.775 7.46375 3.5625 8.25 C1.5825 8.58 -0.3975 8.91 -2.4375 9.25 C-4.4375 6.25 -4.4375 6.25 -4.125 3.625 C-3.16976704 0.32510431 -3.16976704 0.32510431 0 0 Z " fill="#8A76A6" transform="translate(163.4375,22.75)"/>
<path d="M0 0 C2.875 -0.125 2.875 -0.125 6 0 C8 2 8 2 8.3125 4.5 C8.1578125 5.7375 8.1578125 5.7375 8 7 C5 9 5 9 2.3125 8.625 C1.549375 8.41875 0.78625 8.2125 0 8 C-0.79953138 4.71303767 -1.09658936 3.28976808 0 0 Z " fill="#8A76A6" transform="translate(384,417)"/>
<path d="M0 0 C2.875 -0.125 2.875 -0.125 6 0 C6.66 0.66 7.32 1.32 8 2 C7.625 5.125 7.625 5.125 7 8 C4.36 8 1.72 8 -1 8 C-1.125 2.25 -1.125 2.25 0 0 Z " fill="#8A76A6" transform="translate(46,363)"/>
<path d="M0 0 C3 0.25 3 0.25 5 2.25 C4.44444444 6.80555556 4.44444444 6.80555556 3 8.25 C1.00041636 8.29080783 -1.00045254 8.29254356 -3 8.25 C-3.66 6.27 -4.32 4.29 -5 2.25 C-3 0.25 -3 0.25 0 0 Z " fill="#8A76A6" transform="translate(457,311.75)"/>
<path d="M0 0 C2.375 0.375 2.375 0.375 3.375 1.375 C3.625 4.3125 3.625 4.3125 3.375 7.375 C0.375 9.375 0.375 9.375 -2.3125 9 C-3.075625 8.79375 -3.83875 8.5875 -4.625 8.375 C-5.625 5.375 -5.625 5.375 -4.5 2.6875 C-2.625 0.375 -2.625 0.375 0 0 Z " fill="#8A76A6" transform="translate(456.625,159.625)"/>
<path d="M0 0 C0 2.31 0 4.62 0 7 C-1.98 7.33 -3.96 7.66 -6 8 C-7.5625 5.6875 -7.5625 5.6875 -9 3 C-8.67 2.01 -8.34 1.02 -8 0 C-5.13822943 -1.43088528 -3.06624227 -0.59991697 0 0 Z " fill="#8A76A6" transform="translate(40,142)"/>
<path d="M0 0 C2.625 0.5625 2.625 0.5625 5 2 C5.9375 4.5 5.9375 4.5 6 7 C5.34 7.66 4.68 8.32 4 9 C0.375 8.625 0.375 8.625 -3 8 C-3.1875 5.125 -3.1875 5.125 -3 2 C-2.01 1.34 -1.02 0.68 0 0 Z " fill="#8A76A6" transform="translate(429,369)"/>
<path d="M0 0 C2 3 2 3 1.75 5.0625 C1 7 1 7 -1 9 C-3.26274788 8.64644564 -4.95088852 8.02455574 -7 7 C-7 5.02 -7 3.04 -7 1 C-4.46578263 -0.26710868 -2.80561762 -0.28056176 0 0 Z " fill="#8A76A6" transform="translate(72,87)"/>
<path d="M0 0 C3.125 0.375 3.125 0.375 6 1 C6.625 3.3125 6.625 3.3125 7 6 C6.01 7.485 6.01 7.485 5 9 C2.375 9.1875 2.375 9.1875 0 9 C-0.66 6.69 -1.32 4.38 -2 2 C-1.34 1.34 -0.68 0.68 0 0 Z " fill="#8A76A6" transform="translate(337,31)"/>
<path d="M0 0 C5.56818182 0.56818182 5.56818182 0.56818182 7 2 C7.04080783 3.99958364 7.04254356 6.00045254 7 8 C4.6875 8.625 4.6875 8.625 2 9 C-1 7 -1 7 -1.8125 4.5 C-1.874375 3.675 -1.93625 2.85 -2 2 C-1.34 1.34 -0.68 0.68 0 0 Z " fill="#8A76A6" transform="translate(325,26)"/>
<path d="M0 0 C3.125 -0.1875 3.125 -0.1875 6 0 C7.125 2.3125 7.125 2.3125 8 5 C7.01 6.485 7.01 6.485 6 8 C2.875 8.1875 2.875 8.1875 0 8 C-1.125 5.6875 -1.125 5.6875 -2 3 C-1.34 2.01 -0.68 1.02 0 0 Z " fill="#8A76A6" transform="translate(229,464)"/>
<path d="M0 0 C0.763125 0.20625 1.52625 0.4125 2.3125 0.625 C2.6425 2.605 2.9725 4.585 3.3125 6.625 C0.95811267 8.05444945 -0.16782433 8.71161261 -2.9375 8.25 C-3.515 8.04375 -4.0925 7.8375 -4.6875 7.625 C-5.0175 5.645 -5.3475 3.665 -5.6875 1.625 C-2.6875 -0.375 -2.6875 -0.375 0 0 Z " fill="#8A76A6" transform="translate(271.6875,463.375)"/>
<path d="M0 0 C1.99954746 -0.04254356 4.00041636 -0.04080783 6 0 C7 1 7 1 7.125 4 C7 7 7 7 6 8 C3.66702567 8.04092937 1.33294775 8.04241723 -1 8 C-1.93065133 5.39417629 -2.14917407 4.35801776 -1.0625 1.75 C-0.711875 1.1725 -0.36125 0.595 0 0 Z " fill="#8A76A6" transform="translate(293,460)"/>
<path d="M0 0 C1.670625 0.061875 1.670625 0.061875 3.375 0.125 C3.41741723 2.45794775 3.41592937 4.79202567 3.375 7.125 C2.375 8.125 2.375 8.125 -0.6875 8.1875 C-1.656875 8.166875 -2.62625 8.14625 -3.625 8.125 C-4.285 6.145 -4.945 4.165 -5.625 2.125 C-3.625 0.125 -3.625 0.125 0 0 Z " fill="#8A76A6" transform="translate(194.625,459.875)"/>
<path d="M0 0 C1 1 1 1 1.0625 4.0625 C1.041875 5.031875 1.02125 6.00125 1 7 C-0.98 7.33 -2.96 7.66 -5 8 C-6.5625 5.6875 -6.5625 5.6875 -8 3 C-7.67 2.01 -7.34 1.02 -7 0 C-4.31633121 -1.3418344 -2.84719317 -0.73004953 0 0 Z " fill="#8A76A6" transform="translate(148,446)"/>
<path d="M0 0 C2.31 0 4.62 0 7 0 C7.33 2.31 7.66 4.62 8 7 C6.35 7.66 4.7 8.32 3 9 C0.9375 7.3125 0.9375 7.3125 -1 5 C-0.75 2.25 -0.75 2.25 0 0 Z " fill="#8A76A6" transform="translate(374,425)"/>
<path d="M0 0 C1.98 0 3.96 0 6 0 C6.33 2.31 6.66 4.62 7 7 C6.34 7 5.68 7 5 7 C5 7.66 5 8.32 5 9 C3.33388095 9.042721 1.66617115 9.04063832 0 9 C-1 8 -1 8 -1.125 5.0625 C-1 2 -1 2 0 0 Z " fill="#8A76A6" transform="translate(61,384)"/>
<path d="M0 0 C1.1446875 0.3403125 1.1446875 0.3403125 2.3125 0.6875 C2.9375 3 2.9375 3 3.3125 5.6875 C2.3225 7.1725 2.3225 7.1725 1.3125 8.6875 C-1.6575 8.1925 -1.6575 8.1925 -4.6875 7.6875 C-5.375 5.375 -5.375 5.375 -5.6875 2.6875 C-4.0011022 -0.12316299 -3.27764429 -0.38112143 0 0 Z " fill="#8A76A6" transform="translate(461.6875,299.3125)"/>
<path d="M0 0 C0.763125 0.20625 1.52625 0.4125 2.3125 0.625 C2.6425 2.605 2.9725 4.585 3.3125 6.625 C0.95811267 8.05444945 -0.16782433 8.71161261 -2.9375 8.25 C-3.515 8.04375 -4.0925 7.8375 -4.6875 7.625 C-5.0175 5.645 -5.3475 3.665 -5.6875 1.625 C-2.6875 -0.375 -2.6875 -0.375 0 0 Z " fill="#8A76A6" transform="translate(22.6875,292.375)"/>
<path d="M0 0 C1 1 1 1 1.0625 3.5625 C1.041875 4.366875 1.02125 5.17125 1 6 C-1.35438733 7.42944945 -2.48032433 8.08661261 -5.25 7.625 C-5.8275 7.41875 -6.405 7.2125 -7 7 C-7.93423645 3.98968256 -8.04449911 3.13349732 -7 0 C-4.31633121 -1.3418344 -2.84719317 -0.73004953 0 0 Z " fill="#8A76A6" transform="translate(470,211)"/>
<path d="M0 0 C0.125 2.875 0.125 2.875 0 6 C-0.66 6.66 -1.32 7.32 -2 8 C-5.125 7.625 -5.125 7.625 -8 7 C-8.6875 4.6875 -8.6875 4.6875 -9 2 C-6.73607469 -1.99516231 -4.01344788 -0.98106504 0 0 Z " fill="#8A76A6" transform="translate(25,191)"/>
<path d="M0 0 C1.99954746 -0.04254356 4.00041636 -0.04080783 6 0 C7 1 7 1 7.0625 4.5625 C7.041875 5.696875 7.02125 6.83125 7 8 C4.69 8 2.38 8 0 8 C-1.125 6.25 -1.125 6.25 -2 4 C-1.125 1.75 -1.125 1.75 0 0 Z " fill="#8A76A6" transform="translate(460,185)"/>
<path d="M0 0 C2.375 0.75 2.375 0.75 3.375 1.75 C3.41580783 3.74958364 3.41754356 5.75045254 3.375 7.75 C0.08803767 8.54953138 -1.33523192 8.84658936 -4.625 7.75 C-5.3125 5.4375 -5.3125 5.4375 -5.625 2.75 C-3.9659358 -0.015107 -3.22812218 -0.30744021 0 0 Z " fill="#8A76A6" transform="translate(316.625,22.25)"/>
<path d="M0 0 C2.97 0.495 2.97 0.495 6 1 C6.93065133 3.60582371 7.14917407 4.64198224 6.0625 7.25 C5.711875 7.8275 5.36125 8.405 5 9 C2.03 8.505 2.03 8.505 -1 8 C-1.625 5.6875 -1.625 5.6875 -2 3 C-1.34 2.01 -0.68 1.02 0 0 Z " fill="#8A76A6" transform="translate(301,19)"/>
<path d="M0 0 C2.31 0 4.62 0 7 0 C7.04241723 2.33294775 7.04092937 4.66702567 7 7 C6 8 6 8 2.9375 8.0625 C1.968125 8.041875 0.99875 8.02125 0 8 C-1.125 6.25 -1.125 6.25 -2 4 C-1.125 1.75 -1.125 1.75 0 0 Z " fill="#8A76A6" transform="translate(185,17)"/>
<path d="M0 0 C3.0625 -0.25 3.0625 -0.25 6 0 C7 1 7 1 7.125 4 C7 7 7 7 6 8 C4.00041636 8.04080783 1.99954746 8.04254356 0 8 C-1.125 5.6875 -1.125 5.6875 -2 3 C-1.34 2.01 -0.68 1.02 0 0 Z " fill="#8A76A6" transform="translate(255,464)"/>
<path d="M0 0 C1.010625 0.0825 2.02125 0.165 3.0625 0.25 C5.0625 3.25 5.0625 3.25 4.75 5.375 C4.0625 7.25 4.0625 7.25 3.0625 8.25 C1.06291636 8.29080783 -0.93795254 8.29254356 -2.9375 8.25 C-3.31813221 5.9239143 -3.65019945 3.58944736 -3.9375 1.25 C-2.9375 0.25 -2.9375 0.25 0 0 Z " fill="#8A76A6" transform="translate(307.9375,456.75)"/>
<path d="M0 0 C2.9375 0.1875 2.9375 0.1875 3.9375 1.1875 C4.0625 4.1875 4.0625 4.1875 3.9375 7.1875 C2.9375 8.1875 2.9375 8.1875 -0.125 8.25 C-1.094375 8.229375 -2.06375 8.20875 -3.0625 8.1875 C-3.7225 6.2075 -4.3825 4.2275 -5.0625 2.1875 C-3.0625 0.1875 -3.0625 0.1875 0 0 Z " fill="#8A76A6" transform="translate(169.0625,453.8125)"/>
<path d="M0 0 C2.9375 0.1875 2.9375 0.1875 3.9375 1.1875 C4.0625 4.1875 4.0625 4.1875 3.9375 7.1875 C2.9375 8.1875 2.9375 8.1875 -0.125 8.25 C-1.094375 8.229375 -2.06375 8.20875 -3.0625 8.1875 C-3.7225 6.2075 -4.3825 4.2275 -5.0625 2.1875 C-3.0625 0.1875 -3.0625 0.1875 0 0 Z " fill="#8A76A6" transform="translate(157.0625,449.8125)"/>
<path d="M0 0 C1.2684375 0.12375 1.2684375 0.12375 2.5625 0.25 C4.7144437 3.47791555 4.76336443 4.53400809 4.5625 8.25 C1.6875 8.875 1.6875 8.875 -1.4375 9.25 C-3.4375 7.25 -3.4375 7.25 -3.625 4.1875 C-3.37983937 0.34665019 -3.37983937 0.34665019 0 0 Z " fill="#8A76A6" transform="translate(355.4375,437.75)"/>
<path d="M0 0 C1.4540625 0.0309375 1.4540625 0.0309375 2.9375 0.0625 C3.5625 3.4375 3.5625 3.4375 3.9375 7.0625 C3.2775 7.7225 2.6175 8.3825 1.9375 9.0625 C-0.6875 8.6875 -0.6875 8.6875 -3.0625 8.0625 C-3.44313221 5.7364143 -3.77519945 3.40194736 -4.0625 1.0625 C-3.0625 0.0625 -3.0625 0.0625 0 0 Z " fill="#8A76A6" transform="translate(367.0625,431.9375)"/>
<path d="M0 0 C3 0.125 3 0.125 4 1.125 C4.1875 4.0625 4.1875 4.0625 4 7.125 C3.34 7.785 2.68 8.445 2 9.125 C-0.26274788 8.77144564 -1.95088852 8.14955574 -4 7.125 C-4.04254356 5.12545254 -4.04080783 3.12458364 -4 1.125 C-3 0.125 -3 0.125 0 0 Z " fill="#8A76A6" transform="translate(415,389.875)"/>
<path d="M0 0 C4.55555556 0.55555556 4.55555556 0.55555556 6 2 C5.71269945 4.33944736 5.38063221 6.6739143 5 9 C2.69 8.67 0.38 8.34 -2 8 C-2.125 5.125 -2.125 5.125 -2 2 C-1.34 1.34 -0.68 0.68 0 0 Z " fill="#8A76A6" transform="translate(435,358)"/>
<path d="M0 0 C1.2684375 0.12375 1.2684375 0.12375 2.5625 0.25 C4.7144437 3.47791555 4.76336443 4.53400809 4.5625 8.25 C1.6875 8.875 1.6875 8.875 -1.4375 9.25 C-3.4375 7.25 -3.4375 7.25 -3.625 4.1875 C-3.37983937 0.34665019 -3.37983937 0.34665019 0 0 Z " fill="#8A76A6" transform="translate(42.4375,351.75)"/>
<path d="M0 0 C2.31 0 4.62 0 7 0 C7.33 1.98 7.66 3.96 8 6 C5 8 5 8 1.8125 7.625 C0.884375 7.41875 -0.04375 7.2125 -1 7 C-0.67 4.69 -0.34 2.38 0 0 Z " fill="#8A76A6" transform="translate(34,341)"/>
<path d="M0 0 C2.9375 0.1875 2.9375 0.1875 3.9375 1.1875 C4.0625 4.1875 4.0625 4.1875 3.9375 7.1875 C2.9375 8.1875 2.9375 8.1875 -0.125 8.25 C-1.094375 8.229375 -2.06375 8.20875 -3.0625 8.1875 C-3.7225 6.2075 -4.3825 4.2275 -5.0625 2.1875 C-3.0625 0.1875 -3.0625 0.1875 0 0 Z " fill="#8A76A6" transform="translate(453.0625,323.8125)"/>
<path d="M0 0 C1.99954746 -0.04254356 4.00041636 -0.04080783 6 0 C7 1 7 1 7.125 4 C7 7 7 7 6 8 C4.00041636 8.04080783 1.99954746 8.04254356 0 8 C-1.125 6.25 -1.125 6.25 -2 4 C-1.125 1.75 -1.125 1.75 0 0 Z " fill="#8A76A6" transform="translate(25,317)"/>
<path d="M0 0 C1.010625 0.0825 2.02125 0.165 3.0625 0.25 C5.0625 3.25 5.0625 3.25 4.75 5.375 C4.0625 7.25 4.0625 7.25 3.0625 8.25 C1.06291636 8.29080783 -0.93795254 8.29254356 -2.9375 8.25 C-3.31813221 5.9239143 -3.65019945 3.58944736 -3.9375 1.25 C-2.9375 0.25 -2.9375 0.25 0 0 Z " fill="#8A76A6" transform="translate(23.9375,304.75)"/>
<path d="M0 0 C2.97 0.495 2.97 0.495 6 1 C6.93065133 3.60582371 7.14917407 4.64198224 6.0625 7.25 C5.711875 7.8275 5.36125 8.405 5 9 C2.03 8.505 2.03 8.505 -1 8 C-1.625 5.6875 -1.625 5.6875 -2 3 C-1.34 2.01 -0.68 1.02 0 0 Z " fill="#8A76A6" transform="translate(463,274)"/>
<path d="M0 0 C3.0625 -0.25 3.0625 -0.25 6 0 C7 1 7 1 7.0625 4.5625 C7.041875 5.696875 7.02125 6.83125 7 8 C4.69 8 2.38 8 0 8 C-1.125 5.6875 -1.125 5.6875 -2 3 C-1.34 2.01 -0.68 1.02 0 0 Z " fill="#8A76A6" transform="translate(14,267)"/>
<path d="M0 0 C3.0625 -0.25 3.0625 -0.25 6 0 C7 1 7 1 7.125 4 C7 7 7 7 6 8 C4.00041636 8.04080783 1.99954746 8.04254356 0 8 C-1.125 5.6875 -1.125 5.6875 -2 3 C-1.34 2.01 -0.68 1.02 0 0 Z " fill="#8A76A6" transform="translate(465,249)"/>
<path d="M0 0 C3.0625 -0.25 3.0625 -0.25 6 0 C7 1 7 1 7.125 4 C7 7 7 7 6 8 C4.00041636 8.04080783 1.99954746 8.04254356 0 8 C-1.125 5.6875 -1.125 5.6875 -2 3 C-1.34 2.01 -0.68 1.02 0 0 Z " fill="#8A76A6" transform="translate(465,236)"/>
<path d="M0 0 C3.625 -0.1875 3.625 -0.1875 7 0 C7.04241723 2.33294775 7.04092937 4.66702567 7 7 C6 8 6 8 2.9375 8.0625 C1.968125 8.041875 0.99875 8.02125 0 8 C-1.125 5.6875 -1.125 5.6875 -2 3 C-1.34 2.01 -0.68 1.02 0 0 Z " fill="#8A76A6" transform="translate(462,198)"/>
<path d="M0 0 C1.4540625 0.0309375 1.4540625 0.0309375 2.9375 0.0625 C3.73703138 3.34946233 4.03408936 4.77273192 2.9375 8.0625 C0.0625 8.1875 0.0625 8.1875 -3.0625 8.0625 C-3.7225 7.4025 -4.3825 6.7425 -5.0625 6.0625 C-4.33395709 0.0884481 -4.33395709 0.0884481 0 0 Z " fill="#8A76A6" transform="translate(24.0625,177.9375)"/>
<path d="M0 0 C1.99954746 -0.04254356 4.00041636 -0.04080783 6 0 C7 1 7 1 7.125 4 C7 7 7 7 6 8 C4.00041636 8.04080783 1.99954746 8.04254356 0 8 C-1.125 6.25 -1.125 6.25 -2 4 C-1.125 1.75 -1.125 1.75 0 0 Z " fill="#8A76A6" transform="translate(457,173)"/>
<path d="M0 0 C1.4540625 0.0309375 1.4540625 0.0309375 2.9375 0.0625 C3.5975 1.7125 4.2575 3.3625 4.9375 5.0625 C3.6175 6.3825 2.2975 7.7025 0.9375 9.0625 C-1.5375 8.0725 -1.5375 8.0725 -4.0625 7.0625 C-4.10504356 5.06295254 -4.10330783 3.06208364 -4.0625 1.0625 C-3.0625 0.0625 -3.0625 0.0625 0 0 Z " fill="#8A76A6" transform="translate(117.0625,44.9375)"/>
<path d="M0 0 C1.4540625 0.0309375 1.4540625 0.0309375 2.9375 0.0625 C3.31813221 2.3885857 3.65019945 4.72305264 3.9375 7.0625 C2.9375 8.0625 2.9375 8.0625 0 8.25 C-3.0625 8.0625 -3.0625 8.0625 -5.0625 6.0625 C-4.33395709 0.0884481 -4.33395709 0.0884481 0 0 Z " fill="#8A76A6" transform="translate(176.0625,19.9375)"/>
<path d="M0 0 C1.670625 0.061875 1.670625 0.061875 3.375 0.125 C3.5 5.875 3.5 5.875 2.375 8.125 C0.395 8.125 -1.585 8.125 -3.625 8.125 C-4.285 6.145 -4.945 4.165 -5.625 2.125 C-3.625 0.125 -3.625 0.125 0 0 Z " fill="#8A76A6" transform="translate(291.625,16.875)"/>
<path d="M0 0 C3 0.125 3 0.125 4 1.125 C4.04080783 3.12458364 4.04254356 5.12545254 4 7.125 C1.6875 8.25 1.6875 8.25 -1 9.125 C-1.99 8.465 -2.98 7.805 -4 7.125 C-4.25 4.0625 -4.25 4.0625 -4 1.125 C-3 0.125 -3 0.125 0 0 Z " fill="#8A76A6" transform="translate(239,11.875)"/>
<path d="M0 0 C2.375 0.25 2.375 0.25 3.375 1.25 C3.41592937 3.58297433 3.41741723 5.91705225 3.375 8.25 C1.065 8.25 -1.245 8.25 -3.625 8.25 C-4.285 6.6 -4.945 4.95 -5.625 3.25 C-3.7774876 0.91630013 -3.0311278 0.28867884 0 0 Z " fill="#8A76A6" transform="translate(219.625,462.75)"/>
<path d="M0 0 C2.5625 0.1875 2.5625 0.1875 4.5625 2.1875 C4.75 4.75 4.75 4.75 4.5625 7.1875 C3.5625 8.1875 3.5625 8.1875 0.625 8.375 C-2.4375 8.1875 -2.4375 8.1875 -4.4375 6.1875 C-3.71780303 0.28598485 -3.71780303 0.28598485 0 0 Z " fill="#8A76A6" transform="translate(90.4375,411.8125)"/>
<path d="M0 0 C2.33944736 0.28730055 4.6739143 0.61936779 7 1 C7.125 3.875 7.125 3.875 7 7 C6.34 7.66 5.68 8.32 5 9 C2.73725212 8.64644564 1.04911148 8.02455574 -1 7 C-1.04254356 5.00045254 -1.04080783 2.99958364 -1 1 C-0.67 0.67 -0.34 0.34 0 0 Z " fill="#8A76A6" transform="translate(420,380)"/>
<path d="M0 0 C3.125 0.375 3.125 0.375 6 1 C5.67 3.31 5.34 5.62 5 8 C0.25 9.125 0.25 9.125 -2 8 C-2.125 5.125 -2.125 5.125 -2 2 C-1.34 1.34 -0.68 0.68 0 0 Z " fill="#8A76A6" transform="translate(441,347)"/>
<path d="M0 0 C2.875 -0.125 2.875 -0.125 6 0 C6.66 0.66 7.32 1.32 8 2 C7.625 5.125 7.625 5.125 7 8 C4.125 8.125 4.125 8.125 1 8 C0.34 7.34 -0.32 6.68 -1 6 C-0.625 2.875 -0.625 2.875 0 0 Z " fill="#8A76A6" transform="translate(460,287)"/>
<path d="M0 0 C2.33294775 -0.04241723 4.66702567 -0.04092937 7 0 C8 1 8 1 8.125 4 C8 7 8 7 7 8 C4.16640458 8.2982732 2.56214622 8.35602594 0.125 6.8125 C-1 5 -1 5 -0.6875 2.3125 C-0.460625 1.549375 -0.23375 0.78625 0 0 Z " fill="#8A76A6" transform="translate(15,280)"/>
<path d="M0 0 C2.33294775 -0.04241723 4.66702567 -0.04092937 7 0 C8 1 8 1 8.125 4 C8 7 8 7 7 8 C4.625 8.3125 4.625 8.3125 2 8 C0.125 6.25 0.125 6.25 -1 4 C-0.6875 1.75 -0.6875 1.75 0 0 Z " fill="#8A76A6" transform="translate(463,262)"/>
<path d="M0 0 C3.0625 -0.25 3.0625 -0.25 6 0 C7 1 7 1 7.125 4 C7 7 7 7 6 8 C4.00041636 8.04080783 1.99954746 8.04254356 0 8 C-1.125 5.6875 -1.125 5.6875 -2 3 C-1.34 2.01 -0.68 1.02 0 0 Z " fill="#8A76A6" transform="translate(14,216)"/>
<path d="M0 0 C2.5 -0.3125 2.5 -0.3125 5 0 C7 2 7 2 7.1875 4.5625 C7 7 7 7 6 8 C3.66702567 8.04092937 1.33294775 8.04241723 -1 8 C-1.625 5.6875 -1.625 5.6875 -2 3 C-1.34 2.01 -0.68 1.02 0 0 Z " fill="#8A76A6" transform="translate(16,203)"/>
<path d="M0 0 C2.625 0.625 2.625 0.625 5 2 C5.9375 3.9375 5.9375 3.9375 6 6 C5.01 7.485 5.01 7.485 4 9 C1.69 8.67 -0.62 8.34 -3 8 C-3.1875 5.125 -3.1875 5.125 -3 2 C-2.01 1.34 -1.02 0.68 0 0 Z " fill="#8A76A6" transform="translate(53,107)"/>
<path d="M0 0 C1.2065625 0.0309375 1.2065625 0.0309375 2.4375 0.0625 C2.4375 0.7225 2.4375 1.3825 2.4375 2.0625 C3.0975 2.0625 3.7575 2.0625 4.4375 2.0625 C4.5625 4.4375 4.5625 4.4375 4.4375 7.0625 C3.7775 7.7225 3.1175 8.3825 2.4375 9.0625 C-2.11805556 8.50694444 -2.11805556 8.50694444 -3.5625 7.0625 C-3.6875 4.0625 -3.6875 4.0625 -3.5625 1.0625 C-2.5625 0.0625 -2.5625 0.0625 0 0 Z " fill="#8A76A6" transform="translate(77.5625,76.9375)"/>
<path d="M0 0 C2.31 0 4.62 0 7 0 C7.04241723 2.33294775 7.04092937 4.66702567 7 7 C6 8 6 8 3.625 8.3125 C1 8 1 8 -0.8125 6 C-1.204375 5.34 -1.59625 4.68 -2 4 C-1.34 2.68 -0.68 1.36 0 0 Z " fill="#8A76A6" transform="translate(275,15)"/>
<path d="M0 0 C2.33294775 -0.04241723 4.66702567 -0.04092937 7 0 C8 1 8 1 8.1875 3.4375 C8 6 8 6 6 8 C3.375 8.125 3.375 8.125 1 8 C-1.125 3.375 -1.125 3.375 0 0 Z " fill="#8A76A6" transform="translate(197,15)"/>
<path d="M0 0 C0.78375 0.04125 1.5675 0.0825 2.375 0.125 C3.80444945 2.47938733 4.46161261 3.60532433 4 6.375 C3.79375 6.9525 3.5875 7.53 3.375 8.125 C1.065 8.125 -1.245 8.125 -3.625 8.125 C-4.25 5.25 -4.25 5.25 -4.625 2.125 C-2.625 0.125 -2.625 0.125 0 0 Z " fill="#8A76A6" transform="translate(213.625,12.875)"/>
<path d="M0 0 C2.31 0 4.62 0 7 0 C7.625 2.3125 7.625 2.3125 8 5 C7.01 6.485 7.01 6.485 6 8 C3.375 8.1875 3.375 8.1875 1 8 C0.26919734 6.02253397 -0.39421747 4.01927511 -1 2 C-0.67 1.34 -0.34 0.68 0 0 Z " fill="#8A76A6" transform="translate(203,462)"/>
<path d="M0 0 C2.33944736 0.28730055 4.6739143 0.61936779 7 1 C7.125 3.375 7.125 3.375 7 6 C5 8 5 8 2.5 8.25 C0 8 0 8 -2 6 C-1.44444444 1.44444444 -1.44444444 1.44444444 0 0 Z " fill="#8A76A6" transform="translate(98,420)"/>
<path d="M0 0 C3.0625 -0.25 3.0625 -0.25 6 0 C7 1 7 1 7.125 4 C7 7 7 7 6 8 C3.66055264 7.71269945 1.3260857 7.38063221 -1 7 C-1.625 5.1875 -1.625 5.1875 -2 3 C-1.34 2.01 -0.68 1.02 0 0 Z " fill="#8A76A6" transform="translate(13,229)"/>
<path d="M0 0 C3.125 -0.1875 3.125 -0.1875 6 0 C6.33 2.31 6.66 4.62 7 7 C4.69 7.33 2.38 7.66 0 8 C-1.125 5.6875 -1.125 5.6875 -2 3 C-1.34 2.01 -0.68 1.02 0 0 Z " fill="#8A76A6" transform="translate(432,114)"/>
<path d="M0 0 C1.010625 0.0825 2.02125 0.165 3.0625 0.25 C5.0625 3.25 5.0625 3.25 4.75 5.375 C4.0625 7.25 4.0625 7.25 3.0625 8.25 C0.625 8.4375 0.625 8.4375 -1.9375 8.25 C-3.9375 6.25 -3.9375 6.25 -4.125 3.6875 C-3.85121288 0.1282675 -3.61900269 0.30800023 0 0 Z " fill="#8A76A6" transform="translate(419.9375,92.75)"/>
<path d="M0 0 C2.4375 0.1875 2.4375 0.1875 3.4375 1.1875 C3.47842937 3.52047433 3.47991723 5.85455225 3.4375 8.1875 C1.10455225 8.22991723 -1.22952567 8.22842937 -3.5625 8.1875 C-4.5625 7.1875 -4.5625 7.1875 -4.75 4.75 C-4.48737296 1.16076381 -3.58923619 0.26262704 0 0 Z " fill="#8A76A6" transform="translate(283.5625,461.8125)"/>
<path d="M0 0 C2.4375 0.1875 2.4375 0.1875 3.4375 1.1875 C3.47842937 3.52047433 3.47991723 5.85455225 3.4375 8.1875 C1.10455225 8.22991723 -1.22952567 8.22842937 -3.5625 8.1875 C-4.5625 7.1875 -4.5625 7.1875 -4.75 4.75 C-4.48737296 1.16076381 -3.58923619 0.26262704 0 0 Z " fill="#8A76A6" transform="translate(16.5625,253.8125)"/>
<path d="M0 0 C2.4375 0.1875 2.4375 0.1875 3.4375 1.1875 C3.5625 4.1875 3.5625 4.1875 3.4375 7.1875 C2.4375 8.1875 2.4375 8.1875 -1.125 8.25 C-2.259375 8.229375 -3.39375 8.20875 -4.5625 8.1875 C-4.6875 5.3125 -4.6875 5.3125 -4.5625 2.1875 C-2.5625 0.1875 -2.5625 0.1875 0 0 Z " fill="#8A76A6" transform="translate(468.5625,222.8125)"/>
<path d="M0 0 C1.4540625 0.0309375 1.4540625 0.0309375 2.9375 0.0625 C3.2675 2.3725 3.5975 4.6825 3.9375 7.0625 C2.2875 7.7225 0.6375 8.3825 -1.0625 9.0625 C-2.5625 7.875 -2.5625 7.875 -4.0625 6.0625 C-4.3125 3.4375 -4.3125 3.4375 -4.0625 1.0625 C-3.0625 0.0625 -3.0625 0.0625 0 0 Z " fill="#8A76A6" transform="translate(428.0625,102.9375)"/>
<path d="M0 0 C3 0.125 3 0.125 4 1.125 C4.25 4.0625 4.25 4.0625 4 7.125 C1 9.125 1 9.125 -1.1875 8.75 C-1.785625 8.54375 -2.38375 8.3375 -3 8.125 C-3.38063221 5.7989143 -3.71269945 3.46444736 -4 1.125 C-3 0.125 -3 0.125 0 0 Z " fill="#8A76A6" transform="translate(394,64.875)"/>
<path d="M0 0 C2.5 -0.3125 2.5 -0.3125 5 0 C5.66 0.66 6.32 1.32 7 2 C6.625 5.125 6.625 5.125 6 8 C3.69 8 1.38 8 -1 8 C-1.625 5.6875 -1.625 5.6875 -2 3 C-1.34 2.01 -0.68 1.02 0 0 Z " fill="#8A76A6" transform="translate(263,13)"/>
<path d="M0 0 C5.875 0.875 5.875 0.875 7 2 C7.04080783 3.99958364 7.04254356 6.00045254 7 8 C4.69 8 2.38 8 0 8 C-1.125 5.6875 -1.125 5.6875 -2 3 C-1.34 2.01 -0.68 1.02 0 0 Z " fill="#8A76A6" transform="translate(250,12)"/>
<path d="M0 0 C2.75 0.25 2.75 0.25 5 1 C5.04254356 2.99954746 5.04080783 5.00041636 5 7 C4 8 4 8 0.9375 8.0625 C-0.031875 8.041875 -1.00125 8.02125 -2 8 C-2.66 6.68 -3.32 5.36 -4 4 C-2.3125 1.9375 -2.3125 1.9375 0 0 Z " fill="#8A76A6" transform="translate(225,12)"/>
<path d="M0 0 C2.33944736 0.28730055 4.6739143 0.61936779 7 1 C6.67 3.31 6.34 5.62 6 8 C3.69 7.67 1.38 7.34 -1 7 C-1.04254356 5.00045254 -1.04080783 2.99958364 -1 1 C-0.67 0.67 -0.34 0.34 0 0 Z " fill="#8A76A6" transform="translate(119,434)"/>
<path d="M0 0 C1.98 0 3.96 0 6 0 C6 2.64 6 5.28 6 8 C2.98968256 8.93423645 2.13349732 9.04449911 -1 8 C-1.125 2.25 -1.125 2.25 0 0 Z " fill="#8A76A6" transform="translate(409,83)"/>
<path d="M0 0 C1 1 1 1 1.1875 3.4375 C1 6 1 6 -1 8 C-3.625 7.625 -3.625 7.625 -6 7 C-6.33 4.69 -6.66 2.38 -7 0 C-4.31633121 -1.3418344 -2.84719317 -0.73004953 0 0 Z " fill="#8A76A6" transform="translate(90,69)"/>
<path d="M0 0 C2.33944736 0.28730055 4.6739143 0.61936779 7 1 C6.67 3.31 6.34 5.62 6 8 C3.69 7.67 1.38 7.34 -1 7 C-1.04254356 5.00045254 -1.04080783 2.99958364 -1 1 C-0.67 0.67 -0.34 0.34 0 0 Z " fill="#8A76A6" transform="translate(381,57)"/>
<path d="M0 0 C2.33294775 -0.04241723 4.66702567 -0.04092937 7 0 C8 1 8 1 8.0625 4.0625 C8.041875 5.031875 8.02125 6.00125 8 7 C5.69 7 3.38 7 1 7 C-0.0625 4.625 -0.0625 4.625 -1 2 C-0.67 1.34 -0.34 0.68 0 0 Z " fill="#8A76A6" transform="translate(241,465)"/>
<path d="M0 0 C0 2.64 0 5.28 0 8 C-1.65 8 -3.3 8 -5 8 C-5 7.34 -5 6.68 -5 6 C-5.66 6 -6.32 6 -7 6 C-7 4.02 -7 2.04 -7 0 C-4.3333581 -1.33332095 -2.83319697 -0.67102033 0 0 Z " fill="#8A76A6" transform="translate(84,404)"/>
<path d="M0 0 C3.625 -0.1875 3.625 -0.1875 7 0 C7.625 1.8125 7.625 1.8125 8 4 C7.01 5.485 7.01 5.485 6 7 C2.375 7.1875 2.375 7.1875 -1 7 C-1.625 5.1875 -1.625 5.1875 -2 3 C-1.34 2.01 -0.68 1.02 0 0 Z " fill="#8A76A6" transform="translate(13,242)"/>
<path d="M0 0 C1.134375 0.020625 2.26875 0.04125 3.4375 0.0625 C3.81968767 1.71864657 4.15145102 3.38707024 4.4375 5.0625 C3.4375 6.0625 3.4375 6.0625 -0.125 6.125 C-1.259375 6.104375 -2.39375 6.08375 -3.5625 6.0625 C-3.94468767 4.40635343 -4.27645102 2.73792976 -4.5625 1.0625 C-3.5625 0.0625 -3.5625 0.0625 0 0 Z " fill="#8A76A6" transform="translate(397.5625,409.9375)"/>
<path d="M0 0 C1.134375 0.020625 2.26875 0.04125 3.4375 0.0625 C3.81968767 1.71864657 4.15145102 3.38707024 4.4375 5.0625 C3.4375 6.0625 3.4375 6.0625 -0.125 6.125 C-1.259375 6.104375 -2.39375 6.08375 -3.5625 6.0625 C-3.94468767 4.40635343 -4.27645102 2.73792976 -4.5625 1.0625 C-3.5625 0.0625 -3.5625 0.0625 0 0 Z " fill="#8A76A6" transform="translate(406.5625,400.9375)"/>
<path d="M0 0 C1.134375 0.020625 2.26875 0.04125 3.4375 0.0625 C3.81968767 1.71864657 4.15145102 3.38707024 4.4375 5.0625 C3.4375 6.0625 3.4375 6.0625 -0.125 6.125 C-1.259375 6.104375 -2.39375 6.08375 -3.5625 6.0625 C-3.94468767 4.40635343 -4.27645102 2.73792976 -4.5625 1.0625 C-3.5625 0.0625 -3.5625 0.0625 0 0 Z " fill="#8A76A6" transform="translate(403.5625,74.9375)"/>
<path d="M0 0 C0.99 0.33 1.98 0.66 3 1 C-2.50680787 6.97881997 -2.50680787 6.97881997 -7 8 C-10.03450546 7.85671812 -13.00219928 7.48330556 -16 7 C-16 6.67 -16 6.34 -16 6 C-15.41992188 5.96261719 -14.83984375 5.92523438 -14.2421875 5.88671875 C-9.21297752 5.4634684 -5.37288876 4.73305547 -1 2 C-0.67 1.34 -0.34 0.68 0 0 Z " fill="#DCD6E4" transform="translate(234,409)"/>
</svg>
