<svg xmlns="http://www.w3.org/2000/svg" version="1.0" preserveAspectRatio="xMidYMid meet" viewBox="96.95 51.11 69.99 99.89">

<g transform="translate(0.000000,228.000000) scale(0.100000,-0.100000)" fill="#000000" stroke="none">
<path fill="#ffffff" d="M1174 1756 c-18 -8 -34 -18 -37 -23 -3 -4 -27 -8 -54 -7 -69 3 -86 -9 -81 -57 2 -21 0 -39 -4 -39 -14 0 -8 -47 7 -60 9 -8 29 -10 50 -7 19 3 35 2 35 -3 0 -5 14 -25 31 -45 24 -27 30 -41 25 -60 -4 -14 -14 -25 -23 -25 -18 0 -27 -7 -94 -72 -62 -61 -76 -130 -40 -201 10 -20 15 -34 10 -31 -13 8 -12 2 20 -125 21 -86 33 -117 47 -122 17 -7 17 -8 -3 -8 -27 -1 -31 -32 -7 -52 8 -7 13 -21 11 -31 -5 -17 6 -18 169 -18 96 0 174 3 174 7 0 3 -8 15 -17 26 -10 12 -12 17 -4 12 11 -6 13 -1 9 24 -3 18 -1 34 4 37 16 10 8 43 -13 55 -12 6 -32 9 -45 6 -23 -4 -24 -2 -24 49 0 29 5 64 11 78 13 28 58 39 85 19 21 -15 58 -17 84 -3 26 14 33 56 32 192 -1 93 2 119 14 129 28 23 54 88 54 133 0 51 22 85 55 87 19 1 19 2 1 6 -15 4 -16 7 -5 14 11 7 10 9 -4 9 -11 0 -15 4 -11 12 5 7 3 8 -6 3 -8 -5 -18 -1 -27 10 -7 11 -13 13 -13 6 0 -7 -4 -9 -10 -6 -6 4 -10 -6 -10 -23 0 -16 -7 -35 -16 -43 -9 -7 -29 -32 -45 -56 -33 -47 -43 -51 -71 -26 -21 19 -22 16 -4 -59 l14 -57 -32 -33 c-18 -18 -37 -42 -44 -53 -10 -19 -13 -18 -53 23 -23 23 -50 42 -61 42 -10 0 -18 5 -18 10 0 7 13 8 35 4 25 -4 35 -3 35 7 0 7 7 20 15 29 14 15 46 173 46 223 0 30 -39 74 -81 91 -49 19 -75 20 -116 2z"/>
</g>
</svg>