<svg xmlns="http://www.w3.org/2000/svg" version="1.0" preserveAspectRatio="xMidYMid meet" viewBox="78.1 58.04 109.74 99.22">

<g transform="translate(0.000000,227.000000) scale(0.100000,-0.100000)" fill="#000000" stroke="none">
<path fill="#ef6767" d="M1157 1684 c-4 -4 -7 -51 -7 -105 0 -95 -1 -99 -23 -104 -13 -4 -30 -5 -38 -3 -8 2 -13 -2 -12 -8 1 -7 -22 -13 -61 -16 -77 -7 -153 -45 -202 -102 -56 -66 -40 -107 43 -105 21 1 95 -2 166 -6 l127 -8 0 -263 0 -264 23 0 22 0 -3 263 -3 264 133 7 c73 5 147 8 165 7 48 -1 83 15 83 39 0 12 -23 46 -51 75 -58 61 -130 95 -204 95 -25 0 -45 5 -47 12 -3 7 -20 13 -39 13 l-34 0 -5 104 c-5 96 -14 124 -33 105z"/>
<path fill="#ef6767" d="M1794 1154 l-39 -46 -40 20 c-112 59 -125 63 -183 60 -86 -4 -83 -25 18 -123 44 -43 80 -82 80 -86 0 -4 -52 -64 -115 -133 -63 -68 -115 -129 -115 -135 0 -29 24 -13 90 62 40 45 95 106 122 135 l50 53 48 -43 c136 -123 163 -132 168 -59 4 53 -19 119 -53 151 -13 13 -22 26 -20 30 3 4 -4 15 -15 25 -19 17 -19 19 25 67 25 28 45 54 45 59 0 22 -30 5 -66 -37z"/>
</g>
</svg>