<svg xmlns="http://www.w3.org/2000/svg" version="1.0" preserveAspectRatio="xMidYMid meet" viewBox="85.11 51.14 94.53 99.86">

<g transform="translate(0.000000,228.000000) scale(0.100000,-0.100000)" fill="#000000" stroke="none">
<path fill="#0dcaf0" d="M1267 1755 c-66 -25 -127 -87 -142 -146 -5 -21 -12 -24 -61 -25 -76 -2 -140 -37 -181 -98 -39 -58 -43 -79 -8 -46 15 14 25 18 25 10 0 -7 10 -1 21 14 12 15 27 25 34 22 8 -2 16 2 19 11 4 8 13 13 20 10 8 -3 20 1 26 9 23 27 28 14 9 -23 -11 -22 -19 -56 -18 -83 1 -25 3 -37 6 -27 2 9 8 17 13 17 5 0 10 10 12 22 4 31 26 34 34 4 3 -14 12 -30 19 -36 17 -14 22 8 19 78 -3 78 16 66 69 -45 75 -159 114 -307 119 -448 l3 -69 -54 -8 c-97 -15 -191 -69 -191 -110 0 -17 16 -18 300 -18 284 0 300 1 300 18 0 34 -65 79 -147 101 -24 7 -43 18 -43 25 0 87 64 301 112 376 l23 35 5 -60 c5 -59 6 -59 19 -32 17 32 27 34 34 6 3 -12 10 -18 15 -15 10 6 1 63 -13 86 -10 16 37 2 47 -14 4 -6 8 -7 8 -2 0 5 8 3 18 -5 9 -8 27 -20 40 -27 23 -13 23 -13 8 17 -23 44 -71 73 -128 79 -42 4 -51 9 -59 31 -19 48 -83 101 -124 101 -9 0 0 -14 25 -39 22 -21 40 -44 40 -50 0 -6 5 -11 10 -11 6 0 10 -3 10 -7 0 -5 -23 -6 -51 -4 -36 2 -49 0 -45 -8 4 -6 16 -11 27 -11 25 0 24 -16 -2 -31 -29 -15 -5 -31 28 -18 50 19 51 10 12 -64 -41 -79 -94 -227 -105 -295 -4 -23 -11 -41 -17 -39 -6 2 -21 50 -33 108 -32 141 -75 263 -140 393 -30 60 -54 110 -54 112 0 2 6 1 13 -1 14 -5 60 -14 102 -20 l30 -4 -32 29 c-40 36 -43 54 -8 48 14 -3 25 -1 25 3 0 5 8 9 18 9 16 1 15 2 -2 11 -10 6 -47 9 -83 7 -51 -3 -61 -2 -49 8 9 6 16 14 16 18 0 15 53 76 66 76 8 0 14 6 14 14 0 7 10 21 23 29 28 20 6 21 -46 2z"/>
</g>
</svg>