<svg xmlns="http://www.w3.org/2000/svg" version="1.0" preserveAspectRatio="xMidYMid meet" viewBox="91.66 51 80.05 100">

<g transform="translate(0.000000,228.000000) scale(0.100000,-0.100000)" fill="#000000" stroke="none">
<path fill="#0dcaf0" d="M1227 1763 c-4 -3 -23 -6 -44 -5 -31 1 -46 -7 -99 -53 l-62 -55 0 -58 c0 -31 6 -67 14 -79 8 -12 14 -31 14 -41 0 -11 11 -36 25 -56 29 -43 30 -46 9 -46 -9 0 -18 -9 -21 -19 -3 -11 -15 -22 -28 -25 -39 -10 -102 -91 -114 -147 -11 -51 0 -133 20 -145 5 -3 9 -10 9 -15 0 -6 -5 -7 -10 -4 -12 7 -13 12 28 -140 l27 -100 163 -3 162 -2 0 66 c0 121 42 162 121 120 32 -17 40 -18 68 -6 51 21 56 40 56 206 1 147 2 153 26 185 48 63 61 98 55 144 -5 33 -3 47 14 68 12 15 28 27 36 27 9 0 12 5 8 11 -3 6 0 16 7 21 10 7 8 8 -8 5 -25 -5 -29 2 -13 21 7 9 7 9 -2 2 -18 -15 -28 -12 -22 8 5 14 4 15 -5 2 -10 -13 -12 -13 -21 0 -7 11 -10 11 -10 2 0 -7 -4 -10 -10 -7 -6 3 -10 -5 -10 -19 0 -14 -21 -53 -51 -93 -70 -93 -65 -90 -94 -63 -29 27 -43 20 -27 -13 27 -54 26 -147 -2 -147 -6 0 -19 -12 -29 -27 -9 -16 -23 -37 -32 -47 -14 -18 -15 -18 -34 5 -22 25 -28 74 -11 84 6 3 10 17 10 31 0 13 5 24 11 24 8 0 9 11 5 31 -11 54 4 136 26 146 19 8 19 9 -6 36 l-25 27 36 29 c32 27 35 32 22 47 -17 21 -130 74 -156 74 -11 0 -23 -3 -26 -7z"/>
</g>
</svg>