<svg xmlns="http://www.w3.org/2000/svg" version="1.0" preserveAspectRatio="xMidYMid meet" viewBox="95.5 58.5 75 99.5">

<g transform="translate(0.000000,227.000000) scale(0.100000,-0.100000)" fill="#000000" stroke="none">
<path fill="#0dcaf0" d="M1500 1660 c0 -38 -42 -173 -50 -160 -10 16 -31 -74 -23 -97 9 -27 35 -54 62 -65 40 -15 11 -27 -74 -30 l-80 -3 5 -100 c7 -147 5 -406 -4 -437 -5 -15 -5 -39 -2 -53 l6 -25 183 2 182 3 -5 105 c-6 116 -5 428 1 475 l4 30 -87 3 c-49 1 -88 7 -88 11 0 5 11 16 25 25 66 43 75 122 25 221 -16 33 -41 74 -55 90 l-25 30 0 -25z"/>
<path fill="#0dcaf0" d="M1071 1515 c-6 -22 -11 -45 -11 -51 0 -6 -9 -23 -20 -37 -30 -38 -26 -80 10 -110 17 -14 30 -28 30 -31 0 -3 -28 -6 -62 -6 l-63 0 0 -230 0 -230 135 0 135 0 0 230 0 230 -62 0 c-35 0 -63 3 -63 6 0 3 14 19 30 34 22 20 30 37 30 62 0 33 -34 115 -63 153 -14 18 -15 18 -26 -20z"/>
</g>
</svg>