<svg xmlns="http://www.w3.org/2000/svg" version="1.0" preserveAspectRatio="xMidYMid meet" viewBox="72.09 73.1 119.91 71.3">

<g transform="translate(0.000000,227.000000) scale(0.100000,-0.100000)" fill="#000000" stroke="none">
<path fill="#f5b225" d="M1105 1478 c-16 -34 -54 -88 -84 -120 -54 -59 -76 -71 -46 -24 16 24 15 27 -10 70 -15 25 -30 46 -35 46 -4 0 -10 -19 -14 -41 -5 -33 -3 -44 11 -55 14 -11 15 -13 3 -13 -24 -1 -99 36 -151 74 l-48 34 -7 -44 c-21 -146 68 -363 197 -479 59 -53 53 -59 -15 -15 -46 28 -49 29 -67 13 -67 -60 48 -98 301 -98 253 0 368 38 301 98 -18 16 -21 15 -67 -13 -26 -17 -51 -31 -55 -31 -3 0 24 31 61 69 123 125 201 335 174 470 l-6 31 -48 -35 c-46 -34 -131 -75 -153 -75 -7 0 -4 7 6 14 15 11 17 22 11 53 -10 58 -14 59 -46 3 -28 -49 -29 -53 -13 -77 30 -46 8 -34 -46 25 -30 32 -67 86 -84 119 -16 34 -32 62 -35 62 -3 1 -18 -27 -35 -61z"/>
<path fill="#f5b225" d="M1720 1190 c0 -16 -51 -90 -62 -90 -5 0 -7 3 -4 8 2 4 -2 18 -10 32 -12 23 -13 23 -15 5 -1 -11 -1 -23 0 -27 2 -14 -16 -8 -52 16 -33 22 -35 23 -40 6 -7 -26 9 -103 29 -142 9 -18 30 -48 47 -65 17 -18 26 -33 21 -33 -6 0 -15 5 -21 11 -6 6 -16 8 -22 5 -38 -24 27 -46 133 -46 83 0 156 14 156 30 0 19 -20 20 -47 4 -25 -16 -23 -13 9 22 50 53 78 117 78 181 l0 52 -36 -24 c-37 -25 -60 -32 -50 -16 4 5 3 17 0 26 -6 14 -8 13 -21 -5 -8 -11 -11 -25 -8 -30 3 -6 3 -10 -2 -10 -10 0 -63 75 -63 89 0 6 -4 11 -10 11 -5 0 -10 -5 -10 -10z"/>
</g>
</svg>