<svg xmlns="http://www.w3.org/2000/svg" version="1.0" preserveAspectRatio="xMidYMid meet" viewBox="92 68 81 98">

<g transform="translate(0.000000,228.000000) scale(0.100000,-0.100000)" fill="#000000" stroke="none">
<path fill="#7a6fbe" d="M1313 1580 c-3 -11 -13 -20 -22 -21 -10 0 -11 -2 -3 -6 19 -8 14 -23 -8 -23 -11 0 -20 -7 -20 -15 0 -8 7 -15 15 -15 8 0 15 -4 15 -10 0 -5 -6 -10 -14 -10 -7 0 -19 -7 -26 -15 -10 -13 -9 -15 9 -15 12 0 21 -6 21 -15 0 -8 -6 -15 -14 -15 -8 0 -22 -8 -32 -17 -16 -17 -16 -18 7 -23 34 -8 38 -40 5 -40 -24 0 -56 -23 -56 -40 0 -5 15 -10 32 -12 22 -2 34 -9 36 -20 3 -15 -4 -18 -42 -18 -35 0 -48 -5 -60 -22 -25 -35 -19 -47 22 -50 29 -2 38 -8 40 -24 3 -20 -3 -22 -58 -26 -68 -5 -94 -23 -109 -75 l-9 -32 69 -7 c63 -6 69 -9 69 -29 0 -19 -7 -23 -52 -28 -63 -8 -99 -32 -114 -78 -10 -28 -9 -35 2 -37 21 -5 20 -152 -1 -152 -8 0 -15 -7 -15 -15 0 -8 -7 -15 -15 -15 -8 0 -15 -4 -15 -10 0 -5 -11 -10 -25 -10 -14 0 -25 -4 -25 -10 0 -7 142 -10 405 -10 263 0 405 3 405 10 0 6 -9 10 -21 10 -22 0 -49 22 -49 39 0 6 -9 11 -20 11 -18 0 -20 7 -20 70 0 54 4 72 15 76 19 8 19 27 -1 65 -17 35 -67 59 -119 59 -30 0 -35 3 -35 24 0 22 5 24 69 30 l69 7 -11 36 c-15 48 -57 73 -124 73 -45 0 -53 3 -53 19 0 21 19 31 61 31 35 0 38 21 9 50 -13 13 -33 20 -61 20 -33 0 -40 3 -37 18 2 11 15 19 36 22 32 5 32 6 17 28 -9 12 -27 22 -41 22 -17 0 -24 5 -24 20 0 15 7 20 25 20 34 0 22 27 -15 35 -20 4 -27 11 -23 21 3 8 11 14 19 14 22 0 17 21 -6 27 -21 6 -22 30 -1 26 20 -5 12 19 -9 24 -23 6 -26 19 -7 26 7 4 6 6 -4 6 -9 1 -19 10 -22 21 -3 11 -10 20 -17 20 -7 0 -14 -9 -17 -20z m-203 -820 l0 -70 -30 0 -30 0 0 70 0 70 30 0 30 0 0 -70z m40 -6 c0 -36 -4 -64 -10 -64 -6 0 -10 30 -10 71 0 44 4 68 10 64 6 -3 10 -35 10 -71z m380 0 c0 -36 -4 -64 -10 -64 -6 0 -10 30 -10 71 0 44 4 68 10 64 6 -3 10 -35 10 -71z m80 6 l0 -70 -35 0 -35 0 0 63 c0 35 3 67 7 70 3 4 19 7 35 7 l28 0 0 -70z"/>
</g>
</svg>