<svg xmlns="http://www.w3.org/2000/svg" version="1.0" preserveAspectRatio="xMidYMid meet" viewBox="91.8 68 81.3 98">

<g transform="translate(0.000000,228.000000) scale(0.100000,-0.100000)" fill="#000000" stroke="none">
<path fill="#ef6767" d="M1233 1570 c-3 -17 -14 -35 -24 -41 -23 -12 -25 -29 -4 -29 8 0 15 -7 15 -15 0 -9 -9 -15 -24 -15 -20 0 -22 -4 -18 -26 4 -22 2 -25 -19 -22 -19 2 -25 -2 -27 -20 -3 -20 0 -23 17 -17 15 5 21 2 21 -9 0 -9 -4 -16 -10 -16 -5 0 -10 -9 -10 -19 0 -10 -7 -21 -15 -25 -17 -6 -20 -42 -5 -51 14 -8 13 -62 -1 -71 -6 -3 -9 -19 -5 -34 3 -16 -3 -50 -15 -81 -13 -37 -18 -66 -13 -92 10 -63 -6 -287 -21 -287 -12 0 -17 31 -29 173 -2 26 -10 54 -16 62 -9 11 -9 15 -1 15 6 0 11 5 11 11 0 5 -4 7 -10 4 -5 -3 -10 1 -10 9 0 9 -4 16 -8 16 -4 0 -8 10 -9 21 -2 24 -10 35 -19 27 -3 -3 -6 -15 -7 -27 -1 -11 -5 -21 -9 -21 -4 0 -8 -7 -8 -16 0 -8 -4 -12 -10 -9 -5 3 -10 1 -10 -4 0 -6 5 -11 11 -11 8 0 8 -4 -1 -15 -13 -15 -18 -60 -27 -217 l-5 -98 166 0 166 0 0 490 c0 270 -2 490 -5 490 -3 0 -8 -14 -12 -30z"/>
<path fill="#ef6767" d="M1401 1113 l-1 -493 166 0 165 0 -5 93 c-5 108 -9 138 -20 156 -5 7 -3 18 3 24 8 8 6 16 -7 30 -12 15 -14 21 -4 24 6 3 12 9 12 14 0 6 -4 7 -10 4 -5 -3 -10 1 -10 9 0 9 -5 16 -10 16 -6 0 -9 3 -8 8 1 4 -2 18 -6 32 l-9 25 -10 -25 c-6 -14 -9 -28 -9 -32 1 -5 -2 -8 -8 -8 -5 0 -10 -7 -10 -15 0 -8 -6 -15 -12 -15 -9 0 -9 -3 1 -9 11 -7 12 -13 4 -23 -6 -7 -11 -24 -11 -38 0 -14 -4 -62 -8 -107 -6 -73 -9 -83 -26 -83 -18 0 -19 8 -17 168 1 161 -4 214 -23 239 -5 6 -6 27 -3 45 5 25 2 38 -9 47 -20 17 -21 60 -1 67 8 4 15 14 15 24 0 10 -7 20 -15 24 -8 3 -15 12 -15 20 0 8 -7 19 -16 24 -20 11 -9 36 12 28 17 -6 26 7 18 27 -3 9 -13 13 -25 10 -15 -4 -19 0 -19 21 0 19 -5 26 -20 26 -13 0 -20 7 -20 20 0 13 5 18 15 14 21 -8 19 13 -2 25 -10 5 -23 24 -29 43 -10 27 -13 -62 -13 -459z"/>
</g>
</svg>