<svg xmlns="http://www.w3.org/2000/svg" version="1.0" preserveAspectRatio="xMidYMid meet" viewBox="89 67 87.5 99">

<g transform="translate(0.000000,228.000000) scale(0.100000,-0.100000)" fill="#000000" stroke="none">
<path fill="#7a6fbe" d="M1311 1596 c-13 -15 -11 -37 4 -48 5 -4 -1 -18 -15 -33 -26 -28 -249 -162 -332 -200 -37 -17 -46 -24 -30 -24 12 -1 25 -8 28 -16 5 -11 22 -15 65 -15 l59 0 0 -204 c0 -111 -3 -231 -6 -265 l-7 -61 -48 0 c-48 0 -49 -1 -49 -30 0 -29 -2 -30 -45 -30 -41 0 -45 -2 -45 -25 l0 -25 438 0 437 0 0 25 c0 23 -3 25 -47 25 -47 0 -48 1 -48 30 0 29 -2 30 -45 30 l-45 0 0 40 c0 22 -4 40 -10 40 -6 0 -10 82 -10 225 l0 225 59 0 c40 0 63 5 71 15 7 8 20 15 28 15 24 0 3 15 -48 34 -25 10 -90 46 -145 80 -55 35 -110 66 -122 70 -27 9 -67 62 -58 77 9 13 -2 59 -14 59 -5 0 -14 -6 -20 -14z m189 -511 l0 -175 -170 0 -170 0 0 175 0 175 170 0 170 0 0 -175z m0 -250 c0 -14 -4 -25 -10 -25 -5 0 -9 -10 -8 -22 2 -61 12 -58 -157 -58 l-155 0 0 28 c0 15 -3 44 -6 65 l-7 37 172 0 171 0 0 -25z"/>
</g>
</svg>